<?xml version="1.0" standalone="no"?>
<!DOCTYPE svg PUBLIC "-//W3C//DTD SVG 1.1//EN" "http://www.w3.org/Graphics/SVG/1.1/DTD/svg11.dtd" >
<svg xmlns="http://www.w3.org/2000/svg">
<metadata>
This is a custom SVG webfont generated by Fontspring.
Designer    : Nicholas Garner
Foundry     : Aviation Partners
Foundry URL : http://www.codesign.co.uk
</metadata>
<defs>
<font id="webfontoeGEBiuu" horiz-adv-x="428" >
<font-face units-per-em="1000" ascent="800" descent="-200" />
<missing-glyph horiz-adv-x="206" />
<glyph unicode=" "  horiz-adv-x="206" />
<glyph unicode="&#x09;" horiz-adv-x="206" />
<glyph unicode="&#xa0;" horiz-adv-x="206" />
<glyph unicode="!" horiz-adv-x="264" d="M136 218h-8q-13 0 -22 9t-10 22l-21 398q0 14 9.5 23.5t22.5 9.5h50q13 0 22 -9.5t10 -23.5l-21 -398q-1 -13 -10 -22t-22 -9zM200 71q0 -37 -18 -58t-50 -21t-50 21t-18 58q0 35 18.5 56t49.5 21t49.5 -21t18.5 -56z" />
<glyph unicode="&#x22;" horiz-adv-x="391" d="M91 680h46q14 0 23 -10t9 -24l-18 -210q-1 -12 -10.5 -21t-21.5 -9h-14q-13 0 -22 8.5t-10 21.5l-14 211q0 14 9.5 23.5t22.5 9.5zM253 680h46q14 0 23 -10t9 -24l-13 -210q-1 -13 -10 -21.5t-22 -8.5h-15q-12 0 -21.5 9t-10.5 21q-1 9 -18 210q0 14 9 24t23 10z" />
<glyph unicode="#" horiz-adv-x="585" d="M340 185l27 148h-123l-25 -148h121zM496 520l-16 -91h44q14 0 23 -9.5t9 -22.5v-32q0 -13 -9 -22.5t-23 -9.5h-62l-24 -148h43q13 0 22.5 -9.5t9.5 -22.5v-32q0 -13 -9.5 -22.5t-22.5 -9.5h-62l-19 -107q-5 -27 -32 -27h-4l-33 6q-23 7 -23 31v5l15 92h-122 q-15 -81 -19 -107q-5 -27 -32 -27h-4l-33 6q-23 7 -23 31v5l15 92h-43q-14 0 -23 9.5t-9 22.5v32q0 13 9 22.5t23 9.5h61l24 148h-42q-13 0 -22.5 9.5t-9.5 22.5v32q0 13 9.5 22.5t22.5 9.5h60q15 80 19 107q5 27 32 27h4q11 -1 34 -7q23 -7 23 -31v-5l-15 -91h122 q15 80 19 107q5 27 32 27h4q11 -1 34 -7q23 -7 23 -31v-5z" />
<glyph unicode="$" horiz-adv-x="425" d="M238 409q32 -21 52 -36t46.5 -42.5t39.5 -63t13 -77.5q0 -74 -35 -123.5t-98 -67.5v-66q0 -13 -9 -22.5t-23 -9.5h-31q-13 0 -22.5 9.5t-9.5 22.5v65q-60 11 -116 52q-13 11 -13 29q0 4 1 6l14 44q8 24 30 24q12 0 20 -7q62 -47 106 -47q30 0 47.5 23.5t17.5 60.5 q0 60 -82 114q-29 19 -48.5 35t-44 42.5t-37 59.5t-12.5 72q0 64 31.5 110.5t85.5 61.5v70q0 14 9.5 23t22.5 9h31q14 0 23 -9t9 -23v-64q45 -8 94 -41q14 -11 14 -28q0 -1 -0.5 -3t-0.5 -3l-10 -37q-6 -25 -29 -25q-10 0 -19 6q-47 30 -84 30q-26 0 -43.5 -19t-17.5 -54 q0 -31 21 -54.5t57 -46.5z" />
<glyph unicode="%" horiz-adv-x="725" d="M187 0h-6q-14 0 -23.5 9t-9.5 22q0 7 5 17l205 355l151 261q3 6 12 11t16 5h6q14 0 23.5 -9t9.5 -22q0 -7 -5 -17l-205 -355l-151 -261q-3 -6 -12 -11t-16 -5zM154 268q-57 0 -89 57t-32 154q0 95 32 152t89 57q56 0 88 -57t32 -152q0 -96 -32 -153.5t-88 -57.5zM154 615 q-22 0 -33 -37.5t-11 -98.5q0 -137 44 -137q20 0 32 38.5t12 98.5q0 59 -12 97.5t-32 38.5zM570 -8q-56 0 -88.5 57t-32.5 153q0 95 32 152.5t89 57.5q56 0 88 -57.5t32 -152.5q0 -96 -32 -153t-88 -57zM570 338q-20 0 -31.5 -38t-11.5 -98t11.5 -98.5t31.5 -38.5 q22 0 33 38t11 99t-11 98.5t-33 37.5z" />
<glyph unicode="&#x26;" horiz-adv-x="568" d="M289 362v-7l87 -129q34 58 54 103q9 19 30 19h4l38 -7q27 -5 27 -31q0 -6 -3 -14q-38 -88 -88 -160l59 -86q6 -9 6 -19q0 -13 -9 -22t-24 -9h-52q-17 0 -25 12l-30 42q-69 -62 -152 -62q-67 0 -116.5 49t-49.5 132q0 109 107 198v5q-64 94 -64 154q0 75 43.5 116.5 t106.5 41.5q60 0 102 -41.5t42 -113.5q0 -45 -26.5 -91.5t-66.5 -79.5zM311 132l-105 158q-49 -53 -49 -113q0 -37 18.5 -65t45.5 -28q46 0 90 48zM194 537q0 -45 41 -99q46 45 46 98q0 29 -12 44.5t-31 15.5q-18 0 -31 -15.5t-13 -43.5z" />
<glyph unicode="'" horiz-adv-x="256" d="M106 680h46q14 0 23 -10t9 -25l-16 -209q-1 -13 -10 -21.5t-22 -8.5h-15q-13 0 -22 9t-10 21l-15 210q0 14 9 24t23 10z" />
<glyph unicode="(" horiz-adv-x="306" d="M201 680h28q14 0 23.5 -9t9.5 -22q0 -8 -4 -15q-81 -176 -81 -397q0 -227 81 -397q4 -7 4 -15q0 -13 -9.5 -22t-23.5 -9h-29q-7 0 -16 5t-12 11q-100 179 -100 427q0 242 101 426q3 6 12 11.5t16 5.5z" />
<glyph unicode=")" horiz-adv-x="306" d="M81 680h28q7 0 16 -5.5t12 -11.5q101 -184 101 -426q0 -248 -100 -427q-3 -6 -12 -11t-16 -5h-29q-14 0 -23.5 9t-9.5 22q0 8 4 15q81 170 81 397q0 221 -81 397q-4 7 -4 15q0 13 9.5 22t23.5 9z" />
<glyph unicode="*" horiz-adv-x="492" d="M439 468q23 -6 23 -29q0 -8 -3 -15l-9 -22q-8 -22 -29 -22q-9 0 -16 4l-89 51l-7 -6l51 -89q5 -8 5 -16q0 -21 -22 -29l-22 -10q-8 -3 -15 -3q-23 0 -29 23l-27 99h-10l-26 -99q-6 -23 -29 -23q-8 0 -15 3l-22 9q-22 8 -22 29q0 9 4 16l51 89l-6 7l-89 -51q-7 -4 -16 -4 q-21 0 -29 21l-10 22q-3 8 -3 15q0 24 23 30l99 26v10l-99 26q-23 6 -23 29q0 8 3 15l9 22q8 22 29 22q9 0 16 -4l89 -51l7 7l-51 88q-4 7 -4 16q0 21 21 29l22 10q10 4 15 4q23 0 30 -23l26 -100h10l26 99q6 23 29 23q8 0 15 -3l22 -9q22 -8 22 -29q0 -9 -4 -16l-51 -89 l7 -7l88 51q8 5 16 5q20 0 30 -22l9 -22q4 -10 4 -15q0 -23 -23 -30l-100 -26v-10z" />
<glyph unicode="+" horiz-adv-x="587" d="M531 253v-32q0 -13 -9.5 -22.5t-22.5 -9.5h-158v-157q0 -14 -9.5 -23t-22.5 -9h-31q-14 0 -23 9t-9 23v157h-157q-13 0 -22.5 9.5t-9.5 22.5v32q0 13 9.5 22.5t22.5 9.5h157v157q0 14 9 23t23 9h31q13 0 22.5 -9t9.5 -23v-157h158q13 0 22.5 -9.5t9.5 -22.5z" />
<glyph unicode="," horiz-adv-x="256" d="M74 -183l-15 6q-18 8 -18 29q0 7 3 13q46 107 46 209q0 28 17 49.5t43 21.5t43 -21t17 -50q0 -95 -96 -245q-10 -15 -27 -15q-7 0 -13 3z" />
<glyph unicode="-" horiz-adv-x="373" d="M332 258v-38q0 -14 -9 -23t-23 -9h-227q-13 0 -22.5 9t-9.5 23v38q0 14 9.5 23t22.5 9h227q14 0 23 -9t9 -23z" />
<glyph unicode="." horiz-adv-x="237" d="M200 70q0 -35 -18.5 -56.5t-49.5 -21.5t-49.5 21.5t-18.5 56.5t18.5 56.5t49.5 21.5t49.5 -21.5t18.5 -56.5z" />
<glyph unicode="/" horiz-adv-x="371" d="M31 -30l224 688q3 9 12 15.5t18 6.5h25q14 0 23 -9t9 -22q0 -3 -2 -11l-224 -688q-3 -9 -12 -15.5t-18 -6.5h-25q-14 0 -23 9t-9 22q0 3 2 11z" />
<glyph unicode="0" horiz-adv-x="447" d="M223 688q92 0 144 -94.5t52 -253.5t-52 -253.5t-144 -94.5t-144 94.5t-52 253.5t52 253.5t144 94.5zM223 105q33 0 54.5 67t21.5 168t-21.5 168t-54.5 67t-54.5 -67t-21.5 -168t21.5 -168t54.5 -67z" />
<glyph unicode="1" horiz-adv-x="449" d="M52 560l124 104q18 16 36 16h53q13 0 22.5 -9t9.5 -23v-546h83q14 0 23 -9t9 -23v-38q0 -14 -9 -23t-23 -9h-285q-13 0 -22.5 9t-9.5 23v38q0 14 9.5 23t22.5 9h82v441l-75 -67q-10 -9 -21 -9q-23 0 -31 26l-9 34q-1 2 -1 6q0 17 12 27z" />
<glyph unicode="2" horiz-adv-x="449" d="M278 209l-70 -107h159q13 0 22.5 -9t9.5 -23v-38q0 -14 -9.5 -23t-22.5 -9h-285q-14 0 -23 9t-9 23v20q0 16 11 38l117 179q102 149 102 224q0 43 -18.5 64t-46.5 21q-39 0 -87 -43q-10 -9 -22 -9q-24 0 -30 24l-12 43q-1 2 -1 7q0 16 11 27q73 61 148 61q80 0 128.5 -53 t48.5 -145q0 -97 -121 -281z" />
<glyph unicode="3" horiz-adv-x="449" d="M314 361v-7q83 -40 83 -156q0 -94 -54 -150t-139 -56q-62 0 -133 45q-15 9 -15 29q0 1 0.5 3t0.5 3l10 38q6 24 29 24q10 0 18 -5q45 -27 83 -27q35 0 60 27.5t25 70.5q0 85 -89 91q-11 1 -19.5 11t-8.5 21v49q0 10 7.5 19.5t18.5 11.5q35 7 53.5 32t18.5 57 q0 37 -18.5 61t-48.5 24q-32 0 -71 -23q-10 -5 -17 -5q-24 0 -30 24l-9 35q-2 6 -2 9q0 19 17 28q70 42 126 42q73 0 123 -52.5t50 -133.5q0 -87 -69 -140z" />
<glyph unicode="4" horiz-adv-x="447" d="M363 262h28q13 0 22.5 -9t9.5 -23v-38q0 -14 -9.5 -23t-22.5 -9h-28v-128q0 -14 -9.5 -23t-22.5 -9h-51q-14 0 -23 9t-9 23v128h-192q-14 0 -23 9t-9 23v39q0 25 13 50l203 382q3 6 12 11.5t16 5.5h63q13 0 22.5 -9t9.5 -23v-386zM251 498h-8l-115 -232v-8q52 4 69 4h51 v140q0 59 3 96z" />
<glyph unicode="5" horiz-adv-x="449" d="M404 229q0 -97 -58 -167t-140 -70q-71 0 -136 28q-20 9 -20 30q0 1 0.5 3t0.5 3l10 42q5 25 30 25q8 0 12 -2q49 -19 86 -19t66 36.5t29 90.5q0 62 -28.5 95t-68.5 33q-33 0 -64 -6q-1 0 -3.5 -0.5t-3.5 -0.5q-13 0 -22 9t-9 23l17 268q1 13 10 21.5t22 8.5h224 q14 0 23 -9t9 -23v-37q0 -13 -9 -22.5t-23 -9.5h-141q0 -6 -4 -46.5t-5 -69.5q10 1 19 1q74 0 125.5 -68t51.5 -167z" />
<glyph unicode="6" horiz-adv-x="447" d="M211 462l1 -7q14 7 33 7q76 0 126 -65t50 -168q0 -110 -53.5 -173.5t-144.5 -63.5q-90 0 -144 64t-54 173q0 218 222 442q9 9 23 9h48q14 0 23.5 -9t9.5 -22t-10 -23q-72 -74 -130 -164zM301 229q0 62 -20.5 94.5t-57.5 32.5q-43 0 -60.5 -31.5t-17.5 -95.5 q0 -61 21 -94.5t57 -33.5t57 33.5t21 94.5z" />
<glyph unicode="7" horiz-adv-x="448" d="M68 680h317q13 0 22.5 -9t9.5 -23v-30q0 -18 -8 -44l-195 -553q-8 -21 -30 -21h-57q-14 0 -23 9t-9 22q0 8 2 12l194 536h-155v-85q0 -14 -9 -23t-23 -9h-36q-14 0 -23 9t-9 23v154q0 14 9 23t23 9z" />
<glyph unicode="8" horiz-adv-x="449" d="M314 357q37 -28 64 -74.5t27 -101.5q0 -84 -51 -136.5t-130 -52.5t-130 52.5t-51 136.5q0 53 27.5 101t63.5 74v4q-34 24 -56 65.5t-22 88.5q0 76 47.5 125t120.5 49t120 -49t47 -125q0 -47 -21.5 -88t-55.5 -65v-4zM224 578q-27 0 -41.5 -19.5t-14.5 -52.5 q0 -26 14.5 -49t41.5 -35q27 11 41 34.5t14 49.5q0 72 -55 72zM224 101q32 0 49 23.5t17 60.5q0 82 -66 109q-67 -27 -67 -109q0 -37 17 -60.5t50 -23.5z" />
<glyph unicode="9" horiz-adv-x="447" d="M235 218l-1 7q-13 -7 -33 -7q-77 0 -126.5 64.5t-49.5 168.5q0 110 53.5 173.5t144.5 63.5q90 0 144 -64t54 -173q0 -218 -222 -442q-9 -9 -23 -9h-48q-14 0 -23.5 9t-9.5 22t10 23q72 74 130 164zM145 451q0 -62 20.5 -94.5t57.5 -32.5q43 0 60.5 31.5t17.5 95.5 q0 61 -21 94.5t-57 33.5t-57 -33.5t-21 -94.5z" />
<glyph unicode=":" horiz-adv-x="237" d="M200 370q0 -37 -18 -58t-50 -21t-50 21t-18 58q0 35 18.5 56.5t49.5 21.5t49.5 -21.5t18.5 -56.5zM200 70q0 -35 -18.5 -56.5t-49.5 -21.5t-49.5 21.5t-18.5 56.5t18.5 56.5t49.5 21.5t49.5 -21.5t18.5 -56.5z" />
<glyph unicode=";" horiz-adv-x="253" d="M216 370q0 -37 -18 -58t-50 -21t-50 21t-18 58q0 35 18.5 56t49.5 21t49.5 -21t18.5 -56zM75 -184l-15 6q-20 8 -20 30q0 7 3 13q47 109 47 209q0 28 17 49.5t43 21.5t43 -21t17 -50q0 -95 -96 -245q-10 -15 -29 -15q-4 0 -10 2z" />
<glyph unicode="&#x3c;" horiz-adv-x="587" d="M515 56l-13 -31q-8 -18 -29 -18q-7 0 -13 3l-386 174q-7 3 -13 12.5t-6 16.5v46q0 8 6 17t13 12l386 173q6 3 13 3q22 0 30 -20l13 -30q2 -8 2 -12q0 -21 -19 -29q-204 -90 -316 -132v-9q120 -43 316 -133q19 -9 19 -29q0 -8 -3 -14z" />
<glyph unicode="=" horiz-adv-x="587" d="M89 384h410q13 0 22.5 -9t9.5 -23v-32q0 -14 -9.5 -23t-22.5 -9h-410q-13 0 -22.5 9t-9.5 23v32q0 14 9.5 23t22.5 9zM89 186h410q13 0 22.5 -9t9.5 -23v-32q0 -14 -9.5 -23t-22.5 -9h-410q-13 0 -22.5 9t-9.5 23v32q0 14 9.5 23t22.5 9z" />
<glyph unicode="&#x3e;" horiz-adv-x="587" d="M71 25l-13 31q-3 6 -3 14q0 20 19 29q196 90 316 133v9q-50 19 -129 52l-133 57l-54 23q-19 8 -19 29q0 4 2 12l13 30q8 20 30 20q7 0 13 -3l386 -173q7 -3 13 -12t6 -17v-46q0 -7 -6 -16.5t-13 -12.5l-386 -174q-6 -3 -13 -3q-21 0 -29 18z" />
<glyph unicode="?" horiz-adv-x="348" d="M301 543q0 -33 -14 -69.5t-26.5 -56t-37.5 -55.5q-55 -78 -55 -115q0 -12 -10 -20.5t-22 -8.5h-12q-13 0 -22.5 10t-9.5 24q0 71 45 144q28 44 40.5 72t12.5 60q0 68 -74 68q-21 0 -35 -5q-8 -2 -11 -2q-23 0 -30 23l-6 23q-1 2 -1 7q0 23 20 31q36 15 87 15 q83 0 122 -42.5t39 -102.5zM135 -8q-30 0 -48.5 21.5t-18.5 57.5q0 34 18.5 55.5t48.5 21.5q31 0 49.5 -21t18.5 -56q0 -37 -18 -58t-50 -21z" />
<glyph unicode="@" horiz-adv-x="770" d="M503 -56l4 -15q1 -3 1 -8q0 -11 -7 -20t-17 -11q-50 -14 -102 -14q-159 0 -253.5 102t-94.5 258q0 155 95.5 258.5t253.5 103.5q152 0 251 -95t99 -236q0 -107 -54 -165t-122 -58q-31 0 -59 18.5t-38 57.5h-6q-18 -40 -52.5 -58t-67.5 -18q-54 0 -89.5 36t-35.5 106 q0 110 58.5 176.5t132.5 66.5q61 0 131 -38q16 -8 16 -30v-4q-20 -113 -20 -161q0 -76 44 -76q32 0 55 32.5t23 108.5q0 49 -13.5 92t-42.5 81.5t-83 61.5t-127 23q-118 0 -191 -79t-73 -204q0 -128 69.5 -205t194.5 -77q37 0 80 12q3 1 9 1q24 0 31 -23zM454 293 q0 3 2 19.5t2 24.5q-30 16 -58 16q-36 0 -68.5 -43t-32.5 -114q0 -36 15.5 -56t40.5 -20q38 0 65.5 55.5t33.5 117.5z" />
<glyph unicode="A" horiz-adv-x="525" d="M472 0h-54q-10 0 -19.5 7t-11.5 17l-33 130h-184l-33 -130q-2 -10 -11.5 -17t-19.5 -7h-55q-14 0 -23 8.5t-9 22.5q0 7 1 10l176 616q3 9 12 16t19 7h69q10 0 19 -7t12 -16l176 -616q1 -3 1 -10q0 -14 -9 -22.5t-23 -8.5zM195 254h134q-63 258 -64 284h-7 q-1 -12 -16.5 -83t-31.5 -136z" />
<glyph unicode="B" horiz-adv-x="480" d="M337 376v-5q50 -18 81 -64.5t31 -111.5q0 -44 -10 -77.5t-35 -63.5t-75 -46t-123 -16q-80 0 -116 4q-12 1 -20 10.5t-8 21.5v623q0 12 8.5 21t20.5 11q47 5 125 5q103 0 150.5 -49.5t47.5 -122.5q0 -44 -21 -82t-56 -58zM300 499q0 91 -79 91q-23 0 -43 -4v-181h45 q34 0 55.5 25t21.5 69zM326 202q0 47 -24.5 74.5t-70.5 27.5h-53v-204q23 -4 48 -4q100 0 100 106z" />
<glyph unicode="C" horiz-adv-x="501" d="M463 122l12 -43q1 -2 1 -6q0 -18 -13 -29q-74 -52 -154 -52q-121 0 -197 93t-76 255t76 255t197 93q82 0 153 -51q13 -10 13 -26q0 -5 -1 -8l-11 -42q-7 -27 -29 -27q-10 0 -21 8q-51 38 -99 38q-74 0 -116 -67t-42 -173t42 -173t116 -67q45 0 99 39q8 7 20 7 q24 0 30 -24z" />
<glyph unicode="D" horiz-adv-x="554" d="M519 339q0 -160 -78.5 -253.5t-227.5 -93.5q-22 0 -61 2.5t-53 2.5h-5q-14 0 -23 9.5t-9 22.5v622q0 12 8.5 21.5t20.5 10.5q60 5 126 5q148 0 225 -95t77 -254zM178 578v-476q27 -3 56 -3q78 0 122 64t44 176q0 116 -43.5 179.5t-122.5 63.5q-16 0 -56 -4z" />
<glyph unicode="E" horiz-adv-x="425" d="M62 32v616q0 14 9 23t23 9h265q13 0 22.5 -9t9.5 -23v-41q0 -13 -9.5 -22.5t-22.5 -9.5h-182v-169h159q14 0 23 -9t9 -23v-38q0 -14 -9 -23t-23 -9h-159v-200h185q14 0 23 -9t9 -23v-40q0 -14 -9 -23t-23 -9h-268q-14 0 -23 9t-9 23z" />
<glyph unicode="F" horiz-adv-x="408" d="M62 32v616q0 14 9 23t23 9h257q13 0 22.5 -9t9.5 -23v-41q0 -13 -9.5 -22.5t-22.5 -9.5h-174v-171h156q13 0 22.5 -9t9.5 -23v-37q0 -13 -9.5 -22.5t-22.5 -9.5h-156v-271q0 -14 -9.5 -23t-22.5 -9h-51q-14 0 -23 9t-9 23z" />
<glyph unicode="G" horiz-adv-x="551" d="M316 370h141q13 0 22.5 -9t9.5 -23v-292q0 -10 -7 -19.5t-17 -11.5q-90 -23 -156 -23q-121 0 -197.5 93t-76.5 255q0 161 76.5 254.5t197.5 93.5q77 0 152 -53q13 -8 13 -28v-5l-11 -42q-5 -26 -30 -26q-12 0 -20 7q-53 39 -100 39q-74 0 -115.5 -67t-41.5 -173 q0 -107 41.5 -174t115.5 -67q13 0 60 9v160h-57q-14 0 -23 9t-9 23v38q0 14 9 23t23 9z" />
<glyph unicode="H" horiz-adv-x="559" d="M62 32v616q0 14 9 23t23 9h51q13 0 22.5 -9t9.5 -23v-245h203v245q0 14 9 23t23 9h52q14 0 23 -9t9 -23v-616q0 -14 -9 -23t-23 -9h-52q-14 0 -23 9t-9 23v267h-203v-267q0 -14 -9.5 -23t-22.5 -9h-51q-14 0 -23 9t-9 23z" />
<glyph unicode="I" horiz-adv-x="333" d="M41 32v28q0 14 9.5 23t22.5 9h35v495h-35q-13 0 -22.5 9.5t-9.5 22.5v29q0 14 9.5 23t22.5 9h186q13 0 22.5 -9t9.5 -23v-29q0 -13 -9.5 -22.5t-22.5 -9.5h-36v-495h36q13 0 22.5 -9t9.5 -23v-28q0 -14 -9.5 -23t-22.5 -9h-186q-13 0 -22.5 9t-9.5 23z" />
<glyph unicode="J" horiz-adv-x="373" d="M310 159q0 -76 -40 -121.5t-106 -45.5q-56 0 -116 42q-14 10 -14 27q0 4 2 10l17 40q8 22 30 22q9 0 18 -6q31 -20 51 -20q18 0 30.5 15.5t12.5 37.5v427h-82q-13 0 -22.5 9.5t-9.5 22.5v29q0 14 9.5 23t22.5 9h165q14 0 23 -9t9 -23v-489z" />
<glyph unicode="K" horiz-adv-x="508" d="M262 379l206 -330q6 -9 6 -19q0 -12 -9 -21t-24 -9h-61q-6 0 -14.5 4.5t-11.5 9.5l-171 289h-6v-271q0 -14 -9.5 -23t-22.5 -9h-51q-14 0 -23 9t-9 23v616q0 14 9 23t23 9h51q13 0 22.5 -9t9.5 -23v-207h6q16 26 61 104.5t72 119.5q3 5 12 10t15 5h57q15 0 24 -9t9 -21 q0 -10 -6 -19z" />
<glyph unicode="L" horiz-adv-x="413" d="M62 32v616q0 14 9 23t23 9h51q13 0 22.5 -9t9.5 -23v-547h189q14 0 23 -9.5t9 -22.5v-37q0 -14 -9 -23t-23 -9h-272q-14 0 -23 9t-9 23z" />
<glyph unicode="M" horiz-adv-x="658" d="M476 462h-4l-115 -218q-10 -19 -28 -19q-19 0 -28 19l-114 218h-5q-1 -156 -8 -431q0 -13 -9.5 -22t-22.5 -9h-51q-13 0 -22.5 9t-9.5 22l17 618q0 13 9.5 22t22.5 9h63q7 0 16 -5.5t12 -12.5l130 -250l131 251q8 17 28 17h62q13 0 22.5 -9t9.5 -22l17 -616 q0 -14 -9.5 -23.5t-22.5 -9.5h-51q-13 0 -22.5 9t-9.5 22q-7 275 -8 431z" />
<glyph unicode="N" horiz-adv-x="573" d="M433 680h46q13 0 22.5 -9t9.5 -23v-616q0 -14 -9.5 -23t-22.5 -9h-57q-7 0 -16 5.5t-12 11.5l-223 435h-4q4 -64 4 -115v-305q0 -14 -9.5 -23t-22.5 -9h-45q-14 0 -23 9t-9 23v616q0 14 9 23t23 9h60q8 0 17 -5.5t12 -12.5l218 -424h4q-4 64 -4 195v215q0 14 9.5 23 t22.5 9z" />
<glyph unicode="O" horiz-adv-x="589" d="M295 688q81 0 141 -47.5t89 -125.5t29 -175q0 -149 -69.5 -248.5t-189.5 -99.5t-189.5 99.5t-69.5 248.5q0 97 29 175t89 125.5t141 47.5zM295 102q65 0 102 64.5t37 173.5t-37 173.5t-102 64.5t-102 -64.5t-37 -173.5t37 -173.5t102 -64.5z" />
<glyph unicode="P" horiz-adv-x="453" d="M177 241v-209q0 -14 -9.5 -23t-22.5 -9h-51q-14 0 -23 9t-9 23v619q0 12 8.5 21t20.5 11q47 5 125 5q105 0 157 -63t52 -159q0 -97 -48.5 -161.5t-119.5 -64.5q-63 0 -80 1zM307 465q0 50 -20.5 83t-63.5 33q-31 0 -46 -3v-233q4 0 20 -0.5t27 -0.5q37 0 60 33.5t23 87.5 z" />
<glyph unicode="Q" horiz-adv-x="589" d="M380 10q38 -40 103 -40q12 0 20 -9t8 -21q0 -4 -2 -12l-14 -37q-3 -9 -12 -15.5t-19 -6.5q-73 9 -127.5 43.5t-82.5 83.5q-103 17 -160.5 113.5t-57.5 230.5q0 97 29 175t89 125.5t141 47.5t141 -47.5t89 -125.5t29 -175q0 -116 -46 -207t-128 -123zM295 102 q65 0 102 64.5t37 173.5t-37 173.5t-102 64.5t-102 -64.5t-37 -173.5t37 -173.5t102 -64.5z" />
<glyph unicode="R" horiz-adv-x="481" d="M430 115l27 -71q3 -6 3 -13q0 -13 -9.5 -22t-23.5 -9h-57q-22 0 -30 21q-16 43 -30 85q-55 165 -98 165h-34v-239q0 -14 -9 -23t-23 -9h-52q-14 0 -23 9t-9 23v619q0 12 8.5 21t20.5 11q47 5 125 5q105 0 155 -58t50 -146q0 -53 -27.5 -103t-68.5 -72v-6q48 -34 105 -188 zM304 478q0 45 -19.5 74.5t-61.5 29.5q-25 0 -45 -4v-206h39q40 0 63.5 28t23.5 78z" />
<glyph unicode="S" horiz-adv-x="425" d="M237 409q31 -19 52 -35.5t47 -43.5t39.5 -62.5t13.5 -77.5q0 -89 -51 -143.5t-129 -54.5q-89 0 -166 59q-12 10 -12 27q0 5 1 7l13 44q8 24 30 24q12 0 20 -7q63 -46 98 -46q30 0 52.5 21t22.5 61q0 26 -16 50t-30.5 36t-47.5 36q-31 21 -47 34.5t-39 39t-33.5 57 t-10.5 70.5q0 85 50 134t122 49q62 0 132 -44q15 -9 15 -29q0 -1 -0.5 -3t-0.5 -3l-10 -38q-6 -25 -29 -25q-10 0 -19 6q-49 31 -84 31q-18 0 -39 -20t-21 -54q0 -51 77 -100z" />
<glyph unicode="T" horiz-adv-x="440" d="M430 648v-40q0 -14 -9 -23t-23 -9h-119v-544q0 -14 -9.5 -23t-22.5 -9h-52q-13 0 -22.5 9t-9.5 23v544h-121q-14 0 -23 9t-9 23v40q0 14 9 23t23 9h356q14 0 23 -9t9 -23z" />
<glyph unicode="U" horiz-adv-x="567" d="M421 680h52q13 0 22.5 -9t9.5 -23v-412q0 -114 -62.5 -179t-159.5 -65q-96 0 -158.5 65t-62.5 179v412q0 14 9 23t23 9h52q14 0 23 -9t9 -23v-417q0 -61 29.5 -95.5t75.5 -34.5q47 0 76.5 34.5t29.5 95.5v417q0 14 9.5 23t22.5 9z" />
<glyph unicode="V" horiz-adv-x="537" d="M510 639l-179 -616q-3 -9 -12 -16t-19 -7h-65q-10 0 -19 7t-12 16l-179 616q-1 3 -1 10q0 13 9 22t23 9h55q10 0 19.5 -7t11.5 -17l38 -147.5l52 -205t33 -141.5h7q26 127 121 494q2 10 11.5 17t19.5 7h55q14 0 23 -9t9 -22q0 -7 -1 -10z" />
<glyph unicode="W" horiz-adv-x="807" d="M407 474h-6l-106 -449q-2 -10 -11.5 -17.5t-19.5 -7.5h-84q-10 0 -19.5 7.5t-11.5 18.5l-127 616q0 1 -0.5 3.5t-0.5 3.5q0 14 9 22.5t23 8.5h56q11 0 21 -8t11 -19l82 -496h5l113 498q2 10 11 17.5t20 7.5h64q11 0 20 -7.5t11 -17.5q93 -402 112 -498h7l82 496 q1 11 11 19t21 8h56q14 0 23 -8.5t9 -22.5q0 -1 -0.5 -3.5t-0.5 -3.5l-127 -617q-2 -10 -11 -17.5t-20 -7.5h-84q-10 0 -19.5 7.5t-11.5 17.5q-88 361 -107 449z" />
<glyph unicode="X" horiz-adv-x="544" d="M275 246h-5l-123 -229q-3 -6 -12 -11.5t-16 -5.5h-59q-14 0 -23.5 9t-9.5 22q0 7 5 17l173 305l-110 190q-9 14 -26 44.5l-25 44.5q-5 10 -5 18q0 12 9 21t24 9h61q7 0 16 -5.5t12 -11.5l107 -202h6l108 202q3 6 12 11.5t16 5.5h58q14 0 23.5 -9t9.5 -22q0 -7 -5 -17 l-158 -280l176 -304q5 -10 5 -17q0 -13 -9.5 -22t-23.5 -9h-62q-7 0 -16 5.5t-12 11.5z" />
<glyph unicode="Y" horiz-adv-x="485" d="M239 415h6q33 99 92 245q3 8 12.5 14t17.5 6h56q14 0 23 -8.5t9 -21.5q0 -8 -3 -15l-152 -354v-249q0 -14 -9 -23t-23 -9h-52q-14 0 -23 9t-9 23v249l-152 355q-3 8 -3 15q0 12 9 20.5t23 8.5h56q8 0 17.5 -6t12.5 -14q59 -146 92 -245z" />
<glyph unicode="Z" horiz-adv-x="476" d="M204 157l-26 -45v-8h230q14 0 23 -9t9 -23v-40q0 -14 -9 -23t-23 -9h-340q-14 0 -23 9t-9 23v25q0 22 10 41l240 472v10l-58 -4h-153q-13 0 -22.5 9t-9.5 23v40q0 14 9.5 23t22.5 9h321q14 0 23 -9t9 -23v-30q0 -18 -11 -40l-8 -17z" />
<glyph unicode="[" horiz-adv-x="249" d="M231 648v-14q0 -14 -9.5 -23t-22.5 -9h-53v-730h53q13 0 22.5 -9t9.5 -23v-14q0 -14 -9.5 -23t-22.5 -9h-112q-13 0 -22.5 9t-9.5 23v822q0 14 9.5 23t22.5 9h112q13 0 22.5 -9t9.5 -23z" />
<glyph unicode="\" horiz-adv-x="371" d="M310 -72h-25q-9 0 -18 6.5t-12 15.5l-224 688q-2 8 -2 11q0 13 9 22t23 9h25q9 0 18 -6.5t12 -15.5l224 -688q2 -8 2 -11q0 -13 -9 -22t-23 -9z" />
<glyph unicode="]" horiz-adv-x="249" d="M18 634v14q0 14 9 23t23 9h112q14 0 23 -9t9 -23v-822q0 -14 -9 -23t-23 -9h-112q-14 0 -23 9t-9 23v14q0 14 9 23t23 9h54v730h-54q-14 0 -23 9t-9 23z" />
<glyph unicode="^" horiz-adv-x="574" d="M339 663l187 -417q3 -8 3 -15q0 -13 -9 -21.5t-23 -8.5h-31q-8 0 -17.5 6.5t-12.5 13.5l-145 347h-7l-146 -347q-3 -7 -12.5 -13.5t-17.5 -6.5h-31q-14 0 -23 8.5t-9 21.5q0 8 3 15l186 417q3 7 12.5 13t16.5 6h47q8 0 17 -6t12 -13z" />
<glyph unicode="_" horiz-adv-x="445" d="M413 -150h-381q-14 0 -23 9t-9 23v19q0 13 9 22.5t23 9.5h381q13 0 22.5 -9.5t9.5 -22.5v-19q0 -14 -9.5 -23t-22.5 -9z" />
<glyph unicode="`" horiz-adv-x="335" d="M133 680h13q5 0 14 -5t12 -9l66 -92q6 -8 6 -16q0 -11 -10.5 -19.5t-25.5 -8.5q-11 0 -20 9l-78 87q-10 10 -10 23t9 22t24 9z" />
<glyph unicode="a" d="M297 440l1 9q1 11 10 18t21 7h19q14 0 23 -9t9 -23v-248q0 -72 13 -157v-5q0 -14 -9.5 -23t-22.5 -9h-24q-10 0 -19.5 7.5t-11.5 18.5l-6 29h-7q-32 -63 -104 -63t-116.5 67.5t-44.5 177.5q0 111 46.5 178t116.5 67q57 0 106 -42zM274 351l-1 10q-22 28 -57 28 q-36 0 -56.5 -41.5t-20.5 -110.5t19.5 -111.5t54.5 -42.5q21 0 37.5 23t23.5 52v193z" />
<glyph unicode="b" d="M401 237q0 -115 -47.5 -180t-132.5 -65q-59 0 -145 18q-11 2 -18.5 11.5t-7.5 19.5v607q0 14 9 23t23 9h42q14 0 23 -9t9 -23v-195h5q23 29 63 29q80 0 128.5 -66.5t48.5 -178.5zM290 238q0 69 -20.5 110.5t-57.5 41.5q-32 0 -56 -38v-259q32 -9 58 -9q36 0 56 41.5 t20 112.5z" />
<glyph unicode="c" horiz-adv-x="373" d="M295 102q6 3 13 3q23 0 30 -25l7 -26q0 -1 0.5 -3.5t0.5 -3.5q0 -22 -18 -30q-53 -25 -112 -25q-32 0 -62 11t-60 36t-48.5 76t-18.5 122t18.5 122t48.5 76t60 36t62 11q56 0 111 -25q19 -9 19 -30q0 -5 -1 -7l-7 -25q-7 -26 -31 -26q-7 0 -13 3q-34 15 -67 15 q-43 0 -65.5 -40t-22.5 -110t22.5 -110t65.5 -40q32 0 68 15z" />
<glyph unicode="d" d="M392 37v-5q0 -14 -9 -23t-23 -9h-23q-10 0 -20 8t-12 19l-5 28h-8q-16 -30 -43.5 -46.5t-56.5 -16.5q-74 0 -119 67t-45 179q0 111 46.5 177.5t115.5 66.5q47 0 83 -26v192q0 14 9.5 23t22.5 9h42q13 0 22.5 -9t9.5 -23v-454q0 -72 13 -157zM273 159v200q-26 31 -58 31 q-36 0 -56 -41.5t-20 -111.5t19 -111.5t54 -41.5q22 0 38 22t23 53z" />
<glyph unicode="e" horiz-adv-x="404" d="M311 101q6 3 13 3q24 0 30 -24l6 -22q1 -2 1 -7q0 -23 -20 -31q-65 -28 -125 -28q-24 0 -48 6t-50 23t-45.5 43.5t-32.5 71t-13 101.5t13 101.5t32.5 71t45.5 43.5t50 23t48 6q75 0 118 -54t43 -156v-32q0 -14 -9.5 -23t-22.5 -9h-208q2 -61 24.5 -94t58.5 -33 q43 0 91 20zM137 279h142q1 8 1 20q0 43 -16 72t-48 29q-33 0 -54 -33.5t-25 -87.5z" />
<glyph unicode="f" horiz-adv-x="264" d="M214 594q-23 -1 -35 -14.5t-12 -33.5v-72h52q13 0 22.5 -9t9.5 -23v-20q0 -14 -9.5 -23t-22.5 -9h-52v-358q0 -14 -9.5 -23t-22.5 -9h-42q-13 0 -22.5 9t-9.5 23v358h-8q-13 0 -22.5 9t-9.5 23v20q0 14 9.5 23t22.5 9h8v79q0 135 127 135q48 0 86 -10q10 -2 17 -11t7 -20 q0 -5 -1 -8l-7 -26q-2 -10 -11 -17t-20 -7q-5 0 -8 1q-17 4 -37 4z" />
<glyph unicode="g" horiz-adv-x="429" d="M72 -155l7 26q7 30 29 30q6 0 14 -3q55 -20 85 -20q66 0 66 77v76h-5q-23 -24 -64 -24q-82 0 -129 60.5t-47 170.5q0 112 47 178t123 66q47 0 91 -41l1 9q2 24 33 24h24q13 0 22.5 -9t9.5 -23v-481q0 -78 -44 -126.5t-117 -48.5q-49 0 -124 24q-22 8 -22 31v4zM273 131 v228q-23 31 -58 31q-36 0 -56 -41.5t-20 -111.5q0 -68 20 -105t57 -37q33 0 57 36z" />
<glyph unicode="h" horiz-adv-x="429" d="M247 482q66 0 99 -34t33 -118v-298q0 -14 -9.5 -23t-22.5 -9h-42q-13 0 -22.5 9t-9.5 23v293q0 38 -15 51t-41 13q-15 0 -33.5 -12t-28.5 -34v-311q0 -14 -9.5 -23t-22.5 -9h-42q-13 0 -22.5 9t-9.5 23v616q0 14 9.5 23t22.5 9h42q13 0 22.5 -9t9.5 -23v-214q18 24 45 36 t47 12z" />
<glyph unicode="i" horiz-adv-x="205" d="M123 0h-42q-13 0 -22.5 9t-9.5 23v410q0 14 9.5 23t22.5 9h42q13 0 22.5 -9t9.5 -23v-410q0 -14 -9.5 -23t-22.5 -9zM158 601q0 -29 -15 -47t-40 -18q-26 0 -41.5 18t-15.5 47t16 46.5t41 17.5t40 -17.5t15 -46.5z" />
<glyph unicode="j" horiz-adv-x="207" d="M82 474h42q14 0 23 -9t9 -23v-473q0 -144 -135 -177q-3 -1 -7 -1q-11 0 -20 7t-11 18l-8 29q-1 2 -1 6q0 23 24 32q32 12 42 40t10 74v445q0 14 9 23t23 9zM104 536q-26 0 -41.5 18t-15.5 47t16 46.5t41 17.5t40 -17.5t15 -46.5t-15 -47t-40 -18z" />
<glyph unicode="k" horiz-adv-x="399" d="M342 423l-106 -144l129 -231q5 -10 5 -17q0 -13 -9.5 -22t-23.5 -9h-52q-22 0 -30 19q-82 180 -92 215h-8v-202q0 -14 -9.5 -23t-22.5 -9h-42q-13 0 -22.5 9t-9.5 23v616q0 14 9.5 23t22.5 9h42q13 0 22.5 -9t9.5 -23v-338h7q8 20 30 57.5t40 64.5l17 27q3 5 12 10t15 5 h40q14 0 23.5 -9t9.5 -22q0 -10 -7 -20z" />
<glyph unicode="l" horiz-adv-x="274" d="M257 69l9 -31q2 -6 2 -10q0 -25 -27 -30q-29 -6 -63 -6q-128 0 -128 135v521q0 14 9 23t23 9h42q14 0 23 -9t9 -23v-509q0 -21 13 -34.5t37 -13.5q9 0 15 1h5q24 0 31 -23z" />
<glyph unicode="m" horiz-adv-x="635" d="M460 482q55 0 89.5 -29.5t34.5 -110.5v-310q0 -14 -9 -23t-23 -9h-38q-14 0 -23 9t-9 23v299q0 56 -46 56q-43 0 -67 -44v-311q0 -14 -9.5 -23t-22.5 -9h-38q-13 0 -22.5 9t-9.5 23v299q0 58 -45 58q-38 0 -67 -45v-312q0 -14 -9.5 -23t-22.5 -9h-42q-13 0 -22.5 9 t-9.5 23v410q0 14 9.5 23t22.5 9h30q11 0 21 -8t11 -19l2 -15h7q36 50 101 50q73 0 100 -53h7q16 25 45 39t55 14z" />
<glyph unicode="n" horiz-adv-x="429" d="M247 482q66 0 98.5 -34t32.5 -118v-298q0 -14 -9 -23t-23 -9h-42q-14 0 -23 9t-9 23v292q0 37 -14.5 51t-40.5 14q-16 0 -35 -13t-27 -32v-312q0 -14 -9.5 -23t-22.5 -9h-42q-13 0 -22.5 9t-9.5 23v410q0 14 9.5 23t22.5 9h31q11 0 21 -8t11 -19l2 -15h8q40 50 93 50z " />
<glyph unicode="o" horiz-adv-x="433" d="M216 482q32 0 62 -11t60.5 -36t49 -76t18.5 -122t-18.5 -122t-49 -76t-60.5 -36t-62 -11q-24 0 -48 6t-50 23t-45.5 43.5t-32.5 71t-13 101.5t13 101.5t32.5 71t45.5 43.5t50 23t48 6zM216 84q38 0 58.5 41t20.5 112t-20.5 112t-58.5 41q-37 0 -57.5 -41t-20.5 -112 t20.5 -112t57.5 -41z" />
<glyph unicode="p" d="M140 453l1 -8h6q33 37 77 37q80 0 128.5 -67t48.5 -179t-47 -178t-124 -66q-38 0 -74 27v-193q0 -14 -9 -23t-23 -9h-42q-14 0 -23 9t-9 23v616q0 14 9 23t23 9h30q9 0 18 -6t10 -15zM156 350v-236q25 -30 58 -30q36 0 56 41.5t20 111.5t-20.5 111.5t-57.5 41.5 q-33 0 -56 -40z" />
<glyph unicode="q" horiz-adv-x="441" d="M27 237q0 114 47.5 179.5t132.5 65.5q61 0 146 -17q11 -2 18.5 -11.5t7.5 -19.5v-556h54q13 0 22.5 -9t9.5 -23v-20q0 -14 -9.5 -23t-22.5 -9h-128q-13 0 -22.5 9t-9.5 23v195h-4q-23 -29 -65 -29q-80 0 -128.5 66.5t-48.5 178.5zM138 236q0 -69 20.5 -110.5t57.5 -41.5 q34 0 57 39v258q-35 9 -59 9q-36 0 -56 -41.5t-20 -112.5z" />
<glyph unicode="r" horiz-adv-x="322" d="M297 379q-6 -17 -22 -17q-5 0 -11 2q-24 10 -45 10q-25 0 -44 -20t-19 -45v-277q0 -14 -9 -23t-23 -9h-42q-14 0 -23 9t-9 23v410q0 14 9 23t23 9h30q20 0 23 -25l5 -27h7q20 28 47.5 44t50.5 16q25 0 51 -12q17 -7 17 -26q0 -7 -1 -10z" />
<glyph unicode="s" horiz-adv-x="330" d="M21 51l11 39q5 19 27 19q6 0 16 -4q42 -21 75 -21q17 0 28.5 13t11.5 37q0 35 -52 63q-24 13 -39 23t-35 27.5t-30 40t-10 49.5q0 68 40.5 106.5t99.5 38.5q49 0 103 -26q18 -9 18 -28q0 -1 -0.5 -3t-0.5 -3l-9 -33q-8 -22 -30 -22q-8 0 -15 4q-36 19 -58 19 q-15 0 -25.5 -12.5t-10.5 -29.5q0 -19 13.5 -33t40.5 -31q25 -13 40 -22t34.5 -26t28.5 -40t9 -52q0 -74 -41 -113t-104 -39q-60 0 -116 23q-21 7 -21 29q0 5 1 7z" />
<glyph unicode="t" horiz-adv-x="314" d="M288 75l11 -32q1 -3 1 -9q0 -26 -24 -31q-43 -11 -91 -11q-124 0 -124 134v264h-8q-13 0 -22.5 9t-9.5 23v20q0 14 9.5 23t22.5 9h8v58q0 21 19 29l42 20q8 3 15 3q13 0 21.5 -9t8.5 -23v-78h60q13 0 22.5 -9t9.5 -23v-20q0 -14 -9.5 -23t-22.5 -9h-60v-250q0 -21 13 -35 t37 -14q13 0 33 5q3 1 8 1q23 0 30 -22z" />
<glyph unicode="u" horiz-adv-x="429" d="M180 -8q-66 0 -98.5 34t-32.5 118v298q0 14 9.5 23t22.5 9h42q13 0 22.5 -9t9.5 -23v-292q0 -66 55 -66q38 0 62 45v313q0 14 9 23t23 9h42q14 0 23 -9t9 -23v-410q0 -14 -9 -23t-23 -9h-30q-11 0 -21 8t-11 19l-2 14h-7q-39 -49 -95 -49z" />
<glyph unicode="v" horiz-adv-x="398" d="M297 474h46q14 0 23 -9t9 -22q0 -7 -1 -10l-114 -409q-2 -10 -11.5 -17t-19.5 -7h-58q-10 0 -19 7t-12 16l-115 410q-1 3 -1 10q0 14 9 22.5t23 8.5h45q10 0 19.5 -7t11.5 -17q42 -168 64 -313h7q13 89 63 312q2 10 11.5 17.5t19.5 7.5z" />
<glyph unicode="w" horiz-adv-x="583" d="M295 324h-7q-10 -60 -62 -299q-2 -10 -11 -17.5t-20 -7.5h-61q-10 0 -19.5 7.5t-11.5 18.5l-84 410q0 1 -0.5 3.5t-0.5 3.5q0 14 9 22.5t23 8.5h44q11 0 21 -8t11 -19q38 -237 41 -310h7q20 116 64 312q2 10 11.5 17.5t19.5 7.5h45q10 0 19.5 -7.5t11.5 -17.5 q14 -59 36.5 -172t25.5 -140h7q14 148 41 310q1 11 11 19t21 8h44q14 0 23 -8.5t9 -22.5q0 -1 -0.5 -3.5t-0.5 -3.5l-82 -410q-2 -11 -11.5 -18.5t-19.5 -7.5h-61q-11 0 -20 7.5t-11 17.5q-52 239 -62 299z" />
<glyph unicode="x" horiz-adv-x="415" d="M211 163h-7l-71 -145q-3 -7 -12 -12.5t-17 -5.5h-44q-14 0 -23.5 9t-9.5 22q0 7 5 17l116 204l-101 174q-5 10 -5 17q0 13 9.5 22t23.5 9h47q8 0 17 -5.5t12 -12.5q26 -49 52 -118h7q18 46 55 118q3 7 12 12.5t17 5.5h47q14 0 23.5 -9t9.5 -22q0 -7 -5 -17l-101 -173 l116 -205q5 -10 5 -17q0 -13 -9.5 -22t-23.5 -9h-44q-8 0 -17 5.5t-12 12.5q-55 105 -72 145z" />
<glyph unicode="y" horiz-adv-x="394" d="M294 474h45q14 0 23 -8.5t9 -22.5q0 -7 -1 -10l-134 -444q-26 -86 -62.5 -128.5t-101.5 -63.5q-8 -2 -11 -2q-24 0 -31 23l-9 30q-1 3 -1 8q0 24 19 30q75 29 98 105q0 2 8 28l-123 414q-1 3 -1 10q0 13 9 22t23 9h44q10 0 19.5 -7t11.5 -17q49 -192 65 -294h6 q9 69 64 294q2 10 11.5 17t19.5 7z" />
<glyph unicode="z" horiz-adv-x="363" d="M319 385l-156 -298h139q14 0 23 -9.5t9 -22.5v-23q0 -14 -9 -23t-23 -9h-244q-14 0 -23 9t-9 23v5q0 16 7 29l167 320h-138q-14 0 -23 9t-9 23v24q0 14 9 23t23 9h234q14 0 23 -9t9 -23v-25q0 -16 -9 -32z" />
<glyph unicode="{" horiz-adv-x="269" d="M192 75q0 -7 -2 -44.5t-2 -41.5q0 -46 8.5 -68.5t30.5 -32.5q19 -10 19 -29q0 -5 -1 -7l-6 -31q-2 -9 -12 -15.5t-20 -6.5q-4 0 -6 1q-99 26 -99 177q0 6 2 47.5t2 46.5q0 50 -12.5 79.5t-44.5 40.5q-8 3 -15 13t-7 19v30q0 9 7 19t15 13q32 11 44.5 40.5t12.5 79.5 q0 5 -2 46.5t-2 47.5q0 151 99 177q2 1 6 1q10 0 20 -7t12 -15l6 -31q1 -2 1 -7q0 -19 -19 -29q-22 -10 -30.5 -32.5t-8.5 -68.5q0 -4 2 -41.5t2 -44.5q0 -39 -2.5 -61.5t-16.5 -52t-42 -49.5q40 -30 50.5 -67.5t10.5 -95.5z" />
<glyph unicode="|" horiz-adv-x="219" d="M122 -207h-25q-13 0 -22.5 9.5t-9.5 22.5v823q0 14 9.5 23t22.5 9h25q14 0 23 -9t9 -23v-823q0 -13 -9 -22.5t-23 -9.5z" />
<glyph unicode="}" horiz-adv-x="269" d="M76 75q0 39 2.5 61.5t16.5 51.5t42 50q-40 29 -50.5 66.5t-10.5 96.5q0 7 2 44.5t2 41.5q0 46 -8.5 68.5t-30.5 32.5q-19 10 -19 29q0 5 1 7l6 31q2 8 12 15t20 7q4 0 6 -1q99 -26 99 -177q0 -6 -2 -47.5t-2 -46.5q0 -50 12.5 -79.5t44.5 -40.5q8 -3 15 -13t7 -19v-30 q0 -9 -7 -19t-15 -13q-32 -11 -44.5 -40.5t-12.5 -79.5q0 -5 2 -46.5t2 -47.5q0 -151 -99 -177q-2 -1 -6 -1q-10 0 -20 6.5t-12 15.5l-6 31q-1 2 -1 7q0 19 19 29q22 10 30.5 32.5t8.5 68.5q0 4 -2 41.5t-2 44.5z" />
<glyph unicode="~" horiz-adv-x="544" d="M398 214q-32 0 -63 11t-81 40q-75 43 -100 43q-37 0 -44 -56q-2 -12 -11 -20.5t-21 -8.5h-26q-14 0 -23 10t-9 25q14 145 127 145q34 0 61.5 -9.5t78.5 -37.5q81 -47 105 -47q38 0 43 56q2 12 11 20.5t21 8.5h25q14 0 23 -9.5t9 -24.5q-11 -146 -126 -146z" />
<glyph unicode="&#xa1;" horiz-adv-x="221" d="M107 256h8q13 0 22 -9t10 -22l21 -398q0 -14 -9.5 -23.5t-22.5 -9.5h-50q-13 0 -22 9.5t-10 23.5l21 398q1 13 10 22t22 9zM43 403q0 37 18 58t50 21t50 -21t18 -58q0 -35 -18.5 -56t-49.5 -21t-49.5 21t-18.5 56z" />
<glyph unicode="&#xa2;" horiz-adv-x="376" d="M144 340q0 -72 23 -112.5t66 -40.5q32 0 66 14q7 3 14 3q24 0 30 -24l7 -24q0 -1 0.5 -3.5t0.5 -3.5q0 -22 -18 -30q-32 -15 -64 -21v-66q0 -14 -9.5 -23t-22.5 -9h-32q-13 0 -22.5 9t-9.5 23v68q-67 16 -103.5 77.5t-36.5 162.5q0 103 37.5 162.5t102.5 76.5v69 q0 14 9.5 23t22.5 9h32q13 0 22.5 -9t9.5 -23v-68q34 -7 63 -20q19 -9 19 -30q0 -5 -1 -7l-7 -24q-6 -24 -30 -24q-8 0 -15 3q-34 15 -65 15q-43 0 -66 -40.5t-23 -112.5z" />
<glyph unicode="&#xa3;" horiz-adv-x="462" d="M220 295l-31 -193h198q13 0 22.5 -9t9.5 -23v-38q0 -14 -9.5 -23t-22.5 -9h-321q-14 0 -23 9t-9 23v38q0 14 9 23t23 9h7l31 193h-38q-14 0 -23 9.5t-9 22.5v27q0 14 9 23t23 9h53l19 120q13 84 71.5 133t129.5 49q41 0 75 -13q20 -8 20 -30q0 -4 -2 -10l-11 -42 q-6 -25 -30 -25q-7 0 -14 3q-28 12 -50 12q-24 0 -46 -21.5t-27 -55.5l-19 -120h111q14 0 23 -9t9 -23v-27q0 -13 -9 -22.5t-23 -9.5h-126z" />
<glyph unicode="&#xa4;" horiz-adv-x="585" d="M485 158l29 -29q11 -9 11 -25q0 -12 -9 -21l-22 -22q-9 -9 -23 -9t-23 9l-30 30q-58 -37 -125 -37q-68 0 -125 38l-13.5 -14t-11.5 -11.5t-5 -4.5q-9 -10 -23 -10q-13 0 -22 9l-22 22q-9 9 -9 23t9 23l30 30q-37 58 -37 124q0 67 37 125l-30 30q-9 9 -9 23t9 23l22 21 q10 10 24 10q12 0 21 -9l30 -31q58 37 125 37q70 0 124 -37l31 31q9 9 23 9t23 -9l21 -22q9 -9 9 -23t-9 -23l-30 -30q37 -58 37 -125t-37 -125zM157 283q0 -56 40 -96t96 -40t96 40t40 96t-40 96t-96 40t-96 -40t-40 -96z" />
<glyph unicode="&#xa5;" horiz-adv-x="551" d="M272 414h6q28 88 91 246q3 8 12.5 14t17.5 6h57q14 0 23 -8.5t9 -21.5q0 -8 -3 -15l-81 -188h44q14 0 23 -9.5t9 -22.5v-4q0 -13 -9 -22.5t-23 -9.5h-73l-32 -78h105q14 0 23 -9.5t9 -22.5v-4q0 -13 -9 -22.5t-23 -9.5h-115v-201q0 -14 -9.5 -23t-22.5 -9h-52 q-13 0 -22.5 9t-9.5 23v201h-115q-14 0 -23 9.5t-9 22.5v4q0 13 9 22.5t23 9.5h107l-34 78h-73q-14 0 -23 9.5t-9 22.5v4q0 13 9 22.5t23 9.5h43l-81 189q-3 8 -3 14q0 13 9 21.5t24 8.5h57q8 0 17.5 -6t12.5 -14q63 -158 91 -246z" />
<glyph unicode="&#xa6;" horiz-adv-x="183" d="M47 344v304q0 14 9.5 23t22.5 9h24q13 0 22.5 -9t9.5 -23v-304q0 -14 -9.5 -23t-22.5 -9h-24q-13 0 -22.5 9t-9.5 23zM47 -174v302q0 14 9.5 23t22.5 9h24q13 0 22.5 -9t9.5 -23v-302q0 -14 -9.5 -23t-22.5 -9h-24q-13 0 -22.5 9t-9.5 23z" />
<glyph unicode="&#xa7;" horiz-adv-x="363" d="M35 -62l9 38q8 27 29 27q9 0 16 -4q36 -19 63 -19q30 0 46.5 21.5t16.5 59.5q0 19 -12.5 37.5t-25 28.5t-39.5 29t-41 30.5t-34 33t-29 47t-9 56.5q0 60 44 125v4q-20 40 -20 75q0 68 47 114.5t109 46.5q34 0 81 -14q22 -7 22 -31q0 -1 -0.5 -3t-0.5 -3l-8 -31 q-5 -27 -31 -27q-6 0 -12 3q-25 10 -51 10q-18 0 -34 -15.5t-16 -45.5q0 -20 11.5 -38.5t20.5 -27t36.5 -28.5t32.5 -24q80 -62 80 -144q0 -60 -39 -127q20 -45 20 -80q0 -77 -46.5 -127.5t-118.5 -50.5q-50 0 -100 26q-17 10 -17 24v4zM227 209q11 33 11 62q-1 13 -5.5 24 t-8.5 18t-16.5 18t-18 15t-25.5 17.5l-27 18.5q-14 -26 -14 -56q0 -32 32 -66t72 -51z" />
<glyph unicode="&#xa8;" horiz-adv-x="333" d="M202 604q0 22 15.5 38t37.5 16q21 0 37 -16t16 -38t-15.5 -37.5t-39.5 -15.5q-22 0 -36.5 15t-14.5 38zM24 604q0 22 15.5 38t37.5 16q21 0 37 -16t16 -38q0 -21 -16 -37t-38 -16t-37 15.5t-15 37.5z" />
<glyph unicode="&#xa9;" horiz-adv-x="766" d="M382 687q144 0 246 -102t102 -246t-102 -245.5t-246 -101.5t-246 101.5t-102 245.5t102 246t246 102zM382 57q117 0 199.5 82.5t82.5 199.5t-82.5 199.5t-199.5 82.5q-116 0 -199 -82.5t-83 -199.5t83 -199.5t199 -82.5zM280 339q0 -61 30 -96.5t80 -35.5q36 0 84 18 q6 2 10 2q18 0 23 -19l4 -14q0 -1 0.5 -3t0.5 -3q0 -18 -16 -23q-56 -22 -111 -22q-83 0 -135.5 49.5t-52.5 146.5t52.5 146.5t135.5 49.5q55 0 111 -22q16 -5 16 -23q0 -1 -0.5 -3t-0.5 -3l-4 -14q-5 -19 -23 -19q-4 0 -10 2q-48 18 -84 18q-50 0 -80 -35.5t-30 -96.5z" />
<glyph unicode="&#xaa;" horiz-adv-x="307" d="M262 357q0 -20 13 -30q10 -8 10 -26l-5 -17q-5 -19 -24 -19q-3 0 -9 2q-24 9 -39 30q-27 -32 -61 -32q-52 0 -83.5 43.5t-31.5 116.5t31 116t80 43q30 0 58 -24q1 19 25 19h11q11 0 18 -7.5t7 -17.5v-197zM190 352v150q-17 19 -35 19q-23 0 -35.5 -26t-12.5 -70t13 -70.5 t35 -26.5q23 0 35 24z" />
<glyph unicode="&#xab;" horiz-adv-x="562" d="M226 0h-44q-7 0 -16 5t-12 11l-119 205q-3 6 -3 16t3 16l119 205q3 6 12 11t16 5h43q15 0 24 -9t9 -21q0 -8 -5 -18l-109 -189l110 -189q5 -10 5 -18q0 -12 -9 -21t-24 -9zM481 0h-44q-7 0 -16 5t-12 11l-119 205q-3 6 -3 16t3 16l119 205q3 6 12 11t16 5h43q15 0 24 -9 t9 -21q0 -8 -5 -18l-109 -189l110 -189q5 -10 5 -18q0 -12 -9 -21t-24 -9z" />
<glyph unicode="&#xac;" horiz-adv-x="587" d="M89 384h409q14 0 23 -9t9 -23v-182q0 -14 -9 -23t-23 -9h-32q-14 0 -23 9t-9 23v118h-345q-13 0 -22.5 9t-9.5 23v32q0 14 9.5 23t22.5 9z" />
<glyph unicode="&#xad;" horiz-adv-x="373" d="M332 258v-38q0 -14 -9 -23t-23 -9h-227q-13 0 -22.5 9t-9.5 23v38q0 14 9.5 23t22.5 9h227q14 0 23 -9t9 -23z" />
<glyph unicode="&#xae;" horiz-adv-x="514" d="M255 689q92 0 157 -65t65 -157t-65 -157t-157 -65q-91 0 -156.5 65.5t-65.5 156.5q0 92 65 157t157 65zM255 293q72 0 123 51t51 123t-51 123t-123 51t-123 -51t-51 -123t51 -123t123 -51zM244 478q48 0 48 40t-45 40q-14 0 -27 -1v-79h24zM289 379q-23 60 -49 60h-20 v-83q0 -8 -6 -14t-14 -6h-8q-8 0 -14 6t-6 14v222q0 18 18 20q13 1 53 1q50 0 73.5 -22.5t23.5 -56.5q0 -19 -12.5 -37.5t-32.5 -27.5v-5q21 -11 46 -69l7 -19q1 -3 1 -8q0 -18 -20 -18h-11q-15 0 -19 13z" />
<glyph unicode="&#xaf;" horiz-adv-x="335" d="M74 642h188q14 0 23 -9t9 -23v-6q0 -14 -9 -23t-23 -9h-188q-14 0 -23 9t-9 23v6q0 14 9 23t23 9z" />
<glyph unicode="&#xb0;" horiz-adv-x="357" d="M178 688q62 0 105.5 -43.5t43.5 -105.5q0 -61 -43.5 -105t-105.5 -44t-105.5 44t-43.5 105q0 62 43.5 105.5t105.5 43.5zM178 457q34 0 58.5 24t24.5 58t-24.5 58t-58.5 24t-58 -24t-24 -58t24 -58t58 -24z" />
<glyph unicode="&#xb1;" horiz-adv-x="587" d="M531 318v-31q0 -13 -9.5 -22.5t-22.5 -9.5h-158v-93q0 -14 -9.5 -23t-22.5 -9h-31q-14 0 -23 9t-9 23v93h-157q-13 0 -22.5 9.5t-9.5 22.5v31q0 14 9.5 23t22.5 9h157v92q0 14 9 23t23 9h31q13 0 22.5 -9t9.5 -23v-92h158q13 0 22.5 -9t9.5 -23zM89 96h410q13 0 22.5 -9 t9.5 -23v-32q0 -14 -9.5 -23t-22.5 -9h-410q-13 0 -22.5 9t-9.5 23v32q0 14 9.5 23t22.5 9z" />
<glyph unicode="&#xb2;" horiz-adv-x="290" d="M46 530l68 105q60 93 60 130q0 24 -10.5 36t-24.5 12q-19 0 -47 -24q-9 -7 -17 -7q-16 0 -23 18l-6 20q-1 2 -1 6q0 14 10 22q48 37 88 37q49 0 79.5 -33t30.5 -89q0 -51 -74 -170l-37 -59h86q10 0 17.5 -7t7.5 -18v-15q0 -10 -7.5 -17.5t-17.5 -7.5h-166 q-10 0 -17.5 7.5t-7.5 17.5v7q0 14 9 29z" />
<glyph unicode="&#xb3;" horiz-adv-x="331" d="M225 688v-5q22 -8 35 -34.5t13 -63.5q0 -53 -34.5 -86t-84.5 -33q-40 0 -81 26q-12 9 -12 23q0 4 1 6l6 18q6 17 24 17q6 0 12 -3q29 -16 46 -16q19 0 32.5 15.5t13.5 40.5q0 42 -48 50q-8 2 -14.5 9t-6.5 16v24q0 18 19 24q38 11 38 50q0 19 -11 33t-24 14 q-16 0 -39 -12q-5 -4 -13 -4q-18 0 -23 21l-4 15v4q0 15 10 22q39 26 78 26q45 0 75.5 -31.5t30.5 -81.5q0 -52 -39 -84z" />
<glyph unicode="&#xb4;" horiz-adv-x="335" d="M224 627l-80 -89q-9 -9 -30 -9q-12 0 -19.5 8t-7.5 19q0 12 7 20l66 91q9 13 26 13h14q14 0 23.5 -9t9.5 -22q0 -11 -9 -22z" />
<glyph unicode="&#xb5;" horiz-adv-x="419" d="M135 0l5 -173q0 -14 -9.5 -23.5t-22.5 -9.5h-40q-14 0 -23 9t-9 23v616q0 14 9 23t23 9h42q14 0 23 -9t9 -23v-293q0 -38 14.5 -51.5t40.5 -13.5q39 0 62 45v313q0 14 9.5 23t22.5 9h42q13 0 22.5 -9t9.5 -23v-410q0 -14 -9.5 -23t-22.5 -9h-31q-11 0 -20 7.5t-11 17.5 l-4 16h-6q-36 -49 -94 -49q-16 0 -32 8z" />
<glyph unicode="&#xb6;" horiz-adv-x="523" d="M231 680h230q13 0 22.5 -9t9.5 -23v-726q0 -14 -9.5 -23t-22.5 -9h-29q-14 0 -23 9t-9 23v675h-76v-675q0 -14 -9 -23t-23 -9h-29q-13 0 -22.5 9t-9.5 23v379q-83 0 -136.5 57.5t-53.5 132.5q0 78 55.5 133.5t134.5 55.5z" />
<glyph unicode="&#xb7;" horiz-adv-x="385" d="M260 340q0 -37 -18 -58t-50 -21t-50 21t-18 58q0 35 18.5 56.5t49.5 21.5t49.5 -21.5t18.5 -56.5z" />
<glyph unicode="&#xb8;" horiz-adv-x="337" d="M83 -176l4 12q3 10 14 10q5 0 7 -1q22 -5 38 -5t26.5 8t10.5 17q-1 22 -59 26q-9 1 -9 13q0 4 2 8l23 46q8 15 20 15h31q9 0 9 -14l-12 -27q63 -15 63 -64q0 -39 -30.5 -60t-81.5 -21q-26 0 -46 8q-12 5 -12 19q0 4 2 10z" />
<glyph unicode="&#xb9;" horiz-adv-x="306" d="M197 851v-320h43q10 0 17.5 -7.5t7.5 -17.5v-15q0 -11 -7.5 -18t-17.5 -7h-165q-11 0 -18 7t-7 18v15q0 10 7 17.5t18 7.5h42v254l-34 -33q-8 -8 -18 -8q-18 0 -24 19q-5 16 -5 23q0 11 9 18l72 61q13 11 31 11h24q10 0 17.5 -7t7.5 -18z" />
<glyph unicode="&#xba;" horiz-adv-x="297" d="M149 583q48 0 86 -36t38 -123t-38 -123t-86 -36t-86 36t-38 123t38 123t86 36zM149 327q48 0 48 97t-48 97q-23 0 -36 -26t-13 -71t13 -71t36 -26z" />
<glyph unicode="&#xbb;" horiz-adv-x="569" d="M383 0h-43q-15 0 -24 9t-9 21q0 8 5 18l109 189l-110 189q-5 10 -5 18q0 12 9 21t24 9h44q7 0 16 -5t12 -11l119 -205q3 -6 3 -16t-3 -16l-119 -205q-3 -6 -12 -11t-16 -5zM128 0h-43q-15 0 -24 9t-9 21q0 8 5 18l109 189l-110 189q-5 10 -5 18q0 12 9 21t24 9h44 q7 0 16 -5t12 -11l119 -205q3 -6 3 -16t-3 -16l-119 -205q-3 -6 -12 -11t-16 -5z" />
<glyph unicode="&#xbc;" horiz-adv-x="706" d="M200 655v-320h43q11 0 18 -7.5t7 -17.5v-15q0 -11 -7 -18t-18 -7h-165q-10 0 -17.5 7t-7.5 18v15q0 10 7.5 17.5t17.5 7.5h42v254l-34 -33q-8 -8 -18 -8q-18 0 -24 19q-5 16 -5 23q0 11 9 18l72 61q13 11 31 11h24q11 0 18 -7t7 -18zM179 38l364 629q7 13 22 13h20 q12 0 19 -6.5t7 -16.5q0 -7 -4 -14l-206 -356l-158 -275q-6 -12 -22 -12h-20q-12 0 -19 7t-7 17q0 7 4 14zM634 161h10q10 0 17.5 -7.5t7.5 -17.5v-16q0 -10 -7.5 -17.5t-17.5 -7.5h-10v-70q0 -11 -7 -18t-18 -7h-28q-11 0 -18 7t-7 18v70h-107q-11 0 -18 7.5t-7 17.5v19 q0 17 9 35l119 222q6 13 22 13h35q11 0 18 -7.5t7 -17.5v-223zM553 289l-61 -130q20 2 39 2h25v80q0 12 2 48h-5z" />
<glyph unicode="&#xbd;" horiz-adv-x="754" d="M201 655v-320h43q10 0 17.5 -7.5t7.5 -17.5v-15q0 -11 -7.5 -18t-17.5 -7h-165q-11 0 -18 7t-7 18v15q0 10 7 17.5t18 7.5h42v254l-34 -33q-8 -8 -18 -8q-18 0 -24 19q-5 16 -5 23q0 11 9 18l71 61q13 11 31 11h25q10 0 17.5 -7t7.5 -18zM510 61l67 105q60 93 60 130 q0 24 -10.5 36t-24.5 12q-19 0 -47 -24q-9 -7 -17 -7q-16 0 -23 18l-6 20q-1 2 -1 6q0 14 10 22q48 37 88 37q49 0 79.5 -33t30.5 -89q0 -51 -74 -170l-37 -59h86q11 0 18 -7.5t7 -17.5v-15q0 -11 -7 -18t-18 -7h-166q-11 0 -18 7t-7 18v7q0 12 10 29zM221 0h-21 q-12 0 -19 6.5t-7 16.5q0 7 4 14l364 631q6 12 22 12h21q12 0 19 -6.5t7 -16.5q0 -7 -4 -14l-206 -356l-158 -275q-6 -12 -22 -12z" />
<glyph unicode="&#xbe;" horiz-adv-x="654" d="M578 161h10q10 0 17.5 -7.5t7.5 -17.5v-16q0 -10 -7.5 -17.5t-17.5 -7.5h-10v-70q0 -11 -7 -18t-18 -7h-28q-11 0 -18 7t-7 18v70h-107q-11 0 -18 7.5t-7 17.5v19q0 15 10 35l118 222q6 13 22 13h35q11 0 18 -7.5t7 -17.5v-223zM497 289l-61 -130q20 2 39 2h25v80 q0 12 2 48h-5zM204 491v-5q22 -8 35 -34.5t13 -63.5q0 -53 -34.5 -86t-84.5 -33q-40 0 -81 26q-12 9 -12 23q0 4 1 6l6 18q6 17 24 17q6 0 12 -3q29 -16 46 -16q19 0 32.5 15.5t13.5 40.5q0 42 -48 50q-8 2 -14.5 9t-6.5 16v24q0 18 19 24q38 11 38 50q0 19 -11 33t-24 14 q-16 0 -39 -12q-5 -4 -13 -4q-18 0 -23 21l-4 15v4q0 15 10 22q39 26 78 26q45 0 75.5 -31.5t30.5 -81.5q0 -52 -39 -84zM131 38l364 629q7 13 22 13h20q12 0 19 -6.5t7 -16.5q0 -7 -4 -14l-206 -356l-158 -275q-6 -12 -22 -12h-20q-12 0 -19 7t-7 17q0 7 4 14z" />
<glyph unicode="&#xbf;" horiz-adv-x="416" d="M59 -69q0 48 20.5 90t57.5 90q56 76 56 116q0 29 34 29h18q10 0 16.5 -12t6.5 -23q0 -67 -45 -143q-2 -3 -12 -20t-12.5 -22.5t-10 -20t-10 -23.5t-5 -21.5t-2.5 -24.5q0 -68 74 -68q17 0 35 5q3 1 9 1q24 0 31 -23l6 -22q1 -2 1 -7q0 -23 -20 -31q-36 -15 -87 -15 q-83 0 -122 42.5t-39 102.5zM225 482q32 0 50 -21t18 -58q0 -35 -18.5 -56t-49.5 -21t-49.5 21t-18.5 56q0 37 18 58t50 21z" />
<glyph unicode="&#xc0;" horiz-adv-x="525" d="M472 0h-54q-10 0 -19.5 7t-11.5 17l-33 130h-184l-33 -130q-2 -10 -11.5 -17t-19.5 -7h-55q-14 0 -23 8.5t-9 22.5q0 7 1 10l176 616q3 9 12 16t19 7h69q10 0 19 -7t12 -16l176 -616q1 -3 1 -10q0 -14 -9 -22.5t-23 -8.5zM195 254h134q-63 258 -64 284h-7 q-1 -12 -16.5 -83t-31.5 -136zM193 887h13q5 0 14 -5t12 -9l66 -92q6 -7 6 -16q0 -11 -10.5 -19.5t-25.5 -8.5q-11 0 -20 9l-78 87q-10 10 -10 23q0 12 9 21.5t24 9.5z" />
<glyph unicode="&#xc1;" horiz-adv-x="525" d="M472 0h-54q-10 0 -19.5 7t-11.5 17l-33 130h-184l-33 -130q-2 -10 -11.5 -17t-19.5 -7h-55q-14 0 -23 8.5t-9 22.5q0 7 1 10l176 616q3 9 12 16t19 7h69q10 0 19 -7t12 -16l176 -616q1 -3 1 -10q0 -14 -9 -22.5t-23 -8.5zM195 254h134q-63 258 -64 284h-7 q-1 -12 -16.5 -83t-31.5 -136zM356 836l-80 -89q-9 -9 -30 -9q-12 0 -19.5 8t-7.5 19q0 12 7 20l66 91q9 13 26 13h14q14 0 23.5 -9.5t9.5 -21.5t-9 -22z" />
<glyph unicode="&#xc2;" horiz-adv-x="525" d="M418 0h54q14 0 23 8.5t9 22.5q0 7 -1 10l-176 616q-3 9 -12 16t-19 7h-69q-10 0 -19 -7t-12 -16l-176 -616q-1 -3 -1 -10q0 -14 9 -22.5t23 -8.5h55q10 0 19.5 7t11.5 17l33 130h184l33 -130q2 -10 11.5 -17t19.5 -7zM329 254h-134q61 258 63 284h7q1 -26 64 -284z M157 788l56 85q3 5 12 10t15 5h42q6 0 15 -5t12 -10l57 -87q6 -9 6 -18q0 -12 -9 -21t-24 -9h-8q-6 0 -15 5t-12 10l-43 70l-43 -70q-3 -5 -12 -10t-15 -5h-7q-15 0 -24 9t-9 22q0 10 6 19z" />
<glyph unicode="&#xc3;" horiz-adv-x="525" d="M418 0h54q14 0 23 8.5t9 22.5q0 7 -1 10l-176 616q-3 9 -12 16t-19 7h-69q-10 0 -19 -7t-12 -16l-176 -616q-1 -3 -1 -10q0 -14 9 -22.5t23 -8.5h55q10 0 19.5 7t11.5 17l33 130h184l33 -130q2 -10 11.5 -17t19.5 -7zM329 254h-134q61 258 63 284h7q1 -26 64 -284z M202 866q34 0 90 -35q14 -9 20 -9q11 0 18 22q6 18 24 18h16q11 0 18 -6.5t7 -17.5v-4q-5 -41 -27 -59.5t-48 -18.5q-27 0 -80 30l-10 5q-18 9 -21 9q-14 0 -18 -20t-24 -20h-15q-11 0 -18 7t-7 17v5q6 38 28 57.5t47 19.5z" />
<glyph unicode="&#xc4;" horiz-adv-x="525" d="M418 0h54q14 0 23 8.5t9 22.5q0 7 -1 10l-176 616q-3 9 -12 16t-19 7h-69q-10 0 -19 -7t-12 -16l-176 -616q-1 -3 -1 -10q0 -14 9 -22.5t23 -8.5h55q10 0 19.5 7t11.5 17l33 130h184l33 -130q2 -10 11.5 -17t19.5 -7zM329 254h-134q61 258 63 284h7q1 -26 64 -284z M297 809q0 22 15.5 38t37.5 16q21 0 37 -16t16 -38t-15.5 -37.5t-39.5 -15.5q-22 0 -36.5 15t-14.5 38zM119 809q0 22 15.5 38t37.5 16q21 0 37 -16t16 -38q0 -21 -16 -37t-38 -16t-37 15.5t-15 37.5z" />
<glyph unicode="&#xc5;" horiz-adv-x="525" d="M418 0h54q14 0 23 8.5t9 22.5q0 7 -1 10l-176 616q-3 9 -12 16t-19 7h-69q-10 0 -19 -7t-12 -16l-176 -616q-1 -3 -1 -10q0 -14 9 -22.5t23 -8.5h55q10 0 19.5 7t11.5 17l33 130h184l33 -130q2 -10 11.5 -17t19.5 -7zM329 254h-134q61 258 63 284h7q1 -26 64 -284z M262 908q41 0 70.5 -28.5t29.5 -68.5t-29.5 -68t-70.5 -28q-42 0 -71.5 28t-29.5 68t29.5 68.5t71.5 28.5zM262 765q19 0 32 13.5t13 32.5t-13 32.5t-32 13.5t-32.5 -13.5t-13.5 -32.5t13.5 -32.5t32.5 -13.5z" />
<glyph unicode="&#xc6;" horiz-adv-x="727" d="M480 104h184q14 0 23 -9t9 -23v-40q0 -14 -9 -23t-23 -9h-268q-14 0 -23 9t-9 23v122h-165l-57 -134q-3 -8 -12.5 -14t-17.5 -6h-53q-14 0 -23.5 9t-9.5 22q0 8 4 15l285 616q3 7 12 12.5t17 5.5h317q13 0 22.5 -9t9.5 -23v-40q0 -14 -9.5 -23t-22.5 -9h-181v-170h158 q14 0 23 -9t9 -23v-37q0 -13 -9 -22.5t-23 -9.5h-158v-201zM241 254h123v284h-10q-11 -32 -39 -103l-51 -126z" />
<glyph unicode="&#xc7;" horiz-adv-x="501" d="M463 122l12 -43q1 -2 1 -6q0 -18 -13 -29q-74 -52 -154 -52q-121 0 -197 93t-76 255t76 255t197 93q82 0 153 -51q13 -10 13 -26q0 -5 -1 -8l-11 -42q-7 -27 -29 -27q-10 0 -21 8q-51 38 -99 38q-74 0 -116 -67t-42 -173t42 -173t116 -67q45 0 99 39q8 7 20 7 q24 0 30 -24zM207 -174l4 12q3 10 14 10q5 0 7 -1q22 -5 38 -5t26.5 8t10.5 17q-1 22 -59 26q-9 1 -9 13q0 4 2 8l23 46q8 15 20 15h31q9 0 9 -14l-12 -27q63 -15 63 -64q0 -39 -30.5 -60t-81.5 -21q-26 0 -46 8q-12 5 -12 19q0 4 2 10z" />
<glyph unicode="&#xc8;" horiz-adv-x="425" d="M62 32v616q0 14 9 23t23 9h265q13 0 22.5 -9t9.5 -23v-41q0 -13 -9.5 -22.5t-22.5 -9.5h-182v-169h159q14 0 23 -9t9 -23v-38q0 -14 -9 -23t-23 -9h-159v-200h185q14 0 23 -9t9 -23v-40q0 -14 -9 -23t-23 -9h-268q-14 0 -23 9t-9 23zM191 886h13q5 0 14 -5t12 -9l66 -92 q6 -8 6 -16q0 -11 -10.5 -19.5t-25.5 -8.5q-11 0 -20 9l-78 87q-10 10 -10 23t9 22t24 9z" />
<glyph unicode="&#xc9;" horiz-adv-x="425" d="M62 32v616q0 14 9 23t23 9h265q13 0 22.5 -9t9.5 -23v-41q0 -13 -9.5 -22.5t-22.5 -9.5h-182v-169h159q14 0 23 -9t9 -23v-38q0 -14 -9 -23t-23 -9h-159v-200h185q14 0 23 -9t9 -23v-40q0 -14 -9 -23t-23 -9h-268q-14 0 -23 9t-9 23zM289 832l-80 -89q-9 -9 -30 -9 q-12 0 -19.5 8t-7.5 19q0 12 7 20l66 91q9 13 26 13h14q15 0 24 -9.5t9 -21.5t-9 -22z" />
<glyph unicode="&#xca;" horiz-adv-x="425" d="M62 32v616q0 14 9 23t23 9h265q13 0 22.5 -9t9.5 -23v-41q0 -13 -9.5 -22.5t-22.5 -9.5h-182v-169h159q14 0 23 -9t9 -23v-38q0 -14 -9 -23t-23 -9h-159v-200h185q14 0 23 -9t9 -23v-40q0 -14 -9 -23t-23 -9h-268q-14 0 -23 9t-9 23zM124 788l56 85q3 5 12 10t15 5h42 q6 0 15 -5t12 -10l57 -87q6 -9 6 -18q0 -12 -9 -21t-24 -9h-8q-6 0 -15 5t-12 10l-43 70l-43 -70q-3 -5 -12 -10t-15 -5h-7q-15 0 -24 9t-9 22q0 10 6 19z" />
<glyph unicode="&#xcb;" horiz-adv-x="425" d="M62 32v616q0 14 9 23t23 9h265q13 0 22.5 -9t9.5 -23v-41q0 -13 -9.5 -22.5t-22.5 -9.5h-182v-169h159q14 0 23 -9t9 -23v-38q0 -14 -9 -23t-23 -9h-159v-200h185q14 0 23 -9t9 -23v-40q0 -14 -9 -23t-23 -9h-268q-14 0 -23 9t-9 23zM261 810q0 22 15.5 38t37.5 16 q21 0 37 -16t16 -38t-15.5 -37.5t-39.5 -15.5q-22 0 -36.5 15t-14.5 38zM83 810q0 22 15.5 38t37.5 16q21 0 37 -16t16 -38q0 -21 -16 -37t-38 -16t-37 15.5t-15 37.5z" />
<glyph unicode="&#xcc;" horiz-adv-x="333" d="M41 32v28q0 14 9.5 23t22.5 9h35v495h-35q-13 0 -22.5 9.5t-9.5 22.5v29q0 14 9.5 23t22.5 9h186q13 0 22.5 -9t9.5 -23v-29q0 -13 -9.5 -22.5t-22.5 -9.5h-36v-495h36q13 0 22.5 -9t9.5 -23v-28q0 -14 -9.5 -23t-22.5 -9h-186q-13 0 -22.5 9t-9.5 23zM115 887h13 q5 0 14 -5t12 -9l66 -92q6 -7 6 -16q0 -11 -10.5 -19.5t-25.5 -8.5q-11 0 -20 9l-78 87q-10 10 -10 23q0 12 9 21.5t24 9.5z" />
<glyph unicode="&#xcd;" horiz-adv-x="333" d="M41 32v28q0 14 9.5 23t22.5 9h35v495h-35q-13 0 -22.5 9.5t-9.5 22.5v29q0 14 9.5 23t22.5 9h186q13 0 22.5 -9t9.5 -23v-29q0 -13 -9.5 -22.5t-22.5 -9.5h-36v-495h36q13 0 22.5 -9t9.5 -23v-28q0 -14 -9.5 -23t-22.5 -9h-186q-13 0 -22.5 9t-9.5 23zM241 834l-80 -89 q-9 -9 -30 -9q-12 0 -19.5 8t-7.5 19q0 12 7 20l66 91q9 13 26 13h14q15 0 24 -9.5t9 -21.5t-9 -22z" />
<glyph unicode="&#xce;" horiz-adv-x="331" d="M41 32v28q0 14 9.5 23t22.5 9h35v495h-35q-13 0 -22.5 9.5t-9.5 22.5v29q0 14 9.5 23t22.5 9h186q13 0 22.5 -9t9.5 -23v-29q0 -13 -9.5 -22.5t-22.5 -9.5h-36v-495h36q13 0 22.5 -9t9.5 -23v-28q0 -14 -9.5 -23t-22.5 -9h-186q-13 0 -22.5 9t-9.5 23zM64 789l56 85 q3 5 12 10t15 5h42q6 0 15 -5t12 -10l57 -87q6 -9 6 -18q0 -12 -9 -21t-24 -9h-8q-6 0 -15 5t-12 10l-43 70l-43 -70q-3 -5 -12 -10t-15 -5h-7q-15 0 -24 9t-9 22q0 10 6 19z" />
<glyph unicode="&#xcf;" horiz-adv-x="331" d="M41 32v28q0 14 9.5 23t22.5 9h35v495h-35q-13 0 -22.5 9.5t-9.5 22.5v29q0 14 9.5 23t22.5 9h186q13 0 22.5 -9t9.5 -23v-29q0 -13 -9.5 -22.5t-22.5 -9.5h-36v-495h36q13 0 22.5 -9t9.5 -23v-28q0 -14 -9.5 -23t-22.5 -9h-186q-13 0 -22.5 9t-9.5 23zM204 812 q0 22 15.5 38t37.5 16q21 0 37 -16t16 -38t-15.5 -37.5t-39.5 -15.5q-22 0 -36.5 15t-14.5 38zM26 812q0 22 15.5 38t37.5 16q21 0 37 -16t16 -38q0 -21 -16 -37t-38 -16t-37 15.5t-15 37.5z" />
<glyph unicode="&#xd0;" horiz-adv-x="551" d="M9 332v40q0 14 9.5 23t22.5 9h18v247q0 12 8.5 21.5t20.5 10.5q60 5 126 5q148 0 225 -95t77 -254q0 -160 -78.5 -253.5t-227.5 -93.5q-46 0 -121 5q-12 1 -21 10.5t-9 21.5v271h-18q-13 0 -22.5 9t-9.5 23zM175 579v-175h18q13 0 22.5 -9t9.5 -23v-40q0 -14 -9.5 -23 t-22.5 -9h-18v-198q27 -3 55 -3q79 0 122.5 64t43.5 176q0 116 -43.5 179.5t-122.5 63.5q-25 0 -55 -3z" />
<glyph unicode="&#xd1;" horiz-adv-x="573" d="M479 680h-46q-13 0 -22.5 -9t-9.5 -23v-215q0 -131 4 -195h-4l-218 424q-3 7 -12 12.5t-17 5.5h-60q-14 0 -23 -9t-9 -23v-616q0 -14 9 -23t23 -9h45q13 0 22.5 9t9.5 23v305q0 51 -4 115h4l223 -435q3 -6 12 -11.5t16 -5.5h57q13 0 22.5 9t9.5 23v616q0 14 -9.5 23 t-22.5 9zM225 869q34 0 90 -35q14 -9 20 -9q11 0 18 22q6 18 24 18h16q11 0 18 -6.5t7 -17.5v-4q-5 -41 -27 -59.5t-48 -18.5q-27 0 -80 30l-10 5q-18 9 -21 9q-14 0 -18 -20t-24 -20h-15q-11 0 -18 7t-7 17v5q6 38 28 57.5t47 19.5z" />
<glyph unicode="&#xd2;" horiz-adv-x="589" d="M295 688q81 0 141 -47.5t89 -125.5t29 -175q0 -149 -69.5 -248.5t-189.5 -99.5t-189.5 99.5t-69.5 248.5q0 97 29 175t89 125.5t141 47.5zM295 102q65 0 102 64.5t37 173.5t-37 173.5t-102 64.5t-102 -64.5t-37 -173.5t37 -173.5t102 -64.5zM214 888h13q5 0 14 -5t12 -9 l66 -92q6 -8 6 -16q0 -11 -10.5 -19.5t-25.5 -8.5q-11 0 -20 9l-78 87q-10 10 -10 23t9.5 22t23.5 9z" />
<glyph unicode="&#xd3;" horiz-adv-x="589" d="M295 688q81 0 141 -47.5t89 -125.5t29 -175q0 -149 -69.5 -248.5t-189.5 -99.5t-189.5 99.5t-69.5 248.5q0 97 29 175t89 125.5t141 47.5zM295 102q65 0 102 64.5t37 173.5t-37 173.5t-102 64.5t-102 -64.5t-37 -173.5t37 -173.5t102 -64.5zM392 833l-80 -89 q-9 -9 -30 -9q-12 0 -19.5 8t-7.5 19q0 12 7 20l66 91q9 13 26 13h14q14 0 23.5 -9t9.5 -22q0 -11 -9 -22z" />
<glyph unicode="&#xd4;" horiz-adv-x="589" d="M295 688q81 0 141 -47.5t89 -125.5t29 -175q0 -149 -69.5 -248.5t-189.5 -99.5t-189.5 99.5t-69.5 248.5q0 97 29 175t89 125.5t141 47.5zM295 102q65 0 102 64.5t37 173.5t-37 173.5t-102 64.5t-102 -64.5t-37 -173.5t37 -173.5t102 -64.5zM189 788l56 85q3 5 12 10 t15 5h42q6 0 15 -5t12 -10l57 -87q6 -9 6 -18q0 -12 -9 -21t-24 -9h-8q-6 0 -15 5t-12 10l-43 70l-43 -70q-3 -5 -12 -10t-15 -5h-7q-15 0 -24 9t-9 22q0 10 6 19z" />
<glyph unicode="&#xd5;" horiz-adv-x="589" d="M295 688q81 0 141 -47.5t89 -125.5t29 -175q0 -149 -69.5 -248.5t-189.5 -99.5t-189.5 99.5t-69.5 248.5q0 97 29 175t89 125.5t141 47.5zM295 102q65 0 102 64.5t37 173.5t-37 173.5t-102 64.5t-102 -64.5t-37 -173.5t37 -173.5t102 -64.5zM236 867q34 0 90 -35 q14 -9 20 -9q11 0 18 22q6 18 24 18h16q11 0 18 -6.5t7 -17.5v-4q-5 -41 -27 -59.5t-48 -18.5q-27 0 -80 30l-10 5q-18 9 -21 9q-14 0 -18 -20t-24 -20h-15q-11 0 -18 7t-7 17v5q6 38 28 57.5t47 19.5z" />
<glyph unicode="&#xd6;" horiz-adv-x="589" d="M295 688q81 0 141 -47.5t89 -125.5t29 -175q0 -149 -69.5 -248.5t-189.5 -99.5t-189.5 99.5t-69.5 248.5q0 97 29 175t89 125.5t141 47.5zM295 102q65 0 102 64.5t37 173.5t-37 173.5t-102 64.5t-102 -64.5t-37 -173.5t37 -173.5t102 -64.5zM332 808q0 22 15.5 38 t37.5 16q21 0 37 -16t16 -38t-15.5 -37.5t-39.5 -15.5q-22 0 -36.5 15t-14.5 38zM154 808q0 22 15.5 38t37.5 16q21 0 37 -16t16 -38q0 -21 -16 -37t-38 -16t-37 15.5t-15 37.5z" />
<glyph unicode="&#xd7;" horiz-adv-x="578" d="M505 381l-147 -145l147 -146q10 -9 10 -24q0 -13 -9 -22l-23 -23q-9 -9 -23 -9t-23 9l-147 146l-146 -146q-9 -9 -23 -9q-13 0 -22 9l-23 22q-9 9 -9 22q0 15 10 24l147 147l-147 146q-10 9 -10 24q0 13 9 22l22 22q9 9 23 9t23 -9l146 -147l147 148q9 9 22 9 q16 0 25 -11l23 -24q8 -10 8 -21q0 -13 -10 -23z" />
<glyph unicode="&#xd8;" horiz-adv-x="589" d="M490 669l-25 -55q42 -45 65.5 -119.5t23.5 -154.5q0 -149 -69.5 -248.5t-189.5 -99.5q-53 0 -108 27l-19 -40q-10 -18 -30 -18q-6 0 -9 1l-11 5q-22 8 -22 31q0 7 3 13l26 56q-89 99 -89 273q0 97 29 175t89 125.5t141 47.5q58 0 107 -27l19 41q9 19 29 19q9 0 18 -6 l11 -6q14 -9 14 -27q0 -7 -3 -13zM183 193l172 367q-26 18 -60 18q-65 0 -102 -64.5t-37 -173.5q0 -86 27 -147zM406 488l-171 -367q31 -19 60 -19q65 0 102 64.5t37 173.5q0 81 -28 148z" />
<glyph unicode="&#xd9;" horiz-adv-x="567" d="M421 680h52q13 0 22.5 -9t9.5 -23v-412q0 -114 -62.5 -179t-159.5 -65q-96 0 -158.5 65t-62.5 179v412q0 14 9 23t23 9h52q14 0 23 -9t9 -23v-417q0 -61 29.5 -95.5t75.5 -34.5q47 0 76.5 34.5t29.5 95.5v417q0 14 9.5 23t22.5 9zM216 887h13q5 0 14 -5t12 -9l66 -92 q6 -7 6 -16q0 -11 -10.5 -19.5t-25.5 -8.5q-11 0 -20 9l-78 87q-10 10 -10 23q0 12 9.5 21.5t23.5 9.5z" />
<glyph unicode="&#xda;" horiz-adv-x="567" d="M421 680h52q13 0 22.5 -9t9.5 -23v-412q0 -114 -62.5 -179t-159.5 -65q-96 0 -158.5 65t-62.5 179v412q0 14 9 23t23 9h52q14 0 23 -9t9 -23v-417q0 -61 29.5 -95.5t75.5 -34.5q47 0 76.5 34.5t29.5 95.5v417q0 14 9.5 23t22.5 9zM373 834l-80 -89q-9 -9 -30 -9 q-12 0 -19.5 8t-7.5 19q0 12 7 20l66 91q9 13 26 13h14q15 0 24 -9.5t9 -21.5t-9 -22z" />
<glyph unicode="&#xdb;" horiz-adv-x="567" d="M421 680h52q13 0 22.5 -9t9.5 -23v-412q0 -114 -62.5 -179t-159.5 -65q-96 0 -158.5 65t-62.5 179v412q0 14 9 23t23 9h52q14 0 23 -9t9 -23v-417q0 -61 29.5 -95.5t75.5 -34.5q47 0 76.5 34.5t29.5 95.5v417q0 14 9.5 23t22.5 9zM179 787l56 85q3 5 12 10t15 5h42 q6 0 15 -5t12 -10l57 -87q6 -9 6 -18q0 -12 -9 -21t-24 -9h-8q-6 0 -15 5t-12 10l-43 70l-43 -70q-3 -5 -12 -10t-15 -5h-7q-15 0 -24 9t-9 22q0 10 6 19z" />
<glyph unicode="&#xdc;" horiz-adv-x="567" d="M421 680h52q13 0 22.5 -9t9.5 -23v-412q0 -114 -62.5 -179t-159.5 -65q-96 0 -158.5 65t-62.5 179v412q0 14 9 23t23 9h52q14 0 23 -9t9 -23v-417q0 -61 29.5 -95.5t75.5 -34.5q47 0 76.5 34.5t29.5 95.5v417q0 14 9.5 23t22.5 9zM320 808q0 22 15.5 38t37.5 16 q21 0 37 -16t16 -38t-15.5 -37.5t-39.5 -15.5q-22 0 -36.5 15t-14.5 38zM142 808q0 22 15.5 38t37.5 16q21 0 37 -16t16 -38q0 -21 -16 -37t-38 -16t-37 15.5t-15 37.5z" />
<glyph unicode="&#xdd;" horiz-adv-x="485" d="M239 415h6q33 99 92 245q3 8 12.5 14t17.5 6h56q14 0 23 -8.5t9 -21.5q0 -8 -3 -15l-152 -354v-249q0 -14 -9 -23t-23 -9h-52q-14 0 -23 9t-9 23v249l-152 355q-3 8 -3 15q0 12 9 20.5t23 8.5h56q8 0 17.5 -6t12.5 -14q59 -146 92 -245zM327 833l-80 -89q-9 -9 -30 -9 q-12 0 -19.5 8t-7.5 19q0 12 7 20l66 91q9 13 26 13h14q15 0 24 -9t9 -22q0 -11 -9 -22z" />
<glyph unicode="&#xde;" horiz-adv-x="461" d="M215 562q105 0 157.5 -63t52.5 -158q0 -98 -48.5 -162t-119.5 -64h-80v-83q0 -14 -9.5 -23t-22.5 -9h-51q-14 0 -23 9t-9 23v616q0 14 9 23t23 9h51q13 0 22.5 -9t9.5 -23v-86h38zM224 219q37 0 60 33.5t23 87.5q0 50 -20.5 83t-63.5 33q-25 0 -46 -4v-232h29 q2 0 8.5 -0.5t9.5 -0.5z" />
<glyph unicode="&#xdf;" horiz-adv-x="515" d="M359 389q-44 -29 -44 -46q0 -26 58 -56q26 -13 41 -22.5t34.5 -27t29 -40.5t9.5 -53q0 -74 -41.5 -113t-103.5 -39q-53 0 -116 23q-21 7 -21 30q0 1 0.5 3t0.5 3l11 39q7 18 29 18q6 0 14 -3q42 -21 75 -21q17 0 28.5 13t11.5 37q0 38 -49 65q-31 16 -44.5 24.5t-36 26 t-32 37.5t-9.5 46q0 23 14.5 45t27.5 32.5t40 29.5q2 2 12.5 9t13.5 9.5t11 8.5t10.5 9.5l7 9.5t6 11.5t1.5 11.5q0 42 -33 71t-75 29q-84 0 -84 -100v-477q0 -14 -9 -23t-23 -9h-42q-14 0 -23 9t-9 23v477q0 86 52.5 132.5t137.5 46.5q83 0 143 -51t60 -128 q0 -30 -14.5 -55t-29.5 -37t-40 -28z" />
<glyph unicode="&#xe0;" d="M297 440l1 9q1 11 10 18t21 7h19q14 0 23 -9t9 -23v-248q0 -72 13 -157v-5q0 -14 -9.5 -23t-22.5 -9h-24q-10 0 -19.5 7.5t-11.5 18.5l-6 29h-7q-32 -63 -104 -63t-116.5 67.5t-44.5 177.5q0 111 46.5 178t116.5 67q57 0 106 -42zM274 351l-1 10q-22 28 -57 28 q-36 0 -56.5 -41.5t-20.5 -110.5t19.5 -111.5t54.5 -42.5q21 0 37.5 23t23.5 52v193zM150 680h13q5 0 14 -5t12 -9l66 -92q6 -8 6 -16q0 -11 -10.5 -19.5t-25.5 -8.5q-11 0 -20 9l-78 87q-10 10 -10 23t9.5 22t23.5 9z" />
<glyph unicode="&#xe1;" d="M297 440l1 9q1 11 10 18t21 7h19q14 0 23 -9t9 -23v-248q0 -72 13 -157v-5q0 -14 -9.5 -23t-22.5 -9h-24q-10 0 -19.5 7.5t-11.5 18.5l-6 29h-7q-32 -63 -104 -63t-116.5 67.5t-44.5 177.5q0 111 46.5 178t116.5 67q57 0 106 -42zM274 351l-1 10q-22 28 -57 28 q-36 0 -56.5 -41.5t-20.5 -110.5t19.5 -111.5t54.5 -42.5q21 0 37.5 23t23.5 52v193zM298 627l-80 -89q-9 -9 -30 -9q-12 0 -19.5 8t-7.5 19q0 12 7 20l66 91q9 13 26 13h14q14 0 23.5 -9t9.5 -22q0 -11 -9 -22z" />
<glyph unicode="&#xe2;" d="M298 449l-1 -9q-49 42 -106 42q-70 0 -116.5 -67t-46.5 -178q0 -110 44.5 -177.5t116.5 -67.5t104 63h7l6 -29q2 -11 11.5 -18.5t19.5 -7.5h24q13 0 22.5 9t9.5 23v5q-13 85 -13 157v248q0 14 -9 23t-23 9h-19q-12 0 -21 -7t-10 -18zM273 361l1 -10v-193 q-7 -29 -23.5 -52t-37.5 -23q-35 0 -54.5 42.5t-19.5 111.5t20.5 110.5t56.5 41.5q35 0 57 -28zM108 580l56 85q3 5 12 10t15 5h42q6 0 15 -5t12 -10l57 -87q6 -9 6 -18q0 -12 -9 -21t-24 -9h-8q-6 0 -15 5t-12 10l-43 70l-43 -70q-3 -5 -12 -10t-15 -5h-7q-15 0 -24 9 t-9 22q0 10 6 19z" />
<glyph unicode="&#xe3;" d="M298 449l-1 -9q-49 42 -106 42q-70 0 -116.5 -67t-46.5 -178q0 -110 44.5 -177.5t116.5 -67.5t104 63h7l6 -29q2 -11 11.5 -18.5t19.5 -7.5h24q13 0 22.5 9t9.5 23v5q-13 85 -13 157v248q0 14 -9 23t-23 9h-19q-12 0 -21 -7t-10 -18zM273 361l1 -10v-193 q-7 -29 -23.5 -52t-37.5 -23q-35 0 -54.5 42.5t-19.5 111.5t20.5 110.5t56.5 41.5q35 0 57 -28zM155 660q34 0 90 -35q14 -9 20 -9q11 0 18 22q6 18 24 18h16q11 0 18 -6.5t7 -17.5v-4q-5 -41 -27 -59.5t-48 -18.5q-27 0 -80 30l-10 5q-18 9 -21 9q-14 0 -18 -20t-24 -20 h-15q-11 0 -18 7t-7 17v5q6 38 28 57.5t47 19.5z" />
<glyph unicode="&#xe4;" d="M298 449l-1 -9q-49 42 -106 42q-70 0 -116.5 -67t-46.5 -178q0 -110 44.5 -177.5t116.5 -67.5t104 63h7l6 -29q2 -11 11.5 -18.5t19.5 -7.5h24q13 0 22.5 9t9.5 23v5q-13 85 -13 157v248q0 14 -9 23t-23 9h-19q-12 0 -21 -7t-10 -18zM273 361l1 -10v-193 q-7 -29 -23.5 -52t-37.5 -23q-35 0 -54.5 42.5t-19.5 111.5t20.5 110.5t56.5 41.5q35 0 57 -28zM251 604q0 22 15.5 38t37.5 16q21 0 37 -16t16 -38t-15.5 -37.5t-39.5 -15.5q-22 0 -36.5 15t-14.5 38zM73 604q0 22 15.5 38t37.5 16q21 0 37 -16t16 -38q0 -21 -16 -37 t-38 -16t-37 15.5t-15 37.5z" />
<glyph unicode="&#xe5;" d="M298 449l-1 -9q-49 42 -106 42q-70 0 -116.5 -67t-46.5 -178q0 -110 44.5 -177.5t116.5 -67.5t104 63h7l6 -29q2 -11 11.5 -18.5t19.5 -7.5h24q13 0 22.5 9t9.5 23v5q-13 85 -13 157v248q0 14 -9 23t-23 9h-19q-12 0 -21 -7t-10 -18zM273 361l1 -10v-193 q-7 -29 -23.5 -52t-37.5 -23q-35 0 -54.5 42.5t-19.5 111.5t20.5 110.5t56.5 41.5q35 0 57 -28zM216 702q41 0 70.5 -28.5t29.5 -68.5t-29.5 -68t-70.5 -28q-42 0 -71.5 28t-29.5 68t29.5 68.5t71.5 28.5zM216 559q19 0 32 13.5t13 32.5t-13 32.5t-32 13.5t-32.5 -13.5 t-13.5 -32.5t13.5 -32.5t32.5 -13.5z" />
<glyph unicode="&#xe6;" horiz-adv-x="643" d="M584 208h-206q0 -58 23 -92.5t59 -34.5q42 0 90 20q6 3 13 3q24 0 30 -24l6 -22q1 -2 1 -7q0 -23 -20 -31q-65 -28 -124 -28q-91 0 -135 67h-5q-40 -67 -112 -67q-80 0 -128.5 66.5t-48.5 177.5q0 115 47.5 180.5t132.5 65.5q42 0 100 -9q10 -1 17.5 -9.5t9.5 -18.5 l3 -25h4q21 33 53.5 47.5t61.5 14.5q74 0 117 -54t43 -156v-32q0 -14 -9 -23t-23 -9zM273 123v258q-35 9 -59 9q-36 0 -56 -42t-20 -112q0 -69 20.5 -110t57.5 -41q36 0 57 38zM377 279h142q0 121 -63 121q-33 0 -54 -33t-25 -88z" />
<glyph unicode="&#xe7;" horiz-adv-x="373" d="M295 102q6 3 13 3q23 0 30 -25l7 -26q0 -1 0.5 -3.5t0.5 -3.5q0 -22 -18 -30q-53 -25 -112 -25q-32 0 -62 11t-60 36t-48.5 76t-18.5 122t18.5 122t48.5 76t60 36t62 11q56 0 111 -25q19 -9 19 -30q0 -5 -1 -7l-7 -25q-7 -26 -31 -26q-7 0 -13 3q-34 15 -67 15 q-43 0 -65.5 -40t-22.5 -110t22.5 -110t65.5 -40q32 0 68 15zM117 -173l4 12q3 10 14 10q5 0 7 -1q22 -5 38 -5t26.5 8t10.5 17q-1 22 -59 26q-9 2 -9 13q0 4 2 8l23 46q8 15 20 15h31q9 0 9 -14l-12 -27q63 -15 63 -64q0 -39 -30.5 -60t-81.5 -21q-26 0 -46 8q-12 4 -12 19 q0 4 2 10z" />
<glyph unicode="&#xe8;" horiz-adv-x="404" d="M311 101q6 3 13 3q24 0 30 -24l6 -22q1 -2 1 -7q0 -23 -20 -31q-65 -28 -125 -28q-24 0 -48 6t-50 23t-45.5 43.5t-32.5 71t-13 101.5t13 101.5t32.5 71t45.5 43.5t50 23t48 6q75 0 118 -54t43 -156v-32q0 -14 -9.5 -23t-22.5 -9h-208q2 -61 24.5 -94t58.5 -33 q43 0 91 20zM137 279h142q1 8 1 20q0 43 -16 72t-48 29q-33 0 -54 -33.5t-25 -87.5zM140 680h13q5 0 14 -5t12 -9l66 -92q6 -8 6 -16q0 -11 -10.5 -19.5t-25.5 -8.5q-11 0 -20 9l-78 87q-10 10 -10 23t9.5 22t23.5 9z" />
<glyph unicode="&#xe9;" horiz-adv-x="404" d="M311 101q6 3 13 3q24 0 30 -24l6 -22q1 -2 1 -7q0 -23 -20 -31q-65 -28 -125 -28q-24 0 -48 6t-50 23t-45.5 43.5t-32.5 71t-13 101.5t13 101.5t32.5 71t45.5 43.5t50 23t48 6q75 0 118 -54t43 -156v-32q0 -14 -9.5 -23t-22.5 -9h-208q2 -61 24.5 -94t58.5 -33 q43 0 91 20zM137 279h142q1 8 1 20q0 43 -16 72t-48 29q-33 0 -54 -33.5t-25 -87.5zM309 627l-80 -89q-9 -9 -30 -9q-12 0 -19.5 8t-7.5 19q0 12 7 20l66 91q9 13 26 13h14q15 0 24 -9t9 -22q0 -11 -9 -22z" />
<glyph unicode="&#xea;" horiz-adv-x="404" d="M311 101q-48 -20 -91 -20q-36 0 -58.5 33t-24.5 94h208q13 0 22.5 9t9.5 23v32q0 102 -43 156t-118 54q-24 0 -48 -6t-50 -23t-45.5 -43.5t-32.5 -71t-13 -101.5t13 -101.5t32.5 -71t45.5 -43.5t50 -23t48 -6q60 0 125 28q20 8 20 31q0 5 -1 7l-6 22q-6 24 -30 24 q-7 0 -13 -3zM137 279q4 54 25 87.5t54 33.5q32 0 48 -29t16 -72q0 -12 -1 -20h-142zM110 580l56 85q3 5 12 10t15 5h42q6 0 15 -5t12 -10l57 -87q6 -9 6 -18q0 -12 -9 -21t-24 -9h-8q-6 0 -15 5t-12 10l-43 70l-43 -70q-3 -5 -12 -10t-15 -5h-7q-15 0 -24 9t-9 22 q0 10 6 19z" />
<glyph unicode="&#xeb;" horiz-adv-x="404" d="M311 101q-48 -20 -91 -20q-36 0 -58.5 33t-24.5 94h208q13 0 22.5 9t9.5 23v32q0 102 -43 156t-118 54q-24 0 -48 -6t-50 -23t-45.5 -43.5t-32.5 -71t-13 -101.5t13 -101.5t32.5 -71t45.5 -43.5t50 -23t48 -6q60 0 125 28q20 8 20 31q0 5 -1 7l-6 22q-6 24 -30 24 q-7 0 -13 -3zM137 279q4 54 25 87.5t54 33.5q32 0 48 -29t16 -72q0 -12 -1 -20h-142zM253 604q0 22 15.5 38t37.5 16q21 0 37 -16t16 -38t-15.5 -37.5t-39.5 -15.5q-22 0 -36.5 15t-14.5 38zM75 604q0 22 15.5 38t37.5 16q21 0 37 -16t16 -38q0 -21 -16 -37t-38 -16 t-37 15.5t-15 37.5z" />
<glyph unicode="&#xec;" horiz-adv-x="205" d="M32 680h13q5 0 14 -5t12 -9l66 -92q6 -8 6 -16q0 -11 -10.5 -19.5t-25.5 -8.5q-11 0 -20 9l-78 87q-10 10 -10 23t9.5 22t23.5 9zM156 442v-410q0 -14 -9 -23t-23 -9h-42q-14 0 -23 9t-9 23v410q0 14 9 23t23 9h42q14 0 23 -9t9 -23z" />
<glyph unicode="&#xed;" horiz-adv-x="204" d="M190 627l-80 -89q-9 -9 -30 -9q-12 0 -19.5 8t-7.5 19q0 12 7 20l66 91q9 13 26 13h14q14 0 23.5 -9t9.5 -22q0 -11 -9 -22zM155 442v-410q0 -14 -9.5 -23t-22.5 -9h-42q-13 0 -22.5 9t-9.5 23v410q0 14 9.5 23t22.5 9h42q13 0 22.5 -9t9.5 -23z" />
<glyph unicode="&#xee;" horiz-adv-x="205" d="M156 442v-410q0 -14 -9 -23t-23 -9h-42q-14 0 -23 9t-9 23v410q0 14 9 23t23 9h42q14 0 23 -9t9 -23zM-1 580l56 85q3 5 12 10t15 5h42q6 0 15 -5t12 -10l57 -87q6 -9 6 -18q0 -12 -9 -21t-24 -9h-8q-6 0 -15 5t-12 10l-43 70l-43 -70q-3 -5 -12 -10t-15 -5h-7 q-15 0 -24 9t-9 22q0 10 6 19z" />
<glyph unicode="&#xef;" horiz-adv-x="205" d="M139 604q0 22 15.5 38t37.5 16q21 0 37 -16t16 -38t-15.5 -37.5t-39.5 -15.5q-22 0 -36.5 15t-14.5 38zM-39 604q0 22 15.5 38t37.5 16q21 0 37 -16t16 -38q0 -21 -16 -37t-38 -16t-37 15.5t-15 37.5zM156 442v-410q0 -14 -9 -23t-23 -9h-42q-14 0 -23 9t-9 23v410 q0 14 9 23t23 9h42q14 0 23 -9t9 -23z" />
<glyph unicode="&#xf0;" horiz-adv-x="443" d="M138 680l27 20q7 7 19 7t20 -8q28 -20 61 -53l85 40q6 2 8 2q13 0 18 -12l6 -11q2 -6 2 -8q0 -12 -12 -19l-70 -33q108 -138 108 -340q0 -72 -17.5 -126t-46.5 -83t-60.5 -42.5t-64.5 -13.5q-30 0 -60.5 12t-60.5 38t-49 76.5t-19 118.5q0 67 18 118t45 77t53.5 38 t50.5 12q31 0 60 -20l5 5q-22 45 -54 87l-91 -43q-6 -2 -8 -2q-12 0 -19 12l-5 11q-2 6 -2 9q0 12 11 18l77 36q-18 18 -36 33q-9 8 -9 20q0 17 10 24zM221 92q36 0 57 42t21 111q0 152 -78 152q-36 0 -57 -41.5t-21 -110.5t21 -111t57 -42z" />
<glyph unicode="&#xf1;" horiz-adv-x="429" d="M247 482q66 0 98.5 -34t32.5 -118v-298q0 -14 -9 -23t-23 -9h-42q-14 0 -23 9t-9 23v292q0 37 -14.5 51t-40.5 14q-16 0 -35 -13t-27 -32v-312q0 -14 -9.5 -23t-22.5 -9h-42q-13 0 -22.5 9t-9.5 23v410q0 14 9.5 23t22.5 9h31q11 0 21 -8t11 -19l2 -15h8q40 50 93 50z M158 660q34 0 90 -35q14 -9 20 -9q11 0 18 22q6 18 24 18h16q11 0 18 -6.5t7 -17.5v-4q-5 -41 -27 -59.5t-48 -18.5q-27 0 -80 30l-10 5q-18 9 -21 9q-14 0 -18 -20t-24 -20h-15q-11 0 -18 7t-7 17v5q6 38 28 57.5t47 19.5z" />
<glyph unicode="&#xf2;" horiz-adv-x="433" d="M216 482q32 0 62 -11t60.5 -36t49 -76t18.5 -122t-18.5 -122t-49 -76t-60.5 -36t-62 -11q-24 0 -48 6t-50 23t-45.5 43.5t-32.5 71t-13 101.5t13 101.5t32.5 71t45.5 43.5t50 23t48 6zM216 84q38 0 58.5 41t20.5 112t-20.5 112t-58.5 41q-37 0 -57.5 -41t-20.5 -112 t20.5 -112t57.5 -41zM140 677h13q5 0 14 -5t12 -9l66 -92q6 -7 6 -16q0 -11 -10.5 -19.5t-25.5 -8.5q-11 0 -20 9l-78 87q-10 10 -10 23q0 12 9.5 21.5t23.5 9.5z" />
<glyph unicode="&#xf3;" horiz-adv-x="433" d="M216 482q32 0 62 -11t60.5 -36t49 -76t18.5 -122t-18.5 -122t-49 -76t-60.5 -36t-62 -11q-24 0 -48 6t-50 23t-45.5 43.5t-32.5 71t-13 101.5t13 101.5t32.5 71t45.5 43.5t50 23t48 6zM216 84q38 0 58.5 41t20.5 112t-20.5 112t-58.5 41q-37 0 -57.5 -41t-20.5 -112 t20.5 -112t57.5 -41zM314 627l-80 -89q-9 -9 -30 -9q-12 0 -19.5 8t-7.5 19q0 12 7 20l66 91q9 13 26 13h14q14 0 23.5 -9t9.5 -22q0 -11 -9 -22z" />
<glyph unicode="&#xf4;" horiz-adv-x="433" d="M216 482q32 0 62 -11t60.5 -36t49 -76t18.5 -122t-18.5 -122t-49 -76t-60.5 -36t-62 -11q-24 0 -48 6t-50 23t-45.5 43.5t-32.5 71t-13 101.5t13 101.5t32.5 71t45.5 43.5t50 23t48 6zM216 84q38 0 58.5 41t20.5 112t-20.5 112t-58.5 41q-37 0 -57.5 -41t-20.5 -112 t20.5 -112t57.5 -41zM112 580l56 85q3 5 12 10t15 5h42q6 0 15 -5t12 -10l57 -87q6 -9 6 -18q0 -12 -9 -21t-24 -9h-8q-6 0 -15 5t-12 10l-43 70l-43 -70q-3 -5 -12 -10t-15 -5h-7q-15 0 -24 9t-9 22q0 10 6 19z" />
<glyph unicode="&#xf5;" horiz-adv-x="433" d="M216 482q32 0 62 -11t60.5 -36t49 -76t18.5 -122t-18.5 -122t-49 -76t-60.5 -36t-62 -11q-24 0 -48 6t-50 23t-45.5 43.5t-32.5 71t-13 101.5t13 101.5t32.5 71t45.5 43.5t50 23t48 6zM216 84q38 0 58.5 41t20.5 112t-20.5 112t-58.5 41q-37 0 -57.5 -41t-20.5 -112 t20.5 -112t57.5 -41zM155 660q34 0 90 -35q14 -9 20 -9q11 0 18 22q6 18 24 18h16q11 0 18 -6.5t7 -17.5v-4q-5 -41 -27 -59.5t-48 -18.5q-27 0 -80 30l-10 5q-18 9 -21 9q-14 0 -18 -20t-24 -20h-15q-11 0 -18 7t-7 17v5q6 38 28 57.5t47 19.5z" />
<glyph unicode="&#xf6;" horiz-adv-x="433" d="M216 482q32 0 62 -11t60.5 -36t49 -76t18.5 -122t-18.5 -122t-49 -76t-60.5 -36t-62 -11q-24 0 -48 6t-50 23t-45.5 43.5t-32.5 71t-13 101.5t13 101.5t32.5 71t45.5 43.5t50 23t48 6zM216 84q38 0 58.5 41t20.5 112t-20.5 112t-58.5 41q-37 0 -57.5 -41t-20.5 -112 t20.5 -112t57.5 -41zM252 604q0 22 15.5 38t37.5 16q21 0 37 -16t16 -38t-15.5 -37.5t-39.5 -15.5q-22 0 -36.5 15t-14.5 38zM74 604q0 22 15.5 38t37.5 16q21 0 37 -16t16 -38q0 -21 -16 -37t-38 -16t-37 15.5t-15 37.5z" />
<glyph unicode="&#xf7;" horiz-adv-x="587" d="M89 285h410q13 0 22.5 -9.5t9.5 -22.5v-32q0 -13 -9.5 -22.5t-22.5 -9.5h-410q-13 0 -22.5 9.5t-9.5 22.5v32q0 13 9.5 22.5t22.5 9.5zM359 68q0 -29 -18 -46t-47 -17t-47 17t-18 46t18 47t47 18t47 -18t18 -47zM359 405q0 -29 -18 -46t-47 -17t-47 17t-18 46t18 46.5 t47 17.5t47 -17.5t18 -46.5z" />
<glyph unicode="&#xf8;" horiz-adv-x="433" d="M147 152l102 219q-16 13 -36 13q-37 0 -57 -40.5t-20 -111.5q0 -45 11 -80zM291 232q0 45 -11 81l-103 -220q17 -14 36 -14q38 0 58 40.5t20 112.5zM361 477l-23 -48q65 -65 65 -197q0 -71 -18.5 -122t-49 -76.5t-60.5 -36.5t-62 -11q-36 0 -74 16l-18 -41 q-7 -12 -19 -12q-2 0 -8 2l-19 9q-11 6 -11 18q0 3 2 9l22 49q-64 64 -64 196q0 57 13 101.5t32.5 70.5t45.5 43t50 23t48 6q45 0 74 -14l19 41q5 11 17 11q3 0 9 -2l20 -9q11 -5 11 -17q0 -3 -2 -9z" />
<glyph unicode="&#xf9;" horiz-adv-x="429" d="M180 -8q-66 0 -98.5 34t-32.5 118v298q0 14 9.5 23t22.5 9h42q13 0 22.5 -9t9.5 -23v-292q0 -66 55 -66q38 0 62 45v313q0 14 9 23t23 9h42q14 0 23 -9t9 -23v-410q0 -14 -9 -23t-23 -9h-30q-11 0 -21 8t-11 19l-2 14h-7q-39 -49 -95 -49zM138 680h13q5 0 14 -5t12 -9 l66 -92q6 -8 6 -16q0 -11 -10.5 -19.5t-25.5 -8.5q-11 0 -20 9l-78 87q-10 10 -10 23t9.5 22t23.5 9z" />
<glyph unicode="&#xfa;" horiz-adv-x="429" d="M180 -8q-66 0 -98.5 34t-32.5 118v298q0 14 9.5 23t22.5 9h42q13 0 22.5 -9t9.5 -23v-292q0 -66 55 -66q38 0 62 45v313q0 14 9 23t23 9h42q14 0 23 -9t9 -23v-410q0 -14 -9 -23t-23 -9h-30q-11 0 -21 8t-11 19l-2 14h-7q-39 -49 -95 -49zM305 627l-80 -89q-9 -9 -30 -9 q-12 0 -19.5 8t-7.5 19q0 12 7 20l66 91q9 13 26 13h14q15 0 24 -9t9 -22q0 -11 -9 -22z" />
<glyph unicode="&#xfb;" horiz-adv-x="429" d="M180 -8q-66 0 -98.5 34t-32.5 118v298q0 14 9.5 23t22.5 9h42q13 0 22.5 -9t9.5 -23v-292q0 -66 55 -66q38 0 62 45v313q0 14 9 23t23 9h42q14 0 23 -9t9 -23v-410q0 -14 -9 -23t-23 -9h-30q-11 0 -21 8t-11 19l-2 14h-7q-39 -49 -95 -49zM106 580l56 85q3 5 12 10t15 5 h42q6 0 15 -5t12 -10l57 -87q6 -9 6 -18q0 -12 -9 -21t-24 -9h-8q-6 0 -15 5t-12 10l-43 70l-43 -70q-3 -5 -12 -10t-15 -5h-7q-15 0 -24 9t-9 22q0 10 6 19z" />
<glyph unicode="&#xfc;" horiz-adv-x="429" d="M180 -8q-66 0 -98.5 34t-32.5 118v298q0 14 9.5 23t22.5 9h42q13 0 22.5 -9t9.5 -23v-292q0 -66 55 -66q38 0 62 45v313q0 14 9 23t23 9h42q14 0 23 -9t9 -23v-410q0 -14 -9 -23t-23 -9h-30q-11 0 -21 8t-11 19l-2 14h-7q-39 -49 -95 -49zM248 604q0 22 15.5 38t37.5 16 q21 0 37 -16t16 -38t-15.5 -37.5t-39.5 -15.5q-22 0 -36.5 15t-14.5 38zM70 604q0 22 15.5 38t37.5 16q21 0 37 -16t16 -38q0 -21 -16 -37t-38 -16t-37 15.5t-15 37.5z" />
<glyph unicode="&#xfd;" horiz-adv-x="394" d="M294 474h45q14 0 23 -8.5t9 -22.5q0 -7 -1 -10l-134 -444q-26 -86 -62.5 -128.5t-101.5 -63.5q-8 -2 -11 -2q-24 0 -31 23l-9 30q-1 3 -1 8q0 24 19 30q75 29 98 105q0 2 8 28l-123 414q-1 3 -1 10q0 13 9 22t23 9h44q10 0 19.5 -7t11.5 -17q49 -192 65 -294h6 q9 69 64 294q2 10 11.5 17t19.5 7zM298 627l-80 -89q-9 -9 -30 -9q-12 0 -19.5 8t-7.5 19q0 12 7 20l66 91q9 13 26 13h14q14 0 23.5 -9t9.5 -22q0 -11 -9 -22z" />
<glyph unicode="&#xfe;" d="M400 236q0 -113 -46.5 -178.5t-123.5 -65.5q-37 0 -75 27v-193q0 -14 -9.5 -23t-22.5 -9h-42q-13 0 -22.5 9t-9.5 23v822q0 14 9.5 23t22.5 9h42q13 0 22.5 -9t9.5 -23v-193h4q30 27 65 27q81 0 128.5 -67t47.5 -179zM290 237q0 69 -21 110.5t-57 41.5q-37 0 -57 -40 v-236q25 -29 58 -29q36 0 56.5 41.5t20.5 111.5z" />
<glyph unicode="&#xff;" horiz-adv-x="394" d="M339 474h-45q-10 0 -19.5 -7t-11.5 -17q-55 -225 -64 -294h-6q-16 102 -65 294q-2 10 -11.5 17t-19.5 7h-44q-14 0 -23 -9t-9 -22q0 -7 1 -10l123 -414q-8 -26 -8 -28q-23 -76 -98 -105q-19 -6 -19 -30q0 -5 1 -8l9 -30q7 -23 31 -23q3 0 11 2q65 21 101.5 63.5 t62.5 128.5l134 444q1 3 1 10q0 14 -9 22.5t-23 8.5zM229 604q0 22 15.5 38t37.5 16q21 0 37 -16t16 -38t-15.5 -37.5t-39.5 -15.5q-22 0 -36.5 15t-14.5 38zM51 604q0 22 15.5 38t37.5 16q21 0 37 -16t16 -38q0 -21 -16 -37t-38 -16t-37 15.5t-15 37.5z" />
<glyph unicode="&#x152;" horiz-adv-x="797" d="M549 104h185q14 0 23 -9t9 -23v-40q0 -14 -9 -23t-23 -9h-268q-14 0 -23 8t-9 20v35q-60 -71 -139 -71q-120 0 -189.5 99.5t-69.5 248.5q0 97 29 175t89 125.5t141 47.5q82 0 139 -72v32q0 14 9 23t23 9h265q13 0 22.5 -9t9.5 -23v-41q0 -13 -9.5 -22.5t-22.5 -9.5h-182 v-169h159q14 0 23 -9t9 -23v-37q0 -13 -9 -22.5t-23 -9.5h-159v-201zM434 340q0 109 -37 173.5t-102 64.5t-102 -64.5t-37 -173.5t37 -173.5t102 -64.5t102 64.5t37 173.5z" />
<glyph unicode="&#x153;" horiz-adv-x="670" d="M643 272v-32q0 -14 -9.5 -23t-22.5 -9h-207q3 -63 25 -95t58 -32q44 0 89 19q6 3 14 3q23 0 30 -23l6 -22q1 -3 1 -8q0 -22 -19 -30q-63 -28 -125 -28q-37 0 -73.5 21t-57.5 64h-6q-42 -85 -130 -85q-24 0 -48 6t-50 23t-45.5 43.5t-32.5 71t-13 101.5t13 101.5t32.5 71 t45.5 43.5t50 23t48 6q84 0 130 -86h6q45 86 131 86q74 0 117 -54t43 -156zM294 237q0 72 -20 112.5t-58 40.5q-37 0 -57 -41t-20 -112t20 -112t57 -41q38 0 58 40.5t20 112.5zM404 279h143v20q0 43 -16 72t-48 29q-33 0 -54 -33t-25 -88z" />
<glyph unicode="&#x178;" horiz-adv-x="485" d="M239 415q-33 99 -92 245q-3 8 -12.5 14t-17.5 6h-56q-14 0 -23 -8.5t-9 -20.5q0 -8 3 -15l152 -355v-249q0 -14 9 -23t23 -9h52q14 0 23 9t9 23v249l152 354q3 8 3 15q0 13 -9 21.5t-23 8.5h-56q-8 0 -17.5 -6t-12.5 -14q-59 -146 -92 -245h-6zM277 809q0 22 15 38t37 16 q21 0 36.5 -16t15.5 -38t-15 -37.5t-39 -15.5q-22 0 -36 15t-14 38zM102 809q0 22 15 38t37 16q20 0 36 -16t16 -38q0 -21 -16 -37t-37 -16q-22 0 -36.5 15t-14.5 38z" />
<glyph unicode="&#x2c6;" horiz-adv-x="333" d="M62 580l56 85q3 5 12 10t15 5h42q6 0 15 -5t12 -10l57 -87q6 -9 6 -18q0 -12 -9 -21t-24 -9h-8q-6 0 -15 5t-12 10l-43 70l-43 -70q-3 -5 -12 -10t-15 -5h-7q-15 0 -24 9t-9 22q0 10 6 19z" />
<glyph unicode="&#x2dc;" horiz-adv-x="333" d="M107 660q34 0 90 -35q14 -9 20 -9q11 0 18 22q6 18 24 18h16q11 0 18 -6.5t7 -17.5v-4q-5 -41 -27 -59.5t-48 -18.5q-27 0 -80 30l-10 5q-18 9 -21 9q-14 0 -18 -20t-24 -20h-15q-11 0 -18 7t-7 17v5q6 38 28 57.5t47 19.5z" />
<glyph unicode="&#x2000;" horiz-adv-x="454" />
<glyph unicode="&#x2001;" horiz-adv-x="908" />
<glyph unicode="&#x2002;" horiz-adv-x="454" />
<glyph unicode="&#x2003;" horiz-adv-x="908" />
<glyph unicode="&#x2004;" horiz-adv-x="302" />
<glyph unicode="&#x2005;" horiz-adv-x="227" />
<glyph unicode="&#x2006;" horiz-adv-x="151" />
<glyph unicode="&#x2007;" horiz-adv-x="151" />
<glyph unicode="&#x2008;" horiz-adv-x="113" />
<glyph unicode="&#x2009;" horiz-adv-x="181" />
<glyph unicode="&#x200a;" horiz-adv-x="50" />
<glyph unicode="&#x2010;" horiz-adv-x="373" d="M332 258v-38q0 -14 -9 -23t-23 -9h-227q-13 0 -22.5 9t-9.5 23v38q0 14 9.5 23t22.5 9h227q14 0 23 -9t9 -23z" />
<glyph unicode="&#x2011;" horiz-adv-x="373" d="M332 258v-38q0 -14 -9 -23t-23 -9h-227q-13 0 -22.5 9t-9.5 23v38q0 14 9.5 23t22.5 9h227q14 0 23 -9t9 -23z" />
<glyph unicode="&#x2013;" horiz-adv-x="485" d="M465 246v-19q0 -13 -9.5 -22.5t-22.5 -9.5h-381q-14 0 -23 9.5t-9 22.5v19q0 14 9 23t23 9h381q13 0 22.5 -9t9.5 -23z" />
<glyph unicode="&#x2014;" horiz-adv-x="763" d="M743 246v-19q0 -13 -9.5 -22.5t-22.5 -9.5h-659q-14 0 -23 9.5t-9 22.5v19q0 14 9 23t23 9h659q13 0 22.5 -9t9.5 -23z" />
<glyph unicode="&#x2018;" horiz-adv-x="243" d="M161 707l15 -6q20 -8 20 -30q0 -7 -3 -13q-46 -107 -46 -209q0 -28 -17 -49.5t-43 -21.5t-43 21t-17 50q0 93 95 245q10 15 29 15q4 0 10 -2z" />
<glyph unicode="&#x2019;" horiz-adv-x="243" d="M81 359l-15 6q-20 8 -20 30q0 7 3 13q47 109 47 209q0 28 17 49.5t43 21.5t43 -21t17 -50q0 -95 -96 -245q-10 -15 -29 -15q-4 0 -10 2z" />
<glyph unicode="&#x201a;" horiz-adv-x="243" d="M81 -184l-15 6q-20 8 -20 30q0 7 3 13q47 109 47 209q0 28 17 49.5t43 21.5t43 -21t17 -50q0 -95 -96 -245q-10 -15 -29 -15q-4 0 -10 2z" />
<glyph unicode="&#x201c;" horiz-adv-x="441" d="M183 707l15 -6q20 -8 20 -30q0 -7 -3 -13q-46 -107 -46 -209q0 -28 -17 -49.5t-43 -21.5t-43 21t-17 50q0 93 95 245q10 15 29 15q4 0 10 -2zM359 707l15 -6q20 -8 20 -30q0 -7 -3 -13q-47 -109 -47 -209q0 -28 -17 -49.5t-43 -21.5t-43 21t-17 50q0 95 96 245 q10 15 29 15q4 0 10 -2z" />
<glyph unicode="&#x201d;" horiz-adv-x="441" d="M257 360l-15 6q-20 8 -20 30q0 7 3 13q46 107 46 209q0 28 17 49.5t43 21.5t43 -21t17 -50q0 -93 -95 -245q-10 -15 -29 -15q-4 0 -10 2zM81 360l-15 6q-20 8 -20 30q0 7 3 13q47 109 47 209q0 28 17 49.5t43 21.5t43 -21t17 -50q0 -95 -96 -245q-10 -15 -29 -15 q-4 0 -10 2z" />
<glyph unicode="&#x201e;" horiz-adv-x="441" d="M257 -184l-15 6q-20 8 -20 30q0 7 3 13q46 107 46 209q0 28 17 49.5t43 21.5t43 -21t17 -50q0 -93 -95 -245q-10 -15 -29 -15q-4 0 -10 2zM81 -184l-15 6q-20 8 -20 30q0 7 3 13q47 109 47 209q0 28 17 49.5t43 21.5t43 -21t17 -50q0 -95 -96 -245q-10 -15 -29 -15 q-4 0 -10 2z" />
<glyph unicode="&#x2022;" horiz-adv-x="388" d="M193 490q62 0 105.5 -44t43.5 -107t-43.5 -107.5t-105.5 -44.5q-61 0 -104 44.5t-43 107.5t43 107t104 44z" />
<glyph unicode="&#x2026;" horiz-adv-x="863" d="M204 70q0 -35 -18.5 -56.5t-49.5 -21.5q-30 0 -48.5 21.5t-18.5 56.5t18.5 56.5t48.5 21.5q31 0 49.5 -21.5t18.5 -56.5zM500 70q0 -35 -18.5 -56.5t-49.5 -21.5t-49.5 21.5t-18.5 56.5t18.5 56.5t49.5 21.5t49.5 -21.5t18.5 -56.5zM796 70q0 -35 -18.5 -56.5 t-49.5 -21.5t-49.5 21.5t-18.5 56.5t18.5 56.5t49.5 21.5t49.5 -21.5t18.5 -56.5z" />
<glyph unicode="&#x202f;" horiz-adv-x="181" />
<glyph unicode="&#x2039;" horiz-adv-x="291" d="M218 0h-45q-7 0 -16 5t-12 11l-119 205q-3 6 -3 16t3 16l119 205q3 6 12 11t16 5h44q15 0 24 -9t9 -21q0 -8 -5 -18l-109 -189l110 -189q5 -10 5 -18q0 -12 -9 -21t-24 -9z" />
<glyph unicode="&#x203a;" horiz-adv-x="291" d="M117 0h-44q-15 0 -24 9t-9 21q0 8 5 18l109 189l-110 189q-5 10 -5 18q0 12 9 21t24 9h45q7 0 16 -5t12 -11l119 -205q3 -6 3 -16t-3 -16l-119 -205q-3 -6 -12 -11t-16 -5z" />
<glyph unicode="&#x205f;" horiz-adv-x="227" />
<glyph unicode="&#x20ac;" horiz-adv-x="495" d="M460 96l13 -46q1 -2 1 -8q0 -21 -19 -29q-47 -21 -97 -21q-231 0 -265 241h-30q-12 0 -21 8.5t-9 21.5v8q0 12 9 21t21 9h23q-2 32 -2 39t2 39h-23q-12 0 -21 8.5t-9 21.5v8q0 12 9 21t21 9h30q36 241 265 241q53 0 97 -19q19 -9 19 -29q0 -5 -1 -7l-11 -45 q-8 -28 -29 -28q-7 0 -14 3q-43 17 -73 17q-112 0 -134 -133h161q13 0 21.5 -9t8.5 -21v-8q0 -13 -8.5 -21.5t-21.5 -8.5h-168v-78h168q13 0 21.5 -9t8.5 -21v-8q0 -13 -8.5 -21.5t-21.5 -8.5h-160q9 -67 45 -100t88 -33q37 0 70 16q8 3 14 3q24 0 30 -23z" />
<glyph unicode="&#x2122;" horiz-adv-x="486" d="M195 660v-11q0 -8 -6 -14t-14 -6h-41v-210q0 -8 -6 -14t-14 -6h-19q-8 0 -14 6t-6 14v210h-41q-8 0 -14 6t-6 14v11q0 8 6 14t14 6h141q8 0 14 -6t6 -14zM376 566q0 -5 -34 -67q-6 -11 -17 -11t-17 11l-36 66l-2 -146q0 -8 -6 -14t-14 -6h-20q-8 0 -14 6t-6 14l7 242 q0 8 6 13.5t14 5.5h25q11 0 18 -11l45 -88l46 88q7 11 18 11h24q8 0 14 -5.5t6 -13.5l7 -242q0 -8 -6 -14t-14 -6h-20q-8 0 -14 6t-6 14z" />
</font>
</defs>
</svg>
