<?xml version="1.0" standalone="no"?>
<!DOCTYPE svg PUBLIC "-//W3C//DTD SVG 1.1//EN" "http://www.w3.org/Graphics/SVG/1.1/DTD/svg11.dtd" >
<svg xmlns="http://www.w3.org/2000/svg">
<metadata>
This is a custom SVG webfont generated by Fontspring.
Designer    : Nicholas Garner
Foundry     : Aviation Partners
Foundry URL : http://www.codesign.co.uk
</metadata>
<defs>
<font id="webfontVXxV1fXi" horiz-adv-x="559" >
<font-face units-per-em="1000" ascent="800" descent="-200" />
<missing-glyph horiz-adv-x="260" />
<glyph unicode=" "  horiz-adv-x="260" />
<glyph unicode="&#x09;" horiz-adv-x="260" />
<glyph unicode="&#xa0;" horiz-adv-x="260" />
<glyph unicode="!" horiz-adv-x="226" d="M156 29q0 -37 -43 -37t-43 37t43 37t43 -37zM140 665l-11 -481q0 -12 -12 -12h-9q-4 0 -8 4t-4 8q-10 403 -11 481q0 6 4.5 10.5t10.5 4.5h25q6 0 10.5 -4.5t4.5 -10.5z" />
<glyph unicode="&#x22;" horiz-adv-x="299" d="M78 680h27q15 0 15 -16q-8 -159 -10 -220q0 -6 -4.5 -10.5t-10.5 -4.5h-7q-15 0 -15 14l-10 221q0 16 15 16zM195 680h26q6 0 10.5 -4.5t4.5 -10.5q-2 -73 -8 -221q0 -6 -4.5 -10.5t-10.5 -4.5h-6q-15 0 -15 14l-12 221q0 16 15 16z" />
<glyph unicode="#" horiz-adv-x="582" d="M360 158l35 198h-172l-16.5 -94.5l-18.5 -103.5h172zM231 402h172l25 145q3 12 14 12l19 -3q12 -3 12 -14v-5l-23 -135h90q6 0 10.5 -4.5t4.5 -10.5v-16q0 -6 -4.5 -10.5t-10.5 -4.5h-98l-16.5 -94.5l-18.5 -103.5h90q6 0 10.5 -4.5t4.5 -10.5v-16q0 -6 -4.5 -10.5 t-10.5 -4.5h-99l-25 -145q-2 -13 -15 -13q-1 0 -19 3q-11 2 -11 16l24 139h-172l-25 -145q-2 -13 -15 -13q-1 0 -19 3q-11 3 -11 15l24 140h-90q-6 0 -10.5 4.5t-4.5 10.5v16q0 6 4.5 10.5t10.5 4.5h98l16.5 94.5l18.5 103.5h-90q-6 0 -10.5 4.5t-4.5 10.5v16q0 6 4.5 10.5 t10.5 4.5h98l25 145q3 12 14 12l19 -3q12 -3 12 -14v-5z" />
<glyph unicode="$" horiz-adv-x="542" d="M435 648l-7 -29q-3 -13 -15 -13q-4 0 -6 1q-67 28 -127 28q-68 0 -111.5 -29.5t-43.5 -80.5q0 -22 10.5 -40.5t37.5 -37.5t46.5 -30l64.5 -35q42 -22 61.5 -33t51.5 -33t46.5 -40.5t26.5 -46t12 -58.5q0 -72 -51 -118.5t-133 -58.5v-78q0 -6 -4.5 -10.5t-10.5 -4.5h-24 q-6 0 -10.5 4.5t-4.5 10.5v77q-89 2 -172 42q-9 5 -9 15l6 27q2 11 14 11q2 0 8 -2q75 -40 166 -40q78 0 122 33.5t44 88.5q0 26 -14 49.5t-42.5 44.5t-51.5 35t-60 33l-65 34.5t-50.5 31.5t-40.5 36t-22 40t-9 51q0 67 49 111t127 52v79q0 6 4.5 10.5t10.5 4.5h24 q6 0 10.5 -4.5t4.5 -10.5v-77q78 -5 128 -28q9 -4 9 -12z" />
<glyph unicode="%" horiz-adv-x="858" d="M635 657l-374 -649q-4 -8 -13 -8h-16q-15 0 -15 14q0 5 2 8l374 650q3 7 13 7h16q15 0 15 -14q0 -2 -2 -8zM190 688q69 0 115 -61.5t46 -148.5t-47 -147.5t-114 -60.5t-113.5 60t-46.5 149q0 87 45.5 148t114.5 61zM190 311q47 0 80 49t33 119t-32.5 119t-80.5 49 q-47 0 -79.5 -49t-32.5 -119t32.5 -119t79.5 -49zM667 410q69 0 115 -61t46 -148q0 -89 -47 -149t-114 -60t-113.5 60t-46.5 149q0 87 45.5 148t114.5 61zM667 33q47 0 80 49t33 119t-32.5 119t-80.5 49q-47 0 -79.5 -49t-32.5 -119t32.5 -119t79.5 -49z" />
<glyph unicode="&#x26;" horiz-adv-x="737" d="M570 135l119 -109q5 -4 5 -11q0 -15 -15 -15h-25q-15 0 -26 11l-95 88q-66 -58 -124.5 -83t-124.5 -25q-102 0 -168 43.5t-66 119.5q0 61 50 111.5t139 100.5v5q-52 47 -82 89t-30 87q0 65 52 103t127 38q74 0 126.5 -39.5t52.5 -101.5q0 -50 -43 -99.5t-114 -86.5v-4 l206 -189q71 76 127 169q5 7 14 7l21 -5q13 -2 13 -15q0 -5 -2 -8q-68 -110 -137 -181zM496 133l-219 201q-83 -50 -128 -93t-45 -85q0 -48 53.5 -80.5t124.5 -32.5q59 0 107.5 20.5t106.5 69.5zM290 397q67 38 104 78t37 72q0 40 -36 65t-90 25q-51 0 -87.5 -25.5 t-36.5 -64.5q0 -48 109 -150z" />
<glyph unicode="'" horiz-adv-x="185" d="M79 680h28q15 0 15 -16l-11 -220q0 -6 -4.5 -10.5t-10.5 -4.5h-7q-15 0 -15 14q-4 79 -10 222q0 15 15 15z" />
<glyph unicode="(" horiz-adv-x="283" d="M220 680h12q15 0 15 -15q0 -2 -2 -8q-62 -107 -91.5 -196t-29.5 -224t29.5 -224t91.5 -196q2 -6 2 -8q0 -15 -15 -15h-12q-8 0 -12 6q-133 180 -133 437q0 254 133 437q4 6 12 6z" />
<glyph unicode=")" horiz-adv-x="283" d="M51 680h12q8 0 12 -6q133 -183 133 -437q0 -257 -133 -437q-4 -6 -12 -6h-12q-15 0 -15 15q0 5 2 8q62 107 91.5 196t29.5 224t-29.5 224t-91.5 196q-2 3 -2 8q0 15 15 15z" />
<glyph unicode="*" horiz-adv-x="479" d="M438 452q11 -3 11 -15q0 -4 -1 -6l-13 -30q-3 -9 -13 -9q-5 0 -8 2l-136 77l-9 -9l77 -136q2 -3 2 -8q0 -10 -9 -13l-30 -13q-2 -1 -6 -1q-11 0 -14 11l-42 151h-12l-42 -151q-3 -11 -15 -11q-4 0 -6 1l-30 13q-9 3 -9 13q0 5 2 8l79 136l-10 9l-136 -77q-3 -2 -8 -2 q-10 0 -14 9l-13 30q-1 2 -1 6q0 12 11 15l152 42v11q-137 39 -152 43q-11 3 -11 14q0 4 1 6l13 30q3 9 13 9q5 0 8 -2l136 -78l11 10q-67 113 -79 136q-2 4 -2 7q0 10 9 14l30 13q2 1 6 1q11 0 14 -11l43 -151h13l39 151q3 11 15 11q4 0 6 -1l31 -13q9 -3 9 -13q0 -5 -2 -8 l-77 -136l10 -10l135 78q6 2 8 2q10 0 13 -9l13 -30q1 -2 1 -6q0 -11 -11 -14l-151 -43v-12z" />
<glyph unicode="+" horiz-adv-x="584" d="M529 245v-16q0 -6 -4.5 -10.5t-10.5 -4.5h-199v-199q0 -6 -4.5 -10.5t-10.5 -4.5h-16q-6 0 -10.5 4.5t-4.5 10.5v199h-199q-6 0 -10.5 4.5t-4.5 10.5v16q0 6 4.5 10.5t10.5 4.5h199v199q0 6 4.5 10.5t10.5 4.5h16q6 0 10.5 -4.5t4.5 -10.5v-199h199q6 0 10.5 -4.5 t4.5 -10.5z" />
<glyph unicode="," horiz-adv-x="191" d="M41 -171l-12 7q-7 5 -7 12q0 3 2 7q53 93 53 178q0 15 11 24t26 9t26 -9t11 -24q0 -71 -91 -200q-4 -6 -12 -6q-3 0 -7 2z" />
<glyph unicode="-" horiz-adv-x="395" d="M345 243v-23q0 -6 -4.5 -10.5t-10.5 -4.5h-265q-6 0 -10.5 4.5t-4.5 10.5v23q0 6 4.5 10.5t10.5 4.5h265q6 0 10.5 -4.5t4.5 -10.5z" />
<glyph unicode="." horiz-adv-x="196" d="M156 29q0 -37 -43 -37t-43 37t43 37t43 -37z" />
<glyph unicode="/" horiz-adv-x="336" d="M275 679h21q15 0 15 -15q0 -3 -1 -5l-235 -723q-3 -10 -14 -10h-21q-15 0 -15 15q0 3 1 5l235 723q4 10 14 10z" />
<glyph unicode="0" horiz-adv-x="600" d="M300 688q116 0 190.5 -101.5t74.5 -246.5q0 -147 -77 -248t-188 -101t-188 101t-77 248q0 145 74.5 246.5t190.5 101.5zM300 44q85 0 145.5 86t60.5 210q0 123 -60 209t-146 86t-146 -86t-60 -209q0 -124 60.5 -210t145.5 -86z" />
<glyph unicode="1" horiz-adv-x="600" d="M353 52h184q6 0 10.5 -4.5t4.5 -10.5v-22q0 -6 -4.5 -10.5t-10.5 -4.5h-426q-6 0 -10.5 4.5t-4.5 10.5v22q0 6 4.5 10.5t10.5 4.5h183v566l-186 -115q-3 -2 -9 -2q-10 0 -13 10l-6 20q0 1 -0.5 2t-0.5 2q0 11 8 14l208 123q15 8 27 8h16q6 0 10.5 -4.5t4.5 -10.5v-613z " />
<glyph unicode="2" horiz-adv-x="600" d="M76 45l217 190q177 157 177 249q0 70 -46.5 110.5t-125.5 40.5q-75 0 -180 -70q-4 -3 -9 -3q-10 0 -13 11l-8 28v2q0 8 7 13q112 72 203 72q104 0 167 -56.5t63 -147.5q0 -50 -49.5 -126.5t-148.5 -161.5l-167 -144h350q6 0 10.5 -4.5t4.5 -10.5v-22q0 -6 -4.5 -10.5 t-10.5 -4.5h-427q-6 0 -10.5 4.5t-4.5 10.5v19q0 6 5 11z" />
<glyph unicode="3" horiz-adv-x="600" d="M395 358v-5q71 -15 109.5 -60t38.5 -106q0 -90 -66.5 -142.5t-179.5 -52.5q-98 0 -230 64q-8 6 -8 13v2q0 1 4 17l4 10q3 10 14 10q3 0 7 -2q124 -61 209 -61q87 0 137 36.5t50 105.5q0 20 -4.5 36t-19.5 34.5t-40.5 31.5t-72 22t-109.5 10q-6 0 -10.5 4.5t-4.5 10.5v23 q0 6 4.5 10.5t10.5 4.5q107 4 167 47.5t60 98.5q0 52 -43 83.5t-114 31.5q-81 0 -199 -53q-2 -1 -6 -1q-11 0 -14 11l-6 23q0 1 -0.5 2t-0.5 2q0 11 9 14q131 55 217 55q95 0 155.5 -47.5t60.5 -120.5q0 -47 -34.5 -94t-94.5 -68z" />
<glyph unicode="4" horiz-adv-x="600" d="M472 237h66q6 0 10.5 -4.5t4.5 -10.5v-22q0 -6 -4.5 -10.5t-10.5 -4.5h-66v-170q0 -6 -4.5 -10.5t-10.5 -4.5h-24q-6 0 -10.5 4.5t-4.5 10.5v170h-357q-6 0 -10.5 4.5t-4.5 10.5v20q0 20 11 33l356 422q5 5 11 5h33q6 0 10.5 -4.5t4.5 -10.5v-428zM423 609h-9l-9 -11 l-108 -137l-180 -219v-7q40 2 78 2h223v223q0 86 5 149z" />
<glyph unicode="5" horiz-adv-x="600" d="M83 27l6 20q5 15 15 15h4q76 -17 143 -17q87 0 148.5 51t61.5 123q0 79 -55 126.5t-155 47.5q-62 0 -116 -9q-18 0 -18 15l27 267q2 14 15 14h322q6 0 10.5 -4.5t4.5 -10.5v-21q0 -6 -4.5 -10.5t-10.5 -4.5h-287q-2 -21 -19 -187q40 4 76 4q125 0 197 -63.5t72 -163.5 q0 -93 -79 -160t-190 -67q-74 0 -156 18q-13 4 -13 13q0 1 0.5 2t0.5 2z" />
<glyph unicode="6" horiz-adv-x="600" d="M569 219q0 -101 -76 -164t-193 -63q-118 0 -193.5 63t-75.5 164q0 235 309 449q18 12 36 12h27q15 0 15 -15q0 -9 -7 -13q-165 -107 -265 -243l2 -3q70 42 152 42q117 0 193 -63.5t76 -165.5zM510 219q0 80 -57 127t-153 47q-108 0 -159 -46t-51 -128q0 -80 57 -127 t153 -47t153 47t57 127z" />
<glyph unicode="7" horiz-adv-x="600" d="M85 680h480q6 0 10.5 -4.5t4.5 -10.5v-15q0 -14 -8 -28l-346 -614q-4 -8 -13 -8h-32q-15 0 -15 14q0 5 2 8l346 606h-392v-138q0 -6 -4.5 -10.5t-10.5 -4.5h-22q-6 0 -10.5 4.5t-4.5 10.5v175q0 6 4.5 10.5t10.5 4.5z" />
<glyph unicode="8" horiz-adv-x="600" d="M547 176q0 -80 -69 -132t-178 -52t-178 52t-69 132q0 130 173 184v4q-66 20 -108 60t-42 96q0 72 64.5 120t159.5 48t159.5 -48t64.5 -120q0 -56 -42 -96t-108 -60v-4q173 -54 173 -184zM488 176q0 58 -55 100t-133 55q-78 -13 -133 -55t-55 -100q0 -59 52.5 -95 t135.5 -36t135.5 36t52.5 95zM300 390q76 13 120.5 48.5t44.5 81.5q0 57 -50 86t-115 29t-115 -29t-50 -86q0 -46 44.5 -81.5t120.5 -48.5z" />
<glyph unicode="9" horiz-adv-x="600" d="M31 461q0 101 76 164t193 63q118 0 193.5 -63t75.5 -164q0 -235 -309 -449q-18 -12 -36 -12h-27q-15 0 -15 15q0 9 7 13q165 107 265 243l-2 3q-70 -42 -152 -42q-117 0 -193 63.5t-76 165.5zM90 461q0 -80 57 -127t153 -47q108 0 159 46t51 128q0 80 -57 127t-153 47 t-153 -47t-57 -127z" />
<glyph unicode=":" horiz-adv-x="196" d="M156 370q0 -37 -43 -37t-43 37t43 37t43 -37zM156 29q0 -37 -43 -37t-43 37t43 37t43 -37z" />
<glyph unicode=";" horiz-adv-x="196" d="M156 370q0 -37 -43 -37t-43 37t43 37t43 -37zM41 -172l-12 7q-7 5 -7 12q0 3 2 7q53 93 53 178q0 15 11 24t26 9t26 -9t11 -24q0 -71 -91 -200q-4 -6 -12 -6q-3 0 -7 2z" />
<glyph unicode="&#x3c;" horiz-adv-x="585" d="M113 235q95 -40 397 -187l6 -3q8 -5 8 -13q0 -3 -2 -7l-7 -14q-5 -8 -13 -8q-4 0 -6 1l-431 207q-9 5 -9 14v23q0 10 9 14l431 205q2 1 6 1q8 0 13 -8l7 -14q2 -4 2 -7q0 -8 -8 -13z" />
<glyph unicode="=" horiz-adv-x="584" d="M70 359h444q6 0 10.5 -4.5t4.5 -10.5v-16q0 -6 -4.5 -10.5t-10.5 -4.5h-444q-6 0 -10.5 4.5t-4.5 10.5v16q0 6 4.5 10.5t10.5 4.5zM70 161h444q6 0 10.5 -4.5t4.5 -10.5v-16q0 -6 -4.5 -10.5t-10.5 -4.5h-444q-6 0 -10.5 4.5t-4.5 10.5v16q0 6 4.5 10.5t10.5 4.5z" />
<glyph unicode="&#x3e;" horiz-adv-x="585" d="M467 235l-403 191q-8 5 -8 13q0 3 2 7l7 14q5 8 13 8q4 0 6 -1l431 -205q9 -4 9 -14v-23q0 -9 -9 -14l-431 -207q-2 -1 -6 -1q-8 0 -13 8l-7 14q-2 4 -2 7q0 8 8 13l6 3q302 147 397 187z" />
<glyph unicode="?" horiz-adv-x="427" d="M377 546q0 -42 -26.5 -83t-79.5 -95q-40 -40 -58.5 -81.5t-19.5 -99.5q0 -6 -4.5 -10.5t-10.5 -4.5h-13q-10 0 -14 10q-2 6 -2 14q0 119 72 190q54 51 78 85.5t24 71.5q0 45 -38.5 70.5t-106.5 25.5q-64 0 -108 -24q-6 -2 -8 -2q-12 0 -14 13l-5 19q0 11 9 16 q57 27 138 27q91 0 139 -41.5t48 -100.5zM176 66q20 0 31.5 -10t11.5 -27t-11.5 -27t-31.5 -10t-31.5 10t-11.5 27t11.5 27t31.5 10z" />
<glyph unicode="@" horiz-adv-x="779" d="M509 -77l3 -15q0 -14 -10 -17q-48 -18 -116 -18q-155 0 -248.5 103t-93.5 260t95.5 261t247.5 104q148 0 246 -94.5t98 -236.5q0 -108 -49 -165.5t-114 -57.5q-37 0 -63.5 24.5t-28.5 67.5h-6q-43 -92 -131 -92q-50 0 -81 36t-31 102q0 111 57 176.5t126 65.5 q63 0 127 -44q6 -6 6 -13q-24 -135 -24 -184q0 -92 58 -92q14 0 28.5 5.5t33.5 20.5t31 53t12 93q0 126 -83.5 207t-211.5 81q-132 0 -213 -89t-81 -229q0 -139 80.5 -228t213.5 -89q55 0 102 15q2 1 5 1q12 0 15 -12zM489 351q-40 29 -81 29q-46 0 -89 -51.5t-43 -137.5 q0 -45 22.5 -71t55.5 -26q57 0 94.5 82t40.5 175z" />
<glyph unicode="A" horiz-adv-x="706" d="M622 9l-80 176h-381l-79 -176q-4 -9 -14 -9h-29q-16 0 -16 14q0 3 2 7l298 650q5 9 14 9h29q10 0 14 -9l300 -650q2 -4 2 -7q0 -14 -16 -14h-30q-10 0 -14 9zM356 615h-7q-11 -32 -51.5 -126.5l-75.5 -172.5l-35 -79h332q-142 304 -163 378z" />
<glyph unicode="B" horiz-adv-x="638" d="M422 364v-4q68 -17 119.5 -61t51.5 -113q0 -40 -14.5 -72.5t-47.5 -61t-96 -44.5t-150 -16q-128 0 -181 5q-14 2 -14 15v655q0 13 14 15q64 6 150 6q82 0 140 -16t85.5 -43t38.5 -54t11 -58q0 -48 -28 -90t-79 -63zM143 632v-251h155q73 0 123.5 37.5t50.5 89.5 q0 129 -204 129q-65 0 -125 -5zM536 194q0 58 -59 96.5t-156 38.5h-178v-281q55 -5 157 -5q69 0 117.5 13.5t73 36.5t35 47.5t10.5 53.5z" />
<glyph unicode="C" horiz-adv-x="688" d="M655 634l-5 -23q-4 -14 -15 -14q-4 0 -7 1q-93 38 -190 38q-140 0 -234.5 -85.5t-94.5 -210.5t94.5 -210.5t234.5 -85.5q99 0 190 38q2 1 6 1q11 0 14 -11l6 -22v-2l1 -2q0 -11 -10 -14q-102 -40 -207 -40q-167 0 -277.5 99.5t-110.5 248.5t110.5 248.5t277.5 99.5 q105 0 207 -40q10 -4 10 -14z" />
<glyph unicode="D" horiz-adv-x="777" d="M727 340q0 -70 -26 -131t-78.5 -110.5t-140 -78t-201.5 -28.5q-109 0 -177 6q-14 2 -14 15v655q0 13 14 15q57 5 177 5q114 0 201.5 -28.5t140 -78t78.5 -110.5t26 -131zM144 633v-586q50 -4 146 -4q175 0 276.5 77t101.5 220t-101.5 220t-276.5 77q-95 0 -146 -4z" />
<glyph unicode="E" horiz-adv-x="543" d="M491 665v-21q0 -6 -4.5 -10.5t-10.5 -4.5h-332v-249h295q6 0 10.5 -4.5t4.5 -10.5v-21q0 -6 -4.5 -10.5t-10.5 -4.5h-295v-278h339q6 0 10.5 -4.5t4.5 -10.5v-21q0 -6 -4.5 -10.5t-10.5 -4.5h-378q-6 0 -10.5 4.5t-4.5 10.5v650q0 6 4.5 10.5t10.5 4.5h371q6 0 10.5 -4.5 t4.5 -10.5z" />
<glyph unicode="F" horiz-adv-x="514" d="M479 665v-21q0 -6 -4.5 -10.5t-10.5 -4.5h-320v-249h290q6 0 10.5 -4.5t4.5 -10.5v-21q0 -6 -4.5 -10.5t-10.5 -4.5h-290v-314q0 -6 -4.5 -10.5t-10.5 -4.5h-24q-6 0 -10.5 4.5t-4.5 10.5v650q0 6 4.5 10.5t10.5 4.5h359q6 0 10.5 -4.5t4.5 -10.5z" />
<glyph unicode="G" horiz-adv-x="782" d="M655 635l-5 -23q-4 -15 -15 -15q-4 0 -7 1q-93 38 -190 38q-140 0 -234.5 -85.5t-94.5 -210.5t94 -210t235 -85q107 0 200 21v234h-154q-6 0 -10.5 4.5t-4.5 10.5v22q0 6 4.5 10.5t10.5 4.5h193q6 0 10.5 -4.5t4.5 -10.5v-301q0 -10 -11 -14q-40 -12 -117.5 -21 t-125.5 -9q-167 0 -277.5 99.5t-110.5 248.5t110.5 248.5t277.5 99.5q105 0 207 -40q10 -4 10 -13z" />
<glyph unicode="H" horiz-adv-x="757" d="M667 665v-650q0 -6 -4.5 -10.5t-10.5 -4.5h-24q-6 0 -10.5 4.5t-4.5 10.5v310h-469v-310q0 -6 -4.5 -10.5t-10.5 -4.5h-24q-6 0 -10.5 4.5t-4.5 10.5v650q0 6 4.5 10.5t10.5 4.5h24q6 0 10.5 -4.5t4.5 -10.5v-288h469v288q0 6 4.5 10.5t10.5 4.5h24q6 0 10.5 -4.5 t4.5 -10.5z" />
<glyph unicode="I" horiz-adv-x="456" d="M381 630h-126v-580h126q6 0 10.5 -4.5t4.5 -10.5v-20q0 -6 -4.5 -10.5t-10.5 -4.5h-306q-6 0 -10.5 4.5t-4.5 10.5v20q0 6 4.5 10.5t10.5 4.5h126v580h-126q-6 0 -10.5 4.5t-4.5 10.5v20q0 6 4.5 10.5t10.5 4.5h306q6 0 10.5 -4.5t4.5 -10.5v-20q0 -6 -4.5 -10.5 t-10.5 -4.5z" />
<glyph unicode="J" horiz-adv-x="446" d="M42 35l6 21q4 15 14 15q5 0 8 -2q42 -24 105 -24q57 0 92 34.5t35 93.5v457h-189q-6 0 -10.5 4.5t-4.5 10.5v20q0 6 4.5 10.5t10.5 4.5h228q6 0 10.5 -4.5t4.5 -10.5v-491q0 -84 -49.5 -133t-130.5 -49q-64 0 -126 30q-8 6 -8 13z" />
<glyph unicode="K" horiz-adv-x="627" d="M598 26q5 -4 5 -11q0 -15 -15 -15h-21q-21 0 -35 14l-384 353h-4v-352q0 -6 -4.5 -10.5t-10.5 -4.5h-24q-6 0 -10.5 4.5t-4.5 10.5v650q0 6 4.5 10.5t10.5 4.5h24q6 0 10.5 -4.5t4.5 -10.5l3 -275l310 275q16 15 39 15h19q16 0 16 -14q0 -6 -6 -12l-315 -275z" />
<glyph unicode="L" horiz-adv-x="524" d="M144 665v-613h345q6 0 10.5 -4.5t4.5 -10.5v-22q0 -6 -4.5 -10.5t-10.5 -4.5h-384q-6 0 -10.5 4.5t-4.5 10.5v650q0 6 4.5 10.5t10.5 4.5h24q6 0 10.5 -4.5t4.5 -10.5z" />
<glyph unicode="M" horiz-adv-x="910" d="M751 617h-4l-280 -365q-5 -6 -12 -6q-8 0 -12 6l-280 365h-4q-4 -273 -19 -603q0 -14 -15 -14h-25q-15 0 -15 16l26 650q0 14 15 14h46q8 0 12 -6l271 -348l271 348q6 6 12 6h46q15 0 15 -14l26 -650q0 -16 -15 -16h-25q-15 0 -15 14q-15 330 -19 603z" />
<glyph unicode="N" horiz-adv-x="782" d="M637 61h4q-3 75 -3 112v492q0 6 4.5 10.5t10.5 4.5h24q6 0 10.5 -4.5t4.5 -10.5v-650q0 -6 -4.5 -10.5t-10.5 -4.5h-51q-8 0 -12 6l-468 611h-3q1 -25 1 -111v-491q0 -6 -4.5 -10.5t-10.5 -4.5h-24q-6 0 -10.5 4.5t-4.5 10.5v650q0 6 4.5 10.5t10.5 4.5h51q8 0 12 -6z " />
<glyph unicode="O" horiz-adv-x="853" d="M426 45q142 0 230 82.5t88 211.5q0 130 -88 213t-230 83q-141 0 -229 -83t-88 -213q0 -129 88 -211.5t229 -82.5zM426 688q168 0 272.5 -100t104.5 -249t-104 -248t-273 -99t-272.5 99t-103.5 248t104.5 249t271.5 100z" />
<glyph unicode="P" horiz-adv-x="586" d="M255 688q83 0 142.5 -19t90.5 -51.5t44.5 -68.5t13.5 -78q0 -99 -73 -151.5t-181 -52.5h-148v-252q0 -6 -4.5 -10.5t-10.5 -4.5h-24q-6 0 -10.5 4.5t-4.5 10.5v653q0 13 14 15q53 5 151 5zM299 318q85 0 137.5 42.5t52.5 112.5q0 69 -52 116.5t-168 47.5q-65 0 -125 -5 v-314h155z" />
<glyph unicode="Q" horiz-adv-x="853" d="M469 -6q46 -67 237 -73q15 0 15 -14q0 -1 -0.5 -2.5t-0.5 -2.5l-7 -23q-4 -11 -14 -11q-126 2 -200 38.5t-98 87.5q-162 8 -256.5 105.5t-94.5 239.5q0 149 104 249t272 100t272.5 -100t104.5 -249q0 -136 -92.5 -234t-241.5 -111zM744 339q0 130 -89 213t-229 83 q-141 0 -229 -83t-88 -213t88 -212t229 -82t229.5 82.5t88.5 211.5z" />
<glyph unicode="R" horiz-adv-x="624" d="M535 128l70 -105q3 -4 3 -9q0 -14 -16 -14h-32q-8 0 -13 7l-68 111q-47 76 -106.5 127t-112.5 51h-116v-281q0 -6 -4.5 -10.5t-10.5 -4.5h-24q-6 0 -10.5 4.5t-4.5 10.5v652q0 13 14 15q64 6 151 6q66 0 116.5 -14.5t79 -36t46.5 -50.5t24 -53.5t6 -49.5 q0 -63 -49.5 -108t-111.5 -65v-5q76 -36 169 -178zM144 346h119q96 0 151.5 39.5t55.5 101.5q0 25 -10 49.5t-31.5 48t-63 38t-96.5 14.5q-65 0 -125 -5v-286z" />
<glyph unicode="S" horiz-adv-x="512" d="M414 646l-7 -29q-3 -13 -12 -13q-4 0 -9 3q-62 28 -126 28q-68 0 -111.5 -29.5t-43.5 -80.5q0 -22 10.5 -40.5t37.5 -37.5t46.5 -30l64.5 -35l60.5 -32.5t52 -33t46.5 -40.5t27 -46.5t12 -58.5q0 -82 -64 -130.5t-153 -48.5q-107 0 -195 43q-9 4 -9 14q0 1 1 3l7 25 q3 11 14 11q2 0 8 -2q76 -40 166 -40q78 0 122 33.5t44 88.5q0 48 -46.5 86.5t-121.5 75.5q-101 49 -144 88.5t-43 104.5q0 77 61.5 121t153.5 44q78 0 142 -28q9 -4 9 -14z" />
<glyph unicode="T" horiz-adv-x="594" d="M579 665v-22q0 -6 -4.5 -10.5t-10.5 -4.5h-238v-613q0 -6 -4.5 -10.5t-10.5 -4.5h-24q-6 0 -10.5 4.5t-4.5 10.5v613h-242q-6 0 -10.5 4.5t-4.5 10.5v22q0 6 4.5 10.5t10.5 4.5h534q6 0 10.5 -4.5t4.5 -10.5z" />
<glyph unicode="U" horiz-adv-x="780" d="M651 680h24q6 0 10.5 -4.5t4.5 -10.5v-425q0 -102 -88 -175t-211 -73q-124 0 -212.5 73t-88.5 175v425q0 6 4.5 10.5t10.5 4.5h24q6 0 10.5 -4.5t4.5 -10.5v-425q0 -80 72.5 -137t174.5 -57t173.5 57t71.5 137v425q0 6 4.5 10.5t10.5 4.5z" />
<glyph unicode="V" horiz-adv-x="694" d="M344 81h6l257 590q5 9 14 9h29q16 0 16 -14q0 -3 -2 -7l-289 -650q-5 -9 -14 -9h-28q-9 0 -14 9l-289 650q-2 4 -2 7q0 14 16 14h29q9 0 14 -9q232 -528 257 -590z" />
<glyph unicode="W" horiz-adv-x="1092" d="M262 81h8q21 61 116.5 282l135.5 308q4 9 14 9h20q10 0 14 -9l135.5 -308t116.5 -282h8q48 176 178 588q4 11 14 11h30q15 0 15 -15q0 -3 -1 -5l-206 -650q-3 -10 -14 -10h-29q-9 0 -14 9l-141.5 323t-112.5 276h-6q-17 -54 -112.5 -276l-141.5 -323q-5 -9 -14 -9h-29 q-10 0 -14 11l-206 649q-1 2 -1 5q0 15 15 15h30q10 0 14 -11q130 -412 178 -588z" />
<glyph unicode="X" horiz-adv-x="726" d="M396 359l302 -334q4 -4 4 -11q0 -14 -15 -14h-33q-6 0 -11 5l-277 306h-6l-277 -306q-5 -5 -11 -5h-33q-15 0 -15 14q0 7 4 11l302 334l-268 296q-4 4 -4 11q0 14 15 14h32q6 0 11 -5l244 -269h5l120 132l125 137q5 5 11 5h32q15 0 15 -14q0 -7 -4 -11z" />
<glyph unicode="Y" horiz-adv-x="613" d="M304 359h6q11 20 44 70l63.5 93l68 96t39.5 56q4 6 12 6h28q15 0 15 -14q0 -6 -3 -10l-243 -351v-290q0 -6 -4.5 -10.5t-10.5 -4.5h-24q-6 0 -10.5 4.5t-4.5 10.5v291l-244 351q-3 4 -3 9q0 14 15 14h29q8 0 12 -6q1 -2 39.5 -56l68 -96.5l63 -92.5t44.5 -70z" />
<glyph unicode="Z" horiz-adv-x="663" d="M120 51h479q6 0 10.5 -4.5t4.5 -10.5v-21q0 -6 -4.5 -10.5t-10.5 -4.5h-533q-6 0 -10.5 4.5t-4.5 10.5v18q0 17 12 33l448 558v5h-436q-6 0 -10.5 4.5t-4.5 10.5v21q0 6 4.5 10.5t10.5 4.5h492q6 0 10.5 -4.5t4.5 -10.5v-18q0 -13 -12 -29l-450 -562v-5z" />
<glyph unicode="[" horiz-adv-x="238" d="M213 665v-18q0 -6 -4.5 -10.5t-10.5 -4.5h-71v-790h71q6 0 10.5 -4.5t4.5 -10.5v-18q0 -6 -4.5 -10.5t-10.5 -4.5h-108q-6 0 -10.5 4.5t-4.5 10.5v856q0 6 4.5 10.5t10.5 4.5h108q6 0 10.5 -4.5t4.5 -10.5z" />
<glyph unicode="\" horiz-adv-x="336" d="M40 680h21q10 0 14 -10l235 -724q1 -2 1 -5q0 -15 -15 -15h-21q-10 0 -14 10l-235 724q-1 2 -1 5q0 15 15 15z" />
<glyph unicode="]" horiz-adv-x="238" d="M25 647v18q0 6 4.5 10.5t10.5 4.5h108q6 0 10.5 -4.5t4.5 -10.5v-856q0 -6 -4.5 -10.5t-10.5 -4.5h-108q-6 0 -10.5 4.5t-4.5 10.5v18q0 6 4.5 10.5t10.5 4.5h71v790h-71q-6 0 -10.5 4.5t-4.5 10.5z" />
<glyph unicode="^" horiz-adv-x="533" d="M478 234h-20q-10 0 -14 9l-174 399h-5l-175 -399q-4 -9 -14 -9h-21q-16 0 -16 14q0 3 2 7l192 424q5 9 14 9h39q10 0 14 -9l192 -424q2 -4 2 -7q0 -14 -16 -14z" />
<glyph unicode="_" horiz-adv-x="543" d="M543 -99v-18q0 -6 -4.5 -10.5t-10.5 -4.5h-513q-6 0 -10.5 4.5t-4.5 10.5v18q0 6 4.5 10.5t10.5 4.5h513q6 0 10.5 -4.5t4.5 -10.5z" />
<glyph unicode="`" horiz-adv-x="300" d="M143 674l68 -94q3 -4 3 -10q0 -14 -15 -14h-10q-6 0 -11 5l-85 94q-4 4 -4 11q0 14 15 14h27q8 0 12 -6z" />
<glyph unicode="a" d="M445 61h-6q-68 -69 -169 -69q-100 0 -165 68.5t-65 176.5q0 107 68.5 176t168.5 69q85 0 166 -47l5 27q2 12 15 12h9q6 0 10.5 -4.5t4.5 -10.5v-278q0 -68 16 -164q0 -17 -15 -17h-16q-13 0 -15 12zM435 145v240q-67 46 -158 46q-80 0 -131.5 -53.5t-51.5 -140.5 t48.5 -140.5t127.5 -53.5q65 0 108 27t57 75z" />
<glyph unicode="b" d="M519 237q0 -107 -68.5 -176t-168.5 -69q-111 0 -198 20q-4 1 -8 5.5t-4 9.5v638q0 6 4.5 10.5t10.5 4.5h22q6 0 10.5 -4.5t4.5 -10.5v-247h4q31 31 74.5 47.5t79.5 16.5q101 0 169 -69t68 -176zM465 237q0 86 -51.5 140t-131.5 54q-97 0 -158 -72v-301q73 -15 158 -15 q80 0 131.5 53.5t51.5 140.5z" />
<glyph unicode="c" horiz-adv-x="472" d="M287 43q63 0 125 23q2 1 5 1q11 0 14 -11l7 -22v-2l1 -2q0 -11 -10 -14q-63 -24 -142 -24q-109 0 -178 68t-69 177t69 177t178 68q79 0 142 -24q10 -3 10 -14l-1 -2v-2l-6 -22q-3 -11 -14 -11q-3 0 -5 1q-63 23 -126 23q-85 0 -139 -51.5t-54 -142.5t54 -142.5t139 -51.5 z" />
<glyph unicode="d" d="M503 18q0 -18 -15 -18h-16q-13 0 -15 12l-12 49h-6q-69 -69 -169 -69t-165 68.5t-65 176.5q0 107 68.5 176t168.5 69q79 0 158 -42v225q0 6 4.5 10.5t10.5 4.5h22q6 0 10.5 -4.5t4.5 -10.5v-484q0 -70 16 -163zM435 145v240q-72 46 -158 46q-80 0 -131.5 -53.5 t-51.5 -140.5t48.5 -140.5t127.5 -53.5q65 0 108 27t57 75z" />
<glyph unicode="e" horiz-adv-x="536" d="M446 73q2 1 5 1q10 0 14 -11l7 -22q0 -1 0.5 -2t0.5 -2q0 -11 -10 -14q-83 -31 -176 -31q-108 0 -177.5 68.5t-69.5 176.5q0 109 68.5 177t176.5 68q95 0 153 -56.5t58 -147.5q0 -26 -1 -39q-2 -14 -15 -14h-386q4 -86 58.5 -134t134.5 -48q74 0 159 30zM98 273h344v10 q0 69 -43 108.5t-112 39.5q-75 0 -127 -40.5t-62 -117.5z" />
<glyph unicode="f" horiz-adv-x="320" d="M231 639q-92 0 -92 -82v-83h119q6 0 10.5 -4.5t4.5 -10.5v-18q0 -6 -4.5 -10.5t-10.5 -4.5h-119v-411q0 -6 -4.5 -10.5t-10.5 -4.5h-22q-6 0 -10.5 4.5t-4.5 10.5v411h-42q-6 0 -10.5 4.5t-4.5 10.5v18q0 6 4.5 10.5t10.5 4.5h42v84q0 65 37 97.5t101 32.5q65 0 132 -25 q10 -4 10 -16l-4 -18q-3 -13 -15 -13q-3 0 -5 1q-61 22 -112 22z" />
<glyph unicode="g" d="M460 474h12q6 0 10.5 -4.5t4.5 -10.5v-520q0 -74 -58.5 -113.5t-154.5 -39.5q-81 0 -179 29q-11 3 -11 14v4q5 18 6 20l-1 -6q0 1 1 3q0 15 14 15q3 0 5 -1q93 -28 157 -28q85 0 127 27.5t42 73.5v127h-6q-32 -27 -75.5 -42t-76.5 -15q-103 0 -170 62t-67 168 q0 107 68.5 176t168.5 69q27 0 44.5 -2t49 -12.5t69.5 -31.5q2 12 5 26q2 12 15 12zM435 125v260q-67 46 -158 46q-80 0 -131.5 -53.5t-51.5 -140.5q0 -85 50.5 -132t132.5 -47q98 0 158 67z" />
<glyph unicode="h" horiz-adv-x="546" d="M474 297v-282q0 -6 -4.5 -10.5t-10.5 -4.5h-22q-6 0 -10.5 4.5t-4.5 10.5v267q0 69 -33 109t-115 40q-89 0 -150 -72v-344q0 -6 -4.5 -10.5t-10.5 -4.5h-22q-6 0 -10.5 4.5t-4.5 10.5v650q0 6 4.5 10.5t10.5 4.5h22q6 0 10.5 -4.5t4.5 -10.5v-247q73 64 158 64 q96 0 144 -52t48 -133z" />
<glyph unicode="i" horiz-adv-x="196" d="M139 595q0 -15 -11 -24t-28 -9t-28 9t-11 24t11 24t28 9t28 -9t11 -24zM124 459v-444q0 -6 -4.5 -10.5t-10.5 -4.5h-22q-6 0 -10.5 4.5t-4.5 10.5v444q0 6 4.5 10.5t10.5 4.5h22q6 0 10.5 -4.5t4.5 -10.5z" />
<glyph unicode="j" horiz-adv-x="198" d="M99 628q17 0 28 -9t11 -24t-11 -24t-28 -9t-28 9t-11 24t11 24t28 9zM112 474q14 0 14 -14v-494q0 -67 -55.5 -122.5t-139.5 -55.5q-5 0 -11.5 5.5t-7.5 11.5l-3 12q0 1 -1 3q0 5 4.5 10t8.5 6q77 11 115 44.5t38 79.5v500q0 6 4.5 10t9.5 4h24z" />
<glyph unicode="k" horiz-adv-x="485" d="M454 26q5 -5 5 -11q0 -15 -15 -15h-24q-13 0 -27 11q-237 228 -263 263h-6v-259q0 -6 -4.5 -10.5t-10.5 -4.5h-22q-6 0 -10.5 4.5t-4.5 10.5v650q0 6 4.5 10.5t10.5 4.5h22q6 0 10.5 -4.5t4.5 -10.5v-363h4q14 14 230 162q15 10 30 10h17q15 0 15 -15q0 -7 -6 -12 l-229 -162z" />
<glyph unicode="l" horiz-adv-x="282" d="M275 38l3 -21q0 -11 -11 -15q-40 -10 -74 -10q-121 0 -121 125v548q0 6 4.5 10.5t10.5 4.5h22q6 0 10.5 -4.5t4.5 -10.5v-539q0 -43 17 -64t57 -21q20 0 58 10h4q13 0 15 -13z" />
<glyph unicode="m" horiz-adv-x="896" d="M824 298v-283q0 -6 -4.5 -10.5t-10.5 -4.5h-22q-6 0 -10.5 4.5t-4.5 10.5v268q0 69 -33 108.5t-115 39.5q-89 0 -150 -72v-344q0 -6 -4.5 -10.5t-10.5 -4.5h-22q-6 0 -10.5 4.5t-4.5 10.5v268q0 69 -33 108.5t-115 39.5q-89 0 -150 -72v-344q0 -6 -4.5 -10.5t-10.5 -4.5 h-22q-6 0 -10.5 4.5t-4.5 10.5v444q0 6 4.5 10.5t10.5 4.5h11q13 0 15 -13l6 -43h5q70 64 158 64q112 0 167 -74h6q93 74 177 74q96 0 144 -51.5t48 -132.5z" />
<glyph unicode="n" horiz-adv-x="546" d="M474 297v-282q0 -6 -4.5 -10.5t-10.5 -4.5h-22q-6 0 -10.5 4.5t-4.5 10.5v267q0 69 -33 109t-115 40q-89 0 -150 -72v-344q0 -6 -4.5 -10.5t-10.5 -4.5h-22q-6 0 -10.5 4.5t-4.5 10.5v444q0 6 4.5 10.5t10.5 4.5h11q13 0 15 -13l6 -43h6q33 31 76 47.5t81 16.5 q96 0 144 -52t48 -133z" />
<glyph unicode="o" horiz-adv-x="574" d="M287 482q108 0 177.5 -68.5t69.5 -176.5t-69.5 -176.5t-177.5 -68.5t-177.5 68.5t-69.5 176.5t69.5 176.5t177.5 68.5zM287 43q85 0 139 51.5t54 142.5t-54 142.5t-139 51.5t-139 -51.5t-54 -142.5t54 -142.5t139 -51.5z" />
<glyph unicode="p" d="M109 -206h-22q-6 0 -10.5 4.5t-4.5 10.5v650q0 6 4.5 10.5t10.5 4.5h11q13 0 15 -13l7 -41h6q36 30 79 46t77 16q101 0 169 -69t68 -176q0 -108 -69 -176.5t-173 -68.5q-80 0 -153 42v-225q0 -6 -4.5 -10.5t-10.5 -4.5zM124 359v-270q68 -46 158 -46q80 0 131.5 53.5 t51.5 140.5q0 86 -51.5 140t-131.5 54q-97 0 -158 -72z" />
<glyph unicode="q" horiz-adv-x="557" d="M40 237q0 107 68.5 176t168.5 69q111 0 198 -20q4 -1 8 -5.5t4 -9.5v-605h105q6 0 10.5 -4.5t4.5 -10.5v-18q0 -6 -4.5 -10.5t-10.5 -4.5h-142q-6 0 -10.5 4.5t-4.5 10.5v247h-4q-29 -31 -73.5 -47.5t-80.5 -16.5q-101 0 -169 69t-68 176zM94 237q0 -86 51.5 -140 t131.5 -54q97 0 158 72v301q-73 15 -158 15q-80 0 -131.5 -53.5t-51.5 -140.5z" />
<glyph unicode="r" horiz-adv-x="390" d="M371 466q11 -4 11 -14l-6 -24q-5 -14 -15 -14q-4 0 -6 1q-46 16 -81 16q-89 0 -150 -72v-344q0 -6 -4.5 -10.5t-10.5 -4.5h-22q-6 0 -10.5 4.5t-4.5 10.5v444q0 6 4.5 10.5t10.5 4.5h11q13 0 15 -13l6 -43h6q32 30 75.5 47t81.5 17q27 0 89 -16z" />
<glyph unicode="s" horiz-adv-x="409" d="M30 49l15 22q5 5 12 5q4 0 6 -1q71 -32 127 -32q54 0 89 21t35 64q0 27 -28.5 46.5t-91.5 45.5l-47.5 20.5t-39 20t-34.5 25.5t-19.5 30.5t-8.5 39.5q0 59 45.5 92.5t109.5 33.5q61 0 136 -31q9 -3 9 -14q0 -3 -2 -7l-10 -20q-5 -8 -13 -8q-4 0 -6 1q-64 28 -111 28 q-42 0 -72.5 -19.5t-30.5 -51.5q0 -18 19 -35.5t37.5 -26.5t60.5 -27q81 -35 116.5 -64t35.5 -76q0 -68 -48 -103.5t-121 -35.5q-82 0 -164 35q-9 5 -9 13q0 5 3 9z" />
<glyph unicode="t" horiz-adv-x="380" d="M364 50l2 -19q0 -10 -10 -14q-65 -25 -134 -25q-64 0 -99.5 31.5t-35.5 95.5v307h-42q-6 0 -10.5 4.5t-4.5 10.5v18q0 6 4.5 10.5t10.5 4.5h42v59q0 10 9 14l22 9q4 2 7 2q14 0 14 -16v-68h143q6 0 10.5 -4.5t4.5 -10.5v-18q0 -6 -4.5 -10.5t-10.5 -4.5h-143v-300 q0 -85 95 -85q48 0 110 21q2 1 6 1q12 0 14 -13z" />
<glyph unicode="u" horiz-adv-x="546" d="M72 177v282q0 6 4.5 10.5t10.5 4.5h22q6 0 10.5 -4.5t4.5 -10.5v-267q0 -69 33 -109t115 -40q89 0 150 72v344q0 6 4.5 10.5t10.5 4.5h22q6 0 10.5 -4.5t4.5 -10.5v-444q0 -6 -4.5 -10.5t-10.5 -4.5h-11q-13 0 -15 13l-6 43h-6q-31 -30 -75.5 -47t-81.5 -17 q-96 0 -144 52t-48 133z" />
<glyph unicode="v" horiz-adv-x="490" d="M427 474h22q16 0 16 -14q0 -3 -2 -7l-192 -444q-4 -9 -14 -9h-24q-10 0 -14 9l-192 444q-2 4 -2 7q0 14 16 14h22q10 0 14 -9q130 -293 165 -394h6q48 133 165 394q5 9 14 9z" />
<glyph unicode="w" horiz-adv-x="756" d="M582 0h-36q-10 0 -14 10q-117 304 -149 399h-8q-32 -95 -149 -399q-4 -10 -14 -10h-36q-10 0 -14 11l-137 444q-1 2 -1 5q0 14 15 14h25q10 0 14 -11q73 -234 115 -398h6q56 174 150 400q4 9 14 9h32q10 0 14 -9q44 -105 92 -236.5t58 -163.5h6q57 212 115 398 q4 11 14 11h25q15 0 15 -14q0 -3 -1 -5l-137 -444q-4 -11 -14 -11z" />
<glyph unicode="x" horiz-adv-x="534" d="M297 258l211 -233q4 -4 4 -11q0 -14 -15 -14h-26q-6 0 -11 5l-190 206h-6l-190 -206q-5 -5 -11 -5h-26q-15 0 -15 14q0 7 4 11l211 233l-172 191q-4 4 -4 11q0 14 15 14h28q6 0 11 -5l148 -165h8l148 165q5 5 11 5h28q15 0 15 -14q0 -7 -4 -11z" />
<glyph unicode="y" horiz-adv-x="488" d="M213 19l-188 434q-2 4 -2 7q0 14 16 14h22q10 0 14 -9q130 -293 165 -394h6q35 101 164 394q4 9 14 9h23q16 0 16 -14q0 -3 -2 -7l-227 -511q-24 -54 -78.5 -92.5t-123.5 -59.5q-2 -1 -5 -1q-11 0 -14 12l-5 20q0 10 11 14q122 34 166 125z" />
<glyph unicode="z" horiz-adv-x="481" d="M418 438l-297 -390h306q6 0 10.5 -4.5t4.5 -10.5v-18q0 -6 -4.5 -10.5t-10.5 -4.5h-371q-6 0 -10.5 4.5t-4.5 10.5v6q0 6 6 15l296 390h-277q-6 0 -10.5 4.5t-4.5 10.5v18q0 6 4.5 10.5t10.5 4.5h345q6 0 10.5 -4.5t4.5 -10.5v-4q0 -8 -8 -17z" />
<glyph unicode="{" horiz-adv-x="282" d="M244 -166q11 -4 11 -15q0 -7 -5 -15q-5 -7 -15 -7q-55 11 -88.5 49.5t-33.5 107.5q14 129 14 145q0 40 -24.5 72.5t-69.5 43.5q-11 4 -11 15v15q0 11 11 15q45 11 69.5 43.5t24.5 72.5q0 4 -14 145q0 134 124 157q8 0 13 -7q5 -8 5 -15q0 -11 -11 -15q-43 -11 -62 -39.5 t-19 -80.5q0 -22 7 -66t7 -68q0 -112 -101 -147v-5q101 -36 101 -147q0 -22 -7 -66t-7 -68q0 -52 19 -80.5t62 -39.5z" />
<glyph unicode="|" horiz-adv-x="224" d="M105 680h14q6 0 10.5 -4.5t4.5 -10.5v-856q0 -6 -4.5 -10.5t-10.5 -4.5h-14q-6 0 -10.5 4.5t-4.5 10.5v856q0 6 4.5 10.5t10.5 4.5z" />
<glyph unicode="}" horiz-adv-x="282" d="M40 -166q43 11 62 39.5t19 80.5q0 24 -7 68t-7 66q0 111 101 147v5q-101 35 -101 147q0 24 7 68t7 66q0 52 -19 80.5t-62 39.5q-11 4 -11 15q0 7 5 15q5 7 13 7q124 -23 124 -157q-14 -141 -14 -145q0 -40 24.5 -72.5t69.5 -43.5q11 -4 11 -15v-15q0 -11 -11 -15 q-45 -11 -69.5 -43.5t-24.5 -72.5q0 -16 14 -145q0 -69 -33.5 -107.5t-88.5 -49.5q-10 0 -15 7q-5 8 -5 15q0 11 11 15z" />
<glyph unicode="~" horiz-adv-x="558" d="M517 390q5 0 8 -5.5t3 -9.5q-4 -57 -34 -89t-75 -32q-44 0 -151 47q-93 41 -131 41q-58 0 -64 -70q0 -4 -5 -9.5t-11 -5.5h-16q-10 0 -10 15q4 56 33.5 88.5t74.5 32.5t152 -47q93 -41 130 -41q57 0 65 69q0 5 4.5 10.5t11.5 5.5h15z" />
<glyph unicode="&#xa1;" horiz-adv-x="226" d="M70 445q0 37 43 37t43 -37t-43 -37t-43 37zM86 -191l11 481q0 12 12 12h9q4 0 8 -4t4 -8q10 -403 11 -481q0 -6 -4.5 -10.5t-10.5 -4.5h-25q-6 0 -10.5 4.5t-4.5 10.5z" />
<glyph unicode="&#xa2;" horiz-adv-x="472" d="M94 340q0 -91 54 -142.5t139 -51.5q63 0 125 23q2 1 5 1q11 0 14 -11l7 -22q0 -1 0.5 -2t0.5 -2q0 -11 -10 -14q-50 -18 -122 -24v-80q0 -6 -4.5 -10.5t-10.5 -4.5h-24q-6 0 -10.5 4.5t-4.5 10.5v82q-99 12 -156 78.5t-57 164.5q0 97 58 164.5t155 78.5v82q0 6 4.5 10.5 t10.5 4.5h24q6 0 10.5 -4.5t4.5 -10.5v-80q63 -4 122 -24q10 -3 10 -14q0 -1 -0.5 -2t-0.5 -2l-6 -22q-3 -11 -14 -11q-3 0 -5 1q-63 23 -126 23q-85 0 -139 -51.5t-54 -142.5z" />
<glyph unicode="&#xa3;" horiz-adv-x="573" d="M196 308l-43 -256h340q6 0 10.5 -4.5t4.5 -10.5v-22q0 -6 -4.5 -10.5t-10.5 -4.5h-438q-6 0 -10.5 4.5t-4.5 10.5v22q0 6 4.5 10.5t10.5 4.5h45q7 44 21.5 126.5t21.5 129.5h-88q-6 0 -10.5 4.5t-4.5 10.5v19q0 6 4.5 10.5t10.5 4.5h94l28 168q12 77 81 120t161 43 q47 0 89 -10q11 -3 11 -14v-4l-7 -27q-3 -12 -15 -12q-3 0 -5 1q-40 13 -85 13q-69 0 -119 -29.5t-58 -80.5l-27 -168h213q6 0 10.5 -4.5t4.5 -10.5v-19q0 -6 -4.5 -10.5t-10.5 -4.5h-220z" />
<glyph unicode="&#xa4;" horiz-adv-x="584" d="M467 145l51 -51q4 -4 4 -11t-4 -11l-10 -10q-5 -5 -11 -5t-11 5l-51 51q-62 -51 -143 -51q-82 0 -144 51l-50 -51q-5 -5 -11 -5t-11 5l-10 10q-5 5 -5 11t5 11l50 51q-51 62 -51 143q0 82 51 144l-50 50q-5 5 -5 11t5 11l10 10q4 4 11 4t11 -4l50 -50q62 51 144 51 q81 0 143 -51l51 50q4 4 11 4t11 -4l10 -10q4 -4 4 -11t-4 -11l-51 -50q51 -62 51 -144q0 -81 -51 -143zM110 288q0 -75 53.5 -128t128.5 -53t128 53t53 128q0 76 -53 129t-128 53t-128.5 -53t-53.5 -129z" />
<glyph unicode="&#xa5;" horiz-adv-x="613" d="M49 680h28q8 0 12 -6q2 -3 39.5 -56l68 -96l63.5 -93t44 -70h5q11 20 44 69.5l64 94l67.5 95t40.5 56.5t12 6h27q15 0 15 -14q0 -6 -3 -10l-157 -227h95q6 0 10.5 -4.5t4.5 -10.5v-18q0 -6 -4.5 -10.5t-10.5 -4.5h-128l-52 -76v-21h180q6 0 10.5 -4.5t4.5 -10.5v-19 q0 -6 -4.5 -10.5t-10.5 -4.5h-180v-220q0 -6 -4.5 -10.5t-10.5 -4.5h-24q-6 0 -10.5 4.5t-4.5 10.5v220h-180q-6 0 -10.5 4.5t-4.5 10.5v19q0 6 4.5 10.5t10.5 4.5h180v21l-53 76h-127q-6 0 -10.5 4.5t-4.5 10.5v18q0 6 4.5 10.5t10.5 4.5h94l-157 227q-3 4 -3 10 q0 14 15 14z" />
<glyph unicode="&#xa6;" horiz-adv-x="232" d="M109 680h14q6 0 10.5 -4.5t4.5 -10.5v-338q0 -6 -4.5 -10.5t-10.5 -4.5h-14q-6 0 -10.5 4.5t-4.5 10.5v338q0 6 4.5 10.5t10.5 4.5zM109 161h14q6 0 10.5 -4.5t4.5 -10.5v-337q0 -6 -4.5 -10.5t-10.5 -4.5h-14q-6 0 -10.5 4.5t-4.5 10.5v337q0 6 4.5 10.5t10.5 4.5z" />
<glyph unicode="&#xa7;" horiz-adv-x="492" d="M75 -64l6 21q3 13 11 13q6 0 9 -2q74 -31 128 -31q60 0 96 31t36 83q0 19 -10.5 35.5t-33.5 31t-43 24t-54 23.5q-85 35 -127.5 70t-42.5 92q0 75 69 133q-35 38 -35 84q0 60 52 102t126 42q62 0 129 -25q10 -5 10 -15l-7 -26q-3 -10 -13 -10q-4 0 -6 1q-51 24 -113 24 q-49 0 -87 -24t-38 -69q0 -35 36 -60.5t102 -52.5q80 -32 123.5 -69t43.5 -93q0 -72 -65 -133q38 -35 38 -85q0 -73 -52.5 -119t-133.5 -46q-68 0 -146 34q-8 4 -8 16zM340 165q51 49 51 98q0 22 -12 41t-38.5 36t-46 26.5t-56.5 25.5q-49 20 -83 38q-22 -18 -38.5 -46 t-16.5 -53q0 -40 37 -66.5t110 -56.5q61 -25 93 -43z" />
<glyph unicode="&#xa8;" horiz-adv-x="300" d="M198 619q0 18 11.5 29.5t29.5 11.5q17 0 28.5 -11.5t11.5 -29.5t-12 -29.5t-30 -11.5q-17 0 -28 11.5t-11 29.5zM20 619q0 18 11.5 29.5t29.5 11.5q17 0 28.5 -11.5t11.5 -29.5q0 -17 -12.5 -29t-28.5 -12q-17 0 -28.5 11.5t-11.5 29.5z" />
<glyph unicode="&#xa9;" horiz-adv-x="786" d="M740 340q0 -144 -102 -246t-246 -102q-145 0 -246.5 102t-101.5 246q0 145 101.5 246.5t246.5 101.5q144 0 246 -101.5t102 -246.5zM694 340q0 126 -88.5 214t-213.5 88t-213.5 -88t-88.5 -214q0 -125 88.5 -213.5t213.5 -88.5t213.5 88.5t88.5 213.5zM494 211q2 1 6 1 q12 0 15 -12l4 -15q0 -12 -9 -17q-60 -24 -112 -24q-81 0 -130.5 52t-49.5 144t49.5 144t130.5 52q53 0 110 -22q10 -4 10 -15l-4 -17q-3 -12 -15 -12q-4 0 -6 1q-50 21 -92 21q-57 0 -95 -42.5t-38 -109.5t38.5 -109.5t94.5 -42.5q38 0 93 23z" />
<glyph unicode="&#xaa;" horiz-adv-x="394" d="M354 285l-3 -11q-1 -9 -14 -9q-4 0 -6 1q-27 10 -38 38q-21 -19 -51.5 -29.5t-50.5 -10.5q-66 0 -111 45t-45 115t45 115t111 45q49 0 102 -28q0 1 0.5 4.5t0.5 4.5q2 14 15 14h5q6 0 10.5 -4.5t4.5 -10.5v-234q0 -18 17 -25q9 -5 9 -14q0 -4 -1 -6zM288 346v170 q-46 28 -97 28q-50 0 -82 -33t-32 -87t32 -87t82 -33q59 0 97 42z" />
<glyph unicode="&#xab;" horiz-adv-x="549" d="M166 474h23q15 0 15 -15q0 -2 -2 -8l-125 -215l125 -214q2 -6 2 -8q0 -14 -15 -14h-23q-9 0 -13 8l-129 221q-2 4 -2 8t2 8l129 222q3 7 13 7zM481 474h23q15 0 15 -15q0 -2 -2 -8l-125 -215l125 -214q2 -6 2 -8q0 -14 -15 -14h-23q-9 0 -13 8l-129 221q-2 4 -2 8t2 8 l129 222q4 7 13 7z" />
<glyph unicode="&#xac;" horiz-adv-x="584" d="M70 359h444q6 0 10.5 -4.5t4.5 -10.5v-191q0 -6 -4.5 -10.5t-10.5 -4.5h-16q-6 0 -10.5 4.5t-4.5 10.5v160h-413q-6 0 -10.5 4.5t-4.5 10.5v16q0 6 4.5 10.5t10.5 4.5z" />
<glyph unicode="&#xad;" horiz-adv-x="395" d="M345 243v-23q0 -6 -4.5 -10.5t-10.5 -4.5h-265q-6 0 -10.5 4.5t-4.5 10.5v23q0 6 4.5 10.5t10.5 4.5h265q6 0 10.5 -4.5t4.5 -10.5z" />
<glyph unicode="&#xae;" horiz-adv-x="534" d="M354 380l13 -26q2 -6 2 -8q0 -14 -15 -14h-10q-9 0 -13 8q-9 16 -17 35q-17 34 -35 52q-17 14 -26 14h-27v-96q0 -6 -4.5 -10.5t-10.5 -4.5h-8q-6 0 -10.5 4.5t-4.5 10.5v242q0 13 14 15q12 1 52 1q51 0 73.5 -24t22.5 -57q0 -45 -50 -67v-5q26 -17 54 -70zM255 473 q26 0 41.5 13t15.5 35q0 20 -13 34.5t-41 14.5q-14 0 -32 -2v-95h29zM266 688q92 0 157 -65t65 -157t-65 -157t-157 -65t-157 65t-65 157t65 157t157 65zM266 284q76 0 129 53.5t53 128.5q0 76 -53 129t-129 53q-75 0 -128.5 -53t-53.5 -129q0 -75 53.5 -128.5t128.5 -53.5z " />
<glyph unicode="&#xaf;" horiz-adv-x="300" d="M264 621v-15q0 -6 -4.5 -10.5t-10.5 -4.5h-198q-6 0 -10.5 4.5t-4.5 10.5v15q0 6 4.5 10.5t10.5 4.5h198q6 0 10.5 -4.5t4.5 -10.5z" />
<glyph unicode="&#xb0;" horiz-adv-x="378" d="M189 688q62 0 105.5 -43.5t43.5 -105.5q0 -61 -44 -105t-105 -44t-105 44t-44 105q0 62 43.5 105.5t105.5 43.5zM189 435q44 0 74.5 30.5t30.5 73.5t-31 74t-74 31t-74 -31t-31 -74t30.5 -73.5t74.5 -30.5z" />
<glyph unicode="&#xb1;" horiz-adv-x="584" d="M529 301v-16q0 -6 -4.5 -10.5t-10.5 -4.5h-199v-144q0 -6 -4.5 -10.5t-10.5 -4.5h-16q-6 0 -10.5 4.5t-4.5 10.5v144h-199q-6 0 -10.5 4.5t-4.5 10.5v16q0 6 4.5 10.5t10.5 4.5h199v143q0 6 4.5 10.5t10.5 4.5h16q6 0 10.5 -4.5t4.5 -10.5v-143h199q6 0 10.5 -4.5 t4.5 -10.5zM70 46h444q6 0 10.5 -4.5t4.5 -10.5v-16q0 -6 -4.5 -10.5t-10.5 -4.5h-444q-6 0 -10.5 4.5t-4.5 10.5v16q0 6 4.5 10.5t10.5 4.5z" />
<glyph unicode="&#xb2;" horiz-adv-x="358" d="M43 506l127 110q100 90 100 141q0 39 -25 61t-68 22q-38 0 -102 -42q-4 -3 -9 -3q-11 0 -14 12l-4 13q0 11 8 17q79 44 121 44q63 0 102 -35t39 -89q0 -29 -30 -74.5t-89 -97.5l-84 -74h188q6 0 10.5 -4.5t4.5 -10.5v-10q0 -6 -4.5 -10.5t-10.5 -4.5h-250q-6 0 -10.5 4.5 t-4.5 10.5v9q0 6 5 11z" />
<glyph unicode="&#xb3;" horiz-adv-x="377" d="M253 681q41 -10 62.5 -37t21.5 -62q0 -55 -41 -87t-110 -32q-58 0 -137 38q-9 5 -9 15l5 20q3 8 9 8q2 0 12 -4q72 -36 120 -36t75.5 20t27.5 58q0 68 -139 74q-14 0 -14 15v11q0 15 14 15q58 4 93 28.5t35 51.5q0 28 -23.5 45.5t-62.5 17.5t-114 -32q-4 -2 -6 -2 q-11 0 -14 11l-3 11l-1 2v2q0 11 9 14q81 35 129 35q59 0 96.5 -30t37.5 -74q0 -25 -18.5 -53.5t-54.5 -42.5z" />
<glyph unicode="&#xb4;" horiz-adv-x="300" d="M88 579l68 95q4 6 12 6h27q15 0 15 -14q0 -7 -4 -11l-85 -95q-5 -5 -11 -5h-10q-15 0 -15 14q0 5 3 10z" />
<glyph unicode="&#xb5;" horiz-adv-x="546" d="M437 474h22q6 0 10.5 -4.5t4.5 -10.5v-444q0 -6 -4.5 -10.5t-10.5 -4.5h-11q-13 0 -15 13l-7 43h-5q-33 -31 -76 -47.5t-81 -16.5q-91 0 -146 54l6 -237q0 -6 -4.5 -10.5t-10.5 -4.5h-22q-6 0 -10.5 4.5t-4.5 10.5v650q0 6 4.5 10.5t10.5 4.5h22q6 0 10.5 -4.5t4.5 -10.5 v-267q0 -69 33 -109t115 -40q89 0 150 72v344q0 6 4.5 10.5t10.5 4.5z" />
<glyph unicode="&#xb6;" horiz-adv-x="519" d="M479 665v-760q0 -6 -4.5 -10.5t-10.5 -4.5h-22q-6 0 -10.5 4.5t-4.5 10.5v728h-136v-728q0 -6 -4.5 -10.5t-10.5 -4.5h-22q-6 0 -10.5 4.5t-4.5 10.5v396q-81 0 -135 56.5t-54 133.5q0 78 55.5 133.5t133.5 55.5h225q6 0 10.5 -4.5t4.5 -10.5z" />
<glyph unicode="&#xb7;" horiz-adv-x="600" d="M343 340q0 -37 -43 -37t-43 37t43 37t43 -37z" />
<glyph unicode="&#xb8;" horiz-adv-x="300" d="M169 -46l-11 -26q32 -6 49 -25t17 -40q0 -39 -28.5 -58t-71.5 -19q-15 0 -33 4q-13 3 -13 14v4l2 7q3 12 13 12q1 0 2.5 -0.5t2.5 -0.5q19 -4 33 -4q19 0 34 11.5t15 27.5q0 31 -50 38q-13 2 -13 14q0 2 2 8l17 38q7 12 16 12h7q12 0 12 -9q0 -2 -2 -8z" />
<glyph unicode="&#xb9;" horiz-adv-x="369" d="M214 508h100q6 0 10.5 -4.5t4.5 -10.5v-10q0 -6 -4.5 -10.5t-10.5 -4.5h-248q-6 0 -10.5 4.5t-4.5 10.5v10q0 6 4.5 10.5t10.5 4.5h99v313l-99 -60q-6 -2 -8 -2q-8 0 -13 8q-4 8 -4 15q0 10 7 13l120 70q16 8 24 8h7q6 0 10.5 -4.5t4.5 -10.5v-350z" />
<glyph unicode="&#xba;" horiz-adv-x="395" d="M197 584q71 0 117 -45t46 -115t-46 -115t-117 -45t-116.5 45t-45.5 115t45.5 115t116.5 45zM197 304q53 0 86 32t33 88t-33 88t-86 32t-86 -32t-33 -88t33 -88t86 -32z" />
<glyph unicode="&#xbb;" horiz-adv-x="549" d="M360 474h23q9 0 13 -8l129 -221q1 -2 1 -8t-1 -8l-129 -222q-4 -7 -13 -7h-23q-15 0 -15 15q0 5 2 8l125 215l-125 214q-2 3 -2 8q0 14 15 14zM45 474h23q9 0 13 -8l129 -221q1 -2 1 -8t-1 -8l-129 -222q-3 -7 -13 -7h-23q-15 0 -15 15q0 5 2 8l125 215l-125 214 q-2 3 -2 8q0 14 15 14z" />
<glyph unicode="&#xbc;" horiz-adv-x="837" d="M216 315h100q6 0 10.5 -4.5t4.5 -10.5v-10q0 -6 -4.5 -10.5t-10.5 -4.5h-248q-6 0 -10.5 4.5t-4.5 10.5v10q0 6 4.5 10.5t10.5 4.5h99v313l-99 -60q-6 -2 -8 -2q-8 0 -13 8q-4 8 -4 15q0 9 7 13l120 70q13 8 24 8h7q6 0 10.5 -4.5t4.5 -10.5v-350zM683 658l-374 -649 q-4 -8 -13 -8h-16q-15 0 -15 14q0 5 2 8l374 650q3 7 13 7h16q15 0 15 -14q0 -2 -2 -8zM750 147h32q6 0 10.5 -4.5t4.5 -10.5v-10q0 -6 -4.5 -10.5t-10.5 -4.5h-32v-92q0 -6 -4.5 -10.5t-10.5 -4.5h-15q-6 0 -10.5 4.5t-4.5 10.5v92h-201q-6 0 -10.5 4.5t-4.5 10.5v8 q0 14 10 26l208 244q5 5 11 5h17q6 0 10.5 -4.5t4.5 -10.5v-243zM705 147v145l2 54q-8 -11 -56 -71l-30 -38l-77 -92q1 0 21 1t37 1h103z" />
<glyph unicode="&#xbd;" horiz-adv-x="903" d="M589 35l127 110q100 90 100 141q0 39 -25 61t-68 22q-38 0 -102 -42q-4 -3 -9 -3q-11 0 -14 12l-4 13q0 11 8 17q79 44 121 44q63 0 102 -35t39 -89q0 -29 -30 -74.5t-89 -97.5l-84 -74h188q6 0 10.5 -4.5t4.5 -10.5v-10q0 -6 -4.5 -10.5t-10.5 -4.5h-250q-6 0 -10.5 4.5 t-4.5 10.5v9q0 6 5 11zM216 315h100q6 0 10.5 -4.5t4.5 -10.5v-10q0 -6 -4.5 -10.5t-10.5 -4.5h-248q-6 0 -10.5 4.5t-4.5 10.5v10q0 6 4.5 10.5t10.5 4.5h99v313l-99 -60q-6 -2 -8 -2q-8 0 -13 8q-4 8 -4 15q0 9 7 13l120 71q14 7 24 7h7q6 0 10.5 -4.5t4.5 -10.5v-350z M684 659l-374 -650q-4 -8 -13 -8h-16q-15 0 -15 14q0 5 2 8l373 650q4 8 13 8h17q15 0 15 -14q0 -2 -2 -8z" />
<glyph unicode="&#xbe;" horiz-adv-x="809" d="M256 487q40 -9 61.5 -36.5t21.5 -61.5q0 -55 -41 -87t-110 -32q-58 0 -137 38q-9 4 -9 13q0 3 1 4l4 17q3 9 9 9q2 0 12 -4q72 -36 120 -36t75.5 20t27.5 58q0 68 -139 74q-14 0 -14 15v11q0 13 14 15q58 4 93 28.5t35 51.5q0 28 -23.5 45.5t-62.5 17.5t-114 -32 q-4 -2 -6 -2q-11 0 -14 11l-3 11q0 1 -0.5 2t-0.5 2q0 11 9 14q81 35 129 35q59 0 96.5 -30t37.5 -74q0 -25 -18.5 -53.5t-53.5 -43.5zM655 658l-374 -649q-4 -8 -13 -8h-16q-15 0 -15 14q0 5 2 8l374 650q3 7 13 7h16q15 0 15 -14q0 -2 -2 -8zM721 147h32q6 0 10.5 -4.5 t4.5 -10.5v-10q0 -6 -4.5 -10.5t-10.5 -4.5h-32v-92q0 -6 -4.5 -10.5t-10.5 -4.5h-15q-6 0 -10.5 4.5t-4.5 10.5v92h-201q-6 0 -10.5 4.5t-4.5 10.5v8q0 12 11 26l207 244q5 5 11 5h17q6 0 10.5 -4.5t4.5 -10.5v-243zM676 147v145l2 54q-8 -11 -56 -71l-30 -38l-77 -92 q1 0 21 1t37 1h103z" />
<glyph unicode="&#xbf;" horiz-adv-x="601" d="M187 -72q0 -59 48 -100.5t139 -41.5q81 0 138 27q9 5 9 16l-5 19q-2 13 -14 13q-2 0 -8 -2q-44 -24 -108 -24q-68 0 -106.5 25.5t-38.5 70.5q0 37 24 71.5t78 85.5q72 71 72 190q0 8 -2 14q-4 10 -14 10h-13q-6 0 -10.5 -4.5t-4.5 -10.5q-1 -58 -19.5 -99.5t-58.5 -81.5 q-53 -54 -79.5 -95t-26.5 -83zM388 408q-20 0 -31.5 10t-11.5 27t11.5 27t31.5 10t31.5 -10t11.5 -27t-11.5 -27t-31.5 -10z" />
<glyph unicode="&#xc0;" horiz-adv-x="706" d="M622 9l-80 176h-381l-79 -176q-4 -9 -14 -9h-29q-16 0 -16 14q0 3 2 7l298 650q5 9 14 9h29q10 0 14 -9l300 -650q2 -4 2 -7q0 -14 -16 -14h-30q-10 0 -14 9zM356 615h-7q-11 -32 -51.5 -126.5l-75.5 -172.5l-35 -79h332q-142 304 -163 378zM322 875l68 -94q3 -5 3 -10 q0 -14 -15 -14h-10q-6 0 -11 5l-85 94q-4 4 -4 11q0 14 15 14h27q8 0 12 -6z" />
<glyph unicode="&#xc1;" horiz-adv-x="706" d="M622 9l-80 176h-381l-79 -176q-4 -9 -14 -9h-29q-16 0 -16 14q0 3 2 7l298 650q5 9 14 9h29q10 0 14 -9l300 -650q2 -4 2 -7q0 -14 -16 -14h-30q-10 0 -14 9zM356 615h-7q-11 -32 -51.5 -126.5l-75.5 -172.5l-35 -79h332q-142 304 -163 378zM317 780l68 95q4 6 12 6h27 q15 0 15 -14q0 -7 -4 -11l-85 -95q-5 -5 -11 -5h-10q-15 0 -15 14q0 6 3 10z" />
<glyph unicode="&#xc2;" horiz-adv-x="706" d="M622 9l-80 176h-381l-79 -176q-4 -9 -14 -9h-29q-16 0 -16 14q0 3 2 7l298 650q5 9 14 9h29q10 0 14 -9l300 -650q2 -4 2 -7q0 -14 -16 -14h-30q-10 0 -14 9zM356 615h-7q-11 -32 -51.5 -126.5l-75.5 -172.5l-35 -79h332q-142 304 -163 378zM354 849l-48 -81 q-13 -12 -21 -12h-16q-16 0 -16 14q0 2 2 6l65 95q7 10 18 10h32q11 0 18 -10l66 -95q2 -4 2 -6q0 -14 -17 -14h-15q-12 0 -21 13l-28 45z" />
<glyph unicode="&#xc3;" horiz-adv-x="706" d="M622 9l-80 176h-381l-79 -176q-4 -9 -14 -9h-29q-16 0 -16 14q0 3 2 7l298 650q5 9 14 9h29q10 0 14 -9l300 -650q2 -4 2 -7q0 -14 -16 -14h-30q-10 0 -14 9zM356 615h-7q-11 -32 -51.5 -126.5l-75.5 -172.5l-35 -79h332q-142 304 -163 378zM294 863q31 0 66 -23 q32 -21 49 -21q18 0 25 29q4 11 15 11h11q15 0 15 -15q-5 -32 -22 -50t-41 -18q-32 0 -67 21q-33 23 -49 23q-15 0 -24 -29q-4 -11 -15 -11h-11q-15 0 -15 15q5 32 22 50t41 18z" />
<glyph unicode="&#xc4;" horiz-adv-x="706" d="M622 9l-80 176h-381l-79 -176q-4 -9 -14 -9h-29q-16 0 -16 14q0 3 2 7l298 650q5 9 14 9h29q10 0 14 -9l300 -650q2 -4 2 -7q0 -14 -16 -14h-30q-10 0 -14 9zM356 615h-7q-11 -32 -51.5 -126.5l-75.5 -172.5l-35 -79h332q-142 304 -163 378zM401 818q0 18 11.5 29.5 t29.5 11.5q17 0 28.5 -11.5t11.5 -29.5t-12 -29.5t-30 -11.5q-17 0 -28 11.5t-11 29.5zM223 818q0 18 11.5 29.5t29.5 11.5q17 0 28.5 -11.5t11.5 -29.5q0 -16 -12 -28.5t-29 -12.5t-28.5 11.5t-11.5 29.5z" />
<glyph unicode="&#xc5;" horiz-adv-x="706" d="M622 9l-80 176h-381l-79 -176q-4 -9 -14 -9h-29q-16 0 -16 14q0 3 2 7l298 650q5 9 14 9h29q10 0 14 -9l300 -650q2 -4 2 -7q0 -14 -16 -14h-30q-10 0 -14 9zM356 615h-7q-11 -32 -51.5 -126.5l-75.5 -172.5l-35 -79h332q-142 304 -163 378zM442 820q0 -35 -26.5 -60.5 t-63.5 -25.5t-63.5 25.5t-26.5 60.5q0 36 26.5 61.5t63.5 25.5t63.5 -25.5t26.5 -61.5zM407 820q0 23 -16 39t-39 16t-38.5 -16t-15.5 -39t16 -39t38 -16t38.5 16.5t16.5 38.5z" />
<glyph unicode="&#xc6;" horiz-adv-x="924" d="M525 51h339q6 0 10.5 -4.5t4.5 -10.5v-21q0 -6 -4.5 -10.5t-10.5 -4.5h-378q-6 0 -10.5 4.5t-4.5 10.5v170h-276l-44 -71l-66 -107q-5 -7 -13 -7h-29q-16 0 -16 14q0 4 3 9l262 410l154 240q5 7 13 7h398q6 0 10.5 -4.5t4.5 -10.5v-21q0 -6 -4.5 -10.5t-10.5 -4.5h-332 v-249h295q6 0 10.5 -4.5t4.5 -10.5v-21q0 -6 -4.5 -10.5t-10.5 -4.5h-295v-278zM230 237h241v378h-12q-17 -32 -74 -126.5l-106 -172.5z" />
<glyph unicode="&#xc7;" horiz-adv-x="688" d="M444 -37l-11 -26q32 -6 49 -25t17 -40q0 -39 -28.5 -58t-71.5 -19q-15 0 -33 4q-13 3 -13 14v4l2 7q3 12 13 12q1 0 2.5 -0.5t2.5 -0.5q19 -4 33 -4q19 0 34 11.5t15 27.5q0 31 -50 38q-13 2 -13 14q0 2 2 8l17 38q7 12 16 12h7q12 0 12 -9q0 -2 -2 -8zM655 634l-5 -23 q-4 -14 -15 -14q-4 0 -7 1q-93 38 -190 38q-140 0 -234.5 -85.5t-94.5 -210.5t94.5 -210.5t234.5 -85.5q99 0 190 38q2 1 6 1q11 0 14 -11l6 -22v-2l1 -2q0 -11 -10 -14q-102 -40 -207 -40q-167 0 -277.5 99.5t-110.5 248.5t110.5 248.5t277.5 99.5q105 0 207 -40 q10 -4 10 -14z" />
<glyph unicode="&#xc8;" horiz-adv-x="543" d="M491 665v-21q0 -6 -4.5 -10.5t-10.5 -4.5h-332v-249h295q6 0 10.5 -4.5t4.5 -10.5v-21q0 -6 -4.5 -10.5t-10.5 -4.5h-295v-278h339q6 0 10.5 -4.5t4.5 -10.5v-21q0 -6 -4.5 -10.5t-10.5 -4.5h-378q-6 0 -10.5 4.5t-4.5 10.5v650q0 6 4.5 10.5t10.5 4.5h371q6 0 10.5 -4.5 t4.5 -10.5zM279 874l68 -94q3 -4 3 -10q0 -14 -15 -14h-10q-6 0 -11 5l-85 94q-4 4 -4 11q0 14 15 14h27q8 0 12 -6z" />
<glyph unicode="&#xc9;" horiz-adv-x="543" d="M491 665v-21q0 -6 -4.5 -10.5t-10.5 -4.5h-332v-249h295q6 0 10.5 -4.5t4.5 -10.5v-21q0 -6 -4.5 -10.5t-10.5 -4.5h-295v-278h339q6 0 10.5 -4.5t4.5 -10.5v-21q0 -6 -4.5 -10.5t-10.5 -4.5h-378q-6 0 -10.5 4.5t-4.5 10.5v650q0 6 4.5 10.5t10.5 4.5h371q6 0 10.5 -4.5 t4.5 -10.5zM233 780l68 95q4 6 12 6h27q15 0 15 -14q0 -7 -4 -11l-85 -95q-5 -5 -11 -5h-10q-15 0 -15 14q0 6 3 10z" />
<glyph unicode="&#xca;" horiz-adv-x="543" d="M491 665v-21q0 -6 -4.5 -10.5t-10.5 -4.5h-332v-249h295q6 0 10.5 -4.5t4.5 -10.5v-21q0 -6 -4.5 -10.5t-10.5 -4.5h-295v-278h339q6 0 10.5 -4.5t4.5 -10.5v-21q0 -6 -4.5 -10.5t-10.5 -4.5h-378q-6 0 -10.5 4.5t-4.5 10.5v650q0 6 4.5 10.5t10.5 4.5h371q6 0 10.5 -4.5 t4.5 -10.5zM288 849l-48 -81q-13 -12 -21 -12h-16q-16 0 -16 14q0 2 2 6l65 95q7 10 18 10h32q11 0 18 -10l66 -95q2 -4 2 -6q0 -14 -17 -14h-15q-12 0 -21 13l-28 45z" />
<glyph unicode="&#xcb;" horiz-adv-x="543" d="M491 665v-21q0 -6 -4.5 -10.5t-10.5 -4.5h-332v-249h295q6 0 10.5 -4.5t4.5 -10.5v-21q0 -6 -4.5 -10.5t-10.5 -4.5h-295v-278h339q6 0 10.5 -4.5t4.5 -10.5v-21q0 -6 -4.5 -10.5t-10.5 -4.5h-378q-6 0 -10.5 4.5t-4.5 10.5v650q0 6 4.5 10.5t10.5 4.5h371q6 0 10.5 -4.5 t4.5 -10.5zM336 820q0 18 11.5 29.5t29.5 11.5q17 0 28.5 -11.5t11.5 -29.5t-12 -29.5t-30 -11.5q-17 0 -28 11.5t-11 29.5zM158 820q0 18 11.5 29.5t29.5 11.5q17 0 28.5 -11.5t11.5 -29.5q0 -16 -12.5 -28.5t-28.5 -12.5q-17 0 -28.5 11.5t-11.5 29.5z" />
<glyph unicode="&#xcc;" horiz-adv-x="456" d="M381 630h-126v-580h126q6 0 10.5 -4.5t4.5 -10.5v-20q0 -6 -4.5 -10.5t-10.5 -4.5h-306q-6 0 -10.5 4.5t-4.5 10.5v20q0 6 4.5 10.5t10.5 4.5h126v580h-126q-6 0 -10.5 4.5t-4.5 10.5v20q0 6 4.5 10.5t10.5 4.5h306q6 0 10.5 -4.5t4.5 -10.5v-20q0 -6 -4.5 -10.5 t-10.5 -4.5zM195 875l68 -94q3 -5 3 -10q0 -14 -15 -14h-10q-6 0 -11 5l-85 94q-4 4 -4 11q0 14 15 14h27q8 0 12 -6z" />
<glyph unicode="&#xcd;" horiz-adv-x="456" d="M381 630h-126v-580h126q6 0 10.5 -4.5t4.5 -10.5v-20q0 -6 -4.5 -10.5t-10.5 -4.5h-306q-6 0 -10.5 4.5t-4.5 10.5v20q0 6 4.5 10.5t10.5 4.5h126v580h-126q-6 0 -10.5 4.5t-4.5 10.5v20q0 6 4.5 10.5t10.5 4.5h306q6 0 10.5 -4.5t4.5 -10.5v-20q0 -6 -4.5 -10.5 t-10.5 -4.5zM194 780l68 95q4 6 12 6h27q15 0 15 -14q0 -7 -4 -11l-85 -95q-5 -5 -11 -5h-10q-15 0 -15 14q0 6 3 10z" />
<glyph unicode="&#xce;" horiz-adv-x="456" d="M381 630h-126v-580h126q6 0 10.5 -4.5t4.5 -10.5v-20q0 -6 -4.5 -10.5t-10.5 -4.5h-306q-6 0 -10.5 4.5t-4.5 10.5v20q0 6 4.5 10.5t10.5 4.5h126v580h-126q-6 0 -10.5 4.5t-4.5 10.5v20q0 6 4.5 10.5t10.5 4.5h306q6 0 10.5 -4.5t4.5 -10.5v-20q0 -6 -4.5 -10.5 t-10.5 -4.5zM229 849l-48 -81q-13 -12 -21 -12h-16q-16 0 -16 14q0 2 2 6l65 95q7 10 18 10h32q11 0 18 -10l66 -95q2 -4 2 -6q0 -14 -17 -14h-15q-12 0 -21 13l-28 45z" />
<glyph unicode="&#xcf;" horiz-adv-x="456" d="M381 630h-126v-580h126q6 0 10.5 -4.5t4.5 -10.5v-20q0 -6 -4.5 -10.5t-10.5 -4.5h-306q-6 0 -10.5 4.5t-4.5 10.5v20q0 6 4.5 10.5t10.5 4.5h126v580h-126q-6 0 -10.5 4.5t-4.5 10.5v20q0 6 4.5 10.5t10.5 4.5h306q6 0 10.5 -4.5t4.5 -10.5v-20q0 -6 -4.5 -10.5 t-10.5 -4.5zM276 820q0 18 11.5 29.5t29.5 11.5q17 0 28.5 -11.5t11.5 -29.5t-12 -29.5t-30 -11.5q-17 0 -28 11.5t-11 29.5zM98 820q0 18 11.5 29.5t29.5 11.5q17 0 28.5 -11.5t11.5 -29.5q0 -16 -12.5 -28.5t-28.5 -12.5q-17 0 -28.5 11.5t-11.5 29.5z" />
<glyph unicode="&#xd0;" horiz-adv-x="807" d="M20 340v22q0 6 4.5 10.5t10.5 4.5h85v291q0 13 14 15q57 5 177 5q114 0 201.5 -28.5t140 -78t78.5 -110.5t26 -131t-26 -131t-78.5 -110.5t-140 -78t-201.5 -28.5q-109 0 -177 6q-14 2 -14 15v312h-85q-6 0 -10.5 4.5t-4.5 10.5zM174 325v-278q62 -4 146 -4 q175 0 276.5 77t101.5 220t-101.5 220t-276.5 77q-146 0 -146 -5v-255h89q6 0 10.5 -4.5t4.5 -10.5v-22q0 -6 -4.5 -10.5t-10.5 -4.5h-89z" />
<glyph unicode="&#xd1;" horiz-adv-x="782" d="M637 61h4q-3 75 -3 112v492q0 6 4.5 10.5t10.5 4.5h24q6 0 10.5 -4.5t4.5 -10.5v-650q0 -6 -4.5 -10.5t-10.5 -4.5h-51q-8 0 -12 6l-468 611h-3q1 -25 1 -111v-491q0 -6 -4.5 -10.5t-10.5 -4.5h-24q-6 0 -10.5 4.5t-4.5 10.5v650q0 6 4.5 10.5t10.5 4.5h51q8 0 12 -6z M328 865q31 0 66 -23q32 -21 49 -21q18 0 25 29q4 11 15 11h11q15 0 15 -15q-5 -32 -22 -50t-41 -18q-32 0 -67 21q-33 23 -49 23q-15 0 -24 -29q-4 -11 -15 -11h-11q-15 0 -15 15q5 32 22 50t41 18z" />
<glyph unicode="&#xd2;" horiz-adv-x="853" d="M426 45q142 0 230 82.5t88 211.5q0 130 -88 213t-230 83q-141 0 -229 -83t-88 -213q0 -129 88 -211.5t229 -82.5zM426 688q168 0 272.5 -100t104.5 -249t-104 -248t-273 -99t-272.5 99t-103.5 248t104.5 249t271.5 100zM390 876l68 -94q3 -4 3 -10q0 -14 -15 -14h-10 q-6 0 -11 5l-85 94q-4 4 -4 11q0 14 15 14h27q8 0 12 -6z" />
<glyph unicode="&#xd3;" horiz-adv-x="853" d="M426 45q142 0 230 82.5t88 211.5q0 130 -88 213t-230 83q-141 0 -229 -83t-88 -213q0 -129 88 -211.5t229 -82.5zM426 688q168 0 272.5 -100t104.5 -249t-104 -248t-273 -99t-272.5 99t-103.5 248t104.5 249t271.5 100zM393 781l68 95q4 6 12 6h27q15 0 15 -14 q0 -7 -4 -11l-85 -95q-5 -5 -11 -5h-10q-15 0 -15 14q0 5 3 10z" />
<glyph unicode="&#xd4;" horiz-adv-x="853" d="M426 45q142 0 230 82.5t88 211.5q0 130 -88 213t-230 83q-141 0 -229 -83t-88 -213q0 -129 88 -211.5t229 -82.5zM426 688q168 0 272.5 -100t104.5 -249t-104 -248t-273 -99t-272.5 99t-103.5 248t104.5 249t271.5 100zM427 848l-48 -81q-13 -12 -21 -12h-16 q-16 0 -16 14q0 2 2 6l65 95q7 10 18 10h32q11 0 18 -10l66 -95q2 -4 2 -6q0 -14 -17 -14h-15q-12 0 -21 13l-28 45z" />
<glyph unicode="&#xd5;" horiz-adv-x="853" d="M426 45q142 0 230 82.5t88 211.5q0 130 -88 213t-230 83q-141 0 -229 -83t-88 -213q0 -129 88 -211.5t229 -82.5zM426 688q168 0 272.5 -100t104.5 -249t-104 -248t-273 -99t-272.5 99t-103.5 248t104.5 249t271.5 100zM367 864q31 0 66 -23q31 -21 49 -21t25 29 q4 11 15 11h11q15 0 15 -15q-5 -32 -22 -50t-41 -18q-32 0 -67 21q-33 23 -49 23q-15 0 -24 -29q-4 -11 -15 -11h-11q-15 0 -15 15q5 32 22 50t41 18z" />
<glyph unicode="&#xd6;" horiz-adv-x="853" d="M426 45q142 0 230 82.5t88 211.5q0 130 -88 213t-230 83q-141 0 -229 -83t-88 -213q0 -129 88 -211.5t229 -82.5zM426 688q168 0 272.5 -100t104.5 -249t-104 -248t-273 -99t-272.5 99t-103.5 248t104.5 249t271.5 100zM477 815q0 18 11.5 29.5t29.5 11.5 q17 0 28.5 -11.5t11.5 -29.5t-12 -29.5t-30 -11.5q-17 0 -28 11.5t-11 29.5zM299 815q0 18 11.5 29.5t29.5 11.5q17 0 28.5 -11.5t11.5 -29.5q0 -17 -12 -29t-29 -12t-28.5 11.5t-11.5 29.5z" />
<glyph unicode="&#xd7;" horiz-adv-x="577" d="M521 431l-193 -194l193 -194q4 -4 4 -11t-4 -11l-10 -10q-5 -5 -11 -5t-11 5l-194 193l-194 -193q-4 -4 -11 -4q-3 0 -7 2q-8 4 -15 14q-3 4 -3 9q0 7 4 11l194 194l-194 194q-5 5 -5 11t5 11l10 10q4 4 11 4t11 -4l194 -194l194 194q5 5 11 5q8 0 13 -9q2 -2 6 -5 q6 -4 6 -13q0 -6 -4 -10z" />
<glyph unicode="&#xd8;" horiz-adv-x="853" d="M700 683l-42 -62q68 -48 106.5 -122t38.5 -160q0 -149 -104 -248t-273 -99q-100 0 -182 38l-46 -64q-5 -7 -13 -7q-3 0 -8 3l-21 16q-6 4 -6 11q0 4 3 9l42 60q-71 49 -108 122t-37 159q0 149 104.5 249t271.5 100q103 0 183 -40l46 67q5 7 13 7q3 0 7 -2l24 -17 q4 -4 4 -10q0 -5 -3 -10zM227 104l351 501q-76 30 -152 30q-141 0 -229 -83t-88 -213q0 -71 30.5 -133t87.5 -102zM744 339q0 152 -119 238l-349 -501q69 -31 150 -31q142 0 230 82.5t88 211.5z" />
<glyph unicode="&#xd9;" horiz-adv-x="780" d="M651 680h24q6 0 10.5 -4.5t4.5 -10.5v-425q0 -102 -88 -175t-211 -73q-124 0 -212.5 73t-88.5 175v425q0 6 4.5 10.5t10.5 4.5h24q6 0 10.5 -4.5t4.5 -10.5v-425q0 -80 72.5 -137t174.5 -57t173.5 57t71.5 137v425q0 6 4.5 10.5t10.5 4.5zM365 875l68 -94q3 -5 3 -10 q0 -14 -15 -14h-10q-6 0 -11 5l-85 94q-4 4 -4 11q0 14 15 14h27q8 0 12 -6z" />
<glyph unicode="&#xda;" horiz-adv-x="780" d="M651 680h24q6 0 10.5 -4.5t4.5 -10.5v-425q0 -102 -88 -175t-211 -73q-124 0 -212.5 73t-88.5 175v425q0 6 4.5 10.5t10.5 4.5h24q6 0 10.5 -4.5t4.5 -10.5v-425q0 -80 72.5 -137t174.5 -57t173.5 57t71.5 137v425q0 6 4.5 10.5t10.5 4.5zM355 782l68 95q4 6 12 6h27 q15 0 15 -14q0 -7 -4 -11l-85 -95q-5 -5 -11 -5h-10q-15 0 -15 14q0 6 3 10z" />
<glyph unicode="&#xdb;" horiz-adv-x="780" d="M651 680h24q6 0 10.5 -4.5t4.5 -10.5v-425q0 -102 -88 -175t-211 -73q-124 0 -212.5 73t-88.5 175v425q0 6 4.5 10.5t10.5 4.5h24q6 0 10.5 -4.5t4.5 -10.5v-425q0 -80 72.5 -137t174.5 -57t173.5 57t71.5 137v425q0 6 4.5 10.5t10.5 4.5zM393 849l-48 -81 q-13 -12 -21 -12h-16q-16 0 -16 14q0 2 2 6l65 95q7 10 18 10h32q11 0 18 -10l66 -95q2 -4 2 -6q0 -14 -17 -14h-15q-12 0 -21 13l-28 45z" />
<glyph unicode="&#xdc;" horiz-adv-x="780" d="M651 680h24q6 0 10.5 -4.5t4.5 -10.5v-425q0 -102 -88 -175t-211 -73q-124 0 -212.5 73t-88.5 175v425q0 6 4.5 10.5t10.5 4.5h24q6 0 10.5 -4.5t4.5 -10.5v-425q0 -80 72.5 -137t174.5 -57t173.5 57t71.5 137v425q0 6 4.5 10.5t10.5 4.5zM445 814q0 18 11.5 29.5 t29.5 11.5q17 0 28.5 -11.5t11.5 -29.5t-12 -29.5t-30 -11.5q-17 0 -28 11.5t-11 29.5zM267 814q0 18 11.5 29.5t29.5 11.5q17 0 28.5 -11.5t11.5 -29.5q0 -16 -12 -28.5t-29 -12.5t-28.5 11.5t-11.5 29.5z" />
<glyph unicode="&#xdd;" horiz-adv-x="613" d="M304 359h6q11 20 44 70l63.5 93l68 96t39.5 56q4 6 12 6h28q15 0 15 -14q0 -6 -3 -10l-243 -351v-290q0 -6 -4.5 -10.5t-10.5 -4.5h-24q-6 0 -10.5 4.5t-4.5 10.5v291l-244 351q-3 4 -3 9q0 14 15 14h29q8 0 12 -6q1 -2 39.5 -56l68 -96.5l63 -92.5t44.5 -70zM272 775 l68 95q4 6 12 6h27q15 0 15 -14q0 -7 -4 -11l-85 -95q-5 -5 -11 -5h-10q-15 0 -15 14q0 5 3 10z" />
<glyph unicode="&#xde;" horiz-adv-x="596" d="M255 550q83 0 142.5 -19t90.5 -51.5t44.5 -68.5t13.5 -78q0 -99 -73 -151.5t-181 -52.5h-148v-114q0 -6 -4.5 -10.5t-10.5 -4.5h-24q-6 0 -10.5 4.5t-4.5 10.5v650q0 6 4.5 10.5t10.5 4.5h24q6 0 10.5 -4.5t4.5 -10.5v-118q46 3 111 3zM299 180q85 0 137.5 42.5 t52.5 112.5q0 69 -52 116.5t-168 47.5q-65 0 -125 -5v-314h155z" />
<glyph unicode="&#xdf;" horiz-adv-x="586" d="M545 131q0 -68 -48 -103.5t-121 -35.5q-82 0 -164 35q-10 5 -10 14q0 6 4 10l15 20q5 5 12 5q4 0 6 -1q71 -32 127 -32q54 0 89 21t35 64q0 56 -118 91q-95 27 -136.5 54.5t-41.5 76.5q0 17 18.5 35.5t40.5 31t57 29.5q36 18 55.5 29.5t38 29t18.5 33.5q0 49 -49 77.5 t-108 28.5q-142 0 -142 -109v-520q0 -6 -4.5 -10.5t-10.5 -4.5h-22q-6 0 -10.5 4.5t-4.5 10.5v520q0 80 55 116.5t139 36.5q28 0 60 -7.5t66 -23t56.5 -47t22.5 -72.5q0 -20 -11.5 -38.5t-35 -35.5t-42 -27.5t-49.5 -26.5l-32.5 -16.5t-24 -14t-19.5 -16t-6 -14.5 q0 -44 137 -82q80 -23 119 -54.5t39 -81.5z" />
<glyph unicode="&#xe0;" d="M445 61h-6q-68 -69 -169 -69q-100 0 -165 68.5t-65 176.5q0 107 68.5 176t168.5 69q85 0 166 -47l5 27q2 12 15 12h9q6 0 10.5 -4.5t4.5 -10.5v-278q0 -68 16 -164q0 -17 -15 -17h-16q-13 0 -15 12zM435 145v240q-67 46 -158 46q-80 0 -131.5 -53.5t-51.5 -140.5 t48.5 -140.5t127.5 -53.5q65 0 108 27t57 75zM252 674l68 -94q3 -4 3 -10q0 -14 -15 -14h-10q-6 0 -11 5l-85 94q-4 4 -4 11q0 14 15 14h27q8 0 12 -6z" />
<glyph unicode="&#xe1;" d="M445 61h-6q-68 -69 -169 -69q-100 0 -165 68.5t-65 176.5q0 107 68.5 176t168.5 69q85 0 166 -47l5 27q2 12 15 12h9q6 0 10.5 -4.5t4.5 -10.5v-278q0 -68 16 -164q0 -17 -15 -17h-16q-13 0 -15 12zM435 145v240q-67 46 -158 46q-80 0 -131.5 -53.5t-51.5 -140.5 t48.5 -140.5t127.5 -53.5q65 0 108 27t57 75zM239 579l68 95q4 6 12 6h27q15 0 15 -14q0 -7 -4 -11l-85 -95q-5 -5 -11 -5h-10q-15 0 -15 14q0 5 3 10z" />
<glyph unicode="&#xe2;" d="M445 61h-6q-68 -69 -169 -69q-100 0 -165 68.5t-65 176.5q0 107 68.5 176t168.5 69q85 0 166 -47l5 27q2 12 15 12h9q6 0 10.5 -4.5t4.5 -10.5v-278q0 -68 16 -164q0 -17 -15 -17h-16q-13 0 -15 12zM435 145v240q-67 46 -158 46q-80 0 -131.5 -53.5t-51.5 -140.5 t48.5 -140.5t127.5 -53.5q65 0 108 27t57 75zM284 648l-48 -81q-13 -12 -21 -12h-16q-16 0 -16 14q0 2 2 6l65 95q7 10 18 10h32q11 0 18 -10l66 -95q2 -4 2 -6q0 -14 -17 -14h-15q-12 0 -21 13l-28 45z" />
<glyph unicode="&#xe3;" d="M445 61h-6q-68 -69 -169 -69q-100 0 -165 68.5t-65 176.5q0 107 68.5 176t168.5 69q85 0 166 -47l5 27q2 12 15 12h9q6 0 10.5 -4.5t4.5 -10.5v-278q0 -68 16 -164q0 -17 -15 -17h-16q-13 0 -15 12zM435 145v240q-67 46 -158 46q-80 0 -131.5 -53.5t-51.5 -140.5 t48.5 -140.5t127.5 -53.5q65 0 108 27t57 75zM226 663q31 0 66 -23q32 -21 49 -21q18 0 25 29q4 11 15 11h11q15 0 15 -15q-5 -32 -22 -50t-41 -18q-32 0 -67 21q-33 23 -49 23q-15 0 -24 -29q-4 -11 -15 -11h-11q-15 0 -15 15q5 32 22 50t41 18z" />
<glyph unicode="&#xe4;" d="M445 61h-6q-68 -69 -169 -69q-100 0 -165 68.5t-65 176.5q0 107 68.5 176t168.5 69q85 0 166 -47l5 27q2 12 15 12h9q6 0 10.5 -4.5t4.5 -10.5v-278q0 -68 16 -164q0 -17 -15 -17h-16q-13 0 -15 12zM435 145v240q-67 46 -158 46q-80 0 -131.5 -53.5t-51.5 -140.5 t48.5 -140.5t127.5 -53.5q65 0 108 27t57 75zM331 619q0 18 11.5 29.5t29.5 11.5q17 0 28.5 -11.5t11.5 -29.5t-12 -29.5t-30 -11.5q-17 0 -28 11.5t-11 29.5zM153 619q0 18 11.5 29.5t29.5 11.5q17 0 28.5 -11.5t11.5 -29.5q0 -17 -12 -29t-29 -12t-28.5 11.5t-11.5 29.5z " />
<glyph unicode="&#xe5;" d="M445 61h-6q-68 -69 -169 -69q-100 0 -165 68.5t-65 176.5q0 107 68.5 176t168.5 69q85 0 166 -47l5 27q2 12 15 12h9q6 0 10.5 -4.5t4.5 -10.5v-278q0 -68 16 -164q0 -17 -15 -17h-16q-13 0 -15 12zM435 145v240q-67 46 -158 46q-80 0 -131.5 -53.5t-51.5 -140.5 t48.5 -140.5t127.5 -53.5q65 0 108 27t57 75zM375 619q0 -35 -26.5 -60.5t-63.5 -25.5t-63.5 25.5t-26.5 60.5q0 36 26.5 61.5t63.5 25.5t63.5 -25.5t26.5 -61.5zM340 619q0 23 -16 39t-39 16t-38.5 -16t-15.5 -39t16 -39t38 -16q23 0 39 16t16 39z" />
<glyph unicode="&#xe6;" horiz-adv-x="925" d="M884 239q-2 -14 -15 -14h-386q4 -86 58.5 -134t134.5 -48q74 0 159 30q2 1 5 1q10 0 14 -11l7 -22q0 -1 0.5 -2t0.5 -2q0 -11 -10 -14q-83 -31 -176 -31q-64 0 -116 26t-82 75h-6q-27 -38 -77 -69.5t-118 -31.5q-100 0 -168.5 69t-68.5 176t68.5 176t168.5 69 q107 0 191 -18q10 -2 12 -14l5 -58h5q25 45 77 67.5t107 22.5q95 0 153 -56.5t58 -147.5q0 -26 -1 -39zM435 115v301q-73 15 -158 15q-80 0 -131.5 -53.5t-51.5 -140.5q0 -86 51.5 -140t131.5 -54q97 0 158 72zM486 273h347q0 76 -44 117t-113 41q-75 0 -126.5 -40.5 t-63.5 -117.5z" />
<glyph unicode="&#xe7;" horiz-adv-x="472" d="M287 43q63 0 125 23q2 1 5 1q11 0 14 -11l7 -22v-2l1 -2q0 -11 -10 -14q-63 -24 -142 -24q-109 0 -178 68t-69 177t69 177t178 68q79 0 142 -24q10 -3 10 -14l-1 -2v-2l-6 -22q-3 -11 -14 -11q-3 0 -5 1q-63 23 -126 23q-85 0 -139 -51.5t-54 -142.5t54 -142.5t139 -51.5 zM285 -62l11 26q2 6 2 8q0 9 -12 9h-7q-9 0 -16 -12l-17 -38q-2 -6 -2 -8q0 -12 13 -14q50 -7 50 -38q0 -16 -15 -27.5t-34 -11.5q-14 0 -33 4q-1 0 -2.5 0.5t-2.5 0.5q-10 0 -13 -12l-2 -7v-4q0 -11 13 -14q18 -4 33 -4q43 0 71.5 19t28.5 58q0 21 -17 40t-49 25z" />
<glyph unicode="&#xe8;" horiz-adv-x="536" d="M446 73q2 1 5 1q10 0 14 -11l7 -22q0 -1 0.5 -2t0.5 -2q0 -11 -10 -14q-83 -31 -176 -31q-108 0 -177.5 68.5t-69.5 176.5q0 109 68.5 177t176.5 68q95 0 153 -56.5t58 -147.5q0 -26 -1 -39q-2 -14 -15 -14h-386q4 -86 58.5 -134t134.5 -48q74 0 159 30zM98 273h344v10 q0 69 -43 108.5t-112 39.5q-75 0 -127 -40.5t-62 -117.5zM257 674l68 -94q3 -4 3 -10q0 -14 -15 -14h-10q-6 0 -11 5l-85 94q-4 4 -4 11q0 14 15 14h27q8 0 12 -6z" />
<glyph unicode="&#xe9;" horiz-adv-x="536" d="M446 73q2 1 5 1q10 0 14 -11l7 -22q0 -1 0.5 -2t0.5 -2q0 -11 -10 -14q-83 -31 -176 -31q-108 0 -177.5 68.5t-69.5 176.5q0 109 68.5 177t176.5 68q95 0 153 -56.5t58 -147.5q0 -26 -1 -39q-2 -14 -15 -14h-386q4 -86 58.5 -134t134.5 -48q74 0 159 30zM98 273h344v10 q0 69 -43 108.5t-112 39.5q-75 0 -127 -40.5t-62 -117.5zM247 579l68 95q4 6 12 6h27q15 0 15 -14q0 -7 -4 -11l-85 -95q-5 -5 -11 -5h-10q-15 0 -15 14q0 5 3 10z" />
<glyph unicode="&#xea;" horiz-adv-x="536" d="M446 73q2 1 5 1q10 0 14 -11l7 -22q0 -1 0.5 -2t0.5 -2q0 -11 -10 -14q-83 -31 -176 -31q-108 0 -177.5 68.5t-69.5 176.5q0 109 68.5 177t176.5 68q95 0 153 -56.5t58 -147.5q0 -26 -1 -39q-2 -14 -15 -14h-386q4 -86 58.5 -134t134.5 -48q74 0 159 30zM98 273h344v10 q0 69 -43 108.5t-112 39.5q-75 0 -127 -40.5t-62 -117.5zM290 648l-48 -81q-13 -12 -21 -12h-16q-16 0 -16 14q0 2 2 6l65 95q7 10 18 10h32q11 0 18 -10l66 -95q2 -4 2 -6q0 -14 -17 -14h-15q-12 0 -21 13l-28 45z" />
<glyph unicode="&#xeb;" horiz-adv-x="536" d="M446 73q2 1 5 1q10 0 14 -11l7 -22q0 -1 0.5 -2t0.5 -2q0 -11 -10 -14q-83 -31 -176 -31q-108 0 -177.5 68.5t-69.5 176.5q0 109 68.5 177t176.5 68q95 0 153 -56.5t58 -147.5q0 -26 -1 -39q-2 -14 -15 -14h-386q4 -86 58.5 -134t134.5 -48q74 0 159 30zM98 273h344v10 q0 69 -43 108.5t-112 39.5q-75 0 -127 -40.5t-62 -117.5zM337 619q0 18 11.5 29.5t29.5 11.5q17 0 28.5 -11.5t11.5 -29.5t-12 -29.5t-30 -11.5q-17 0 -28 11.5t-11 29.5zM159 619q0 18 11.5 29.5t29.5 11.5q17 0 28.5 -11.5t11.5 -29.5q0 -17 -12 -29t-29 -12t-28.5 11.5 t-11.5 29.5z" />
<glyph unicode="&#xec;" horiz-adv-x="195" d="M124 459v-444q0 -6 -4.5 -10.5t-10.5 -4.5h-22q-6 0 -10.5 4.5t-4.5 10.5v444q0 6 4.5 10.5t10.5 4.5h22q6 0 10.5 -4.5t4.5 -10.5zM55 674l68 -94q3 -4 3 -10q0 -14 -15 -14h-10q-6 0 -11 5l-85 94q-4 4 -4 11q0 14 15 14h27q8 0 12 -6z" />
<glyph unicode="&#xed;" horiz-adv-x="196" d="M124 459v-444q0 -6 -4.5 -10.5t-10.5 -4.5h-22q-6 0 -10.5 4.5t-4.5 10.5v444q0 6 4.5 10.5t10.5 4.5h22q6 0 10.5 -4.5t4.5 -10.5zM75 579l68 95q4 6 12 6h27q15 0 15 -14q0 -7 -4 -11l-85 -95q-5 -5 -11 -5h-10q-15 0 -15 14q0 5 3 10z" />
<glyph unicode="&#xee;" horiz-adv-x="196" d="M124 459v-444q0 -6 -4.5 -10.5t-10.5 -4.5h-22q-6 0 -10.5 4.5t-4.5 10.5v444q0 6 4.5 10.5t10.5 4.5h22q6 0 10.5 -4.5t4.5 -10.5zM99 648l-48 -81q-13 -12 -21 -12h-16q-16 0 -16 14q0 2 2 6l65 95q7 10 18 10h32q11 0 18 -10l66 -95q2 -4 2 -6q0 -14 -17 -14h-15 q-12 0 -21 13l-28 45z" />
<glyph unicode="&#xef;" horiz-adv-x="196" d="M124 459v-444q0 -6 -4.5 -10.5t-10.5 -4.5h-22q-6 0 -10.5 4.5t-4.5 10.5v444q0 6 4.5 10.5t10.5 4.5h22q6 0 10.5 -4.5t4.5 -10.5zM147 619q0 18 11.5 29.5t29.5 11.5q17 0 28.5 -11.5t11.5 -29.5t-12 -29.5t-30 -11.5q-17 0 -28 11.5t-11 29.5zM-31 619q0 18 11.5 29.5 t29.5 11.5q17 0 28.5 -11.5t11.5 -29.5q0 -17 -12 -29t-29 -12t-28.5 11.5t-11.5 29.5z" />
<glyph unicode="&#xf0;" horiz-adv-x="584" d="M500 640l-108 -51q142 -144 142 -352q0 -103 -71.5 -174t-175.5 -71t-175.5 71t-71.5 174t71.5 174t175.5 71q83 0 158 -60l4 3q-36 76 -102 142l-112 -52q-2 -1 -6 -1q-8 0 -13 8l-3 6q-2 6 -2 8q0 7 8 12l97 47q-52 40 -108 69q-8 5 -8 13q0 7 6 12l13 11q2 2 9 2 q5 0 7 -1q72 -38 127 -85l123 60q4 2 6 2q8 0 13 -9l3 -8q2 -4 2 -7q0 -10 -9 -14zM480 237q0 90 -53 142t-140 52q-82 0 -137.5 -53t-55.5 -141t55.5 -141t137.5 -53t137.5 53t55.5 141z" />
<glyph unicode="&#xf1;" horiz-adv-x="546" d="M474 297v-282q0 -6 -4.5 -10.5t-10.5 -4.5h-22q-6 0 -10.5 4.5t-4.5 10.5v267q0 69 -33 109t-115 40q-89 0 -150 -72v-344q0 -6 -4.5 -10.5t-10.5 -4.5h-22q-6 0 -10.5 4.5t-4.5 10.5v444q0 6 4.5 10.5t10.5 4.5h11q13 0 15 -13l6 -43h6q33 31 76 47.5t81 16.5 q96 0 144 -52t48 -133zM222 663q31 0 66 -23q32 -21 49 -21q18 0 25 29q4 11 15 11h11q15 0 15 -15q-5 -32 -22 -50t-41 -18q-32 0 -67 21q-33 23 -49 23q-15 0 -24 -29q-4 -11 -15 -11h-11q-15 0 -15 15q5 32 22 50t41 18z" />
<glyph unicode="&#xf2;" horiz-adv-x="574" d="M287 482q108 0 177.5 -68.5t69.5 -176.5t-69.5 -176.5t-177.5 -68.5t-177.5 68.5t-69.5 176.5t69.5 176.5t177.5 68.5zM287 43q85 0 139 51.5t54 142.5t-54 142.5t-139 51.5t-139 -51.5t-54 -142.5t54 -142.5t139 -51.5zM258 674l68 -94q3 -4 3 -10q0 -14 -15 -14h-10 q-6 0 -11 5l-85 94q-4 4 -4 11q0 14 15 14h27q8 0 12 -6z" />
<glyph unicode="&#xf3;" horiz-adv-x="574" d="M287 482q108 0 177.5 -68.5t69.5 -176.5t-69.5 -176.5t-177.5 -68.5t-177.5 68.5t-69.5 176.5t69.5 176.5t177.5 68.5zM287 43q85 0 139 51.5t54 142.5t-54 142.5t-139 51.5t-139 -51.5t-54 -142.5t54 -142.5t139 -51.5zM253 579l68 95q4 6 12 6h27q15 0 15 -14 q0 -7 -4 -11l-85 -95q-5 -5 -11 -5h-10q-15 0 -15 14q0 5 3 10z" />
<glyph unicode="&#xf4;" horiz-adv-x="574" d="M287 482q108 0 177.5 -68.5t69.5 -176.5t-69.5 -176.5t-177.5 -68.5t-177.5 68.5t-69.5 176.5t69.5 176.5t177.5 68.5zM287 43q85 0 139 51.5t54 142.5t-54 142.5t-139 51.5t-139 -51.5t-54 -142.5t54 -142.5t139 -51.5zM291 648l-48 -81q-13 -12 -21 -12h-16 q-16 0 -16 14q0 2 2 6l65 95q7 10 18 10h32q11 0 18 -10l66 -95q2 -4 2 -6q0 -14 -17 -14h-15q-12 0 -21 13l-28 45z" />
<glyph unicode="&#xf5;" horiz-adv-x="574" d="M287 482q108 0 177.5 -68.5t69.5 -176.5t-69.5 -176.5t-177.5 -68.5t-177.5 68.5t-69.5 176.5t69.5 176.5t177.5 68.5zM287 43q85 0 139 51.5t54 142.5t-54 142.5t-139 51.5t-139 -51.5t-54 -142.5t54 -142.5t139 -51.5zM230 663q31 0 66 -23q32 -21 49 -21q18 0 25 29 q4 11 15 11h11q15 0 15 -15q-5 -32 -22 -50t-41 -18q-32 0 -67 21q-33 23 -49 23q-15 0 -24 -29q-4 -11 -15 -11h-11q-15 0 -15 15q5 32 22 50t41 18z" />
<glyph unicode="&#xf6;" horiz-adv-x="574" d="M287 482q108 0 177.5 -68.5t69.5 -176.5t-69.5 -176.5t-177.5 -68.5t-177.5 68.5t-69.5 176.5t69.5 176.5t177.5 68.5zM287 43q85 0 139 51.5t54 142.5t-54 142.5t-139 51.5t-139 -51.5t-54 -142.5t54 -142.5t139 -51.5zM338 619q0 18 11.5 29.5t29.5 11.5 q17 0 28.5 -11.5t11.5 -29.5t-12 -29.5t-30 -11.5q-17 0 -28 11.5t-11 29.5zM160 619q0 18 11.5 29.5t29.5 11.5q17 0 28.5 -11.5t11.5 -29.5q0 -17 -12.5 -29t-28.5 -12q-17 0 -28.5 11.5t-11.5 29.5z" />
<glyph unicode="&#xf7;" horiz-adv-x="546" d="M48 260h450q12 0 12 -12v-22q0 -12 -12 -12h-450q-12 0 -12 12v22q0 12 12 12zM273 367q-17 0 -28 10.5t-11 27.5t11 28t28 11q18 0 28.5 -11t10.5 -28t-10.5 -27.5t-28.5 -10.5zM273 30q-17 0 -28 10.5t-11 27.5q0 18 11 28.5t28 10.5q18 0 28.5 -10.5t10.5 -28.5 q0 -17 -10.5 -27.5t-28.5 -10.5z" />
<glyph unicode="&#xf8;" horiz-adv-x="574" d="M490 481l-38 -54q82 -68 82 -189q0 -108 -69.5 -177t-177.5 -69q-64 0 -121 29l-39 -56q-4 -6 -12 -6q-5 0 -10 3l-18 12q-7 5 -7 11q0 3 3 8l39 56q-82 76 -82 189q0 108 69.5 176.5t177.5 68.5q67 0 120 -27l39 55q5 7 12 7q4 0 8 -3l20 -13q7 -5 7 -13q0 -3 -3 -8z M152 91l226 323q-36 18 -91 18q-85 0 -139 -51.5t-54 -142.5q0 -93 58 -147zM480 238q0 92 -59 147l-225 -322q42 -20 91 -20q85 0 139 52t54 143z" />
<glyph unicode="&#xf9;" horiz-adv-x="546" d="M72 177v282q0 6 4.5 10.5t10.5 4.5h22q6 0 10.5 -4.5t4.5 -10.5v-267q0 -69 33 -109t115 -40q89 0 150 72v344q0 6 4.5 10.5t10.5 4.5h22q6 0 10.5 -4.5t4.5 -10.5v-444q0 -6 -4.5 -10.5t-10.5 -4.5h-11q-13 0 -15 13l-6 43h-6q-31 -30 -75.5 -47t-81.5 -17 q-96 0 -144 52t-48 133zM237 674l68 -94q3 -4 3 -10q0 -14 -15 -14h-10q-6 0 -11 5l-85 94q-4 4 -4 11q0 14 15 14h27q8 0 12 -6z" />
<glyph unicode="&#xfa;" horiz-adv-x="546" d="M72 177v282q0 6 4.5 10.5t10.5 4.5h22q6 0 10.5 -4.5t4.5 -10.5v-267q0 -69 33 -109t115 -40q89 0 150 72v344q0 6 4.5 10.5t10.5 4.5h22q6 0 10.5 -4.5t4.5 -10.5v-444q0 -6 -4.5 -10.5t-10.5 -4.5h-11q-13 0 -15 13l-6 43h-6q-31 -30 -75.5 -47t-81.5 -17 q-96 0 -144 52t-48 133zM218 582l68 95q4 6 12 6h27q15 0 15 -14q0 -7 -4 -11l-85 -95q-5 -5 -11 -5h-10q-15 0 -15 14q0 6 3 10z" />
<glyph unicode="&#xfb;" horiz-adv-x="546" d="M72 177v282q0 6 4.5 10.5t10.5 4.5h22q6 0 10.5 -4.5t4.5 -10.5v-267q0 -69 33 -109t115 -40q89 0 150 72v344q0 6 4.5 10.5t10.5 4.5h22q6 0 10.5 -4.5t4.5 -10.5v-444q0 -6 -4.5 -10.5t-10.5 -4.5h-11q-13 0 -15 13l-6 43h-6q-31 -30 -75.5 -47t-81.5 -17 q-96 0 -144 52t-48 133zM267 648l-48 -81q-13 -12 -21 -12h-16q-16 0 -16 14q0 2 2 6l65 95q7 10 18 10h32q11 0 18 -10l66 -95q2 -4 2 -6q0 -14 -17 -14h-15q-12 0 -21 13l-28 45z" />
<glyph unicode="&#xfc;" horiz-adv-x="546" d="M72 177v282q0 6 4.5 10.5t10.5 4.5h22q6 0 10.5 -4.5t4.5 -10.5v-267q0 -69 33 -109t115 -40q89 0 150 72v344q0 6 4.5 10.5t10.5 4.5h22q6 0 10.5 -4.5t4.5 -10.5v-444q0 -6 -4.5 -10.5t-10.5 -4.5h-11q-13 0 -15 13l-6 43h-6q-31 -30 -75.5 -47t-81.5 -17 q-96 0 -144 52t-48 133zM313 619q0 18 11.5 29.5t29.5 11.5q17 0 28.5 -11.5t11.5 -29.5t-12 -29.5t-30 -11.5q-17 0 -28 11.5t-11 29.5zM135 619q0 18 11.5 29.5t29.5 11.5q17 0 28.5 -11.5t11.5 -29.5q0 -17 -12 -29t-29 -12t-28.5 11.5t-11.5 29.5z" />
<glyph unicode="&#xfd;" horiz-adv-x="488" d="M213 19l-188 434q-2 4 -2 7q0 14 16 14h22q10 0 14 -9q130 -293 165 -394h6q35 101 164 394q4 9 14 9h23q16 0 16 -14q0 -3 -2 -7l-227 -511q-24 -54 -78.5 -92.5t-123.5 -59.5q-2 -1 -5 -1q-11 0 -14 12l-5 20q0 10 11 14q122 34 166 125zM206 579l68 95q4 6 12 6h27 q15 0 15 -14q0 -7 -4 -11l-85 -95q-5 -5 -11 -5h-10q-15 0 -15 14q0 5 3 10z" />
<glyph unicode="&#xfe;" d="M519 237q0 -107 -68.5 -176t-168.5 -69q-83 0 -158 42v-225q0 -6 -4.5 -10.5t-10.5 -4.5h-22q-6 0 -10.5 4.5t-4.5 10.5v855q0 6 4.5 10.5t10.5 4.5h22q6 0 10.5 -4.5t4.5 -10.5v-244h4q75 62 154 62q101 0 169 -69t68 -176zM465 237q0 86 -51.5 140t-131.5 54 q-97 0 -158 -72v-270q68 -46 158 -46q80 0 131.5 53.5t51.5 140.5z" />
<glyph unicode="&#xff;" horiz-adv-x="488" d="M213 19l-188 434q-2 4 -2 7q0 14 16 14h22q10 0 14 -9q130 -293 165 -394h6q35 101 164 394q4 9 14 9h23q16 0 16 -14q0 -3 -2 -7l-227 -511q-24 -54 -78.5 -92.5t-123.5 -59.5q-2 -1 -5 -1q-11 0 -14 12l-5 20q0 10 11 14q122 34 166 125zM292 619q0 18 11.5 29.5 t29.5 11.5q17 0 28.5 -11.5t11.5 -29.5t-12 -29.5t-30 -11.5q-17 0 -28 11.5t-11 29.5zM114 619q0 18 11.5 29.5t29.5 11.5q17 0 28.5 -11.5t11.5 -29.5q0 -17 -12.5 -29t-28.5 -12q-17 0 -28.5 11.5t-11.5 29.5z" />
<glyph unicode="&#x152;" horiz-adv-x="1197" d="M798 51h339q6 0 10.5 -4.5t4.5 -10.5v-21q0 -6 -4.5 -10.5t-10.5 -4.5h-378q-6 0 -10.5 4.5t-4.5 10.5v143l-3 1q-44 -78 -125 -122.5t-190 -44.5q-169 0 -272.5 99t-103.5 248t104.5 249t271.5 100q109 0 190 -45t126 -125l2 1v146q0 6 4.5 10.5t10.5 4.5h371 q6 0 10.5 -4.5t4.5 -10.5v-21q0 -6 -4.5 -10.5t-10.5 -4.5h-332v-249h295q6 0 10.5 -4.5t4.5 -10.5v-21q0 -6 -4.5 -10.5t-10.5 -4.5h-295v-278zM426 45q142 0 230 82.5t88 211.5q0 130 -88 213t-230 83q-141 0 -229 -83t-88 -213q0 -129 88 -211.5t229 -82.5z" />
<glyph unicode="&#x153;" horiz-adv-x="976" d="M935 239q-2 -14 -15 -14h-386q4 -86 58.5 -134t134.5 -48q74 0 159 30q2 1 5 1q10 0 14 -11l7 -22q0 -1 0.5 -2t0.5 -2q0 -11 -10 -14q-83 -31 -176 -31q-76 0 -134 36t-85 99h-4q-61 -135 -217 -135q-108 0 -177.5 68.5t-69.5 176.5t69.5 176.5t177.5 68.5 q156 0 217 -135h4q28 64 85 99.5t132 35.5q95 0 153 -56.5t58 -147.5q0 -26 -1 -39zM480 237q0 91 -54 142.5t-139 51.5t-139 -51.5t-54 -142.5t54 -142.5t139 -51.5t139 51.5t54 142.5zM538 273h346q0 76 -44 117t-113 41q-75 0 -127.5 -40t-61.5 -118z" />
<glyph unicode="&#x178;" horiz-adv-x="613" d="M304 359h6q11 20 44 70l63.5 93l68 96t39.5 56q4 6 12 6h28q15 0 15 -14q0 -6 -3 -10l-243 -351v-290q0 -6 -4.5 -10.5t-10.5 -4.5h-24q-6 0 -10.5 4.5t-4.5 10.5v291l-244 351q-3 4 -3 9q0 14 15 14h29q8 0 12 -6q1 -2 39.5 -56l68 -96.5l63 -92.5t44.5 -70zM357 818 q0 18 11.5 29.5t29.5 11.5q17 0 28.5 -11.5t11.5 -29.5t-12 -29.5t-30 -11.5q-17 0 -28 11.5t-11 29.5zM179 818q0 18 11.5 29.5t29.5 11.5q17 0 28.5 -11.5t11.5 -29.5q0 -16 -12 -28.5t-29 -12.5t-28.5 11.5t-11.5 29.5z" />
<glyph unicode="&#x2c6;" horiz-adv-x="300" d="M151 648l-48 -81q-13 -12 -21 -12h-16q-16 0 -16 14q0 2 2 6l65 95q7 10 18 10h32q11 0 18 -10l66 -95q2 -4 2 -6q0 -14 -17 -14h-15q-12 0 -21 13l-28 45z" />
<glyph unicode="&#x2dc;" horiz-adv-x="300" d="M91 663q31 0 66 -23q31 -21 49 -21t25 29q4 11 15 11h11q15 0 15 -15q-5 -32 -22 -50t-41 -18q-32 0 -67 21q-33 23 -49 23q-15 0 -24 -29q-4 -11 -15 -11h-11q-15 0 -15 15q5 32 22 50t41 18z" />
<glyph unicode="&#x2000;" horiz-adv-x="453" />
<glyph unicode="&#x2001;" horiz-adv-x="907" />
<glyph unicode="&#x2002;" horiz-adv-x="453" />
<glyph unicode="&#x2003;" horiz-adv-x="907" />
<glyph unicode="&#x2004;" horiz-adv-x="302" />
<glyph unicode="&#x2005;" horiz-adv-x="226" />
<glyph unicode="&#x2006;" horiz-adv-x="151" />
<glyph unicode="&#x2007;" horiz-adv-x="151" />
<glyph unicode="&#x2008;" horiz-adv-x="113" />
<glyph unicode="&#x2009;" horiz-adv-x="181" />
<glyph unicode="&#x200a;" horiz-adv-x="50" />
<glyph unicode="&#x2010;" horiz-adv-x="395" d="M345 243v-23q0 -6 -4.5 -10.5t-10.5 -4.5h-265q-6 0 -10.5 4.5t-4.5 10.5v23q0 6 4.5 10.5t10.5 4.5h265q6 0 10.5 -4.5t4.5 -10.5z" />
<glyph unicode="&#x2011;" horiz-adv-x="395" d="M345 243v-23q0 -6 -4.5 -10.5t-10.5 -4.5h-265q-6 0 -10.5 4.5t-4.5 10.5v23q0 6 4.5 10.5t10.5 4.5h265q6 0 10.5 -4.5t4.5 -10.5z" />
<glyph unicode="&#x2013;" horiz-adv-x="583" d="M563 246v-18q0 -6 -4.5 -10.5t-10.5 -4.5h-513q-6 0 -10.5 4.5t-4.5 10.5v18q0 6 4.5 10.5t10.5 4.5h513q6 0 10.5 -4.5t4.5 -10.5z" />
<glyph unicode="&#x2014;" horiz-adv-x="1055" d="M1035 246v-18q0 -6 -4.5 -10.5t-10.5 -4.5h-985q-6 0 -10.5 4.5t-4.5 10.5v18q0 6 4.5 10.5t10.5 4.5h985q6 0 10.5 -4.5t4.5 -10.5z" />
<glyph unicode="&#x2018;" horiz-adv-x="199" d="M143 692l12 -7q7 -5 7 -12q0 -3 -2 -7q-54 -95 -54 -178q0 -15 -11 -24t-26 -9t-26 9t-11 24q0 69 92 200q4 6 12 6q3 0 7 -2z" />
<glyph unicode="&#x2019;" horiz-adv-x="189" d="M69 451l-12 7q-7 5 -7 12q0 3 2 7q53 93 53 178q0 15 11 24t26 9t26 -9t11 -24q0 -71 -91 -200q-4 -6 -12 -6q-3 0 -7 2z" />
<glyph unicode="&#x201a;" horiz-adv-x="199" d="M58 -171l-12 7q-7 5 -7 12q0 3 2 7q53 93 53 178q0 15 11 24t26 9t26 -9t11 -24q0 -71 -91 -200q-4 -6 -12 -6q-3 0 -7 2z" />
<glyph unicode="&#x201c;" horiz-adv-x="332" d="M121 692l12 -7q7 -5 7 -12q0 -3 -2 -7q-53 -93 -53 -178q0 -15 -11 -24t-26 -9t-26 9t-11 24q0 68 91 200q4 6 12 6q3 0 7 -2zM277 692l12 -7q7 -5 7 -12q0 -3 -2 -7q-54 -95 -54 -178q0 -15 -11 -24t-26 -9t-26 9t-11 24q0 69 92 200q4 6 12 6q3 0 7 -2z" />
<glyph unicode="&#x201d;" horiz-adv-x="332" d="M213 451l-12 7q-7 5 -7 12q0 3 2 7q53 93 53 178q0 15 11 24t26 9t26 -9t11 -24q0 -68 -91 -200q-4 -6 -12 -6q-3 0 -7 2zM58 451l-12 7q-7 5 -7 12q0 3 2 7q53 93 53 178q0 15 11 24t26 9t26 -9t11 -24q0 -71 -91 -200q-4 -6 -12 -6q-3 0 -7 2z" />
<glyph unicode="&#x201e;" horiz-adv-x="332" d="M213 -171l-12 7q-7 5 -7 12q0 3 2 7q53 93 53 178q0 15 11 24t26 9t26 -9t11 -24q0 -68 -91 -200q-4 -6 -12 -6q-3 0 -7 2zM58 -171l-12 7q-7 5 -7 12q0 3 2 7q53 93 53 178q0 15 11 24t26 9t26 -9t11 -24q0 -71 -91 -200q-4 -6 -12 -6q-3 0 -7 2z" />
<glyph unicode="&#x2022;" horiz-adv-x="322" d="M159 452q47 0 80 -33t33 -79q0 -47 -33 -80t-80 -33q-45 0 -77 33t-32 80q0 46 32 79t77 33z" />
<glyph unicode="&#x2026;" horiz-adv-x="774" d="M172 29q0 -37 -43 -37t-43 37t43 37t43 -37zM430 29q0 -37 -43 -37t-43 37t43 37t43 -37zM688 29q0 -37 -43 -37t-43 37t43 37t43 -37z" />
<glyph unicode="&#x202f;" horiz-adv-x="181" />
<glyph unicode="&#x2039;" horiz-adv-x="234" d="M166 474h23q15 0 15 -15q0 -2 -2 -8l-125 -215l125 -214q2 -6 2 -8q0 -14 -15 -14h-23q-9 0 -13 8l-129 221q-2 4 -2 8t2 8l129 222q3 7 13 7z" />
<glyph unicode="&#x203a;" horiz-adv-x="234" d="M45 474h23q9 0 13 -8l129 -221q1 -2 1 -8t-1 -8l-129 -222q-3 -7 -13 -7h-23q-15 0 -15 15q0 5 2 8l125 215l-125 214q-2 3 -2 8q0 14 15 14z" />
<glyph unicode="&#x205f;" horiz-adv-x="226" />
<glyph unicode="&#x20ac;" horiz-adv-x="633" d="M593 60l6 -22l1 -2v-2q0 -11 -10 -14q-77 -28 -156 -28q-129 0 -218.5 62.5t-113.5 188.5h-47q-6 0 -10.5 4.5t-4.5 10.5v19q0 6 4.5 10.5t10.5 4.5h39q-2 32 -2 48q0 24 3 49h-40q-6 0 -10.5 4.5t-4.5 10.5v18q0 6 4.5 10.5t10.5 4.5h48q22 124 112.5 187.5t218.5 63.5 q83 0 156 -28q10 -4 10 -14l-5 -23q-3 -14 -13 -14q-2 0 -8 2q-70 25 -140 25q-103 0 -174 -49t-98 -150h336q6 0 10.5 -4.5t4.5 -10.5v-18q0 -6 -4.5 -10.5t-10.5 -4.5h-344q-3 -33 -3 -49q0 -18 2 -48h345q6 0 10.5 -4.5t4.5 -10.5v-19q0 -6 -4.5 -10.5t-10.5 -4.5h-336 q24 -99 96.5 -149t175.5 -50q71 0 140 26q2 1 5 1q11 0 14 -11z" />
<glyph unicode="&#x2122;" horiz-adv-x="645" d="M252 647h-90v-239q0 -12 -12 -12h-15q-12 0 -12 12v239h-91q-12 0 -12 12v9q0 12 12 12h220q12 0 12 -12v-9q0 -12 -12 -12zM547 626l-102 -132q-3 -5 -7 -5t-7 5l-103 130l-8 -216q0 -12 -12 -12h-15q-12 0 -12 12l10 260q0 12 12 12h17q12 0 19 -9l98 -126l99 126 q6 9 21 9h15q12 0 12 -12l11 -260q0 -12 -12 -12h-14q-12 0 -12 12q-7 175 -10 218z" />
</font>
</defs>
</svg>
