<?xml version="1.0" standalone="no"?>
<!DOCTYPE svg PUBLIC "-//W3C//DTD SVG 1.1//EN" "http://www.w3.org/Graphics/SVG/1.1/DTD/svg11.dtd" >
<svg xmlns="http://www.w3.org/2000/svg">
<metadata>
This is a custom SVG webfont generated by Fontspring.
Designer    : Nicholas Garner
Foundry     : Aviation Partners
Foundry URL : http://www.codesign.co.uk
</metadata>
<defs>
<font id="webfontIWgpyS9i" horiz-adv-x="618" >
<font-face units-per-em="1000" ascent="800" descent="-200" />
<missing-glyph horiz-adv-x="280" />
<glyph unicode=" "  horiz-adv-x="280" />
<glyph unicode="&#x09;" horiz-adv-x="280" />
<glyph unicode="&#xa0;" horiz-adv-x="280" />
<glyph unicode="!" horiz-adv-x="264" d="M138 190h-11q-10 0 -17 7t-8 17l-19 440q1 11 8 18.5t17 7.5h48q10 0 17 -7.5t8 -18.5l-18 -440q-1 -10 -8 -17t-17 -7zM195 46q0 -26 -16.5 -40t-46.5 -14q-29 0 -46 14.5t-17 39.5t17 39.5t46 14.5q30 0 46.5 -14t16.5 -40z" />
<glyph unicode="&#x22;" horiz-adv-x="353" d="M88 680h35q11 0 18 -7.5t7 -18.5l-14 -213q-1 -10 -8 -17t-17 -7h-9q-10 0 -17 7t-8 17q-1 37 -12 213q0 11 7.5 18.5t17.5 7.5zM231 680h33q10 0 17.5 -7.5t7.5 -18.5q0 -34 -4.5 -104.5t-4.5 -107.5q0 -10 -7 -17.5t-18 -7.5h-8q-10 0 -17 6.5t-8 16.5l-16 213 q0 11 7 19t18 8z" />
<glyph unicode="#" horiz-adv-x="616" d="M546 345h-78l-30 -172h65q11 0 18 -7.5t7 -17.5v-22q0 -10 -7 -17.5t-18 -7.5h-78q-3 -14 -9.5 -52.5t-10.5 -57.5q-2 -6 -2 -10q0 -11 -7 -18t-17 -7h-5l-19 3q-21 3 -21 25v4l19 113h-147l-22 -124q-3 -21 -25 -21h-4l-18 3q-21 3 -21 25v4l19 113h-65q-10 0 -17.5 7.5 t-7.5 17.5v22q0 10 7.5 17.5t17.5 7.5h77l31 172h-65q-11 0 -18 7.5t-7 17.5v22q0 10 7 17.5t18 7.5h77l22 122q3 21 25 21h4l19 -3q21 -3 21 -25v-4l-19 -111h145l24 124q3 20 25 20h4l19 -3q21 -3 21 -25v-4l-19 -112h65q10 0 17.5 -7.5t7.5 -17.5v-22q0 -10 -7.5 -17.5 t-17.5 -7.5zM365 173l31 172h-147l-30 -172h146z" />
<glyph unicode="$" horiz-adv-x="604" d="M547 181q0 -75 -54.5 -124.5t-145.5 -61.5v-69q0 -10 -7.5 -17.5t-17.5 -7.5h-37q-11 0 -18 7.5t-7 17.5v67q-97 8 -182 48q-14 7 -14 24v4q2 7 11 36q5 19 23 19q6 0 12 -3q87 -43 180 -43q69 0 110 27.5t41 72.5q0 41 -42 71t-112 59q-41 17 -61 26t-55 29t-52.5 38.5 t-32 48t-14.5 63.5q0 69 52.5 115.5t135.5 56.5v70q0 11 7 18t18 7h37q10 0 17.5 -7t7.5 -18v-68q78 -9 140 -35q15 -7 15 -23v-4l-11 -39q-6 -16 -24 -16q-3 0 -9 2q-75 32 -142 32q-60 0 -99.5 -24t-39.5 -66q0 -18 9.5 -33t34.5 -30.5t43 -24.5t60 -27q37 -16 58 -26 t51 -26.5t47 -32t34.5 -35.5t25 -44.5t7.5 -53.5z" />
<glyph unicode="%" horiz-adv-x="895" d="M656 641l-364 -629q-6 -12 -22 -12h-12q-12 0 -19 7t-7 17q0 7 4 14l166 287l197 341q7 13 22 13h13q12 0 19 -7t7 -17q0 -7 -4 -14zM193 688q71 0 118 -60t47 -150q0 -91 -47.5 -150t-117.5 -59q-69 0 -116 60t-47 150t46.5 149.5t116.5 59.5zM193 328q38 0 64.5 43.5 t26.5 107.5q0 63 -26 106.5t-65 43.5q-38 0 -64 -43.5t-26 -106.5q0 -64 26.5 -107.5t63.5 -43.5zM701 410q72 0 118 -59.5t46 -149.5q0 -91 -47 -150t-117 -59t-117 59t-47 150q0 90 46 149.5t118 59.5zM701 50q38 0 64.5 44t26.5 107t-26.5 107t-64.5 44t-64 -44t-26 -107 q0 -64 26 -107.5t64 -43.5z" />
<glyph unicode="&#x26;" horiz-adv-x="773" d="M670 347l36 -6q25 -2 25 -23q0 -8 -4 -15q-58 -94 -125 -163l104 -96q9 -8 9 -19q0 -10 -7 -17.5t-19 -7.5h-41q-24 0 -42 17l-74 67q-115 -93 -244 -93q-103 0 -171 46t-68 127q0 114 174 204v4q-99 95 -99 164q0 70 57 111t139 41q79 0 136 -41.5t57 -108.5 q0 -49 -39 -95t-107 -84v-5l173 -158q63 70 107 139q10 12 23 12zM471 140l-190 175q-132 -85 -132 -148q0 -42 42.5 -69.5t100.5 -27.5q90 0 179 70zM308 412q54 31 83.5 64.5t29.5 59.5q0 34 -29.5 56t-72.5 22q-41 0 -71 -22.5t-30 -54.5q0 -42 90 -125z" />
<glyph unicode="'" horiz-adv-x="212" d="M88 680h35q10 0 17 -7.5t8 -18.5l-11 -214q-1 -10 -8 -16.5t-17 -6.5h-9q-10 0 -17 6.5t-8 16.5l-15 213q0 11 7 19t18 8z" />
<glyph unicode="(" horiz-adv-x="317" d="M219 679h29q12 0 19 -6.5t7 -16.5q0 -7 -4 -14q-51 -90 -79 -183.5t-28 -222.5t28 -222.5t79 -182.5q4 -7 4 -14q0 -10 -7 -16.5t-19 -6.5h-29q-13 0 -20 11q-126 180 -126 431q0 250 126 432q7 11 20 11z" />
<glyph unicode=")" horiz-adv-x="316" d="M67 680h30q14 0 21 -11q125 -184 125 -432q0 -252 -126 -432q-7 -11 -20 -11h-30q-12 0 -19 6.5t-7 16.5q0 7 4 14q51 90 79 183.5t28 222.5q0 131 -27.5 222.5t-79.5 183.5q-4 7 -4 14q0 10 7 16.5t19 6.5z" />
<glyph unicode="*" horiz-adv-x="480" d="M434 460q18 -5 18 -24q0 -4 -2 -10l-10 -22q-6 -16 -23 -16q-6 0 -12 3l-54.5 30.5l-55.5 31.5l-8 -8l63 -111q4 -8 4 -12q0 -17 -16 -23l-23 -9q-6 -2 -10 -2q-17 0 -24 18q-8 25 -34 122h-12l-34 -123q-3 -18 -23 -18q-4 0 -10 2l-23 10q-15 5 -15 22q0 7 3 13 q20 40 62 110l-9 9l-110 -63q-8 -4 -12 -4q-17 0 -23 16l-9 23q-2 6 -2 10q0 17 18 24l121 33v13l-122 33q-18 5 -18 23q0 4 2 10l9 23q6 16 24 16q6 0 12 -3l110 -63l8 9l-63 111q-4 8 -4 12q0 17 16 23l23 9q6 2 10 2q17 0 24 -18q10 -32 34 -122h12l34 123q3 18 24 18 q3 0 9 -2l23 -10q15 -6 15 -22q0 -7 -3 -13q-20 -40 -62 -110l9 -9l110 63q8 4 12 4q17 0 23 -16l9 -23q2 -6 2 -10q0 -17 -18 -24q-25 -8 -122 -34v-12z" />
<glyph unicode="+" d="M546 248v-22q0 -10 -7 -17.5t-18 -7.5h-177v-176q0 -11 -7 -18t-18 -7h-21q-10 0 -17.5 7t-7.5 18v176h-176q-11 0 -18 7.5t-7 17.5v22q0 10 7 17.5t18 7.5h176v176q0 11 7.5 18t17.5 7h21q11 0 18 -7t7 -18v-176h177q11 0 18 -7.5t7 -17.5z" />
<glyph unicode="," horiz-adv-x="237" d="M78 -182l-25 11q-16 6 -16 23q0 3 2 9q42 101 42 189q0 22 16 36t40 14t40.5 -14t16.5 -36q0 -82 -85 -222q-7 -12 -22 -12q-3 0 -9 2z" />
<glyph unicode="-" horiz-adv-x="408" d="M360 251v-31q0 -10 -7 -17.5t-18 -7.5h-261q-10 0 -17.5 7.5t-7.5 17.5v31q0 11 7.5 18t17.5 7h261q11 0 18 -7t7 -18z" />
<glyph unicode="." horiz-adv-x="234" d="M195 46q0 -26 -16.5 -40t-46.5 -14q-29 0 -46 14.5t-17 39.5t17 39.5t46 14.5q30 0 46.5 -14t16.5 -40z" />
<glyph unicode="/" horiz-adv-x="359" d="M330 646l-229 -703q-6 -17 -24 -17h-24q-11 0 -18 7t-7 18q0 5 1 8l229 703q6 17 24 17h24q11 0 18.5 -7t7.5 -17q0 -3 -2 -9z" />
<glyph unicode="0" horiz-adv-x="616" d="M308 688q118 0 194 -99t76 -249q0 -151 -77.5 -250t-192.5 -99q-116 0 -193.5 99t-77.5 250q0 150 76 249t195 99zM308 76q68 0 116.5 76.5t48.5 187.5q0 110 -48 186.5t-117 76.5t-117 -76.5t-48 -186.5q0 -111 48 -187.5t117 -76.5z" />
<glyph unicode="1" d="M383 81h158q11 0 18 -7.5t7 -17.5v-31q0 -11 -7 -18t-18 -7h-421q-10 0 -17.5 7t-7.5 18v31q0 10 7.5 17.5t17.5 7.5h157v502l-157 -96q-5 -4 -14 -4q-18 0 -23 17l-7 23l-2 12q0 15 13 22l192 110q26 13 53 13h26q10 0 17.5 -7t7.5 -18v-574z" />
<glyph unicode="2" d="M280 250q160 144 160 231q0 55 -37 88.5t-99 33.5q-72 0 -167 -58q-8 -5 -14 -5q-18 0 -23 20q-9 32 -9 33q-1 2 -1 7q0 18 11 22q111 66 206 66q105 0 171.5 -56.5t66.5 -145.5q0 -128 -202 -306l-114 -99h291q10 0 17.5 -7.5t7.5 -17.5v-31q0 -11 -7.5 -18t-17.5 -7 h-423q-11 0 -18 7t-7 18v24q0 11 8 19q174 157 200 182z" />
<glyph unicode="3" d="M68 81l10 35q4 21 20 21q6 0 16 -5q107 -55 188 -55q67 0 107 31t40 87q0 22 -7 38.5t-25.5 33.5t-59 27t-100.5 11q-10 0 -17 7.5t-7 17.5v36q0 10 7 17t17 8q84 5 129 39.5t45 78.5q0 42 -33 68t-87 26q-75 0 -178 -45q-6 -3 -13 -3q-17 0 -22 19l-11 35q0 1 -0.5 2 t-0.5 2q0 16 16 23q123 52 210 52q99 0 162 -50t63 -127q0 -42 -27 -84t-79 -66v-7q60 -17 91.5 -60t31.5 -99q0 -93 -69.5 -148t-182.5 -55q-99 0 -221 61q-14 8 -14 21q0 5 1 7z" />
<glyph unicode="4" horiz-adv-x="616" d="M492 251h55q11 0 18 -7.5t7 -17.5v-30q0 -10 -7 -17.5t-18 -7.5h-55v-146q0 -11 -7 -18t-18 -7h-51q-10 0 -17.5 7t-7.5 18v146h-323q-10 0 -17.5 7.5t-7.5 17.5v32q0 22 13 41l330 402q7 9 19 9h62q11 0 18 -7t7 -18v-404zM395 555h-8l-95 -123l-140 -177v-6q48 2 78 2 h161v181q0 80 4 123z" />
<glyph unicode="5" d="M280 458q118 0 190 -65t72 -168q0 -97 -79.5 -165t-188.5 -68q-84 0 -174 22q-19 3 -19 24q0 5 1 7l9 33q5 18 24 18q1 0 3 -0.5t3 -0.5q77 -18 143 -18q73 0 123 44.5t50 103.5q0 65 -44.5 106.5t-128.5 41.5q-62 0 -115 -10h-5q-11 0 -18 7.5t-7 19.5l26 267 q1 9 8.5 16t16.5 7h323q11 0 18 -7t7 -18v-30q0 -11 -7 -18t-18 -7h-251q-14 -137 -15 -145q30 3 53 3z" />
<glyph unicode="6" horiz-adv-x="616" d="M581 225q0 -106 -78 -169.5t-196 -63.5t-195.5 63.5t-77.5 169.5q0 225 291 443q18 12 37 12h39q11 0 18 -7.5t7 -17.5q0 -13 -11 -20q-116 -82 -210 -202l3 -4q44 29 106 29q116 0 191.5 -65t75.5 -168zM475 225q0 66 -44.5 107t-123.5 41q-168 0 -168 -148 q0 -66 45 -107.5t123 -41.5t123 41.5t45 107.5z" />
<glyph unicode="7" horiz-adv-x="617" d="M87 680h476q11 0 18 -7t7 -18v-23q0 -21 -10 -37l-314 -582q-2 -4 -9.5 -8.5t-12.5 -4.5h-58q-11 0 -18.5 7t-7.5 17q0 5 4 13l312 562h-331v-105q0 -10 -7.5 -17.5t-17.5 -7.5h-31q-11 0 -18 7.5t-7 17.5v161q0 11 7 18t18 7z" />
<glyph unicode="8" d="M413 361v-4q147 -51 147 -173q0 -83 -71 -137.5t-181 -54.5t-180.5 54t-70.5 138q0 125 147 175v4q-55 19 -90 57.5t-35 90.5q0 75 66.5 126t162.5 51q97 0 163.5 -51t66.5 -126q0 -52 -34.5 -90t-90.5 -60zM308 604q-51 0 -88 -23.5t-37 -69.5q0 -37 33.5 -65.5 t91.5 -37.5q58 9 92 38t34 65q0 45 -38 69t-88 24zM308 76q67 0 106.5 30.5t39.5 77.5t-41 82.5t-105 45.5q-63 -10 -104.5 -45.5t-41.5 -82.5t39.5 -77.5t106.5 -30.5z" />
<glyph unicode="9" horiz-adv-x="616" d="M34 455q0 106 78 169.5t196 63.5t195.5 -63.5t77.5 -169.5q0 -227 -291 -443q-17 -12 -38 -12h-38q-11 0 -18 7.5t-7 17.5q0 13 11 20q116 82 210 202l-3 4q-43 -29 -106 -29q-116 0 -191.5 65t-75.5 168zM140 455q0 -66 44.5 -107t123.5 -41q168 0 168 148 q0 66 -45 107.5t-123 41.5t-123 -41.5t-45 -107.5z" />
<glyph unicode=":" horiz-adv-x="234" d="M195 370q0 -26 -16.5 -40t-46.5 -14q-29 0 -46 14.5t-17 39.5t17 39.5t46 14.5q30 0 46.5 -14t16.5 -40zM195 46q0 -26 -16.5 -40t-46.5 -14q-29 0 -46 14.5t-17 39.5t17 39.5t46 14.5q30 0 46.5 -14t16.5 -40z" />
<glyph unicode=";" horiz-adv-x="241" d="M201 370q0 -26 -17 -40.5t-46 -14.5q-30 0 -47 14.5t-17 40.5q0 25 17.5 39.5t46.5 14.5t46 -14.5t17 -39.5zM138 100q26 0 42 -13.5t16 -35.5q0 -29 -22 -62l-61 -107l-22 -39q-7 -13 -26 -13l-18 5q-21 3 -21 24q0 5 1 7l47 177q11 57 64 57z" />
<glyph unicode="&#x3c;" d="M166 239v-7q144 -58 357 -159q14 -6 14 -23q0 -5 -1 -8l-8 -19q-6 -17 -23 -17q-7 0 -11 2l-407 188q-5 2 -10 9.5t-5 13.5v33q0 17 16 23l405 188q4 2 11 2q18 0 24 -17l8 -20q1 -2 1 -7q0 -17 -15 -24q-257 -118 -356 -158z" />
<glyph unicode="=" d="M97 372h424q11 0 18 -7t7 -18v-22q0 -11 -7 -18t-18 -7h-424q-11 0 -18 7t-7 18v22q0 11 7 18t18 7zM97 174h424q11 0 18 -7t7 -18v-22q0 -11 -7 -18t-18 -7h-424q-11 0 -18 7t-7 18v22q0 11 7 18t18 7z" />
<glyph unicode="&#x3e;" d="M443 232v7q-44 18 -133 57.5l-156 69.5l-67 31q-15 7 -15 24q0 5 1 7l8 20q6 17 24 17q7 0 11 -2l405 -188q16 -6 16 -23v-33q0 -6 -5 -13.5t-10 -9.5l-407 -188q-4 -2 -11 -2q-17 0 -23 17l-8 19q-1 3 -1 8q0 17 14 23q213 101 357 159z" />
<glyph unicode="?" horiz-adv-x="458" d="M49 611l-5 22q0 1 -0.5 2.5t-0.5 2.5q0 17 16 24q67 26 146 26q99 0 152 -42.5t53 -103.5q0 -47 -26 -85t-81 -90q-39 -37 -58 -72t-23 -82q-1 -10 -8 -16.5t-17 -6.5h-21q-24 0 -24 36q0 101 65 165q49 48 70.5 78.5t21.5 61.5q0 39 -33 61.5t-93 22.5q-52 0 -100 -20 q-4 -2 -11 -2q-17 0 -23 18zM191 -8q-29 0 -46 14.5t-17 39.5t17 39.5t46 14.5t46.5 -14.5t17.5 -39.5t-17.5 -39.5t-46.5 -14.5z" />
<glyph unicode="@" horiz-adv-x="773" d="M473 -47q2 1 7 1q19 0 24 -19l5 -14q0 -1 0.5 -3t0.5 -3q0 -19 -18 -24q-51 -15 -109 -15q-157 0 -251 102t-94 258q0 155 95.5 258.5t250.5 103.5q149 0 247.5 -94.5t98.5 -235.5q0 -108 -51.5 -165.5t-118.5 -57.5q-33 0 -59.5 19.5t-34.5 60.5h-6q-19 -40 -54 -60 t-71 -20q-52 0 -85.5 36.5t-33.5 104.5q0 110 58 176t129 66q65 0 129 -39q12 -7 12 -21v-4q-22 -121 -22 -173q0 -82 49 -82q34 0 62.5 33.5t28.5 120.5q0 114 -73 192.5t-205 78.5q-124 0 -200.5 -83t-76.5 -215t74.5 -214t202.5 -82q45 0 89 13zM471 343q-35 22 -69 22 q-40 0 -77 -46.5t-37 -124.5q0 -40 18.5 -62.5t46.5 -22.5q33 0 60 36.5t41.5 89.5t16.5 108z" />
<glyph unicode="A" horiz-adv-x="753" d="M722 35q3 -6 3 -12q0 -10 -7 -16.5t-19 -6.5h-56q-17 0 -23 15l-66 153h-355l-66 -153q-6 -15 -23 -15h-56q-12 0 -19 7t-7 17q0 6 3 12l289 629q2 5 9.5 10t13.5 5h67q6 0 13.5 -5t9.5 -10zM233 248h287q-135 315 -140 341h-8q-2 -12 -36 -97l-69 -164z" />
<glyph unicode="B" horiz-adv-x="673" d="M464 371v-5q67 -15 116 -61t49 -113q0 -200 -338 -200q-121 0 -179 5q-10 1 -16.5 8t-6.5 17v635q0 10 6.5 17t16.5 8q74 6 171 6q66 0 117 -10.5t82.5 -27t51.5 -39.5t27.5 -46t7.5 -49q0 -46 -28 -85.5t-77 -59.5zM188 604v-209h123q68 0 113 30.5t45 76.5 q0 107 -174 107q-57 0 -107 -5zM522 199q0 51 -51.5 83t-142.5 32h-140v-236q57 -5 126 -5q208 0 208 126z" />
<glyph unicode="C" horiz-adv-x="711" d="M666 99l10 -35q1 -2 1 -7q0 -17 -15 -23q-105 -42 -211 -42q-175 0 -288.5 96t-113.5 252t113.5 252t288.5 96q106 0 211 -42q16 -5 16 -23q0 -1 -0.5 -3t-0.5 -3l-10 -36q-5 -19 -23 -19q-4 0 -10 2q-94 40 -180 40q-134 0 -217 -75t-83 -189t83 -189t217 -75 q91 0 179 40q6 2 10 2q18 0 23 -19z" />
<glyph unicode="D" horiz-adv-x="799" d="M751 339q0 -153 -116 -250t-340 -97q-99 0 -183 6q-10 1 -16.5 8t-6.5 17v635q0 10 6.5 17t16.5 8q65 5 186 5q224 0 338.5 -97.5t114.5 -251.5zM189 602v-524q49 -3 126 -3q155 0 242.5 69.5t87.5 194.5q0 128 -87.5 197.5t-242.5 69.5q-22 0 -126 -4z" />
<glyph unicode="E" horiz-adv-x="582" d="M88 25v630q0 11 7 18t18 7h394q11 0 18 -7t7 -18v-32q0 -11 -7 -18t-18 -7h-319v-204h282q10 0 17.5 -7t7.5 -18v-29q0 -10 -7.5 -17.5t-17.5 -7.5h-282v-234h324q10 0 17.5 -7.5t7.5 -17.5v-31q0 -11 -7.5 -18t-17.5 -7h-399q-11 0 -18 7t-7 18z" />
<glyph unicode="F" horiz-adv-x="554" d="M88 25v630q0 11 7 18t18 7h381q10 0 17.5 -7t7.5 -18v-32q0 -11 -7.5 -18t-17.5 -7h-306v-204h277q11 0 18 -7t7 -18v-30q0 -11 -7 -18t-18 -7h-277v-289q0 -11 -7 -18t-18 -7h-50q-11 0 -18 7t-7 18z" />
<glyph unicode="G" horiz-adv-x="799" d="M481 362h204q11 0 18 -7t7 -18v-296q0 -8 -5.5 -15t-13.5 -9q-42 -10 -119 -17.5t-122 -7.5q-175 0 -288.5 96t-113.5 252q0 155 113.5 251.5t288.5 96.5q109 0 212 -43q15 -5 15 -23q0 -4 -1 -6l-11 -37q-6 -17 -24 -17q-4 0 -10 2q-90 39 -177 39q-134 0 -217 -74.5 t-83 -188.5t83 -189t217 -75q73 0 156 16v190h-129q-11 0 -18 7t-7 18v30q0 11 7 18t18 7z" />
<glyph unicode="H" horiz-adv-x="792" d="M88 25v630q0 11 7 18t18 7h50q11 0 18 -7t7 -18v-263h415v263q0 11 7.5 18t17.5 7h50q10 0 17.5 -7t7.5 -18v-630q0 -11 -7.5 -18t-17.5 -7h-50q-10 0 -17.5 7t-7.5 18v285h-415v-285q0 -11 -7 -18t-18 -7h-50q-11 0 -18 7t-7 18z" />
<glyph unicode="I" horiz-adv-x="462" d="M59 25v25q0 10 7.5 17.5t17.5 7.5h96v529h-96q-10 0 -17.5 7t-7.5 18v26q0 11 7.5 18t17.5 7h294q10 0 17.5 -7t7.5 -18v-26q0 -11 -7.5 -18t-17.5 -7h-97v-529h97q10 0 17.5 -7.5t7.5 -17.5v-25q0 -11 -7.5 -18t-17.5 -7h-294q-10 0 -17.5 7t-7.5 18z" />
<glyph unicode="J" horiz-adv-x="479" d="M290 175v430h-164q-10 0 -17.5 7.5t-7.5 17.5v25q0 11 7.5 18t17.5 7h239q11 0 18 -7t7 -18v-480q0 -85 -53.5 -134t-143.5 -49q-63 0 -135 30q-15 7 -15 24v4l9 31q3 20 23 20q7 0 13 -3q36 -18 95 -18q47 0 77 25.5t30 69.5z" />
<glyph unicode="K" horiz-adv-x="693" d="M643 43q8 -7 8 -19q0 -10 -6.5 -17t-18.5 -7h-52q-23 0 -40 17q-294 284 -340 336h-5v-328q0 -11 -7.5 -18t-17.5 -7h-50q-10 0 -17.5 7t-7.5 18v630q0 11 7.5 18t17.5 7h50q10 0 17.5 -7t7.5 -18v-258h6q18 19 87 86l129 125l60 57q17 15 36 15h49q12 0 19 -7t7 -17 q0 -12 -9 -19l-283 -258z" />
<glyph unicode="L" horiz-adv-x="563" d="M88 25v630q0 11 7 18t18 7h50q11 0 18 -7t7 -18v-575h331q11 0 18 -7t7 -18v-30q0 -11 -7 -18t-18 -7h-406q-11 0 -18 7t-7 18z" />
<glyph unicode="M" horiz-adv-x="943" d="M744 553h-4l-248 -309q-7 -10 -20 -10t-20 10l-248 309h-4q-1 -71 -8 -293t-8 -236q-1 -10 -8 -17t-17 -7h-48q-10 0 -17.5 7t-7.5 17l24 632q1 10 8 17t17 7h67q12 0 19 -9l251 -312l251 312q7 9 19 9h67q10 0 17 -7t8 -17l25 -630q-1 -11 -8 -18.5t-17 -7.5h-48 q-10 0 -17 7t-8 17q-1 15 -8.5 237t-8.5 292z" />
<glyph unicode="N" horiz-adv-x="812" d="M653 680h45q10 0 17.5 -7t7.5 -18v-630q0 -11 -7.5 -18t-17.5 -7h-63q-13 0 -20 9l-429 537h-6q3 -29 3 -98v-423q0 -11 -7.5 -18t-17.5 -7h-45q-11 0 -18 7t-7 18v630q0 11 7 18t18 7h68q13 0 20 -10l425 -535h6q0 9 -1 55t-1 54l-2 411q0 11 7 18t18 7z" />
<glyph unicode="O" horiz-adv-x="865" d="M432 77q127 0 203 72.5t76 189.5q0 118 -76 191t-203 73q-126 0 -202 -73t-76 -191q0 -117 76 -189.5t202 -72.5zM432 688q175 0 279.5 -100.5t104.5 -248.5q0 -149 -104.5 -248t-279.5 -99t-279.5 99t-104.5 248q0 148 104.5 248.5t279.5 100.5z" />
<glyph unicode="P" horiz-adv-x="625" d="M188 252v-227q0 -11 -7 -18t-18 -7h-50q-11 0 -18 7t-7 18v633q0 10 6.5 17t16.5 8q58 5 172 5q158 0 230.5 -63.5t72.5 -157.5q0 -98 -73 -156.5t-178 -58.5h-147zM188 333h124q76 0 123 37t47 98q0 58 -44.5 98t-141.5 40q-58 0 -108 -5v-268z" />
<glyph unicode="Q" horiz-adv-x="866" d="M522 3q52 -48 201 -54q24 -2 24 -25v-5l-8 -31q-1 -8 -9.5 -14t-16.5 -6q-119 4 -199.5 39t-117.5 87q-161 11 -254 108.5t-93 237.5q0 148 104 248t279 100q176 0 280.5 -100t104.5 -248q0 -124 -80.5 -220t-214.5 -117zM711 340q0 117 -76 190t-203 73q-126 0 -202 -73 t-76 -190q0 -118 76 -190.5t202 -72.5q127 0 203 72.5t76 190.5z" />
<glyph unicode="R" horiz-adv-x="671" d="M586 124l55 -85q4 -7 4 -15q0 -10 -7 -17t-18 -7h-57q-21 0 -35 22l-52 90q-43 74 -97 121.5t-98 47.5h-93v-256q0 -11 -7 -18t-18 -7h-50q-11 0 -18 7t-7 18v632q0 10 6.5 17t16.5 8q72 6 172 6q81 0 141 -19t91 -50.5t45 -65.5t14 -71q0 -57 -45.5 -105.5t-104.5 -68.5 v-5q78 -45 162 -179zM470 481q0 51 -42.5 88t-131.5 37q-58 0 -108 -5v-241h101q84 0 132.5 33t48.5 88z" />
<glyph unicode="S" horiz-adv-x="574" d="M43 69l11 36q5 19 23 19q6 0 12 -3q87 -43 180 -43q69 0 110 27.5t41 72.5q0 21 -13.5 40.5t-41 37t-50 29t-58.5 27.5q-37 16 -48.5 21.5l-41 20.5t-40.5 23.5t-30 25t-26 31t-13.5 35.5t-6.5 44q0 82 70 128.5t172 46.5q88 0 173 -35q15 -7 15 -24q0 -4 -1 -6l-10 -35 q-5 -18 -23 -18q-4 0 -10 2q-76 31 -142 31q-60 0 -99.5 -24t-39.5 -66q0 -18 9.5 -33t34.5 -30.5t43 -24.5t60 -27q46 -20 69.5 -31.5t58 -33t52 -41t30.5 -48.5t13 -63q0 -88 -70.5 -138.5t-177.5 -50.5q-112 0 -220 49q-15 7 -15 24v4z" />
<glyph unicode="T" horiz-adv-x="625" d="M610 655v-32q0 -11 -7 -18t-18 -7h-221v-573q0 -11 -7 -18t-18 -7h-51q-10 0 -17.5 7t-7.5 18v573h-224q-11 0 -18 7t-7 18v32q0 11 7 18t18 7h546q11 0 18 -7t7 -18z" />
<glyph unicode="U" horiz-adv-x="810" d="M647 680h50q11 0 18 -7t7 -18v-408q0 -109 -92.5 -182t-223.5 -73q-134 0 -225.5 73.5t-91.5 181.5v408q0 11 7.5 18t17.5 7h50q10 0 17.5 -7t7.5 -18v-408q0 -71 63.5 -120.5t153.5 -49.5t153 49.5t63 120.5v408q0 11 7 18t18 7z" />
<glyph unicode="V" horiz-adv-x="753" d="M58 680h59q17 0 23 -15q197 -458 233 -549h7l235 549q6 15 23 15h59q12 0 19 -6.5t7 -16.5q0 -6 -3 -12l-289 -630q-2 -5 -9.5 -10t-13.5 -5h-63q-6 0 -13.5 5t-9.5 10l-287 630q-3 6 -3 11q0 10 7.5 17t18.5 7z" />
<glyph unicode="W" horiz-adv-x="1151" d="M793 15l-213 531h-7l-213 -531q-6 -15 -23 -15h-77q-18 0 -24 17l-205 630q-2 6 -2 9q0 10 7.5 17t18.5 7h56q18 0 24 -18l163 -544h7q36 108 217 547q6 15 23 15h62q17 0 23 -15l218 -547h7l163 544q6 18 24 18h56q11 0 18.5 -7t7.5 -17q0 -3 -2 -9l-205 -630 q-6 -17 -24 -17h-77q-17 0 -23 15z" />
<glyph unicode="X" horiz-adv-x="783" d="M387 427h8q17 22 63 73.5l96.5 107.5l57.5 64q8 8 19 8h59q12 0 18.5 -7t6.5 -17t-7 -18l-255 -282l286 -314q8 -10 8 -18q0 -10 -7 -17t-19 -7h-62q-11 0 -19 8q-4 4 -62 69l-110 123.5t-73 84.5h-7q-21 -26 -73 -84.5l-110 -123.5t-62 -69q-8 -8 -19 -8h-62 q-12 0 -19 7t-7 17q0 8 8 18l285 313l-255 283q-8 10 -8 18q0 10 7 17t19 7h59q11 0 19 -8l57.5 -64l96.5 -107.5t63 -73.5z" />
<glyph unicode="Y" horiz-adv-x="668" d="M331 381h7q11 23 40 69l52.5 80.5l59 85.5t36.5 53q7 11 21 11h55q12 0 19 -7t7 -17q0 -7 -5 -15l-239 -349v-267q0 -11 -7 -18t-18 -7h-50q-11 0 -18 7t-7 18v266l-239 350q-5 8 -5 15q0 10 7 17t19 7h55q14 0 21 -11l37.5 -54l58 -84.5l53.5 -81.5t40 -68z" />
<glyph unicode="Z" horiz-adv-x="680" d="M176 81h432q10 0 17.5 -7.5t7.5 -17.5v-31q0 -11 -7.5 -18t-17.5 -7h-533q-11 0 -18 7t-7 18v25q0 19 15 38l412 507v4h-393q-10 0 -17.5 7.5t-7.5 17.5v31q0 11 7.5 18t17.5 7h497q11 0 18 -7t7 -18v-30q0 -19 -12 -31l-381 -468q-2 -2 -16 -17t-21 -21v-7z" />
<glyph unicode="[" horiz-adv-x="255" d="M231 655v-18q0 -11 -7.5 -18t-17.5 -7h-56v-750h56q10 0 17.5 -7t7.5 -18v-18q0 -11 -7.5 -18t-17.5 -7h-108q-10 0 -17.5 7t-7.5 18v836q0 11 7.5 18t17.5 7h108q10 0 17.5 -7t7.5 -18z" />
<glyph unicode="\" horiz-adv-x="359" d="M53 680h24q18 0 24 -17l229 -704q1 -3 1 -8q0 -11 -7 -18t-18 -7h-24q-18 0 -24 17l-229 704q-1 3 -1 8q0 11 7 18t18 7z" />
<glyph unicode="]" horiz-adv-x="255" d="M24 637v18q0 11 7 18t18 7h107q10 0 17.5 -7t7.5 -18v-836q0 -11 -7.5 -18t-17.5 -7h-107q-11 0 -18 7t-7 18v18q0 11 7 18t18 7h56v750h-56q-11 0 -18 7t-7 18z" />
<glyph unicode="^" horiz-adv-x="560" d="M325 670l187 -418q3 -6 3 -11q0 -10 -7.5 -17t-18.5 -7h-23q-17 0 -23 15l-160 372h-5l-78.5 -180.5t-82.5 -191.5q-6 -15 -23 -15h-25q-11 0 -18.5 7t-7.5 17q0 5 3 11l190 418q2 5 9.5 10t13.5 5h43q6 0 13.5 -5t9.5 -10z" />
<glyph unicode="_" horiz-adv-x="606" d="M581 -143h-556q-11 0 -18 7.5t-7 17.5v20q0 10 7 17.5t18 7.5h556q11 0 18 -7.5t7 -17.5v-20q0 -10 -7 -17.5t-18 -7.5z" />
<glyph unicode="`" horiz-adv-x="321" d="M123 680h18q14 0 21 -11l62 -88q4 -5 4 -11q0 -10 -9 -18.5t-20 -8.5q-9 0 -15 7l-80 89q-7 7 -7 17t7 17t19 7z" />
<glyph unicode="a" horiz-adv-x="591" d="M452 19l-10 45h-8q-63 -72 -167 -72q-100 0 -164.5 67t-64.5 177q0 109 69.5 177.5t171.5 68.5q83 0 164 -45l3 17q1 8 9 14t16 6h25q10 0 17.5 -7t7.5 -18v-253q0 -79 16 -166v-5q0 -11 -7.5 -18t-17.5 -7h-36q-8 0 -15 5.5t-9 13.5zM424 160v209q-62 40 -129 40 q-70 0 -113 -47.5t-43 -125.5q0 -77 40 -123.5t106 -46.5q52 0 89.5 26t49.5 68z" />
<glyph unicode="b" horiz-adv-x="592" d="M553 238q0 -110 -69.5 -178t-176.5 -68q-121 0 -216 19q-8 1 -14 9t-6 16v619q0 11 7.5 18t17.5 7h46q10 0 17.5 -7t7.5 -18v-226h4q29 26 69 39.5t73 13.5q105 0 172.5 -67t67.5 -177zM453 237q0 77 -43 124t-113 47q-74 0 -130 -60v-269q57 -13 130 -13q70 0 113 47 t43 124z" />
<glyph unicode="c" horiz-adv-x="510" d="M305 68q62 0 130 25q6 2 9 2q19 0 24 -19l7 -26q0 -1 0.5 -3t0.5 -3q0 -19 -17 -24q-86 -28 -156 -28q-120 0 -192 66t-72 179t72 179t192 66q80 0 156 -27q17 -6 17 -24q0 -1 -0.5 -2.5t-0.5 -2.5l-8 -27q-3 -20 -24 -20q-5 0 -8 1q-73 26 -130 26q-75 0 -120.5 -44 t-45.5 -125t45.5 -125t120.5 -44z" />
<glyph unicode="d" horiz-adv-x="591" d="M537 29v-5q0 -10 -7 -17t-18 -7h-35q-8 0 -16 6t-9 14l-9 44h-8q-63 -72 -168 -72q-101 0 -164.5 67t-63.5 178q0 108 68.5 176.5t169.5 68.5q79 0 147 -35v208q0 11 7 18t18 7h48q11 0 18 -7t7 -18v-458q0 -78 15 -168zM424 161v208q-60 39 -129 39t-112.5 -47 t-43.5 -124t40.5 -124t106.5 -47q52 0 89 25.5t49 69.5z" />
<glyph unicode="e" horiz-adv-x="567" d="M466 96q3 1 8 1q19 0 24 -19l6 -20q1 -4 1 -10q0 -17 -16 -23q-99 -33 -185 -33q-120 0 -192.5 66t-72.5 179t71 179t191 66q107 0 167 -57.5t60 -150.5q0 -24 -1 -36q-1 -10 -8 -16.5t-17 -6.5h-362q4 -74 51.5 -112t113.5 -38q70 0 161 31zM437 278l1 13q0 56 -38 89 t-96 33q-62 0 -107.5 -34t-54.5 -101h295z" />
<glyph unicode="f" horiz-adv-x="358" d="M268 612q-81 0 -81 -69v-69h110q11 0 18 -7t7 -18v-20q0 -11 -7 -18t-18 -7h-110v-379q0 -11 -7.5 -18t-17.5 -7h-47q-11 0 -18 7t-7 18v379h-35q-11 0 -18 7t-7 18v20q0 11 7 18t18 7h35v73q0 141 155 141q77 0 142 -23q17 -5 17 -24q0 -5 -1 -7l-6 -22q-5 -18 -24 -18 q-5 0 -8 1q-54 17 -97 17z" />
<glyph unicode="g" horiz-adv-x="592" d="M466 474h30q10 0 17.5 -7t7.5 -18v-498q0 -77 -62 -121t-166 -44q-83 0 -183 26q-19 5 -19 24q0 1 0.5 3t0.5 3l7 26q3 19 24 19q5 0 7 -1q83 -24 150 -24q73 0 108.5 23.5t35.5 62.5v106h-6q-57 -47 -139 -47q-107 0 -173.5 60.5t-66.5 169.5q0 110 69.5 177.5 t176.5 67.5q79 0 154 -44l2 14q1 9 8.5 15.5t16.5 6.5zM424 137v232q-60 39 -129 39t-112.5 -47t-43.5 -124q0 -75 42 -115.5t114 -40.5q78 0 129 56z" />
<glyph unicode="h" horiz-adv-x="589" d="M518 305v-280q0 -11 -7 -18t-18 -7h-47q-10 0 -17.5 7t-7.5 18v264q0 119 -123 119q-76 0 -131 -61v-322q0 -11 -7.5 -18t-17.5 -7h-46q-10 0 -17.5 7t-7.5 18v630q0 11 7.5 18t17.5 7h46q10 0 17.5 -7t7.5 -18v-230q73 57 157 57q92 0 143 -48.5t51 -128.5z" />
<glyph unicode="i" horiz-adv-x="238" d="M70 25v424q0 11 7 18t18 7h47q10 0 17.5 -7t7.5 -18v-424q0 -11 -7.5 -18t-17.5 -7h-47q-11 0 -18 7t-7 18zM177 599q0 -22 -15.5 -35t-41.5 -13t-41.5 13t-15.5 35q0 23 15.5 36t41.5 13t41.5 -13t15.5 -36z" />
<glyph unicode="j" horiz-adv-x="240" d="M178 599q0 -22 -16 -35t-42 -13t-41.5 13t-15.5 35q0 23 15.5 36t41.5 13q27 0 42.5 -13t15.5 -36zM97 474h47q10 0 17.5 -7t7.5 -18v-474q0 -73 -54.5 -122t-147.5 -64h-4q-19 0 -24 19l-7 26q-1 2 -1 6q0 20 21 25q58 11 89 38t31 65v481q0 11 7 18t18 7z" />
<glyph unicode="k" horiz-adv-x="545" d="M495 41q8 -10 8 -18q0 -10 -7 -17t-19 -7h-59q-10 0 -18 8q-190 200 -226 258h-7v-241q0 -10 -7.5 -17.5t-17.5 -7.5h-46q-10 0 -17.5 7.5t-7.5 17.5v630q0 10 7.5 17.5t17.5 7.5h46q10 0 17.5 -7.5t7.5 -17.5v-353h7q34 40 196 161q15 11 30 11h42q12 0 19 -7.5t7 -17.5 q0 -11 -11 -20l-195 -149z" />
<glyph unicode="l" horiz-adv-x="321" d="M308 58l7 -26q0 -1 0.5 -3t0.5 -3q0 -19 -19 -24q-40 -10 -82 -10q-144 0 -144 137v526q0 11 7.5 18t17.5 7h46q10 0 17.5 -7t7.5 -18v-513q0 -71 68 -71q25 0 44 4q1 0 3 0.5t3 0.5q18 0 23 -18z" />
<glyph unicode="m" horiz-adv-x="927" d="M857 306v-281q0 -11 -7.5 -18t-17.5 -7h-46q-10 0 -17.5 7t-7.5 18v265q0 118 -123 118q-74 0 -126 -61v-322q0 -11 -7 -18t-18 -7h-45q-10 0 -17.5 7t-7.5 18v265q0 118 -123 118q-72 0 -127 -61v-322q0 -11 -7.5 -18t-17.5 -7h-46q-10 0 -17.5 7t-7.5 18v424 q0 11 7.5 18t17.5 7h26q23 0 25 -22l4 -32h7q71 62 163 62q108 0 162 -69h7q82 69 176 69q91 0 141 -48t50 -128z" />
<glyph unicode="n" horiz-adv-x="589" d="M518 305v-280q0 -11 -7 -18t-18 -7h-47q-10 0 -17.5 7t-7.5 18v264q0 119 -123 119q-76 0 -131 -61v-322q0 -11 -7.5 -18t-17.5 -7h-46q-10 0 -17.5 7t-7.5 18v424q0 11 7.5 18t17.5 7h29q23 0 25 -22l4 -32h8q68 62 162 62q92 0 143 -48.5t51 -128.5z" />
<glyph unicode="o" horiz-adv-x="607" d="M303 482q120 0 192.5 -66t72.5 -179t-72.5 -179t-192.5 -66q-119 0 -191.5 66.5t-72.5 178.5t72.5 178.5t191.5 66.5zM303 66q75 0 119.5 45t44.5 126t-44.5 126t-119.5 45q-74 0 -119 -45t-45 -126t45 -126t119 -45z" />
<glyph unicode="p" horiz-adv-x="592" d="M142 -206h-46q-10 0 -17.5 7t-7.5 18v630q0 11 7.5 18t17.5 7h28q9 0 16.5 -6.5t8.5 -15.5l3 -29h8q33 28 75.5 43.5t77.5 15.5q105 0 172.5 -67t67.5 -178q0 -110 -69.5 -177.5t-176.5 -67.5q-73 0 -140 36v-209q0 -11 -7.5 -18t-17.5 -7zM167 348v-243q60 -39 130 -39 t113 47t43 124t-43 124t-113 47q-74 0 -130 -60z" />
<glyph unicode="q" horiz-adv-x="593" d="M39 236q0 110 69.5 178t176.5 68q122 0 217 -19q8 -1 14 -9t6 -16v-574h96q10 0 17.5 -7t7.5 -18v-20q0 -11 -7.5 -18t-17.5 -7h-168q-10 0 -17.5 7t-7.5 18v226h-4q-58 -53 -142 -53q-105 0 -172.5 67t-67.5 177zM139 237q0 -77 43 -124t113 -47q76 0 130 60v269 q-57 13 -130 13q-69 0 -112.5 -47t-43.5 -124z" />
<glyph unicode="r" horiz-adv-x="424" d="M394 469q19 -5 19 -24q0 -1 -0.5 -3t-0.5 -3l-10 -39q-3 -19 -24 -19q-5 0 -8 1q-50 18 -77 18q-69 0 -126 -59v-316q0 -11 -7.5 -18t-17.5 -7h-46q-10 0 -17.5 7t-7.5 18v424q0 11 7.5 18t17.5 7h29q23 0 25 -22l4 -32h7q61 62 157 62q15 0 76 -13z" />
<glyph unicode="s" horiz-adv-x="443" d="M404 137q0 -71 -55.5 -108t-138.5 -37q-79 0 -165 27q-18 5 -18 24q0 3 2 9l11 26q6 16 23 16q4 0 10 -2q58 -25 122 -25q44 0 76.5 17t32.5 47q0 20 -25.5 36t-72.5 35l-7 3q-10 5 -39 17.5t-45 21.5t-37 24t-30.5 34.5t-9.5 43.5q0 65 52.5 100.5t128.5 35.5 q65 0 140 -25q17 -5 17 -24q0 -3 -2 -9l-9 -25q-6 -16 -23 -16q-3 0 -9 2q-58 22 -107 22q-37 0 -62.5 -14.5t-25.5 -39.5q0 -21 22.5 -35t79.5 -37l52 -21t43 -21.5t38 -27t21.5 -32t9.5 -42.5z" />
<glyph unicode="t" horiz-adv-x="420" d="M398 70l7 -26q0 -1 0.5 -3t0.5 -3q0 -19 -18 -24q-69 -22 -145 -22q-153 0 -153 139v273h-35q-11 0 -18 7t-7 18v20q0 11 7 18t18 7h35v57q0 17 16 23l47 19q8 2 11 2q10 0 16.5 -7t6.5 -18v-76h126q11 0 18 -7t7 -18v-20q0 -11 -7 -18t-18 -7h-126v-262q0 -71 84 -71 q39 0 95 17q2 1 7 1q20 0 25 -19z" />
<glyph unicode="u" horiz-adv-x="589" d="M71 169v280q0 11 7.5 18t17.5 7h46q10 0 17.5 -7t7.5 -18v-264q0 -53 29 -86t95 -33q40 0 74.5 18.5t55.5 42.5v322q0 11 7.5 18t17.5 7h47q11 0 18 -7t7 -18v-424q0 -11 -7 -18t-18 -7h-29q-9 0 -16.5 6.5t-8.5 15.5l-4 32h-9q-68 -62 -161 -62q-92 0 -143 48.5 t-51 128.5z" />
<glyph unicode="v" horiz-adv-x="539" d="M438 474h45q11 0 18.5 -7t7.5 -17q0 -5 -3 -11l-184 -424q-6 -15 -23 -15h-58q-17 0 -23 15l-186 424q-3 6 -3 11q0 10 7.5 17t18.5 7h46q17 0 23 -15q47 -108 91 -220.5t51 -139.5h7q44 135 142 360q6 15 23 15z" />
<glyph unicode="w" horiz-adv-x="822" d="M416 376h-8q-29 -97 -128 -360q-6 -16 -23 -16h-70q-18 0 -24 18l-135 423q-1 3 -1 8q0 11 7 18t18 7h49q18 0 24 -18l97 -359h7q49 160 128 361q6 16 23 16h64q17 0 23 -16q71 -174 128 -361h7q60 237 97 359q6 18 24 18h49q11 0 18 -7t7 -17q0 -5 -1 -8l-135 -425 q-6 -17 -24 -17h-70q-17 0 -23 16q-99 263 -128 360z" />
<glyph unicode="x" horiz-adv-x="586" d="M354 254l191 -212q7 -7 7 -17t-7 -17.5t-19 -7.5h-51q-11 0 -19 8l-158 180h-9l-156 -180q-8 -8 -19 -8h-51q-12 0 -19 7.5t-7 17.5t7 17l191 212l-160 178q-7 7 -7 17t7 17.5t19 7.5h54q12 0 19 -9l124 -147h6l125 147q7 9 19 9h54q12 0 19 -7.5t7 -17.5t-7 -17z" />
<glyph unicode="y" horiz-adv-x="539" d="M507 438l-229 -492q-46 -100 -207 -152q-2 -1 -7 -1q-21 0 -26 20l-3 12l-4 10q-1 2 -1 8q0 21 17 24q105 27 150 109l23 45l-190 418q-3 6 -3 11q0 10 7.5 17t18.5 7h50q17 0 23 -15q106 -240 139 -353h7q34 117 138 353q2 5 9.5 10t13.5 5h51q12 0 19 -7t7 -17 q0 -6 -3 -12z" />
<glyph unicode="z" horiz-adv-x="508" d="M448 408l-268 -336h264q10 0 17.5 -7t7.5 -18v-22q0 -11 -7.5 -18t-17.5 -7h-380q-10 0 -17.5 7t-7.5 18v5q0 15 10 28l273 344h-249q-11 0 -18 7t-7 18v22q0 11 7 18t18 7h358q11 0 18 -7t7 -18v-18q0 -13 -8 -23z" />
<glyph unicode="{" horiz-adv-x="288" d="M256 661l3 -18q0 -18 -18 -24q-35 -10 -49 -35t-14 -72q3 -30 5 -52q6 -54 6 -72q0 -107 -91 -148v-4q91 -41 91 -148q0 -18 -6 -72l-5 -52q0 -47 14 -72t49 -35q18 -7 18 -21l-3 -21q-5 -17 -24 -17q-1 0 -3 0.5t-3 0.5q-56 13 -89 52.5t-33 105.5q0 21 5 68q6 56 6 70 q0 91 -79 111q-19 6 -19 24v16q0 18 19 24q79 20 79 111q0 14 -6 70q-5 47 -5 68q0 65 33.5 105.5t88.5 52.5q1 0 3 0.5t3 0.5q19 0 24 -17z" />
<glyph unicode="|" horiz-adv-x="251" d="M115 680h21q10 0 17.5 -7t7.5 -18v-836q0 -11 -7.5 -18t-17.5 -7h-21q-11 0 -18 7t-7 18v836q0 11 7 18t18 7z" />
<glyph unicode="}" horiz-adv-x="288" d="M25 643l3 18q5 17 24 17q1 0 3 -0.5t3 -0.5q55 -12 88.5 -52.5t33.5 -105.5q0 -21 -5 -68q-6 -56 -6 -70q0 -91 79 -111q19 -6 19 -24v-16q0 -18 -19 -24q-79 -20 -79 -111q0 -14 6 -70q5 -47 5 -68q0 -66 -33 -105.5t-89 -52.5q-1 0 -3 -0.5t-3 -0.5q-19 0 -24 17l-3 21 q0 14 18 21q35 10 49 35t14 72q-3 30 -5 52q-6 54 -6 72q0 107 91 148v4q-91 41 -91 148q0 18 6 72l5 52q0 47 -14 72t-49 35q-18 6 -18 24z" />
<glyph unicode="~" horiz-adv-x="562" d="M415 234q-54 0 -152 49q-81 42 -111 42q-48 0 -55 -63q-1 -9 -8.5 -15.5t-16.5 -6.5h-15q-11 0 -18 7.5t-7 19.5q9 131 117 131q32 0 60.5 -9.5t81.5 -36.5q87 -45 123 -45q24 0 36.5 14.5t15.5 47.5q1 10 8 16.5t17 6.5h15q11 0 18 -7.5t7 -19.5q-10 -131 -116 -131z " />
<glyph unicode="&#xa1;" horiz-adv-x="244" d="M74 -180l18 440q1 10 8 17t17 7h11q10 0 17 -7t8 -17l19 -440q-1 -11 -8 -18.5t-17 -7.5h-48q-10 0 -17.5 7.5t-7.5 18.5zM60 428q0 25 17 39.5t46 14.5t46.5 -14.5t17.5 -39.5t-17.5 -39.5t-46.5 -14.5t-46 14.5t-17 39.5z" />
<glyph unicode="&#xa2;" horiz-adv-x="516" d="M473 525l-5 -17q-3 -25 -24 -25q-4 0 -10 2q-69 26 -129 26q-75 0 -120.5 -45t-45.5 -126t45.5 -126t120.5 -45q59 0 130 26q6 2 9 2q19 0 24 -19l7 -25q0 -1 0.5 -3t0.5 -3q0 -19 -17 -24q-64 -21 -122 -27v-71q0 -11 -7.5 -18t-17.5 -7h-38q-10 0 -17.5 7t-7.5 18v74 q-97 12 -153.5 78.5t-56.5 162.5q0 94 56 161t154 80v74q0 11 7.5 18t17.5 7h38q10 0 17.5 -7t7.5 -18v-72q46 -3 120 -25q6 -2 12 -9.5t6 -15.5q0 -2 -2 -8z" />
<glyph unicode="&#xa3;" horiz-adv-x="620" d="M242 298l-37 -217h326q11 0 18 -7.5t7 -17.5v-31q0 -11 -7 -18t-18 -7h-460q-11 0 -18 7t-7 18v31q0 10 7 17.5t18 7.5h33l37 217h-70q-11 0 -18 7t-7 18v24q0 11 7 18t18 7h81l12 71t11 71q13 82 90.5 128t180.5 46q44 0 98 -13q19 -5 19 -23q0 -1 -0.5 -3t-0.5 -3 l-10 -40q-5 -17 -24 -17q-1 0 -3 0.5t-3 0.5q-54 13 -87 13q-62 0 -107.5 -23.5t-51.5 -65.5l-22 -142h197q11 0 18 -7t7 -18v-24q0 -11 -7 -18t-18 -7h-209z" />
<glyph unicode="&#xa4;" d="M495 132l38 -39q7 -7 7 -18t-7 -18l-14 -14q-8 -8 -18 -8t-18 8l-38 39q-60 -44 -135 -44q-74 0 -134 44l-39 -39q-8 -8 -18 -8t-18 8l-14 14q-8 8 -8 18t8 18l39 39q-44 60 -44 134q0 76 44 134l-39 39q-8 8 -8 18t8 18l14 14q7 7 18 7t18 -7l39 -38q61 43 134 43 q74 0 135 -43l38 38q7 7 18 7t18 -7l14 -14q7 -7 7 -18t-7 -18l-38 -39q44 -60 44 -134t-44 -134zM154 266q0 -65 46 -111t110 -46q65 0 111 46t46 111t-46 111t-111 46t-110.5 -46t-45.5 -111z" />
<glyph unicode="&#xa5;" horiz-adv-x="713" d="M352 380h7q50 95 190 289q7 11 20 11h54q12 0 19 -7t7 -17q0 -7 -5 -15l-139 -203h82q11 0 18 -7t7 -18v-11q0 -10 -7 -17.5t-18 -7.5h-123l-58 -85h181q11 0 18 -7t7 -18v-11q0 -10 -7 -17.5t-18 -7.5h-181v-206q0 -11 -7 -18t-18 -7h-50q-11 0 -18 7t-7 18v206h-181 q-11 0 -18 7.5t-7 17.5v11q0 11 7 18t18 7h181q-4 6 -25.5 36t-33.5 49h-122q-11 0 -18 7.5t-7 17.5v11q0 11 7 18t18 7h81l-138 203q-5 8 -5 15q0 10 7 17t19 7h54q13 0 20 -11l101 -147.5t88 -141.5z" />
<glyph unicode="&#xa6;" horiz-adv-x="231" d="M105 680h21q10 0 17.5 -7t7.5 -18v-318q0 -11 -7.5 -18t-17.5 -7h-21q-11 0 -18 7t-7 18v318q0 11 7 18t18 7zM105 161h21q10 0 17.5 -7.5t7.5 -17.5v-317q0 -11 -7.5 -18t-17.5 -7h-21q-11 0 -18 7t-7 18v317q0 10 7 17.5t18 7.5z" />
<glyph unicode="&#xa7;" horiz-adv-x="497" d="M69 -54l7 28q5 19 24 19q4 0 10 -2q68 -28 122 -28q51 0 82 25.5t31 69.5q0 21 -21.5 40t-45.5 30.5t-68 29.5q-83 33 -127 70.5t-44 96.5q0 67 66 130q-31 36 -31 80q0 64 56 108.5t134 44.5q57 0 130 -22q18 -5 18 -24q0 -1 -0.5 -2.5t-0.5 -2.5l-8 -32q-5 -16 -24 -16 q-5 0 -8 1q-61 21 -107 21q-39 0 -72.5 -22t-33.5 -54q0 -17 12.5 -32t39.5 -30.5t44.5 -23.5t53.5 -23q72 -31 110.5 -67t38.5 -90q0 -72 -61 -130q32 -33 32 -81q0 -75 -55.5 -123.5t-140.5 -48.5q-76 0 -149 31q-15 7 -15 22q0 4 1 7zM163 408q-42 -44 -42 -79 q0 -23 17.5 -41.5t37 -28t61.5 -27.5q73 -32 101 -48q37 46 37 84q0 28 -28 49t-79 44q-95 41 -105 47z" />
<glyph unicode="&#xa8;" horiz-adv-x="317" d="M199 611q0 20 14 34t34 14t33.5 -14t13.5 -34q0 -19 -14 -33t-35 -14q-19 0 -32.5 13.5t-13.5 33.5zM21 611q0 20 14 34t34 14t33.5 -14t13.5 -34q0 -19 -14.5 -33t-33.5 -14q-20 0 -33.5 14t-13.5 33z" />
<glyph unicode="&#xa9;" horiz-adv-x="771" d="M733 339q0 -144 -102 -245.5t-246 -101.5q-145 0 -246.5 101.5t-101.5 245.5q0 145 101.5 247t246.5 102q144 0 246 -102t102 -247zM677 339q0 121 -85.5 207t-206.5 86t-206.5 -86t-85.5 -207t85.5 -206.5t206.5 -85.5t206.5 85.5t85.5 206.5zM476 216q8 3 14 3 q14 0 20 -19l3 -13q0 -16 -17 -23q-54 -21 -106 -21q-82 0 -133.5 51t-51.5 145q0 95 51.5 145.5t133.5 50.5q50 0 105 -19q19 -6 19 -20q0 -1 -0.5 -2.5t-0.5 -2.5l-4 -16q-4 -14 -18 -14q-7 0 -16 3q-43 17 -82 17q-53 0 -87 -39t-34 -103t34 -103t87 -39q37 0 83 19z" />
<glyph unicode="&#xaa;" horiz-adv-x="409" d="M287 557l1 4q3 17 25 17h7q10 0 17.5 -7t7.5 -18v-209q0 -17 16 -25q13 -7 13 -18l-5 -19q-5 -17 -20 -17q-5 0 -9 1q-36 8 -49 38q-51 -40 -113 -40q-65 0 -107 46t-42 113q0 72 45.5 116t116.5 44q46 0 96 -26zM278 352v155q-39 23 -81 23q-44 0 -71 -29t-27 -78 q0 -48 27 -77t71 -29q48 0 81 35z" />
<glyph unicode="&#xab;" horiz-adv-x="622" d="M136 237l116 -199q4 -7 4 -14q0 -10 -7 -17t-19 -7h-46q-5 0 -12.5 4.5t-9.5 8.5l-124 211q-2 3 -2 12q0 10 2 13l124 212q2 4 9.5 8.5t12.5 4.5h46q12 0 19 -7t7 -17q0 -7 -4 -14zM453 237l115 -199q4 -7 4 -14q0 -10 -7 -17t-19 -7h-46q-5 0 -12.5 4.5t-9.5 8.5 l-124 211q-2 3 -2 12q0 10 2 13l124 212q2 4 9.5 8.5t12.5 4.5h46q12 0 19 -7t7 -17q0 -7 -4 -14z" />
<glyph unicode="&#xac;" d="M97 372h423q10 0 17.5 -7t7.5 -18v-184q0 -11 -7.5 -18t-17.5 -7h-21q-11 0 -18 7t-7 18v137h-377q-11 0 -18 7t-7 18v22q0 11 7 18t18 7z" />
<glyph unicode="&#xad;" horiz-adv-x="408" d="M360 251v-31q0 -10 -7 -17.5t-18 -7.5h-261q-10 0 -17.5 7.5t-7.5 17.5v31q0 11 7.5 18t17.5 7h261q11 0 18 -7t7 -18z" />
<glyph unicode="&#xae;" horiz-adv-x="520" d="M481 467q0 -92 -65 -157t-157 -65q-91 0 -156.5 65.5t-65.5 156.5q0 92 65 157t157 65t157 -65t65 -157zM437 467q0 74 -52 126t-126 52q-73 0 -125.5 -52t-52.5 -126q0 -73 52.5 -125.5t125.5 -52.5q74 0 126 52t52 126zM249 476q25 0 39 12t14 32q0 18 -12 31.5 t-38 13.5q-19 0 -29 -2v-87h26zM355 364q2 -3 2 -10q0 -8 -5.5 -13.5t-14.5 -5.5h-5q-12 0 -18 12l-13 28l-8 18t-19.5 29.5t-26.5 18.5h-24v-92q-2 -16 -24 -16q-19 0 -19 17v229q0 18 18 20q24 2 50 2q51 0 74 -23.5t23 -55.5q0 -20 -13.5 -39t-34.5 -27v-6q19 -7 49 -66 l2 -5l4 -10z" />
<glyph unicode="&#xaf;" horiz-adv-x="319" d="M64 639h190q10 0 17.5 -7.5t7.5 -17.5v-8q0 -10 -7.5 -17.5t-17.5 -7.5h-190q-10 0 -17.5 7.5t-7.5 17.5v8q0 10 7.5 17.5t17.5 7.5z" />
<glyph unicode="&#xb0;" horiz-adv-x="390" d="M195 688q62 0 105.5 -43.5t43.5 -105.5q0 -61 -44 -105t-105 -44t-105 44t-44 105q0 62 43.5 105.5t105.5 43.5zM195 446q38 0 65.5 27t27.5 66t-27.5 66t-65.5 27q-39 0 -66.5 -27t-27.5 -66t27.5 -66t66.5 -27z" />
<glyph unicode="&#xb1;" d="M546 308v-21q0 -11 -7 -18t-18 -7h-177v-116q0 -10 -7 -17.5t-18 -7.5h-21q-10 0 -17.5 7.5t-7.5 17.5v116h-176q-11 0 -18 7t-7 18v21q0 10 7 17.5t18 7.5h176v116q0 11 7.5 18t17.5 7h21q11 0 18 -7t7 -18v-116h177q11 0 18 -7.5t7 -17.5zM97 71h424q11 0 18 -7.5 t7 -17.5v-21q0 -11 -7 -18t-18 -7h-424q-11 0 -18 7t-7 18v21q0 10 7 17.5t18 7.5z" />
<glyph unicode="&#xb2;" horiz-adv-x="365" d="M45 517l116 107q91 81 91 132q0 31 -19.5 49t-53.5 18q-36 0 -91 -33q-5 -4 -13 -4q-18 0 -23 20l-4 16v1q0 1 -1 2q0 10 15 19q71 38 119 38q64 0 104.5 -35t40.5 -89q0 -35 -31 -83.5t-89 -98.5l-59 -50h154q11 0 18 -7t7 -18v-6q0 -11 -7 -18t-18 -7h-239 q-10 0 -17.5 7t-7.5 18v6q0 8 8 16z" />
<glyph unicode="&#xb3;" horiz-adv-x="397" d="M277 683q34 -11 52.5 -38.5t18.5 -57.5q0 -57 -42.5 -90.5t-112.5 -33.5q-52 0 -129 35q-15 8 -15 19q0 1 1 3l4 17q5 20 19 20q5 0 15 -4q67 -31 105 -31q37 0 59 16.5t22 48.5q0 55 -104 59q-10 1 -16.5 8t-6.5 17v12q0 9 6.5 16.5t15.5 8.5q44 4 69.5 23t25.5 40 q0 23 -18 37.5t-48 14.5q-39 0 -98 -25q-8 -3 -13 -3q-16 0 -22 19l-3 14q0 16 16 23q72 31 121 31q60 0 98.5 -30t38.5 -77q0 -23 -15.5 -50.5t-43.5 -41.5z" />
<glyph unicode="&#xb4;" horiz-adv-x="321" d="M214 638l-76 -86q-10 -10 -22 -10t-19.5 7t-7.5 16q0 7 5 15q52 69 66 89q7 11 20 11h16q12 0 19 -7t7 -17q0 -8 -8 -18z" />
<glyph unicode="&#xb5;" horiz-adv-x="573" d="M155 29l6 -210q0 -11 -7.5 -18t-17.5 -7h-47q-11 0 -18 7t-7 18v630q0 11 7 18t18 7h47q10 0 17.5 -7t7.5 -18v-264q0 -119 123 -119q40 0 75 18.5t56 42.5v322q0 11 7.5 18t17.5 7h47q11 0 18 -7t7 -18v-424q0 -11 -7 -18t-18 -7h-30q-9 0 -16.5 6.5t-8.5 15.5l-4 32h-7 q-68 -62 -162 -62q-66 0 -104 37z" />
<glyph unicode="&#xb6;" horiz-adv-x="547" d="M506 655v-740q0 -11 -7 -18t-18 -7h-27q-10 0 -17.5 7t-7.5 18v696h-111v-696q0 -11 -7 -18t-18 -7h-27q-10 0 -17.5 7t-7.5 18v387q-81 0 -135 56t-54 133q0 78 55.5 133.5t133.5 55.5h240q11 0 18 -7t7 -18z" />
<glyph unicode="&#xb7;" horiz-adv-x="524" d="M325 340q0 -25 -17 -39.5t-46 -14.5t-46.5 14.5t-17.5 39.5t17.5 39.5t46.5 14.5t46 -14.5t17 -39.5z" />
<glyph unicode="&#xb8;" horiz-adv-x="323" d="M70 -183l1 3q6 15 17 15q1 0 2.5 -0.5t2.5 -0.5q19 -4 37 -4q17 0 31 9.5t14 23.5q0 22 -48 30q-17 2 -17 19q0 5 3 11l17 35q6 13 19 13h4q21 0 21 -18q0 -5 -3 -11l-6 -14q33 -6 50.5 -24.5t17.5 -39.5q0 -39 -31 -58.5t-80 -19.5q-19 0 -39 5q-15 3 -15 16q0 4 2 10z " />
<glyph unicode="&#xb9;" horiz-adv-x="377" d="M51 807l112 66q12 7 28 7h15q10 0 17.5 -7t7.5 -18v-326h82q11 0 18 -7.5t7 -17.5v-6q0 -10 -7 -17.5t-18 -7.5h-238q-11 0 -18 7.5t-7 17.5v6q0 10 7 17.5t18 7.5h82v279l-79 -48q-9 -6 -16 -6q-13 0 -20 18l-2 6q-2 6 -1 7q0 15 12 22z" />
<glyph unicode="&#xba;" horiz-adv-x="406" d="M203 584q78 0 125.5 -43.5t47.5 -116.5t-47.5 -116.5t-125.5 -43.5t-125.5 43.5t-47.5 116.5t47.5 116.5t125.5 43.5zM203 317q46 0 74 28t28 79t-28 79t-74 28t-74.5 -28t-28.5 -79t28 -79t75 -28z" />
<glyph unicode="&#xbb;" horiz-adv-x="607" d="M361 38l116 198l-116 200q-4 7 -4 14q0 10 7 17t19 7h46q15 0 22 -13l124 -211q2 -6 2 -13q0 -6 -2 -12l-124 -212q-7 -13 -22 -13h-46q-12 0 -19 7t-7 17q0 7 4 14zM45 38l116 198l-116 200q-4 7 -4 14q0 10 7 17t19 7h46q15 0 22 -13l124 -211q2 -6 2 -13q0 -6 -2 -12 l-124 -212q-7 -13 -22 -13h-46q-12 0 -19 7t-7 17q0 7 4 14z" />
<glyph unicode="&#xbc;" horiz-adv-x="883" d="M53 608l111 66q14 7 28 7h16q10 0 17.5 -7.5t7.5 -17.5v-326h82q11 0 18 -7t7 -18v-6q0 -11 -7 -18t-18 -7h-238q-11 0 -18 7t-7 18v6q0 11 7 18t18 7h82v279l-79 -48q-9 -6 -16 -6q-13 0 -20 18q0 1 -2 7l-1 6l-1 2v2q0 10 13 18zM283 38l364 629q7 13 22 13h13 q12 0 19 -6.5t7 -16.5q0 -7 -4 -14l-364 -631q-6 -12 -22 -12h-13q-12 0 -19 7t-7 17q0 7 4 14zM798 155h22q10 0 17.5 -7.5t7.5 -17.5v-6q0 -10 -7.5 -17.5t-17.5 -7.5h-22v-74q0 -11 -7 -18t-18 -7h-21q-10 0 -17.5 7t-7.5 18v74h-179q-10 0 -17.5 7.5t-7.5 17.5v16 q0 13 10 27l192 230q7 9 19 9h29q11 0 18 -7t7 -18v-226zM728 317l-128 -164q3 0 21.5 1t23.5 1h82v102z" />
<glyph unicode="&#xbd;" horiz-adv-x="941" d="M738 153l-116 -107q-8 -8 -8 -16v-6q0 -10 7 -17.5t18 -7.5h239q10 0 17.5 7.5t7.5 17.5v6q0 10 -7.5 17.5t-17.5 7.5h-154l59 50q58 50 89 98.5t31 83.5q0 54 -40.5 89t-104.5 35q-48 0 -119 -38q-15 -9 -15 -19v-1q0 -1 1 -2l4 -16q5 -20 23 -20q8 0 13 4q55 33 91 33 q34 0 53.5 -18t19.5 -49q0 -51 -91 -132zM53 607l111 66q14 7 28 7h16q10 0 17.5 -7t7.5 -18v-326h82q11 0 18 -7.5t7 -17.5v-6q0 -10 -7 -17.5t-18 -7.5h-238q-11 0 -18 7.5t-7 17.5v6q0 10 7 17.5t18 7.5h82v279l-79 -48q-9 -6 -16 -6q-13 0 -20 18l-2 6q-2 6 -1.5 7t0 2 t-0.5 2q0 10 13 18zM306 0h13q16 0 22 12l364 631q4 7 4 14q0 10 -7 16.5t-19 6.5h-13q-15 0 -21 -12l-365 -631q-4 -7 -4 -14q0 -10 7 -16.5t19 -6.5z" />
<glyph unicode="&#xbe;" horiz-adv-x="842" d="M269 488q34 -11 52 -38t18 -57q0 -57 -42.5 -90.5t-112.5 -33.5q-52 0 -129 35q-15 8 -15 19v1l1 2l4 16q5 21 20 21q4 0 14 -4q67 -31 105 -31q37 0 59 16.5t22 48.5q0 23 -23.5 41t-80.5 18q-10 0 -16.5 7.5t-6.5 17.5v12q0 9 6.5 16.5t15.5 8.5q44 4 69.5 23t25.5 40 q0 23 -18 37.5t-48 14.5q-39 0 -98 -25q-7 -3 -13 -3q-15 0 -21 19l-4 14q0 16 16 23q72 31 121 31q60 0 98.5 -30t38.5 -77q0 -24 -15 -51.5t-43 -41.5zM757 155h22q11 0 18 -7.5t7 -17.5v-6q0 -10 -7 -17.5t-18 -7.5h-22v-74q0 -11 -7.5 -18t-17.5 -7h-21q-11 0 -18 7 t-7 18v74h-179q-11 0 -18 7.5t-7 17.5v15q0 15 11 28l191 230q7 9 19 9h29q10 0 17.5 -7t7.5 -18v-226zM687 317l-128 -164q3 0 21.5 1t23.5 1h82v102zM243 37l363 630q6 12 22 12h13q12 0 19 -7t7 -17q0 -7 -4 -14l-364 -629q-6 -12 -22 -12h-12q-12 0 -19 6.5t-7 16.5 q0 7 4 14z" />
<glyph unicode="&#xbf;" horiz-adv-x="630" d="M544 -137l7 -25q0 -19 -16 -26q-67 -26 -146 -26q-99 0 -152 42.5t-53 103.5q0 47 26 85t81 90q39 37 58 72t23 82q1 10 8 16.5t17 6.5h21q10 0 17 -8t7 -19q0 -109 -66 -175q-49 -49 -70 -78.5t-21 -60.5q0 -39 33 -61.5t93 -22.5q52 0 100 20q4 2 12 2q17 0 21 -18z M403 482q29 0 46 -14.5t17 -39.5t-17 -39.5t-46 -14.5t-46.5 14.5t-17.5 39.5t17.5 39.5t46.5 14.5z" />
<glyph unicode="&#xc0;" horiz-adv-x="753" d="M722 35q3 -6 3 -12q0 -10 -7 -16.5t-19 -6.5h-56q-17 0 -23 15l-66 153h-355l-66 -153q-6 -15 -23 -15h-56q-12 0 -19 7t-7 17q0 6 3 12l289 629q2 5 9.5 10t13.5 5h67q6 0 13.5 -5t9.5 -10zM233 248h287q-135 315 -140 341h-8q-2 -12 -36 -97l-69 -164zM321 884h18 q14 0 21 -11l62 -88q4 -5 4 -11q0 -10 -9 -18.5t-20 -8.5q-9 0 -15 7l-80 89q-7 7 -7 17t7 17t19 7z" />
<glyph unicode="&#xc1;" horiz-adv-x="753" d="M722 35q3 -6 3 -12q0 -10 -7 -16.5t-19 -6.5h-56q-17 0 -23 15l-66 153h-355l-66 -153q-6 -15 -23 -15h-56q-12 0 -19 7t-7 17q0 6 3 12l289 629q2 5 9.5 10t13.5 5h67q6 0 13.5 -5t9.5 -10zM233 248h287q-135 315 -140 341h-8q-2 -12 -36 -97l-69 -164zM449 843l-76 -86 q-10 -10 -22 -10t-19.5 7t-7.5 16q0 7 5 15q52 69 66 89q7 11 20 11h16q12 0 19 -7t7 -17q0 -8 -8 -18z" />
<glyph unicode="&#xc2;" horiz-adv-x="753" d="M722 35q3 -6 3 -12q0 -10 -7 -16.5t-19 -6.5h-56q-17 0 -23 15l-66 153h-355l-66 -153q-6 -15 -23 -15h-56q-12 0 -19 7t-7 17q0 6 3 12l289 629q2 5 9.5 10t13.5 5h67q6 0 13.5 -5t9.5 -10zM233 248h287q-135 315 -140 341h-8q-2 -12 -36 -97l-69 -164zM359 884h37 q8 0 24 -16l58 -82q6 -8 6 -16q0 -10 -7 -17t-19 -7h-12q-14 0 -21 12l-48 76l-47 -76q-7 -12 -21 -12h-12q-12 0 -19 7t-7 17q0 8 6 16l58 82q16 16 24 16z" />
<glyph unicode="&#xc3;" horiz-adv-x="753" d="M722 35q3 -6 3 -12q0 -10 -7 -16.5t-19 -6.5h-56q-17 0 -23 15l-66 153h-355l-66 -153q-6 -15 -23 -15h-56q-12 0 -19 7t-7 17q0 6 3 12l289 629q2 5 9.5 10t13.5 5h67q6 0 13.5 -5t9.5 -10zM233 248h287q-135 315 -140 341h-8q-2 -12 -36 -97l-69 -164zM316 865 q32 0 69 -24q28 -20 44 -20q17 0 21 21q6 19 24 19h5q11 0 18 -7t7 -17q0 -5 -1 -7q-7 -31 -26.5 -48t-42.5 -17q-34 0 -69 24q-33 20 -44 20q-15 0 -20 -21q-6 -19 -24 -19h-5q-11 0 -18 7t-7 17q0 5 1 7q7 31 26.5 48t41.5 17z" />
<glyph unicode="&#xc4;" horiz-adv-x="753" d="M722 35q3 -6 3 -12q0 -10 -7 -16.5t-19 -6.5h-56q-17 0 -23 15l-66 153h-355l-66 -153q-6 -15 -23 -15h-56q-12 0 -19 7t-7 17q0 6 3 12l289 629q2 5 9.5 10t13.5 5h67q6 0 13.5 -5t9.5 -10zM233 248h287q-135 315 -140 341h-8q-2 -12 -36 -97l-69 -164zM416 813 q0 20 14 34t34 14t33.5 -14t13.5 -34q0 -19 -14 -33t-35 -14q-19 0 -32.5 13.5t-13.5 33.5zM238 813q0 20 14 34t34 14t33.5 -14t13.5 -34q0 -19 -14.5 -33t-33.5 -14t-33 14t-14 33z" />
<glyph unicode="&#xc5;" horiz-adv-x="753" d="M722 35q3 -6 3 -12q0 -10 -7 -16.5t-19 -6.5h-56q-17 0 -23 15l-66 153h-355l-66 -153q-6 -15 -23 -15h-56q-12 0 -19 7t-7 17q0 6 3 12l289 629q2 5 9.5 10t13.5 5h67q6 0 13.5 -5t9.5 -10zM233 248h287q-135 315 -140 341h-8q-2 -12 -36 -97l-69 -164zM471 814 q0 -38 -28 -65t-68 -27q-39 0 -67 27t-28 65t28 65t67 27q40 0 68 -27t28 -65zM425 814q0 21 -14.5 35.5t-35.5 14.5q-20 0 -34.5 -14.5t-14.5 -35.5t14.5 -35.5t34.5 -14.5q21 0 35.5 14.5t14.5 35.5z" />
<glyph unicode="&#xc6;" horiz-adv-x="982" d="M229 168l-94 -156q-6 -12 -22 -12h-52q-11 0 -18 6.5t-7 16.5q0 8 4 15l400 630q7 12 21 12h447q10 0 17.5 -7t7.5 -18v-31q0 -10 -7.5 -17.5t-17.5 -7.5h-319v-204h282q11 0 18 -7.5t7 -17.5v-30q0 -10 -7 -17.5t-18 -7.5h-282v-234h324q11 0 18 -7.5t7 -17.5v-31 q0 -11 -7 -18t-18 -7h-399q-10 0 -17.5 7t-7.5 18v143h-260zM278 248h211v341h-12q-37 -72 -199 -341z" />
<glyph unicode="&#xc7;" horiz-adv-x="711" d="M666 99l10 -35q1 -2 1 -7q0 -17 -15 -23q-105 -42 -211 -42q-175 0 -288.5 96t-113.5 252t113.5 252t288.5 96q106 0 211 -42q16 -5 16 -23q0 -1 -0.5 -3t-0.5 -3l-10 -36q-5 -19 -23 -19q-4 0 -10 2q-94 40 -180 40q-134 0 -217 -75t-83 -189t83 -189t217 -75 q91 0 179 40q6 2 10 2q18 0 23 -19zM338 -178l1 3q6 15 17 15q1 0 2.5 -0.5t2.5 -0.5q19 -4 37 -4q17 0 31 9.5t14 23.5q0 22 -48 30q-17 2 -17 19q0 5 3 11l17 35q6 13 19 13h4q21 0 21 -18q0 -5 -3 -11l-6 -14q33 -6 50.5 -24.5t17.5 -39.5q0 -39 -31 -58.5t-80 -19.5 q-19 0 -39 5q-15 3 -15 16q0 4 2 10z" />
<glyph unicode="&#xc8;" horiz-adv-x="582" d="M88 25v630q0 11 7 18t18 7h394q11 0 18 -7t7 -18v-32q0 -11 -7 -18t-18 -7h-319v-204h282q10 0 17.5 -7t7.5 -18v-29q0 -10 -7.5 -17.5t-17.5 -7.5h-282v-234h324q10 0 17.5 -7.5t7.5 -17.5v-31q0 -11 -7.5 -18t-17.5 -7h-399q-11 0 -18 7t-7 18zM271 883h18q14 0 21 -11 l62 -88q4 -5 4 -11q0 -10 -9 -18.5t-20 -8.5q-9 0 -15 7l-80 89q-7 7 -7 17t7 17t19 7z" />
<glyph unicode="&#xc9;" horiz-adv-x="582" d="M88 25v630q0 11 7 18t18 7h394q11 0 18 -7t7 -18v-32q0 -11 -7 -18t-18 -7h-319v-204h282q10 0 17.5 -7t7.5 -18v-29q0 -10 -7.5 -17.5t-17.5 -7.5h-282v-234h324q10 0 17.5 -7.5t7.5 -17.5v-31q0 -11 -7.5 -18t-17.5 -7h-399q-11 0 -18 7t-7 18zM370 841l-76 -86 q-10 -10 -22 -10t-19.5 7t-7.5 16q0 7 5 15q52 69 66 89q7 11 20 11h16q12 0 19 -7t7 -17q0 -8 -8 -18z" />
<glyph unicode="&#xca;" horiz-adv-x="582" d="M88 25v630q0 11 7 18t18 7h394q11 0 18 -7t7 -18v-32q0 -11 -7 -18t-18 -7h-319v-204h282q10 0 17.5 -7t7.5 -18v-29q0 -10 -7.5 -17.5t-17.5 -7.5h-282v-234h324q10 0 17.5 -7.5t7.5 -17.5v-31q0 -11 -7.5 -18t-17.5 -7h-399q-11 0 -18 7t-7 18zM290 884h37q8 0 24 -16 l58 -82q6 -8 6 -16q0 -10 -7 -17t-19 -7h-12q-14 0 -21 12l-48 76l-47 -76q-7 -12 -21 -12h-12q-12 0 -19 7t-7 17q0 8 6 16l58 82q16 16 24 16z" />
<glyph unicode="&#xcb;" horiz-adv-x="582" d="M88 25v630q0 11 7 18t18 7h394q11 0 18 -7t7 -18v-32q0 -11 -7 -18t-18 -7h-319v-204h282q10 0 17.5 -7t7.5 -18v-29q0 -10 -7.5 -17.5t-17.5 -7.5h-282v-234h324q10 0 17.5 -7.5t7.5 -17.5v-31q0 -11 -7.5 -18t-17.5 -7h-399q-11 0 -18 7t-7 18zM351 814q0 20 14 34 t34 14t33.5 -14t13.5 -34q0 -19 -14 -33t-35 -14q-19 0 -32.5 13.5t-13.5 33.5zM173 814q0 20 14 34t34 14t33.5 -14t13.5 -34q0 -19 -14.5 -33t-33.5 -14q-20 0 -33.5 13.5t-13.5 33.5z" />
<glyph unicode="&#xcc;" horiz-adv-x="462" d="M59 25v25q0 10 7.5 17.5t17.5 7.5h96v529h-96q-10 0 -17.5 7t-7.5 18v26q0 11 7.5 18t17.5 7h294q10 0 17.5 -7t7.5 -18v-26q0 -11 -7.5 -18t-17.5 -7h-97v-529h97q10 0 17.5 -7.5t7.5 -17.5v-25q0 -11 -7.5 -18t-17.5 -7h-294q-10 0 -17.5 7t-7.5 18zM166 884h18 q14 0 21 -11l62 -88q4 -5 4 -11q0 -10 -9 -18.5t-20 -8.5q-9 0 -15 7l-80 89q-7 7 -7 17t7 17t19 7z" />
<glyph unicode="&#xcd;" horiz-adv-x="462" d="M59 25v25q0 10 7.5 17.5t17.5 7.5h96v529h-96q-10 0 -17.5 7t-7.5 18v26q0 11 7.5 18t17.5 7h294q10 0 17.5 -7t7.5 -18v-26q0 -11 -7.5 -18t-17.5 -7h-97v-529h97q10 0 17.5 -7.5t7.5 -17.5v-25q0 -11 -7.5 -18t-17.5 -7h-294q-10 0 -17.5 7t-7.5 18zM308 842l-76 -86 q-10 -10 -22 -10t-19.5 7t-7.5 16q0 7 5 15q52 69 66 89q7 11 20 11h16q12 0 19 -7t7 -17q0 -8 -8 -18z" />
<glyph unicode="&#xce;" horiz-adv-x="462" d="M59 25v25q0 10 7.5 17.5t17.5 7.5h96v529h-96q-10 0 -17.5 7t-7.5 18v26q0 11 7.5 18t17.5 7h294q10 0 17.5 -7t7.5 -18v-26q0 -11 -7.5 -18t-17.5 -7h-97v-529h97q10 0 17.5 -7.5t7.5 -17.5v-25q0 -11 -7.5 -18t-17.5 -7h-294q-10 0 -17.5 7t-7.5 18zM215 885h37 q8 0 24 -16l58 -82q6 -7 6 -16q0 -10 -7 -17t-19 -7h-12q-14 0 -21 12l-48 76l-47 -76q-7 -12 -21 -12h-12q-12 0 -19 7t-7 17q0 9 6 16l58 82q16 16 24 16z" />
<glyph unicode="&#xcf;" horiz-adv-x="462" d="M59 25v25q0 10 7.5 17.5t17.5 7.5h96v529h-96q-10 0 -17.5 7t-7.5 18v26q0 11 7.5 18t17.5 7h294q10 0 17.5 -7t7.5 -18v-26q0 -11 -7.5 -18t-17.5 -7h-97v-529h97q10 0 17.5 -7.5t7.5 -17.5v-25q0 -11 -7.5 -18t-17.5 -7h-294q-10 0 -17.5 7t-7.5 18zM271 815 q0 20 14 34t34 14t33.5 -14t13.5 -34q0 -19 -14 -33t-35 -14q-19 0 -32.5 13.5t-13.5 33.5zM93 815q0 20 14 34t34 14t33.5 -14t13.5 -34q0 -19 -14.5 -33t-33.5 -14q-20 0 -33.5 14t-13.5 33z" />
<glyph unicode="&#xd0;" horiz-adv-x="815" d="M19 335v32q0 11 7.5 18t17.5 7h60v266q0 10 6.5 17t16.5 8q67 5 187 5q223 0 338 -97.5t115 -251.5q0 -153 -116 -250t-341 -97q-99 0 -183 6q-10 1 -16.5 8t-6.5 17v287h-60q-10 0 -17.5 7t-7.5 18zM205 310v-232q81 -3 126 -3q154 0 242 69.5t88 194.5 q0 128 -87.5 197.5t-242.5 69.5q-66 0 -126 -3v-211h64q11 0 18 -7t7 -18v-32q0 -11 -7 -18t-18 -7h-64z" />
<glyph unicode="&#xd1;" horiz-adv-x="812" d="M698 680h-45q-11 0 -18 -7t-7 -18q1 -355 2 -411q0 -8 1 -54t1 -55h-6l-425 535q-7 10 -20 10h-68q-11 0 -18 -7t-7 -18v-630q0 -11 7 -18t18 -7h45q10 0 17.5 7t7.5 18v423q0 69 -3 98h6l429 -537q7 -9 20 -9h63q10 0 17.5 7t7.5 18v630q0 11 -7.5 18t-17.5 7zM344 867 q32 0 69 -24q28 -20 44 -20q17 0 21 21q6 19 24 19h5q11 0 18 -7t7 -17q0 -5 -1 -7q-7 -31 -26.5 -48t-42.5 -17q-34 0 -69 24q-33 20 -44 20q-15 0 -20 -21q-6 -19 -24 -19h-5q-11 0 -18 7t-7 17q0 5 1 7q7 31 26.5 48t41.5 17z" />
<glyph unicode="&#xd2;" horiz-adv-x="865" d="M432 77q127 0 203 72.5t76 189.5q0 118 -76 191t-203 73q-126 0 -202 -73t-76 -191q0 -117 76 -189.5t202 -72.5zM432 688q175 0 279.5 -100.5t104.5 -248.5q0 -149 -104.5 -248t-279.5 -99t-279.5 99t-104.5 248q0 148 104.5 248.5t279.5 100.5zM350 885h18q14 0 21 -11 l62 -88q4 -5 4 -11q0 -10 -9 -18.5t-20 -8.5q-9 0 -15 7l-80 89q-7 7 -7 17t7 17t19 7z" />
<glyph unicode="&#xd3;" horiz-adv-x="865" d="M432 77q127 0 203 72.5t76 189.5q0 118 -76 191t-203 73q-126 0 -202 -73t-76 -191q0 -117 76 -189.5t202 -72.5zM432 688q175 0 279.5 -100.5t104.5 -248.5q0 -149 -104.5 -248t-279.5 -99t-279.5 99t-104.5 248q0 148 104.5 248.5t279.5 100.5zM531 842l-76 -86 q-10 -10 -22 -10t-19.5 7t-7.5 16q0 7 5 15q52 69 66 89q7 11 20 11h16q12 0 19 -7t7 -17q0 -8 -8 -18z" />
<glyph unicode="&#xd4;" horiz-adv-x="865" d="M432 77q127 0 203 72.5t76 189.5q0 118 -76 191t-203 73q-126 0 -202 -73t-76 -191q0 -117 76 -189.5t202 -72.5zM432 688q175 0 279.5 -100.5t104.5 -248.5q0 -149 -104.5 -248t-279.5 -99t-279.5 99t-104.5 248q0 148 104.5 248.5t279.5 100.5zM417 884h37q8 0 24 -16 l58 -82q6 -8 6 -16q0 -10 -7 -17t-19 -7h-12q-14 0 -21 12l-48 76l-47 -76q-7 -12 -21 -12h-12q-12 0 -19 7t-7 17q0 8 6 16l58 82q16 16 24 16z" />
<glyph unicode="&#xd5;" horiz-adv-x="865" d="M432 77q127 0 203 72.5t76 189.5q0 118 -76 191t-203 73q-126 0 -202 -73t-76 -191q0 -117 76 -189.5t202 -72.5zM432 688q175 0 279.5 -100.5t104.5 -248.5q0 -149 -104.5 -248t-279.5 -99t-279.5 99t-104.5 248q0 148 104.5 248.5t279.5 100.5zM374 866q32 0 69 -24 q28 -20 44 -20q17 0 21 21q6 19 24 19h5q11 0 18 -7t7 -17q0 -5 -1 -7q-7 -31 -26.5 -48t-42.5 -17q-34 0 -69 24q-33 20 -44 20q-15 0 -20 -21q-6 -19 -24 -19h-5q-11 0 -18 7t-7 17q0 5 1 7q7 31 26.5 48t41.5 17z" />
<glyph unicode="&#xd6;" horiz-adv-x="865" d="M432 77q127 0 203 72.5t76 189.5q0 118 -76 191t-203 73q-126 0 -202 -73t-76 -191q0 -117 76 -189.5t202 -72.5zM432 688q175 0 279.5 -100.5t104.5 -248.5q0 -149 -104.5 -248t-279.5 -99t-279.5 99t-104.5 248q0 148 104.5 248.5t279.5 100.5zM474 811q0 20 14 34 t34 14t33.5 -14t13.5 -34q0 -19 -14 -33t-35 -14q-19 0 -32.5 13.5t-13.5 33.5zM296 811q0 20 14 34t34 14t33.5 -14t13.5 -34q0 -19 -14.5 -33t-33.5 -14t-33 14t-14 33z" />
<glyph unicode="&#xd7;" horiz-adv-x="594" d="M97 18l-15 16q-8 8 -8 16q0 9 8 17l171 171l-170 169q-8 8 -8 18t8 18l14 14q7 7 18 7t18 -7l170 -169l169 168q8 8 19 8t19 -9l14 -15q5 -6 5 -16q0 -11 -7 -18l-169 -168l169 -169q7 -7 7 -18t-7 -18l-14 -14q-8 -8 -18 -8t-18 8l-169 168l-170 -169q-8 -8 -18 -8 t-18 8z" />
<glyph unicode="&#xd8;" horiz-adv-x="865" d="M708 674l-36 -53q69 -46 107 -120.5t38 -160.5q0 -149 -105 -248.5t-280 -99.5q-89 0 -178 34l-42 -57q-8 -11 -20 -11q-10 0 -15 5l-14 10q-10 7 -10 19q0 8 5 15l36 53q-71 47 -108 121.5t-37 158.5q0 148 104 248t279 100q107 0 178 -36l42 60q6 11 21 11q8 0 13 -4 l15 -10q12 -7 12 -20q0 -7 -5 -15zM248 136l311 442q-63 25 -127 25q-126 0 -202 -73t-76 -190q0 -123 94 -204zM616 545l-309 -444q65 -24 125 -24q128 0 203.5 72.5t75.5 190.5q0 130 -95 205z" />
<glyph unicode="&#xd9;" horiz-adv-x="810" d="M647 680h50q11 0 18 -7t7 -18v-408q0 -109 -92.5 -182t-223.5 -73q-134 0 -225.5 73.5t-91.5 181.5v408q0 11 7.5 18t17.5 7h50q10 0 17.5 -7t7.5 -18v-408q0 -71 63.5 -120.5t153.5 -49.5t153 49.5t63 120.5v408q0 11 7 18t18 7zM334 884h18q14 0 21 -11l62 -88 q4 -5 4 -11q0 -10 -9 -18.5t-20 -8.5q-9 0 -15 7l-80 89q-7 7 -7 17t7 17t19 7z" />
<glyph unicode="&#xda;" horiz-adv-x="810" d="M647 680h50q11 0 18 -7t7 -18v-408q0 -109 -92.5 -182t-223.5 -73q-134 0 -225.5 73.5t-91.5 181.5v408q0 11 7.5 18t17.5 7h50q10 0 17.5 -7t7.5 -18v-408q0 -71 63.5 -120.5t153.5 -49.5t153 49.5t63 120.5v408q0 11 7 18t18 7zM495 843l-76 -86q-10 -10 -22 -10 t-19.5 7t-7.5 16q0 7 5 15q52 69 66 89q7 11 20 11h16q12 0 19 -7t7 -17q0 -8 -8 -18z" />
<glyph unicode="&#xdb;" horiz-adv-x="810" d="M647 680h50q11 0 18 -7t7 -18v-408q0 -109 -92.5 -182t-223.5 -73q-134 0 -225.5 73.5t-91.5 181.5v408q0 11 7.5 18t17.5 7h50q10 0 17.5 -7t7.5 -18v-408q0 -71 63.5 -120.5t153.5 -49.5t153 49.5t63 120.5v408q0 11 7 18t18 7zM389 884h37q8 0 24 -16l58 -82 q6 -8 6 -16q0 -10 -7 -17t-19 -7h-12q-14 0 -21 12l-48 76l-47 -76q-7 -12 -21 -12h-12q-12 0 -19 7t-7 17q0 8 6 16l58 82q16 16 24 16z" />
<glyph unicode="&#xdc;" horiz-adv-x="810" d="M647 680h50q11 0 18 -7t7 -18v-408q0 -109 -92.5 -182t-223.5 -73q-134 0 -225.5 73.5t-91.5 181.5v408q0 11 7.5 18t17.5 7h50q10 0 17.5 -7t7.5 -18v-408q0 -71 63.5 -120.5t153.5 -49.5t153 49.5t63 120.5v408q0 11 7 18t18 7zM451 810q0 20 14 34t34 14t33.5 -14 t13.5 -34q0 -19 -14 -33t-35 -14q-19 0 -32.5 13.5t-13.5 33.5zM273 810q0 20 14 34t34 14t33.5 -14t13.5 -34q0 -19 -14.5 -33t-33.5 -14q-20 0 -33.5 13.5t-13.5 33.5z" />
<glyph unicode="&#xdd;" horiz-adv-x="668" d="M331 381h7q11 23 40 69l52.5 80.5l59 85.5t36.5 53q7 11 21 11h55q12 0 19 -7t7 -17q0 -7 -5 -15l-239 -349v-267q0 -11 -7 -18t-18 -7h-50q-11 0 -18 7t-7 18v266l-239 350q-5 8 -5 15q0 10 7 17t19 7h55q14 0 21 -11l37.5 -54l58 -84.5l53.5 -81.5t40 -68zM407 839 l-76 -86q-10 -10 -22 -10t-19.5 7t-7.5 16q0 7 5 15q52 69 66 89q7 11 20 11h16q12 0 19 -7t7 -17q0 -8 -8 -18z" />
<glyph unicode="&#xde;" horiz-adv-x="635" d="M283 557q158 0 230.5 -63.5t72.5 -156.5q0 -88 -59 -146t-149 -67q-33 -3 -68 -3h-122v-96q0 -11 -7 -18t-18 -7h-50q-11 0 -18 7t-7 18v630q0 11 7 18t18 7h50q11 0 18 -7t7 -18v-100q60 2 95 2zM312 203q76 0 123 37t47 98q0 58 -44 97.5t-142 39.5q-58 0 -108 -5v-267 h124z" />
<glyph unicode="&#xdf;" horiz-adv-x="655" d="M448 279q81 -23 124.5 -55t43.5 -86q0 -72 -55 -109t-138 -37q-89 0 -167 27q-17 6 -17 24q0 4 2 10l12 27q7 15 23 15q3 0 9 -2q68 -27 129 -27q45 0 73.5 16t28.5 49q0 42 -97 73q-100 30 -143 57.5t-43 81.5q0 20 18.5 39.5t37.5 30.5t55 30l24 13.5l21 12t20.5 13.5 l14 12.5t11.5 14.5t3 14q0 45 -44 72.5t-99 27.5q-128 0 -128 -102v-496q0 -11 -7.5 -18t-17.5 -7h-46q-10 0 -17.5 7t-7.5 18v496q0 167 224 167q54 0 104.5 -16.5t88.5 -55.5t38 -93q0 -21 -10 -39.5t-33.5 -35.5t-37.5 -26t-45 -25q-3 -2 -17.5 -8.5t-23.5 -12t-17.5 -14 t-8.5 -16.5q0 -19 26.5 -34t88.5 -33z" />
<glyph unicode="&#xe0;" horiz-adv-x="601" d="M452 19l-10 45h-8q-63 -72 -167 -72q-100 0 -164.5 67t-64.5 177q0 109 69.5 177.5t171.5 68.5q83 0 164 -45l3 17q1 8 9 14t16 6h25q10 0 17.5 -7t7.5 -18v-253q0 -79 16 -166v-5q0 -11 -7.5 -18t-17.5 -7h-36q-8 0 -15 5.5t-9 13.5zM424 160v209q-62 40 -129 40 q-70 0 -113 -47.5t-43 -125.5q0 -77 40 -123.5t106 -46.5q52 0 89.5 26t49.5 68zM225 680h18q14 0 21 -11l62 -88q4 -5 4 -11q0 -10 -9 -18.5t-20 -8.5q-9 0 -15 7l-80 89q-7 7 -7 17t7 17t19 7z" />
<glyph unicode="&#xe1;" horiz-adv-x="602" d="M452 19l-10 45h-8q-63 -72 -167 -72q-100 0 -164.5 67t-64.5 177q0 109 69.5 177.5t171.5 68.5q83 0 164 -45l3 17q1 8 9 14t16 6h25q10 0 17.5 -7t7.5 -18v-253q0 -79 16 -166v-5q0 -11 -7.5 -18t-17.5 -7h-36q-8 0 -15 5.5t-9 13.5zM424 160v209q-62 40 -129 40 q-70 0 -113 -47.5t-43 -125.5q0 -77 40 -123.5t106 -46.5q52 0 89.5 26t49.5 68zM363 638l-76 -86q-10 -10 -22 -10t-19.5 7t-7.5 16q0 7 5 15q52 69 66 89q7 11 20 11h16q12 0 19 -7t7 -17q0 -8 -8 -18z" />
<glyph unicode="&#xe2;" horiz-adv-x="602" d="M442 64l10 -45q2 -8 9 -13.5t15 -5.5h36q10 0 17.5 7t7.5 18v5q-16 87 -16 166v253q0 11 -7.5 18t-17.5 7h-25q-8 0 -16 -6t-9 -14l-3 -17q-81 45 -164 45q-102 0 -171.5 -68.5t-69.5 -177.5q0 -110 64.5 -177t164.5 -67q104 0 167 72h8zM424 369v-209q-12 -42 -49.5 -68 t-89.5 -26q-66 0 -106 46.5t-40 123.5q0 78 43 125.5t113 47.5q67 0 129 -40zM280 680h37q8 0 24 -16l58 -82q6 -8 6 -16q0 -10 -7 -17t-19 -7h-12q-14 0 -21 12l-48 76l-47 -76q-7 -12 -21 -12h-12q-12 0 -19 7t-7 17q0 8 6 16l58 82q16 16 24 16z" />
<glyph unicode="&#xe3;" horiz-adv-x="602" d="M442 64l10 -45q2 -8 9 -13.5t15 -5.5h36q10 0 17.5 7t7.5 18v5q-16 87 -16 166v253q0 11 -7.5 18t-17.5 7h-25q-8 0 -16 -6t-9 -14l-3 -17q-81 45 -164 45q-102 0 -171.5 -68.5t-69.5 -177.5q0 -110 64.5 -177t164.5 -67q104 0 167 72h8zM424 369v-209q-12 -42 -49.5 -68 t-89.5 -26q-66 0 -106 46.5t-40 123.5q0 78 43 125.5t113 47.5q67 0 129 -40zM237 662q32 0 69 -24q28 -20 44 -20t21 21q6 19 24 19h5q11 0 18 -7t7 -17q0 -5 -1 -7q-7 -31 -26.5 -48t-42.5 -17q-34 0 -69 24q-33 20 -44 20q-16 0 -20 -21q-6 -19 -24 -19h-5q-11 0 -18 7 t-7 17q0 5 1 7q7 31 26.5 48t41.5 17z" />
<glyph unicode="&#xe4;" horiz-adv-x="602" d="M442 64l10 -45q2 -8 9 -13.5t15 -5.5h36q10 0 17.5 7t7.5 18v5q-16 87 -16 166v253q0 11 -7.5 18t-17.5 7h-25q-8 0 -16 -6t-9 -14l-3 -17q-81 45 -164 45q-102 0 -171.5 -68.5t-69.5 -177.5q0 -110 64.5 -177t164.5 -67q104 0 167 72h8zM424 369v-209q-12 -42 -49.5 -68 t-89.5 -26q-66 0 -106 46.5t-40 123.5q0 78 43 125.5t113 47.5q67 0 129 -40zM338 611q0 20 14 34t34 14t33.5 -14t13.5 -34q0 -19 -14 -33t-35 -14q-19 0 -32.5 13.5t-13.5 33.5zM160 611q0 20 14 34t34 14t33.5 -14t13.5 -34q0 -19 -14.5 -33t-33.5 -14t-33 14t-14 33z " />
<glyph unicode="&#xe5;" horiz-adv-x="602" d="M452 19l-10 45h-8q-63 -72 -167 -72q-100 0 -164.5 67t-64.5 177q0 109 69.5 177.5t171.5 68.5q83 0 164 -45l3 17q1 8 9 14t16 6h25q10 0 17.5 -7t7.5 -18v-253q0 -79 16 -166v-5q0 -11 -7.5 -18t-17.5 -7h-36q-8 0 -15 5.5t-9 13.5zM424 160v209q-62 40 -129 40 q-70 0 -113 -47.5t-43 -125.5q0 -77 40 -123.5t106 -46.5q52 0 89.5 26t49.5 68zM395 611q0 -38 -28 -65t-68 -27q-39 0 -67 27t-28 65t28 65t67 27q40 0 68 -27t28 -65zM349 611q0 21 -14.5 35.5t-35.5 14.5q-20 0 -34.5 -14.5t-14.5 -35.5t14.5 -35.5t34.5 -14.5 q21 0 35.5 14.5t14.5 35.5z" />
<glyph unicode="&#xe6;" horiz-adv-x="946" d="M877 77l6 -24q1 -2 1 -5q0 -17 -17 -23q-99 -33 -185 -33q-65 0 -120 23t-84 68h-8q-33 -39 -83 -65t-108 -26q-104 0 -172 67t-68 177t69.5 178t176.5 68q103 0 184 -14q19 -4 21 -23l5 -43h5q29 41 78 60.5t102 19.5q107 0 167 -57.5t60 -150.5q0 -24 -1 -36 q-1 -10 -8 -16.5t-17 -6.5h-362q0 -73 49 -111.5t116 -38.5q70 0 160 31q3 1 8 1q22 0 25 -20zM425 126v269q-57 13 -130 13q-69 0 -112.5 -47t-43.5 -124t43 -124t113 -47q76 0 130 60zM520 278h296q0 66 -38 100.5t-96 34.5q-62 0 -106.5 -33.5t-55.5 -101.5z" />
<glyph unicode="&#xe7;" horiz-adv-x="510" d="M305 68q62 0 130 25q6 2 9 2q19 0 24 -19l7 -26q0 -1 0.5 -3t0.5 -3q0 -19 -17 -24q-86 -28 -156 -28q-120 0 -192 66t-72 179t72 179t192 66q80 0 156 -27q17 -6 17 -24q0 -1 -0.5 -2.5t-0.5 -2.5l-8 -27q-3 -20 -24 -20q-5 0 -8 1q-73 26 -130 26q-75 0 -120.5 -44 t-45.5 -125t45.5 -125t120.5 -44zM194 -177l1 3q6 15 17 15q1 0 2.5 -0.5t2.5 -0.5q19 -4 37 -4q17 0 31 9.5t14 23.5q0 22 -48 30q-17 2 -17 19q0 5 3 11l17 35q6 13 19 13h4q21 0 21 -18q0 -5 -3 -11l-6 -14q33 -6 50.5 -24.5t17.5 -39.5q0 -39 -31 -58.5t-80 -19.5 q-19 0 -39 5q-15 3 -15 16q0 4 2 10z" />
<glyph unicode="&#xe8;" horiz-adv-x="567" d="M466 96q3 1 8 1q19 0 24 -19l6 -20q1 -4 1 -10q0 -17 -16 -23q-99 -33 -185 -33q-120 0 -192.5 66t-72.5 179t71 179t191 66q107 0 167 -57.5t60 -150.5q0 -24 -1 -36q-1 -10 -8 -16.5t-17 -6.5h-362q4 -74 51.5 -112t113.5 -38q70 0 161 31zM437 278l1 13q0 56 -38 89 t-96 33q-62 0 -107.5 -34t-54.5 -101h295zM224 680h18q14 0 21 -11l62 -88q4 -5 4 -11q0 -10 -9 -18.5t-20 -8.5q-9 0 -15 7l-80 89q-7 7 -7 17t7 17t19 7z" />
<glyph unicode="&#xe9;" horiz-adv-x="567" d="M466 96q3 1 8 1q19 0 24 -19l6 -20q1 -4 1 -10q0 -17 -16 -23q-99 -33 -185 -33q-120 0 -192.5 66t-72.5 179t71 179t191 66q107 0 167 -57.5t60 -150.5q0 -24 -1 -36q-1 -10 -8 -16.5t-17 -6.5h-362q4 -74 51.5 -112t113.5 -38q70 0 161 31zM437 278l1 13q0 56 -38 89 t-96 33q-62 0 -107.5 -34t-54.5 -101h295zM390 638l-76 -86q-10 -10 -22 -10t-19.5 7t-7.5 16q0 7 5 15q52 69 66 89q7 11 20 11h16q12 0 19 -7t7 -17q0 -8 -8 -18z" />
<glyph unicode="&#xea;" horiz-adv-x="567" d="M466 96q-91 -31 -161 -31q-66 0 -113.5 38t-51.5 112h362q10 0 17 6.5t8 16.5q1 12 1 36q0 93 -60 150.5t-167 57.5q-120 0 -191 -66t-71 -179t72.5 -179t192.5 -66q86 0 185 33q16 6 16 23q0 6 -1 10l-6 20q-5 19 -24 19q-5 0 -8 -1zM438 291l-1 -13h-295q9 67 54.5 101 t107.5 34q58 0 96 -33t38 -89zM288 680h37q8 0 24 -16l58 -82q6 -8 6 -16q0 -10 -7 -17t-19 -7h-12q-14 0 -21 12l-48 76l-47 -76q-7 -12 -21 -12h-12q-12 0 -19 7t-7 17q0 8 6 16l58 82q16 16 24 16z" />
<glyph unicode="&#xeb;" horiz-adv-x="567" d="M466 96q-91 -31 -161 -31q-66 0 -113.5 38t-51.5 112h362q10 0 17 6.5t8 16.5q1 12 1 36q0 93 -60 150.5t-167 57.5q-120 0 -191 -66t-71 -179t72.5 -179t192.5 -66q86 0 185 33q16 6 16 23q0 6 -1 10l-6 20q-5 19 -24 19q-5 0 -8 -1zM438 291l-1 -13h-295q9 67 54.5 101 t107.5 34q58 0 96 -33t38 -89zM346 611q0 20 14 34t34 14t33.5 -14t13.5 -34q0 -19 -14 -33t-35 -14q-19 0 -32.5 13.5t-13.5 33.5zM168 611q0 20 14 34t34 14t33.5 -14t13.5 -34q0 -19 -14.5 -33t-33.5 -14t-33 14t-14 33z" />
<glyph unicode="&#xec;" horiz-adv-x="236" d="M48 680h18q14 0 21 -11l62 -88q4 -5 4 -11q0 -10 -9 -18.5t-20 -8.5q-9 0 -15 7l-80 89q-7 7 -7 17t7 17t19 7zM165 449v-424q0 -11 -7.5 -18t-17.5 -7h-46q-10 0 -17.5 7t-7.5 18v424q0 11 7.5 18t17.5 7h46q10 0 17.5 -7t7.5 -18z" />
<glyph unicode="&#xed;" horiz-adv-x="236" d="M207 638l-76 -86q-10 -10 -22 -10t-19.5 7t-7.5 16q0 7 5 15q52 69 66 89q7 11 20 11h16q12 0 19 -7t7 -17q0 -8 -8 -18zM167 449v-424q0 -11 -7.5 -18t-17.5 -7h-46q-10 0 -17.5 7t-7.5 18v424q0 11 7.5 18t17.5 7h46q10 0 17.5 -7t7.5 -18z" />
<glyph unicode="&#xee;" horiz-adv-x="234" d="M165 449v-424q0 -11 -7.5 -18t-17.5 -7h-46q-10 0 -17.5 7t-7.5 18v424q0 11 7.5 18t17.5 7h46q10 0 17.5 -7t7.5 -18zM101 680h37q8 0 24 -16l58 -82q6 -8 6 -16q0 -10 -7 -17t-19 -7h-12q-14 0 -21 12l-48 76l-47 -76q-7 -12 -21 -12h-12q-12 0 -19 7t-7 17q0 8 6 16 l58 82q16 16 24 16z" />
<glyph unicode="&#xef;" horiz-adv-x="234" d="M159 611q0 20 14 34t34 14t33.5 -14t13.5 -34q0 -19 -14 -33t-35 -14q-19 0 -32.5 13.5t-13.5 33.5zM-19 611q0 20 14 34t34 14t33.5 -14t13.5 -34q0 -19 -14.5 -33t-33.5 -14q-20 0 -33.5 14t-13.5 33zM165 449v-424q0 -11 -7.5 -18t-17.5 -7h-46q-10 0 -17.5 7t-7.5 18 v424q0 11 7.5 18t17.5 7h46q10 0 17.5 -7t7.5 -18z" />
<glyph unicode="&#xf0;" horiz-adv-x="616" d="M418 594q150 -138 150 -340q0 -115 -74.5 -188.5t-191.5 -73.5q-114 0 -188.5 68.5t-74.5 176.5t73 176.5t184 68.5q72 0 136 -48l4 4q-42 78 -92 121l-105 -49q-6 -2 -9 -2q-12 0 -17 11l-4 9q-2 6 -2 8q0 12 12 19l83 39q-30 20 -78 46q-13 8 -13 22q0 10 8 18l17 15 q6 6 18 6q8 0 11 -2q54 -26 111 -70l109 51q6 2 8 2q13 0 18 -12l4 -8q2 -6 2 -8q0 -12 -12 -19zM302 66q71 0 118 46.5t47 124.5q0 82 -43.5 126.5t-120.5 44.5q-71 0 -117.5 -46.5t-46.5 -124.5t46 -124.5t117 -46.5z" />
<glyph unicode="&#xf1;" horiz-adv-x="589" d="M518 305q0 80 -51 128.5t-143 48.5q-94 0 -162 -62h-8l-4 32q-2 22 -25 22h-29q-10 0 -17.5 -7t-7.5 -18v-424q0 -11 7.5 -18t17.5 -7h46q10 0 17.5 7t7.5 18v322q55 61 131 61q123 0 123 -119v-264q0 -11 7.5 -18t17.5 -7h47q11 0 18 7t7 18v280zM241 662q32 0 69 -24 q28 -20 44 -20t21 21q6 19 24 19h5q11 0 18 -7t7 -17q0 -5 -1 -7q-7 -31 -26.5 -48t-42.5 -17q-34 0 -69 24q-33 20 -44 20q-16 0 -20 -21q-6 -19 -24 -19h-5q-11 0 -18 7t-7 17q0 5 1 7q7 31 26.5 48t41.5 17z" />
<glyph unicode="&#xf2;" horiz-adv-x="607" d="M303 482q120 0 192.5 -66t72.5 -179t-72.5 -179t-192.5 -66q-119 0 -191.5 66.5t-72.5 178.5t72.5 178.5t191.5 66.5zM303 66q75 0 119.5 45t44.5 126t-44.5 126t-119.5 45q-74 0 -119 -45t-45 -126t45 -126t119 -45zM228 680h18q14 0 21 -11l62 -88q4 -5 4 -11 q0 -10 -9 -18.5t-20 -8.5q-9 0 -15 7l-80 89q-7 7 -7 17t7 17t19 7z" />
<glyph unicode="&#xf3;" horiz-adv-x="607" d="M303 482q120 0 192.5 -66t72.5 -179t-72.5 -179t-192.5 -66q-119 0 -191.5 66.5t-72.5 178.5t72.5 178.5t191.5 66.5zM303 66q75 0 119.5 45t44.5 126t-44.5 126t-119.5 45q-74 0 -119 -45t-45 -126t45 -126t119 -45zM397 638l-76 -86q-10 -10 -22 -10t-19.5 7t-7.5 16 q0 7 5 15q52 69 66 89q7 11 20 11h16q12 0 19 -7t7 -17q0 -8 -8 -18z" />
<glyph unicode="&#xf4;" horiz-adv-x="607" d="M303 482q120 0 192.5 -66t72.5 -179t-72.5 -179t-192.5 -66q-119 0 -191.5 66.5t-72.5 178.5t72.5 178.5t191.5 66.5zM303 66q75 0 119.5 45t44.5 126t-44.5 126t-119.5 45q-74 0 -119 -45t-45 -126t45 -126t119 -45zM288 680h37q8 0 24 -16l58 -82q6 -8 6 -16 q0 -10 -7 -17t-19 -7h-12q-14 0 -21 12l-48 76l-47 -76q-7 -12 -21 -12h-12q-12 0 -19 7t-7 17q0 8 6 16l58 82q16 16 24 16z" />
<glyph unicode="&#xf5;" horiz-adv-x="607" d="M303 482q120 0 192.5 -66t72.5 -179t-72.5 -179t-192.5 -66q-119 0 -191.5 66.5t-72.5 178.5t72.5 178.5t191.5 66.5zM303 66q75 0 119.5 45t44.5 126t-44.5 126t-119.5 45q-74 0 -119 -45t-45 -126t45 -126t119 -45zM245 662q32 0 69 -24q28 -20 44 -20t21 21 q6 19 24 19h5q11 0 18 -7t7 -17q0 -5 -1 -7q-7 -31 -26.5 -48t-42.5 -17q-34 0 -69 24q-33 20 -44 20q-16 0 -20 -21q-6 -19 -24 -19h-5q-11 0 -18 7t-7 17q0 5 1 7q7 31 26.5 48t41.5 17z" />
<glyph unicode="&#xf6;" horiz-adv-x="607" d="M303 482q120 0 192.5 -66t72.5 -179t-72.5 -179t-192.5 -66q-119 0 -191.5 66.5t-72.5 178.5t72.5 178.5t191.5 66.5zM303 66q75 0 119.5 45t44.5 126t-44.5 126t-119.5 45q-74 0 -119 -45t-45 -126t45 -126t119 -45zM345 611q0 20 14 34t34 14t33.5 -14t13.5 -34 q0 -19 -14 -33t-35 -14q-19 0 -32.5 13.5t-13.5 33.5zM167 611q0 20 14 34t34 14t33.5 -14t13.5 -34q0 -19 -14.5 -33t-33.5 -14q-20 0 -33.5 14t-13.5 33z" />
<glyph unicode="&#xf7;" d="M97 273h424q11 0 18 -7.5t7 -17.5v-22q0 -10 -7 -17.5t-18 -7.5h-424q-11 0 -18 7.5t-7 17.5v22q0 10 7 17.5t18 7.5zM361 68q0 -24 -13.5 -37.5t-38.5 -13.5q-23 0 -37.5 14t-14.5 37q0 24 14 38t38 14q52 0 52 -52zM361 405q0 -23 -13.5 -37t-38.5 -14q-23 0 -37.5 14 t-14.5 37t14.5 37.5t37.5 14.5q24 0 38 -14t14 -38z" />
<glyph unicode="&#xf8;" horiz-adv-x="607" d="M506 471l-28 -40q90 -67 90 -193q0 -113 -72.5 -179.5t-192.5 -66.5q-62 0 -118 24l-34 -48q-7 -10 -20 -10q-9 0 -14 4l-10 7q-11 8 -11 20q0 7 5 15l28 41q-90 66 -90 193q0 112 72.5 178.5t191.5 66.5q64 0 117 -22q4 6 15.5 21.5t17.5 24.5q8 11 22 11q8 0 13 -4 l11 -8q11 -8 11 -21q0 -7 -4 -14zM182 116l194 278q-30 15 -73 15q-74 0 -119 -45t-45 -126q0 -71 43 -122zM425 360l-195 -277q34 -17 73 -17q74 0 119 45t45 127q0 72 -42 122z" />
<glyph unicode="&#xf9;" horiz-adv-x="589" d="M71 169v280q0 11 7.5 18t17.5 7h46q10 0 17.5 -7t7.5 -18v-264q0 -53 29 -86t95 -33q40 0 74.5 18.5t55.5 42.5v322q0 11 7.5 18t17.5 7h47q11 0 18 -7t7 -18v-424q0 -11 -7 -18t-18 -7h-29q-9 0 -16.5 6.5t-8.5 15.5l-4 32h-9q-68 -62 -161 -62q-92 0 -143 48.5 t-51 128.5zM213 680h18q14 0 21 -11l62 -88q4 -5 4 -11q0 -10 -9 -18.5t-20 -8.5q-9 0 -15 7l-80 89q-7 7 -7 17t7 17t19 7z" />
<glyph unicode="&#xfa;" horiz-adv-x="589" d="M71 169v280q0 11 7.5 18t17.5 7h46q10 0 17.5 -7t7.5 -18v-264q0 -53 29 -86t95 -33q40 0 74.5 18.5t55.5 42.5v322q0 11 7.5 18t17.5 7h47q11 0 18 -7t7 -18v-424q0 -11 -7 -18t-18 -7h-29q-9 0 -16.5 6.5t-8.5 15.5l-4 32h-9q-68 -62 -161 -62q-92 0 -143 48.5 t-51 128.5zM376 639l-76 -86q-10 -10 -22 -10t-19.5 7t-7.5 16q0 7 5 15q52 69 66 89q7 11 20 11h16q12 0 19 -7t7 -17q0 -8 -8 -18z" />
<glyph unicode="&#xfb;" horiz-adv-x="589" d="M71 169q0 -80 51 -128.5t143 -48.5q93 0 161 62h9l4 -32q1 -9 8.5 -15.5t16.5 -6.5h29q11 0 18 7t7 18v424q0 11 -7 18t-18 7h-47q-10 0 -17.5 -7t-7.5 -18v-322q-21 -24 -55.5 -42.5t-74.5 -18.5q-66 0 -95 33t-29 86v264q0 11 -7.5 18t-17.5 7h-46q-10 0 -17.5 -7 t-7.5 -18v-280zM271 680h37q8 0 24 -16l58 -82q6 -8 6 -16q0 -10 -7 -17t-19 -7h-12q-14 0 -21 12l-48 76l-47 -76q-7 -12 -21 -12h-12q-12 0 -19 7t-7 17q0 8 6 16l58 82q16 16 24 16z" />
<glyph unicode="&#xfc;" horiz-adv-x="589" d="M71 169q0 -80 51 -128.5t143 -48.5q93 0 161 62h9l4 -32q1 -9 8.5 -15.5t16.5 -6.5h29q11 0 18 7t7 18v424q0 11 -7 18t-18 7h-47q-10 0 -17.5 -7t-7.5 -18v-322q-21 -24 -55.5 -42.5t-74.5 -18.5q-66 0 -95 33t-29 86v264q0 11 -7.5 18t-17.5 7h-46q-10 0 -17.5 -7 t-7.5 -18v-280zM329 611q0 20 14 34t34 14t33.5 -14t13.5 -34q0 -19 -14 -33t-35 -14q-19 0 -32.5 13.5t-13.5 33.5zM151 611q0 20 14 34t34 14t33.5 -14t13.5 -34q0 -19 -14.5 -33t-33.5 -14q-20 0 -33.5 14t-13.5 33z" />
<glyph unicode="&#xfd;" horiz-adv-x="539" d="M507 438l-229 -492q-46 -100 -207 -152q-2 -1 -7 -1q-21 0 -26 20l-3 12l-4 10q-1 2 -1 8q0 21 17 24q105 27 150 109l23 45l-190 418q-3 6 -3 11q0 10 7.5 17t18.5 7h50q17 0 23 -15q106 -240 139 -353h7q34 117 138 353q2 5 9.5 10t13.5 5h51q12 0 19 -7t7 -17 q0 -6 -3 -12zM338 638l-76 -86q-10 -10 -22 -10t-19.5 7t-7.5 16q0 7 5 15q52 69 66 89q7 11 20 11h16q12 0 19 -7t7 -17q0 -8 -8 -18z" />
<glyph unicode="&#xfe;" horiz-adv-x="592" d="M553 237q0 -110 -69.5 -177.5t-176.5 -67.5q-68 0 -140 35v-208q0 -11 -7.5 -18t-17.5 -7h-47q-11 0 -18 7t-7 18v835q0 10 7 17.5t18 7.5h47q10 0 17.5 -7.5t7.5 -17.5v-225h4q69 53 141 53q106 0 173.5 -67t67.5 -178zM453 237q0 77 -43 123.5t-114 46.5 q-75 0 -129 -60v-243q62 -38 130 -38q70 0 113 47t43 124z" />
<glyph unicode="&#xff;" horiz-adv-x="539" d="M278 -54l229 492q3 6 3 12q0 10 -7 17t-19 7h-51q-6 0 -13.5 -5t-9.5 -10q-104 -236 -138 -353h-7q-33 113 -139 353q-6 15 -23 15h-50q-11 0 -18.5 -7t-7.5 -17q0 -5 3 -11l190 -418l-23 -45q-45 -82 -150 -109q-17 -3 -17 -24q0 -6 1 -8l4 -10l3 -12q5 -20 26 -20 q5 0 7 1q161 52 207 152zM308 611q0 20 14 34t34 14t33.5 -14t13.5 -34q0 -19 -14 -33t-35 -14q-19 0 -32.5 13.5t-13.5 33.5zM130 611q0 20 14 34t34 14t33.5 -14t13.5 -34q0 -19 -14.5 -33t-33.5 -14t-33 14t-14 33z" />
<glyph unicode="&#x152;" horiz-adv-x="1204" d="M811 81h324q11 0 18 -7.5t7 -17.5v-31q0 -11 -7 -18t-18 -7h-399q-10 0 -17.5 7t-7.5 18v97q-95 -130 -279 -130q-175 0 -279 99.5t-104 248.5q0 148 104 248t279 100q86 0 154 -28.5t125 -100.5v96q0 11 7.5 18t17.5 7h393q11 0 18 -7t7 -18v-31q0 -10 -7 -17.5 t-18 -7.5h-318v-204h281q10 0 17.5 -7.5t7.5 -17.5v-30q0 -10 -7.5 -17.5t-17.5 -7.5h-281v-234zM711 340q0 118 -75.5 190.5t-203.5 72.5q-126 0 -202 -73t-76 -190t76 -190t202 -73q128 0 203.5 72.5t75.5 190.5z" />
<glyph unicode="&#x153;" horiz-adv-x="995" d="M955 238q-1 -10 -8 -16.5t-17 -6.5h-361q3 -73 50.5 -111.5t113.5 -38.5q70 0 161 31q3 1 8 1q19 0 24 -19q3 -13 6 -20q2 -6 2 -9q0 -18 -17 -24q-99 -33 -185 -33q-73 0 -129 29t-83 83h-4q-62 -112 -213 -112q-119 0 -191.5 66.5t-72.5 178.5t72.5 178.5t191.5 66.5 q146 0 212 -111h4q60 111 210 111q107 0 167 -57.5t60 -150.5q0 -24 -1 -36zM467 237q0 81 -44.5 126t-119.5 45q-74 0 -119 -45t-45 -126t45 -126t119 -45q75 0 119.5 45t44.5 126zM570 278h297q0 65 -38 100t-97 35q-62 0 -106.5 -33t-55.5 -102z" />
<glyph unicode="&#x178;" horiz-adv-x="668" d="M331 381q-11 23 -40 68l-53.5 81.5l-58 84.5l-37.5 54q-7 11 -21 11h-55q-12 0 -19 -7t-7 -17q0 -7 5 -15l239 -350v-266q0 -11 7 -18t18 -7h50q11 0 18 7t7 18v267l239 349q5 8 5 15q0 10 -7 17t-19 7h-55q-14 0 -21 -11q-1 -2 -36.5 -53l-59 -85.5l-52.5 -80.5t-40 -69 h-7zM375 813q0 20 14 34t34 14t33.5 -14t13.5 -34q0 -19 -14 -33t-35 -14q-19 0 -32.5 13.5t-13.5 33.5zM199 813q0 20 13.5 34t33.5 14t33.5 -14t13.5 -34q0 -19 -14.5 -33t-33.5 -14t-32.5 14t-13.5 33z" />
<glyph unicode="&#x2c6;" horiz-adv-x="319" d="M143 680h37q8 0 24 -16l58 -82q6 -8 6 -16q0 -10 -7 -17t-19 -7h-12q-14 0 -21 12l-48 76l-47 -76q-7 -12 -21 -12h-12q-12 0 -19 7t-7 17q0 8 6 16l58 82q16 16 24 16z" />
<glyph unicode="&#x2dc;" horiz-adv-x="319" d="M100 662q32 0 69 -24q28 -20 44 -20q17 0 21 21q6 19 24 19h5q11 0 18 -7t7 -17q0 -5 -1 -7q-7 -31 -26.5 -48t-42.5 -17q-34 0 -69 24q-33 20 -44 20q-15 0 -20 -21q-6 -19 -24 -19h-5q-11 0 -18 7t-7 17q0 5 1 7q7 31 26.5 48t41.5 17z" />
<glyph unicode="&#x2000;" horiz-adv-x="453" />
<glyph unicode="&#x2001;" horiz-adv-x="906" />
<glyph unicode="&#x2002;" horiz-adv-x="453" />
<glyph unicode="&#x2003;" horiz-adv-x="906" />
<glyph unicode="&#x2004;" horiz-adv-x="302" />
<glyph unicode="&#x2005;" horiz-adv-x="226" />
<glyph unicode="&#x2006;" horiz-adv-x="151" />
<glyph unicode="&#x2007;" horiz-adv-x="151" />
<glyph unicode="&#x2008;" horiz-adv-x="113" />
<glyph unicode="&#x2009;" horiz-adv-x="181" />
<glyph unicode="&#x200a;" horiz-adv-x="50" />
<glyph unicode="&#x2010;" horiz-adv-x="408" d="M360 251v-31q0 -10 -7 -17.5t-18 -7.5h-261q-10 0 -17.5 7.5t-7.5 17.5v31q0 11 7.5 18t17.5 7h261q11 0 18 -7t7 -18z" />
<glyph unicode="&#x2011;" horiz-adv-x="408" d="M360 251v-31q0 -10 -7 -17.5t-18 -7.5h-261q-10 0 -17.5 7.5t-7.5 17.5v31q0 11 7.5 18t17.5 7h261q11 0 18 -7t7 -18z" />
<glyph unicode="&#x2013;" horiz-adv-x="644" d="M625 247v-20q0 -11 -7.5 -18t-17.5 -7h-556q-10 0 -17.5 7t-7.5 18v20q0 11 7.5 18t17.5 7h556q10 0 17.5 -7t7.5 -18z" />
<glyph unicode="&#x2014;" horiz-adv-x="1099" d="M1080 247v-20q0 -11 -7 -18t-18 -7h-1011q-10 0 -17.5 7t-7.5 18v20q0 11 7.5 18t17.5 7h1011q11 0 18 -7t7 -18z" />
<glyph unicode="&#x2018;" horiz-adv-x="246" d="M150 704l24 -11q16 -6 16 -23q0 -4 -2 -10q-41 -95 -41 -188q0 -22 -16 -36t-40 -14t-40.5 14t-16.5 36q0 82 85 222q7 12 22 12q3 0 9 -2z" />
<glyph unicode="&#x2019;" horiz-adv-x="238" d="M101 406l-25 11q-16 6 -16 23q0 3 2 9q42 101 42 189q0 22 16 36t40 14t40.5 -14t16.5 -36q0 -82 -85 -222q-7 -12 -22 -12q-3 0 -9 2z" />
<glyph unicode="&#x201a;" horiz-adv-x="246" d="M96 -182l-25 11q-16 6 -16 23q0 3 2 9q42 101 42 189q0 22 16 36t40 14t40.5 -14t16.5 -36q0 -82 -85 -222q-7 -12 -22 -12q-3 0 -9 2z" />
<glyph unicode="&#x201c;" horiz-adv-x="428" d="M147 704l24 -11q16 -6 16 -23q0 -4 -2 -10q-41 -95 -41 -188q0 -22 -16 -36t-40 -14t-40.5 14t-16.5 36q0 82 85 222q7 12 22 12q3 0 9 -2zM330 704l25 -11q16 -6 16 -23q0 -3 -2 -9q-42 -101 -42 -189q0 -22 -16 -36t-40 -14t-40.5 14t-16.5 36q0 82 85 222q7 12 22 12 q3 0 9 -2z" />
<glyph unicode="&#x201d;" horiz-adv-x="428" d="M279 406l-24 11q-16 6 -16 23q0 4 2 10q41 95 41 188q0 22 16 36t40 14t40.5 -14t16.5 -36q0 -82 -85 -222q-7 -12 -22 -12q-3 0 -9 2zM96 406l-25 11q-16 6 -16 23q0 3 2 9q42 101 42 189q0 22 16 36t40 14t40.5 -14t16.5 -36q0 -82 -85 -222q-7 -12 -22 -12q-3 0 -9 2z " />
<glyph unicode="&#x201e;" horiz-adv-x="428" d="M279 -182l-24 11q-16 6 -16 23q0 4 2 10q41 95 41 188q0 22 16 36t40 14t40.5 -14t16.5 -36q0 -82 -85 -222q-7 -12 -22 -12q-3 0 -9 2zM96 -182l-25 11q-16 6 -16 23q0 3 2 9q42 101 42 189q0 22 16 36t40 14t40.5 -14t16.5 -36q0 -82 -85 -222q-7 -12 -22 -12 q-3 0 -9 2z" />
<glyph unicode="&#x2022;" horiz-adv-x="357" d="M177 471q55 0 93 -38.5t38 -92.5q0 -55 -38 -94t-93 -39q-53 0 -90.5 39t-37.5 94q0 54 37.5 92.5t90.5 38.5z" />
<glyph unicode="&#x2026;" horiz-adv-x="917" d="M212 46q0 -25 -17.5 -39.5t-46.5 -14.5t-46 14.5t-17 39.5t17 39.5t46 14.5t46.5 -14.5t17.5 -39.5zM522 46q0 -25 -17 -39.5t-46 -14.5t-46.5 14.5t-17.5 39.5t17.5 39.5t46.5 14.5t46 -14.5t17 -39.5zM832 46q0 -26 -16.5 -40t-46.5 -14q-29 0 -46 14.5t-17 39.5 t17 39.5t46 14.5q30 0 46.5 -14t16.5 -40z" />
<glyph unicode="&#x202f;" horiz-adv-x="181" />
<glyph unicode="&#x2039;" horiz-adv-x="279" d="M122 236l115 -199q4 -7 4 -14q0 -10 -7 -16.5t-19 -6.5h-45q-5 0 -12.5 4.5t-9.5 8.5l-124 211q-2 3 -2 12q0 10 2 13l124 212q2 4 9.5 8.5t12.5 4.5h46q12 0 19 -7t7 -17q0 -7 -4 -14z" />
<glyph unicode="&#x203a;" horiz-adv-x="279" d="M39 38l116 198l-116 200q-4 7 -4 14q0 10 7 17t19 7h46q15 0 22 -13l124 -211q2 -6 2 -13q0 -6 -2 -12l-124 -212q-7 -13 -22 -13h-46q-12 0 -19 7t-7 17q0 7 4 14z" />
<glyph unicode="&#x205f;" horiz-adv-x="226" />
<glyph unicode="&#x20ac;" horiz-adv-x="669" d="M632 634l-7 -29q-6 -26 -23 -26q-4 0 -10 2q-69 23 -132 23q-202 0 -251 -161h312q11 0 18 -7.5t7 -17.5v-10q0 -10 -7 -17.5t-18 -7.5h-323q-2 -18 -2 -43q0 -29 1 -42h324q11 0 18 -7t7 -18v-11q0 -10 -7 -17.5t-18 -7.5h-312q50 -161 251 -161q63 0 132 23q3 1 8 1 q21 0 24 -19l9 -37v-4q0 -16 -17 -23q-72 -25 -154 -25q-141 0 -236.5 58.5t-123.5 186.5h-39q-11 0 -18 7.5t-7 17.5v11q0 11 7 18t18 7h29q-2 32 -2 42q0 11 2 43h-29q-11 0 -18 7.5t-7 17.5v10q0 10 7 17.5t18 7.5h39q28 129 123 187t237 58q83 0 155 -26q16 -5 16 -22 q0 -4 -1 -6z" />
<glyph unicode="&#x2122;" horiz-adv-x="667" d="M276 671v-14q0 -6 -4.5 -10.5t-10.5 -4.5h-84v-224q0 -6 -4.5 -10.5t-10.5 -4.5h-26q-6 0 -10.5 4.5t-4.5 10.5v224h-85q-6 0 -10.5 4.5t-4.5 10.5v14q0 6 4.5 10.5t10.5 4.5h225q6 0 10.5 -4.5t4.5 -10.5zM556 610l-89 -109q-4 -6 -12 -6q-7 0 -12 5l-89 109l-6 -191 q0 -6 -4.5 -10.5t-10.5 -4.5h-26q-15 0 -15 16q10 213 11 252q0 6 4.5 10.5t10.5 4.5h30q6 0 12 -6l95 -116l95 117q5 5 11 5h31q15 0 15 -14l11 -253q0 -16 -15 -16h-26q-6 0 -10.5 4.5t-4.5 10.5z" />
</font>
</defs>
</svg>
