<?xml version="1.0" standalone="no"?>
<!DOCTYPE svg PUBLIC "-//W3C//DTD SVG 1.1//EN" "http://www.w3.org/Graphics/SVG/1.1/DTD/svg11.dtd" >
<svg xmlns="http://www.w3.org/2000/svg">
<metadata>
This is a custom SVG webfont generated by Fontspring.
Designer    : Nicholas Garner
Foundry     : Aviation Partners
Foundry URL : http://www.codesign.co.uk
</metadata>
<defs>
<font id="webfontTbmYCzQX" horiz-adv-x="524" >
<font-face units-per-em="1000" ascent="800" descent="-200" />
<missing-glyph horiz-adv-x="245" />
<glyph unicode=" "  horiz-adv-x="245" />
<glyph unicode="&#x09;" horiz-adv-x="245" />
<glyph unicode="&#xa0;" horiz-adv-x="245" />
<glyph unicode="!" horiz-adv-x="281" d="M149 212h-16q-14 0 -23 9t-9 23v4l49 404q1 12 10.5 20t21.5 8h60q13 0 22.5 -9t9.5 -22q0 -5 -1 -8q-15 -68 -46 -198t-47 -206q-2 -10 -11 -17.5t-20 -7.5zM96 -8q36 0 63 24.5t27 63.5q0 27 -17.5 43.5t-47.5 16.5q-39 0 -64 -25t-25 -65q0 -27 17 -42.5t47 -15.5z " />
<glyph unicode="&#x22;" horiz-adv-x="396" d="M164 680h46q14 0 23 -9t9 -22q0 -6 -1 -9l-55 -210q-2 -10 -11.5 -17t-19.5 -7h-15q-14 0 -23 10t-9 25l24 210q2 12 11 20.5t21 8.5zM327 680h47q14 0 23 -9t9 -22q0 -5 -1 -8l-50 -210q-2 -10 -11.5 -17.5t-19.5 -7.5h-15q-14 0 -23 10t-9 25l18 210q1 12 10.5 20.5 t21.5 8.5z" />
<glyph unicode="#" horiz-adv-x="540" d="M180 89l-19 -107q-2 -12 -11.5 -19.5t-21.5 -7.5h-4l-34 7q-23 7 -23 31v5l17 91h-44q-14 0 -23 9.5t-9 22.5v32q0 13 9 22.5t23 9.5h60l27 148h-44q-13 0 -22.5 9.5t-9.5 22.5v32q0 13 9.5 22.5t22.5 9.5h60l19 107q2 12 11.5 19.5t21.5 7.5h4l35 -7q23 -7 23 -31v-5 l-17 -91h122l20 108q5 26 32 26h4l34 -7q23 -7 23 -31v-5l-17 -91h44q14 0 23 -9.5t9 -22.5v-32q0 -13 -9 -22.5t-23 -9.5h-60l-27 -148h44q13 0 22.5 -9.5t9.5 -22.5v-32q0 -13 -9.5 -22.5t-22.5 -9.5h-61l-19 -107q-2 -12 -11.5 -19.5t-21.5 -7.5h-4l-34 7q-23 7 -23 31v5 l17 91h-122zM318 185l27 148h-123l-24 -148h120z" />
<glyph unicode="$" horiz-adv-x="541" d="M334 408q70 -33 113 -75.5t43 -107.5q0 -84 -59.5 -145t-151.5 -82l-13 -70q-1 -11 -10.5 -19t-21.5 -8h-41q-13 0 -22.5 9.5t-9.5 22.5v5l10 58q-72 13 -137 52q-16 10 -16 28q0 5 2 11l25 53q9 19 29 19q9 0 18 -6q74 -49 143 -49q48 0 82 26t34 66q0 30 -26.5 53 t-74.5 47q-74 38 -111.5 75t-37.5 98q0 79 54.5 134t137.5 78l13 72q1 11 10.5 19t21.5 8h41q14 0 23.5 -9t9.5 -22q0 -1 -0.5 -3t-0.5 -3l-11 -58q60 -11 110 -38q17 -8 17 -29q0 -4 -2 -10q-7 -21 -23 -51q-8 -18 -29 -18q-9 0 -16 4q-61 35 -115 35q-42 0 -73.5 -22 t-31.5 -59q0 -24 17.5 -40t55.5 -36z" />
<glyph unicode="%" horiz-adv-x="825" d="M201 0h-5q-15 0 -24 9t-9 21q0 11 7 21l461 616q9 13 26 13h6q15 0 24 -9t9 -21q0 -11 -7 -21l-462 -616q-9 -13 -26 -13zM180 268q-54 0 -83.5 39.5t-29.5 108.5q0 116 56 194t131 78q53 0 82.5 -39.5t29.5 -107.5q0 -117 -56 -195t-130 -78zM241 614q-31 0 -58.5 -60 t-27.5 -135q0 -76 38 -76q29 0 57 59t28 133q0 79 -37 79zM607 -8q-54 0 -84 39.5t-30 108.5q0 116 56 193.5t132 77.5q53 0 82.5 -39.5t29.5 -107.5q0 -116 -56 -194t-130 -78zM668 337q-30 0 -57.5 -59t-27.5 -134q0 -77 37 -77q31 0 58 59.5t27 133.5q0 77 -37 77z" />
<glyph unicode="&#x26;" horiz-adv-x="686" d="M366 355l92 -130q36 41 91 111q9 13 29 13l44 -6q28 -5 28 -30q0 -11 -7 -21q-64 -88 -129 -152l65 -90q7 -10 7 -20q0 -12 -9 -21t-24 -9h-79q-14 0 -24 10l-32 55q-122 -73 -211 -73q-77 0 -126.5 38.5t-49.5 107.5q0 130 172 233v4q-51 74 -51 128q0 84 65.5 134.5 t145.5 50.5q65 0 108 -33.5t43 -93.5q0 -55 -41 -108.5t-107 -97.5zM361 140l-107 152q-93 -71 -93 -131q0 -31 20.5 -51.5t51.5 -20.5q51 0 128 51zM295 458l17 -26q85 62 85 112q0 22 -14 35.5t-37 13.5q-26 0 -49.5 -21t-23.5 -51q0 -27 22 -63z" />
<glyph unicode="'" horiz-adv-x="244" d="M170 680h47q14 0 23 -9.5t9 -22.5q0 -5 -1 -8l-52 -210q-2 -10 -11.5 -17t-19.5 -7h-15q-14 0 -23 10t-9 25l20 210q1 12 10.5 20.5t21.5 8.5z" />
<glyph unicode="(" horiz-adv-x="326" d="M174 -206h-46q-8 0 -17.5 6t-12.5 14q-45 111 -45 256q0 154 54.5 314.5t145.5 281.5q9 13 26 13h34q15 0 24 -9t9 -22q0 -10 -6 -19q-172 -260 -172 -565q0 -124 36 -228q2 -8 2 -12q0 -13 -9 -21.5t-23 -8.5z" />
<glyph unicode=")" horiz-adv-x="326" d="M149 679h46q8 0 17.5 -6.5t12.5 -13.5q45 -111 45 -256q0 -154 -54.5 -314.5t-145.5 -281.5q-9 -13 -26 -13h-34q-15 0 -24 9t-9 22q0 10 6 19q172 260 172 565q0 124 -36 228q-2 8 -2 12q0 13 9 21.5t23 8.5z" />
<glyph unicode="*" horiz-adv-x="467" d="M470 435q-2 -10 -5 -15l-13 -22q-11 -22 -31 -22q-8 0 -15 4l-75 51l-8 -6l33 -89q2 -8 2 -12v-4q-3 -20 -26 -29l-23 -10q-8 -3 -15 -3q-21 0 -23 23l-8 99h-10l-42 -99q-9 -23 -32 -23q-7 0 -13 3l-20 9q-16 6 -16 23q0 4 1 6q0 9 6 16l64 89l-4 7l-94 -51 q-7 -4 -16 -4q-20 0 -23 21l-6 22q-1 2 -1 7t1 8q3 24 27 30l99 26l1 10l-89 26q-17 4 -17 23v6q2 8 6 15l12 22q11 22 31 22q10 0 15 -4l76 -51l7 7l-33 88q-1 5 -1 16q5 21 26 29l22 10q10 4 15 4q22 0 25 -23l7 -100h9l42 99q11 23 32 23q6 0 14 -3l19 -9q16 -6 16 -24 v-5q-2 -10 -7 -16l-64 -89l5 -7l93 51q8 5 16 5q18 0 25 -22l4 -22q2 -10 2 -15q-5 -23 -28 -30l-99 -26l-2 -10l90 -26q17 -5 17 -22q0 -5 -1 -7z" />
<glyph unicode="+" horiz-adv-x="540" d="M507 253v-32q0 -13 -9.5 -22.5t-22.5 -9.5h-157v-157q0 -14 -9 -23t-23 -9h-32q-14 0 -23 9t-9 23v157h-157q-13 0 -22.5 9.5t-9.5 22.5v32q0 13 9.5 22.5t22.5 9.5h157v157q0 14 9 23t23 9h32q14 0 23 -9t9 -23v-157h157q13 0 22.5 -9.5t9.5 -22.5z" />
<glyph unicode="," horiz-adv-x="267" d="M195 82q0 -83 -127 -261q-8 -12 -27 -12q-6 0 -9 1l-27 11q-22 6 -22 30q0 8 4 15q54 103 71 205q5 29 27.5 48.5t51.5 19.5q25 0 41.5 -16.5t16.5 -40.5z" />
<glyph unicode="-" horiz-adv-x="395" d="M353 255l-7 -42q-1 -11 -11 -19t-21 -8h-243q-13 0 -22.5 9t-9.5 23v5l8 42q1 11 11 19t21 8h242q14 0 23 -9t9 -23v-5z" />
<glyph unicode="." horiz-adv-x="253" d="M96 -8q-30 0 -47 15.5t-17 42.5q0 40 25 65t64 25q29 0 47 -16.5t18 -43.5q0 -39 -26.5 -63.5t-63.5 -24.5z" />
<glyph unicode="/" horiz-adv-x="375" d="M-14 -27l343 689q3 7 12 12.5t17 5.5h24q15 0 24 -8.5t9 -21.5q0 -9 -4 -16l-343 -689q-3 -7 -12 -12.5t-17 -5.5h-24q-15 0 -24 8.5t-9 21.5q0 9 4 16z" />
<glyph unicode="0" horiz-adv-x="512" d="M335 688q81 0 126.5 -64.5t45.5 -174.5q0 -193 -89.5 -325t-205.5 -132q-82 0 -128 64.5t-46 176.5q0 192 90 323.5t207 131.5zM232 106q32 0 65.5 45t56.5 123.5t23 163.5q0 62 -16.5 99t-45.5 37q-24 0 -50.5 -27.5t-47.5 -71.5t-35 -106t-14 -126q0 -63 17 -100 t47 -37z" />
<glyph unicode="1" horiz-adv-x="512" d="M116 559l178 113q14 8 28 8h51q14 0 23.5 -9.5t9.5 -22.5q0 -1 -0.5 -3t-0.5 -3l-95 -537h97q13 0 22.5 -9.5t9.5 -22.5v-5l-8 -41q-1 -11 -11 -19t-21 -8h-330q-13 0 -22.5 9t-9.5 23v5l7 41q1 11 11 19t21 8h106l77 441l-105 -71q-9 -6 -19 -6q-12 0 -21 8t-10 22 q-2 24 -2 26v7q0 6 4.5 15t9.5 12z" />
<glyph unicode="2" horiz-adv-x="514" d="M139 555l-4 42q0 18 15 27q108 65 184 65q77 0 123.5 -43.5t46.5 -116.5q0 -69 -63.5 -166t-227.5 -258h181q14 0 23 -9.5t9 -22.5v-5l-8 -41q-1 -11 -11 -19t-21 -8h-332q-14 0 -23 9.5t-9 22.5v4l3 20q3 18 15 32l177 179q156 156 156 241q0 32 -17.5 50t-48.5 18 q-48 0 -118 -46q-9 -6 -20 -6q-12 0 -20.5 8.5t-9.5 22.5z" />
<glyph unicode="3" horiz-adv-x="514" d="M209 324l10 53q2 10 10 18t18 9q55 6 84 38.5t29 70.5q0 28 -15.5 44.5t-44.5 16.5q-51 0 -111 -29q-8 -3 -15 -3q-12 0 -20 8t-10 22l-4 38q0 21 17 29q95 48 171 48q73 0 118 -41.5t45 -108.5q0 -49 -25.5 -98t-75.5 -78l1 -8q61 -30 61 -114q0 -109 -75.5 -178 t-178.5 -69q-76 0 -151 48q-15 10 -15 29q0 4 2 10l22 51q8 19 28 19q7 0 17 -5q63 -39 113 -39q45 0 78 32.5t33 83.5q0 59 -87 67q-13 1 -21 10t-8 21v5z" />
<glyph unicode="4" horiz-adv-x="512" d="M419 263h28q13 0 22.5 -9.5t9.5 -22.5v-5l-8 -41q-1 -11 -11 -19t-21 -8h-39l-22 -131q-2 -11 -11.5 -19t-20.5 -8h-58q-14 0 -23.5 9t-9.5 22q0 1 0.5 3t0.5 3l20 121h-223q-13 0 -22.5 9t-9.5 23v5l12 69l327 404q10 12 25 12h69q14 0 23.5 -9t9.5 -22q0 -1 -0.5 -3 t-0.5 -3zM331 500l-179 -234l-1 -7q78 4 83 4h60q22 114 28 151q10 50 18 86h-9z" />
<glyph unicode="5" horiz-adv-x="514" d="M462 281q0 -115 -83 -202t-185 -87q-75 0 -146 25q-21 6 -21 30q0 7 3 14l21 47q8 18 30 18q4 0 10 -2q53 -19 105 -19q55 0 95.5 47.5t40.5 107.5q0 44 -24.5 69.5t-68.5 25.5q-40 0 -79 -7q-1 0 -3 -0.5t-3 -0.5q-13 0 -22.5 9.5t-9.5 23.5q0 5 1 8l68 268 q2 10 11.5 17t19.5 7h258q14 0 23 -9t9 -23v-5l-8 -41q-1 -11 -11 -19t-21 -8h-175l-27 -110q13 1 24 1q75 0 121.5 -51.5t46.5 -133.5z" />
<glyph unicode="6" horiz-adv-x="512" d="M264 461l2 -7q18 9 44 11q81 -3 128 -52t47 -131q0 -130 -82 -210t-191 -80q-87 0 -138.5 49t-51.5 136q0 237 314 489q17 14 39 14h40q14 0 23 -9.5t9 -22.5q0 -16 -12 -25q-100 -81 -171 -162zM354 266q0 42 -20 65.5t-58 23.5q-60 0 -92 -44t-32 -118q0 -42 20 -65.5 t60 -23.5q52 0 87 45.5t35 116.5z" />
<glyph unicode="7" horiz-adv-x="512" d="M534 582l-332 -566q-3 -6 -12 -11t-16 -5h-61q-15 0 -24 9t-9 21q0 10 6 19l315 526h-202l-15 -86q-1 -11 -11 -19t-21 -8h-34q-14 0 -23.5 9.5t-9.5 22.5q0 1 0.5 3t0.5 3l28 154q2 11 11.5 18.5t20.5 7.5h372q14 0 23 -9t9 -23v-5l-6 -33q-1 -13 -10 -28z" />
<glyph unicode="8" horiz-adv-x="514" d="M383 357q31 -17 52.5 -53t21.5 -83q0 -97 -73 -163t-172 -66q-79 0 -127.5 43.5t-48.5 114.5q0 66 39.5 123t94.5 84l1 4q-61 41 -61 117q0 87 68.5 148.5t156.5 61.5q72 0 117 -41.5t45 -106.5q0 -57 -32 -105t-81 -74zM315 576q-32 0 -56.5 -23.5t-24.5 -61.5 q0 -53 54 -68q38 10 61 38t23 58q0 27 -15.5 42t-41.5 15zM232 104q46 0 72.5 31.5t26.5 72.5q0 67 -66 85q-47 -12 -74.5 -47t-27.5 -77q0 -29 17 -47t52 -18z" />
<glyph unicode="9" horiz-adv-x="512" d="M282 219l-2 7q-18 -9 -44 -11q-81 3 -128 52t-47 131q0 130 82 210t191 80q87 0 138.5 -49t51.5 -136q0 -237 -314 -489q-17 -14 -39 -14h-40q-14 0 -23 9.5t-9 22.5q0 16 12 25q100 81 171 162zM192 414q0 -42 20 -65.5t58 -23.5q60 0 92 44t32 118q0 42 -20 65.5 t-60 23.5q-52 0 -87 -45.5t-35 -116.5z" />
<glyph unicode=":" horiz-adv-x="253" d="M150 295q-30 0 -47 15.5t-17 42.5q0 40 25 65t64 25q30 0 47.5 -16.5t17.5 -43.5q0 -39 -27 -63.5t-63 -24.5zM96 -8q-30 0 -47 15.5t-17 42.5q0 40 25 65t64 25q30 0 47.5 -16.5t17.5 -43.5q0 -39 -27 -63.5t-63 -24.5z" />
<glyph unicode=";" horiz-adv-x="267" d="M165 295q-30 0 -47 15.5t-17 42.5q0 40 25 65t64 25q29 0 47 -16.5t18 -43.5q0 -39 -26.5 -63.5t-63.5 -24.5zM195 82q0 -83 -127 -261q-8 -12 -27 -12q-6 0 -9 1l-27 11q-22 6 -22 30q0 8 4 15q54 103 71 205q5 29 27.5 48.5t51.5 19.5q25 0 41.5 -16.5t16.5 -40.5z" />
<glyph unicode="&#x3c;" horiz-adv-x="541" d="M61 289l386 173q6 3 13 3q22 0 30 -20l13 -30q2 -8 2 -11q0 -22 -19 -30q-211 -93 -316 -133v-8q47 -16 128 -50q81 -33 138 -59l57 -26q15 -8 15 -24q0 -4 -2 -10l-16 -35q-8 -20 -30 -20q-7 0 -13 3l-386 173q-7 3 -13 12t-6 17v46q0 8 6 17t13 12z" />
<glyph unicode="=" horiz-adv-x="540" d="M65 384h410q13 0 22.5 -9t9.5 -23v-32q0 -14 -9.5 -23t-22.5 -9h-410q-13 0 -22.5 9t-9.5 23v32q0 14 9.5 23t22.5 9zM65 186h410q13 0 22.5 -9t9.5 -23v-32q0 -14 -9.5 -23t-22.5 -9h-410q-13 0 -22.5 9t-9.5 23v32q0 14 9.5 23t22.5 9z" />
<glyph unicode="&#x3e;" horiz-adv-x="541" d="M103 462l386 -173q7 -3 13 -12t6 -17v-46q0 -8 -6 -17t-13 -12l-386 -173q-6 -3 -13 -3q-22 0 -30 20l-16 35q-2 6 -2 10q0 16 15 24q217 98 323 135v8q-105 40 -316 133q-19 8 -19 30q0 3 2 11l13 30q8 20 30 20q7 0 13 -3z" />
<glyph unicode="?" horiz-adv-x="416" d="M126 -8q36 0 63 24.5t27 63.5q0 27 -17.5 43.5t-47.5 16.5q-39 0 -64 -25t-25 -65q0 -27 17 -42.5t47 -15.5zM110 613l-1 19q0 24 20 33q65 23 130 23q85 0 125.5 -35t40.5 -88q0 -36 -18.5 -73.5t-38.5 -60.5t-55 -58l-17 -16.5t-18 -18l-16.5 -17.5t-17.5 -20.5 l-14 -20t-13.5 -23.5t-9.5 -24q-2 -8 -11.5 -14.5t-18.5 -6.5h-21q-14 0 -23 9t-9 23v5q14 84 78 147q47 46 68.5 77t21.5 64q0 56 -79 56q-23 0 -62 -11q-8 -2 -11 -2q-12 0 -20.5 9t-9.5 24z" />
<glyph unicode="@" horiz-adv-x="762" d="M474 -59l2 -9q1 -4 1 -11q0 -24 -22 -30q-51 -15 -108 -15q-148 0 -233.5 90t-85.5 232q0 167 108 283.5t275 116.5q144 0 233 -85t89 -216q0 -121 -61 -187t-134 -66q-31 0 -59 20t-31 58h-6q-21 -40 -58 -59t-70 -19q-50 0 -82 31t-32 90q0 117 68.5 190.5t144.5 73.5 q61 0 125 -36q16 -11 16 -30q0 -1 -0.5 -3t-0.5 -3q-34 -131 -34 -180q0 -58 38 -58q35 0 64.5 39.5t29.5 130.5q0 45 -12.5 84.5t-39.5 73.5t-77 54t-118 20q-126 0 -209 -90.5t-83 -229.5q0 -114 63.5 -181t179.5 -67q40 0 79 11q3 1 9 1q25 0 31 -24zM465 335 q-25 19 -58 19q-37 0 -76.5 -47t-39.5 -123q0 -31 13.5 -48t36.5 -17q49 3 80.5 69t43.5 147z" />
<glyph unicode="A" horiz-adv-x="650" d="M561 0h-70q-11 0 -21 8t-11 19l-19 122h-256l-66 -132q-8 -17 -29 -17h-69q-15 0 -23.5 8.5t-8.5 21.5q0 9 4 17l334 616q3 6 12 11.5t16 5.5h88q10 0 19.5 -7.5t11.5 -18.5l76 -395l43 -221q0 -1 0.5 -3.5t0.5 -3.5q0 -14 -9 -22.5t-23 -8.5zM237 257h188 q-36 222 -36 294h-11q-14 -37 -49.5 -110.5l-63.5 -128.5z" />
<glyph unicode="B" horiz-adv-x="581" d="M436 376l-1 -5q47 -15 75.5 -59t28.5 -97q0 -100 -79 -161.5t-261 -61.5q-92 0 -138 3q-13 1 -21.5 10t-8.5 22v5l110 624q1 10 10 18t19 9q55 5 165 5q114 0 166.5 -43.5t52.5 -106.5q0 -53 -34 -98t-84 -64zM209 302l-35 -197q35 -4 71 -4q79 0 120 35t41 92 q0 74 -120 74h-77zM257 576l-31 -170h70q53 0 90 32.5t37 83.5q0 30 -22.5 43.5t-77.5 13.5q-44 0 -66 -3z" />
<glyph unicode="C" horiz-adv-x="605" d="M546 118l6 -43v-4q0 -21 -18 -30q-102 -49 -199 -49q-131 0 -210 74.5t-79 202.5q0 98 34.5 178.5t92 132.5t131 80t154.5 28q89 0 170 -44q17 -8 17 -30q0 -4 -2 -10l-23 -55q-8 -20 -29 -20q-11 0 -18 5q-65 42 -128 42q-113 0 -187.5 -88t-74.5 -211q0 -82 46 -127.5 t133 -45.5q60 0 138 39q10 4 15 4q11 0 20.5 -8t10.5 -21z" />
<glyph unicode="D" horiz-adv-x="674" d="M209 -8q-85 0 -148 5q-13 2 -21 10.5t-8 21.5v5l109 622q1 10 10 18t19 9q55 5 167 5q161 0 243 -75.5t82 -201.5q0 -189 -121.5 -304t-331.5 -115zM257 574l-83 -468q46 -3 81 -3q119 0 195 85t76 221q0 168 -188 168q-36 0 -81 -3z" />
<glyph unicode="E" horiz-adv-x="510" d="M449 71l-10 -53q-1 -7 -11 -12.5t-18 -5.5h-346q-14 0 -23.5 9.5t-9.5 22.5q0 1 0.5 3t0.5 3l109 616q2 11 11.5 18.5t20.5 7.5h341q14 0 23 -9t9 -23v-5l-10 -53q-1 -8 -10.5 -13t-18.5 -5h-252q-3 -20 -12 -75l-15 -90h208q14 0 23 -9.5t9 -22.5v-5l-10 -53 q-1 -7 -11 -12.5t-18 -5.5h-220l-34 -191h242q13 0 22.5 -9t9.5 -23v-5z" />
<glyph unicode="F" horiz-adv-x="489" d="M207 298l-47 -271q-1 -11 -11 -19t-21 -8h-64q-14 0 -23.5 9.5t-9.5 22.5q0 1 0.5 3t0.5 3l107 616q2 11 11.5 18.5t20.5 7.5h331q14 0 23 -9t9 -23v-5l-10 -53q-1 -8 -10.5 -13t-18.5 -5h-240l-29 -166h205q13 0 22.5 -9t9.5 -23v-5l-10 -53q-1 -7 -11 -12.5t-18 -5.5 h-217z" />
<glyph unicode="G" horiz-adv-x="671" d="M643 602l-23 -51q-9 -22 -29 -22q-10 0 -19 6q-59 41 -126 41q-114 0 -188.5 -87.5t-74.5 -211.5q0 -81 46.5 -127t134.5 -46q34 0 86 9l27 150h-77q-14 0 -23 9.5t-9 22.5v5l8 44q1 11 11 19t21 8h179q14 0 23.5 -9t9.5 -22q0 -1 -0.5 -3t-0.5 -3l-53 -293 q-1 -8 -9.5 -15.5t-16.5 -9.5q-122 -24 -204 -24q-131 0 -210.5 75t-79.5 204q0 97 34.5 177t92.5 131.5t132 80t154 28.5q90 0 170 -46q16 -8 16 -29q0 -3 -2 -11z" />
<glyph unicode="H" horiz-adv-x="678" d="M681 643l-108 -616q-2 -11 -11.5 -19t-20.5 -8h-64q-14 0 -23.5 9t-9.5 22q0 1 0.5 3t0.5 3l46 260h-282l-48 -270q-2 -11 -11.5 -19t-20.5 -8h-65q-14 0 -23.5 9.5t-9.5 22.5q0 1 0.5 3t0.5 3l108 616q2 11 11.5 18.5t20.5 7.5h64q14 0 23.5 -9.5t9.5 -22.5 q0 -1 -0.5 -3t-0.5 -3l-41 -237h282l45 249q2 11 11.5 18.5t20.5 7.5h63q14 0 23.5 -9t9.5 -22q0 -1 -0.5 -3t-0.5 -3z" />
<glyph unicode="I" horiz-adv-x="388" d="M415 643l-5 -28q-5 -32 -32 -32h-60l-86 -487h48q14 0 23 -8.5t9 -22.5q0 -1 -0.5 -3.5t-0.5 -3.5l-5 -32q-2 -11 -11.5 -18.5t-19.5 -7.5h-235q-14 0 -23 8.5t-9 22.5q0 1 0.5 3.5t0.5 3.5l5 32q2 11 11.5 18.5t19.5 7.5h58l86 487h-47q-14 0 -23 9.5t-9 22.5v5l7 36 q2 10 11.5 17t19.5 7h235q13 0 22.5 -9t9.5 -23v-5z" />
<glyph unicode="J" horiz-adv-x="429" d="M218 165l73 419h-107q-14 0 -23 9t-9 23v5l7 35q2 10 11.5 17t19.5 7h208q14 0 23 -9t9 -23v-5l-83 -475q-14 -82 -71 -129t-140 -47q-59 0 -117 32q-17 10 -17 29q0 4 4 14l24 48q10 16 27 16q8 0 15 -4q34 -19 70 -19q28 0 50 16t26 41z" />
<glyph unicode="K" horiz-adv-x="620" d="M219 325h-6l-53 -299q-2 -11 -11.5 -18.5t-20.5 -7.5h-64q-14 0 -23.5 9t-9.5 22q0 1 0.5 3t0.5 3l108 616q2 11 11.5 19t20.5 8h64q14 0 23.5 -9t9.5 -22q0 -1 -0.5 -3t-0.5 -3l-38 -223h6l234 250q10 10 24 10h71q15 0 24 -9t9 -22t-10 -23l-255 -262l208 -314 q6 -9 6 -19q0 -13 -9 -22t-24 -9h-81q-14 0 -23 12q-177 279 -191 313z" />
<glyph unicode="L" horiz-adv-x="496" d="M453 68l-6 -36q-3 -32 -32 -32h-351q-14 0 -23.5 9.5t-9.5 22.5q0 1 0.5 3t0.5 3l108 616q2 11 11.5 18.5t20.5 7.5h65q14 0 23.5 -9t9.5 -22q0 -1 -0.5 -3t-0.5 -3l-95 -539h247q13 0 23 -9t10 -21q0 -1 -0.5 -3t-0.5 -3z" />
<glyph unicode="M" horiz-adv-x="803" d="M641 476h-5l-211 -243q-11 -12 -25 -12q-18 0 -27 18l-121 237h-7q-9 -51 -26.5 -141.5l-37 -188t-23.5 -120.5q-2 -11 -11.5 -18.5t-19.5 -7.5h-63q-14 0 -23 8.5t-9 22.5q0 1 0.5 3.5t0.5 3.5l126 617q2 10 11 17.5t20 7.5h75q21 0 29 -17l132 -260l228 266q9 11 24 11 h79q13 0 22.5 -9t9.5 -23v-5l-89 -615q-1 -11 -11 -19.5t-21 -8.5h-63q-13 0 -21.5 8t-8.5 21v5q46 319 66 442z" />
<glyph unicode="N" horiz-adv-x="694" d="M519 334l57 320q2 11 11.5 18.5t20.5 7.5h57q14 0 23.5 -9t9.5 -22q0 -1 -0.5 -3t-0.5 -3l-108 -616q-2 -11 -11.5 -19t-20.5 -8h-64q-8 0 -17 5.5t-12 12.5l-234 447h-6q-6 -74 -16 -129l-55 -310q-2 -11 -11.5 -18.5t-20.5 -7.5h-57q-14 0 -23.5 9t-9.5 22q0 1 0.5 3 t0.5 3l108 616q2 11 11.5 19t20.5 8h71q8 0 17.5 -6t12.5 -14l226 -438h6q1 18 14 112z" />
<glyph unicode="O" horiz-adv-x="720" d="M708 411q0 -173 -110.5 -296t-281.5 -123q-129 0 -199.5 78.5t-70.5 201.5q0 109 48.5 204t140 153.5t204.5 58.5q130 0 199.5 -78t69.5 -199zM572 414q0 79 -39 120.5t-114 41.5q-100 0 -168.5 -88.5t-68.5 -219.5q0 -79 39.5 -121.5t114.5 -42.5q101 0 168.5 88.5 t67.5 221.5z" />
<glyph unicode="P" horiz-adv-x="546" d="M32 37l109 618q1 10 10 18t19 9q74 6 166 6q114 0 169.5 -52.5t55.5 -132.5q0 -103 -68 -178.5t-161 -83.5q-38 -3 -70 -3q-47 0 -64 1l-37 -213q-2 -11 -11.5 -18.5t-20.5 -7.5h-65q-14 0 -23 9t-9 23v5zM256 571l-39 -220q45 -2 72 -2q56 0 96 43.5t40 108.5 q0 75 -99 75q-32 0 -70 -5z" />
<glyph unicode="Q" horiz-adv-x="721" d="M577 -73l-21 -42q-10 -18 -29 -18q-94 6 -160.5 42.5t-92.5 85.5q-113 12 -170.5 88.5t-57.5 186.5q0 170 111 294t282 124q131 0 200.5 -78.5t69.5 -199.5q0 -85 -31 -165t-96 -144t-154 -90q14 -13 36 -21t36 -10.5t45 -5.5q1 0 4 -0.5t4 -0.5q28 -3 28 -30 q0 -8 -4 -16zM336 104q101 0 169 88t68 220q0 78 -39.5 121t-114.5 43q-85 0 -148 -68t-83 -176q-6 -38 -6 -62q0 -80 39.5 -123t114.5 -43z" />
<glyph unicode="R" horiz-adv-x="592" d="M382 32q-13 48 -21.5 76t-25.5 72t-37 66t-43 22h-52l-43 -242q-2 -11 -11 -18.5t-20 -7.5h-65q-14 0 -23 9t-9 23v5l109 618q1 10 10 18t19 9q74 6 165 6q115 0 169.5 -49.5t54.5 -124.5q0 -63 -45 -123t-108 -84l-1 -5q31 -19 53 -63t45 -123l27 -73q2 -4 2 -12 q0 -13 -9 -22t-23 -9h-86q-25 0 -32 32zM257 573l-35 -197h60q61 0 100.5 35t39.5 95q0 70 -96 70q-36 0 -69 -3z" />
<glyph unicode="S" horiz-adv-x="518" d="M7 86l25 53q8 20 28 20q9 0 18 -6q65 -49 135 -49q50 0 87 27t37 70q0 20 -17 38.5t-33 28t-50 27.5q-73 38 -111.5 77.5t-38.5 101.5q0 100 77 157t178 57q76 0 154 -42q16 -10 16 -29q0 -8 -2 -12l-22 -48q-10 -20 -29 -20q-8 0 -16 5q-57 34 -115 34q-36 0 -69.5 -23 t-33.5 -62q0 -17 14.5 -33t29.5 -24.5t46 -23.5q35 -17 58 -32t49 -38t39.5 -53t13.5 -66q0 -105 -77.5 -167t-187.5 -62q-105 0 -191 54q-15 10 -15 27q0 7 3 13z" />
<glyph unicode="T" horiz-adv-x="536" d="M600 642l-8 -45q-2 -10 -11 -17.5t-20 -7.5h-170l-96 -546q-2 -11 -11.5 -18.5t-20.5 -7.5h-63q-14 0 -23.5 9t-9.5 22q0 1 0.5 3t0.5 3l94 535h-157q-13 0 -22.5 9t-9.5 23v5l8 44q1 11 11 19t21 8h456q14 0 23 -8.5t9 -22.5q0 -1 -0.5 -3.5t-0.5 -3.5z" />
<glyph unicode="U" horiz-adv-x="689" d="M491 249l72 405q2 11 11 18.5t20 7.5h65q14 0 23 -9t9 -23v-5l-71 -407q-20 -113 -111.5 -178.5t-208.5 -65.5q-105 0 -170.5 58t-65.5 152q0 21 5 49l71 403q2 11 11 18.5t20 7.5h66q14 0 23.5 -9.5t9.5 -22.5q0 -1 -0.5 -3t-0.5 -3l-71 -404q-3 -18 -3 -30 q0 -50 34.5 -77t90.5 -27q63 0 111.5 41.5t59.5 103.5z" />
<glyph unicode="V" horiz-adv-x="652" d="M214 26l-125 616q0 1 -0.5 3.5t-0.5 3.5q0 14 9 22.5t23 8.5h73q10 0 19 -7t11 -18q75 -430 79 -491h8q77 164 257 499q3 6 12 11.5t16 5.5h73q14 0 23.5 -9t9.5 -21q0 -7 -5 -17l-340 -616q-3 -6 -12 -11.5t-16 -5.5h-83q-10 0 -19.5 7.5t-11.5 18.5z" />
<glyph unicode="W" horiz-adv-x="996" d="M149 29l-59 616q0 15 9 25t23 10h73q11 0 18.5 -7.5t8.5 -17.5q27 -425 29 -494h6q15 37 72.5 159l110 230.5t53.5 111.5q3 7 12 12.5t17 5.5h87q11 0 19.5 -7.5t9.5 -17.5q58 -420 60 -494h8q36 95 202 499q3 8 12.5 14t17.5 6h73q14 0 23 -8.5t9 -21.5q0 -8 -3 -15 l-274 -616q-3 -7 -12 -13t-17 -6h-108q-10 0 -18.5 7.5t-9.5 17.5q-55 386 -59 453h-8q-19 -47 -74 -162l-100 -206l-46 -92q-3 -7 -12 -12.5t-17 -5.5h-104q-12 0 -21.5 8.5t-10.5 20.5z" />
<glyph unicode="X" horiz-adv-x="680" d="M281 351l-158 282q-5 10 -5 17q0 12 9.5 21t23.5 9h81q7 0 16 -5.5t12 -11.5l108 -210h6l189 216q9 11 24 11h76q15 0 24 -9.5t9 -22.5q0 -12 -9 -22l-249 -274l174 -304q5 -10 5 -17q0 -13 -9.5 -22t-23.5 -9h-80q-7 0 -16 5.5t-12 11.5l-124 236h-5l-213 -242 q-9 -11 -24 -11h-78q-14 0 -23.5 9t-9.5 22t9 23z" />
<glyph unicode="Y" horiz-adv-x="592" d="M238 279l-133 358q-2 4 -2 12q0 13 9 22t23 9h67q10 0 20 -7t14 -17q72 -200 80 -248h6q51 85 176 259q9 13 26 13h71q15 0 24 -9t9 -21q0 -11 -7 -21l-254 -347l-45 -255q-2 -11 -11.5 -19t-20.5 -8h-63q-14 0 -23.5 9t-9.5 22q0 1 0.5 3t0.5 3z" />
<glyph unicode="Z" horiz-adv-x="574" d="M570 575l-345 -417q-27 -31 -44 -45v-6h296q13 0 22.5 -9.5t9.5 -22.5v-5l-7 -43q-1 -11 -11 -19t-21 -8h-437q-13 0 -22.5 9t-9.5 23v5l4 22q3 24 20 44l388 466v7l-58 -4h-213q-14 0 -23 9t-9 23v5l8 44q1 11 11 19t21 8h411q14 0 23 -9t9 -22v-5l-4 -25 q-2 -25 -19 -44z" />
<glyph unicode="[" horiz-adv-x="258" d="M307 641l-3 -17q-1 -11 -11 -19t-21 -8h-50l-129 -720h42q14 0 23 -9t9 -23v-5l-4 -19q-1 -11 -11 -19t-21 -8h-109q-14 0 -23.5 9.5t-9.5 22.5q0 1 0.5 3t0.5 3l144 822q2 11 11.5 18.5t20.5 7.5h110q14 0 23 -9t9 -23q0 -1 -0.5 -3.5t-0.5 -3.5z" />
<glyph unicode="\" horiz-adv-x="375" d="M264 -73h-30q-11 0 -21 8t-11 19l-101 689v5q0 14 9.5 23t22.5 9h30q11 0 21 -8t11 -19l101 -689v-5q0 -13 -9 -22.5t-23 -9.5z" />
<glyph unicode="]" horiz-adv-x="258" d="M90 636l3 17q1 11 11 19t21 8h109q14 0 23.5 -9.5t9.5 -22.5q0 -1 -0.5 -3t-0.5 -3l-144 -822q-2 -11 -11.5 -18.5t-20.5 -7.5h-110q-14 0 -23 9t-9 23v5l4 19q1 11 11 19t21 8h52l129 720h-44q-14 0 -23 9t-9 23q0 1 0.5 3.5t0.5 3.5z" />
<glyph unicode="^" horiz-adv-x="610" d="M360 664l198 -417q4 -7 4 -15q0 -13 -9.5 -22t-23.5 -9h-38q-21 0 -29 19l-154 348h-7l-154 -348q-8 -19 -29 -19h-38q-14 0 -23.5 9t-9.5 22q0 8 4 15l198 417q3 7 12 12.5t17 5.5h53q8 0 17 -5.5t12 -12.5z" />
<glyph unicode="_" horiz-adv-x="555" d="M459 -152h-489q-14 0 -23 9t-9 23v5l4 23q1 11 11 19t21 8h489q13 0 22.5 -9.5t9.5 -22.5v-5l-4 -23q-1 -11 -11 -19t-21 -8z" />
<glyph unicode="`" horiz-adv-x="336" d="M203 680h19q7 0 16 -5.5t12 -11.5l47 -86q5 -10 5 -17q0 -12 -9.5 -21t-23.5 -9h-4q-6 0 -14.5 4.5t-11.5 9.5l-62 86q-7 10 -7 20q0 12 9 21t24 9z" />
<glyph unicode="a" horiz-adv-x="523" d="M444 9l-34 -9q-3 -1 -9 -1q-25 0 -30 25q-7 32 -8 57h-6q-30 -47 -72.5 -68t-85.5 -21q-74 0 -123.5 45.5t-49.5 136.5q0 140 78 224t180 84q91 0 191 -47q18 -9 18 -29q0 -1 -0.5 -3t-0.5 -3q-33 -175 -33 -260q0 -52 9 -93q1 -2 1 -7q0 -11 -7 -20t-18 -11zM359 272 q8 47 8 94q-33 22 -79 22q-50 0 -91.5 -54.5t-41.5 -144.5q0 -50 21 -76t57 -26q42 0 77 57.5t49 127.5z" />
<glyph unicode="b" horiz-adv-x="526" d="M498 299q0 -139 -78.5 -223t-181.5 -84q-92 0 -189 31q-9 3 -15.5 11.5t-6.5 18.5v5l104 594q2 11 11.5 19t20.5 8h56q14 0 23.5 -9.5t9.5 -22.5q0 -1 -0.5 -3t-0.5 -3l-35 -204h5q43 45 103 45q73 0 123.5 -46.5t50.5 -136.5zM369 286q0 49 -21 75t-57 26 q-35 0 -61.5 -29.5t-41.5 -77.5t-22.5 -91t-10.5 -88q36 -15 81 -15q51 0 92 54.5t41 145.5z" />
<glyph unicode="c" horiz-adv-x="449" d="M348 110q4 2 13 2q12 0 21 -7.5t10 -20.5l3 -27q0 -25 -20 -34q-78 -31 -153 -31q-86 0 -141 47.5t-55 141.5q0 81 25.5 141.5t67.5 94t90 49.5t99 16q65 0 131 -27q20 -8 20 -29q0 -6 -3 -14l-15 -33q-8 -19 -30 -19q-7 0 -13 3q-52 24 -97 24q-61 0 -103 -57t-42 -145 q0 -98 92 -98q44 0 100 23z" />
<glyph unicode="d" d="M446 9l-37 -10q-3 -1 -8 -1q-26 0 -31 25q-7 35 -8 58h-6q-24 -44 -69 -66.5t-88 -22.5q-73 0 -123 45.5t-50 136.5q0 140 78 224t181 84q50 0 98 -17q30 169 33 188q1 11 11 19t21 8h57q14 0 23.5 -9t9.5 -22q0 -1 -0.5 -3t-0.5 -3l-62 -352q-15 -85 -15 -153 q0 -54 8 -91q1 -2 1 -7q0 -24 -23 -31zM367 367q-31 20 -79 20q-50 0 -91.5 -54t-41.5 -145q0 -49 21 -75.5t57 -26.5q33 0 60 30.5t42 76.5t23 90.5t9 83.5z" />
<glyph unicode="e" horiz-adv-x="484" d="M396 89l7 -25q1 -2 1 -7q0 -23 -20 -31q-88 -34 -162 -34q-88 0 -142 44.5t-54 138.5q0 80 25.5 141.5t67.5 96.5t89.5 52t98.5 17q81 0 122.5 -36.5t41.5 -87.5q0 -75 -85.5 -114.5t-229.5 -41.5q-1 -8 -1 -20q0 -45 23 -70t65 -25q46 0 111 24q8 2 11 2q24 0 31 -24z M170 281h14q170 0 170 68q0 41 -60 41q-39 0 -74 -27.5t-50 -81.5z" />
<glyph unicode="f" horiz-adv-x="326" d="M433 633l-12 -29q-10 -22 -31 -22q-5 0 -8 1q-35 10 -73 10q-47 0 -57 -52l-12 -67h71q14 0 23 -9t9 -23v-4l-5 -25q-2 -12 -11.5 -20t-20.5 -8h-82l-63 -358q-2 -11 -11.5 -19t-20.5 -8h-57q-14 0 -23 9t-9 23v5l61 348h-14q-14 0 -23 9t-9 23v4l5 25q1 11 11 19.5 t21 8.5h25l12 71q25 143 186 143q51 0 97 -14q23 -7 23 -31q0 -4 -2 -10z" />
<glyph unicode="g" d="M47 -158l9 33q6 30 30 30q4 0 12 -2q55 -19 93 -19q86 0 100 73l17 92h-5q-38 -42 -103 -42q-73 0 -123.5 44t-50.5 132q0 118 71 208.5t185 90.5q107 0 193 -49q16 -8 16 -30v-4l-77 -436q-14 -79 -77 -127.5t-154 -48.5q-55 0 -114 17q-23 7 -23 31q0 5 1 7zM360 280 q7 39 7 86q-25 21 -80 21q-51 0 -91.5 -50.5t-40.5 -136.5q0 -43 18.5 -71t57.5 -28q43 0 80 55.5t49 123.5z" />
<glyph unicode="h" horiz-adv-x="527" d="M481 315l-51 -288q-2 -11 -11.5 -19t-20.5 -8h-55q-14 0 -23 9t-9 23v5l44 252q4 23 4 46q0 30 -12 41.5t-38 11.5q-33 0 -75.5 -45.5t-57.5 -132.5l-32 -184q-2 -11 -11 -18.5t-20 -7.5h-58q-14 0 -23.5 9t-9.5 22q0 1 0.5 3t0.5 3l108 616q2 11 11.5 19t20.5 8h58 q14 0 23.5 -9t9.5 -22q0 -1 -0.5 -3t-0.5 -3l-41 -234h5q22 32 62.5 53t74.5 21q132 0 132 -112q0 -24 -5 -56z" />
<glyph unicode="i" horiz-adv-x="238" d="M111 0h-57q-14 0 -23 9t-9 23v5q6 37 14 81l24.5 137.5l33.5 191.5q2 11 11.5 19t20.5 8h57q14 0 23 -9t9 -23v-5q-6 -37 -14 -81l-24.5 -137.5l-33.5 -191.5q-2 -11 -11.5 -19t-20.5 -8zM195 666q55 0 55 -50q0 -35 -22 -56.5t-56 -21.5q-55 0 -55 50q0 35 22 56.5 t56 21.5z" />
<glyph unicode="j" horiz-adv-x="243" d="M10 -31l84 479q2 11 11 18.5t20 7.5h58q14 0 23 -9t9 -22q0 -1 -0.5 -3.5t-0.5 -3.5l-81 -459q-13 -73 -64 -120.5t-133 -63.5q-2 -1 -7 -1q-12 0 -21.5 8t-10.5 21l-3 32v4q0 23 24 30q81 20 92 82zM250 616q0 -35 -22 -56.5t-56 -21.5q-55 0 -55 50q0 35 22 56.5 t56 21.5q55 0 55 -50z" />
<glyph unicode="k" horiz-adv-x="469" d="M290 278l132 -230q5 -10 5 -17q0 -13 -9.5 -22t-23.5 -9h-87q-15 0 -22 13q-93 182 -99 229h-7l-38 -215q-2 -11 -11.5 -19t-20.5 -8h-56q-14 0 -23.5 9t-9.5 22q0 1 0.5 3t0.5 3l108 616q2 11 11.5 19t20.5 8h57q14 0 23 -9t9 -23v-5l-59 -333h7q17 22 56 60l70 66 l30 28q12 10 26 10h51q15 0 24 -9t9 -22q0 -15 -12 -25z" />
<glyph unicode="l" horiz-adv-x="314" d="M41 135l92 519q2 11 11.5 18.5t20.5 7.5h55q14 0 23 -9t9 -23v-5l-86 -494q-1 -5 -1 -14q0 -40 47 -40l22 2h4q12 0 21 -8t10 -21l3 -32v-4q0 -11 -7 -19.5t-18 -10.5q-44 -10 -85 -10q-59 0 -92 27t-33 76q0 23 4 40z" />
<glyph unicode="m" horiz-adv-x="793" d="M623 482q128 0 128 -113q0 -22 -5 -55l-51 -287q-1 -11 -11 -19t-21 -8h-53q-14 0 -23 9t-9 23v5l47 267q3 20 3 34q0 47 -42 47q-40 0 -80.5 -45t-54.5 -130l-31 -183q-1 -11 -11 -19t-21 -8h-55q-13 0 -22.5 9t-9.5 23v5l47 267q3 16 3 28q0 52 -51 52q-33 0 -72.5 -48 t-53.5 -126l-32 -184q-2 -11 -11.5 -18.5t-20.5 -7.5h-57q-14 0 -23 9t-9 23v5l42 240q16 93 23 169q1 12 10.5 20.5t21.5 8.5h55q10 0 17.5 -7.5t7.5 -17.5q0 -17 -7 -58h7q29 43 72.5 66.5t80.5 23.5q54 0 84.5 -23t34.5 -65h7q27 39 69 63.5t77 24.5z" />
<glyph unicode="n" horiz-adv-x="526" d="M353 482q132 0 132 -112q0 -26 -6 -56l-51 -287q-2 -11 -11.5 -19t-20.5 -8h-56q-14 0 -23 9t-9 23v5l47 266q3 18 3 32q0 49 -44 49q-41 0 -82 -44.5t-58 -131.5l-32 -182q-2 -11 -11.5 -18.5t-20.5 -7.5h-57q-14 0 -23.5 9.5t-9.5 22.5q0 1 0.5 3t0.5 3l42 238 q16 93 23 169q1 12 10.5 20.5t21.5 8.5h55q11 0 18 -7t7 -18q0 -15 -7 -57h7q30 41 73.5 65.5t81.5 24.5z" />
<glyph unicode="o" horiz-adv-x="535" d="M507 292q0 -80 -25.5 -140.5t-68.5 -94t-91 -49.5t-100 -16q-86 0 -141 48t-55 142q0 80 25.5 140.5t68 94t90 49.5t98.5 16q87 0 143 -48t56 -142zM377 291q0 96 -85 96q-56 0 -96.5 -58t-40.5 -148q0 -94 84 -94q57 0 97.5 56.5t40.5 147.5z" />
<glyph unicode="p" horiz-adv-x="523" d="M495 300q0 -140 -78 -224t-181 -84q-50 0 -98 16l-33 -188q-2 -11 -11.5 -18.5t-20.5 -7.5h-57q-14 0 -23.5 9.5t-9.5 22.5q0 1 0.5 3t0.5 3l78 445q18 100 23 167q1 13 10 21.5t22 8.5h50q27 0 27 -40q0 -8 -1 -12h5q56 60 122 60q73 0 124 -46t51 -136zM366 287 q0 48 -21 74.5t-56 26.5q-34 0 -61 -30t-42 -77t-22.5 -90.5t-9.5 -83.5q33 -21 80 -21q50 0 91 55t41 146z" />
<glyph unicode="q" horiz-adv-x="532" d="M26 174q0 138 78 223t180 85q94 0 190 -32q9 -3 15.5 -11.5t6.5 -18.5v-5l-94 -533h66q14 0 23 -9t9 -23v-4l-4 -24q-1 -11 -11 -19.5t-21 -8.5h-162q-14 0 -23 8.5t-9 22.5q0 1 0.5 3.5t0.5 3.5l36 204h-6q-41 -44 -103 -44q-72 0 -122 45.5t-50 136.5zM155 187 q0 -49 20.5 -75t56.5 -26q35 0 62 30.5t42 78t22.5 92.5t8.5 85q-39 15 -80 15q-50 0 -91 -54.5t-41 -145.5z" />
<glyph unicode="r" horiz-adv-x="378" d="M118 474h42q12 0 20.5 -8t8.5 -23q0 -22 -6 -60q6 1 8 2h1q32 47 76 72.5t83 25.5h15q14 0 23 -9t9 -22q0 -7 -1 -10l-17 -58q-7 -24 -31 -24h-5q-18 3 -35 3q-35 0 -75 -23.5t-49 -72.5l-43 -241q-2 -11 -11.5 -18.5t-20.5 -7.5h-57q-14 0 -23.5 9.5t-9.5 22.5 q0 1 0.5 3t0.5 3l42 239q18 100 23 167q1 13 10 21.5t22 8.5z" />
<glyph unicode="s" horiz-adv-x="390" d="M373 417l-20 -44q-6 -9 -23 -9q-8 0 -14 3q-45 20 -81 20q-24 0 -42.5 -15t-18.5 -35q0 -15 16 -26.5t49 -26.5q26 -13 40.5 -21t34.5 -23.5t29.5 -35t9.5 -43.5q0 -75 -60.5 -122t-149.5 -47q-66 0 -131 21q-22 6 -22 30q0 5 3 13q12 28 19 40q9 15 28 15q9 0 13 -2 q52 -22 101 -22q27 0 48 16.5t21 42.5q0 11 -11 21.5t-21.5 16.5t-34.5 18q-27 13 -40.5 20.5t-34 23t-29.5 34t-9 41.5q0 78 61 119.5t138 41.5q58 0 113 -21q21 -8 21 -30q0 -8 -3 -14z" />
<glyph unicode="t" horiz-adv-x="384" d="M224 385l-40 -230q-2 -6 -2 -19q0 -41 51 -41q21 0 59 9q3 1 9 1q12 0 21 -8t10 -21l3 -33q0 -12 -7 -21.5t-17 -12.5q-64 -17 -133 -17q-59 0 -92 27.5t-33 76.5q0 16 3 33l45 256h-14q-14 0 -23 9t-9 23v4l4 25q1 11 11 19.5t21 8.5h26l11 59q1 7 7.5 15t12.5 10l61 24 q7 3 14 3q13 0 22 -9t9 -22q0 -1 -0.5 -3.5t-0.5 -3.5l-13 -73h79q14 0 23 -9t9 -23v-4l-5 -25q-1 -11 -11 -19.5t-21 -8.5h-90z" />
<glyph unicode="u" horiz-adv-x="526" d="M42 159l53 289q2 11 11.5 18.5t19.5 7.5h56q14 0 23 -9t9 -23v-5l-47 -267q-3 -16 -3 -32q0 -49 44 -49q14 0 31.5 7.5t39.5 25t41 55t28 88.5l31 182q1 11 11 19t21 8h58q14 0 23.5 -9.5t9.5 -22.5q0 -1 -0.5 -3t-0.5 -3l-42 -240q-12 -68 -22 -167q-1 -12 -10.5 -20.5 t-21.5 -8.5h-52q-9 0 -17.5 7.5t-8.5 17.5q0 28 4 56h-9q-25 -40 -70.5 -64.5t-82.5 -24.5q-132 0 -132 111q0 28 5 56z" />
<glyph unicode="v" horiz-adv-x="460" d="M197 138h8q74 181 148 319q3 6 12 11.5t16 5.5h57q15 0 23.5 -8.5t8.5 -21.5q0 -9 -4 -17l-219 -410q-3 -6 -12 -11.5t-16 -5.5h-75q-11 0 -20.5 8t-11.5 19l-76 409q0 1 -0.5 3t-0.5 3q0 13 9.5 22.5t23.5 9.5h63q11 0 21 -8t11 -19q12 -70 23 -174t11 -135z" />
<glyph unicode="w" horiz-adv-x="713" d="M75 30l-35 409v3q0 13 9.5 22.5t22.5 9.5h60q12 0 21.5 -8.5t10.5 -20.5q5 -153 5 -228v-86h8q23 72 142 326q8 17 29 17h72q11 0 21 -8.5t11 -19.5q26 -233 26 -311v-4h7q62 188 120 324q8 19 29 19h57q14 0 23 -8.5t9 -21.5q0 -8 -3 -15l-179 -410q-8 -19 -29 -19h-87 q-10 0 -18 7.5t-9 17.5q-29 256 -29 310h-9l-141 -316q-3 -7 -12.5 -13t-16.5 -6h-83q-12 0 -21.5 9t-10.5 21z" />
<glyph unicode="x" horiz-adv-x="489" d="M179 252l-98 174q-5 10 -5 17q0 13 9.5 22t23.5 9h74q20 0 28 -17q23 -44 53 -122h6l102 129q10 10 24 10h60q15 0 24 -9t9 -21t-9 -23l-154 -169l114 -204q5 -10 5 -17q0 -13 -9.5 -22t-23.5 -9h-72q-7 0 -16 5t-12 11q-53 103 -72 148h-7l-127 -154q-10 -10 -24 -10 h-59q-15 0 -24 9t-9 21t9 23l45 49l90 100z" />
<glyph unicode="y" horiz-adv-x="460" d="M467 426l-266 -466q-68 -118 -211 -163q-3 -1 -10 -1q-12 0 -21.5 8t-10.5 21l-4 31q0 27 23 34q52 15 87 45t67 87l-87 414q0 1 -0.5 3.5t-0.5 3.5q0 14 9 22.5t23 8.5h67q11 0 21 -8t11 -19q35 -240 35 -298h7q30 76 144 307q3 7 12 12.5t17 5.5h60q14 0 23.5 -9 t9.5 -22q0 -7 -5 -17z" />
<glyph unicode="z" horiz-adv-x="446" d="M-5 32v5l1 6q2 12 12 24l266 314h-175q-13 0 -22.5 9.5t-9.5 21.5v4l5 26q5 32 32 32h303q14 0 23 -9t9 -22q0 -1 -0.5 -3.5t-0.5 -3.5l-4 -26q-3 -15 -12 -27l-250 -292h176q14 0 23 -9.5t9 -22.5v-4l-5 -27q-1 -12 -10.5 -20t-21.5 -8h-316q-14 0 -23 9t-9 23z" />
<glyph unicode="{" horiz-adv-x="280" d="M170 80q-3 -16 -13.5 -55.5t-11.5 -44.5q-4 -21 -4 -40q0 -41 30 -59q16 -8 16 -28v-4l-10 -25q-8 -27 -34 -27q-5 0 -7 1q-89 21 -89 124q0 21 5 53l9 37q14 56 17 70q4 28 4 38q0 58 -47 73q-16 5 -16 27v4l4 22q2 10 10 19.5t17 11.5q65 19 82 111l8 70l4 37 q28 151 146 177q3 1 8 1q24 0 24 -27l1 -22q-5 -25 -27 -35q-26 -13 -39.5 -34.5t-21.5 -64.5q-1 -6 -4 -45.5t-6 -54.5q-21 -115 -100 -155q49 -30 49 -108q0 -27 -4 -47z" />
<glyph unicode="|" horiz-adv-x="257" d="M145 -206h-34q-13 0 -22.5 9t-9.5 23v822q0 14 9.5 23t22.5 9h34q13 0 22.5 -9t9.5 -23v-822q0 -14 -9.5 -23t-22.5 -9z" />
<glyph unicode="}" horiz-adv-x="280" d="M106 390q3 16 13.5 55.5t11.5 44.5q4 21 4 40q0 41 -30 59q-16 8 -16 28v4l10 25q8 27 34 27q5 0 7 -1q89 -21 89 -124q0 -21 -5 -53l-9 -37q-14 -56 -17 -70q-4 -28 -4 -38q0 -58 47 -73q16 -5 16 -27v-4l-4 -22q-2 -10 -10 -19.5t-17 -11.5q-65 -19 -82 -111l-8 -70 l-4 -37q-28 -151 -146 -177q-3 -1 -8 -1q-24 0 -24 27l-1 22q5 25 27 35q26 13 39.5 34.5t21.5 64.5q1 6 4 45.5t6 54.5q21 115 100 155q-49 30 -49 108q0 27 4 47z" />
<glyph unicode="~" horiz-adv-x="581" d="M422 214q-34 0 -66 11t-85 40q-79 43 -105 43q-16 0 -29 -15.5t-18 -43.5q-2 -11 -11 -18.5t-20 -7.5h-31q-14 0 -23 10t-9 25q7 71 41.5 108t93.5 37q36 0 65 -10t81 -39q80 -45 110 -45q38 0 45 57q1 12 10.5 20t21.5 8h29q14 0 23 -10t9 -25q-7 -71 -41 -108t-91 -37z " />
<glyph unicode="&#xa1;" horiz-adv-x="237" d="M110 262h16q14 0 23 -9t9 -23v-4l-49 -404q-1 -12 -10.5 -20t-21.5 -8h-60q-13 0 -22.5 9t-9.5 22q0 5 1 8l93 404q2 10 11 17.5t20 7.5zM163 482q30 0 47 -15.5t17 -42.5q0 -40 -25 -65t-64 -25q-30 0 -47.5 16.5t-17.5 43.5q0 39 27 63.5t63 24.5z" />
<glyph unicode="&#xa2;" horiz-adv-x="465" d="M414 185l2 -28q0 -22 -21 -30q-55 -20 -104 -29l-13 -71q-2 -11 -11.5 -19t-20.5 -8h-42q-14 0 -23 9t-9 23v5l10 63q-67 13 -101.5 59t-34.5 118q0 124 63.5 204.5t158.5 97.5l13 73q1 11 11 19t21 8h42q13 0 22.5 -9.5t9.5 -22.5v-5l-11 -62q37 -4 77 -22h1l2 -1 q22 -10 22 -31q0 -3 -2 -11l-14 -31q-8 -20 -30 -20q-7 0 -13 3q-56 23 -98 23q-63 0 -104.5 -53t-41.5 -143q0 -104 93 -104q47 0 103 21q4 2 13 2q27 0 30 -28z" />
<glyph unicode="&#xa3;" horiz-adv-x="560" d="M332 505l-40 -119h142q13 0 22.5 -7.5t9.5 -19.5v-5l-6 -35q-1 -11 -11 -19t-21 -8h-167l-64 -187h249q14 0 23 -9.5t9 -22.5v-5l-8 -41q-1 -11 -11 -19t-21 -8h-400q-14 0 -23 9t-9 23v5l7 41q1 11 11 19t21 8h22l64 187h-42q-13 0 -23 7.5t-10 19.5q0 1 0.5 2.5 t0.5 2.5l7 39q1 10 11 16.5t20 6.5h68l40 119q29 88 100.5 135.5t161.5 47.5q47 0 87 -13q23 -8 23 -30q0 -8 -3 -14l-20 -44q-8 -19 -29 -19q-6 0 -8 1q-34 8 -52 8q-40 0 -80 -20t-51 -52z" />
<glyph unicode="&#xa4;" horiz-adv-x="540" d="M462 159l29 -29q11 -9 11 -25q0 -12 -9 -21l-22 -22q-9 -9 -23 -9t-23 9l-30 30q-58 -37 -125 -37q-68 0 -125 38l-13.5 -14t-11.5 -11.5t-5 -4.5q-9 -10 -23 -10q-13 0 -22 9l-22 22q-9 9 -9 23t9 23l30 30q-37 58 -37 124q0 67 37 125l-30 30q-9 9 -9 23t9 23l22 21 q10 10 24 10q12 0 21 -9l30 -31q58 37 125 37q70 0 124 -37l31 31q9 9 23 9t23 -9l21 -22q9 -9 9 -23t-9 -23l-30 -30q37 -58 37 -125t-37 -125zM270 148q56 0 96 40t40 96t-40 96t-96 40t-96 -40t-40 -96t40 -96t96 -40z" />
<glyph unicode="&#xa5;" horiz-adv-x="679" d="M219 447l-69 185q-2 8 -2 11q0 5 1 7q2 12 12 21t24 9h72q7 0 15 -5t9 -11l84 -257h7l174 257q4 6 13.5 11t16.5 5h72q12 0 19 -7.5t7 -18.5v-5q-1 -7 -8 -17l-133 -185h59q11 0 18 -7.5t7 -18.5q0 -1 -0.5 -3t-0.5 -3l-1 -7q-2 -13 -12.5 -22.5t-23.5 -9.5h-98l-54 -75 h139q11 0 18 -7.5t7 -18.5v-6l-2 -7q-2 -13 -12.5 -22.5t-23.5 -9.5h-151l-35 -198q-2 -13 -12.5 -22.5t-23.5 -9.5h-69q-11 0 -18 7.5t-7 18.5v6l35 198h-151q-11 0 -18 7.5t-7 18.5l1 13q3 14 13.5 23t23.5 9h139l-28 75h-98q-11 0 -18 7.5t-7 18.5l1 13q2 13 12.5 22.5 t23.5 9.5h60z" />
<glyph unicode="&#xa6;" horiz-adv-x="213" d="M57 344v303q0 13 9.5 22.5t22.5 9.5h34q13 0 22.5 -9.5t9.5 -22.5v-303q0 -14 -9.5 -23t-22.5 -9h-34q-13 0 -22.5 9t-9.5 23zM57 -174v302q0 14 9.5 23t22.5 9h34q13 0 22.5 -9t9.5 -23v-302q0 -14 -9.5 -23t-22.5 -9h-34q-13 0 -22.5 9t-9.5 23z" />
<glyph unicode="&#xa7;" horiz-adv-x="431" d="M404 256q-9 -53 -65 -111q10 -35 10 -60q0 -8 -2 -22q-13 -78 -74.5 -127.5t-142.5 -49.5q-63 0 -119 26q-14 6 -14 24v6q2 7 3 8l14 34q12 25 34 25q5 0 11 -3q46 -22 91 -22q35 0 59.5 21t31.5 58q0 1 0.5 3.5t0.5 3.5q0 15 -12.5 29.5t-26 24t-40.5 24.5 q-29 17 -44.5 27.5t-37 29.5t-31.5 42t-10 50q0 17 2 26q11 69 74 125q-10 29 -10 55q0 16 2 24q12 68 73 114.5t133 46.5q52 0 104 -18q17 -5 17 -25v-5q-1 -6 -4 -11t-5 -11.5t-3 -8.5l-7 -14q-10 -24 -32 -24q-4 0 -10 2q-46 16 -77 16q-22 0 -49.5 -18.5t-32.5 -44.5 q-1 -3 -1 -10q0 -13 5.5 -23.5t18 -20.5t22 -16.5t29.5 -17.5q28 -17 42.5 -26.5t35.5 -29t30.5 -43t9.5 -52.5q0 -15 -3 -31zM275 206q20 13 28 56q1 4 1 12q0 18 -12 33.5t-24.5 24t-43.5 26t-46 27.5q-26 -28 -30 -53q-1 -5 -1 -13q0 -18 12 -34t25.5 -25t43.5 -26 t47 -28z" />
<glyph unicode="&#xa8;" horiz-adv-x="333" d="M264 604q4 23 23 39t42 16q19 0 31 -13t12 -33q0 -25 -20 -44t-45 -19q-20 0 -32 12.5t-12 31.5q0 7 1 10zM87 604q4 23 23 39t41 16q19 0 31 -13t12 -33q0 -25 -20 -44t-44 -19q-20 0 -32 12.5t-12 31.5q0 7 1 10z" />
<glyph unicode="&#xa9;" horiz-adv-x="767" d="M731 339q0 -144 -102 -245.5t-246 -101.5t-246 101.5t-102 245.5t102 246t246 102t246 -102t102 -246zM665 339q0 117 -82.5 199.5t-199.5 82.5q-116 0 -199 -82.5t-83 -199.5t83 -199.5t199 -82.5q117 0 199.5 82.5t82.5 199.5zM391 207q36 0 84 18q6 2 10 2 q18 0 23 -19l4 -14q0 -1 0.5 -3t0.5 -3q0 -18 -16 -23q-56 -22 -111 -22q-83 0 -135.5 49.5t-52.5 146.5t52.5 146.5t135.5 49.5q55 0 111 -22q16 -5 16 -23q0 -1 -0.5 -3t-0.5 -3l-4 -14q-5 -19 -23 -19q-4 0 -10 2q-48 18 -84 18q-50 0 -80 -35.5t-30 -96.5t30 -96.5 t80 -35.5z" />
<glyph unicode="&#xaa;" horiz-adv-x="362" d="M340 300q-2 -13 -13.5 -23t-26.5 -10q-5 0 -8 1q-26 5 -38 33q-41 -37 -92 -37q-53 0 -82.5 31.5t-29.5 87.5q0 13 4 41q13 73 59 116t108 43q35 0 70 -24q7 19 35 19h8q11 0 18 -7.5t7 -18.5v-6l-33 -189q-1 -3 -1 -8q0 -13 10 -26q6 -7 6 -17q0 -4 -1 -6zM243 356 l25 144q-26 18 -46 18q-30 0 -52.5 -26t-29.5 -69q-3 -16 -3 -30q0 -30 13.5 -47.5t37.5 -17.5q31 0 55 28z" />
<glyph unicode="&#xab;" horiz-adv-x="626" d="M215 0h-63q-8 0 -17.5 6t-12.5 14l-82 200q-1 3 -1 10q0 13 5 21l161 211q10 12 25 12h50q15 0 24 -9t9 -21q0 -11 -7 -21l-140 -187l79 -192q3 -6 3 -13q0 -13 -9.5 -22t-23.5 -9zM501 0h-64q-8 0 -17.5 6t-12.5 14l-82 200q-1 3 -1 10q0 13 5 21l161 211q10 12 25 12 h51q15 0 24 -9t9 -21q0 -11 -7 -21l-140 -187l79 -192q3 -6 3 -13q0 -13 -9.5 -22t-23.5 -9z" />
<glyph unicode="&#xac;" horiz-adv-x="541" d="M65 384h409q14 0 23 -9t9 -23v-182q0 -14 -9 -23t-23 -9h-31q-13 0 -22.5 9t-9.5 23v118h-346q-13 0 -22.5 9t-9.5 23v32q0 14 9.5 23t22.5 9z" />
<glyph unicode="&#xad;" horiz-adv-x="395" d="M353 255l-7 -42q-1 -11 -11 -19t-21 -8h-243q-13 0 -22.5 9t-9.5 23v5l8 42q1 11 11 19t21 8h242q14 0 23 -9t9 -23v-5z" />
<glyph unicode="&#xae;" horiz-adv-x="512" d="M478 465q0 -92 -65 -157t-157 -65t-157 65.5t-65 156.5q0 92 65 157t157 65t157 -65t65 -157zM430 465q0 72 -51 123t-123 51t-123 -51t-51 -123t51 -123t123 -51t123 51t51 123zM241 437h-20v-83q0 -8 -6 -14t-14 -6h-8q-8 0 -14 6t-6 14v222q0 18 18 20q13 1 53 1 q50 0 73.5 -22.5t23.5 -56.5q0 -19 -12.5 -37.5t-32.5 -27.5v-5q21 -11 46 -69l7 -19q1 -3 1 -8q0 -18 -20 -18h-11q-15 0 -19 13l-10 30q-9 26 -22.5 43t-26.5 17zM293 516q0 40 -45 40q-14 0 -27 -1v-79h24q48 0 48 40z" />
<glyph unicode="&#xaf;" horiz-adv-x="334" d="M143 642h192q11 0 18 -7.5t7 -18.5l-1 -12q-2 -13 -12.5 -22.5t-23.5 -9.5h-192q-11 0 -18 7.5t-7 18.5l1 12q2 13 12.5 22.5t23.5 9.5z" />
<glyph unicode="&#xb0;" horiz-adv-x="360" d="M259 688q51 0 84 -34.5t33 -87.5q0 -69 -53 -122.5t-117 -53.5q-51 0 -84.5 34.5t-33.5 86.5q0 71 52.5 124t118.5 53zM218 457q35 0 64 29t29 67q0 29 -18 48.5t-46 19.5q-37 0 -65 -29.5t-28 -67.5q0 -29 18 -48t46 -19z" />
<glyph unicode="&#xb1;" horiz-adv-x="540" d="M507 318v-31q0 -13 -9.5 -22.5t-22.5 -9.5h-157v-93q0 -14 -9 -23t-23 -9h-32q-14 0 -23 9t-9 23v93h-157q-13 0 -22.5 9.5t-9.5 22.5v31q0 14 9.5 23t22.5 9h157v92q0 14 9 23t23 9h32q14 0 23 -9t9 -23v-92h157q13 0 22.5 -9t9.5 -23zM65 96h410q13 0 22.5 -9t9.5 -23 v-32q0 -14 -9.5 -23t-22.5 -9h-410q-13 0 -22.5 9t-9.5 23v32q0 14 9.5 23t22.5 9z" />
<glyph unicode="&#xb2;" horiz-adv-x="329" d="M152 806l-1 7v6q0 20 22 32q64 33 106 33q50 0 79.5 -26.5t29.5 -70.5q0 -16 -2 -25q-12 -66 -128 -181l-43 -43h101q12 0 19 -7.5t7 -18.5q0 -1 -0.5 -3t-0.5 -3l-1 -5q-2 -13 -12.5 -22.5t-23.5 -9.5h-195q-11 0 -18 7.5t-7 18.5l1 13q3 11 15 23l104 101q84 80 94 128 q1 5 1 13q0 37 -37 37q-29 0 -67 -23q-9 -6 -19 -6q-22 0 -24 25z" />
<glyph unicode="&#xb3;" horiz-adv-x="373" d="M339 688l-1 -4q39 -21 39 -71q0 -6 -2 -22q-10 -56 -55 -91t-105 -35q-47 0 -94 27q-12 5 -12 25v4l7 17q12 27 29 27q5 0 17 -5q37 -22 64 -22q23 0 40.5 15t21.5 39q1 3 1 9q0 35 -51 39q-21 2 -21 27v5l3 14q2 11 10.5 20.5t18.5 11.5q25 5 40.5 19t17.5 30q1 4 1 11 q0 32 -33 32q-27 0 -64 -16q-7 -3 -13 -3q-22 0 -24 22q-1 4 -1 13v5q4 20 22 28q55 25 98 25q47 0 76.5 -25.5t29.5 -66.5q0 -7 -2 -21q-9 -53 -58 -83z" />
<glyph unicode="&#xb4;" horiz-adv-x="336" d="M269 678l16 -6q14 -6 14 -24v-6q-2 -13 -13 -23l-88 -89q-11 -11 -25 -11h-5q-26 0 -26 25q0 1 0.5 3t0.5 3q2 12 11 21l76 94q12 15 29 15q4 0 10 -2z" />
<glyph unicode="&#xb5;" horiz-adv-x="505" d="M402 474h62q11 0 18 -7.5t7 -18.5v-6l-72 -410q-2 -13 -12.5 -22.5t-23.5 -9.5h-45q-9 0 -16 8t-9 18v21h-9q-25 -26 -65 -40.5t-73 -14.5q-27 0 -46 13q-17 -127 -25 -178q-2 -14 -13 -23.5t-24 -9.5h-60q-11 0 -18 7.5t-7 18.5v6l109 616q2 14 12.5 23t23.5 9h61 q11 0 18 -7.5t7 -18.5v-6l-49 -279q-2 -14 -2 -21q0 -55 65 -55q54 0 96 47l54 308q2 13 12.5 22.5t23.5 9.5z" />
<glyph unicode="&#xb6;" horiz-adv-x="520" d="M557 654v-6l-128 -726q-2 -13 -12.5 -22.5t-23.5 -9.5h-32q-11 0 -18 7.5t-7 18.5q0 1 0.5 3t0.5 3l118 671h-78l-118 -671q-2 -13 -12.5 -22.5t-23.5 -9.5h-32q-11 0 -18 7t-7 18q0 4 1 7l66 379q-68 0 -108.5 46t-40.5 112q0 85 66.5 153t149.5 68h232q11 0 18 -7.5 t7 -18.5z" />
<glyph unicode="&#xb7;" horiz-adv-x="408" d="M295 340q-6 -34 -30 -54.5t-58 -20.5q-30 0 -47.5 15.5t-17.5 43.5q0 40 26.5 65t64.5 25q29 0 46 -15.5t17 -42.5q0 -11 -1 -16z" />
<glyph unicode="&#xb8;" horiz-adv-x="338" d="M23 -206q-15 4 -15 17q0 2 1 4l1 2q0 1 3 7q11 23 27 23q1 -1 3 -1h2q16 -4 35 -4q15 0 26.5 7t12.5 17q0 17 -35 24q-17 3 -17 20v4q2 8 6 13l23 35q8 12 23 12h15q7 0 12.5 -5t5.5 -12q0 -4 -3 -10l-11 -14q25 -6 38.5 -21.5t13.5 -33.5q0 -6 -1 -9q-7 -40 -40.5 -61 t-85.5 -21q-20 0 -40 7z" />
<glyph unicode="&#xb9;" horiz-adv-x="343" d="M229 786l-61 -40q-8 -6 -16 -6q-17 0 -19 22l-1 20q3 16 14 23l103 62q13 9 28 9h33q8 0 14 -6t6 -14q0 -1 -0.5 -2.5t-0.5 -2.5l-55 -316h58q20 0 20 -21v-4l-3 -18q-2 -11 -10 -18t-18 -7h-208q-19 0 -19 21v4l3 18q2 11 10 18t18 7h59z" />
<glyph unicode="&#xba;" horiz-adv-x="354" d="M237 583q57 0 93.5 -29.5t36.5 -89.5q0 -100 -56.5 -149.5t-129.5 -49.5q-58 0 -93.5 29t-35.5 90q0 99 56 149t129 50zM192 328q35 0 61 34.5t26 91.5q0 31 -14 48t-39 17q-36 0 -62 -34.5t-26 -90.5q0 -66 54 -66z" />
<glyph unicode="&#xbb;" horiz-adv-x="616" d="M388 0h-51q-15 0 -24 9t-9 21q0 11 7 21l141 187l-79 192q-3 8 -3 13q0 13 9.5 22t23.5 9h62q8 0 17.5 -6t12.5 -14l82 -200q1 -3 1 -10q0 -13 -5 -21l-159 -210q-9 -13 -26 -13zM103 0h-53q-15 0 -24 9t-9 21q0 11 7 21l141 187l-79 192q-3 8 -3 13q0 13 9.5 22t23.5 9 h64q8 0 17.5 -6t12.5 -14l82 -200q1 -3 1 -10q0 -13 -5 -21l-159 -210q-9 -13 -26 -13z" />
<glyph unicode="&#xbc;" horiz-adv-x="814" d="M190 590l-60 -40q-8 -6 -16 -6q-19 0 -19 22l-1 15q-1 1 -1 3t1 3q2 14 14 22l103 63q19 8 27 8h34q8 0 14 -6t6 -14q0 -1 -0.5 -2.5t-0.5 -2.5l-56 -316h59q20 0 20 -21v-4l-4 -18q-2 -11 -10 -18t-18 -7h-207q-8 0 -14 6t-6 14q0 1 0.5 2.5t0.5 2.5l3 18q1 10 9.5 17.5 t18.5 7.5h59zM727 630l-464 -615q-11 -15 -29 -15h-15q-27 0 -27 24q0 1 0.5 3t0.5 3q2 10 9 19l465 615q4 5 13.5 10t14.5 5h15q12 0 19 -7.5t7 -18.5v-4q-1 -7 -9 -19zM716 162h12q11 0 18 -7t7 -18q0 -4 -1 -7l-1 -5q-2 -14 -12.5 -23t-23.5 -9h-11l-11 -61 q-2 -13 -12.5 -22.5t-23.5 -9.5h-24q-12 0 -19 7.5t-7 18.5q0 1 0.5 3t0.5 3l11 61h-132q-11 0 -18 7.5t-7 18.5q0 1 0.5 3t0.5 3l3 18q3 18 12 28l187 223q12 14 27 14h37q11 0 18 -7.5t7 -18.5v-6zM655 289l-103 -128q18 1 22 1h57l14 79q7 35 10 48z" />
<glyph unicode="&#xbd;" horiz-adv-x="863" d="M197 590l-60 -40q-7 -6 -16 -6q-19 0 -19 22l-2 14q0 4 1 6q1 15 14 23l103 62q14 9 27 9h34q19 0 19 -21v-4l-56 -316h59q20 0 20 -21v-4l-4 -18q-2 -11 -10 -18t-18 -7h-207q-8 0 -14 6t-6 14q0 1 0.5 2.5t0.5 2.5l3 18q1 10 9.5 17.5t18.5 7.5h59zM728 631l-464 -615 q-4 -5 -13.5 -10t-14.5 -5h-15q-12 0 -19.5 7.5t-7.5 18.5v4q4 12 10 19l464 615q11 15 29 15h14q27 0 27 -24q0 -1 -0.5 -3t-0.5 -3q-2 -10 -9 -19zM601 337l-1 16q3 18 22 29q64 33 106 33q50 0 79.5 -26.5t29.5 -70.5q0 -16 -2 -25q-12 -66 -128 -181l-43 -43h101 q12 0 19 -7.5t7 -18.5q0 -1 -0.5 -3t-0.5 -3l-1 -5q-2 -13 -12.5 -22.5t-23.5 -9.5h-195q-12 0 -19 7.5t-7 18.5q0 1 0.5 3t0.5 3l1 7q1 9 15 23l104 101q84 82 94 128q1 4 1 11q0 18 -10 28.5t-27 10.5q-29 0 -67 -23q-9 -6 -19 -6q-22 0 -24 25z" />
<glyph unicode="&#xbe;" horiz-adv-x="761" d="M285 492l-1 -4q39 -21 39 -71q0 -64 -49.5 -106t-112.5 -42q-47 0 -94 27q-12 5 -12 25v4l8 18q11 26 28 26q6 0 16 -5q38 -22 65 -22t44.5 19.5t17.5 45.5q0 33 -50 37q-9 1 -15.5 8.5t-6.5 17.5q0 1 0.5 3t0.5 3l3 14q2 11 10.5 20.5t18.5 11.5q25 6 42 21.5t17 36.5 q0 34 -33 34q-27 0 -64 -16q-7 -3 -14 -3q-21 0 -23 22q-1 4 -1 13v5q4 20 22 28q55 25 97 25q48 0 77.5 -25.5t29.5 -66.5q0 -32 -16.5 -60.5t-43.5 -43.5zM678 630l-463 -615q-11 -15 -29 -15h-15q-27 0 -27 24q0 1 0.5 3t0.5 3q2 10 9 19l465 615q4 5 13.5 10t14.5 5h14 q12 0 19.5 -7.5t7.5 -18.5v-4q-4 -12 -10 -19zM667 162h12q11 0 18 -7t7 -18q0 -4 -1 -7l-1 -5q-2 -14 -12.5 -23t-23.5 -9h-11l-11 -61q-2 -13 -12.5 -22.5t-23.5 -9.5h-24q-12 0 -19 7.5t-7 18.5q0 1 0.5 3t0.5 3l11 61h-132q-11 0 -18 7.5t-7 18.5q0 1 0.5 3t0.5 3l3 18 q3 16 13 28l186 223q12 14 27 14h37q11 0 18 -7.5t7 -18.5v-6zM606 289l-103 -128q18 1 22 1h57l14 79q7 35 10 48z" />
<glyph unicode="&#xbf;" horiz-adv-x="533" d="M360 482q30 0 47 -15.5t17 -42.5q0 -40 -25 -65t-64 -25q-30 0 -47.5 16.5t-17.5 43.5q0 39 27 63.5t63 24.5zM376 -139l1 -19q0 -24 -20 -33q-65 -23 -130 -23q-85 0 -125.5 35t-40.5 88q0 36 18.5 73.5t38.5 60.5t55 58l17 16.5t18 18l16.5 17.5t17.5 20.5l14 20 t13.5 23.5t9.5 24q2 8 11.5 14.5t18.5 6.5h21q14 0 23 -9t9 -23v-5q-14 -84 -78 -147q-47 -46 -68.5 -77t-21.5 -64q0 -56 79 -56q23 0 62 11q8 2 11 2q12 0 20.5 -9t9.5 -24z" />
<glyph unicode="&#xc0;" horiz-adv-x="650" d="M491 0h70q14 0 23 8.5t9 22.5q0 1 -0.5 3.5t-0.5 3.5l-43 221l-76 395q-2 11 -11.5 18.5t-19.5 7.5h-88q-7 0 -16 -5.5t-12 -11.5l-334 -616q-4 -8 -4 -17q0 -13 8.5 -21.5t23.5 -8.5h69q21 0 29 17l66 132h256l19 -122q1 -11 11 -19t21 -8zM425 257h-188 q109 210 141 294h11q0 -32 9 -105.5t18 -131.5zM366 887h19q7 0 16 -5.5t12 -11.5l47 -86q5 -10 5 -17q0 -12 -9.5 -21t-23.5 -9h-4q-6 0 -14.5 4.5t-11.5 9.5l-62 86q-7 10 -7 20q0 12 9 21t24 9z" />
<glyph unicode="&#xc1;" horiz-adv-x="650" d="M561 0h-70q-11 0 -21 8t-11 19l-19 122h-256l-66 -132q-8 -17 -29 -17h-69q-15 0 -23.5 8.5t-8.5 21.5q0 9 4 17l334 616q3 6 12 11.5t16 5.5h88q10 0 19.5 -7.5t11.5 -18.5l76 -395l43 -221q0 -1 0.5 -3.5t0.5 -3.5q0 -14 -9 -22.5t-23 -8.5zM237 257h188 q-36 222 -36 294h-11q-14 -37 -49.5 -110.5l-63.5 -128.5zM478 887l16 -6q14 -6 14 -24v-6q-2 -13 -13 -23l-88 -89q-11 -11 -25 -11h-5q-26 0 -26 25q0 1 0.5 3t0.5 3q2 12 11 21l76 94q12 15 29 15q4 0 10 -2z" />
<glyph unicode="&#xc2;" horiz-adv-x="650" d="M561 0h-70q-11 0 -21 8t-11 19l-19 122h-256l-66 -132q-8 -17 -29 -17h-69q-15 0 -23.5 8.5t-8.5 21.5q0 9 4 17l334 616q3 6 12 11.5t16 5.5h88q10 0 19.5 -7.5t11.5 -18.5l76 -395l43 -221q0 -1 0.5 -3.5t0.5 -3.5q0 -14 -9 -22.5t-23 -8.5zM237 257h188 q-36 222 -36 294h-11q-14 -37 -49.5 -110.5l-63.5 -128.5zM411 888h44q6 0 13 -4.5t9 -9.5l42 -87q4 -7 4 -13q0 -1 -0.5 -3.5t-0.5 -3.5q-2 -12 -12.5 -21t-24.5 -9h-10q-6 0 -13.5 5t-9.5 10l-30 71l-55 -71q-13 -15 -29 -15h-10q-27 0 -27 24q0 1 0.5 3t0.5 3q1 10 10 20 l72 87q12 14 27 14z" />
<glyph unicode="&#xc3;" horiz-adv-x="650" d="M561 0h-70q-11 0 -21 8t-11 19l-19 122h-256l-66 -132q-8 -17 -29 -17h-69q-15 0 -23.5 8.5t-8.5 21.5q0 9 4 17l334 616q3 6 12 11.5t16 5.5h88q10 0 19.5 -7.5t11.5 -18.5l76 -395l43 -221q0 -1 0.5 -3.5t0.5 -3.5q0 -14 -9 -22.5t-23 -8.5zM237 257h188 q-36 222 -36 294h-11q-14 -37 -49.5 -110.5l-63.5 -128.5zM488 840q4 8 14 14.5t18 6.5h6q12 0 19 -7t7 -18q0 -1 -0.5 -3t-0.5 -3t-0.5 -3l-1 -4t-1.5 -3q-29 -64 -83 -64q-23 0 -57.5 22t-45.5 22t-19 -18q-11 -22 -32 -22h-7q-12 0 -19 7t-7 18q0 1 0.5 3t0.5 3l3 9 q13 33 37.5 50t46.5 17t57 -22t46 -22q9 0 19 17z" />
<glyph unicode="&#xc4;" horiz-adv-x="650" d="M491 0h70q14 0 23 8.5t9 22.5q0 1 -0.5 3.5t-0.5 3.5l-43 221l-76 395q-2 11 -11.5 18.5t-19.5 7.5h-88q-7 0 -16 -5.5t-12 -11.5l-334 -616q-4 -8 -4 -17q0 -13 8.5 -21.5t23.5 -8.5h69q21 0 29 17l66 132h256l19 -122q1 -11 11 -19t21 -8zM425 257h-188 q109 210 141 294h11q0 -32 9 -105.5t18 -131.5zM451 809q4 23 23 39t42 16q19 0 31 -13t12 -33q0 -25 -20 -44t-45 -19q-20 0 -32 12.5t-12 31.5q0 7 1 10zM274 809q4 23 23 39t41 16q19 0 31 -13t12 -33q0 -25 -20 -44t-44 -19q-20 0 -32 12.5t-12 31.5q0 7 1 10z" />
<glyph unicode="&#xc5;" horiz-adv-x="650" d="M491 0h70q14 0 23 8.5t9 22.5q0 1 -0.5 3.5t-0.5 3.5l-43 221l-76 395q-2 11 -11.5 18.5t-19.5 7.5h-88q-7 0 -16 -5.5t-12 -11.5l-334 -616q-4 -8 -4 -17q0 -13 8.5 -21.5t23.5 -8.5h69q21 0 29 17l66 132h256l19 -122q1 -11 11 -19t21 -8zM425 257h-188 q109 210 141 294h11q0 -32 9 -105.5t18 -131.5zM434 908q37 0 60.5 -22.5t23.5 -57.5q0 -45 -36 -79t-82 -34q-37 0 -61 23t-24 57q0 45 37 79t82 34zM409 765q21 0 37.5 16.5t16.5 38.5q0 16 -11 26.5t-27 10.5q-21 0 -37.5 -16t-16.5 -38q0 -17 10.5 -27.5t27.5 -10.5z " />
<glyph unicode="&#xc6;" horiz-adv-x="871" d="M571 303l-35 -196h242q14 0 23 -9.5t9 -22.5v-5l-7 -43q-1 -11 -11 -19t-21 -8h-345q-14 0 -23 9t-9 23v5l20 116h-205l-93 -139q-3 -5 -12 -9.5t-15 -4.5h-59q-14 0 -23.5 9t-9.5 22q0 10 7 20l444 616q9 13 26 13h401q13 0 22.5 -9t9.5 -23v-5l-11 -53 q-2 -7 -11.5 -12.5t-17.5 -5.5h-249l-29 -165h208q13 0 22.5 -9t9.5 -22v-5l-6 -36q-5 -32 -32 -32h-220zM280 256h153l51 295h-11q-43 -72 -193 -295z" />
<glyph unicode="&#xc7;" horiz-adv-x="605" d="M546 118l6 -43v-4q0 -21 -18 -30q-102 -49 -199 -49q-131 0 -210 74.5t-79 202.5q0 98 34.5 178.5t92 132.5t131 80t154.5 28q89 0 170 -44q17 -8 17 -30q0 -4 -2 -10l-23 -55q-8 -20 -29 -20q-11 0 -18 5q-65 42 -128 42q-113 0 -187.5 -88t-74.5 -211q0 -82 46 -127.5 t133 -45.5q60 0 138 39q10 4 15 4q11 0 20.5 -8t10.5 -21zM202 -204q-15 4 -15 17q0 2 1 4l1 2q0 1 3 7q11 23 27 23q1 -1 3 -1h2q16 -4 35 -4q15 0 26.5 7t12.5 17q0 17 -35 24q-17 3 -17 20v4q2 8 6 13l23 35q8 12 23 12h15q7 0 12.5 -5t5.5 -12q0 -4 -3 -10l-11 -14 q25 -6 38.5 -21.5t13.5 -33.5q0 -6 -1 -9q-7 -40 -40.5 -61t-85.5 -21q-20 0 -40 7z" />
<glyph unicode="&#xc8;" horiz-adv-x="510" d="M439 18l10 53v5q0 14 -9.5 23t-22.5 9h-242l34 191h220q8 0 18 5.5t11 12.5l10 53v5q0 13 -9 22.5t-23 9.5h-208l15 90t12 75h252q9 0 18.5 5t10.5 13l10 53v5q0 14 -9 23t-23 9h-341q-11 0 -20.5 -7.5t-11.5 -18.5l-109 -616q0 -1 -0.5 -3t-0.5 -3q0 -13 9.5 -22.5 t23.5 -9.5h346q8 0 18 5.5t11 12.5zM338 886h19q7 0 16 -5.5t12 -11.5l47 -86q5 -10 5 -17q0 -12 -9.5 -21t-23.5 -9h-4q-6 0 -14.5 4.5t-11.5 9.5l-62 86q-7 10 -7 20q0 12 9 21t24 9z" />
<glyph unicode="&#xc9;" horiz-adv-x="510" d="M449 71l-10 -53q-1 -7 -11 -12.5t-18 -5.5h-346q-14 0 -23.5 9.5t-9.5 22.5q0 1 0.5 3t0.5 3l109 616q2 11 11.5 18.5t20.5 7.5h341q14 0 23 -9t9 -23v-5l-10 -53q-1 -8 -10.5 -13t-18.5 -5h-252q-3 -20 -12 -75l-15 -90h208q14 0 23 -9.5t9 -22.5v-5l-10 -53 q-1 -7 -11 -12.5t-18 -5.5h-220l-34 -191h242q13 0 22.5 -9t9.5 -23v-5zM410 883l16 -6q14 -6 14 -24v-6q-2 -13 -13 -23l-88 -89q-11 -11 -25 -11h-5q-26 0 -26 25q0 1 0.5 3t0.5 3q2 12 11 21l76 94q12 15 29 15q4 0 10 -2z" />
<glyph unicode="&#xca;" horiz-adv-x="510" d="M449 71l-10 -53q-1 -7 -11 -12.5t-18 -5.5h-346q-14 0 -23.5 9.5t-9.5 22.5q0 1 0.5 3t0.5 3l109 616q2 11 11.5 18.5t20.5 7.5h341q14 0 23 -9t9 -23v-5l-10 -53q-1 -8 -10.5 -13t-18.5 -5h-252q-3 -20 -12 -75l-15 -90h208q14 0 23 -9.5t9 -22.5v-5l-10 -53 q-1 -7 -11 -12.5t-18 -5.5h-220l-34 -191h242q13 0 22.5 -9t9.5 -23v-5zM361 888h44q6 0 13 -4.5t9 -9.5l42 -87q4 -7 4 -13q0 -1 -0.5 -3.5t-0.5 -3.5q-2 -12 -12.5 -21t-24.5 -9h-10q-6 0 -13.5 5t-9.5 10l-30 71l-55 -71q-13 -15 -29 -15h-10q-27 0 -27 24q0 1 0.5 3 t0.5 3q1 10 10 20l72 87q12 14 27 14z" />
<glyph unicode="&#xcb;" horiz-adv-x="510" d="M439 18l10 53v5q0 14 -9.5 23t-22.5 9h-242l34 191h220q8 0 18 5.5t11 12.5l10 53v5q0 13 -9 22.5t-23 9.5h-208l15 90t12 75h252q9 0 18.5 5t10.5 13l10 53v5q0 14 -9 23t-23 9h-341q-11 0 -20.5 -7.5t-11.5 -18.5l-109 -616q0 -1 -0.5 -3t-0.5 -3q0 -13 9.5 -22.5 t23.5 -9.5h346q8 0 18 5.5t11 12.5zM402 810q4 23 23 39t42 16q19 0 31 -13t12 -33q0 -25 -20 -44t-45 -19q-20 0 -32 12.5t-12 31.5q0 7 1 10zM225 810q4 23 23 39t41 16q19 0 31 -13t12 -33q0 -25 -20 -44t-44 -19q-20 0 -32 12.5t-12 31.5q0 7 1 10z" />
<glyph unicode="&#xcc;" horiz-adv-x="387" d="M409 615l5 28v5q0 14 -9 23t-23 9h-235q-10 0 -19.5 -7t-11.5 -17l-7 -36v-5q0 -13 9.5 -22.5t22.5 -9.5h47l-86 -487h-58q-10 0 -19.5 -7.5t-11.5 -18.5l-5 -32q0 -1 -0.5 -3.5t-0.5 -3.5q0 -14 9 -22.5t23 -8.5h235q10 0 19.5 7.5t11.5 18.5l5 32q0 1 0.5 3.5t0.5 3.5 q0 14 -9 22.5t-23 8.5h-48l86 487h60q27 0 32 32zM241 887h19q7 0 16 -5.5t12 -11.5l47 -86q5 -10 5 -17q0 -12 -9.5 -21t-23.5 -9h-4q-6 0 -14.5 4.5t-11.5 9.5l-62 86q-7 10 -7 20q0 12 9 21t24 9z" />
<glyph unicode="&#xcd;" horiz-adv-x="387" d="M414 643l-5 -28q-5 -32 -32 -32h-60l-86 -487h48q14 0 23 -8.5t9 -22.5q0 -1 -0.5 -3.5t-0.5 -3.5l-5 -32q-2 -11 -11.5 -18.5t-19.5 -7.5h-235q-14 0 -23 8.5t-9 22.5q0 1 0.5 3.5t0.5 3.5l5 32q2 11 11.5 18.5t19.5 7.5h58l86 487h-47q-13 0 -22.5 9.5t-9.5 22.5v5 l7 36q2 10 11.5 17t19.5 7h235q14 0 23 -9t9 -23v-5zM346 885l16 -6q14 -6 14 -24v-6q-2 -13 -13 -23l-88 -89q-11 -11 -25 -11h-5q-26 0 -26 25q0 1 0.5 3t0.5 3q2 12 11 21l76 94q12 15 29 15q4 0 10 -2z" />
<glyph unicode="&#xce;" horiz-adv-x="388" d="M415 643l-5 -28q-5 -32 -32 -32h-60l-86 -487h48q14 0 23 -8.5t9 -22.5q0 -1 -0.5 -3.5t-0.5 -3.5l-5 -32q-2 -11 -11.5 -18.5t-19.5 -7.5h-235q-14 0 -23 8.5t-9 22.5q0 1 0.5 3.5t0.5 3.5l5 32q2 11 11.5 18.5t19.5 7.5h58l86 487h-47q-14 0 -23 9.5t-9 22.5v5l7 36 q2 10 11.5 17t19.5 7h235q13 0 22.5 -9t9.5 -23v-5zM289 889h44q6 0 13 -4.5t9 -9.5l42 -87q4 -7 4 -13q0 -1 -0.5 -3.5t-0.5 -3.5q-2 -12 -12.5 -21t-24.5 -9h-10q-6 0 -13.5 5t-9.5 10l-30 71l-55 -71q-13 -15 -29 -15h-10q-27 0 -27 24q0 1 0.5 3t0.5 3q1 10 10 20l72 87 q12 14 27 14z" />
<glyph unicode="&#xcf;" horiz-adv-x="388" d="M410 615l5 28v5q0 14 -9.5 23t-22.5 9h-235q-10 0 -19.5 -7t-11.5 -17l-7 -36v-5q0 -13 9 -22.5t23 -9.5h47l-86 -487h-58q-10 0 -19.5 -7.5t-11.5 -18.5l-5 -32q0 -1 -0.5 -3.5t-0.5 -3.5q0 -14 9 -22.5t23 -8.5h235q10 0 19.5 7.5t11.5 18.5l5 32q0 1 0.5 3.5t0.5 3.5 q0 14 -9 22.5t-23 8.5h-48l86 487h60q27 0 32 32zM327 812q4 23 23 39t42 16q19 0 31 -13t12 -33q0 -25 -20 -44t-45 -19q-20 0 -32 12.5t-12 31.5q0 7 1 10zM150 812q4 23 23 39t41 16q19 0 31 -13t12 -33q0 -25 -20 -44t-44 -19q-20 0 -32 12.5t-12 31.5q0 7 1 10z" />
<glyph unicode="&#xd0;" horiz-adv-x="684" d="M215 -8q-103 0 -158 5q-10 1 -16.5 8.5t-6.5 17.5q0 1 0.5 3t0.5 3l47 269h-29q-11 0 -18 7.5t-7 18.5v6l7 43q3 14 13.5 23t23.5 9h29l43 246q2 12 12 21.5t22 10.5q57 5 163 5q162 0 243.5 -72.5t81.5 -198.5q0 -196 -127.5 -310.5t-323.5 -114.5zM530 402 q0 85 -48.5 130t-139.5 45q-37 0 -82 -3l-30 -169h32q11 0 18 -7.5t7 -18.5v-6l-7 -43q-3 -13 -13.5 -22.5t-22.5 -9.5h-33l-34 -192q29 -3 82 -3q83 0 146 44t94 111t31 144z" />
<glyph unicode="&#xd1;" horiz-adv-x="694" d="M519 334l57 320q2 11 11.5 18.5t20.5 7.5h57q14 0 23.5 -9t9.5 -22q0 -1 -0.5 -3t-0.5 -3l-108 -616q-2 -11 -11.5 -19t-20.5 -8h-64q-8 0 -17 5.5t-12 12.5l-234 447h-6q-6 -74 -16 -129l-55 -310q-2 -11 -11.5 -18.5t-20.5 -7.5h-57q-14 0 -23.5 9t-9.5 22q0 1 0.5 3 t0.5 3l108 616q2 11 11.5 19t20.5 8h71q8 0 17.5 -6t12.5 -14l226 -438h6q1 18 14 112zM509 843q4 8 14 14.5t18 6.5h6q12 0 19 -7t7 -18q0 -1 -0.5 -3t-0.5 -3t-0.5 -3l-1 -4t-1.5 -3q-29 -64 -83 -64q-23 0 -57.5 22t-45.5 22t-19 -18q-11 -22 -32 -22h-7q-12 0 -19 7 t-7 18q0 1 0.5 3t0.5 3l3 9q13 33 37.5 50t46.5 17t57 -22t46 -22q9 0 19 17z" />
<glyph unicode="&#xd2;" horiz-adv-x="720" d="M708 411q0 121 -69.5 199t-199.5 78q-113 0 -204.5 -58.5t-140 -153.5t-48.5 -204q0 -123 70.5 -201.5t199.5 -78.5q171 0 281.5 123t110.5 296zM572 414q0 -133 -67.5 -221.5t-168.5 -88.5q-75 0 -114.5 42.5t-39.5 121.5q0 131 68.5 219.5t168.5 88.5q75 0 114 -41.5 t39 -120.5zM372 888h19q7 0 16 -5.5t12 -11.5l47 -86q5 -10 5 -17q0 -12 -9.5 -21t-23.5 -9h-4q-6 0 -14.5 4.5t-11.5 9.5l-62 86q-7 10 -7 20q0 12 9 21t24 9z" />
<glyph unicode="&#xd3;" horiz-adv-x="720" d="M708 411q0 -173 -110.5 -296t-281.5 -123q-129 0 -199.5 78.5t-70.5 201.5q0 109 48.5 204t140 153.5t204.5 58.5q130 0 199.5 -78t69.5 -199zM572 414q0 79 -39 120.5t-114 41.5q-100 0 -168.5 -88.5t-68.5 -219.5q0 -79 39.5 -121.5t114.5 -42.5q101 0 168.5 88.5 t67.5 221.5zM538 884l16 -6q14 -6 14 -24v-6q-2 -13 -13 -23l-88 -89q-11 -11 -25 -11h-5q-26 0 -26 25q0 1 0.5 3t0.5 3q2 12 11 21l76 94q12 15 29 15q4 0 10 -2z" />
<glyph unicode="&#xd4;" horiz-adv-x="720" d="M708 411q0 -173 -110.5 -296t-281.5 -123q-129 0 -199.5 78.5t-70.5 201.5q0 109 48.5 204t140 153.5t204.5 58.5q130 0 199.5 -78t69.5 -199zM572 414q0 79 -39 120.5t-114 41.5q-100 0 -168.5 -88.5t-68.5 -219.5q0 -79 39.5 -121.5t114.5 -42.5q101 0 168.5 88.5 t67.5 221.5zM447 888h44q6 0 13 -4.5t9 -9.5l42 -87q4 -7 4 -13q0 -1 -0.5 -3.5t-0.5 -3.5q-2 -12 -12.5 -21t-24.5 -9h-10q-6 0 -13.5 5t-9.5 10l-30 71l-55 -71q-13 -15 -29 -15h-10q-27 0 -27 24q0 1 0.5 3t0.5 3q1 10 10 20l72 87q12 14 27 14z" />
<glyph unicode="&#xd5;" horiz-adv-x="720" d="M708 411q0 -173 -110.5 -296t-281.5 -123q-129 0 -199.5 78.5t-70.5 201.5q0 109 48.5 204t140 153.5t204.5 58.5q130 0 199.5 -78t69.5 -199zM572 414q0 79 -39 120.5t-114 41.5q-100 0 -168.5 -88.5t-68.5 -219.5q0 -79 39.5 -121.5t114.5 -42.5q101 0 168.5 88.5 t67.5 221.5zM525 841q4 8 14 14.5t18 6.5h6q12 0 19 -7t7 -18q0 -1 -0.5 -3t-0.5 -3t-0.5 -3l-1 -4t-1.5 -3q-29 -64 -83 -64q-23 0 -57.5 22t-45.5 22t-19 -18q-11 -22 -32 -22h-7q-12 0 -19 7t-7 18q0 1 0.5 3t0.5 3l3 9q13 33 37.5 50t46.5 17t57 -22t46 -22q9 0 19 17z " />
<glyph unicode="&#xd6;" horiz-adv-x="720" d="M708 411q0 121 -69.5 199t-199.5 78q-113 0 -204.5 -58.5t-140 -153.5t-48.5 -204q0 -123 70.5 -201.5t199.5 -78.5q171 0 281.5 123t110.5 296zM572 414q0 -133 -67.5 -221.5t-168.5 -88.5q-75 0 -114.5 42.5t-39.5 121.5q0 131 68.5 219.5t168.5 88.5q75 0 114 -41.5 t39 -120.5zM486 808q4 23 23 39t42 16q19 0 31 -13t12 -33q0 -25 -20 -44t-45 -19q-20 0 -32 12.5t-12 31.5q0 7 1 10zM309 808q4 23 23 39t41 16q19 0 31 -13t12 -33q0 -25 -20 -44t-44 -19q-20 0 -32 12.5t-12 31.5q0 7 1 10z" />
<glyph unicode="&#xd7;" horiz-adv-x="549" d="M489 381l-147 -144l147 -146q10 -9 10 -24q0 -13 -9 -22l-23 -23q-9 -9 -23 -9t-23 9l-147 146l-146 -146q-9 -9 -23 -9q-13 0 -22 9l-23 22q-9 9 -9 22q0 15 10 24l147 147l-147 146q-10 9 -10 24q0 13 9 22l22 22q9 9 23 9t23 -9l146 -147l147 147q9 9 22 9 q16 0 25 -11l23 -24q8 -10 8 -21q0 -13 -10 -23z" />
<glyph unicode="&#xd8;" horiz-adv-x="721" d="M670 666l-37 -48q76 -72 76 -202q0 -40 -7 -76q-26 -149 -131 -248.5t-256 -99.5q-68 0 -134 28l-39 -49q-10 -15 -28 -15q-7 0 -13 3l-12 8q-12 9 -12 22q0 5 1 7q1 7 7 17l38 51q-76 70 -76 198q0 42 7 78q26 148 130 248t254 100q82 0 135 -30l39 50q10 15 28 15 q9 0 14 -4l13 -9q10 -8 10 -21q0 -1 -0.5 -3.5t-0.5 -3.5q-1 -8 -6 -16zM209 179l288 378q-35 18 -79 18q-73 0 -128.5 -47t-81 -112t-25.5 -132q0 -60 26 -105zM546 501l-288 -376q37 -20 77 -20q56 0 102.5 27t75 69.5t44.5 92.5t16 100q0 61 -27 107z" />
<glyph unicode="&#xd9;" horiz-adv-x="689" d="M563 654l-72 -405q-11 -62 -59.5 -103.5t-111.5 -41.5q-56 0 -90.5 27t-34.5 77q0 12 3 30l71 404q0 1 0.5 3t0.5 3q0 13 -9.5 22.5t-23.5 9.5h-66q-11 0 -20 -7.5t-11 -18.5l-71 -403q-5 -28 -5 -49q0 -94 65.5 -152t170.5 -58q117 0 208.5 65.5t111.5 178.5l71 407v5 q0 14 -9 23t-23 9h-65q-11 0 -20 -7.5t-11 -18.5zM367 887h19q7 0 16 -5.5t12 -11.5l47 -86q5 -10 5 -17q0 -12 -9.5 -21t-23.5 -9h-4q-6 0 -14.5 4.5t-11.5 9.5l-62 86q-7 10 -7 20q0 12 9 21t24 9z" />
<glyph unicode="&#xda;" horiz-adv-x="689" d="M491 249l72 405q2 11 11 18.5t20 7.5h65q14 0 23 -9t9 -23v-5l-71 -407q-20 -113 -111.5 -178.5t-208.5 -65.5q-105 0 -170.5 58t-65.5 152q0 21 5 49l71 403q2 11 11 18.5t20 7.5h66q14 0 23.5 -9.5t9.5 -22.5q0 -1 -0.5 -3t-0.5 -3l-71 -404q-3 -18 -3 -30 q0 -50 34.5 -77t90.5 -27q63 0 111.5 41.5t59.5 103.5zM510 885l16 -6q14 -6 14 -24v-6q-2 -13 -13 -23l-88 -89q-11 -11 -25 -11h-5q-26 0 -26 25q0 1 0.5 3t0.5 3q2 12 11 21l76 94q12 15 29 15q4 0 10 -2z" />
<glyph unicode="&#xdb;" horiz-adv-x="689" d="M491 249l72 405q2 11 11 18.5t20 7.5h65q14 0 23 -9t9 -23v-5l-71 -407q-20 -113 -111.5 -178.5t-208.5 -65.5q-105 0 -170.5 58t-65.5 152q0 21 5 49l71 403q2 11 11 18.5t20 7.5h66q14 0 23.5 -9.5t9.5 -22.5q0 -1 -0.5 -3t-0.5 -3l-71 -404q-3 -18 -3 -30 q0 -50 34.5 -77t90.5 -27q63 0 111.5 41.5t59.5 103.5zM431 887h44q6 0 13 -4.5t9 -9.5l42 -87q4 -7 4 -13q0 -1 -0.5 -3.5t-0.5 -3.5q-2 -12 -12.5 -21t-24.5 -9h-10q-6 0 -13.5 5t-9.5 10l-30 71l-55 -71q-13 -15 -29 -15h-10q-27 0 -27 24q0 1 0.5 3t0.5 3q1 10 10 20 l72 87q12 14 27 14z" />
<glyph unicode="&#xdc;" horiz-adv-x="689" d="M563 654l-72 -405q-11 -62 -59.5 -103.5t-111.5 -41.5q-56 0 -90.5 27t-34.5 77q0 12 3 30l71 404q0 1 0.5 3t0.5 3q0 13 -9.5 22.5t-23.5 9.5h-66q-11 0 -20 -7.5t-11 -18.5l-71 -403q-5 -28 -5 -49q0 -94 65.5 -152t170.5 -58q117 0 208.5 65.5t111.5 178.5l71 407v5 q0 14 -9 23t-23 9h-65q-11 0 -20 -7.5t-11 -18.5zM471 808q4 23 23 39t42 16q19 0 31 -13t12 -33q0 -25 -20 -44t-45 -19q-20 0 -32 12.5t-12 31.5q0 7 1 10zM294 808q4 23 23 39t41 16q19 0 31 -13t12 -33q0 -25 -20 -44t-44 -19q-20 0 -32 12.5t-12 31.5q0 7 1 10z" />
<glyph unicode="&#xdd;" horiz-adv-x="592" d="M238 279l-133 358q-2 4 -2 12q0 13 9 22t23 9h67q10 0 20 -7t14 -17q72 -200 80 -248h6q51 85 176 259q9 13 26 13h71q15 0 24 -9t9 -21q0 -11 -7 -21l-254 -347l-45 -255q-2 -11 -11.5 -19t-20.5 -8h-63q-14 0 -23.5 9t-9.5 22q0 1 0.5 3t0.5 3zM446 884l16 -6 q14 -6 14 -24v-6q-2 -13 -13 -23l-88 -89q-11 -11 -25 -11h-5q-26 0 -26 25q0 1 0.5 3t0.5 3q2 12 11 21l76 94q12 15 29 15q4 0 10 -2z" />
<glyph unicode="&#xde;" horiz-adv-x="563" d="M36 37l108 616q2 11 11.5 19t20.5 8h65q13 0 22.5 -9t9.5 -23v-5l-14 -82q14 2 39 2h20q115 0 170.5 -50t55.5 -129q0 -109 -75 -189t-165 -80h-124l-16 -88q-2 -11 -11.5 -19t-20.5 -8h-64q-14 0 -23.5 9t-9.5 22q0 1 0.5 3t0.5 3zM409 367q0 39 -24 63t-76 24 q-32 0 -70 -5l-40 -226h46q5 0 13.5 -0.5t12.5 -0.5q56 0 97 41.5t41 103.5z" />
<glyph unicode="&#xdf;" horiz-adv-x="617" d="M380 339q0 -15 29.5 -31.5t64.5 -30.5t64.5 -43.5t29.5 -67.5q0 -6 -2 -22q-13 -74 -71.5 -113t-135.5 -39q-71 0 -133 20q-23 7 -23 30q0 5 4 15l18 38q8 18 30 18q5 0 11 -2q59 -24 102 -24q26 0 48 14t22 39q0 33 -53 54l-52 22t-40 22.5t-33.5 33.5t-9.5 42 q0 36 29 66t64.5 46.5t67 38.5t35.5 44q1 5 1 14q0 37 -30 60t-73 23q-99 0 -116 -98l-85 -482q-2 -11 -11.5 -18.5t-20.5 -7.5h-56q-14 0 -23 9t-9 23v5l83 471q16 92 84 136t169 44q84 0 141 -42t57 -110q0 -32 -13 -58t-33 -42t-42.5 -30.5t-42.5 -23.5t-33 -20.5 t-13 -22.5z" />
<glyph unicode="&#xe0;" d="M410 0l34 9q11 2 18 11t7 20q0 5 -1 7q-9 41 -9 93q0 85 33 260q0 1 0.5 3t0.5 3q0 20 -18 29q-100 47 -191 47q-102 0 -180 -84t-78 -224q0 -91 49.5 -136.5t123.5 -45.5q43 0 85.5 21t72.5 68h6q1 -25 8 -57q5 -25 30 -25q6 0 9 1zM359 272q-14 -70 -49 -127.5 t-77 -57.5q-36 0 -57 26t-21 76q0 90 41.5 144.5t91.5 54.5q46 0 79 -22q0 -47 -8 -94zM258 680h19q7 0 16 -5.5t12 -11.5l47 -86q5 -10 5 -17q0 -12 -9.5 -21t-23.5 -9h-4q-6 0 -14.5 4.5t-11.5 9.5l-62 86q-7 10 -7 20q0 12 9 21t24 9z" />
<glyph unicode="&#xe1;" d="M444 9l-34 -9q-3 -1 -9 -1q-25 0 -30 25q-7 32 -8 57h-6q-30 -47 -72.5 -68t-85.5 -21q-74 0 -123.5 45.5t-49.5 136.5q0 140 78 224t180 84q91 0 191 -47q18 -9 18 -29q0 -1 -0.5 -3t-0.5 -3q-33 -175 -33 -260q0 -52 9 -93q1 -2 1 -7q0 -11 -7 -20t-18 -11zM359 272 q8 47 8 94q-33 22 -79 22q-50 0 -91.5 -54.5t-41.5 -144.5q0 -50 21 -76t57 -26q42 0 77 57.5t49 127.5zM375 678l16 -6q14 -6 14 -24v-6q-2 -13 -13 -23l-88 -89q-11 -11 -25 -11h-5q-26 0 -26 25q0 1 0.5 3t0.5 3q2 12 11 21l76 94q12 15 29 15q4 0 10 -2z" />
<glyph unicode="&#xe2;" d="M444 9l-34 -9q-3 -1 -9 -1q-25 0 -30 25q-7 32 -8 57h-6q-30 -47 -72.5 -68t-85.5 -21q-74 0 -123.5 45.5t-49.5 136.5q0 140 78 224t180 84q91 0 191 -47q18 -9 18 -29q0 -1 -0.5 -3t-0.5 -3q-33 -175 -33 -260q0 -52 9 -93q1 -2 1 -7q0 -11 -7 -20t-18 -11zM359 272 q8 47 8 94q-33 22 -79 22q-50 0 -91.5 -54.5t-41.5 -144.5q0 -50 21 -76t57 -26q42 0 77 57.5t49 127.5zM315 680h44q6 0 13 -4.5t9 -9.5l42 -87q4 -7 4 -13q0 -1 -0.5 -3.5t-0.5 -3.5q-2 -12 -12.5 -21t-24.5 -9h-10q-6 0 -13.5 5t-9.5 10l-30 71l-55 -71q-13 -15 -29 -15 h-10q-27 0 -27 24q0 1 0.5 3t0.5 3q1 10 10 20l72 87q12 14 27 14z" />
<glyph unicode="&#xe3;" d="M444 9l-34 -9q-3 -1 -9 -1q-25 0 -30 25q-7 32 -8 57h-6q-30 -47 -72.5 -68t-85.5 -21q-74 0 -123.5 45.5t-49.5 136.5q0 140 78 224t180 84q91 0 191 -47q18 -9 18 -29q0 -1 -0.5 -3t-0.5 -3q-33 -175 -33 -260q0 -52 9 -93q1 -2 1 -7q0 -11 -7 -20t-18 -11zM359 272 q8 47 8 94q-33 22 -79 22q-50 0 -91.5 -54.5t-41.5 -144.5q0 -50 21 -76t57 -26q42 0 77 57.5t49 127.5zM393 634q4 8 14 14.5t18 6.5h6q12 0 19 -7t7 -18q0 -1 -0.5 -3t-0.5 -3t-0.5 -3l-1 -4t-1.5 -3q-29 -64 -83 -64q-23 0 -57.5 22t-45.5 22t-19 -18q-11 -22 -32 -22h-7 q-12 0 -19 7t-7 18q0 1 0.5 3t0.5 3l3 9q13 33 37.5 50t46.5 17t57 -22t46 -22q9 0 19 17z" />
<glyph unicode="&#xe4;" d="M410 0l34 9q11 2 18 11t7 20q0 5 -1 7q-9 41 -9 93q0 85 33 260q0 1 0.5 3t0.5 3q0 20 -18 29q-100 47 -191 47q-102 0 -180 -84t-78 -224q0 -91 49.5 -136.5t123.5 -45.5q43 0 85.5 21t72.5 68h6q1 -25 8 -57q5 -25 30 -25q6 0 9 1zM359 272q-14 -70 -49 -127.5 t-77 -57.5q-36 0 -57 26t-21 76q0 90 41.5 144.5t91.5 54.5q46 0 79 -22q0 -47 -8 -94zM357 604q4 23 23 39t42 16q19 0 31 -13t12 -33q0 -25 -20 -44t-45 -19q-20 0 -32 12.5t-12 31.5q0 7 1 10zM180 604q4 23 23 39t41 16q19 0 31 -13t12 -33q0 -25 -20 -44t-44 -19 q-20 0 -32 12.5t-12 31.5q0 7 1 10z" />
<glyph unicode="&#xe5;" d="M410 0l34 9q11 2 18 11t7 20q0 5 -1 7q-9 41 -9 93q0 85 33 260q0 1 0.5 3t0.5 3q0 20 -18 29q-100 47 -191 47q-102 0 -180 -84t-78 -224q0 -91 49.5 -136.5t123.5 -45.5q43 0 85.5 21t72.5 68h6q1 -25 8 -57q5 -25 30 -25q6 0 9 1zM359 272q-14 -70 -49 -127.5 t-77 -57.5q-36 0 -57 26t-21 76q0 90 41.5 144.5t91.5 54.5q46 0 79 -22q0 -47 -8 -94zM341 702q37 0 60.5 -22.5t23.5 -57.5q0 -45 -36 -79t-82 -34q-37 0 -61 23t-24 57q0 45 37 79t82 34zM316 559q21 0 37.5 16.5t16.5 38.5q0 16 -11 26.5t-27 10.5q-21 0 -37.5 -16 t-16.5 -38q0 -17 10.5 -27.5t27.5 -10.5z" />
<glyph unicode="&#xe6;" horiz-adv-x="803" d="M736 207h-279l-2 -36q0 -41 26 -64.5t66 -23.5q59 0 127 26q4 2 12 2q13 0 21 -9t10 -23q2 -12 2 -23q0 -8 -6.5 -17.5t-14.5 -12.5q-91 -34 -171 -34q-121 0 -160 75h-7q-30 -32 -73.5 -53.5t-89.5 -21.5q-79 0 -125 48.5t-46 134.5q0 137 77.5 222t187.5 85 q69 0 134 -10q11 -1 19 -10.5t8 -20.5v-26q64 67 160 67q81 0 124.5 -41.5t43.5 -116.5q0 -31 -11 -84q0 -1 -1 -3.5t-1 -3.5q-2 -11 -11.5 -18.5t-19.5 -7.5zM322 130l44 248q-49 9 -78 9q-54 0 -93.5 -56t-39.5 -140q0 -49 21 -76.5t60 -27.5q48 0 86 43zM471 281h195 q5 27 5 38q0 35 -19 56.5t-53 21.5q-40 0 -75.5 -30.5t-52.5 -85.5z" />
<glyph unicode="&#xe7;" horiz-adv-x="458" d="M348 110q4 2 13 2q12 0 21 -7.5t10 -20.5l3 -27q0 -25 -20 -34q-78 -31 -153 -31q-86 0 -141 47.5t-55 141.5q0 81 25.5 141.5t67.5 94t90 49.5t99 16q65 0 131 -27q20 -8 20 -29q0 -6 -3 -14l-15 -33q-8 -19 -30 -19q-7 0 -13 3q-52 24 -97 24q-61 0 -103 -57t-42 -145 q0 -98 92 -98q44 0 100 23zM98 -203q-15 4 -15 17q0 2 1 4l1 2q0 1 3 7q11 23 27 23h3l2 -1q16 -4 35 -4q15 0 26.5 7t12.5 17q0 17 -35 24q-17 3 -17 20v4q2 7 6 13l23 35q8 12 23 12h15q7 0 12.5 -5t5.5 -12q0 -4 -3 -10l-11 -14q25 -6 38.5 -21.5t13.5 -33.5q0 -6 -1 -9 q-7 -40 -40.5 -61t-85.5 -21q-20 0 -40 7z" />
<glyph unicode="&#xe8;" horiz-adv-x="499" d="M403 64l-7 25q-7 24 -31 24q-3 0 -11 -2q-65 -24 -111 -24q-42 0 -65 25t-23 70q0 12 1 20q144 2 229.5 41.5t85.5 114.5q0 51 -41.5 87.5t-122.5 36.5q-51 0 -98.5 -17t-89.5 -52t-67.5 -96.5t-25.5 -141.5q0 -94 54 -138.5t142 -44.5q74 0 162 34q20 8 20 31q0 5 -1 7z M184 281h-14q15 54 50 81.5t74 27.5q60 0 60 -41q0 -68 -170 -68zM249 680h19q7 0 16 -5.5t12 -11.5l47 -86q5 -10 5 -17q0 -12 -9.5 -21t-23.5 -9h-4q-6 0 -14.5 4.5t-11.5 9.5l-62 86q-7 10 -7 20q0 12 9 21t24 9z" />
<glyph unicode="&#xe9;" horiz-adv-x="499" d="M396 89l7 -25q1 -2 1 -7q0 -23 -20 -31q-88 -34 -162 -34q-88 0 -142 44.5t-54 138.5q0 80 25.5 141.5t67.5 96.5t89.5 52t98.5 17q81 0 122.5 -36.5t41.5 -87.5q0 -75 -85.5 -114.5t-229.5 -41.5q-1 -8 -1 -20q0 -45 23 -70t65 -25q46 0 111 24q8 2 11 2q24 0 31 -24z M170 281h14q170 0 170 68q0 41 -60 41q-39 0 -74 -27.5t-50 -81.5zM401 678l16 -6q14 -6 14 -24v-6q-2 -13 -13 -23l-88 -89q-11 -11 -25 -11h-5q-26 0 -26 25q0 1 0.5 3t0.5 3q2 12 11 21l76 94q12 15 29 15q4 0 10 -2z" />
<glyph unicode="&#xea;" horiz-adv-x="499" d="M396 89l7 -25q1 -2 1 -7q0 -23 -20 -31q-88 -34 -162 -34q-88 0 -142 44.5t-54 138.5q0 80 25.5 141.5t67.5 96.5t89.5 52t98.5 17q81 0 122.5 -36.5t41.5 -87.5q0 -75 -85.5 -114.5t-229.5 -41.5q-1 -8 -1 -20q0 -45 23 -70t65 -25q46 0 111 24q8 2 11 2q24 0 31 -24z M170 281h14q170 0 170 68q0 41 -60 41q-39 0 -74 -27.5t-50 -81.5zM321 680h44q6 0 13 -4.5t9 -9.5l42 -87q4 -7 4 -13q0 -1 -0.5 -3.5t-0.5 -3.5q-2 -12 -12.5 -21t-24.5 -9h-10q-6 0 -13.5 5t-9.5 10l-30 71l-55 -71q-13 -15 -29 -15h-10q-27 0 -27 24q0 1 0.5 3t0.5 3 q1 10 10 20l72 87q12 14 27 14z" />
<glyph unicode="&#xeb;" horiz-adv-x="499" d="M403 64l-7 25q-7 24 -31 24q-3 0 -11 -2q-65 -24 -111 -24q-42 0 -65 25t-23 70q0 12 1 20q144 2 229.5 41.5t85.5 114.5q0 51 -41.5 87.5t-122.5 36.5q-51 0 -98.5 -17t-89.5 -52t-67.5 -96.5t-25.5 -141.5q0 -94 54 -138.5t142 -44.5q74 0 162 34q20 8 20 31q0 5 -1 7z M184 281h-14q15 54 50 81.5t74 27.5q60 0 60 -41q0 -68 -170 -68zM361 604q4 23 23 39t42 16q19 0 31 -13t12 -33q0 -25 -20 -44t-45 -19q-20 0 -32 12.5t-12 31.5q0 7 1 10zM184 604q4 23 23 39t41 16q19 0 31 -13t12 -33q0 -25 -20 -44t-44 -19q-20 0 -32 12.5t-12 31.5 q0 7 1 10z" />
<glyph unicode="&#xec;" horiz-adv-x="240" d="M127 680h19q7 0 16 -5.5t12 -11.5l47 -86q5 -10 5 -17q0 -12 -9.5 -21t-23.5 -9h-4q-6 0 -14.5 4.5t-11.5 9.5l-62 86q-7 10 -7 20q0 12 9 21t24 9zM216 436l-73 -410q-2 -11 -11.5 -18.5t-20.5 -7.5h-56q-14 0 -23 9t-9 23v5q6 37 14 81l24.5 137.5l33.5 191.5 q2 11 11.5 19t20.5 8h57q14 0 23.5 -9.5t9.5 -22.5q0 -1 -0.5 -3t-0.5 -3z" />
<glyph unicode="&#xed;" horiz-adv-x="238" d="M253 678l16 -6q14 -6 14 -24v-6q-2 -13 -13 -23l-88 -89q-11 -11 -25 -11h-5q-26 0 -26 25q0 1 0.5 3t0.5 3q2 12 11 21l76 94q12 15 29 15q4 0 10 -2zM215 436l-73 -410q-2 -11 -11.5 -18.5t-20.5 -7.5h-56q-14 0 -23 9t-9 23v5q6 37 14 81l24.5 137.5l33.5 191.5 q2 11 11.5 19t20.5 8h57q14 0 23.5 -9.5t9.5 -22.5q0 -1 -0.5 -3t-0.5 -3z" />
<glyph unicode="&#xee;" horiz-adv-x="242" d="M217 436l-73 -410q-2 -11 -11.5 -18.5t-20.5 -7.5h-56q-14 0 -23 9t-9 23v5q6 37 14 81l24.5 137.5l33.5 191.5q2 11 11.5 19t20.5 8h57q14 0 23.5 -9.5t9.5 -22.5q0 -1 -0.5 -3t-0.5 -3zM183 680h44q6 0 13 -4.5t9 -9.5l42 -87q4 -7 4 -13q0 -1 -0.5 -3.5t-0.5 -3.5 q-2 -12 -12.5 -21t-24.5 -9h-10q-6 0 -13.5 5t-9.5 10l-30 71l-55 -71q-13 -15 -29 -15h-10q-27 0 -27 24q0 1 0.5 3t0.5 3q1 10 10 20l72 87q12 14 27 14z" />
<glyph unicode="&#xef;" horiz-adv-x="240" d="M221 604q4 23 23 39t42 16q19 0 31 -13t12 -33q0 -25 -20 -44t-45 -19q-20 0 -32 12.5t-12 31.5q0 7 1 10zM44 604q4 23 23 39t41 16q19 0 31 -13t12 -33q0 -25 -20 -44t-44 -19q-20 0 -32 12.5t-12 31.5q0 7 1 10zM216 436l-73 -410q-2 -11 -11.5 -18.5t-20.5 -7.5h-56 q-14 0 -23 9t-9 23v5q6 37 14 81l24.5 137.5l33.5 191.5q2 11 11.5 19t20.5 8h57q14 0 23.5 -9.5t9.5 -22.5q0 -1 -0.5 -3t-0.5 -3z" />
<glyph unicode="&#xf0;" horiz-adv-x="542" d="M506 264q-24 -132 -103.5 -202t-181.5 -70q-82 0 -138 48t-56 141q0 31 5 56q21 119 96.5 182t161.5 63q40 0 84 -27l4 4q-14 50 -50 97l-107 -47q-6 -2 -8 -2q-11 0 -16 12l-3 13q-1 3 -1 8q3 13 15 18l81 35q-19 19 -43 35q-6 4 -6 14q0 1 0.5 3t0.5 3q2 14 12 21 l40 29q5 4 12 4q11 0 18 -5q45 -29 71 -58l100 43q6 2 8 2q12 0 15 -12l3 -13q0 -1 0.5 -4t0.5 -4q-3 -13 -15 -18l-75 -33q83 -105 83 -246q0 -47 -8 -90zM377 291q0 96 -85 96q-45 0 -78 -34t-46 -76.5t-13 -83.5q0 -50 22 -78t61 -28q47 0 80.5 36t46 80t12.5 88z" />
<glyph unicode="&#xf1;" horiz-adv-x="526" d="M364 482q132 0 132 -112q0 -26 -6 -56l-51 -287q-2 -11 -11.5 -19t-20.5 -8h-56q-14 0 -23 9t-9 23v5l47 266q3 18 3 32q0 49 -44 49q-41 0 -82 -44.5t-58 -131.5l-32 -182q-2 -11 -11.5 -18.5t-20.5 -7.5h-57q-14 0 -23.5 9.5t-9.5 22.5q0 1 0.5 3t0.5 3l42 238 q16 93 23 169q1 12 10.5 20.5t21.5 8.5h55q10 0 17.5 -7t7.5 -18q0 -15 -7 -57h7q30 41 73.5 65.5t81.5 24.5zM398 634q4 8 14 14.5t18 6.5h6q12 0 19 -7t7 -18q0 -1 -0.5 -3t-0.5 -3t-0.5 -3l-1 -4t-1.5 -3q-29 -64 -83 -64q-23 0 -57.5 22t-45.5 22t-19 -18 q-11 -22 -32 -22h-7q-12 0 -19 7t-7 18q0 1 0.5 3t0.5 3l3 9q13 33 37.5 50t46.5 17t57 -22t46 -22q9 0 19 17z" />
<glyph unicode="&#xf2;" horiz-adv-x="535" d="M507 292q0 94 -56 142t-143 48q-51 0 -98.5 -16t-90 -49.5t-68 -94t-25.5 -140.5q0 -94 55 -142t141 -48q52 0 100 16t91 49.5t68.5 94t25.5 140.5zM377 291q0 -91 -40.5 -147.5t-97.5 -56.5q-84 0 -84 94q0 90 40.5 148t96.5 58q85 0 85 -96zM251 679h19q7 0 16 -5.5 t12 -11.5l47 -86q5 -10 5 -17q0 -12 -9.5 -21t-23.5 -9h-4q-6 0 -14.5 4.5t-11.5 9.5l-62 86q-7 10 -7 20q0 12 9 21t24 9z" />
<glyph unicode="&#xf3;" horiz-adv-x="535" d="M507 292q0 -80 -25.5 -140.5t-68.5 -94t-91 -49.5t-100 -16q-86 0 -141 48t-55 142q0 80 25.5 140.5t68 94t90 49.5t98.5 16q87 0 143 -48t56 -142zM377 291q0 96 -85 96q-56 0 -96.5 -58t-40.5 -148q0 -94 84 -94q57 0 97.5 56.5t40.5 147.5zM408 678l16 -6 q14 -6 14 -24v-6q-2 -13 -13 -23l-88 -89q-11 -11 -25 -11h-5q-26 0 -26 25q0 1 0.5 3t0.5 3q2 12 11 21l76 94q12 15 29 15q4 0 10 -2z" />
<glyph unicode="&#xf4;" horiz-adv-x="535" d="M507 292q0 -80 -25.5 -140.5t-68.5 -94t-91 -49.5t-100 -16q-86 0 -141 48t-55 142q0 80 25.5 140.5t68 94t90 49.5t98.5 16q87 0 143 -48t56 -142zM377 291q0 96 -85 96q-56 0 -96.5 -58t-40.5 -148q0 -94 84 -94q57 0 97.5 56.5t40.5 147.5zM321 680h44q6 0 13 -4.5 t9 -9.5l42 -87q4 -7 4 -13q0 -1 -0.5 -3.5t-0.5 -3.5q-2 -12 -12.5 -21t-24.5 -9h-10q-6 0 -13.5 5t-9.5 10l-30 71l-55 -71q-13 -15 -29 -15h-10q-27 0 -27 24q0 1 0.5 3t0.5 3q1 10 10 20l72 87q12 14 27 14z" />
<glyph unicode="&#xf5;" horiz-adv-x="535" d="M507 292q0 -80 -25.5 -140.5t-68.5 -94t-91 -49.5t-100 -16q-86 0 -141 48t-55 142q0 80 25.5 140.5t68 94t90 49.5t98.5 16q87 0 143 -48t56 -142zM377 291q0 96 -85 96q-56 0 -96.5 -58t-40.5 -148q0 -94 84 -94q57 0 97.5 56.5t40.5 147.5zM398 634q4 8 14 14.5 t18 6.5h6q12 0 19 -7t7 -18q0 -1 -0.5 -3t-0.5 -3t-0.5 -3l-1 -4t-1.5 -3q-29 -64 -83 -64q-23 0 -57.5 22t-45.5 22t-19 -18q-11 -22 -32 -22h-7q-12 0 -19 7t-7 18q0 1 0.5 3t0.5 3l3 9q13 33 37.5 50t46.5 17t57 -22t46 -22q9 0 19 17z" />
<glyph unicode="&#xf6;" horiz-adv-x="535" d="M507 292q0 94 -56 142t-143 48q-51 0 -98.5 -16t-90 -49.5t-68 -94t-25.5 -140.5q0 -94 55 -142t141 -48q52 0 100 16t91 49.5t68.5 94t25.5 140.5zM377 291q0 -91 -40.5 -147.5t-97.5 -56.5q-84 0 -84 94q0 90 40.5 148t96.5 58q85 0 85 -96zM359 604q4 23 23 39t42 16 q19 0 31 -13t12 -33q0 -25 -20 -44t-45 -19q-20 0 -32 12.5t-12 31.5q0 7 1 10zM182 604q4 23 23 39t41 16q19 0 31 -13t12 -33q0 -25 -20 -44t-44 -19q-20 0 -32 12.5t-12 31.5q0 7 1 10z" />
<glyph unicode="&#xf7;" horiz-adv-x="540" d="M65 285h410q13 0 22.5 -9.5t9.5 -22.5v-32q0 -13 -9.5 -22.5t-22.5 -9.5h-410q-13 0 -22.5 9.5t-9.5 22.5v32q0 13 9.5 22.5t22.5 9.5zM335 68q0 -29 -18 -46t-47 -17t-46.5 17t-17.5 46t17.5 47t46.5 18t47 -18t18 -47zM335 405q0 -29 -18 -46t-47 -17t-46.5 17 t-17.5 46t18 46.5t46 17.5q29 0 47 -17.5t18 -46.5z" />
<glyph unicode="&#xf8;" horiz-adv-x="535" d="M479 468l-25 -34q52 -47 52 -136q0 -131 -79 -219t-206 -88q-45 0 -90 17l-28 -37q-14 -16 -30 -16q-11 0 -19 10l-4 3q-4 5 -4 14q0 7 1 10q1 8 5 15l25 33q-51 47 -51 134q0 131 78 219.5t204 88.5q53 0 91 -16l29 37q12 15 29 15q6 0 12 -3l5 -3q13 -7 13 -23v-5 q-2 -8 -8 -16zM164 148l173 228q-22 11 -46 11q-64 0 -100 -60t-36 -126q0 -30 9 -53zM368 326l-173 -228q21 -11 43 -11q45 0 78 32t46.5 73.5t13.5 83.5q0 26 -8 50z" />
<glyph unicode="&#xf9;" horiz-adv-x="526" d="M42 159l53 289q2 11 11.5 18.5t19.5 7.5h56q14 0 23 -9t9 -23v-5l-47 -267q-3 -16 -3 -32q0 -49 44 -49q14 0 31.5 7.5t39.5 25t41 55t28 88.5l31 182q1 11 11 19t21 8h58q14 0 23.5 -9.5t9.5 -22.5q0 -1 -0.5 -3t-0.5 -3l-42 -240q-12 -68 -22 -167q-1 -12 -10.5 -20.5 t-21.5 -8.5h-52q-9 0 -17.5 7.5t-8.5 17.5q0 28 4 56h-9q-25 -40 -70.5 -64.5t-82.5 -24.5q-132 0 -132 111q0 28 5 56zM246 680h19q7 0 16 -5.5t12 -11.5l47 -86q5 -10 5 -17q0 -12 -9.5 -21t-23.5 -9h-4q-6 0 -14.5 4.5t-11.5 9.5l-62 86q-7 10 -7 20q0 12 9 21t24 9z" />
<glyph unicode="&#xfa;" horiz-adv-x="526" d="M42 159l53 289q2 11 11.5 18.5t19.5 7.5h56q14 0 23 -9t9 -23v-5l-47 -267q-3 -16 -3 -32q0 -49 44 -49q14 0 31.5 7.5t39.5 25t41 55t28 88.5l31 182q1 11 11 19t21 8h58q14 0 23.5 -9.5t9.5 -22.5q0 -1 -0.5 -3t-0.5 -3l-42 -240q-12 -68 -22 -167q-1 -12 -10.5 -20.5 t-21.5 -8.5h-52q-9 0 -17.5 7.5t-8.5 17.5q0 28 4 56h-9q-25 -40 -70.5 -64.5t-82.5 -24.5q-132 0 -132 111q0 28 5 56zM399 678l16 -6q14 -6 14 -24v-6q-2 -13 -13 -23l-88 -89q-11 -11 -25 -11h-5q-26 0 -26 25q0 1 0.5 3t0.5 3q2 12 11 21l76 94q12 15 29 15q4 0 10 -2z " />
<glyph unicode="&#xfb;" horiz-adv-x="526" d="M42 159l53 289q2 11 11.5 18.5t19.5 7.5h56q14 0 23 -9t9 -23v-5l-47 -267q-3 -16 -3 -32q0 -49 44 -49q14 0 31.5 7.5t39.5 25t41 55t28 88.5l31 182q1 11 11 19t21 8h58q14 0 23.5 -9.5t9.5 -22.5q0 -1 -0.5 -3t-0.5 -3l-42 -240q-12 -68 -22 -167q-1 -12 -10.5 -20.5 t-21.5 -8.5h-52q-9 0 -17.5 7.5t-8.5 17.5q0 28 4 56h-9q-25 -40 -70.5 -64.5t-82.5 -24.5q-132 0 -132 111q0 28 5 56zM313 680h44q6 0 13 -4.5t9 -9.5l42 -87q4 -7 4 -13q0 -1 -0.5 -3.5t-0.5 -3.5q-2 -12 -12.5 -21t-24.5 -9h-10q-6 0 -13.5 5t-9.5 10l-30 71l-55 -71 q-13 -15 -29 -15h-10q-27 0 -27 24q0 1 0.5 3t0.5 3q1 10 10 20l72 87q12 14 27 14z" />
<glyph unicode="&#xfc;" horiz-adv-x="526" d="M42 159l53 289q2 11 11.5 18.5t19.5 7.5h56q14 0 23 -9t9 -23v-5l-47 -267q-3 -16 -3 -32q0 -49 44 -49q14 0 31.5 7.5t39.5 25t41 55t28 88.5l31 182q1 11 11 19t21 8h58q14 0 23.5 -9.5t9.5 -22.5q0 -1 -0.5 -3t-0.5 -3l-42 -240q-12 -68 -22 -167q-1 -12 -10.5 -20.5 t-21.5 -8.5h-52q-9 0 -17.5 7.5t-8.5 17.5q0 28 4 56h-9q-25 -40 -70.5 -64.5t-82.5 -24.5q-132 0 -132 111q0 28 5 56zM354 604q4 23 23 39t42 16q19 0 31 -13t12 -33q0 -25 -20 -44t-45 -19q-20 0 -32 12.5t-12 31.5q0 7 1 10zM177 604q4 23 23 39t41 16q19 0 31 -13 t12 -33q0 -25 -20 -44t-44 -19q-20 0 -32 12.5t-12 31.5q0 7 1 10z" />
<glyph unicode="&#xfd;" horiz-adv-x="490" d="M490 426l-266 -466q-68 -118 -211 -163q-3 -1 -10 -1q-12 0 -21.5 8t-10.5 21l-4 31q0 27 23 34q52 15 87 45t67 87l-87 414q0 1 -0.5 3.5t-0.5 3.5q0 14 9 22.5t23 8.5h67q11 0 21 -8t11 -19q35 -240 35 -298h7q30 76 144 307q3 7 12 12.5t17 5.5h60q14 0 23.5 -9 t9.5 -22q0 -7 -5 -17zM367 678l16 -6q14 -6 14 -24v-6q-2 -13 -13 -23l-88 -89q-11 -11 -25 -11h-5q-26 0 -26 25q0 1 0.5 3t0.5 3q2 12 11 21l76 94q12 15 29 15q4 0 10 -2z" />
<glyph unicode="&#xfe;" d="M142 21l-36 -202q-2 -11 -11 -18.5t-20 -7.5h-57q-14 0 -23.5 9.5t-9.5 22.5q0 1 0.5 3t0.5 3l144 823q2 11 11.5 18.5t20.5 7.5h58q14 0 23 -9t9 -23v-5l-35 -197q57 36 107 36q80 0 126 -49t46 -134q0 -136 -77.5 -221.5t-183.5 -85.5q-46 0 -93 29zM199 342l-40 -224 q31 -32 75 -32q54 0 93 56t39 142q0 48 -20.5 75.5t-59.5 27.5q-44 0 -87 -45z" />
<glyph unicode="&#xff;" horiz-adv-x="490" d="M224 -40l266 466q5 10 5 17q0 13 -9.5 22t-23.5 9h-60q-8 0 -17 -5.5t-12 -12.5q-114 -231 -144 -307h-7q0 26 -9 100.5l-17 136.5l-9 61q-1 11 -11 19t-21 8h-67q-14 0 -23 -8.5t-9 -22.5q0 -1 0.5 -3.5t0.5 -3.5l87 -414q-32 -57 -67 -87t-87 -45q-23 -7 -23 -34l4 -31 q1 -13 10.5 -21t21.5 -8q7 0 10 1q143 45 211 163zM335 604q4 23 23 39t42 16q19 0 31 -13t12 -33q0 -25 -20 -44t-45 -19q-20 0 -32 12.5t-12 31.5q0 7 1 10zM158 604q4 23 23 39t41 16q19 0 31 -13t12 -33q0 -25 -20 -44t-44 -19q-20 0 -32 12.5t-12 31.5q0 7 1 10z" />
<glyph unicode="&#x152;" horiz-adv-x="991" d="M737 572l-29 -165h208q14 0 23 -9.5t9 -22.5v-4l-7 -36q-5 -32 -32 -32h-219l-35 -196h242q13 0 22.5 -9.5t9.5 -22.5v-5l-7 -43q-2 -11 -11.5 -19t-20.5 -8h-344q-14 0 -23.5 8.5t-9.5 21.5q0 1 0.5 3.5t0.5 3.5l7 37q-89 -82 -206 -82q-129 0 -199 75.5t-70 196.5 q0 110 49 207t140 157t203 60q119 0 177 -80l8 45q1 11 11 19t21 8h339q14 0 23 -9t9 -23v-5l-10 -53q-1 -7 -11 -12.5t-18 -5.5h-250zM573 404q0 80 -40 125.5t-115 45.5q-99 0 -167.5 -84.5t-68.5 -213.5q0 -80 39.5 -126t113.5 -46q102 0 170 84.5t68 214.5z" />
<glyph unicode="&#x153;" horiz-adv-x="840" d="M755 79l2 -23q0 -22 -21 -30q-91 -34 -172 -34q-50 0 -92.5 21t-64.5 66q-70 -87 -185 -87q-88 0 -142 44.5t-54 138.5q0 65 17 118t45.5 87.5t65.5 58t75.5 33.5t78.5 10q112 0 154 -87h5q69 87 181 87q83 0 126 -41.5t43 -116.5q0 -27 -4 -52l-8 -41q-2 -10 -11.5 -17 t-19.5 -7h-279q0 -5 -0.5 -11.5t-1 -9.5t-0.5 -4q0 -47 24.5 -73t66.5 -26q56 0 128 26q5 2 13 2q27 0 30 -32zM377 285q0 49 -22 75.5t-63 26.5q-56 0 -97 -54.5t-41 -143.5q0 -49 22 -75.5t63 -26.5q57 0 97.5 54t40.5 144zM508 281h195q5 25 5 39q0 35 -19 56t-53 21 q-41 0 -76.5 -30.5t-51.5 -85.5z" />
<glyph unicode="&#x178;" horiz-adv-x="592" d="M105 637l133 -358l-43 -242q0 -1 -0.5 -3t-0.5 -3q0 -13 9.5 -22t23.5 -9h63q11 0 20.5 8t11.5 19l45 255l254 347q7 10 7 21q0 12 -9 21t-24 9h-71q-17 0 -26 -13q-125 -174 -176 -259h-6q-8 48 -80 248q-4 10 -14 17t-20 7h-67q-14 0 -23 -9t-9 -22q0 -8 2 -12z M421 809q4 23 22.5 39t41.5 16q19 0 30.5 -13t11.5 -33q0 -25 -19.5 -44t-44.5 -19q-19 0 -31 12.5t-12 31.5q0 7 1 10zM247 809q4 23 22.5 39t40.5 16q18 0 30 -13t12 -33q0 -25 -19.5 -44t-43.5 -19q-20 0 -31.5 12.5t-11.5 31.5q0 7 1 10z" />
<glyph unicode="&#x2c6;" horiz-adv-x="334" d="M226 680h44q6 0 13 -4.5t9 -9.5l42 -87q4 -7 4 -13q0 -1 -0.5 -3.5t-0.5 -3.5q-2 -12 -12.5 -21t-24.5 -9h-10q-6 0 -13.5 5t-9.5 10l-30 71l-55 -71q-13 -15 -29 -15h-10q-27 0 -27 24q0 1 0.5 3t0.5 3q1 10 10 20l72 87q12 14 27 14z" />
<glyph unicode="&#x2dc;" horiz-adv-x="334" d="M303 634q4 8 14 14.5t18 6.5h6q12 0 19 -7t7 -18q0 -1 -0.5 -3t-0.5 -3t-0.5 -3l-1 -4t-1.5 -3q-29 -64 -83 -64q-23 0 -57.5 22t-45.5 22t-19 -18q-11 -22 -32 -22h-7q-12 0 -19 7t-7 18q0 1 0.5 3t0.5 3l3 9q13 33 37.5 50t46.5 17t57 -22t46 -22q9 0 19 17z" />
<glyph unicode="&#x2000;" horiz-adv-x="454" />
<glyph unicode="&#x2001;" horiz-adv-x="908" />
<glyph unicode="&#x2002;" horiz-adv-x="454" />
<glyph unicode="&#x2003;" horiz-adv-x="908" />
<glyph unicode="&#x2004;" horiz-adv-x="302" />
<glyph unicode="&#x2005;" horiz-adv-x="227" />
<glyph unicode="&#x2006;" horiz-adv-x="151" />
<glyph unicode="&#x2007;" horiz-adv-x="151" />
<glyph unicode="&#x2008;" horiz-adv-x="113" />
<glyph unicode="&#x2009;" horiz-adv-x="181" />
<glyph unicode="&#x200a;" horiz-adv-x="50" />
<glyph unicode="&#x2010;" horiz-adv-x="395" d="M353 255l-7 -42q-1 -11 -11 -19t-21 -8h-243q-13 0 -22.5 9t-9.5 23v5l8 42q1 11 11 19t21 8h242q14 0 23 -9t9 -23v-5z" />
<glyph unicode="&#x2011;" horiz-adv-x="395" d="M353 255l-7 -42q-1 -11 -11 -19t-21 -8h-243q-13 0 -22.5 9t-9.5 23v5l8 42q1 11 11 19t21 8h242q14 0 23 -9t9 -23v-5z" />
<glyph unicode="&#x2013;" horiz-adv-x="593" d="M575 243l-4 -23q-1 -11 -11 -19t-21 -8h-490q-13 0 -22.5 9.5t-9.5 22.5v5l4 23q1 11 11 19t21 8h490q14 0 23.5 -9t9.5 -22q0 -1 -0.5 -3t-0.5 -3z" />
<glyph unicode="&#x2014;" horiz-adv-x="950" d="M932 243l-4 -23q-1 -11 -11 -19t-21 -8h-847q-13 0 -22.5 9.5t-9.5 22.5v5l4 23q1 11 11 19t21 8h847q14 0 23.5 -9t9.5 -22q0 -1 -0.5 -3t-0.5 -3z" />
<glyph unicode="&#x2018;" horiz-adv-x="218" d="M46 446q0 93 104 255q9 14 27 14q4 0 10 -2l32 -13q19 -8 19 -30q0 -5 -2 -13q-46 -101 -54 -205q-2 -29 -24 -48.5t-50 -19.5q-27 0 -44.5 17.5t-17.5 44.5z" />
<glyph unicode="&#x2019;" horiz-adv-x="243" d="M263 625q0 -89 -104 -254q-10 -15 -28 -15q-5 0 -9 2l-33 14q-19 9 -19 29q0 7 3 14q48 107 54 205q2 29 23 48t49 19q27 0 45.5 -17.5t18.5 -44.5z" />
<glyph unicode="&#x201a;" horiz-adv-x="266" d="M210 82q0 -84 -134 -262q-10 -13 -28 -13q-4 0 -10 2l-31 12q-20 8 -20 29q0 9 4 16q61 113 74 205q6 29 29.5 48.5t54.5 19.5q27 0 44 -16.5t17 -40.5z" />
<glyph unicode="&#x201c;" horiz-adv-x="426" d="M65 446q0 93 104 255q9 14 27 14q4 0 10 -2l32 -13q19 -8 19 -30q0 -5 -2 -13q-46 -101 -54 -205q-2 -29 -24 -48.5t-50 -19.5q-27 0 -44.5 17.5t-17.5 44.5zM253 446q0 92 104 255q9 14 28 14q3 0 9 -2l33 -13q19 -9 19 -30q0 -7 -3 -13q-48 -108 -55 -205 q-1 -27 -22 -47.5t-47 -20.5q-29 0 -47.5 16.5t-18.5 45.5z" />
<glyph unicode="&#x201d;" horiz-adv-x="466" d="M451 625q0 -91 -104 -254q-10 -15 -27 -15q-4 0 -10 2l-33 14q-19 9 -19 29q0 7 3 14q47 99 54 205q2 29 24 48.5t50 19.5q27 0 44.5 -18t17.5 -45zM263 625q0 -89 -104 -254q-10 -15 -28 -15q-5 0 -9 2l-33 14q-19 9 -19 29q0 7 3 14q48 107 54 205q2 29 23 48t49 19 q27 0 45.5 -17.5t18.5 -44.5z" />
<glyph unicode="&#x201e;" horiz-adv-x="479" d="M408 82q0 -84 -134 -262q-10 -13 -28 -13q-4 0 -10 2l-31 12q-20 8 -20 29q0 9 4 16q61 113 74 205q6 29 29.5 48.5t54.5 19.5q27 0 44 -16.5t17 -40.5zM210 82q0 -84 -134 -262q-10 -13 -28 -13q-4 0 -10 2l-31 12q-20 8 -20 29q0 9 4 16q61 113 74 205q6 29 29.5 48.5 t54.5 19.5q27 0 44 -16.5t17 -40.5z" />
<glyph unicode="&#x2022;" horiz-adv-x="388" d="M193 490q62 0 105.5 -44t43.5 -107q0 -62 -44 -107t-105 -45t-104 45t-43 107q0 63 43 107t104 44z" />
<glyph unicode="&#x2026;" horiz-adv-x="954" d="M105 -8q-30 0 -47 15.5t-17 42.5q0 40 25 65t64 25q30 0 47.5 -16.5t17.5 -43.5q0 -39 -26.5 -63.5t-63.5 -24.5zM434 -8q-30 0 -47 15.5t-17 42.5q0 40 25 65t64 25q30 0 47.5 -16.5t17.5 -43.5q0 -39 -26.5 -63.5t-63.5 -24.5zM763 -8q-30 0 -47 15.5t-17 42.5 q0 40 25 65t64 25q30 0 47.5 -16.5t17.5 -43.5q0 -39 -26.5 -63.5t-63.5 -24.5z" />
<glyph unicode="&#x202f;" horiz-adv-x="181" />
<glyph unicode="&#x2039;" horiz-adv-x="305" d="M198 0h-64q-8 0 -17.5 6t-12.5 14l-82 200q-1 3 -1 10q0 13 5 21q20 30 44 62l60 77l57 72q10 12 25 12h52q15 0 24 -9t9 -21q0 -11 -7 -21l-141 -187l79 -192q3 -8 3 -13q0 -13 -9.5 -22t-23.5 -9z" />
<glyph unicode="&#x203a;" horiz-adv-x="305" d="M92 0h-53q-15 0 -24 9t-9 21q0 11 7 21l141 187l-79 192q-3 8 -3 13q0 13 9.5 22t23.5 9h64q22 0 30 -21q3 -9 81 -200q1 -3 1 -9q0 -13 -5 -21l-158 -210q-9 -13 -26 -13z" />
<glyph unicode="&#x205f;" horiz-adv-x="227" />
<glyph unicode="&#x20ac;" horiz-adv-x="597" d="M636 627l-24 -50q-12 -22 -32 -22q-4 0 -10 2q-45 19 -96 19q-72 0 -122.5 -29t-82.5 -99h226q11 0 18 -7t7 -18q0 -4 -1 -7l-1 -6q-2 -13 -12.5 -22.5t-23.5 -9.5h-236l-14 -76h237q11 0 18 -7.5t7 -18.5l-1 -12q-3 -14 -13 -23t-23 -9h-225q8 -128 159 -128 q49 0 102 19q8 2 11 2q23 0 26 -23l4 -56q-5 -25 -26 -31q-71 -23 -130 -23q-277 0 -283 240h-31q-11 0 -18 7.5t-7 18.5l1 12q3 14 13 23t23 9h21q1 9 3.5 23t2.5 15q2 10 8 38h-21q-11 0 -18 7.5t-7 18.5l1 12q2 13 12.5 22.5t23.5 9.5h32q88 240 367 240q69 0 123 -23 q15 -6 15 -25v-6l-1 -3q-1 -3 -2 -4z" />
<glyph unicode="&#x2122;" horiz-adv-x="584" d="M310 660v-6q-4 -26 -25 -26h-54l-36 -204q-1 -10 -9.5 -17.5t-18.5 -7.5h-18q-8 0 -14 6t-6 14q0 1 0.5 2.5t0.5 2.5l36 204h-55q-15 0 -15 20v6q4 26 25 26h173q16 0 16 -20zM563 425q-2 -11 -10 -18.5t-18 -7.5h-17q-9 0 -14.5 6t-5.5 14v4l24 153l-68 -77 q-9 -11 -20 -11q-10 0 -16 11l-40 77q-4 -22 -11.5 -59.5l-12 -61t-6.5 -32.5q-1 -10 -10 -17t-18 -7h-17q-8 0 -14 6t-6 15q0 1 0.5 2.5t0.5 2.5l48 231q2 10 10.5 17t17.5 7h26q4 0 10 -3.5t7 -7.5l47 -93l80 93q9 11 21 11h26q8 0 13.5 -6t5.5 -14v-4q-28 -202 -33 -231z " />
</font>
</defs>
</svg>
