<?xml version="1.0" standalone="no"?>
<!DOCTYPE svg PUBLIC "-//W3C//DTD SVG 1.1//EN" "http://www.w3.org/Graphics/SVG/1.1/DTD/svg11.dtd" >
<svg xmlns="http://www.w3.org/2000/svg">
<metadata>
This is a custom SVG webfont generated by Fontspring.
Designer    : Nicholas Garner
Foundry     : Aviation Partners
Foundry URL : http://www.codesign.co.uk
</metadata>
<defs>
<font id="webfontaq1fHRAW" horiz-adv-x="715" >
<font-face units-per-em="1000" ascent="800" descent="-200" />
<missing-glyph horiz-adv-x="220" />
<glyph unicode=" "  horiz-adv-x="220" />
<glyph unicode="&#x09;" horiz-adv-x="220" />
<glyph unicode="&#xa0;" horiz-adv-x="220" />
<glyph unicode="!" horiz-adv-x="273" d="M133 192h-6q-24 0 -24 24v4l62 438q4 22 25 22h38q11 0 18 -6.5t7 -17.5q0 -1 -0.5 -3t-0.5 -3l-94 -438q-1 -8 -9 -14t-16 -6zM94 -8q28 0 48.5 19t20.5 50q0 20 -13.5 32.5t-36.5 12.5q-30 0 -49.5 -19.5t-19.5 -50.5q0 -20 13.5 -32t36.5 -12z" />
<glyph unicode="&#x22;" horiz-adv-x="359" d="M168 680h34q11 0 18 -6.5t7 -17.5q0 -5 -1 -7l-53 -213q-2 -8 -9 -13.5t-15 -5.5h-7q-11 0 -18 7.5t-7 20.5q4 37 13 105t13 107q1 9 8.5 16t16.5 7zM304 680h33q11 0 18 -6.5t7 -16.5q0 -5 -1 -7l-49 -213q-4 -20 -24 -20h-8q-11 0 -18 7.5t-7 19.5q1 5 24 214 q1 9 8.5 15.5t16.5 6.5z" />
<glyph unicode="#" horiz-adv-x="587" d="M531 345h-77l-31 -172h65q10 0 17.5 -7.5t7.5 -17.5v-22q0 -10 -7.5 -17.5t-17.5 -7.5h-78l-22 -124q-3 -21 -25 -21h-4l-19 3q-21 3 -21 25v4l19 113h-146l-22 -124q-3 -21 -25 -21h-4l-19 3q-21 3 -21 25v4l19 113h-65q-11 0 -18 7.5t-7 17.5v22q0 10 7 17.5t18 7.5h77 l31 172h-65q-10 0 -17.5 7.5t-7.5 17.5v22q0 10 7.5 17.5t17.5 7.5h78l22 122q3 21 25 21h4l19 -3q21 -3 21 -25v-4l-19 -111h146l22 122q3 21 25 21h4l19 -3q21 -3 21 -25v-4l-19 -111h65q11 0 18 -7.5t7 -17.5v-22q0 -10 -7 -17.5t-18 -7.5zM351 173l30 172h-146l-30 -172 h146z" />
<glyph unicode="$" horiz-adv-x="508" d="M241 319q-34 22 -49 33.5t-38.5 33t-33.5 45t-10 51.5q0 78 53 133t129 67l13 77q2 8 9 14.5t16 6.5h28q11 0 18 -7t7 -17v-5l-12 -66q46 -3 102 -31q14 -6 14 -22q0 -4 -2 -10l-14 -32q-7 -17 -23 -17q-5 0 -13 4q-53 31 -106 31q-49 0 -86 -28.5t-37 -76.5 q0 -30 24 -53.5t72 -52.5q34 -21 53.5 -35t44 -37t36 -51t11.5 -61q0 -84 -56 -143.5t-141 -74.5l-13 -73q-2 -8 -9 -14.5t-16 -6.5h-28q-11 0 -18 7t-7 18v4l13 65q-76 7 -136 46q-11 6 -11 21q0 4 2 10l17 35q8 15 23 15q9 0 14 -4q65 -45 132 -45q57 0 97 33.5t40 84.5 q0 26 -18 51t-36 39t-55 38z" />
<glyph unicode="%" horiz-adv-x="806" d="M75 416q0 112 55 192t127 80q50 0 78 -40.5t28 -107.5q0 -113 -55 -192.5t-125 -79.5q-50 0 -79 40t-29 108zM141 423q0 -44 14 -71t38 -27q37 0 71 64t34 143q0 44 -13.5 72t-37.5 28q-39 0 -72.5 -65t-33.5 -144zM475 140q0 112 55 192t127 80q52 0 80 -40.5t28 -108.5 q0 -113 -55 -192t-127 -79q-50 0 -79 40t-29 108zM544 144q0 -43 13 -69t36 -26q39 0 72.5 64.5t33.5 144.5q0 44 -13.5 70.5t-38.5 26.5q-38 0 -70.5 -65t-32.5 -146zM161 41l474 629q7 10 20 10h9q10 0 16 -6t6 -15q0 -11 -7 -19l-474 -629q-7 -10 -20 -10h-9q-10 0 -16 6 t-6 15q0 11 7 19z" />
<glyph unicode="&#x26;" horiz-adv-x="677" d="M498 131l66 -91q6 -8 6 -16q0 -10 -7 -17t-19 -7h-50q-12 0 -20 10l-49 63q-105 -81 -215 -81q-74 0 -122.5 38t-48.5 104q0 128 183 234v6q-56 78 -56 139q0 79 60 127t133 48q60 0 99 -32.5t39 -88.5q0 -57 -42 -112t-115 -97l116 -167q67 69 120 145q7 11 21 11l27 -5 q22 -3 22 -23q0 -8 -5 -16q-65 -94 -143 -172zM388 131l-128 182q-131 -90 -131 -161q0 -37 28.5 -62t69.5 -25q78 0 161 66zM251 528q0 -43 52 -112q54 34 82.5 70.5t28.5 66.5q0 29 -19 46t-49 17q-36 0 -65.5 -25.5t-29.5 -62.5z" />
<glyph unicode="'" horiz-adv-x="240" d="M177 680h33q11 0 18 -7t7 -17q0 -5 -1 -7l-51 -213q-2 -8 -9 -13.5t-15 -5.5h-5q-11 0 -18 7.5t-7 19.5l23 213q1 9 8.5 16t16.5 7z" />
<glyph unicode="(" horiz-adv-x="313" d="M166 -207h-25q-6 0 -13.5 5t-9.5 10q-52 116 -52 270q0 157 55.5 314t153.5 278q7 9 19 9h14q12 0 19 -7t7 -17q0 -7 -5 -15q-182 -264 -182 -574q0 -126 42 -239q2 -6 2 -10q0 -10 -7 -17t-18 -7z" />
<glyph unicode=")" horiz-adv-x="313" d="M145 679h25q6 0 13.5 -5t9.5 -10q52 -116 52 -270q0 -157 -55.5 -314t-153.5 -278q-7 -9 -19 -9h-14q-12 0 -19 7t-7 17q0 7 5 15q182 264 182 574q0 126 -42 239q-2 6 -2 10q0 10 7 17t18 7z" />
<glyph unicode="*" horiz-adv-x="456" d="M462 440v-5q-2 -6 -4 -9l-14 -24q-7 -16 -23 -16q-7 0 -12 3l-94 64l-8 -9l39 -111q1 -4 1 -12q-4 -18 -19 -23l-23 -9q-8 -2 -11 -2q-18 0 -18 19q-10 115 -10 122h-13l-53 -123q-8 -19 -26 -19q-2 0 -8 2l-21 9q-12 5 -12 18v4q0 5 6 13l79 112l-7 9l-115 -63 q-7 -4 -13 -4q-16 0 -18 17l-5 21q-1 4 -1 13q3 17 20 22l125 34l2 12q-1 0 -24.5 7.5l-49.5 15.5t-37 12q-13 4 -13 20v4q0 1 3 10l13 23q8 16 25 16q4 0 10 -4l95 -64l11 7l-41 113q-1 3 -1 8v4q2 16 19 23l23 9q6 2 10 2q18 0 20 -18l9 -123h13l53 123q8 19 26 19 q2 0 8 -2l21 -10q12 -4 12 -18v-4q0 -5 -6 -13l-78 -112l5 -7l117 62q8 4 12 4q16 0 19 -16l4 -23q0 -1 0.5 -2.5t0.5 -2.5q-1 -1 -1 -3v-2q-2 -17 -21 -24l-123 -35l-2 -12l111 -33q13 -4 13 -19z" />
<glyph unicode="+" horiz-adv-x="595" d="M534 248v-22q0 -10 -7 -17.5t-18 -7.5h-176v-176q0 -11 -7.5 -18t-17.5 -7h-21q-11 0 -18 7t-7 18v176h-177q-11 0 -18 7.5t-7 17.5v22q0 10 7 17.5t18 7.5h177v176q0 11 7 18t18 7h21q10 0 17.5 -7t7.5 -18v-176h176q11 0 18 -7.5t7 -17.5z" />
<glyph unicode="," horiz-adv-x="240" d="M3 -173l-11 7q-14 6 -14 22q0 6 3 12q55 100 72 187q4 22 21.5 37t39.5 15q18 0 30.5 -12t12.5 -30q0 -80 -121 -232q-8 -9 -20 -9q-7 0 -13 3z" />
<glyph unicode="-" horiz-adv-x="398" d="M346 244l-6 -28q-4 -20 -24 -20h-242q-11 0 -18 7t-7 17v5q1 7 3 16l2 10q1 10 8 16.5t17 6.5h243q11 0 18 -6.5t7 -17.5q0 -1 -0.5 -3t-0.5 -3z" />
<glyph unicode="." horiz-adv-x="240" d="M95 -8q-50 0 -50 44q0 31 19.5 50.5t49.5 19.5q22 0 36 -12.5t14 -32.5q0 -30 -20.5 -49.5t-48.5 -19.5z" />
<glyph unicode="/" horiz-adv-x="363" d="M-13 -36l350 701q6 14 22 14h17q11 0 18 -6.5t7 -16.5q0 -7 -3 -13l-350 -701q-6 -14 -22 -14h-17q-11 0 -18 6.5t-7 16.5q0 7 3 13z" />
<glyph unicode="0" horiz-adv-x="504" d="M495 450q0 -189 -87.5 -323.5t-199.5 -134.5q-73 0 -119 68.5t-46 170.5q0 188 87.5 322.5t200.5 134.5q73 0 118.5 -68t45.5 -170zM404 435q0 76 -23.5 123t-64.5 47q-65 0 -123.5 -110.5t-58.5 -249.5q0 -77 23.5 -124t64.5 -47q64 0 123 111.5t59 249.5z" />
<glyph unicode="1" horiz-adv-x="509" d="M115 514l-2 21q0 14 11 21l181 116q11 8 28 8h27q11 0 18 -7t7 -17v-5l-101 -574h115q11 0 18 -7.5t7 -17.5l-5 -30q-1 -9 -8.5 -15.5t-16.5 -6.5h-327q-11 0 -18 7t-7 18l5 30q1 9 8.5 15.5t16.5 6.5h121l88 505q-5 -4 -54 -38t-73 -49q-8 -5 -15 -5q-9 0 -16 7t-8 17z " />
<glyph unicode="2" horiz-adv-x="512" d="M29 25v4l2 13q3 14 13 26l182 184q178 179 178 257q0 97 -88 97q-58 0 -132 -52q-8 -5 -16 -5q-10 0 -16.5 7t-6.5 19l-1 26q0 14 11 21q102 66 179 66q69 0 115 -42t46 -109q0 -73 -69.5 -172.5t-261.5 -287.5h223q11 0 18 -7.5t7 -17.5l-4 -30q-1 -9 -8.5 -15.5 t-16.5 -6.5h-329q-11 0 -18 7t-7 18z" />
<glyph unicode="3" horiz-adv-x="510" d="M208 334l6 36q5 17 21 19q73 4 115 47.5t42 89.5q0 36 -22 58.5t-61 22.5q-53 0 -126 -36q-6 -3 -13 -3q-21 0 -23 22l-2 26q0 16 14 22q98 50 169 50q65 0 110 -41.5t45 -102.5q0 -51 -31 -104.5t-88 -79.5v-6q80 -31 80 -123q0 -106 -73.5 -172.5t-174.5 -66.5 q-74 0 -151 49q-11 8 -11 22q0 6 1 8l14 33q6 16 22 16q7 0 14 -4q68 -43 124 -43q59 0 102 40t43 105q0 81 -122 87q-10 1 -17 7.5t-7 16.5v5z" />
<glyph unicode="4" horiz-adv-x="504" d="M368 542h-8q-75 -102 -227 -289v-6l179 2q38 215 56 293zM47 261l336 410q7 9 19 9h43q11 0 18 -7t7 -17v-5l-71 -402h38q11 0 18 -7.5t7 -17.5l-5 -30q-1 -9 -8.5 -15.5t-16.5 -6.5h-46l-27 -151q-1 -8 -9 -14.5t-16 -6.5h-34q-11 0 -18 7t-7 17v5l25 143h-245 q-11 0 -18 7t-7 18v4l5 33q1 12 12 27z" />
<glyph unicode="5" horiz-adv-x="512" d="M445 274q0 -112 -80 -197t-181 -85q-62 0 -130 21q-18 5 -18 23q0 4 2 10l14 32q6 16 24 16q5 0 7 -1q62 -20 106 -20q66 0 115 57t49 131q0 52 -28.5 83t-82.5 31q-37 0 -80 -8q-1 0 -3 -0.5t-3 -0.5q-10 0 -17 7t-7 18q0 5 1 7l64 263q2 8 9 13.5t15 5.5h252 q11 0 18 -7t7 -17v-4l-5 -26q-1 -9 -8.5 -15.5t-16.5 -6.5h-196l-38 -151q13 2 28 2h12q79 0 125 -50t46 -131z" />
<glyph unicode="6" horiz-adv-x="504" d="M211 -8q-80 0 -134.5 51t-54.5 129q0 234 331 499q12 9 28 9h30q12 0 19 -7.5t7 -17.5q0 -11 -11 -20q-120 -93 -206 -196v-6q44 22 81 22q75 -2 124.5 -53t49.5 -127q0 -125 -79 -204t-185 -79zM278 374q-75 0 -119.5 -52.5t-44.5 -136.5q0 -51 30 -81.5t81 -30.5 q67 0 113 53.5t46 136.5q0 51 -28 81t-78 30z" />
<glyph unicode="7" horiz-adv-x="504" d="M532 604l-353 -592q-6 -12 -21 -12h-42q-11 0 -18 6.5t-7 16.5q0 8 4 15l345 566h-255l-20 -114q-1 -8 -9 -14.5t-16 -6.5h-21q-11 0 -18 7t-7 17v5l29 161q1 8 9 14.5t16 6.5h374q11 0 18 -7t7 -18v-5l-4 -18q-4 -16 -11 -28z" />
<glyph unicode="8" horiz-adv-x="509" d="M445 212q0 -93 -69 -156.5t-166 -63.5q-73 0 -121.5 43.5t-48.5 106.5q0 71 43.5 129t110.5 87q-77 51 -77 131q0 82 65 140.5t151 58.5q65 0 109.5 -41t44.5 -99q0 -61 -37.5 -109.5t-94.5 -77.5q90 -53 90 -149zM355 199q0 39 -23.5 68.5t-64.5 44.5q-60 -18 -99 -61 t-39 -95q0 -38 24.5 -60.5t70.5 -22.5q55 0 93 36.5t38 89.5zM206 498q0 -31 20 -55t57 -37q53 17 84 51.5t31 76.5q0 34 -22.5 53t-57.5 19q-44 0 -78 -29.5t-34 -78.5z" />
<glyph unicode="9" horiz-adv-x="504" d="M325 688q80 0 134.5 -51t54.5 -129q0 -234 -331 -499q-12 -9 -28 -9h-30q-12 0 -19 7.5t-7 17.5q0 11 11 20q120 93 206 196v6q-44 -22 -81 -22q-75 2 -124.5 53t-49.5 127q0 125 79 204t185 79zM258 306q75 0 119.5 52.5t44.5 136.5q0 51 -30 81.5t-81 30.5 q-67 0 -113 -53.5t-46 -136.5q0 -51 28 -81t78 -30z" />
<glyph unicode=":" horiz-adv-x="240" d="M149 312q-23 0 -36.5 12t-13.5 32q0 31 19.5 50.5t49.5 19.5q22 0 36 -12.5t14 -32.5q0 -31 -20.5 -50t-48.5 -19zM93 -8q-23 0 -36.5 12t-13.5 32q0 31 19.5 50.5t49.5 19.5q22 0 36 -12.5t14 -32.5q0 -31 -20.5 -50t-48.5 -19z" />
<glyph unicode=";" horiz-adv-x="242" d="M152 312q-50 0 -50 44q0 31 19.5 50.5t49.5 19.5q23 0 36.5 -12.5t13.5 -32.5q0 -30 -20.5 -49.5t-48.5 -19.5zM3 -173l-11 7q-14 6 -14 22q0 6 3 12q55 100 72 187q4 22 21.5 37t39.5 15q18 0 30.5 -12t12.5 -30q0 -80 -121 -232q-8 -9 -20 -9q-7 0 -13 3z" />
<glyph unicode="&#x3c;" horiz-adv-x="595" d="M61 221v34q0 6 5 13.5t10 9.5l405 187q3 2 10 2q16 0 22 -14l9 -19q3 -6 3 -12q0 -16 -14 -22q-266 -123 -357 -159v-6q91 -36 357 -159q14 -6 14 -22q0 -6 -3 -12l-9 -19q-6 -14 -22 -14q-7 0 -10 2l-405 187q-5 2 -10 9.5t-5 13.5z" />
<glyph unicode="=" horiz-adv-x="595" d="M85 372h424q11 0 18 -7t7 -18v-22q0 -11 -7 -18t-18 -7h-424q-11 0 -18 7t-7 18v22q0 11 7 18t18 7zM85 174h424q11 0 18 -7t7 -18v-22q0 -11 -7 -18t-18 -7h-424q-11 0 -18 7t-7 18v22q0 11 7 18t18 7z" />
<glyph unicode="&#x3e;" horiz-adv-x="595" d="M535 255v-34q0 -6 -5 -13.5t-10 -9.5l-405 -187q-3 -2 -10 -2q-16 0 -22 14l-9 19q-3 6 -3 12q0 16 14 22q266 123 357 159v6q-91 36 -357 159q-14 6 -14 22q0 6 3 12l9 19q6 14 22 14q7 0 10 -2l405 -187q5 -2 10 -9.5t5 -13.5z" />
<glyph unicode="?" horiz-adv-x="403" d="M119 -8q28 0 48.5 19t20.5 50q0 20 -14 32.5t-36 12.5q-30 0 -49.5 -19.5t-19.5 -50.5q0 -20 13.5 -32t36.5 -12zM253 688q75 0 112.5 -32.5t37.5 -84.5q0 -37 -19.5 -75t-38 -59t-56.5 -59l-11 -11q-41 -41 -63.5 -74t-32.5 -81q-5 -20 -24 -20h-11q-11 0 -18 7t-7 17v5 q15 99 84 169q39 40 56 59t32.5 48t15.5 57q0 63 -90 63q-37 0 -73 -14q-3 -1 -8 -1q-9 0 -15.5 6t-8.5 15q-1 6 -1 19q0 17 16 23q58 23 123 23z" />
<glyph unicode="@" horiz-adv-x="761" d="M472 -67l2 -11q0 -1 0.5 -3.5t0.5 -3.5q0 -20 -18 -25q-49 -16 -111 -16q-146 0 -231 90t-85 232q0 169 107.5 286.5t272.5 117.5q142 0 231 -84.5t89 -215.5q0 -122 -59 -188t-130 -66q-34 0 -60 21.5t-28 65.5h-5q-22 -44 -59.5 -65.5t-74.5 -21.5q-48 0 -78 30.5 t-30 88.5q0 61 20.5 112.5t52 83.5t67.5 49.5t69 17.5q60 0 123 -39q12 -7 12 -22q0 -4 -1 -6q-38 -143 -38 -190q0 -66 46 -66q15 0 30.5 7t34.5 25t31 58t12 97q0 107 -67 177t-193 70q-134 0 -221.5 -96t-87.5 -243q0 -120 68 -192.5t188 -72.5q43 0 89 12q10 2 13 2 q15 0 18 -16zM478 345q-29 23 -69 23q-42 0 -87.5 -52t-45.5 -136q0 -36 17 -55.5t44 -19.5q50 0 89 72.5t52 167.5z" />
<glyph unicode="A" horiz-adv-x="604" d="M151 167l-79 -153q-2 -5 -9.5 -9.5t-12.5 -4.5h-44q-11 0 -18.5 7t-7.5 17q0 5 4 13l343 630q7 13 22 13h54q8 0 16 -6t9 -14l122 -630v-5q0 -11 -7 -18t-18 -7h-43q-8 0 -16 6.5t-9 14.5l-26 146h-280zM194 245h226q-1 0 -11.5 66l-23 148.5t-16.5 119.5h-9 q-26 -61 -166 -334z" />
<glyph unicode="B" horiz-adv-x="563" d="M409 370v-5q49 -14 80.5 -53t31.5 -88q0 -46 -16 -85t-50.5 -73.5t-98.5 -54t-152 -19.5q-81 0 -141 4q-23 2 -23 24v5l112 636q1 7 8 13.5t15 7.5q62 6 145 6q106 0 157.5 -42t51.5 -99q0 -56 -34 -107t-86 -70zM183 316l-43 -242q47 -5 97 -5q95 0 141 43.5t46 105.5 q0 44 -34.5 71t-98.5 27h-108zM437 524q0 87 -121 87q-45 0 -83 -5l-37 -213h95q60 0 103 37.5t43 93.5z" />
<glyph unicode="C" horiz-adv-x="588" d="M628 614l-18 -38q-8 -14 -22 -14q-8 0 -13 4q-64 40 -136 40q-119 0 -205 -95.5t-86 -228.5q0 -93 53 -150.5t145 -57.5q71 0 146 37q6 3 13 3q20 0 23 -21l4 -29q0 -18 -14 -26q-99 -46 -190 -46q-119 0 -198 77t-79 196q0 92 33 172t88.5 134.5t128 85.5t150.5 31 q89 0 165 -43q14 -9 14 -22q0 -3 -2 -9z" />
<glyph unicode="D" horiz-adv-x="667" d="M650 415q0 -86 -29.5 -162t-84.5 -134.5t-140.5 -92.5t-189.5 -34q-85 0 -142 5q-23 2 -23 24v5l111 635q1 7 8 13.5t15 7.5q74 6 157 6q150 0 234 -78t84 -195zM233 606l-94 -532q60 -3 99 -3q137 0 226.5 90t89.5 245q0 98 -57.5 150.5t-163.5 52.5q-58 0 -100 -3z" />
<glyph unicode="E" horiz-adv-x="490" d="M417 49l-5 -27q-2 -22 -25 -22h-322q-11 0 -18 7t-7 17v5l111 630q1 8 9 14.5t16 6.5h318q11 0 18 -7t7 -17v-5l-4 -27q-2 -22 -25 -22h-257q-7 -41 -19.5 -107t-18.5 -102h219q11 0 18 -7t7 -17v-5l-5 -25q-1 -10 -8 -17t-17 -7h-228l-42 -237h253q11 0 18 -7t7 -17v-5z " />
<glyph unicode="F" horiz-adv-x="465" d="M233 602l-37 -209h215q11 0 18 -7t7 -17v-5l-5 -25q-1 -10 -8 -17t-17 -7h-223l-53 -294q-2 -8 -9 -14.5t-16 -6.5h-39q-11 0 -18 7t-7 17v5l110 630q1 8 9 14.5t16 6.5h309q11 0 18 -7t7 -17v-5l-4 -27q-2 -22 -25 -22h-248z" />
<glyph unicode="G" horiz-adv-x="666" d="M604 331l-53 -294q-1 -6 -7 -12t-12 -8q-39 -10 -103 -17.5t-102 -7.5q-118 0 -197.5 78t-79.5 195q0 182 119.5 302.5t280.5 120.5q89 0 165 -43q12 -7 12 -23q0 -5 -1 -8l-17 -38q-8 -14 -22 -14q-8 0 -13 4q-64 40 -136 40q-119 0 -205 -95t-86 -228q0 -94 53 -151.5 t145 -57.5q62 0 125 14l34 194h-96q-11 0 -18 7t-7 17v5l5 24q5 25 25 25h166q11 0 18 -7t7 -17v-5z" />
<glyph unicode="H" horiz-adv-x="665" d="M659 651l-111 -630q-1 -8 -9 -14.5t-16 -6.5h-39q-11 0 -18 7t-7 17v5l50 283h-326l-53 -291q-2 -8 -9 -14.5t-16 -6.5h-39q-11 0 -18 7t-7 17v5l110 630q1 8 9 14.5t16 6.5h39q11 0 18 -7t7 -17v-5l-45 -261h327l47 269q2 8 9 14.5t16 6.5h40q11 0 18 -7t7 -17v-5z" />
<glyph unicode="I" horiz-adv-x="391" d="M14 25l3 25q1 9 8.5 15t16.5 6h78l95 537h-69q-11 0 -18 7t-7 18v4l4 22q1 9 8.5 15t16.5 6h237q11 0 18 -7t7 -18v-4l-4 -22q-4 -21 -25 -21h-77l-95 -537h69q11 0 18 -7t7 -18v-4l-4 -21q-1 -9 -8.5 -15t-16.5 -6h-237q-11 0 -18 7t-7 18z" />
<glyph unicode="J" horiz-adv-x="409" d="M3 56l15 29q8 18 23 18q7 0 15 -5q31 -21 73 -21q35 0 62.5 23t34.5 59l79 449h-124q-11 0 -18 7t-7 18v4l4 22q4 21 25 21h194q11 0 18 -7t7 -17v-5l-86 -491q-13 -76 -67 -122t-128 -46q-56 0 -110 33q-12 7 -12 22q0 3 2 9z" />
<glyph unicode="K" horiz-adv-x="575" d="M191 350h-5l-57 -329q-1 -8 -9 -14.5t-16 -6.5h-40q-11 0 -18 7t-7 17v5l110 630q1 8 9 14.5t16 6.5h40q11 0 18 -7t7 -17v-5l-41 -234h5l267 253q10 10 26 10h36q12 0 18.5 -7t6.5 -17q0 -12 -8 -19l-274 -260l229 -338q5 -8 5 -15q0 -10 -7 -17t-19 -7h-43 q-15 0 -24 13q-219 322 -225 337z" />
<glyph unicode="L" horiz-adv-x="470" d="M424 49l-4 -27q-2 -22 -25 -22h-329q-11 0 -18 7t-7 17v5l110 630q1 8 9 14.5t16 6.5h40q11 0 18 -7t7 -17v-5l-101 -573h259q11 0 18 -7t7 -17v-5z" />
<glyph unicode="M" horiz-adv-x="790" d="M36 30l131 630q4 20 24 20h56q17 0 23 -14l143 -300l251 305q7 9 19 9h61q11 0 18 -7t7 -18v-4l-90 -630q-1 -9 -8.5 -15t-16.5 -6h-42q-9 0 -15 6t-6 15v4q59 408 78 522h-6l-248 -302q-9 -10 -20 -10q-16 0 -22 15l-139 297h-5l-106 -527q-4 -20 -24 -20h-38 q-11 0 -18 7t-7 18v5z" />
<glyph unicode="N" horiz-adv-x="688" d="M682 651l-111 -630q-1 -8 -9 -14.5t-16 -6.5h-57q-17 0 -23 14l-215 459l-31 68h-6q-2 -34 -17 -121l-71 -399q-2 -8 -9 -14.5t-16 -6.5h-35q-11 0 -18 7t-7 17v5l110 630q1 8 9 14.5t16 6.5h62q17 0 23 -15l242 -524h5q2 28 18 119l70 399q1 8 9 14.5t16 6.5h36 q11 0 18 -7t7 -17v-5z" />
<glyph unicode="O" d="M328 74q115 0 194.5 95t79.5 239q0 91 -47.5 144.5t-133.5 53.5q-114 0 -194 -95.5t-80 -238.5q0 -92 48 -145t133 -53zM436 688q118 0 190 -78.5t72 -192.5q0 -175 -110.5 -300t-274.5 -125q-118 0 -190 77.5t-72 191.5q0 173 111 300t274 127z" />
<glyph unicode="P" horiz-adv-x="523" d="M171 253l-41 -232q-2 -8 -9 -14.5t-16 -6.5h-39q-11 0 -18 7t-7 17v5l111 632q1 7 8 13.5t15 7.5q64 6 145 6q106 0 161 -51t55 -123q0 -67 -24 -118.5t-64.5 -82t-87.5 -45.5t-99 -15h-90zM233 604l-49 -273h97q67 0 113 48t46 123q0 47 -29 76.5t-94 29.5q-38 0 -84 -4 z" />
<glyph unicode="Q" d="M389 3q29 -50 146 -58q23 -2 23 -24q0 -7 -2 -11l-14 -28q-8 -15 -24 -15q-96 4 -157 40.5t-81 86.5q-106 11 -167.5 87.5t-61.5 179.5q0 113 49 210.5t138 157t198 59.5q118 0 190 -78.5t72 -191.5q0 -150 -87.5 -270t-221.5 -145zM147 272q0 -92 47.5 -145t133.5 -53 q114 0 194 95t80 239q0 91 -48 144.5t-133 53.5q-101 0 -174 -73t-94 -193q-6 -36 -6 -68z" />
<glyph unicode="R" horiz-adv-x="553" d="M478 0h-50q-10 0 -18.5 8t-10.5 15q-71 259 -154 259h-69l-46 -261q-1 -8 -9 -14.5t-16 -6.5h-39q-11 0 -18 7t-7 17v5l111 632q1 7 8 13.5t15 7.5q64 6 144 6q105 0 157 -50t52 -115q0 -72 -48.5 -132t-113.5 -81v-5q48 -30 104 -184l31 -87q2 -8 2 -10q0 -10 -7 -17 t-18 -7zM232 605l-42 -245h75q74 0 120.5 41.5t46.5 107.5q0 43 -27 72t-88 29q-47 0 -85 -5z" />
<glyph unicode="S" horiz-adv-x="476" d="M324 172q1 5 1 16q0 27 -17 52t-33.5 38t-50.5 36l-9 6l-46.5 33t-38.5 34t-31 44.5t-10 50.5q0 94 70.5 150t161.5 56q67 0 132 -35q13 -7 13 -22q0 -4 -2 -10l-15 -33q-6 -16 -23 -16q-5 0 -13 4q-50 30 -106 30q-40 0 -80.5 -30.5t-40.5 -72.5q0 -22 16.5 -44 t34 -34.5l50.5 -34.5l9 -6q41 -26 63.5 -43t44.5 -52t22 -76q0 -99 -72.5 -160t-166.5 -61q-97 0 -172 48q-11 6 -11 21q0 4 2 10l17 35q7 15 23 15q9 0 14 -4q57 -38 120 -43q49 1 92.5 28t51.5 70z" />
<glyph unicode="T" horiz-adv-x="506" d="M76 631l5 26q2 23 25 23h441q11 0 18 -7t7 -17v-5l-5 -27q-1 -9 -8.5 -15.5t-16.5 -6.5h-177l-104 -581q-1 -8 -9 -14.5t-16 -6.5h-39q-11 0 -18 7t-7 17v5l101 573h-172q-11 0 -18 7t-7 17v5z" />
<glyph unicode="U" horiz-adv-x="679" d="M608 680h40q11 0 18 -7t7 -17v-5l-74 -423q-18 -104 -106 -170t-197 -66q-93 0 -158.5 57t-65.5 139q0 26 3 41l76 430q1 8 9 14.5t16 6.5h40q11 0 18 -7t7 -17v-5l-74 -423q-3 -14 -3 -27q0 -56 41 -91.5t106 -35.5q71 0 128 44t69 110l75 431q1 8 9 14.5t16 6.5z" />
<glyph unicode="V" horiz-adv-x="611" d="M214 20l-122 630v5q0 11 7 18t18 7h46q8 0 15 -5.5t9 -13.5q83 -465 90 -538h8q37 77 284 544q7 13 22 13h45q11 0 18.5 -7t7.5 -17q0 -5 -4 -13l-342 -630q-2 -4 -9.5 -8.5t-12.5 -4.5h-55q-8 0 -16 6t-9 14z" />
<glyph unicode="W" horiz-adv-x="947" d="M674 128h8q22 61 224 537q6 15 23 15h45q11 0 18.5 -7t7.5 -17q0 -5 -3 -11l-278 -630q-6 -15 -23 -15h-66q-19 0 -23 20q-75 446 -78 514h-8q-45 -102 -263 -521q-6 -13 -22 -13h-65q-10 0 -17 6.5t-8 16.5l-57 630q0 12 7 19.5t18 7.5h49q8 0 14.5 -6t7.5 -14 q34 -479 34 -532h8q19 43 66.5 139l119.5 236.5t83 163.5q6 13 22 13h54q19 0 23 -20q79 -466 79 -532z" />
<glyph unicode="X" horiz-adv-x="634" d="M-6 42l283 318l-159 283q-4 8 -4 13q0 10 7.5 17t18.5 7h51q15 0 22 -13l125 -238h8l216 243q6 8 19 8h47q12 0 19 -7.5t7 -17.5t-7 -17l-256 -286l181 -315q4 -7 4 -14q0 -10 -7 -16.5t-19 -6.5h-51q-15 0 -21 12q-11 17 -70.5 126.5t-76.5 143.5h-6l-247 -274 q-8 -8 -18 -8h-48q-12 0 -19 7t-7 17q0 8 8 18z" />
<glyph unicode="Y" horiz-adv-x="547" d="M236 293l-136 353q-2 8 -2 10q0 10 7 17t18 7h41q20 0 27 -18q90 -224 97 -277h7q48 77 202 285q6 10 20 10h45q12 0 19 -7t7 -17q0 -8 -6 -16l-255 -348l-47 -271q-1 -8 -9 -14.5t-16 -6.5h-40q-11 0 -18 7t-7 17v5z" />
<glyph unicode="Z" horiz-adv-x="566" d="M22 79l427 519v4h-306q-11 0 -18 7t-7 17v5l3 22l2 5q0 5 7 13.5t18 8.5h404q10 0 17.5 -7t7.5 -18q0 -1 -4 -21t-16 -34l-390 -475q-21 -27 -38 -40v-7h337q11 0 18 -7t7 -17v-5l-3 -22l-2 -5q-2 -22 -25 -22h-433q-10 0 -17.5 7t-7.5 18q0 6 3 21q4 17 16 33z" />
<glyph unicode="[" horiz-adv-x="258" d="M304 650l-3 -15q-6 -19 -24 -19h-64l-134 -758h56q11 0 18 -7t7 -18v-5l-2 -9q0 -11 -7 -18t-18 -7h-106q-11 0 -18 7t-7 17v5l127 720q3 19 10 58t10 58q1 9 8.5 15t16.5 6h106q11 0 18 -6.5t7 -17.5q0 -1 -0.5 -3t-0.5 -3z" />
<glyph unicode="\" horiz-adv-x="363" d="M254 -73h-20q-9 0 -16.5 6t-8.5 15l-103 702v4q0 11 7 18t18 7h20q21 0 25 -21l103 -702v-4q0 -11 -7 -18t-18 -7z" />
<glyph unicode="]" horiz-adv-x="258" d="M254 651l-147 -836q-1 -9 -8.5 -15t-16.5 -6h-105q-11 0 -18 7t-7 18v5l2 9q2 25 25 25h64l134 758h-55q-11 0 -18 6.5t-7 17.5q0 1 0.5 3t0.5 3l3 15q1 19 24 19h104q11 0 18 -7t7 -17v-5z" />
<glyph unicode="^" horiz-adv-x="591" d="M339 671l198 -418q3 -6 3 -12q0 -10 -7 -17t-19 -7h-23q-6 0 -13.5 5t-9.5 10l-170 372h-5l-169 -372q-2 -5 -9.5 -10t-13.5 -5h-25q-12 0 -19 6.5t-7 16.5q0 6 3 12l199 419q6 14 23 14h41q17 0 23 -14z" />
<glyph unicode="_" horiz-adv-x="507" d="M443 -106l-2 -11q-7 -25 -26 -25h-449q-11 0 -18 7t-7 18v5l3 17q1 8 9 14t16 6h449q11 0 18.5 -7t7.5 -18q0 -4 -1 -6z" />
<glyph unicode="`" horiz-adv-x="339" d="M243 555l-61 85q-6 8 -6 17q0 10 7 16.5t18 6.5h22q13 0 25 -22l42 -78q4 -7 4 -15q0 -9 -6.5 -15.5t-17.5 -6.5h-8q-12 0 -19 12z" />
<glyph unicode="a" horiz-adv-x="517" d="M428 5l-23 -7q-2 -1 -7 -1q-22 0 -25 21q-4 28 -6 83h-5q-28 -54 -74.5 -81.5t-91.5 -27.5q-73 0 -118 47t-45 135q0 73 23.5 133.5t61 97.5t81.5 57t88 20q88 0 176 -55q12 -7 12 -21v-4q-36 -191 -36 -286q0 -44 7 -83v-4q0 -17 -18 -24zM388 381q-46 31 -104 31 q-57 0 -109 -60.5t-52 -166.5q0 -59 26 -90.5t68 -31.5q48 0 87.5 50.5t60 122t23.5 145.5z" />
<glyph unicode="b" horiz-adv-x="517" d="M482 300q0 -141 -79 -224.5t-174 -83.5q-88 0 -177 35q-16 7 -16 24l106 607q1 8 9 14.5t16 6.5h35q11 0 18 -7t7 -17v-5l-42 -241q59 73 133 73q73 0 118.5 -47t45.5 -135zM392 290q0 59 -25.5 90t-66.5 31q-51 0 -91.5 -53.5t-60 -126t-22.5 -147.5q50 -21 106 -21 q58 0 109 60t51 167z" />
<glyph unicode="c" horiz-adv-x="425" d="M367 65l2 -21q0 -17 -15 -23q-68 -29 -139 -29q-80 0 -131.5 50.5t-51.5 137.5q0 141 81 221.5t188 80.5q61 0 121 -25q15 -6 15 -21q0 -6 -3 -13l-13 -27q-5 -11 -18 -11q-7 0 -13 3q-49 23 -97 23q-70 0 -120.5 -63.5t-50.5 -161.5q0 -59 28.5 -91t81.5 -32 q48 0 101 21q8 2 11 2q20 0 23 -21z" />
<glyph unicode="d" horiz-adv-x="517" d="M519 651l-62 -354q-19 -112 -19 -182q0 -45 7 -82v-4q0 -20 -18 -25l-22 -6q-2 -1 -7 -1q-21 0 -24 19q-7 28 -7 68v16h-5q-28 -55 -75 -81.5t-92 -26.5q-72 0 -117 47t-45 135q0 72 23.5 132.5t60.5 97.5t81 57.5t88 20.5q56 0 114 -26q26 147 35 203q2 8 9 14.5t16 6.5 h34q11 0 18 -7t7 -17v-5zM388 380q-40 31 -104 31q-58 0 -109.5 -60.5t-51.5 -167.5q0 -59 25.5 -90t67.5 -31q48 0 87.5 49.5t60.5 121t24 147.5z" />
<glyph unicode="e" horiz-adv-x="461" d="M371 70l5 -18v-4q0 -17 -15 -24q-76 -32 -146 -32q-83 0 -133 47.5t-50 137.5q0 142 80.5 223.5t187.5 81.5q71 0 107 -34t36 -81q0 -74 -85.5 -113t-234.5 -40q-1 -11 -1 -29q0 -57 29 -89t79 -32q49 0 108 23q6 2 10 2q18 0 23 -19zM137 276q101 0 161.5 21t60.5 65 q0 24 -19.5 37t-49.5 13q-49 0 -91 -34t-62 -102z" />
<glyph unicode="f" horiz-adv-x="294" d="M182 407l-67 -386q-2 -8 -9 -14.5t-16 -6.5h-35q-11 0 -18 7t-7 17v5l66 378h-20q-11 0 -18 7t-7 18v5l3 17q1 8 9 14t16 6h29l14 79q12 66 56.5 100.5t109.5 34.5q49 0 93 -14q18 -5 18 -24q0 -4 -2 -10l-9 -21q-7 -15 -24 -15q-4 0 -6 1q-33 11 -75 12h-5 q-60 0 -71 -68l-13 -75h78q12 0 19.5 -6.5t7.5 -16.5q0 -1 -0.5 -3t-0.5 -3l-3 -14q-2 -24 -26 -24h-87z" />
<glyph unicode="g" horiz-adv-x="517" d="M474 406l-80 -456q-14 -76 -73 -119.5t-142 -43.5q-55 0 -112 18q-18 5 -18 24q0 1 0.5 3t0.5 3l6 26q5 19 24 19q5 0 8 -1q62 -20 99 -20q52 0 83 23.5t38 63.5l23 131h-4q-51 -70 -131 -70q-73 0 -118 45.5t-45 129.5q0 74 29 141.5t88 113t134 45.5q96 0 179 -55 q11 -9 11 -21zM386 383q-42 29 -104 29q-57 0 -108 -58.5t-51 -162.5q0 -57 23.5 -86t65.5 -29q49 0 89.5 48t61.5 117.5t23 141.5z" />
<glyph unicode="h" horiz-adv-x="511" d="M319 29l13 73q37 202 37 245q0 36 -15 49t-49 13q-44 0 -92.5 -59.5t-65.5 -157.5l-30 -171q-1 -8 -9 -14.5t-16 -6.5h-35q-11 0 -18 7t-7 17v5l64 365l46 265q1 8 9 14.5t16 6.5h36q11 0 18 -7t7 -17v-5l-45 -256h4q66 87 149 87q125 0 125 -112q0 -22 -5 -52l-52 -297 q-1 -8 -9 -14.5t-16 -6.5h-35q-11 0 -18 7t-7 17v5z" />
<glyph unicode="i" horiz-adv-x="223" d="M191 445l-74 -424q-2 -8 -9 -14.5t-16 -6.5h-36q-11 0 -18 7t-7 17v5l74 424q2 8 9 14.5t16 6.5h36q11 0 18 -7t7 -17v-5zM228 610q0 -27 -17.5 -44t-43.5 -17q-43 0 -43 39q0 27 17.5 44t43.5 17q43 0 43 -39z" />
<glyph unicode="j" horiz-adv-x="225" d="M-112 -185l-2 17v6q0 17 20 23q48 10 78 36.5t37 64.5l86 491q1 8 9 14.5t16 6.5h36q11 0 18 -7t7 -17v-5l-84 -478q-12 -70 -63.5 -114.5t-127.5 -60.5q-1 0 -3.5 -0.5t-3.5 -0.5q-20 0 -23 24zM229 610q0 -27 -17.5 -44t-43.5 -17q-43 0 -43 39q0 27 17.5 44t43.5 17 q43 0 43 -39z" />
<glyph unicode="k" horiz-adv-x="433" d="M172 305q40 42 172 156q15 13 35 13h28q12 0 19 -7t7 -17q0 -11 -10 -20l-181 -160l145 -232q4 -7 4 -15q0 -10 -7 -16.5t-18 -6.5h-42q-16 0 -22 12q-113 187 -138 247h-6l-42 -238q-1 -8 -9 -14.5t-16 -6.5h-35q-11 0 -18 7t-7 17v5l110 630q1 8 9 14.5t16 6.5h36 q11 0 18 -7t7 -17v-5l-61 -346h6z" />
<glyph unicode="l" horiz-adv-x="293" d="M48 123l95 536q1 8 9 14.5t16 6.5h35q11 0 18 -7t7 -17v-5l-91 -518q-2 -12 -2 -20q0 -47 52 -47q12 0 30 3h5q10 0 16.5 -7t7.5 -17l1 -21q0 -21 -21 -25q-40 -7 -71 -7q-51 0 -81 25t-30 70q0 16 4 36z" />
<glyph unicode="m" horiz-adv-x="787" d="M124 474h32q8 0 14 -6t6 -14q0 -23 -6 -74h5q35 54 80 78t86 24q50 0 80 -25t32 -75h5q31 49 75 74.5t82 25.5q121 0 121 -112q0 -23 -5 -53l-52 -296q-1 -8 -9 -14.5t-16 -6.5h-32q-11 0 -18 7t-7 17v5l49 283q4 22 4 37q0 59 -58 59q-53 0 -101 -66q-49 -64 -63 -149 l-29 -172q-1 -9 -8.5 -15t-16.5 -6h-33q-11 0 -18 7t-7 17v5l49 282q3 17 3 33q0 66 -67 66q-44 0 -90.5 -62.5t-62.5 -156.5l-29 -170q-1 -9 -8.5 -15t-16.5 -6h-36q-11 0 -18 7t-7 17v5l43 248q19 108 23 174q1 10 8 16.5t17 6.5z" />
<glyph unicode="n" horiz-adv-x="511" d="M169 381h5q32 51 77.5 76t83.5 25q65 0 95 -28t30 -86q0 -29 -4 -50l-52 -297q-1 -8 -9 -14.5t-16 -6.5h-36q-11 0 -18 7t-7 17v5l49 283q0 3 2 17.5t2 19.5q0 32 -14.5 45.5t-44.5 13.5q-48 0 -94.5 -56t-70.5 -159l-30 -172q-1 -8 -9 -14.5t-16 -6.5h-35q-11 0 -18 7 t-7 17v5l43 248q14 82 23 174q1 9 8 16t17 7h32q8 0 14 -6t6 -14q0 -23 -6 -73z" />
<glyph unicode="o" horiz-adv-x="521" d="M229 63q67 0 116.5 63.5t49.5 163.5q0 58 -27.5 89.5t-77.5 31.5q-68 0 -117.5 -63.5t-49.5 -163.5q0 -59 28 -90t78 -31zM302 482q80 0 132 -50.5t52 -136.5q0 -141 -81 -222t-189 -81q-80 0 -131.5 50.5t-51.5 136.5q0 141 81.5 222t187.5 81z" />
<glyph unicode="p" horiz-adv-x="514" d="M388 292q0 57 -25.5 88.5t-65.5 31.5q-47 0 -86.5 -50t-61 -122t-23.5 -145q40 -33 103 -33q57 0 108 61.5t51 168.5zM168 399h5q60 83 144 83q72 0 117 -47t45 -134q0 -142 -78 -225.5t-175 -83.5q-56 0 -111 26l-38 -204q-1 -8 -9 -14.5t-16 -6.5h-35q-11 0 -18 7 t-7 17v5l81 455l22 177q4 20 22 20h36q8 0 14 -6t6 -14q0 -12 -5 -55z" />
<glyph unicode="q" horiz-adv-x="519" d="M124 183q0 -59 25.5 -90t66.5 -31q49 0 89.5 52t61.5 126.5t22 148.5q-45 22 -105 22q-57 0 -108.5 -61t-51.5 -167zM479 422l-98 -562h76q21 0 21 -17l-4 -24q-3 -25 -25 -25h-134q-11 0 -18 7t-7 17v5l42 242h-7q-25 -37 -60 -55t-70 -18q-71 0 -116.5 47.5 t-45.5 134.5q0 72 23.5 132.5t60.5 97.5t81.5 57.5t88.5 20.5q85 0 176 -36q16 -7 16 -24z" />
<glyph unicode="r" horiz-adv-x="359" d="M167 373h6q27 51 73 80t85 29q26 0 36 -2q20 -5 20 -24q0 -5 -1 -7l-9 -36q-5 -19 -24 -19q-5 0 -8 1q-18 6 -41 6q-46 0 -94 -61t-65 -161l-27 -154q-2 -25 -25 -25h-36q-11 0 -18 7t-7 17v5l43 248q22 124 22 172q0 8 8.5 16.5t18.5 8.5h25q11 0 18 -6.5t7 -16.5v-4 q0 -24 -7 -74z" />
<glyph unicode="s" horiz-adv-x="384" d="M326 159q0 -74 -55.5 -120.5t-131.5 -46.5q-67 0 -129 26q-15 7 -15 23q0 5 3 11l14 26q6 14 22 14q6 0 12 -3q50 -26 100 -26q34 0 62 19.5t28 56.5q0 15 -12.5 28.5t-24.5 21t-38 20.5q-25 13 -38.5 21.5t-31.5 23t-26.5 32.5t-8.5 40q0 72 54 114t121 42q51 0 109 -24 q15 -6 15 -22q0 -6 -3 -12l-13 -25q-6 -14 -22 -14q-7 0 -11 3q-48 23 -80 23q-30 0 -54.5 -19t-24.5 -46q0 -14 12 -27t24.5 -21.5t37.5 -22.5q28 -16 40.5 -24t31 -23.5t26 -32t7.5 -36.5z" />
<glyph unicode="t" horiz-adv-x="320" d="M304 443l-2 -12q-3 -24 -25 -24h-103l-48 -273q-2 -10 -2 -15q0 -51 63 -51q28 0 64 10q3 1 8 1q22 0 24 -24l1 -22q0 -19 -18 -24q-58 -17 -116 -17q-54 0 -84.5 25.5t-30.5 71.5q0 17 3 35l50 283h-19q-11 0 -18 7t-7 18v5l3 17q1 8 9 14t16 6h28l11 60q1 6 6.5 12 t10.5 8l37 14q3 1 9 1q10 0 17 -7t7 -17v-5l-12 -66h94q25 0 25 -23q0 -5 -1 -8z" />
<glyph unicode="u" horiz-adv-x="511" d="M340 93h-5q-32 -51 -77.5 -76t-83.5 -25q-65 0 -95 28t-30 86q0 29 4 50l52 297q1 8 9 14.5t16 6.5h36q11 0 18 -7t7 -17v-5l-49 -283q0 -3 -2 -17.5t-2 -19.5q0 -32 14.5 -45.5t44.5 -13.5q48 0 94.5 56t70.5 159l30 172q1 8 9 14.5t16 6.5h35q11 0 18 -7t7 -17v-5 l-43 -248q-14 -82 -23 -174q-1 -9 -8 -16t-17 -7h-32q-8 0 -14 6t-6 14q0 23 6 73z" />
<glyph unicode="v" horiz-adv-x="425" d="M438 438l-227 -425q-7 -13 -22 -13h-48q-9 0 -16 6.5t-9 14.5l-76 424v5q0 10 7 17t18 7h36q8 0 16 -6t9 -14q38 -201 49 -345h8q14 35 70.5 151t103.5 201q7 13 22 13h37q11 0 18 -6.5t7 -16.5q0 -7 -3 -13z" />
<glyph unicode="w" horiz-adv-x="680" d="M354 361h-8q-60 -135 -164 -347q-6 -14 -22 -14h-54q-10 0 -17 6.5t-8 16.5l-36 424v2q0 11 7.5 18t17.5 7h34q10 0 17 -7t8 -16q16 -274 16 -343h7q58 145 166 353q6 13 22 13h46q9 0 16 -6.5t9 -14.5q31 -183 41 -345h7q35 105 138 351q6 15 23 15h40q11 0 18.5 -7 t7.5 -17q0 -5 -3 -11l-185 -424q-6 -15 -23 -15h-56q-19 0 -23 20q-42 271 -42 341z" />
<glyph unicode="x" horiz-adv-x="455" d="M443 432l-161 -178l123 -217q4 -7 4 -14q0 -10 -7 -16.5t-19 -6.5h-41q-16 0 -23 13l-93 174h-6l-156 -179q-8 -8 -19 -8h-39q-12 0 -19 7.5t-7 17.5t7 17l193 213l-102 182q-4 8 -4 13q0 10 7.5 17t18.5 7h42q15 0 22 -13q50 -95 70 -142h6l125 146q7 9 19 9h40 q12 0 19 -7.5t7 -17.5t-7 -17z" />
<glyph unicode="y" horiz-adv-x="430" d="M-59 -180l-1 11v6q0 22 16 26q106 32 148 114l20 40l-78 427v5q0 11 7 18t18 7h36q9 0 16 -6.5t9 -14.5q48 -295 48 -340h7q12 32 55 119l80 158l37 71q6 13 22 13h40q12 0 19 -6.5t7 -16.5q0 -7 -4 -14l-268 -484q-61 -112 -201 -157q-3 -1 -8 -1q-22 0 -25 25z" />
<glyph unicode="z" horiz-adv-x="436" d="M10 47l291 357h-196q-11 0 -18 7t-7 17v5l3 20q2 8 9 14.5t16 6.5h289q11 0 18 -7t7 -18v-5q0 -5 -2 -10q-2 -11 -11 -22l-281 -342h208q11 0 18 -7t7 -17v-5l-3 -20q-2 -8 -9 -14.5t-16 -6.5h-306q-11 0 -18 7t-7 18l1 4q0 11 7 18z" />
<glyph unicode="{" horiz-adv-x="284" d="M167 -142q13 -5 13 -19v-4q-2 -4 -2 -5l-8 -21q-6 -12 -24 -12h-5q-88 21 -88 115q0 23 4 43q1 7 15.5 65.5t15.5 64.5q3 15 3 30q0 71 -56 88q-13 5 -13 20v4l3 19q4 19 22 24q77 19 93 108l13 137q24 134 144 161q1 0 3 0.5t3 0.5q16 0 18 -19l1 -18q-4 -19 -21 -24 q-34 -11 -52.5 -36.5t-26.5 -72.5q-1 -7 -5.5 -59t-5.5 -58q-20 -110 -109 -150l-1 -4q62 -30 62 -105q0 -15 -3 -31q-1 -7 -16.5 -68l-16.5 -65q-4 -20 -4 -40q0 -53 44 -69z" />
<glyph unicode="|" horiz-adv-x="260" d="M142 -206l-23 -1q-11 0 -18 7.5t-7 17.5v837q0 11 7 18t18 7h22q11 0 18 -7t7 -18v-836q0 -10 -7 -17t-17 -8z" />
<glyph unicode="}" horiz-adv-x="285" d="M113 616q-13 5 -13 19v4q2 4 2 5l8 21q6 12 24 12h5q88 -21 88 -115q0 -23 -4 -43q-1 -7 -15.5 -65.5t-15.5 -64.5q-3 -15 -3 -30q0 -71 56 -88q13 -5 13 -20v-4l-3 -19q-4 -19 -22 -24q-77 -19 -93 -108l-13 -137q-24 -134 -144 -161q-1 0 -3 -0.5t-3 -0.5q-16 0 -18 19 l-1 18q4 19 21 24q34 11 52.5 36.5t26.5 72.5q1 7 5.5 59t5.5 58q20 110 109 150l1 4q-62 30 -62 105q0 15 3 31q1 7 16.5 68l16.5 65q4 20 4 40q0 53 -44 69z" />
<glyph unicode="~" horiz-adv-x="587" d="M434 234q-54 0 -160 51q-83 40 -117 40q-50 0 -57 -63q-1 -9 -8.5 -15.5t-16.5 -6.5h-19q-25 0 -25 28q8 59 41 94.5t82 35.5q31 0 61.5 -10t87.5 -37q93 -44 130 -44q48 0 54 62q1 10 8 16.5t17 6.5h18q11 0 18 -7.5t7 -19.5q-6 -66 -38 -98.5t-83 -32.5z" />
<glyph unicode="&#xa1;" horiz-adv-x="253" d="M126 282h6q11 0 18 -6.5t7 -17.5v-4l-62 -438q-4 -22 -25 -22h-38q-11 0 -18 6.5t-7 17.5q0 1 0.5 3t0.5 3l94 438q4 20 24 20zM166 482q23 0 36.5 -12t13.5 -32q0 -31 -19.5 -50.5t-49.5 -19.5q-23 0 -36.5 12.5t-13.5 32.5q0 31 20.5 50t48.5 19z" />
<glyph unicode="&#xa2;" horiz-adv-x="444" d="M388 168l2 -21q0 -17 -16 -23q-53 -20 -105 -27l-13 -75q-4 -22 -25 -22h-27q-11 0 -18 7t-7 17v5l12 71q-65 7 -102 56.5t-37 122.5q0 120 64.5 203t159.5 98l14 77q4 22 25 22h26q11 0 18 -7t7 -17v-5l-12 -68q49 -6 87 -22q16 -6 16 -23q0 -3 -2 -9l-11 -24 q-6 -16 -23 -16q-8 0 -11 2q-49 23 -98 23q-70 0 -120.5 -61.5t-50.5 -160.5q0 -59 29 -92t81 -33q48 0 103 21q8 2 11 2q20 0 23 -21z" />
<glyph unicode="&#xa3;" horiz-adv-x="539" d="M306 512l-46 -139h158q11 0 18 -7t7 -17v-5l-3 -20q-2 -8 -9 -14.5t-16 -6.5h-178l-78 -226h266q11 0 18 -7.5t7 -17.5l-5 -30q-1 -9 -8.5 -15.5t-16.5 -6.5h-383q-11 0 -18 7t-7 18l4 30q1 9 8.5 15.5t16.5 6.5h29l77 226h-57q-11 0 -18 7t-7 17v5l3 20q2 8 9 14.5 t16 6.5h76l48 146q28 84 95 126.5t149 42.5q46 0 79 -11q17 -5 17 -22q0 -4 -2 -10l-14 -31q-7 -16 -24 -16q-1 0 -3 0.5t-3 0.5q-30 8 -54 8q-47 0 -92 -26t-59 -69z" />
<glyph unicode="&#xa4;" horiz-adv-x="592" d="M478 152l39 -39q7 -7 7 -18t-7 -18l-14 -14q-8 -8 -18 -8t-18 8l-39 39q-60 -44 -134 -44q-76 0 -134 44l-39 -39q-8 -8 -18 -8t-18 8l-14 14q-8 8 -8 18t8 18l38 39q-44 60 -44 134t44 134l-38 39q-8 8 -8 18t8 18l14 14q7 7 18 7t18 -7l38 -38q61 43 135 43 q75 0 134 -43l39 38q7 7 18 7t18 -7l14 -14q7 -7 7 -18t-7 -18l-39 -39q44 -58 44 -134t-44 -134zM137 286q0 -65 46 -111t111 -46q64 0 110 46t46 111t-45.5 111t-110.5 46t-111 -46t-46 -111z" />
<glyph unicode="&#xa5;" horiz-adv-x="605" d="M324 384h7q39 64 200 284q8 12 23 12h45q21 0 21 -20v-4q-1 -6 -6 -14l-150 -203h66q20 0 20 -21v-4l-2 -8q-1 -10 -9.5 -17.5t-18.5 -7.5h-100l-45 -65l-10 -22h140q8 0 14 -6t6 -14q0 -1 -0.5 -2.5t-0.5 -2.5l-1 -8q-2 -11 -10 -18t-18 -7h-149l-37 -211 q-1 -10 -9.5 -17.5t-18.5 -7.5h-43q-8 0 -14 6t-6 14q0 1 0.5 2.5t0.5 2.5l37 211h-147q-20 0 -20 21v4l2 8q1 10 9.5 17.5t18.5 7.5h138l-1 22l-24 65h-98q-19 0 -19 21v4l1 8q2 11 10.5 18t18.5 7h66q-2 4 -15 36.5t-19 49.5l-45 117q-2 6 -2 8q0 1 0.5 3t0.5 3 q4 24 29 24h46q15 0 19 -12q80 -205 99 -284z" />
<glyph unicode="&#xa6;" horiz-adv-x="238" d="M83 337v317q0 10 7.5 17.5t17.5 7.5h21q11 0 18 -7.5t7 -17.5v-317q0 -11 -7 -18t-18 -7h-21q-10 0 -17.5 7t-7.5 18zM83 -181v316q0 11 7.5 18t17.5 7h21q11 0 18 -7t7 -18v-316q0 -11 -7 -18t-18 -7h-21q-10 0 -17.5 7t-7.5 18z" />
<glyph unicode="&#xa7;" horiz-adv-x="434" d="M321 141v-4q15 -33 15 -61q0 -80 -63.5 -135t-141.5 -55q-66 0 -115 30q-10 7 -10 20l2 9l11 23q9 19 25 19q6 0 10 -3q46 -24 88 -24q47 0 80.5 30.5t33.5 74.5q0 19 -13.5 36.5t-28.5 28t-45 27.5q-27 15 -42 25.5t-35 28.5t-29.5 40t-9.5 48q0 84 80 154l1 4 q-13 26 -13 54q0 8 2 24q11 65 66.5 109t122.5 44q47 0 103 -21q12 -5 12 -19v-4q0 -1 -1 -3t-1 -3l-11 -25q-8 -19 -26 -19q-5 0 -8 1q-49 19 -81 19q-28 0 -60 -23t-38 -56q-1 -4 -1 -12q0 -25 18.5 -43.5t58.5 -44.5q27 -17 41 -27.5t33.5 -30t28.5 -43t9 -53.5 q0 -68 -68 -140zM274 186q36 40 42 73q1 5 1 15q0 18 -6.5 32t-22.5 27.5t-26.5 20.5t-34.5 21q-34 20 -50 31q-36 -36 -43 -71q-2 -12 -2 -17q0 -18 7 -32t23.5 -28t30.5 -22.5l42 -24.5q25 -15 39 -25z" />
<glyph unicode="&#xa8;" horiz-adv-x="325" d="M269 611q4 20 20 34t37 14q16 0 26.5 -11t10.5 -28q0 -22 -17.5 -39t-39.5 -17q-17 0 -27.5 11t-10.5 28q0 5 1 8zM92 611q4 20 20 34t36 14q16 0 27 -11t11 -28q0 -22 -17 -39t-39 -17q-17 0 -28 11t-11 28q0 5 1 8z" />
<glyph unicode="&#xa9;" horiz-adv-x="779" d="M737 339q0 -144 -102 -245.5t-246 -101.5q-145 0 -246.5 101.5t-101.5 245.5q0 145 101.5 246.5t246.5 101.5q144 0 246 -101.5t102 -246.5zM681 339q0 121 -85.5 206.5t-206.5 85.5t-206.5 -85.5t-85.5 -206.5t85.5 -206.5t206.5 -85.5t206.5 85.5t85.5 206.5zM480 216 q8 3 14 3q15 0 19 -18l4 -14q0 -16 -17 -23q-54 -21 -107 -21q-81 0 -132.5 51t-51.5 145q0 95 51 145.5t133 50.5q59 0 107 -20q15 -6 15 -23q0 -2 -2 -12q-6 -18 -22 -18q-8 0 -12 2q-38 17 -82 17q-53 0 -87 -39t-34 -103t34 -103t87 -39q37 0 83 19z" />
<glyph unicode="&#xaa;" horiz-adv-x="367" d="M337 300q0 -2 -2 -4l-4 -10q-10 -20 -28 -20q-1 0 -2.5 0.5t-2.5 0.5q-26 6 -33 33q-50 -36 -94 -36q-49 0 -77.5 33t-28.5 87q0 77 48 138t120 61q40 0 73 -23q6 18 28 18h4q20 0 20 -21v-4l-38 -211v-4q0 -12 8 -22q9 -7 9 -16zM260 348l28 160q-29 23 -59 23 q-47 0 -73.5 -45.5t-26.5 -93.5q0 -36 16 -56.5t46 -20.5q40 0 69 33z" />
<glyph unicode="&#xab;" horiz-adv-x="579" d="M182 0h-39q-17 0 -23 16q-14 37 -84 208q-1 2 -1 8q0 12 4 16l163 216q6 10 20 10h30q12 0 19 -7t7 -17q0 -8 -6 -16l-149 -197l82 -203q2 -8 2 -11q0 -10 -7 -16.5t-18 -6.5zM466 0h-39q-17 0 -23 16l-85 208q-1 2 -1 8q0 12 4 16l164 216q6 10 20 10h30q12 0 19 -7 t7 -17q0 -8 -6 -16l-149 -197l82 -203q2 -8 2 -11q0 -10 -7 -16.5t-18 -6.5z" />
<glyph unicode="&#xac;" horiz-adv-x="595" d="M85 372h424q11 0 18 -7t7 -18v-184q0 -11 -7 -18t-18 -7h-21q-10 0 -17.5 7t-7.5 18v137h-378q-11 0 -18 7t-7 18v22q0 11 7 18t18 7z" />
<glyph unicode="&#xad;" horiz-adv-x="398" d="M346 244l-6 -28q-4 -20 -24 -20h-242q-11 0 -18 7t-7 17v5q1 7 3 16l2 10q1 10 8 16.5t17 6.5h243q11 0 18 -6.5t7 -17.5q0 -1 -0.5 -3t-0.5 -3z" />
<glyph unicode="&#xae;" horiz-adv-x="527" d="M483 466q0 -92 -65 -157t-157 -65q-91 0 -156.5 65t-65.5 157t65 157t157 65t157 -65t65 -157zM439 466q0 74 -52 126t-126 52q-73 0 -125.5 -52t-52.5 -126q0 -73 52.5 -125.5t125.5 -52.5q74 0 126 52t52 126zM249 472q25 0 39 12t14 32q0 18 -12 31.5t-38 13.5 q-19 0 -29 -2v-87h26zM355 360q2 -3 2 -10q0 -8 -5.5 -13.5t-14.5 -5.5h-5q-12 0 -18 12l-13 28l-8 18t-19 29.5t-27 18.5h-24v-92q0 -16 -23 -16q-20 0 -20 17v229q0 18 18 20q24 2 50 2q51 0 74 -23.5t23 -55.5q0 -20 -13.5 -39t-34.5 -27v-6q19 -7 49 -66l2 -5l4 -10z " />
<glyph unicode="&#xaf;" horiz-adv-x="332" d="M141 639h191q20 0 20 -21v-4l-2 -7q-1 -10 -9.5 -17.5t-18.5 -7.5h-191q-8 0 -14 6t-6 14q0 1 0.5 2.5t0.5 2.5l1 7q2 11 10 18t18 7z" />
<glyph unicode="&#xb0;" horiz-adv-x="365" d="M261 688q52 0 85 -34.5t33 -87.5q0 -70 -53 -123t-118 -53q-51 0 -84 34.5t-33 86.5q0 71 52 124t118 53zM218 446q41 0 74 33t33 77q0 33 -20.5 54.5t-53.5 21.5q-42 0 -74 -33.5t-32 -78.5q0 -32 20.5 -53t52.5 -21z" />
<glyph unicode="&#xb1;" horiz-adv-x="595" d="M534 308v-21q0 -11 -7 -18t-18 -7h-176v-116q0 -10 -7.5 -17.5t-17.5 -7.5h-21q-11 0 -18 7.5t-7 17.5v116h-177q-11 0 -18 7t-7 18v21q0 10 7 17.5t18 7.5h177v116q0 11 7 18t18 7h21q10 0 17.5 -7t7.5 -18v-116h176q11 0 18 -7.5t7 -17.5zM85 71h424q11 0 18 -7.5 t7 -17.5v-21q0 -11 -7 -18t-18 -7h-424q-11 0 -18 7t-7 18v21q0 10 7 17.5t18 7.5z" />
<glyph unicode="&#xb2;" horiz-adv-x="334" d="M317 779q0 23 -13.5 35.5t-35.5 12.5q-33 0 -83 -34q-7 -4 -13 -4q-15 0 -15 17l-2 20q3 10 13 18q69 39 111 39q48 0 76.5 -25t28.5 -69q0 -32 -23 -72t-43.5 -63t-54.5 -57l-76 -75h133q16 0 16 -16v-4l-3 -13q-1 -8 -7.5 -14t-14.5 -6h-208q-16 0 -16 16v4l2 9l13 22 l108 104l17 16.5l18.5 18l17 17.5t17.5 19.5t14.5 19.5t12.5 21.5t7 20.5t3 22z" />
<glyph unicode="&#xb3;" horiz-adv-x="363" d="M325 687l-1 -5q47 -24 47 -75q0 -63 -48 -103t-110 -40q-51 0 -100 29q-8 4 -8 17q0 1 0.5 2.5t0.5 2.5l8 17q6 16 21 16q6 0 9 -2q44 -26 74 -26q36 0 60.5 25t24.5 57q0 43 -76 47q-15 2 -15 17v3l3 17q4 18 20 20q34 6 61 28t27 52q0 18 -12 29t-33 11q-30 0 -79 -24 q-4 -2 -10 -2q-14 0 -16 16v18q2 14 14 19q62 30 104 30q47 0 75 -25.5t28 -65.5q0 -57 -69 -105z" />
<glyph unicode="&#xb4;" horiz-adv-x="339" d="M266 680h13q12 0 19 -7t7 -17q0 -8 -8 -18q-93 -95 -108 -95q-12 0 -19 7t-7 17q0 8 8 18l76 86q7 9 19 9z" />
<glyph unicode="&#xb5;" horiz-adv-x="499" d="M411 474h39q8 0 14 -6t6 -14q0 -1 -0.5 -2.5t-0.5 -2.5l-74 -424q-2 -11 -10.5 -18t-18.5 -7h-25q-8 0 -14 6t-6 14l2 27h-8q-66 -55 -138 -55q-49 0 -77 28l-28 -200q-6 -26 -29 -26h-38q-8 0 -14 6t-6 14q0 1 0.5 2.5t0.5 2.5l111 630q1 10 9.5 17.5t18.5 7.5h38 q20 0 20 -21v-4l-51 -287q-3 -15 -3 -28q0 -71 82 -71q64 0 114 57l58 329q1 10 9.5 17.5t18.5 7.5z" />
<glyph unicode="&#xb6;" horiz-adv-x="510" d="M544 651l-131 -740q-1 -8 -9 -14.5t-16 -6.5h-19q-11 0 -18 7t-7 17v5l123 694h-99l-125 -702q-1 -8 -9 -14.5t-16 -6.5h-19q-11 0 -18 7t-7 17v5l69 384q-70 0 -110.5 45t-40.5 109q0 88 66.5 155.5t149.5 67.5h211q11 0 18 -7t7 -17v-5z" />
<glyph unicode="&#xb7;" horiz-adv-x="539" d="M344 340q-4 -27 -23 -42.5t-45 -15.5q-22 0 -35 12t-13 33q0 31 20 50.5t49 19.5q23 0 35.5 -11.5t12.5 -31.5q0 -9 -1 -14z" />
<glyph unicode="&#xb8;" horiz-adv-x="342" d="M22 -183l3 3q7 15 18 15q1 0 2.5 -0.5t2.5 -0.5q17 -4 34 -4q16 0 31 9.5t18 23.5q0 22 -40 30q-13 1 -13 15v4q2 6 5 11l22 35q9 13 20 13h4q17 0 17 -15q-2 -9 -5 -14l-8 -14q26 -5 40 -20.5t14 -34.5q0 -43 -38 -65t-82 -22q-19 0 -36 5q-13 3 -13 13v2l1 2z" />
<glyph unicode="&#xb9;" horiz-adv-x="344" d="M320 856l-59 -336h69q15 0 15 -16v-4l-2 -13q-4 -20 -22 -20h-208q-15 0 -15 16v4l2 13q4 20 23 20h69l50 284q-60 -39 -77 -49q-4 -3 -9 -3q-10 0 -15 12q-2 6 -2 10q0 1 0.5 5t0.5 6q2 11 12 18l103 63q16 10 33 10h16q16 0 16 -16v-4z" />
<glyph unicode="&#xba;" horiz-adv-x="362" d="M240 584q54 0 88 -31.5t34 -89.5q0 -92 -53.5 -145.5t-124.5 -53.5q-54 0 -87 32t-33 90q0 90 54 144t122 54zM193 315q42 0 72.5 39t30.5 102q0 36 -17 56t-48 20q-40 0 -70.5 -38.5t-30.5 -101.5q0 -37 17 -57t46 -20z" />
<glyph unicode="&#xbb;" horiz-adv-x="573" d="M450 458l84 -208q1 -2 1 -8q0 -12 -4 -16l-163 -216q-6 -10 -20 -10h-30q-12 0 -19 7t-7 17q0 8 6 16l149 197l-82 203q-2 8 -2 11q0 10 7 16.5t18 6.5h39q17 0 23 -16zM167 458l84 -208q1 -2 1 -8q0 -12 -4 -16l-163 -216q-6 -10 -20 -10h-30q-12 0 -19 7t-7 17 q0 8 6 16l149 197l-82 203q-2 8 -2 11q0 10 7 16.5t18 6.5h39q17 0 23 -16z" />
<glyph unicode="&#xbc;" horiz-adv-x="783" d="M286 660l-59 -336h69q16 0 16 -16v-4l-3 -13q-1 -8 -7.5 -14t-14.5 -6h-207q-16 0 -16 16v4l3 13q4 20 22 20h70l50 284q-60 -39 -77 -49q-6 -3 -10 -3q-10 0 -15 12q-1 5 -1 21q2 10 12 18l103 63q14 10 34 10h16q15 0 15 -16v-4zM189 30l480 640q6 10 18 10h21 q17 0 17 -16q-1 -7 -6 -14l-480 -640q-8 -10 -18 -10h-21q-7 0 -12 5t-5 12q0 1 6 13zM680 154h22q16 0 16 -16v-4l-3 -13q-4 -20 -22 -20h-22l-14 -81q-4 -20 -23 -20h-26q-16 0 -16 16v4l14 81h-151q-15 0 -15 16v4l2 12q3 16 13 28l202 238q9 9 17 9h32q16 0 16 -16v-4z M645 313q-104 -127 -134 -160q19 1 32 1h73l20 116z" />
<glyph unicode="&#xbd;" horiz-adv-x="840" d="M285 660l-60 -336h70q15 0 15 -16v-4l-2 -13q-4 -20 -23 -20h-207q-15 0 -15 16v4l2 13q4 20 23 20h69l50 284q-60 -39 -77 -49q-4 -3 -9 -3q-10 0 -15 12q-2 6 -2 10q0 2 0.5 5t0.5 4q2 13 12 20l103 63q18 10 33 10h16q16 0 16 -16v-4zM221 0h-22q-17 0 -17 19 q1 5 6 11l268 357l212 283q8 10 18 10h22q17 0 17 -19q-1 -5 -6 -11l-257 -343l-223 -297q-6 -10 -18 -10zM633 155q98 96 105 141q1 5 1 14q0 23 -13.5 35.5t-35.5 12.5q-31 0 -83 -34q-5 -4 -13 -4q-15 0 -15 17l-1 20q1 10 13 18q69 39 111 39q47 0 76 -25.5t29 -69.5 q0 -6 -2 -24q-11 -58 -132 -179l-63 -63h133q15 0 15 -16v-4l-2 -13q-4 -20 -22 -20h-209q-15 0 -15 16v4l2 9q0 4 3.5 9.5t6.5 9.5l3 3z" />
<glyph unicode="&#xbe;" horiz-adv-x="744" d="M301 492l-1 -5q48 -24 48 -77q0 -5 -2 -19q-10 -55 -53 -88.5t-103 -33.5q-51 0 -101 29q-7 4 -7 16q0 1 0.5 3t0.5 3l8 17q5 16 20 16q7 0 10 -2q42 -26 74 -26q30 0 54.5 19t29.5 50q1 4 1 13q0 43 -77 47q-14 2 -14 17l3 20q1 7 7 13t12 7q38 6 61 27.5t27 42.5 q1 3 1 10q0 40 -46 40q-28 0 -79 -24q-3 -2 -10 -2q-15 0 -15 16l-1 18q4 14 14 19q63 30 104 30q47 0 75.5 -25.5t28.5 -65.5q0 -5 -2 -19q-8 -46 -68 -86zM174 30l481 639q8 10 18 10h21q17 0 17 -16q-1 -7 -6 -14l-479 -639q-8 -10 -18 -10h-23q-7 0 -12 5t-5 12 q0 1 6 13zM665 154h22q16 0 16 -16v-4l-3 -13q-4 -20 -22 -20h-22l-14 -81q-4 -20 -23 -20h-26q-16 0 -16 16v4l14 81h-151q-15 0 -15 16v4l2 12q3 16 13 28l202 238q9 9 17 9h32q16 0 16 -18zM630 313q-104 -127 -134 -160q19 1 32 1h73l20 116z" />
<glyph unicode="&#xbf;" horiz-adv-x="537" d="M364 482q23 0 36.5 -12t13.5 -32q0 -31 -19.5 -50.5t-49.5 -19.5q-23 0 -36.5 12.5t-13.5 32.5q0 31 20.5 50t48.5 19zM230 -214q-75 0 -112.5 32.5t-37.5 84.5q0 37 19.5 75t38 59t56.5 59l11 11q41 41 63.5 74t32.5 81q5 20 24 20h11q11 0 18 -7t7 -17v-5 q-15 -99 -84 -169q-39 -40 -56 -59t-32.5 -48t-15.5 -57q0 -63 90 -63q37 0 73 14q3 1 8 1q20 0 24 -21q1 -6 1 -19q0 -17 -16 -23q-58 -23 -123 -23z" />
<glyph unicode="&#xc0;" horiz-adv-x="604" d="M151 167l-79 -153q-2 -5 -9.5 -9.5t-12.5 -4.5h-44q-11 0 -18.5 7t-7.5 17q0 5 4 13l343 630q7 13 22 13h54q8 0 16 -6t9 -14l122 -630v-5q0 -11 -7 -18t-18 -7h-43q-8 0 -16 6.5t-9 14.5l-26 146h-280zM194 245h226q-1 0 -11.5 66l-23 148.5t-16.5 119.5h-9 q-26 -61 -166 -334zM379 759l-61 85q-6 8 -6 17q0 10 7 16.5t18 6.5h22q13 0 25 -22l42 -78q4 -7 4 -15q0 -9 -6.5 -15.5t-17.5 -6.5h-8q-12 0 -19 12z" />
<glyph unicode="&#xc1;" horiz-adv-x="604" d="M72 14l79 153h280l26 -146q1 -8 9 -14.5t16 -6.5h43q11 0 18 7t7 18v5l-122 630q-1 8 -9 14t-16 6h-54q-15 0 -22 -13l-343 -630q-4 -8 -4 -13q0 -10 7.5 -17t18.5 -7h44q5 0 12.5 4.5t9.5 9.5zM420 245h-226q140 273 166 334h9q4 -37 16.5 -119.5l23 -148.5t11.5 -66z M452 885h13q12 0 19 -7t7 -17q0 -8 -8 -18q-93 -95 -108 -95q-12 0 -19 7t-7 17q0 8 8 18l76 86q7 9 19 9z" />
<glyph unicode="&#xc2;" horiz-adv-x="604" d="M151 167l-79 -153q-2 -5 -9.5 -9.5t-12.5 -4.5h-44q-11 0 -18.5 7t-7.5 17q0 5 4 13l343 630q7 13 22 13h54q8 0 16 -6t9 -14l122 -630v-5q0 -11 -7 -18t-18 -7h-43q-8 0 -16 6.5t-9 14.5l-26 146h-280zM194 245h226q-1 0 -11.5 66l-23 148.5t-16.5 119.5h-9 q-26 -61 -166 -334zM385 884h42q5 0 11 -3.5t7 -7.5l43 -87q2 -8 2 -11v-4q-2 -10 -10 -17t-19 -7h-11q-4 0 -10.5 3.5t-7.5 7.5l-34 79l-61 -78q-8 -12 -22 -12h-11q-21 0 -21 19q0 1 0.5 2.5t0.5 2.5q2 10 8 16l36.5 44l36.5 43q7 10 20 10z" />
<glyph unicode="&#xc3;" horiz-adv-x="604" d="M72 14l79 153h280l26 -146q1 -8 9 -14.5t16 -6.5h43q11 0 18 7t7 18v5l-122 630q-1 8 -9 14t-16 6h-54q-15 0 -22 -13l-343 -630q-4 -8 -4 -13q0 -10 7.5 -17t18.5 -7h44q5 0 12.5 4.5t9.5 9.5zM420 245h-226q140 273 166 334h9q4 -37 16.5 -119.5l23 -148.5t11.5 -66z M344 864q24 0 58 -20t48 -24q11 3 27 27q5 11 19 11q10 0 19 -7t9 -17q0 -2 -2 -8q-24 -60 -77 -60q-20 0 -57.5 22t-47.5 22q-12 0 -25 -25q-6 -12 -20 -12q-10 0 -18.5 6.5t-8.5 16.5q0 5 1 8q23 60 75 60z" />
<glyph unicode="&#xc4;" horiz-adv-x="604" d="M72 14l79 153h280l26 -146q1 -8 9 -14.5t16 -6.5h43q11 0 18 7t7 18v5l-122 630q-1 8 -9 14t-16 6h-54q-15 0 -22 -13l-343 -630q-4 -8 -4 -13q0 -10 7.5 -17t18.5 -7h44q5 0 12.5 4.5t9.5 9.5zM420 245h-226q140 273 166 334h9q4 -37 16.5 -119.5l23 -148.5t11.5 -66z M437 813q4 20 20 34t37 14q16 0 26.5 -11t10.5 -28q0 -22 -17.5 -39t-39.5 -17q-17 0 -27.5 11t-10.5 28q0 5 1 8zM260 813q4 20 20 34t36 14q16 0 27 -11t11 -28q0 -22 -17 -39t-39 -17q-17 0 -28 11t-11 28q0 5 1 8z" />
<glyph unicode="&#xc5;" horiz-adv-x="604" d="M72 14l79 153h280l26 -146q1 -8 9 -14.5t16 -6.5h43q11 0 18 7t7 18v5l-122 630q-1 8 -9 14t-16 6h-54q-15 0 -22 -13l-343 -630q-4 -8 -4 -13q0 -10 7.5 -17t18.5 -7h44q5 0 12.5 4.5t9.5 9.5zM420 245h-226q140 273 166 334h9q4 -37 16.5 -119.5l23 -148.5t11.5 -66z M411 907q35 0 57 -22t22 -54q0 -43 -34 -75t-78 -32q-34 0 -56.5 22t-22.5 55q0 41 35 73.5t77 32.5zM385 764q24 0 42.5 18t18.5 42q0 18 -12 30t-31 12q-22 0 -40 -18t-18 -42q0 -18 11.5 -30t28.5 -12z" />
<glyph unicode="&#xc6;" horiz-adv-x="824" d="M567 602l-38 -209h218q10 0 18 -6.5t8 -16.5q0 -1 -0.5 -2.5t-0.5 -2.5l-5 -23q-4 -25 -25 -25h-227l-42 -239h254q11 0 18 -7t7 -17v-5l-5 -27q-2 -22 -25 -22h-324q-11 0 -18 7t-7 17v5l25 140h-219l-109 -158q-7 -11 -21 -11h-36q-12 0 -19 7t-7 17q0 8 6 16l454 630 q6 10 20 10h361q11 0 18 -7t7 -17v-5l-5 -27q-2 -22 -25 -22h-256zM235 245h176l60 334h-10q-19 -31 -75.5 -114.5l-103.5 -151.5z" />
<glyph unicode="&#xc7;" horiz-adv-x="588" d="M628 614l-18 -38q-8 -14 -22 -14q-8 0 -13 4q-64 40 -136 40q-119 0 -205 -95.5t-86 -228.5q0 -93 53 -150.5t145 -57.5q71 0 146 37q6 3 13 3q20 0 23 -21l4 -29q0 -18 -14 -26q-99 -46 -190 -46q-119 0 -198 77t-79 196q0 92 33 172t88.5 134.5t128 85.5t150.5 31 q89 0 165 -43q14 -9 14 -22q0 -3 -2 -9zM198 -178l3 3q7 15 18 15q1 0 2.5 -0.5t2.5 -0.5q17 -4 34 -4q16 0 31 9.5t18 23.5q0 22 -40 30q-13 1 -13 15v4q2 7 5 11l22 35q9 13 20 13h4q17 0 17 -15q-2 -9 -5 -14l-8 -14q26 -5 40 -20.5t14 -34.5q0 -43 -38 -65t-82 -22 q-19 0 -36 5q-13 3 -13 13q0 1 0.5 2t0.5 2z" />
<glyph unicode="&#xc8;" horiz-adv-x="490" d="M417 49l-5 -27q-2 -22 -25 -22h-322q-11 0 -18 7t-7 17v5l111 630q1 8 9 14.5t16 6.5h318q11 0 18 -7t7 -17v-5l-4 -27q-2 -22 -25 -22h-257q-7 -41 -19.5 -107t-18.5 -102h219q11 0 18 -7t7 -17v-5l-5 -25q-1 -10 -8 -17t-17 -7h-228l-42 -237h253q11 0 18 -7t7 -17v-5z M366 758l-61 85q-6 7 -6 17t7 16.5t18 6.5h22q13 0 25 -22l42 -78q4 -7 4 -15q0 -9 -6.5 -15.5t-17.5 -6.5h-8q-12 0 -19 12z" />
<glyph unicode="&#xc9;" horiz-adv-x="490" d="M412 22l5 27v5q0 10 -7 17t-18 7h-253l42 237h228q10 0 17 7t8 17l5 25v5q0 10 -7 17t-18 7h-219q6 36 18.5 102t19.5 107h257q23 0 25 22l4 27v5q0 10 -7 17t-18 7h-318q-8 0 -16 -6.5t-9 -14.5l-111 -630v-5q0 -10 7 -17t18 -7h322q23 0 25 22zM395 883h13q12 0 19 -7 t7 -17q0 -8 -8 -18q-93 -95 -108 -95q-12 0 -19 7t-7 17q0 8 8 18l76 86q7 9 19 9z" />
<glyph unicode="&#xca;" horiz-adv-x="490" d="M417 49l-5 -27q-2 -22 -25 -22h-322q-11 0 -18 7t-7 17v5l111 630q1 8 9 14.5t16 6.5h318q11 0 18 -7t7 -17v-5l-4 -27q-2 -22 -25 -22h-257q-7 -41 -19.5 -107t-18.5 -102h219q11 0 18 -7t7 -17v-5l-5 -25q-1 -10 -8 -17t-17 -7h-228l-42 -237h253q11 0 18 -7t7 -17v-5z M348 884h42q5 0 11 -3.5t7 -7.5l43 -87q2 -8 2 -11v-4q-2 -10 -10 -17t-19 -7h-11q-4 0 -10.5 3.5t-7.5 7.5l-34 79l-61 -78q-8 -12 -22 -12h-11q-21 0 -21 19q0 1 0.5 2.5t0.5 2.5q2 10 8 16l36.5 44l36.5 43q8 10 20 10z" />
<glyph unicode="&#xcb;" horiz-adv-x="490" d="M412 22l5 27v5q0 10 -7 17t-18 7h-253l42 237h228q10 0 17 7t8 17l5 25v5q0 10 -7 17t-18 7h-219q6 36 18.5 102t19.5 107h257q23 0 25 22l4 27v5q0 10 -7 17t-18 7h-318q-8 0 -16 -6.5t-9 -14.5l-111 -630v-5q0 -10 7 -17t18 -7h322q23 0 25 22zM399 814q4 20 20 34 t37 14q16 0 26.5 -11t10.5 -28q0 -22 -17.5 -39t-39.5 -17q-17 0 -27.5 11t-10.5 28q0 5 1 8zM222 814q4 20 20 34t36 14q16 0 27 -11t11 -28q0 -22 -17 -39t-39 -17q-17 0 -28 11t-11 28q0 5 1 8z" />
<glyph unicode="&#xcc;" horiz-adv-x="391" d="M14 25l3 25q1 9 8.5 15t16.5 6h78l95 537h-69q-11 0 -18 7t-7 18v4l4 22q1 9 8.5 15t16.5 6h237q11 0 18 -7t7 -18v-4l-4 -22q-4 -21 -25 -21h-77l-95 -537h69q11 0 18 -7t7 -18v-4l-4 -21q-1 -9 -8.5 -15t-16.5 -6h-237q-11 0 -18 7t-7 18zM281 759l-61 85q-6 8 -6 17 q0 10 7 16.5t18 6.5h22q13 0 25 -22l42 -78q4 -7 4 -15q0 -9 -6.5 -15.5t-17.5 -6.5h-8q-12 0 -19 12z" />
<glyph unicode="&#xcd;" horiz-adv-x="391" d="M17 50l-3 -25q0 -11 7 -18t18 -7h237q9 0 16.5 6t8.5 15l4 21v4q0 11 -7 18t-18 7h-69l95 537h77q21 0 25 21l4 22v4q0 11 -7 18t-18 7h-237q-9 0 -16.5 -6t-8.5 -15l-4 -22v-4q0 -11 7 -18t18 -7h69l-95 -537h-78q-9 0 -16.5 -6t-8.5 -15zM347 884h13q12 0 19 -7t7 -17 q0 -8 -8 -18q-93 -95 -108 -95q-12 0 -19 7t-7 17q0 8 8 18l76 86q7 9 19 9z" />
<glyph unicode="&#xce;" horiz-adv-x="391" d="M14 25l3 25q1 9 8.5 15t16.5 6h78l95 537h-69q-11 0 -18 7t-7 18v4l4 22q1 9 8.5 15t16.5 6h237q11 0 18 -7t7 -18v-4l-4 -22q-4 -21 -25 -21h-77l-95 -537h69q11 0 18 -7t7 -18v-4l-4 -21q-1 -9 -8.5 -15t-16.5 -6h-237q-11 0 -18 7t-7 18zM286 885h42q5 0 11 -3.5 t7 -7.5l43 -87q2 -8 2 -11v-4q-2 -10 -10 -17t-19 -7h-11q-4 0 -10.5 3.5t-7.5 7.5l-34 79l-61 -78q-8 -12 -22 -12h-11q-21 0 -21 19q0 1 0.5 2.5t0.5 2.5q2 10 8 16l36.5 44l36.5 43q8 10 20 10z" />
<glyph unicode="&#xcf;" horiz-adv-x="391" d="M17 50l-3 -25q0 -11 7 -18t18 -7h237q9 0 16.5 6t8.5 15l4 21v4q0 11 -7 18t-18 7h-69l95 537h77q21 0 25 21l4 22v4q0 11 -7 18t-18 7h-237q-9 0 -16.5 -6t-8.5 -15l-4 -22v-4q0 -11 7 -18t18 -7h69l-95 -537h-78q-9 0 -16.5 -6t-8.5 -15zM336 815q4 20 20 34t37 14 q16 0 26.5 -11t10.5 -28q0 -22 -17.5 -39t-39.5 -17q-17 0 -27.5 11t-10.5 28q0 5 1 8zM159 815q4 20 20 34t36 14q16 0 27 -11t11 -28q0 -22 -17 -39t-39 -17q-17 0 -28 11t-11 28q0 5 1 8z" />
<glyph unicode="&#xd0;" horiz-adv-x="684" d="M36 341l5 27q1 9 8.5 15.5t16.5 6.5h46l47 271q1 7 8 13.5t15 7.5q74 6 158 6q161 0 240 -74.5t79 -198.5q0 -116 -50 -210.5t-152.5 -153.5t-241.5 -59q-86 0 -144 5q-23 2 -23 25v4l51 286h-38q-11 0 -18 7t-7 17v5zM191 312l-42 -237q80 -4 97 -4q138 0 227.5 90 t89.5 245q0 98 -58 150.5t-164 52.5q-47 0 -99 -5l-38 -214h43q11 0 18 -7t7 -17v-5l-5 -27q-2 -22 -25 -22h-51z" />
<glyph unicode="&#xd1;" horiz-adv-x="688" d="M571 21l111 630v5q0 10 -7 17t-18 7h-36q-8 0 -16 -6.5t-9 -14.5l-70 -399q-16 -91 -18 -119h-5l-242 524q-6 15 -23 15h-62q-8 0 -16 -6.5t-9 -14.5l-110 -630v-5q0 -10 7 -17t18 -7h35q9 0 16 6.5t9 14.5l71 399q15 87 17 121h6l31 -68l215 -459q6 -14 23 -14h57 q8 0 16 6.5t9 14.5zM382 866q24 0 58 -20t48 -24q11 3 27 27q5 11 19 11q10 0 19 -7t9 -17q0 -2 -2 -8q-24 -60 -77 -60q-20 0 -57.5 22t-47.5 22q-12 0 -25 -25q-6 -12 -20 -12q-10 0 -18.5 6.5t-8.5 16.5q0 5 1 8q23 60 75 60z" />
<glyph unicode="&#xd2;" d="M328 74q115 0 194.5 95t79.5 239q0 91 -47.5 144.5t-133.5 53.5q-114 0 -194 -95.5t-80 -238.5q0 -92 48 -145t133 -53zM436 688q118 0 190 -78.5t72 -192.5q0 -175 -110.5 -300t-274.5 -125q-118 0 -190 77.5t-72 191.5q0 173 111 300t274 127zM419 760l-61 85 q-6 7 -6 17t7 16.5t18 6.5h22q13 0 25 -22l42 -78q4 -7 4 -15q0 -9 -6.5 -15.5t-17.5 -6.5h-8q-12 0 -19 12z" />
<glyph unicode="&#xd3;" d="M328 74q115 0 194.5 95t79.5 239q0 91 -47.5 144.5t-133.5 53.5q-114 0 -194 -95.5t-80 -238.5q0 -92 48 -145t133 -53zM436 688q118 0 190 -78.5t72 -192.5q0 -175 -110.5 -300t-274.5 -125q-118 0 -190 77.5t-72 191.5q0 173 111 300t274 127zM516 884h13q12 0 19 -7 t7 -17q0 -8 -8 -18q-93 -95 -108 -95q-12 0 -19 7t-7 17q0 8 8 18l76 86q7 9 19 9z" />
<glyph unicode="&#xd4;" d="M328 74q115 0 194.5 95t79.5 239q0 91 -47.5 144.5t-133.5 53.5q-114 0 -194 -95.5t-80 -238.5q0 -92 48 -145t133 -53zM436 688q118 0 190 -78.5t72 -192.5q0 -175 -110.5 -300t-274.5 -125q-118 0 -190 77.5t-72 191.5q0 173 111 300t274 127zM439 884h42q5 0 11 -3.5 t7 -7.5l43 -87q2 -8 2 -11v-4q-2 -10 -10 -17t-19 -7h-11q-4 0 -10.5 3.5t-7.5 7.5l-34 79l-61 -78q-8 -12 -22 -12h-11q-21 0 -21 19q0 1 0.5 2.5t0.5 2.5q2 10 8 16l36.5 44l36.5 43q7 10 20 10z" />
<glyph unicode="&#xd5;" d="M328 74q115 0 194.5 95t79.5 239q0 91 -47.5 144.5t-133.5 53.5q-114 0 -194 -95.5t-80 -238.5q0 -92 48 -145t133 -53zM436 688q118 0 190 -78.5t72 -192.5q0 -175 -110.5 -300t-274.5 -125q-118 0 -190 77.5t-72 191.5q0 173 111 300t274 127zM398 865q24 0 58 -20 t48 -24q11 3 27 27q5 11 19 11q10 0 19 -7t9 -17q0 -2 -2 -8q-24 -60 -77 -60q-20 0 -57.5 22t-47.5 22q-12 0 -25 -25q-6 -12 -20 -12q-10 0 -18.5 6.5t-8.5 16.5q0 5 1 8q23 60 75 60z" />
<glyph unicode="&#xd6;" d="M328 74q115 0 194.5 95t79.5 239q0 91 -47.5 144.5t-133.5 53.5q-114 0 -194 -95.5t-80 -238.5q0 -92 48 -145t133 -53zM436 688q118 0 190 -78.5t72 -192.5q0 -175 -110.5 -300t-274.5 -125q-118 0 -190 77.5t-72 191.5q0 173 111 300t274 127zM491 811q4 20 20 34 t37 14q16 0 26.5 -11t10.5 -28q0 -22 -17.5 -39t-39.5 -17q-17 0 -27.5 11t-10.5 28q0 5 1 8zM314 811q4 20 20 34t36 14q16 0 27 -11t11 -28q0 -22 -17 -39t-39 -17q-17 0 -28 11t-11 28q0 5 1 8z" />
<glyph unicode="&#xd7;" horiz-adv-x="592" d="M509 453l10 -10q11 -9 11 -21q0 -9 -8 -17l-169 -168l169 -169q7 -7 7 -18t-7 -18l-14 -14q-8 -8 -18 -8t-18 8l-170 168l-169 -168q-8 -8 -18 -8t-18 8l-14 14q-7 7 -7 17q0 11 8 19l169 169l-171 169q-7 7 -7 17q0 9 6 16l14 15q9 10 20 10q10 0 17 -7l170 -170 l170 168q7 7 17 7q13 0 20 -9z" />
<glyph unicode="&#xd8;" d="M669 677l-44 -59q73 -69 73 -200q0 -176 -110.5 -301t-274.5 -125q-80 0 -138 33l-45 -59q-8 -10 -19 -10q-5 0 -10 3l-17 10q-8 5 -8 17q0 9 5 16l44 59q-74 80 -74 203q0 112 49.5 209t138.5 156t197 59q77 0 139 -33l44 58q9 11 20 11q3 0 8 -3l13 -7q15 -9 15 -22 q0 -7 -6 -15zM187 145l333 436q-49 25 -99 25q-83 0 -147.5 -52t-95.5 -125.5t-31 -150.5q0 -81 40 -133zM602 405q0 76 -39 131l-332 -437q46 -25 97 -25q115 0 194.5 94.5t79.5 236.5z" />
<glyph unicode="&#xd9;" horiz-adv-x="679" d="M608 680h40q11 0 18 -7t7 -17v-5l-74 -423q-18 -104 -106 -170t-197 -66q-93 0 -158.5 57t-65.5 139q0 26 3 41l76 430q1 8 9 14.5t16 6.5h40q11 0 18 -7t7 -17v-5l-74 -423q-3 -14 -3 -27q0 -56 41 -91.5t106 -35.5q71 0 128 44t69 110l75 431q1 8 9 14.5t16 6.5z M409 759l-61 85q-6 8 -6 17q0 10 7 16.5t18 6.5h22q13 0 25 -22l42 -78q4 -7 4 -15q0 -9 -6.5 -15.5t-17.5 -6.5h-8q-12 0 -19 12z" />
<glyph unicode="&#xda;" horiz-adv-x="679" d="M648 680h-40q-8 0 -16 -6.5t-9 -14.5l-75 -431q-12 -66 -69 -110t-128 -44q-65 0 -106 35.5t-41 91.5q0 14 3 27l74 423v5q0 10 -7 17t-18 7h-40q-8 0 -16 -6.5t-9 -14.5l-76 -430q-3 -15 -3 -41q0 -82 65.5 -139t158.5 -57q109 0 197 66t106 170l74 423v5q0 10 -7 17 t-18 7zM494 885h13q12 0 19 -7t7 -17q0 -8 -8 -18q-93 -95 -108 -95q-12 0 -19 7t-7 17q0 8 8 18l76 86q7 9 19 9z" />
<glyph unicode="&#xdb;" horiz-adv-x="679" d="M608 680h40q11 0 18 -7t7 -17v-5l-74 -423q-18 -104 -106 -170t-197 -66q-93 0 -158.5 57t-65.5 139q0 26 3 41l76 430q1 8 9 14.5t16 6.5h40q11 0 18 -7t7 -17v-5l-74 -423q-3 -14 -3 -27q0 -56 41 -91.5t106 -35.5q71 0 128 44t69 110l75 431q1 8 9 14.5t16 6.5z M421 884h42q5 0 11 -3.5t7 -7.5l43 -87q2 -8 2 -11v-4q-2 -10 -10 -17t-19 -7h-11q-4 0 -10.5 3.5t-7.5 7.5l-34 79l-61 -78q-8 -12 -22 -12h-11q-21 0 -21 19q0 1 0.5 2.5t0.5 2.5q2 10 8 16l36.5 44l36.5 43q7 10 20 10z" />
<glyph unicode="&#xdc;" horiz-adv-x="679" d="M648 680h-40q-8 0 -16 -6.5t-9 -14.5l-75 -431q-12 -66 -69 -110t-128 -44q-65 0 -106 35.5t-41 91.5q0 14 3 27l74 423v5q0 10 -7 17t-18 7h-40q-8 0 -16 -6.5t-9 -14.5l-76 -430q-3 -15 -3 -41q0 -82 65.5 -139t158.5 -57q109 0 197 66t106 170l74 423v5q0 10 -7 17 t-18 7zM475 810q4 20 20 34t37 14q16 0 26.5 -11t10.5 -28q0 -22 -17.5 -39t-39.5 -17q-17 0 -27.5 11t-10.5 28q0 5 1 8zM298 810q4 20 20 34t36 14q16 0 27 -11t11 -28q0 -22 -17 -39t-39 -17q-17 0 -28 11t-11 28q0 5 1 8z" />
<glyph unicode="&#xdd;" horiz-adv-x="547" d="M100 646l136 -353l-46 -264v-5q0 -10 7 -17t18 -7h40q8 0 16 6.5t9 14.5l47 271l255 348q6 8 6 16q0 10 -7 17t-19 7h-45q-14 0 -20 -10q-154 -208 -202 -285h-7q-7 53 -97 277q-7 18 -27 18h-41q-11 0 -18 -7t-7 -17q0 -2 2 -10zM421 881h13q12 0 19 -7t7 -17 q0 -8 -8 -18q-93 -95 -108 -95q-12 0 -19 7t-7 17q0 8 8 18l76 86q7 9 19 9z" />
<glyph unicode="&#xde;" horiz-adv-x="548" d="M48 29l110 629q1 8 9 14.5t16 6.5h40q11 0 18 -7t7 -17v-5l-17 -96q48 2 73 2q113 0 164.5 -48t51.5 -125q0 -66 -24 -118.5t-64 -82.5t-87 -45.5t-97 -15.5h-93l-18 -100q-1 -8 -9 -14.5t-16 -6.5h-39q-11 0 -18 7t-7 17v5zM217 472l-48 -272h97q65 0 112 48t47 122 q0 47 -29.5 77t-95.5 30q-26 0 -79 -5h-4z" />
<glyph unicode="&#xdf;" horiz-adv-x="571" d="M206 522l-88 -501q-1 -8 -9 -14.5t-16 -6.5h-35q-11 0 -18 7t-7 17v5l86 493q15 84 76 125t147 41q69 0 122 -38t53 -102q0 -44 -31 -78.5t-68 -52t-68 -38t-31 -38.5q0 -14 20 -28t49 -28t58 -30t49 -41t20 -55q0 -7 -2 -23q-12 -70 -64.5 -107t-122.5 -37 q-68 0 -128 26q-15 7 -15 23q0 5 3 11l14 26q6 14 22 14q6 0 12 -3q50 -26 98 -26q36 0 63.5 19.5t27.5 57.5q0 41 -64 68q-34 14 -52.5 23.5t-39.5 24t-30 31t-9 37.5q0 28 20.5 52t50 41t59.5 32.5t53 34.5t27 39q1 5 1 15q0 40 -32.5 64t-75.5 24q-107 0 -125 -104z" />
<glyph unicode="&#xe0;" horiz-adv-x="515" d="M428 5l-23 -7q-2 -1 -7 -1q-22 0 -25 21q-4 28 -6 83h-5q-28 -54 -74.5 -81.5t-91.5 -27.5q-73 0 -118 47t-45 135q0 73 23.5 133.5t61 97.5t81.5 57t88 20q88 0 176 -55q12 -7 12 -21v-4q-36 -191 -36 -286q0 -44 7 -83v-4q0 -17 -18 -24zM388 381q-46 31 -104 31 q-57 0 -109 -60.5t-52 -166.5q0 -59 26 -90.5t68 -31.5q48 0 87.5 50.5t60 122t23.5 145.5zM298 555l-61 85q-6 8 -6 17q0 10 7 16.5t18 6.5h22q13 0 25 -22l42 -78q4 -7 4 -15q0 -9 -6.5 -15.5t-17.5 -6.5h-8q-12 0 -19 12z" />
<glyph unicode="&#xe1;" horiz-adv-x="515" d="M405 -2l23 7q18 7 18 24v4q-7 39 -7 83q0 95 36 286v4q0 14 -12 21q-88 55 -176 55q-44 0 -88 -20t-81.5 -57t-61 -97.5t-23.5 -133.5q0 -88 45 -135t118 -47q45 0 91.5 27.5t74.5 81.5h5q2 -55 6 -83q3 -21 25 -21q5 0 7 1zM388 381q-3 -74 -23.5 -145.5t-60 -122 t-87.5 -50.5q-42 0 -68 31.5t-26 90.5q0 106 52 166.5t109 60.5q58 0 104 -31zM366 680h13q12 0 19 -7t7 -17q0 -8 -8 -18q-93 -95 -108 -95q-12 0 -19 7t-7 17q0 8 8 18l76 86q7 9 19 9z" />
<glyph unicode="&#xe2;" horiz-adv-x="515" d="M428 5l-23 -7q-2 -1 -7 -1q-22 0 -25 21q-4 28 -6 83h-5q-28 -54 -74.5 -81.5t-91.5 -27.5q-73 0 -118 47t-45 135q0 73 23.5 133.5t61 97.5t81.5 57t88 20q88 0 176 -55q12 -7 12 -21v-4q-36 -191 -36 -286q0 -44 7 -83v-4q0 -17 -18 -24zM388 381q-46 31 -104 31 q-57 0 -109 -60.5t-52 -166.5q0 -59 26 -90.5t68 -31.5q48 0 87.5 50.5t60 122t23.5 145.5zM306 680h42q5 0 11 -3.5t7 -7.5l43 -87q2 -8 2 -11v-4q-2 -10 -10 -17t-19 -7h-11q-4 0 -10.5 3.5t-7.5 7.5l-34 79l-61 -78q-8 -12 -22 -12h-11q-21 0 -21 19q0 1 0.5 2.5t0.5 2.5 q2 10 8 16l36.5 44l36.5 43q8 10 20 10z" />
<glyph unicode="&#xe3;" horiz-adv-x="515" d="M405 -2l23 7q18 7 18 24v4q-7 39 -7 83q0 95 36 286v4q0 14 -12 21q-88 55 -176 55q-44 0 -88 -20t-81.5 -57t-61 -97.5t-23.5 -133.5q0 -88 45 -135t118 -47q45 0 91.5 27.5t74.5 81.5h5q2 -55 6 -83q3 -21 25 -21q5 0 7 1zM388 381q-3 -74 -23.5 -145.5t-60 -122 t-87.5 -50.5q-42 0 -68 31.5t-26 90.5q0 106 52 166.5t109 60.5q58 0 104 -31zM266 661q24 0 58 -20t48 -24q11 3 27 27q5 11 19 11q10 0 19 -7t9 -17q0 -2 -2 -8q-24 -60 -77 -60q-20 0 -57.5 22t-47.5 22q-12 0 -25 -25q-6 -12 -20 -12q-10 0 -18.5 6.5t-8.5 16.5q0 5 1 8 q23 60 75 60z" />
<glyph unicode="&#xe4;" horiz-adv-x="515" d="M405 -2l23 7q18 7 18 24v4q-7 39 -7 83q0 95 36 286v4q0 14 -12 21q-88 55 -176 55q-44 0 -88 -20t-81.5 -57t-61 -97.5t-23.5 -133.5q0 -88 45 -135t118 -47q45 0 91.5 27.5t74.5 81.5h5q2 -55 6 -83q3 -21 25 -21q5 0 7 1zM388 381q-3 -74 -23.5 -145.5t-60 -122 t-87.5 -50.5q-42 0 -68 31.5t-26 90.5q0 106 52 166.5t109 60.5q58 0 104 -31zM359 611q4 20 20 34t37 14q16 0 26.5 -11t10.5 -28q0 -22 -17.5 -39t-39.5 -17q-17 0 -27.5 11t-10.5 28q0 5 1 8zM182 611q4 20 20 34t36 14q16 0 27 -11t11 -28q0 -22 -17 -39t-39 -17 q-17 0 -28 11t-11 28q0 5 1 8z" />
<glyph unicode="&#xe5;" horiz-adv-x="515" d="M405 -2l23 7q18 7 18 24v4q-7 39 -7 83q0 95 36 286v4q0 14 -12 21q-88 55 -176 55q-44 0 -88 -20t-81.5 -57t-61 -97.5t-23.5 -133.5q0 -88 45 -135t118 -47q45 0 91.5 27.5t74.5 81.5h5q2 -55 6 -83q3 -21 25 -21q5 0 7 1zM388 381q-3 -74 -23.5 -145.5t-60 -122 t-87.5 -50.5q-42 0 -68 31.5t-26 90.5q0 106 52 166.5t109 60.5q58 0 104 -31zM335 704q35 0 57 -22t22 -54q0 -43 -34 -75t-78 -32q-34 0 -56.5 22t-22.5 55q0 41 35 73.5t77 32.5zM309 561q24 0 42.5 18t18.5 42q0 18 -12 30t-31 12q-22 0 -40 -18t-18 -42q0 -18 11.5 -30 t28.5 -12z" />
<glyph unicode="&#xe6;" horiz-adv-x="797" d="M703 69l2 -19q0 -19 -15 -25q-87 -33 -160 -33q-116 0 -153 84h-6q-73 -84 -170 -84q-77 0 -122.5 49.5t-45.5 134.5q0 132 76 219t181 87q80 0 143 -14q20 -5 20 -23l-3 -38h4q30 39 74.5 57t85.5 18q74 0 114.5 -41t40.5 -113q0 -24 -13 -87q-6 -25 -25 -25h-292 q-3 -30 -3 -36q0 -56 29 -87.5t78 -31.5q52 0 127 26q8 3 14 3q18 0 19 -21zM336 118l50 281q-46 11 -100 11q-65 0 -114 -64t-49 -158q0 -57 27 -91t75 -34q60 0 111 55zM450 276h234q5 21 5 45q0 44 -22 69t-62 25q-51 0 -94 -36.5t-61 -102.5z" />
<glyph unicode="&#xe7;" horiz-adv-x="439" d="M367 65l2 -21q0 -17 -15 -23q-68 -29 -139 -29q-80 0 -131.5 50.5t-51.5 137.5q0 141 81 221.5t188 80.5q61 0 121 -25q15 -6 15 -21q0 -6 -3 -13l-13 -27q-5 -11 -18 -11q-7 0 -13 3q-49 23 -97 23q-70 0 -120.5 -63.5t-50.5 -161.5q0 -59 28.5 -91t81.5 -32 q48 0 101 21q8 2 11 2q20 0 23 -21zM94 -177l3 3q7 15 18 15q1 0 2.5 -0.5t2.5 -0.5q17 -4 34 -4q16 0 31 9.5t18 23.5q0 22 -40 30q-13 1 -13 15v4q2 6 5 11l22 35q9 13 20 13h4q17 0 17 -15q-2 -9 -5 -14l-8 -14q26 -5 40 -20.5t14 -34.5q0 -43 -38 -65t-82 -22 q-19 0 -36 5q-13 3 -13 13v2l1 2z" />
<glyph unicode="&#xe8;" horiz-adv-x="484" d="M371 70l5 -18v-4q0 -17 -15 -24q-76 -32 -146 -32q-83 0 -133 47.5t-50 137.5q0 142 80.5 223.5t187.5 81.5q71 0 107 -34t36 -81q0 -74 -85.5 -113t-234.5 -40q-1 -11 -1 -29q0 -57 29 -89t79 -32q49 0 108 23q6 2 10 2q18 0 23 -19zM137 276q101 0 161.5 21t60.5 65 q0 24 -19.5 37t-49.5 13q-49 0 -91 -34t-62 -102zM292 555l-61 85q-6 8 -6 17q0 10 7 16.5t18 6.5h22q13 0 25 -22l42 -78q4 -7 4 -15q0 -9 -6.5 -15.5t-17.5 -6.5h-8q-12 0 -19 12z" />
<glyph unicode="&#xe9;" horiz-adv-x="484" d="M376 52l-5 18q-5 19 -23 19q-4 0 -10 -2q-59 -23 -108 -23q-50 0 -79 32t-29 89q0 18 1 29q149 1 234.5 40t85.5 113q0 47 -36 81t-107 34q-107 0 -187.5 -81.5t-80.5 -223.5q0 -90 50 -137.5t133 -47.5q70 0 146 32q15 7 15 24v4zM137 276q20 68 62 102t91 34 q30 0 49.5 -13t19.5 -37q0 -44 -60.5 -65t-161.5 -21zM380 680h13q12 0 19 -7t7 -17q0 -8 -8 -18q-93 -95 -108 -95q-12 0 -19 7t-7 17q0 8 8 18l76 86q7 9 19 9z" />
<glyph unicode="&#xea;" horiz-adv-x="484" d="M371 70l5 -18v-4q0 -17 -15 -24q-76 -32 -146 -32q-83 0 -133 47.5t-50 137.5q0 142 80.5 223.5t187.5 81.5q71 0 107 -34t36 -81q0 -74 -85.5 -113t-234.5 -40q-1 -11 -1 -29q0 -57 29 -89t79 -32q49 0 108 23q6 2 10 2q18 0 23 -19zM137 276q101 0 161.5 21t60.5 65 q0 24 -19.5 37t-49.5 13q-49 0 -91 -34t-62 -102zM310 680h42q5 0 11 -3.5t7 -7.5l43 -87q2 -8 2 -11v-4q-2 -10 -10 -17t-19 -7h-11q-4 0 -10.5 3.5t-7.5 7.5l-34 79l-61 -78q-8 -12 -22 -12h-11q-21 0 -21 19q0 1 0.5 2.5t0.5 2.5q2 10 8 16l36.5 44l36.5 43q8 10 20 10z " />
<glyph unicode="&#xeb;" horiz-adv-x="484" d="M376 52l-5 18q-5 19 -23 19q-4 0 -10 -2q-59 -23 -108 -23q-50 0 -79 32t-29 89q0 18 1 29q149 1 234.5 40t85.5 113q0 47 -36 81t-107 34q-107 0 -187.5 -81.5t-80.5 -223.5q0 -90 50 -137.5t133 -47.5q70 0 146 32q15 7 15 24v4zM137 276q20 68 62 102t91 34 q30 0 49.5 -13t19.5 -37q0 -44 -60.5 -65t-161.5 -21zM362 611q4 20 20 34t37 14q16 0 26.5 -11t10.5 -28q0 -22 -17.5 -39t-39.5 -17q-17 0 -27.5 11t-10.5 28q0 5 1 8zM185 611q4 20 20 34t36 14q16 0 27 -11t11 -28q0 -22 -17 -39t-39 -17q-17 0 -28 11t-11 28q0 5 1 8z " />
<glyph unicode="&#xec;" horiz-adv-x="224" d="M155 555l-61 85q-6 8 -6 17q0 10 7 16.5t18 6.5h22q13 0 25 -22l42 -78q4 -7 4 -15q0 -9 -6.5 -15.5t-17.5 -6.5h-8q-12 0 -19 12zM192 445l-75 -424q-1 -8 -9 -14.5t-16 -6.5h-35q-11 0 -18 7t-7 17v5l74 424q2 8 9 14.5t16 6.5h36q11 0 18 -7t7 -17v-5z" />
<glyph unicode="&#xed;" horiz-adv-x="223" d="M244 680h13q12 0 19 -7t7 -17q0 -8 -8 -18q-93 -95 -108 -95q-12 0 -19 7t-7 17q0 8 8 18l76 86q7 9 19 9zM190 445l-75 -424q-1 -8 -9 -14.5t-16 -6.5h-35q-11 0 -18 7t-7 17v5l74 424q2 8 9 14.5t16 6.5h36q11 0 18 -7t7 -17v-5z" />
<glyph unicode="&#xee;" horiz-adv-x="224" d="M192 445l-75 -424q-1 -8 -9 -14.5t-16 -6.5h-35q-11 0 -18 7t-7 17v5l74 424q2 8 9 14.5t16 6.5h36q11 0 18 -7t7 -17v-5zM171 680h42q5 0 11 -3.5t7 -7.5l43 -87q2 -8 2 -11v-4q-2 -10 -10 -17t-19 -7h-11q-4 0 -10.5 3.5t-7.5 7.5l-34 79l-61 -78q-8 -12 -22 -12h-11 q-21 0 -21 19q0 1 0.5 2.5t0.5 2.5q2 10 8 16l36.5 44l36.5 43q7 10 20 10z" />
<glyph unicode="&#xef;" horiz-adv-x="224" d="M221 611q4 20 20 34t37 14q16 0 26.5 -11t10.5 -28q0 -22 -17.5 -39t-39.5 -17q-17 0 -27.5 11t-10.5 28q0 5 1 8zM44 611q4 20 20 34t36 14q16 0 27 -11t11 -28q0 -22 -17 -39t-39 -17q-17 0 -28 11t-11 28q0 5 1 8zM191 445l-75 -424q-1 -8 -9 -14.5t-16 -6.5h-35 q-11 0 -18 7t-7 17v5l74 424q2 8 9 14.5t16 6.5h36q11 0 18 -7t7 -17v-5z" />
<glyph unicode="&#xf0;" horiz-adv-x="530" d="M214 -8q-79 0 -130 51t-51 139q0 73 32 141.5t92.5 113.5t132.5 45q51 0 99 -38l4 4q-21 71 -58 114l-110 -48q-4 -2 -7 -2q-11 0 -14 11l-2 10q0 1 -0.5 3.5t-0.5 3.5q4 13 14 17l89 39q-22 25 -54 47q-8 5 -8 15v4q2 11 13 21l19 14q7 5 14 5q5 0 11 -3q39 -24 82 -70 l106 46q4 2 7 2q11 0 14 -11l2 -10v-5q0 -13 -13 -19l-87 -38q80 -104 80 -246q0 -88 -29 -167t-94 -134t-153 -55zM392 292q0 56 -26 87t-77 31q-52 0 -91.5 -37t-57 -85.5t-17.5 -96.5q0 -59 28 -93.5t76 -34.5q54 0 93.5 39.5t55.5 89.5t16 100z" />
<glyph unicode="&#xf1;" horiz-adv-x="511" d="M180 381l6 73q0 8 -6 14t-14 6h-32q-10 0 -17 -7t-8 -16q-9 -92 -23 -174l-43 -248v-5q0 -10 7 -17t18 -7h35q8 0 16 6.5t9 14.5l30 172q24 103 70.5 159t94.5 56q30 0 44.5 -13.5t14.5 -45.5q0 -5 -2 -19.5t-2 -17.5l-49 -283v-5q0 -10 7 -17t18 -7h36q8 0 16 6.5 t9 14.5l52 297q4 21 4 50q0 58 -30 86t-95 28q-38 0 -83.5 -25t-77.5 -76h-5zM270 661q24 0 58 -20t48 -24q11 3 27 27q5 11 19 11q10 0 19 -7t9 -17q0 -2 -2 -8q-24 -60 -77 -60q-20 0 -57.5 22t-47.5 22q-12 0 -25 -25q-6 -12 -20 -12q-10 0 -18.5 6.5t-8.5 16.5q0 5 1 8 q23 60 75 60z" />
<glyph unicode="&#xf2;" horiz-adv-x="521" d="M229 63q67 0 116.5 63.5t49.5 163.5q0 58 -27.5 89.5t-77.5 31.5q-68 0 -117.5 -63.5t-49.5 -163.5q0 -59 28 -90t78 -31zM302 482q80 0 132 -50.5t52 -136.5q0 -141 -81 -222t-189 -81q-80 0 -131.5 50.5t-51.5 136.5q0 141 81.5 222t187.5 81zM295 555l-61 85 q-6 8 -6 17q0 10 7 16.5t18 6.5h22q13 0 25 -22l42 -78q4 -7 4 -15q0 -9 -6.5 -15.5t-17.5 -6.5h-8q-12 0 -19 12z" />
<glyph unicode="&#xf3;" horiz-adv-x="521" d="M229 63q67 0 116.5 63.5t49.5 163.5q0 58 -27.5 89.5t-77.5 31.5q-68 0 -117.5 -63.5t-49.5 -163.5q0 -59 28 -90t78 -31zM302 482q80 0 132 -50.5t52 -136.5q0 -141 -81 -222t-189 -81q-80 0 -131.5 50.5t-51.5 136.5q0 141 81.5 222t187.5 81zM387 680h13q12 0 19 -7 t7 -17q0 -8 -8 -18q-93 -95 -108 -95q-12 0 -19 7t-7 17q0 8 8 18l76 86q7 9 19 9z" />
<glyph unicode="&#xf4;" horiz-adv-x="521" d="M229 63q67 0 116.5 63.5t49.5 163.5q0 58 -27.5 89.5t-77.5 31.5q-68 0 -117.5 -63.5t-49.5 -163.5q0 -59 28 -90t78 -31zM302 482q80 0 132 -50.5t52 -136.5q0 -141 -81 -222t-189 -81q-80 0 -131.5 50.5t-51.5 136.5q0 141 81.5 222t187.5 81zM311 680h42q5 0 11 -3.5 t7 -7.5l43 -87q2 -8 2 -11v-4q-2 -10 -10 -17t-19 -7h-11q-4 0 -10.5 3.5t-7.5 7.5l-34 79l-61 -78q-8 -12 -22 -12h-11q-21 0 -21 19q0 1 0.5 2.5t0.5 2.5q2 10 8 16l36.5 44l36.5 43q7 10 20 10z" />
<glyph unicode="&#xf5;" horiz-adv-x="521" d="M229 63q67 0 116.5 63.5t49.5 163.5q0 58 -27.5 89.5t-77.5 31.5q-68 0 -117.5 -63.5t-49.5 -163.5q0 -59 28 -90t78 -31zM302 482q80 0 132 -50.5t52 -136.5q0 -141 -81 -222t-189 -81q-80 0 -131.5 50.5t-51.5 136.5q0 141 81.5 222t187.5 81zM270 661q24 0 58 -20 t48 -24q11 3 27 27q5 11 19 11q10 0 19 -7t9 -17q0 -2 -2 -8q-24 -60 -77 -60q-20 0 -57.5 22t-47.5 22q-12 0 -25 -25q-6 -12 -20 -12q-10 0 -18.5 6.5t-8.5 16.5q0 5 1 8q23 60 75 60z" />
<glyph unicode="&#xf6;" horiz-adv-x="521" d="M229 63q67 0 116.5 63.5t49.5 163.5q0 58 -27.5 89.5t-77.5 31.5q-68 0 -117.5 -63.5t-49.5 -163.5q0 -59 28 -90t78 -31zM302 482q80 0 132 -50.5t52 -136.5q0 -141 -81 -222t-189 -81q-80 0 -131.5 50.5t-51.5 136.5q0 141 81.5 222t187.5 81zM362 611q4 20 20 34 t37 14q16 0 26.5 -11t10.5 -28q0 -22 -17.5 -39t-39.5 -17q-17 0 -27.5 11t-10.5 28q0 5 1 8zM185 611q4 20 20 34t36 14q16 0 27 -11t11 -28q0 -22 -17 -39t-39 -17q-17 0 -28 11t-11 28q0 5 1 8z" />
<glyph unicode="&#xf7;" horiz-adv-x="595" d="M85 273h424q11 0 18 -7.5t7 -17.5v-22q0 -10 -7 -17.5t-18 -7.5h-424q-11 0 -18 7.5t-7 17.5v22q0 10 7 17.5t18 7.5zM350 68q0 -23 -14.5 -37t-38.5 -14q-23 0 -37.5 14t-14.5 37q0 24 14 38t38 14t38.5 -14t14.5 -38zM350 405q0 -23 -14.5 -37t-38.5 -14 q-23 0 -37.5 14t-14.5 37t14.5 37.5t37.5 14.5q24 0 38.5 -14.5t14.5 -37.5z" />
<glyph unicode="&#xf8;" horiz-adv-x="521" d="M395 462l35 47q7 11 20 11q5 0 8 -2l10 -6q12 -9 12 -17t-7 -18l-34 -46q46 -49 46 -134q0 -72 -23.5 -131t-62 -96.5t-86 -57.5t-97.5 -20q-45 0 -93 22l-41 -53q-6 -7 -14 -7q-10 0 -19 9.5t-9 20.5q0 8 4 13l36 49q-47 50 -47 132q0 72 23.5 131t62.5 96t86.5 57 t97.5 20q52 0 92 -20zM124 195q0 -43 16 -72l207 273q-23 14 -57 14q-52 0 -91.5 -36t-57 -83.5t-17.5 -95.5zM393 288q0 35 -14 65l-207 -273q25 -17 57 -17q67 0 115.5 62.5t48.5 162.5z" />
<glyph unicode="&#xf9;" horiz-adv-x="512" d="M340 93h-5q-32 -51 -77.5 -76t-83.5 -25q-65 0 -95 28t-30 86q0 29 4 50l52 297q1 8 9 14.5t16 6.5h36q11 0 18 -7t7 -17v-5l-49 -283q0 -3 -2 -17.5t-2 -19.5q0 -32 14.5 -45.5t44.5 -13.5q48 0 94.5 56t70.5 159l30 172q1 8 9 14.5t16 6.5h35q11 0 18 -7t7 -17v-5 l-43 -248q-14 -82 -23 -174q-1 -9 -8 -16t-17 -7h-32q-8 0 -14 6t-6 14q0 23 6 73zM284 555l-61 85q-6 8 -6 17q0 10 7 16.5t18 6.5h22q13 0 25 -22l42 -78q4 -7 4 -15q0 -9 -6.5 -15.5t-17.5 -6.5h-8q-12 0 -19 12z" />
<glyph unicode="&#xfa;" horiz-adv-x="512" d="M340 93l-6 -73q0 -8 6 -14t14 -6h32q10 0 17 7t8 16q9 92 23 174l43 248v5q0 10 -7 17t-18 7h-35q-8 0 -16 -6.5t-9 -14.5l-30 -172q-24 -103 -70.5 -159t-94.5 -56q-30 0 -44.5 13.5t-14.5 45.5q0 5 2 19.5t2 17.5l49 283v5q0 10 -7 17t-18 7h-36q-8 0 -16 -6.5 t-9 -14.5l-52 -297q-4 -21 -4 -50q0 -58 30 -86t95 -28q38 0 83.5 25t77.5 76h5zM372 680h13q12 0 19 -7t7 -17q0 -8 -8 -18q-93 -95 -108 -95q-12 0 -19 7t-7 17q0 8 8 18l76 86q7 9 19 9z" />
<glyph unicode="&#xfb;" horiz-adv-x="512" d="M340 93h-5q-32 -51 -77.5 -76t-83.5 -25q-65 0 -95 28t-30 86q0 29 4 50l52 297q1 8 9 14.5t16 6.5h36q11 0 18 -7t7 -17v-5l-49 -283q0 -3 -2 -17.5t-2 -19.5q0 -32 14.5 -45.5t44.5 -13.5q48 0 94.5 56t70.5 159l30 172q1 8 9 14.5t16 6.5h35q11 0 18 -7t7 -17v-5 l-43 -248q-14 -82 -23 -174q-1 -9 -8 -16t-17 -7h-32q-8 0 -14 6t-6 14q0 23 6 73zM300 680h42q5 0 11 -3.5t7 -7.5l43 -87q2 -8 2 -11v-4q-2 -10 -10 -17t-19 -7h-11q-4 0 -10.5 3.5t-7.5 7.5l-34 79l-61 -78q-8 -12 -22 -12h-11q-21 0 -21 19q0 1 0.5 2.5t0.5 2.5 q2 10 8 16l36.5 44l36.5 43q8 10 20 10z" />
<glyph unicode="&#xfc;" horiz-adv-x="512" d="M340 93l-6 -73q0 -8 6 -14t14 -6h32q10 0 17 7t8 16q9 92 23 174l43 248v5q0 10 -7 17t-18 7h-35q-8 0 -16 -6.5t-9 -14.5l-30 -172q-24 -103 -70.5 -159t-94.5 -56q-30 0 -44.5 13.5t-14.5 45.5q0 5 2 19.5t2 17.5l49 283v5q0 10 -7 17t-18 7h-36q-8 0 -16 -6.5 t-9 -14.5l-52 -297q-4 -21 -4 -50q0 -58 30 -86t95 -28q38 0 83.5 25t77.5 76h5zM353 611q4 20 20 34t37 14q16 0 26.5 -11t10.5 -28q0 -22 -17.5 -39t-39.5 -17q-17 0 -27.5 11t-10.5 28q0 5 1 8zM176 611q4 20 20 34t36 14q16 0 27 -11t11 -28q0 -22 -17 -39t-39 -17 q-17 0 -28 11t-11 28q0 5 1 8z" />
<glyph unicode="&#xfd;" horiz-adv-x="462" d="M-41 -169l1 -11q3 -25 25 -25q5 0 8 1q140 45 201 157l268 484q4 7 4 14q0 10 -7 16.5t-19 6.5h-40q-16 0 -22 -13q-144 -275 -172 -348h-7q0 20 -12 105t-24 160l-12 75q-2 8 -9 14.5t-16 6.5h-36q-10 0 -17.5 -7t-7.5 -18v-5l78 -427l-20 -40q-42 -82 -148 -114 q-16 -4 -16 -26v-6zM349 680h13q12 0 19 -7t7 -17q0 -8 -8 -18q-93 -95 -108 -95q-12 0 -19 7t-7 17q0 8 8 18l76 86q7 9 19 9z" />
<glyph unicode="&#xfe;" horiz-adv-x="514" d="M118 26l-37 -212q-2 -8 -9 -14.5t-16 -6.5h-37q-11 0 -18 7t-7 17v5l147 836q1 8 9 14.5t16 6.5h37q11 0 18 -7t7 -17v-5l-37 -213q63 45 120 45q77 0 122 -50t45 -135q0 -132 -75.5 -218.5t-178.5 -86.5q-60 0 -106 34zM176 354l-45 -253q43 -38 96 -38q65 0 112.5 63.5 t47.5 159.5q0 58 -26 91t-73 33q-62 0 -112 -56z" />
<glyph unicode="&#xff;" horiz-adv-x="462" d="M-41 -169l1 -11q3 -25 25 -25q5 0 8 1q140 45 201 157l268 484q4 7 4 14q0 10 -7 16.5t-19 6.5h-40q-16 0 -22 -13q-144 -275 -172 -348h-7q0 20 -12 105t-24 160l-12 75q-2 8 -9 14.5t-16 6.5h-36q-10 0 -17.5 -7t-7.5 -18v-5l78 -427l-20 -40q-42 -82 -148 -114 q-16 -4 -16 -26v-6zM333 611q4 20 20 34t37 14q16 0 26.5 -11t10.5 -28q0 -22 -17.5 -39t-39.5 -17q-17 0 -27.5 11t-10.5 28q0 5 1 8zM156 611q4 20 20 34t36 14q16 0 27 -11t11 -28q0 -22 -17 -39t-39 -17q-17 0 -28 11t-11 28q0 5 1 8z" />
<glyph unicode="&#x152;" horiz-adv-x="992" d="M920 54l-5 -32q-2 -22 -25 -22h-323q-11 0 -18 7t-7 18v4l13 81q-44 -55 -106.5 -86.5t-135.5 -31.5q-125 0 -193.5 74.5t-68.5 195.5q0 173 111 299.5t274 126.5q149 0 200 -121l17 91q1 9 8.5 15t16.5 6h318q10 0 17.5 -7.5t7.5 -17.5l-5 -30q-1 -9 -8.5 -15.5 t-16.5 -6.5h-256q-7 -42 -19.5 -108.5t-18.5 -101.5h219q25 0 25 -28l-5 -23q-6 -25 -25 -25h-227l-43 -238h254q11 0 18 -7t7 -17zM602 408q0 91 -47.5 144.5t-133.5 53.5q-114 0 -194 -94.5t-80 -237.5q0 -92 48 -146t133 -54q115 0 194.5 95t79.5 239z" />
<glyph unicode="&#x153;" horiz-adv-x="836" d="M651 482q75 0 116 -40.5t41 -113.5q0 -21 -5 -51q-3 -18 -9 -42q-6 -19 -24 -19h-294q-2 -14 -2 -35q0 -56 28.5 -88t78.5 -32q59 0 128 27q7 3 15 3q18 0 19 -19l2 -26q0 -15 -16 -21q-87 -33 -162 -33q-54 0 -97 27.5t-57 83.5h-5q-34 -55 -86 -83t-106 -28 q-83 0 -133 47.5t-50 137.5q0 141 81.5 223t187.5 82q117 0 158 -109q35 55 86.5 82t104.5 27zM229 63q67 0 115.5 62t48.5 163q0 58 -27 90t-76 32q-68 0 -117.5 -62t-49.5 -161q0 -59 28 -91.5t78 -32.5zM722 276q5 32 5 45q0 44 -22.5 69t-62.5 25q-50 0 -92.5 -36.5 t-61.5 -102.5h234z" />
<glyph unicode="&#x178;" horiz-adv-x="547" d="M100 646l136 -353l-46 -264v-5q0 -10 7 -17t18 -7h40q8 0 16 6.5t9 14.5l47 271l255 348q6 8 6 16q0 10 -7 17t-19 7h-45q-14 0 -20 -10q-154 -208 -202 -285h-7q-7 53 -97 277q-7 18 -27 18h-41q-11 0 -18 -7t-7 -17q0 -2 2 -10zM408 813q4 20 20 34t36 14 q16 0 26.5 -11t10.5 -28q0 -22 -17 -39t-39 -17q-17 0 -27.5 11t-10.5 28q0 5 1 8zM232 813q4 20 20 34t36 14q16 0 27 -11t11 -28q0 -22 -17 -39t-39 -17q-17 0 -28 11t-11 28q0 5 1 8z" />
<glyph unicode="&#x2c6;" horiz-adv-x="328" d="M219 680h42q5 0 11 -3.5t7 -7.5l43 -87q2 -8 2 -11v-4q-2 -10 -10 -17t-19 -7h-11q-4 0 -10.5 3.5t-7.5 7.5l-34 79l-61 -78q-8 -12 -22 -12h-11q-21 0 -21 19q0 1 0.5 2.5t0.5 2.5q2 10 8 16l36.5 44l36.5 43q7 10 20 10z" />
<glyph unicode="&#x2dc;" horiz-adv-x="328" d="M178 661q24 0 58 -20t48 -24q11 3 27 27q5 11 19 11q10 0 19 -7t9 -17q0 -2 -2 -8q-24 -60 -77 -60q-20 0 -57.5 22t-47.5 22q-12 0 -25 -25q-6 -12 -20 -12q-10 0 -18.5 6.5t-8.5 16.5q0 5 1 8q23 60 75 60z" />
<glyph unicode="&#x2000;" horiz-adv-x="453" />
<glyph unicode="&#x2001;" horiz-adv-x="907" />
<glyph unicode="&#x2002;" horiz-adv-x="453" />
<glyph unicode="&#x2003;" horiz-adv-x="907" />
<glyph unicode="&#x2004;" horiz-adv-x="302" />
<glyph unicode="&#x2005;" horiz-adv-x="226" />
<glyph unicode="&#x2006;" horiz-adv-x="151" />
<glyph unicode="&#x2007;" horiz-adv-x="151" />
<glyph unicode="&#x2008;" horiz-adv-x="113" />
<glyph unicode="&#x2009;" horiz-adv-x="181" />
<glyph unicode="&#x200a;" horiz-adv-x="50" />
<glyph unicode="&#x2010;" horiz-adv-x="398" d="M346 244l-6 -28q-4 -20 -24 -20h-242q-11 0 -18 7t-7 17v5q1 7 3 16l2 10q1 10 8 16.5t17 6.5h243q11 0 18 -6.5t7 -17.5q0 -1 -0.5 -3t-0.5 -3z" />
<glyph unicode="&#x2011;" horiz-adv-x="398" d="M346 244l-6 -28q-4 -20 -24 -20h-242q-11 0 -18 7t-7 17v5q1 7 3 16l2 10q1 10 8 16.5t17 6.5h243q11 0 18 -6.5t7 -17.5q0 -1 -0.5 -3t-0.5 -3z" />
<glyph unicode="&#x2013;" horiz-adv-x="553" d="M528 245l-3 -17q-2 -11 -10 -18t-18 -7h-456q-20 0 -20 21v4l3 17q2 11 10.5 18t18.5 7h456q19 0 19 -21v-4z" />
<glyph unicode="&#x2014;" horiz-adv-x="921" d="M900 245l-3 -17q-1 -10 -9.5 -17.5t-18.5 -7.5h-826q-20 0 -20 21v4l3 17q2 11 10 18t18 7h827q8 0 14 -6t6 -14q0 -1 -0.5 -2.5t-0.5 -2.5z" />
<glyph unicode="&#x2018;" horiz-adv-x="207" d="M207 695l14 -7q16 -6 16 -22q0 -9 -4 -14q-54 -89 -73 -186q-5 -22 -23 -37t-41 -15q-20 0 -33 11.5t-13 30.5q0 78 127 233q8 8 19 8q8 0 11 -2z" />
<glyph unicode="&#x2019;" horiz-adv-x="197" d="M80 407l-14 7q-16 6 -16 22q0 9 4 14q54 89 73 186q5 22 23 37t41 15q20 0 33 -11.5t13 -30.5q0 -78 -127 -233q-8 -8 -19 -8q-8 0 -11 2z" />
<glyph unicode="&#x201a;" horiz-adv-x="237" d="M16 -176l-14 7q-16 6 -16 22q0 9 4 14q54 89 73 186q5 22 23 37t41 15q20 0 33 -11.5t13 -30.5q0 -78 -127 -233q-8 -8 -19 -8q-8 0 -11 2z" />
<glyph unicode="&#x201c;" horiz-adv-x="383" d="M207 695l14 -7q16 -6 16 -22q0 -9 -4 -14q-54 -89 -73 -186q-5 -22 -23 -37t-41 -15q-20 0 -33 11.5t-13 30.5q0 78 127 233q8 8 19 8q8 0 11 -2zM383 695l14 -7q16 -6 16 -22q0 -9 -4 -14q-54 -89 -73 -186q-5 -22 -23 -37t-41 -15q-20 0 -33 11.5t-13 30.5 q0 78 127 233q8 8 19 8q8 0 11 -2z" />
<glyph unicode="&#x201d;" horiz-adv-x="373" d="M256 407l-14 7q-16 6 -16 22q0 9 4 14q54 89 73 186q5 22 23 37t41 15q20 0 33 -11.5t13 -30.5q0 -78 -127 -233q-8 -8 -19 -8q-8 0 -11 2zM80 407l-14 7q-16 6 -16 22q0 9 4 14q54 89 73 186q5 22 23 37t41 15q20 0 33 -11.5t13 -30.5q0 -78 -127 -233q-8 -8 -19 -8 q-8 0 -11 2z" />
<glyph unicode="&#x201e;" horiz-adv-x="411" d="M192 -176l-14 7q-16 6 -16 22q0 9 4 14q54 89 73 186q5 22 23 37t41 15q20 0 33 -11.5t13 -30.5q0 -78 -127 -233q-8 -8 -19 -8q-8 0 -11 2zM16 -176l-14 7q-16 6 -16 22q0 9 4 14q54 89 73 186q5 22 23 37t41 15q20 0 33 -11.5t13 -30.5q0 -78 -127 -233q-8 -8 -19 -8 q-8 0 -11 2z" />
<glyph unicode="&#x2022;" horiz-adv-x="371" d="M184 471q55 0 93 -38.5t38 -92.5q0 -55 -38 -94t-93 -39q-53 0 -90.5 39t-37.5 94q0 54 37.5 92.5t90.5 38.5z" />
<glyph unicode="&#x2026;" horiz-adv-x="862" d="M102 -8q-23 0 -36 12t-13 32q0 31 19 50.5t49 19.5q23 0 37 -12.5t14 -32.5q0 -31 -21 -50t-49 -19zM387 -8q-23 0 -36 12t-13 32q0 31 19 50.5t49 19.5q23 0 37 -12.5t14 -32.5q0 -31 -21 -50t-49 -19zM671 -8q-23 0 -36 12t-13 32q0 31 19 50.5t49 19.5q23 0 37 -12.5 t14 -32.5q0 -31 -21 -50t-49 -19z" />
<glyph unicode="&#x202f;" horiz-adv-x="181" />
<glyph unicode="&#x2039;" horiz-adv-x="278" d="M175 0h-40q-17 0 -23 16l-85 208q-1 2 -1 8q0 12 4 16l164 216q6 10 20 10h31q12 0 19 -7t7 -17q0 -8 -6 -16l-149 -197l82 -203q2 -8 2 -11q0 -10 -7 -16.5t-18 -6.5z" />
<glyph unicode="&#x203a;" horiz-adv-x="278" d="M62 0h-31q-12 0 -19 7t-7 17q0 8 6 16l148 197l-82 203q-2 8 -2 11q0 10 7 16.5t18 6.5h41q17 0 23 -16l84 -208q1 -2 1 -8q0 -12 -4 -16l-163 -216q-6 -10 -20 -10z" />
<glyph unicode="&#x205f;" horiz-adv-x="226" />
<glyph unicode="&#x20ac;" horiz-adv-x="575" d="M501 75l3 -32v-7q-3 -19 -21 -24q-58 -20 -123 -20q-120 0 -192 59.5t-72 186.5h-33q-8 0 -14 6t-6 14q0 1 0.5 2.5t0.5 2.5l1 8q2 11 10 18t18 7h26l6 44q4 24 11 44h-27q-8 0 -14 6t-6 14q0 1 0.5 2.5t0.5 2.5l1 7q1 10 9.5 17.5t18.5 7.5h33q90 247 351 247 q65 0 117 -21q12 -5 12 -21q-2 -9 -3 -10l-14 -31q-7 -18 -26 -18q-2 0 -8 2q-45 19 -95 19q-77 0 -139.5 -41t-96.5 -126h248q8 0 14 -6t6 -14q0 -1 -0.5 -2.5t-0.5 -2.5l-1 -7q-1 -10 -9.5 -17.5t-18.5 -7.5h-257q-9 -37 -10 -44l-6 -44h257q20 0 20 -21v-4l-2 -8 q-2 -11 -10 -18t-18 -7h-248q3 -85 51 -125.5t126 -40.5q50 0 101 19q6 2 9 2q18 0 20 -18z" />
<glyph unicode="&#x2122;" horiz-adv-x="578" d="M308 667l-2 -14q-4 -15 -17 -15h-67l-39 -225q-4 -15 -17 -15h-23q-12 0 -12 13l40 227h-67q-12 0 -12 13l2 14q4 15 17 15h185q12 0 12 -13zM443 493q-6 -7 -13 -7t-10 7l-51 105l-36 -185q-4 -15 -17 -15h-22q-11 0 -11 12l52 255q1 6 6 10.5t10 4.5h29q8 0 10 -6 l54 -112q29 37 48 59q7 7 21.5 25.5t22.5 27.5q4 6 12 6h31q12 0 12 -11l-36 -255q-2 -16 -17 -16h-22q-11 0 -11 12l26 187z" />
</font>
</defs>
</svg>
