<?xml version="1.0" standalone="no"?>
<!DOCTYPE svg PUBLIC "-//W3C//DTD SVG 1.1//EN" "http://www.w3.org/Graphics/SVG/1.1/DTD/svg11.dtd" >
<svg xmlns="http://www.w3.org/2000/svg">
<metadata>
This is a custom SVG webfont generated by Fontspring.
Designer    : Nicholas Garner
Foundry     : Aviation Partners
Foundry URL : http://www.codesign.co.uk
</metadata>
<defs>
<font id="webfontW8aCjFWW" horiz-adv-x="541" >
<font-face units-per-em="1000" ascent="800" descent="-200" />
<missing-glyph horiz-adv-x="180" />
<glyph unicode=" "  horiz-adv-x="180" />
<glyph unicode="&#x09;" horiz-adv-x="180" />
<glyph unicode="&#xa0;" horiz-adv-x="180" />
<glyph unicode="!" horiz-adv-x="218" d="M37 23q0 24 12 39t31 15q28 0 28 -32q0 -23 -13 -38t-29 -15q-29 0 -29 31zM204 665l-92 -484q-1 -10 -12 -10q-14 0 -14 12l76 484q2 13 15 13h12q15 0 15 -15z" />
<glyph unicode="&#x22;" horiz-adv-x="272" d="M280 665l-48 -224q-2 -12 -15 -12h-4q-6 0 -10.5 4.5t-4.5 10.5l32 223q2 13 15 13h20q15 0 15 -15zM191 665l-48 -224q-2 -12 -15 -12h-4q-6 0 -10.5 4.5t-4.5 10.5l32 223q2 13 15 13h20q15 0 15 -15z" />
<glyph unicode="#" horiz-adv-x="544" d="M340 160l35 198h-172l-16.5 -94.5l-18.5 -103.5h172zM477 114h-100l-25 -145q-2 -13 -15 -13l-18 3q-11 3 -11 16l23 139h-172l-25 -145q-2 -13 -15 -13l-18 3q-11 3 -11 16l23 139h-89q-6 0 -10.5 4.5t-4.5 10.5v16q0 6 4.5 10.5t10.5 4.5h98l16.5 94.5l18.5 103.5h-90 q-6 0 -10.5 4.5t-4.5 10.5v16q0 6 4.5 10.5t10.5 4.5h98l25 145q2 13 15 13l18 -3q11 -3 11 -16l-23 -139h172l25 145q2 13 15 13l18 -3q11 -3 11 -16l-23 -139h91q6 0 10.5 -4.5t4.5 -10.5v-16q0 -6 -4.5 -10.5t-10.5 -4.5h-98l-16.5 -94.5l-18.5 -103.5h90q6 0 10.5 -4.5 t4.5 -10.5v-16q0 -6 -4.5 -10.5t-10.5 -4.5z" />
<glyph unicode="$" horiz-adv-x="346" d="M146 -6l-14 -81q-2 -12 -15 -12h-12q-15 0 -15 15l12 78q-58 10 -93 48q-4 4 -4 11q0 3 2 7l11 17q4 7 12 7t12 -5q37 -40 87 -40q48 0 82.5 46t34.5 114q0 29 -11.5 56t-23.5 42t-36 41q-26 28 -39 44t-26 47.5t-13 65.5q0 71 37.5 123t89.5 65l16 84q2 13 15 13h12 q15 0 15 -14l-14 -78q44 -4 75 -31q4 -4 4 -12q0 -4 -1 -6l-9 -20q-3 -8 -12 -8q-5 0 -10 3q-34 28 -66 28q-40 0 -73.5 -37t-33.5 -99q0 -61 65 -128q25 -27 39.5 -45.5t30 -54.5t15.5 -72q0 -83 -43.5 -141t-102.5 -71z" />
<glyph unicode="%" horiz-adv-x="642" d="M80 394q0 118 45 206t101 88q35 0 53.5 -33.5t18.5 -91.5q0 -120 -45 -208t-101 -88q-35 0 -53.5 34t-18.5 93zM119 397q0 -94 39 -94q34 0 68 81t34 170q0 45 -10.5 72t-29.5 27q-35 0 -68 -82.5t-33 -173.5zM380 119q0 118 45 206t101 88q35 0 53.5 -33.5t18.5 -92.5 q0 -119 -45.5 -207t-100.5 -88q-35 0 -53.5 34t-18.5 93zM420 122q0 -94 38 -94q35 0 68.5 81t33.5 172q0 44 -10.5 70.5t-29.5 26.5q-35 0 -67.5 -82t-32.5 -174zM584 656l-462 -650q-4 -6 -12 -6h-4q-15 0 -15 14q0 6 3 10l462 650q4 6 12 6h4q15 0 15 -14q0 -6 -3 -10z " />
<glyph unicode="&#x26;" horiz-adv-x="532" d="M246 362l98 -213q67 76 133 186q4 7 12 7q4 0 8 -2l8 -3q8 -5 8 -13q0 -5 -2 -8q-79 -131 -149 -205l42 -90q2 -4 2 -7q0 -14 -16 -14h-20q-10 0 -14 9l-31 66q-50 -45 -89 -64.5t-85 -19.5q-49 0 -81.5 36.5t-32.5 94.5q0 121 154 248q-41 96 -41 150q0 75 44.5 121.5 t96.5 46.5q38 0 62.5 -29.5t24.5 -78.5q0 -56 -36 -113.5t-96 -104.5zM309 113l-103 221q-124 -109 -124 -202q0 -41 21.5 -68.5t56.5 -27.5q71 0 149 77zM193 533q0 -49 39 -129q105 86 105 172q0 31 -15.5 49.5t-39.5 18.5q-32 0 -60.5 -31.5t-28.5 -79.5z" />
<glyph unicode="'" horiz-adv-x="211" d="M156 667q2 13 15 13h18q15 0 15 -15l-48 -226q-3 -10 -14 -10q-17 0 -17 14z" />
<glyph unicode="(" horiz-adv-x="259" d="M289 663q-27 -37 -54.5 -89t-60 -131t-53 -183t-20.5 -210q0 -143 38 -243q0 -14 -10 -14h-11q-3 0 -7.5 3.5t-5.5 6.5q-43 110 -43 253q0 162 51.5 326t144.5 289q5 8 16 8h7q10 0 10 -10q0 -2 -2 -6z" />
<glyph unicode=")" horiz-adv-x="259" d="M-32 -191q27 37 54.5 89t60 131t53 183t20.5 210q0 143 -38 243q0 14 10 14h11q3 0 7.5 -3.5t5.5 -6.5q43 -110 43 -253q0 -162 -51.5 -326t-144.5 -289q-5 -8 -16 -8h-7q-10 0 -10 10q0 2 2 6z" />
<glyph unicode="*" horiz-adv-x="447" d="M457 439l-2 -9l-18 -30q-5 -9 -14 -9q-5 0 -7 2l-116 77l-10 -9l49 -136q1 -2 1 -4v-4q-2 -10 -11 -13l-31 -13q-2 -1 -6 -1q-11 0 -11 11l-14 151h-11l-66 -151q-6 -11 -17 -11q-3 0 -5 1l-26 13q-7 3 -7 10q1 8 4 11l99 136l-8 9l-143 -77q-3 -2 -8 -2q-9 0 -12 9 l-7 30v6q3 12 14 15l151 42l2 11q-123 39 -137 43q-8 3 -8 11l2 9l18 30q4 9 14 9q5 0 7 -2l116 -78l12 10q-44 113 -51 136q-1 2 -1 7q2 9 11 14l31 13q2 1 6 1q11 0 11 -11l14 -151h13l64 151q5 11 16 11q4 0 5 -1l27 -13q7 -3 7 -10q-1 -8 -4 -11l-97 -136l8 -10l142 78 q6 2 8 2q9 0 11 -9l7 -30v-6q-3 -11 -13 -14l-151 -43l-2 -12l136 -41q8 -3 8 -12z" />
<glyph unicode="+" horiz-adv-x="546" d="M510 245v-16q0 -6 -4.5 -10.5t-10.5 -4.5h-199v-199q0 -6 -4.5 -10.5t-10.5 -4.5h-16q-6 0 -10.5 4.5t-4.5 10.5v199h-199q-6 0 -10.5 4.5t-4.5 10.5v16q0 6 4.5 10.5t10.5 4.5h199v199q0 6 4.5 10.5t10.5 4.5h16q6 0 10.5 -4.5t4.5 -10.5v-199h199q6 0 10.5 -4.5 t4.5 -10.5z" />
<glyph unicode="," horiz-adv-x="188" d="M-36 -160l-4 3q-5 3 -5 11q0 4 3 9q73 92 87 176q2 15 12.5 26.5t24.5 11.5q11 0 17.5 -9t6.5 -21q0 -64 -126 -205q-2 -4 -9 -4q-3 0 -7 2z" />
<glyph unicode="-" horiz-adv-x="341" d="M294 237l-3 -16q-2 -12 -15 -12h-218q-15 0 -15 18l3 16q2 12 15 12h218q15 0 15 -18z" />
<glyph unicode="." horiz-adv-x="189" d="M66 -8q-29 0 -29 31q0 24 12 39t31 15q28 0 28 -32q0 -23 -13 -38t-29 -15z" />
<glyph unicode="/" horiz-adv-x="321" d="M-18 -50l345 721q5 9 14 9h7q16 0 16 -14q0 -3 -2 -7l-345 -721q-5 -9 -14 -9h-7q-16 0 -16 14q0 3 2 7z" />
<glyph unicode="0" horiz-adv-x="384" d="M271 688q56 0 85.5 -55.5t29.5 -152.5q0 -127 -34.5 -241t-89.5 -180.5t-114 -66.5q-57 0 -87 55.5t-30 151.5q0 130 35.5 244t90.5 179.5t114 65.5zM156 38q41 0 84 62t71 163.5t28 205.5q0 79 -19.5 126t-56.5 47q-41 0 -84 -62t-71.5 -163t-28.5 -205q0 -79 20 -126.5 t57 -47.5z" />
<glyph unicode="1" horiz-adv-x="386" d="M296 665l-109 -621h104q15 0 15 -16l-3 -17q-4 -11 -15 -11h-257q-15 0 -15 16l3 17q4 11 15 11h107l102 575l-119 -95q-4 -4 -10 -4q-8 0 -13 11q-2 6 -2 14q0 6 6 12l148 115q10 8 21 8h7q15 0 15 -15z" />
<glyph unicode="2" horiz-adv-x="386" d="M123 590l-1 13q0 6 6 12q82 73 146 73q116 0 116 -138q0 -65 -58 -156.5t-200 -274.5l-58 -75h210q14 0 14 -15v-4l-2 -14q-4 -11 -15 -11h-258q-15 0 -15 14l1 10q2 14 9 21q215 286 271 370.5t56 128.5q0 45 -22.5 71.5t-56.5 26.5q-50 0 -118 -62q-4 -4 -10 -4 q-13 0 -15 14z" />
<glyph unicode="3" horiz-adv-x="386" d="M254 358l1 -4q80 -29 80 -127q0 -102 -64.5 -168.5t-145.5 -66.5q-59 0 -110 38q-5 3 -5 11q0 4 1 5l8 19q5 11 14 11q6 0 10 -4q42 -34 90 -34q61 0 107.5 51.5t46.5 131.5q0 98 -120 105q-14 2 -14 15l3 19q2 12 14 12q49 4 87 36t54.5 69.5t16.5 69.5q0 43 -21 69 t-60 26q-37 0 -96 -40q-5 -3 -8 -3q-13 0 -15 15v6q0 6 -1 10q0 8 7 13q73 45 121 45q52 0 86.5 -36.5t34.5 -96.5q0 -56 -33 -112.5t-89 -84.5z" />
<glyph unicode="4" horiz-adv-x="384" d="M286 189l-31 -176q-2 -13 -15 -13h-12q-15 0 -15 15l30 174h-206q-15 0 -15 14l3 16q1 9 7 18l294 436q5 7 12 7h16q15 0 15 -15l-75 -432h43q15 0 15 -16l-3 -17q-4 -11 -15 -11h-48zM82 239l-1 -8q34 2 115 2h55q44 255 57 313l10 49h-6z" />
<glyph unicode="5" horiz-adv-x="386" d="M207 638l-48 -198q25 3 42 3q63 0 97.5 -45t34.5 -119q0 -111 -65 -199t-147 -88q-42 0 -93 21q-9 3 -9 14q0 4 1 6l8 17q3 9 14 9q4 0 6 -1q50 -20 81 -20q60 0 109 72t49 161q0 56 -24 91t-70 35q-31 0 -66 -10q-2 -1 -5 -1q-6 0 -10.5 4.5t-4.5 10.5q0 1 0.5 2t0.5 2 l62 263q1 4 5.5 8t9.5 4h195q5 0 9.5 -4t4.5 -10l-2 -13q-3 -15 -15 -15h-170z" />
<glyph unicode="6" horiz-adv-x="384" d="M361 282q0 -124 -63.5 -207t-149.5 -83q-63 0 -98 43.5t-35 118.5q0 73 25 145.5t71 139.5t93.5 120.5t110.5 113.5q7 7 20 7h10q15 0 15 -15q0 -7 -5 -11q-129 -117 -203 -230l3 -3q38 22 73 22q63 0 98 -43t35 -118zM314 274q0 57 -23.5 90t-69.5 33q-71 0 -115 -65.5 t-44 -167.5q0 -58 24.5 -92t69.5 -34q63 0 110.5 68.5t47.5 167.5z" />
<glyph unicode="7" horiz-adv-x="384" d="M442 662l-1 -9q-2 -8 -4 -12l-324 -633q-4 -8 -13 -8h-15q-15 0 -15 14q0 2 2 8l316 617h-252l-27 -151q-2 -13 -15 -13h-7q-15 0 -15 15l30 178q2 12 15 12h310q15 0 15 -18z" />
<glyph unicode="8" horiz-adv-x="386" d="M253 358q78 -70 78 -160q0 -87 -55 -147t-127 -60q-56 0 -89.5 36t-33.5 95q0 135 150 237v4q-70 62 -70 137q0 77 48.5 132.5t117.5 55.5q54 0 82 -33.5t28 -88.5q0 -117 -129 -204v-4zM155 528q-2 -8 -2 -23q0 -62 66 -117q116 79 116 170q0 38 -18.5 61t-52.5 23 q-42 0 -71 -32t-38 -82zM157 37q52 0 89.5 43.5t37.5 112.5q0 79 -75 141q-136 -89 -136 -206q0 -43 22.5 -67t61.5 -24z" />
<glyph unicode="9" horiz-adv-x="384" d="M58 398q0 124 63.5 207t149.5 83q63 0 98 -43.5t35 -118.5q0 -73 -25 -145.5t-71 -139.5t-93.5 -120.5t-110.5 -113.5q-7 -7 -20 -7h-10q-15 0 -15 15q0 7 5 11q129 117 203 230l-3 3q-38 -22 -73 -22q-63 0 -98 43t-35 118zM105 406q0 -57 23.5 -90t69.5 -33 q71 0 115 65.5t44 167.5q0 58 -24.5 92t-69.5 34q-63 0 -110.5 -68.5t-47.5 -167.5z" />
<glyph unicode=":" horiz-adv-x="189" d="M126 327q-29 0 -29 31q0 24 12.5 39t30.5 15q28 0 28 -32q0 -24 -12.5 -38.5t-29.5 -14.5zM66 -8q-29 0 -29 31q0 24 12.5 39t30.5 15q28 0 28 -32q0 -24 -12.5 -38.5t-29.5 -14.5z" />
<glyph unicode=";" horiz-adv-x="191" d="M126 327q-29 0 -29 31q0 24 12 39t31 15q28 0 28 -32q0 -23 -13 -38t-29 -15zM-36 -160l-4 3q-5 3 -5 11q0 4 3 9q73 92 87 176q2 15 12.5 26.5t24.5 11.5q11 0 17.5 -9t6.5 -21q0 -64 -126 -205q-2 -4 -9 -4q-3 0 -7 2z" />
<glyph unicode="&#x3c;" horiz-adv-x="546" d="M45 263l431 207q2 1 6 1q8 0 13 -8l7 -14q2 -4 2 -7q0 -8 -8 -13q-322 -156 -403 -190l403 -193q8 -5 8 -13q0 -3 -2 -7l-7 -14q-5 -8 -13 -8q-4 0 -6 1l-431 207q-9 4 -9 14v23q0 9 9 14z" />
<glyph unicode="=" horiz-adv-x="546" d="M51 359h444q6 0 10.5 -4.5t4.5 -10.5v-16q0 -6 -4.5 -10.5t-10.5 -4.5h-444q-6 0 -10.5 4.5t-4.5 10.5v16q0 6 4.5 10.5t10.5 4.5zM51 161h444q6 0 10.5 -4.5t4.5 -10.5v-16q0 -6 -4.5 -10.5t-10.5 -4.5h-444q-6 0 -10.5 4.5t-4.5 10.5v16q0 6 4.5 10.5t10.5 4.5z" />
<glyph unicode="&#x3e;" horiz-adv-x="546" d="M495 212l-431 -207q-2 -1 -6 -1q-8 0 -13 8l-7 14q-2 4 -2 7q0 8 8 13q322 156 403 190l-403 193q-8 5 -8 13q0 3 2 7l7 14q5 8 13 8q4 0 6 -1l431 -207q9 -5 9 -14v-23q0 -10 -9 -14z" />
<glyph unicode="?" horiz-adv-x="294" d="M69 -8q17 0 29.5 14.5t12.5 38.5q0 32 -28 32q-18 0 -30.5 -15t-12.5 -39q0 -31 29 -31zM112 644l-2 12q0 10 9 14q41 18 82 18q47 0 72 -26.5t25 -70.5q0 -33 -13.5 -67.5t-26 -54.5t-38.5 -55l-32 -43q-33 -47 -48 -81.5t-27 -107.5q-1 -10 -14 -10q-17 0 -17 15 q11 114 70 198q16 20 23 30q28 37 41 55.5t25 49.5t12 62q0 62 -69 62q-26 0 -50 -11q-6 -2 -9 -2q-11 0 -13 13z" />
<glyph unicode="@" horiz-adv-x="765" d="M473 -80l3 -10q1 -2 1 -5q0 -11 -10 -14q-57 -19 -118 -19q-144 0 -229 91t-85 233q0 171 108 288.5t270 117.5q139 0 228 -85t89 -215q0 -122 -57 -188t-126 -66q-36 0 -60 22.5t-24 63.5v11h-4q-53 -97 -142 -97q-46 0 -73.5 30t-27.5 86q0 61 20.5 113t51.5 83.5 t66 49t67 17.5q63 0 122 -42q5 -3 5 -13q-41 -151 -41 -208q0 -72 53 -72q11 0 23 3t31 15t33.5 32.5t25 60t10.5 92.5q0 117 -76 190t-197 73q-142 0 -235 -102t-93 -257q0 -126 73 -204.5t198 -78.5q53 0 102 14q1 0 2 0.5t2 0.5q11 0 14 -11zM496 354q-38 29 -81 29 q-47 0 -94 -50t-57 -145q-1 -5 -1 -14q0 -37 21.5 -59.5t51.5 -22.5q41 0 77 45t56.5 103t26.5 114z" />
<glyph unicode="A" horiz-adv-x="438" d="M106 188l-77 -179q-4 -9 -14 -9h-15q-16 0 -16 14q0 3 2 7l286 650q4 9 14 9h14q13 0 15 -14l62 -650q0 -16 -15 -16h-15q-13 0 -15 14l-15 174h-211zM124 232h189q-1 0 -7.5 85.5l-13.5 177.5t-7 106h-5q-9 -29 -156 -369z" />
<glyph unicode="B" horiz-adv-x="418" d="M230 333h-98l-50 -291q26 -6 83 -6t95 32.5t52.5 73.5t14.5 86q0 49 -25.5 77t-71.5 28zM253 644q-35 0 -67 -5l-46 -262h84q50 0 86.5 54t36.5 123q0 90 -94 90zM253 688q140 0 140 -128q0 -62 -29 -119t-76 -78l-1 -3q34 -9 59 -44.5t25 -91.5q0 -95 -54.5 -163.5 t-168.5 -68.5q-66 0 -101 5q-13 2 -13 16l114 657q2 10 12 12q34 6 93 6z" />
<glyph unicode="C" horiz-adv-x="443" d="M377 60v-12q0 -8 -7 -13q-66 -43 -138 -43q-83 0 -131.5 70.5t-48.5 185.5q1 181 93.5 310.5t209.5 129.5q71 0 120 -41q5 -5 5 -13q0 -4 -1 -5l-7 -17q-4 -9 -13 -9q-5 0 -10 3q-48 38 -102 38q-93 0 -170.5 -119t-78.5 -276q0 -97 38.5 -155t103.5 -58q52 0 114 37 q6 2 8 2q15 0 15 -15z" />
<glyph unicode="D" horiz-adv-x="501" d="M34 13l114 657q2 10 12 12q34 6 109 6q109 0 161 -69.5t52 -184.5q-1 -112 -37.5 -210.5t-115 -165t-183.5 -66.5q-64 0 -99 5q-13 2 -13 16zM427 342q10 62 10 103q0 100 -44.5 149.5t-125.5 49.5q-51 0 -81 -6l-105 -597q40 -5 79 -5q99 0 170 79.5t97 226.5z" />
<glyph unicode="E" horiz-adv-x="363" d="M394 662l-3 -15q-4 -11 -15 -11h-191l-44 -260h163q15 0 15 -19l-3 -13q-4 -11 -15 -11h-169q-8 -50 -25 -143l-26 -146h190q15 0 15 -19l-3 -14q-4 -11 -15 -11h-219q-15 0 -15 18l114 650q2 12 15 12h216q15 0 15 -18z" />
<glyph unicode="F" horiz-adv-x="344" d="M387 662l-3 -15q-4 -11 -15 -11h-184l-44 -260h159q15 0 15 -19l-3 -13q-4 -11 -15 -11h-165l-56 -320q-2 -13 -15 -13h-12q-15 0 -15 18l114 650q2 12 15 12h209q15 0 15 -18z" />
<glyph unicode="G" horiz-adv-x="503" d="M446 334l-55 -310q-2 -11 -12 -13q-79 -19 -148 -19q-84 0 -131.5 69.5t-47.5 186.5q0 181 93 310.5t209 129.5q71 0 120 -41q5 -5 5 -13q0 -4 -1 -5l-7 -17q-5 -10 -13 -10q-6 0 -10 4q-46 38 -102 38q-60 0 -117.5 -53.5t-94.5 -146t-37 -195.5q0 -98 38.5 -155.5 t103.5 -57.5q33 0 115 15l45 253h-81q-15 0 -15 16l3 17q4 11 15 11h110q15 0 15 -14z" />
<glyph unicode="H" horiz-adv-x="495" d="M496 665l-114 -653q-2 -12 -15 -12h-12q-15 0 -15 15l55 314h-263l-56 -317q-2 -12 -15 -12h-12q-15 0 -15 15l114 653q2 12 15 12h12q15 0 15 -14l-51 -293h263l52 295q2 12 15 12h12q15 0 15 -15z" />
<glyph unicode="I" horiz-adv-x="302" d="M198 0h-172q-15 0 -15 13l2 15q2 14 15 14h66l105 596h-61q-15 0 -15 13l2 15q2 14 15 14h172q15 0 15 -14l-2 -14q-3 -14 -15 -14h-68l-105 -596h63q15 0 15 -14l-2 -14q-3 -14 -15 -14z" />
<glyph unicode="J" horiz-adv-x="313" d="M267 638h-103q-15 0 -15 13l2 15q2 14 15 14h132q15 0 15 -15l-94 -536q-10 -57 -48 -97t-87 -40q-44 0 -78 36q-4 4 -4 11q0 3 2 7l11 16q4 7 13 7q7 0 11 -5q23 -26 52 -26q30 0 55 27t31 63z" />
<glyph unicode="K" horiz-adv-x="420" d="M405 680q16 0 16 -15q0 -6 -4 -10l-232 -282l165 -352q2 -4 2 -7q0 -14 -16 -14h-14q-10 0 -14 9l-169 360l-63 -357q-2 -12 -15 -12h-12q-15 0 -15 18l114 650q2 12 15 12h13q15 0 15 -17l-49 -276l238 288q5 5 12 5h13z" />
<glyph unicode="L" horiz-adv-x="349" d="M189 665l-109 -621h194q14 0 14 -15v-4l-2 -14q-2 -11 -15 -11h-223q-15 0 -15 15l114 653q2 12 15 12h12q15 0 15 -15z" />
<glyph unicode="M" horiz-adv-x="602" d="M593 665l-98 -652q-2 -12 -14 -12h-14q-15 0 -15 15q0 2 20 131.5l43.5 280t31.5 195.5h-4l-225 -366q-5 -8 -13 -8q-11 0 -14 12l-97 362h-4q-62 -343 -118 -611q-2 -12 -14 -12h-13q-15 0 -15 15l129 653q2 12 15 12h35q10 0 14 -11l92 -335l211 339q5 7 13 7h39 q15 0 15 -15z" />
<glyph unicode="N" horiz-adv-x="525" d="M510 680q15 0 15 -18l-114 -650q-2 -12 -15 -12h-37q-10 0 -14 11l-163 612h-5q-5 -55 -15 -115l-87 -496q-2 -12 -15 -12h-12q-15 0 -15 18l114 650q2 12 15 12h35q11 0 15 -11l163 -613h5q4 42 16 115l87 497q2 12 15 12h12z" />
<glyph unicode="O" d="M522 442q-1 -190 -88.5 -320t-207.5 -130q-85 0 -130 65.5t-45 178.5q0 189 89 320.5t209 131.5q83 0 128 -66t45 -180zM477 446q0 94 -35 145t-101 51q-96 0 -170 -117.5t-74 -291.5q0 -92 36 -143.5t101 -51.5q96 0 169 117t74 291z" />
<glyph unicode="P" horiz-adv-x="380" d="M252 644q-34 0 -67 -5l-57 -325h84q55 0 97 61.5t43 154.5q0 114 -100 114zM32 15l115 655q2 10 12 12q38 6 93 6q77 0 111 -43.5t34 -112.5q-1 -128 -61 -195t-135 -67h-81l-46 -258q-2 -12 -15 -12h-12q-15 0 -15 15z" />
<glyph unicode="Q" d="M387 -107l-6 -18q-4 -9 -15 -9q-75 3 -114.5 39.5t-45.5 87.5q-76 8 -115.5 74t-39.5 169q0 190 89 321t209 131q83 0 128 -66t45 -180q0 -172 -76 -300t-190 -148q0 -33 33.5 -55.5t84.5 -25.5q14 0 14 -15q0 -3 -1 -5zM234 38q96 0 169.5 117.5t73.5 292.5 q0 93 -35.5 143.5t-100.5 50.5q-95 0 -170 -118t-75 -287q0 -95 36 -147t102 -52z" />
<glyph unicode="R" horiz-adv-x="405" d="M253 644q-35 0 -67 -5l-52 -297h63q62 0 103.5 55.5t41.5 136.5q0 110 -89 110zM185 299h-59l-51 -287q-2 -12 -15 -12h-12q-15 0 -15 15l115 655q2 10 12 12q38 6 93 6q51 0 82 -24t41 -55t10 -71q-1 -90 -43.5 -148t-92.5 -77l-1 -3q39 -28 74 -186q21 -97 23 -104v-4 q0 -16 -15 -16h-15q-14 0 -19 18l-3 17q-8 48 -14.5 78.5t-20.5 81t-33 77.5t-41 27z" />
<glyph unicode="S" horiz-adv-x="346" d="M125 -8q-69 0 -116 49q-3 3 -3 10q0 6 2 9l10 16q4 8 12 8q7 0 12 -5q40 -40 87 -40q48 0 82.5 46.5t34.5 115.5q0 29 -12 57t-23.5 42t-36.5 41q-26 28 -38.5 43.5t-25.5 47t-13 65.5q0 90 50 140.5t112 50.5q47 0 84 -31q5 -5 5 -11q0 -3 -2 -7l-9 -20q-3 -8 -12 -8 q-5 0 -10 3q-34 28 -66 28q-41 0 -74 -37.5t-34 -100.5q0 -26 11.5 -52t23 -39.5t31.5 -34.5q24 -27 39 -45.5t30 -55t15 -73.5q0 -95 -53 -153.5t-113 -58.5z" />
<glyph unicode="T" horiz-adv-x="377" d="M434 665l-2 -16q-4 -13 -16 -13h-134l-110 -624q-2 -12 -15 -12h-13q-15 0 -15 15l109 621h-132q-15 0 -15 17l2 14q3 13 15 13h311q15 0 15 -15z" />
<glyph unicode="U" horiz-adv-x="507" d="M481 680h12q15 0 15 -15l-85 -482q-14 -79 -76.5 -135t-136.5 -56q-66 0 -108.5 45.5t-42.5 115.5q0 21 3 37l85 478q2 12 15 12h12q15 0 15 -15l-85 -480q-2 -9 -2 -28q0 -52 32.5 -85t83.5 -33q56 0 104 45t59 106l85 478q2 12 15 12z" />
<glyph unicode="V" horiz-adv-x="446" d="M189 81h6q54 143 254 590q5 9 14 9h15q16 0 16 -14q0 -3 -2 -7l-284 -650q-4 -9 -14 -9h-23q-13 0 -15 14l-56 650v2q0 14 15 14h15q13 0 15 -14q44 -513 44 -585z" />
<glyph unicode="W" horiz-adv-x="694" d="M744 660l-237 -650q-4 -10 -14 -10h-27q-13 0 -15 14q-37 500 -37 576v8h-6q-55 -147 -245 -589q-4 -9 -14 -9h-35q-6 0 -10.5 4.5t-4.5 10.5v650q0 6 4.5 10.5t10.5 4.5h14q6 0 10.5 -4.5t4.5 -10.5v-584h6q34 99 238 568q2 6 5.5 13l4.5 9q4 9 14 9h22q10 0 11 -10 q37 -495 40 -589h6l207 589q4 10 14 10h19q15 0 15 -14q0 -4 -1 -6z" />
<glyph unicode="X" horiz-adv-x="451" d="M271 359l119 -339q1 -2 1 -6q0 -14 -15 -14h-16q-10 0 -14 10l-104 302h-4l-213 -306q-4 -6 -12 -6h-17q-15 0 -15 14q0 6 3 10l235 335l-106 301q-1 2 -1 6q0 14 15 14h16q10 0 14 -10l91 -265h4l188 269q4 6 12 6h17q15 0 15 -14q0 -6 -3 -10z" />
<glyph unicode="Y" horiz-adv-x="396" d="M229 305l-51 -293q-2 -12 -15 -12h-10q-15 0 -15 15l50 293l-84 354q0 18 15 18h14q9 0 12 -9q60 -242 70 -308h5q28 59 179 310q5 7 13 7h13q15 0 15 -15q0 -6 -2 -9z" />
<glyph unicode="Z" horiz-adv-x="432" d="M98 97l-33 -47v-6h271q15 0 15 -16l-3 -17q-4 -11 -15 -11h-315q-15 0 -15 13q0 1 2 13q2 7 4 10l375 596v4h-247q-14 0 -14 17l2 16q3 11 14 11h293q15 0 15 -15v-4q-1 -10 -6 -16z" />
<glyph unicode="[" horiz-adv-x="219" d="M267 662l-2 -8q0 -6 -4.5 -10.5t-10.5 -4.5h-74l-142 -804h69q15 0 15 -19l-1 -3q-1 -1 -1 -3v-1q0 -6 -4.5 -10.5t-10.5 -4.5h-97q-15 0 -15 18l151 856q2 12 15 12h97q15 0 15 -18z" />
<glyph unicode="\" horiz-adv-x="321" d="M146 667l92 -721q0 -17 -15 -17h-10q-13 0 -15 13q-13 107 -44.5 348t-47.5 373q0 17 15 17h10q13 0 15 -13z" />
<glyph unicode="]" horiz-adv-x="219" d="M100 657l2 8q0 6 4.5 10.5t10.5 4.5h97q15 0 15 -18l-151 -856q-2 -12 -15 -12h-96q-6 0 -10.5 4.5t-4.5 10.5l2 11q0 6 4.5 10.5t10.5 4.5h72l142 804h-68q-15 0 -15 18z" />
<glyph unicode="^" horiz-adv-x="519" d="M263 642h-5l-172 -399q-4 -9 -14 -9h-12q-16 0 -16 14q0 3 2 7l188 424q4 9 14 9h25q10 0 14 -9l188 -424q2 -4 2 -7q0 -14 -16 -14h-12q-10 0 -14 9z" />
<glyph unicode="_" horiz-adv-x="351" d="M282 -102l-2 -13q-3 -14 -15 -14h-303q-6 0 -10.5 4.5t-4.5 9.5q0 1 2 12q2 15 15 15h303q15 0 15 -14z" />
<glyph unicode="`" horiz-adv-x="298" d="M189 680h19q8 0 10 -6l44 -91q1 -2 1 -7q-2 -17 -17 -17q-8 0 -13 5l-59 91q-2 4 -2 8q3 17 17 17z" />
<glyph unicode="a" horiz-adv-x="382" d="M303 0l-12 -3q-17 0 -19 14q-3 23 -3 55q0 21 3 54h-4q-28 -59 -65 -93.5t-69 -34.5q-50 0 -78.5 43t-28.5 119q0 79 20.5 144.5t51.5 104t64.5 59t63.5 20.5q66 0 123 -65q2 -4 2 -8v-4l-18 -101q-25 -148 -25 -224q0 -38 5 -63v-4q0 -10 -11 -13zM220 439 q-19 0 -43 -16.5t-48.5 -48.5t-41 -89t-16.5 -127q0 -60 20 -91.5t51 -31.5q17 0 42 25t51 69t46.5 116.5t26.5 154.5q-32 39 -88 39z" />
<glyph unicode="b" horiz-adv-x="383" d="M153 -8q-64 0 -123 41q-6 6 -6 13l110 622q2 12 15 12h11q15 0 15 -15l-49 -284h4q25 49 56 75t60 26q50 0 78.5 -43.5t28.5 -118.5q0 -79 -20 -144t-51 -103.5t-65 -59.5t-64 -21zM239 439q-44 0 -95.5 -103.5t-73.5 -273.5q39 -27 91 -27q46 0 97 75t51 207 q0 59 -19.5 90.5t-50.5 31.5z" />
<glyph unicode="c" horiz-adv-x="312" d="M249 48l2 -13q0 -8 -7 -13q-51 -30 -100 -30q-56 0 -86.5 46.5t-30.5 124.5q1 135 61 227t142 92q47 0 86 -27q6 -5 6 -13q0 -3 -1 -5l-8 -16q-5 -9 -14 -9q-4 0 -9 3q-33 23 -67 23q-59 0 -105.5 -80t-47.5 -195q0 -61 21 -94t61 -33q34 0 75 22q4 2 7 2q13 0 15 -12z " />
<glyph unicode="d" horiz-adv-x="382" d="M272 120h-4q-30 -61 -65.5 -94.5t-68.5 -33.5q-50 0 -78.5 43t-28.5 119q0 79 20.5 144.5t51.5 104t64.5 59t63.5 20.5q51 0 91 -33l38 219q2 12 15 12h11q15 0 15 -14l-63 -363q-25 -143 -25 -225q0 -36 5 -61v-4q0 -11 -11 -14l-12 -3h-4q-13 0 -15 13q-4 28 -4 54 t4 57zM308 400q-32 39 -88 39q-19 0 -43 -16.5t-48.5 -48.5t-41 -89t-16.5 -127q0 -60 20 -91.5t51 -31.5q17 0 42 25t50.5 69t46.5 116.5t27 154.5z" />
<glyph unicode="e" horiz-adv-x="336" d="M250 51l3 -12q0 -1 1 -3q0 -9 -8 -13q-55 -31 -101 -31q-57 0 -87.5 45.5t-30.5 122.5q0 132 61 227t143 95q46 0 69 -29t23 -70q0 -73 -67.5 -113t-178.5 -42q-5 -31 -5 -63q0 -60 21 -94.5t60 -34.5q35 0 76 23q4 3 9 3q9 0 12 -11zM85 270q82 0 138.5 28t56.5 86 q0 54 -56 54q-44 0 -82 -44.5t-57 -123.5z" />
<glyph unicode="f" horiz-adv-x="204" d="M213 458l-2 -10q-2 -15 -15 -15h-58l-74 -421q-2 -12 -15 -12h-10q-15 0 -15 15l73 418h-17q-6 0 -10.5 4.5t-4.5 9.5q0 1 2 12q4 15 15 15h22l16 93q10 58 41 89.5t77 31.5q29 0 53 -9q12 -4 12 -13l-1 -2v-2l-6 -14q-3 -12 -15 -12q-3 0 -4 1q-19 6 -39 6 q-63 0 -77 -76l-16 -93h53q15 0 15 -16z" />
<glyph unicode="g" horiz-adv-x="391" d="M360 408l-83 -470q-14 -73 -57 -112.5t-98 -39.5q-41 0 -85 23q-8 6 -8 14l4 18q2 12 15 12q3 0 7 -2q42 -21 74 -21q43 0 69.5 28t35.5 76l30 170h-4q-21 -44 -54 -70.5t-62 -26.5q-51 0 -79.5 41.5t-28.5 115.5q0 148 65 233t133 85q72 0 122 -62q4 -4 4 -12zM80 171 q0 -60 19.5 -90.5t51.5 -30.5q42 0 95.5 98.5t69.5 254.5q-36 36 -88 36q-46 0 -97 -70.5t-51 -197.5z" />
<glyph unicode="h" horiz-adv-x="366" d="M175 666l-46 -266q49 82 106 82q96 0 96 -91q0 -22 -5 -47l-58 -332q-2 -12 -15 -12h-12q-15 0 -15 15l59 341q2 9 2 26q0 56 -54 56q-19 0 -42 -19t-50.5 -72t-41.5 -131l-38 -204q-2 -12 -15 -12h-11q-15 0 -15 15l114 653q2 12 15 12h11q15 0 15 -14z" />
<glyph unicode="i" horiz-adv-x="160" d="M139 459l-78 -447q-2 -12 -15 -12h-11q-15 0 -15 15l78 447q2 12 15 12h11q15 0 15 -15zM175 606q0 -21 -11.5 -34.5t-26.5 -13.5q-25 0 -25 29q0 21 11.5 34.5t26.5 13.5q25 0 25 -29z" />
<glyph unicode="j" horiz-adv-x="160" d="M-108 -195l-1 12q0 13 11 15q87 21 104 111l92 519q2 12 15 12h11q15 0 15 -15q0 -2 -89 -507q-23 -131 -142 -162q-2 -1 -5 -1q-11 0 -11 16zM175 606q0 -21 -11.5 -34.5t-26.5 -13.5q-25 0 -25 29q0 21 11.5 34.5t26.5 13.5q25 0 25 -29z" />
<glyph unicode="k" horiz-adv-x="301" d="M108 279l-46 -267q-2 -12 -15 -12h-11q-15 0 -15 18l114 650q2 12 15 12h11q15 0 15 -18l-64 -363h4l147 170q5 5 11 5h12q15 0 15 -14q0 -7 -4 -11l-142 -167l95 -262q1 -2 1 -6q0 -14 -15 -14h-16q-10 0 -14 10q-82 232 -94 269h-4z" />
<glyph unicode="l" horiz-adv-x="214" d="M163 23l1 -12q0 -13 -12 -15q-20 -4 -39 -4q-37 0 -59 22t-22 59q0 14 4 36l98 559q2 12 15 12h11q15 0 15 -15l-97 -553q-2 -8 -2 -24q0 -53 49 -53q7 0 21 2q15 0 17 -14z" />
<glyph unicode="m" horiz-adv-x="573" d="M532 344l-58 -332q-2 -12 -15 -12h-11q-15 0 -15 15l59 340q2 9 2 26q0 57 -55 57q-13 0 -30.5 -11.5t-37.5 -35.5t-38 -70t-29 -106l-36 -203q-2 -12 -15 -12h-12q-15 0 -15 15l59 340q2 10 2 26q0 57 -54 57q-14 0 -31.5 -11.5t-37.5 -35t-38.5 -69.5t-28.5 -106 l-36 -204q-2 -12 -15 -12h-15q-11 0 -11 14v4l45 259q18 102 24 179v4q2 14 15 14h12q10 0 10 -13q-3 -39 -7 -74h4q25 47 54.5 71t57.5 24q93 0 93 -91h5q23 43 52 67t56 24q96 0 96 -91q0 -22 -5 -47z" />
<glyph unicode="n" horiz-adv-x="366" d="M125 461q0 -24 -6 -74h4q24 46 54 70.5t58 24.5q95 0 95 -91q0 -27 -4 -47l-58 -332q-2 -12 -15 -12h-12q-15 0 -15 15l59 341q2 18 2 26q0 56 -54 56q-13 0 -30.5 -11.5t-37.5 -35.5t-38.5 -69.5t-29.5 -105.5l-36 -204q-2 -12 -15 -12h-14q-13 0 -13 14l46 263 q9 54 15 99q6 46 7 64l1 18q0 16 16 16h10q11 0 11 -13z" />
<glyph unicode="o" horiz-adv-x="378" d="M348 311q-1 -134 -61 -226.5t-142 -92.5q-57 0 -87.5 46.5t-30.5 124.5q0 134 61 226.5t143 92.5q57 0 87 -46t30 -125zM305 314q0 124 -81 124q-59 0 -106.5 -80.5t-47.5 -194.5q0 -61 21.5 -94t61.5 -33q59 0 105.5 81t46.5 197z" />
<glyph unicode="p" horiz-adv-x="382" d="M61 25l-39 -218q-2 -13 -15 -13h-9q-15 0 -15 15q0 1 19 109.5l40 226t23 131.5q17 94 24 184q2 14 15 14h11q10 0 10 -11q-2 -48 -8 -86h4q59 105 118 105q51 0 82 -43.5t31 -118.5q0 -79 -20.5 -144.5t-51.5 -104t-65 -59t-64 -20.5q-48 0 -90 33zM307 315q0 60 -19 92 t-50 32q-18 0 -42.5 -25t-49 -69.5t-45.5 -116t-30 -154.5q36 -39 88 -39q20 0 44 16.5t48 48.5t40 88.5t16 126.5z" />
<glyph unicode="q" horiz-adv-x="382" d="M318 -181l-1 -10q-2 -15 -15 -15h-82q-15 0 -15 15l50 284h-4q-23 -48 -55 -74.5t-62 -26.5q-50 0 -78.5 43t-28.5 119q0 79 20.5 144t51.5 103.5t64.5 59.5t63.5 21q62 0 122 -41q6 -6 6 -13l-104 -594h52q15 0 15 -15zM142 35q43 0 97.5 106t70.5 271q-39 27 -90 27 q-47 0 -98 -74.5t-51 -206.5q0 -60 20 -91.5t51 -31.5z" />
<glyph unicode="r" horiz-adv-x="268" d="M127 461q-2 -33 -9 -84h4q27 50 59.5 77.5t60.5 27.5q25 0 42 -6q10 -4 10 -14l-5 -25q-2 -15 -15 -15q-4 0 -8 3q-14 9 -33 9q-13 0 -31 -13t-38.5 -38t-39 -71t-28.5 -104l-34 -196q-2 -12 -15 -12h-14q-12 0 -12 12v4l45 261q21 121 24 181q2 16 15 16h9q13 0 13 -13z " />
<glyph unicode="s" horiz-adv-x="270" d="M-7 46l5 12q5 11 14 11q6 0 10 -4q31 -29 64 -29q31 0 58 28t27 81q0 18 -9.5 34.5t-19 25.5t-29.5 25q-21 17 -31.5 28t-21 34.5t-10.5 52.5q0 62 39.5 99.5t80.5 37.5q37 0 76 -30q7 -5 7 -15q0 -1 -1 -3l-8 -17q-3 -9 -12 -9q-5 0 -11 4q-32 26 -56 26q-26 0 -48 -28 t-22 -69q0 -17 9.5 -33t18 -24l27.5 -25q22 -19 32.5 -29.5t22 -32.5t11.5 -47q0 -78 -40 -118t-92 -40q-51 0 -89 35q-4 4 -4 10q0 3 2 9z" />
<glyph unicode="t" horiz-adv-x="246" d="M138 433l-56 -318q-2 -16 -2 -23q0 -55 51 -55q21 0 38 5q1 0 2 0.5t2 0.5q13 0 15 -15l1 -12q0 -10 -10 -14q-28 -10 -64 -10q-37 0 -58 21.5t-21 58.5q0 11 4 37l57 324h-17q-6 0 -10.5 4.5t-4.5 9.5q0 1 2 12q3 15 15 15h22l11 59q2 11 11 14l14 6q2 1 5 1 q11 0 11 -15l-11 -65h76q15 0 15 -15v-4l-1 -7q-2 -15 -16 -15h-81z" />
<glyph unicode="u" horiz-adv-x="367" d="M267 257l36 205q2 12 15 12h14q12 0 12 -12v-4l-45 -261q-9 -54 -15 -99q-6 -46 -7 -64l-1 -18q0 -16 -15 -16h-10q-12 0 -12 14l6 73h-4q-25 -45 -57.5 -70t-60.5 -25q-16 0 -29 2.5t-28 11t-23.5 28t-8.5 49.5q0 27 4 47l58 332q2 12 15 12h12q15 0 15 -15l-59 -341 q-2 -14 -2 -26q0 -56 54 -56q13 0 31 11.5t38 35.5t38.5 69.5t28.5 104.5z" />
<glyph unicode="v" horiz-adv-x="328" d="M132 81h4q9 27 49.5 123l76.5 178l36 83q4 9 14 9h14q16 0 16 -14q0 -3 -2 -7l-194 -444q-4 -9 -14 -9h-18q-13 0 -15 14l-36 444q0 16 15 16h13q13 0 15 -14q26 -330 26 -379z" />
<glyph unicode="w" horiz-adv-x="497" d="M484 474h13q15 0 15 -14q0 -4 -1 -6l-161 -444q-4 -10 -14 -10h-19q-14 0 -16 15q-24 352 -24 375h-4l-156 -381q-4 -9 -14 -9h-25q-6 0 -10.5 4.5t-4.5 10.5v444q0 6 4.5 10.5t10.5 4.5h11q6 0 10.5 -4.5t4.5 -10.5v-378h4q32 86 159 384q4 9 14 9h10q13 0 15 -14 q25 -331 25 -379h4l135 383q4 10 14 10z" />
<glyph unicode="x" horiz-adv-x="336" d="M144 258l-68 196q-1 2 -1 6q0 14 15 14h15q11 0 14 -10l53 -160h4l113 164q4 6 12 6h16q15 0 15 -14q0 -6 -3 -10l-136 -192l84 -238q1 -2 1 -6q0 -14 -15 -14h-14q-10 0 -14 10l-70 201h-4l-142 -204q-5 -7 -12 -7h-14q-15 0 -15 14q0 6 3 10z" />
<glyph unicode="y" horiz-adv-x="327" d="M-56 -195l-1 14q0 10 9 14q47 19 77 48.5t54 86.5l14 35l-35 455q0 16 15 16h13q13 0 15 -14q26 -316 26 -379h4q6 20 46.5 116l78.5 182l37 86q4 9 14 9h14q15 0 15 -14q0 -5 -1 -7l-221 -505q-27 -61 -64 -97.5t-89 -57.5q-4 -2 -7 -2q-12 0 -14 14z" />
<glyph unicode="z" horiz-adv-x="318" d="M244 24l-1 -9q-4 -15 -16 -15h-217q-15 0 -15 14q0 4 3 9l251 410h-157q-6 0 -10.5 4.5t-4.5 9.5q0 1 2 12q3 15 15 15h201q15 0 15 -14q0 -4 -3 -9l-252 -410h174q15 0 15 -17z" />
<glyph unicode="{" horiz-adv-x="256" d="M75 240l-1 -4q66 -29 66 -105q0 -22 -4 -42q-3 -16 -18 -68t-18 -67q-4 -20 -4 -41q0 -61 50 -79q1 0 6 -4t5 -7v-4l-6 -15q-3 -7 -12 -7q-4 0 -6 1q-80 20 -80 113q0 22 4 42q2 12 18.5 70.5t19.5 76.5q2 9 2 26q0 72 -61 90q-9 4 -9 12l3 18q2 10 13 14 q41 11 67.5 43.5t33.5 72.5q3 18 7.5 76t6.5 71q23 130 130 155q2 1 7 1q9 0 9 -7v-17q-1 -9 -15 -13q-71 -22 -88 -120q-3 -16 -6.5 -68.5t-5.5 -66.5q-19 -110 -114 -147z" />
<glyph unicode="|" horiz-adv-x="197" d="M118 665v-856q0 -6 -4.5 -10.5t-10.5 -4.5h-9q-6 0 -10.5 4.5t-4.5 10.5v856q0 6 4.5 10.5t10.5 4.5h9q6 0 10.5 -4.5t4.5 -10.5z" />
<glyph unicode="}" horiz-adv-x="256" d="M179 236l1 4q-66 29 -66 105q0 22 4 42q3 16 18 68t18 67q4 20 4 41q0 61 -50 79q-1 0 -6 4t-5 7v4l6 15q3 7 12 7q4 0 6 -1q80 -20 80 -113q0 -22 -4 -42q-2 -12 -18.5 -70.5t-19.5 -76.5q-2 -9 -2 -26q0 -72 61 -90q9 -4 9 -12l-3 -18q-2 -10 -13 -14 q-41 -11 -67.5 -43.5t-33.5 -72.5q-3 -18 -7.5 -76t-6.5 -71q-23 -130 -130 -155q-2 -1 -7 -1q-9 0 -9 7v17q1 9 15 13q71 22 88 120q3 16 6.5 68.5t5.5 66.5q19 110 114 147z" />
<glyph unicode="~" horiz-adv-x="543" d="M250 307q-81 37 -116 37q-27 0 -43.5 -19.5t-19.5 -53.5q-2 -14 -15 -14h-11q-15 0 -15 14q3 55 32.5 87.5t73.5 32.5q28 0 55 -9t86 -36q95 -43 139 -43q27 0 42 20t17 53q2 14 15 14h11q15 0 15 -16q-3 -60 -32.5 -89t-71.5 -29q-50 0 -162 51z" />
<glyph unicode="&#xa1;" horiz-adv-x="237" d="M180 451q0 -24 -12 -39t-31 -15q-28 0 -28 32q0 23 13 38t29 15q29 0 29 -31zM13 -191l92 484q1 10 12 10q14 0 14 -12l-76 -484q-2 -13 -15 -13h-12q-15 0 -15 15z" />
<glyph unicode="&#xa2;" horiz-adv-x="319" d="M268 151l1 -8v-5q0 -9 -6 -13q-38 -23 -80 -29l-14 -84q-2 -12 -15 -12h-12q-15 0 -15 14l14 83q-49 10 -72.5 55.5t-23.5 111.5q0 119 52 210.5t129 107.5l15 85q2 13 15 13h12q15 0 15 -15l-14 -82q31 -4 66 -24q7 -5 7 -13q0 -4 -1 -6l-8 -16q-5 -9 -14 -9q-4 0 -9 3 q-33 23 -68 23q-59 0 -105.5 -79.5t-46.5 -191.5q0 -61 21 -96t60 -35q33 0 75 22q4 3 9 3q11 0 13 -13z" />
<glyph unicode="&#xa3;" horiz-adv-x="400" d="M343 346l-2 -11q-2 -15 -15 -15h-146l-92 -276h220q14 0 14 -15v-4l-2 -14q-2 -11 -15 -11h-284q-15 0 -15 16l2 17q2 11 15 11h23l90 276h-59q-5 0 -10 4t-5 9l2 13q2 15 15 15h71l55 167q25 77 71.5 118.5t101.5 41.5q30 0 51 -10q9 -3 9 -14q0 -3 -2 -7l-6 -13 q-3 -8 -13 -8q-4 0 -6 1q-24 9 -36 9q-36 0 -72 -30.5t-55 -87.5l-55 -167h135q15 0 15 -15z" />
<glyph unicode="&#xa4;" horiz-adv-x="546" d="M468 515q4 4 10 4q7 0 11 -4l11 -11q4 -4 4 -11q0 -6 -4 -10l-50 -50q51 -63 51 -145q0 -81 -51 -144l50 -50q4 -4 4 -11q0 -6 -4 -10l-11 -11q-5 -5 -11 -5q-5 0 -10 5l-50 50q-62 -52 -145 -52q-82 0 -144 52l-50 -50q-5 -5 -11 -5q-5 0 -10 5l-11 11q-5 5 -5 10 q0 6 5 11l50 50q-51 63 -51 144q0 82 51 145l-50 50q-5 5 -5 10q0 6 5 11l11 11q4 4 10 4q7 0 11 -4l50 -50q63 51 144 51q82 0 145 -51zM402 160q52 52 52 128t-52 128q-55 53 -129 53q-75 0 -128 -53t-53 -128t53 -128t128 -53q74 0 129 53z" />
<glyph unicode="&#xa5;" horiz-adv-x="396" d="M306 433h46q5 0 10 -4t5 -9l-2 -13q-2 -15 -15 -15h-68l-24.5 -40l-28.5 -46l-2 -16h100q5 0 10 -4t5 -9l-2 -13q-2 -15 -15 -15h-106l-21 -118t-20 -118q-2 -13 -15 -13h-11q-15 0 -15 14l40 235h-99q-15 0 -15 13q0 1 2 13q3 15 15 15h105l3 16l-20 86h-64 q-15 0 -15 13q0 1 2 13q3 15 15 15h51l-53 229q0 18 15 18h17q10 0 13 -12q62 -252 68 -305h5q12 26 57 103l83 142l39 64q4 8 13 8h12q15 0 15 -13q0 -6 -2 -9z" />
<glyph unicode="&#xa6;" horiz-adv-x="197" d="M118 665v-338q0 -6 -4.5 -10.5t-10.5 -4.5h-9q-6 0 -10.5 4.5t-4.5 10.5v338q0 6 4.5 10.5t10.5 4.5h9q6 0 10.5 -4.5t4.5 -10.5zM118 147v-338q0 -6 -4.5 -10.5t-10.5 -4.5h-9q-6 0 -10.5 4.5t-4.5 10.5v338q0 6 4.5 10.5t10.5 4.5h9q6 0 10.5 -4.5t4.5 -10.5z" />
<glyph unicode="&#xa7;" horiz-adv-x="325" d="M131 167q-73 60 -73 130q0 77 71 164q-10 27 -10 52q0 76 45 125.5t95 49.5q34 0 70 -21q8 -3 8 -15q-1 0 -1 -2v-2l-6 -15l-4 -6q-4 -4 -11 -4q-4 0 -8 2q-30 19 -56 19q-31 0 -59.5 -35t-28.5 -89q0 -19 9 -37.5t19 -29t29 -28.5q31 -28 49 -56t18 -67q0 -90 -68 -167 q16 -38 16 -67q0 -78 -48 -130t-109 -52q-42 0 -78 30q-6 4 -6 13q0 3 1 4l7 16q5 10 13 10q6 0 10 -4q31 -25 61 -25q41 0 73 36.5t32 94.5q0 56 -60 106zM200 168q1 1 7 11t8 14.5t8 15t8.5 18.5l6 19t5 22t1.5 22q0 33 -14 53.5t-40.5 43t-39.5 40.5q-47 -59 -47 -120 q0 -24 10.5 -45.5t21.5 -33t33 -30.5q29 -27 32 -30z" />
<glyph unicode="&#xa8;" horiz-adv-x="294" d="M261 619q3 16 15.5 27.5t27.5 11.5q13 0 21 -8.5t8 -22.5q0 -19 -13.5 -33t-31.5 -14q-13 0 -20.5 8.5t-7.5 22.5q0 5 1 8zM95 619q3 17 15.5 28t28.5 11q13 0 21 -8.5t8 -22.5q0 -18 -14 -32.5t-30 -14.5q-13 0 -21.5 8.5t-8.5 22.5q0 5 1 8z" />
<glyph unicode="&#xa9;" horiz-adv-x="772" d="M734 340q0 -144 -102 -246t-246 -102q-145 0 -246.5 102t-101.5 246q0 145 101.5 246.5t246.5 101.5q144 0 246 -101.5t102 -246.5zM688 340q0 126 -88.5 214t-213.5 88t-213.5 -88t-88.5 -214q0 -125 88.5 -213.5t213.5 -88.5t213.5 88.5t88.5 213.5zM507 199l4 -14 q0 -1 0.5 -2t0.5 -2q0 -11 -9 -14q-55 -23 -111 -23q-81 0 -130.5 52t-49.5 144t49.5 144t130.5 52q53 0 110 -22q10 -4 10 -15l-4 -17q-3 -13 -15 -13q-4 0 -6 1q-52 22 -92 22q-57 0 -95 -42.5t-38 -109.5t38.5 -109.5t94.5 -42.5q33 0 88 19q8 2 11 2q10 0 13 -10z" />
<glyph unicode="&#xaa;" horiz-adv-x="301" d="M251 316q0 -9 5 -14t5 -12q0 -4 -1 -5l-7 -12q-4 -8 -12 -8q-1 0 -2 0.5t-2 0.5q-18 3 -22 28q-32 -30 -63 -30q-38 0 -58.5 30t-20.5 80q0 87 40.5 148.5t94.5 61.5q33 0 53 -19q3 14 16 14h5q12 0 12 -11q0 -5 -1 -7l-41 -237q-1 -3 -1 -8zM217 336l32 182 q-24 29 -47 29q-35 0 -63 -49.5t-28 -119.5q0 -36 12.5 -56.5t35.5 -20.5q32 0 58 35z" />
<glyph unicode="&#xab;" horiz-adv-x="460" d="M224 450l-152 -213l79 -217q1 -2 1 -6q0 -14 -15 -14h-14q-10 0 -14 10l-80 219q-1 2 -1 6t3 9l160 224q4 6 12 6h9q15 0 15 -14q0 -6 -3 -10zM458 450l-152 -213l79 -217q1 -2 1 -6q0 -14 -15 -14h-14q-10 0 -14 10l-80 219q-1 2 -1 6t3 9l160 224q4 6 12 6h9 q15 0 15 -14q0 -6 -3 -10z" />
<glyph unicode="&#xac;" horiz-adv-x="546" d="M51 359h444q6 0 10.5 -4.5t4.5 -10.5v-191q0 -6 -4.5 -10.5t-10.5 -4.5h-16q-6 0 -10.5 4.5t-4.5 10.5v160h-413q-6 0 -10.5 4.5t-4.5 10.5v16q0 6 4.5 10.5t10.5 4.5z" />
<glyph unicode="&#xad;" horiz-adv-x="341" d="M294 237l-3 -16q-2 -12 -15 -12h-218q-15 0 -15 18l3 16q2 12 15 12h218q15 0 15 -18z" />
<glyph unicode="&#xae;" horiz-adv-x="520" d="M348 380l13 -26q2 -6 2 -8q0 -14 -15 -14h-10q-9 0 -13 8l-17 36q-21 41 -39 55q-12 10 -22 10h-27v-96q0 -6 -4.5 -10.5t-10.5 -4.5h-8q-6 0 -10.5 4.5t-4.5 10.5v242q0 13 14 15q12 1 52 1q51 0 73.5 -24t22.5 -57q0 -46 -50 -68v-4q22 -12 54 -70zM249 473 q26 0 41.5 13t15.5 35q0 20 -13 34.5t-41 14.5q-22 0 -32 -2v-95h29zM260 688q92 0 157 -65t65 -157t-65 -157t-157 -65t-157 65t-65 157t65 157t157 65zM260 284q76 0 129 53.5t53 128.5q0 76 -53 129t-129 53q-75 0 -128.5 -53t-53.5 -129q0 -75 53.5 -128.5t128.5 -53.5z " />
<glyph unicode="&#xaf;" horiz-adv-x="296" d="M319 621l-2 -13q-2 -15 -17 -15h-180q-12 0 -12 13l2 13q2 15 17 15h180q12 0 12 -13z" />
<glyph unicode="&#xb0;" horiz-adv-x="344" d="M251 688q51 0 84 -34.5t33 -87.5q0 -70 -52.5 -123t-117.5 -53q-51 0 -84.5 34.5t-33.5 86.5q0 71 52.5 124t118.5 53zM206 435q46 0 83.5 37t37.5 86q0 37 -23.5 61.5t-60.5 24.5q-46 0 -83 -38t-37 -87q0 -37 23 -60.5t60 -23.5z" />
<glyph unicode="&#xb1;" horiz-adv-x="546" d="M510 301v-16q0 -6 -4.5 -10.5t-10.5 -4.5h-199v-144q0 -6 -4.5 -10.5t-10.5 -4.5h-16q-6 0 -10.5 4.5t-4.5 10.5v144h-199q-6 0 -10.5 4.5t-4.5 10.5v16q0 6 4.5 10.5t10.5 4.5h199v143q0 6 4.5 10.5t10.5 4.5h16q6 0 10.5 -4.5t4.5 -10.5v-143h199q6 0 10.5 -4.5 t4.5 -10.5zM51 46h444q6 0 10.5 -4.5t4.5 -10.5v-16q0 -6 -4.5 -10.5t-10.5 -4.5h-444q-6 0 -10.5 4.5t-4.5 10.5v16q0 6 4.5 10.5t10.5 4.5z" />
<glyph unicode="&#xb2;" horiz-adv-x="269" d="M98 505l82 109q95 129 102 168q2 12 2 18q0 24 -12 37t-30 13q-27 0 -67 -40q-5 -5 -10 -5q-9 0 -9 11l-1 11l1 4q0 7 6 12q49 42 86 42q32 0 52 -19t20 -58q0 -14 -3 -31q-9 -52 -108 -183l-71 -94h116q12 0 12 -13l-1 -6q-4 -15 -17 -15h-149q-12 0 -12 13q2 14 11 26z " />
<glyph unicode="&#xb3;" horiz-adv-x="275" d="M289 583q-10 -54 -46 -86.5t-81 -32.5q-36 0 -66 24q-4 3 -4 9t2 8l3 8q4 11 11 11t11 -4q27 -20 50 -20q29 0 52.5 23t30.5 60q2 14 2 20q0 54 -68 60q-10 2 -10 12v8q4 13 14 15q34 5 57.5 29t27.5 49q2 14 2 21q0 52 -43 52q-19 0 -51 -22q-4 -3 -9 -3q-9 0 -12 9 q-1 5 -1 9q0 1 0.5 2t0.5 2q2 7 9 12q43 27 70 27q33 0 53.5 -21.5t20.5 -58.5q0 -16 -2 -25q-12 -68 -65 -97q43 -17 43 -74q0 -17 -2 -26z" />
<glyph unicode="&#xb4;" horiz-adv-x="298" d="M248 680h17q13 0 13 -13v-3q-2 -6 -6 -9l-92 -91q-5 -5 -11 -5h-4q-12 0 -12 12q1 7 5 11q18 23 78 92q6 6 12 6z" />
<glyph unicode="&#xb5;" horiz-adv-x="366" d="M57 18l-33 -211q-2 -13 -15 -13h-11q-15 0 -15 18l115 650q2 12 15 12h11q15 0 15 -18l-57 -325q-4 -19 -4 -37q0 -58 66 -58q49 0 96 63l64 363q2 12 15 12h12q15 0 15 -18l-78 -444q-2 -12 -15 -12h-6q-15 0 -15 16l2 25h-7q-42 -49 -96 -49q-43 0 -74 26z" />
<glyph unicode="&#xb6;" horiz-adv-x="462" d="M505 665l-134 -763q-2 -12 -15 -12h-18q-15 0 -15 15l128 728h-112l-129 -731q-2 -12 -15 -12h-19q-15 0 -15 15l70 396q-67 0 -108 45.5t-41 110.5q0 88 66.5 155.5t148.5 67.5h193q15 0 15 -15z" />
<glyph unicode="&#xb7;" horiz-adv-x="531" d="M317 340q-3 -20 -14 -31.5t-28 -11.5q-28 0 -28 32q0 23 13 38t30 15q28 0 28 -30q0 -8 -1 -12z" />
<glyph unicode="&#xb8;" horiz-adv-x="298" d="M108 -139v6q0 27 -40 32q-10 2 -10 9q0 2 2 6l27 47q3 6 9 6h9q8 0 8 -8q0 -2 -1 -3l-18 -32q24 -4 38 -19t14 -35q0 -42 -32.5 -63t-73.5 -21q-9 0 -29 4q-8 2 -8 13q0 4 1 5l3 8q2 6 10 6q24 -4 35 -4q19 0 35.5 12.5t20.5 30.5z" />
<glyph unicode="&#xb9;" horiz-adv-x="276" d="M271 864l-64 -364h55q12 0 12 -13l-1 -6q-2 -15 -17 -15h-149q-12 0 -12 13l1 6q2 15 17 15h54l57 325l-60 -50q-7 -5 -11 -5q-5 0 -7 9l-1 10q1 12 10 19l81 63q8 6 15 6h8q12 0 12 -13z" />
<glyph unicode="&#xba;" horiz-adv-x="296" d="M208 584q38 0 59 -30t21 -80q0 -87 -41 -148.5t-95 -61.5q-38 0 -58.5 30t-20.5 80q0 87 40.5 148.5t94.5 61.5zM159 301q35 0 63 49t28 119q0 78 -48 78q-35 0 -63 -49t-28 -119q0 -78 48 -78z" />
<glyph unicode="&#xbb;" horiz-adv-x="460" d="M235 24l152 213l-79 217q-1 2 -1 6q0 14 15 14h14q10 0 14 -10l80 -219q1 -2 1 -6t-3 -9l-160 -224q-4 -6 -12 -6h-9q-15 0 -15 14q0 6 3 10zM1 24l152 213l-79 217q-1 2 -1 6q0 14 15 14h14q10 0 14 -10l80 -219q1 -2 1 -6t-3 -9l-160 -224q-4 -6 -12 -6h-9 q-15 0 -15 14q0 6 3 10z" />
<glyph unicode="&#xbc;" horiz-adv-x="592" d="M236 668l-63 -365h55q11 0 11 -12v-7q-4 -15 -17 -15h-150q-11 0 -11 12l1 7q1 6 6 10.5t10 4.5h55l57 325l-61 -51q-8 -5 -12 -5q-5 0 -7 9l-1 10v4q1 9 10 15l83 64q8 6 14 6h9q11 0 11 -12zM125 0h-9q-12 0 -12 12q2 8 4 10l463 650q6 8 14 8h7q12 0 12 -11 q0 -2 -3 -11l-462 -650q-6 -8 -14 -8zM494 146h20q12 0 12 -13l-1 -6q-2 -15 -17 -15h-20l-17 -97q-2 -15 -17 -15h-7q-12 0 -12 13l17 99h-116q-11 0 -11 12q1 10 8 22l171 257q4 8 12 8h11q5 0 8.5 -4t3.5 -9zM458 146l21 120l14 68l-122 -189q17 1 41 1h46z" />
<glyph unicode="&#xbd;" horiz-adv-x="658" d="M236 667l-64 -364h55q12 0 12 -13l-1 -6q-2 -15 -17 -15h-149q-12 0 -12 13l1 6q4 15 17 15h54l58 325l-61 -51q-7 -5 -11 -5q-6 0 -8 9l-1 10q3 13 10 19l82 64q9 6 15 6h8q12 0 12 -13zM125 0h-8q-12 0 -12 12q2 8 3 10l464 650q4 8 13 8h8q12 0 12 -12l-4 -10 l-462 -650q-4 -8 -14 -8zM404 38l83 110q95 127 102 168q2 12 2 18q0 24 -12.5 37t-30.5 13q-26 0 -67 -41q-4 -4 -9 -4q-9 0 -9 11l-1 11q-1 1 -1 4q2 7 7 12q51 42 87 42q32 0 52 -19t20 -58q0 -14 -3 -31q-9 -52 -108 -183l-71 -94h116q11 0 11 -12v-7q-4 -15 -17 -15 h-149q-12 0 -12 15q2 13 10 23z" />
<glyph unicode="&#xbe;" horiz-adv-x="574" d="M215 485q43 -17 43 -75q0 -8 -2 -24q-10 -54 -46 -86.5t-81 -32.5q-37 0 -66 24q-4 3 -4 9t2 8l3 8q5 11 12 11q6 0 10 -4q27 -20 50 -20q29 0 52.5 23t30.5 60q2 12 2 18q0 56 -68 62q-11 0 -11 13l1 7q2 13 14 15q34 4 57.5 28.5t27.5 49.5q2 14 2 20q0 53 -43 53 q-19 0 -51 -22q-6 -3 -9 -3q-9 0 -12 9q-1 4 -1 8q0 2 0.5 3t0.5 2q2 7 9 12q44 27 69 27q34 0 54.5 -21.5t20.5 -59.5q0 -8 -2 -24q-12 -68 -65 -98zM109 1h-9q-11 0 -11 14q0 3 3 8l463 650q6 8 14 8h8q11 0 11 -14q0 -3 -3 -8l-462 -650q-6 -8 -14 -8zM478 146h19 q12 0 12 -13l-1 -6q-2 -15 -17 -15h-19l-18 -97q-1 -6 -6 -10.5t-10 -4.5h-8q-12 0 -12 13l17 99h-115q-12 0 -12 12q1 10 8 22l171 257q4 8 13 8h10q12 0 12 -13zM441 146l22 120q4 26 13 68l-122 -189q17 1 41 1h46z" />
<glyph unicode="&#xbf;" horiz-adv-x="365" d="M236 482q29 0 29 -31q0 -24 -12.5 -39t-30.5 -15q-28 0 -28 32q0 24 12.5 38.5t29.5 14.5zM193 -170l2 -12q0 -10 -9 -14q-40 -18 -82 -18q-47 0 -72 26.5t-25 70.5q0 33 13.5 67.5t26 54.5t38.5 55l32 43q33 47 48 81.5t27 107.5q1 10 14 10q17 0 17 -15 q-11 -114 -70 -198q-16 -20 -23 -30q-28 -37 -41 -55.5t-25 -49.5t-12 -62q0 -62 69 -62q26 0 50 11q6 2 9 2q11 0 13 -13z" />
<glyph unicode="&#xc0;" horiz-adv-x="438" d="M106 188l-77 -179q-4 -9 -14 -9h-15q-16 0 -16 14q0 3 2 7l286 650q4 9 14 9h14q13 0 15 -14l62 -650q0 -16 -15 -16h-15q-13 0 -15 14l-15 174h-211zM124 232h189q-1 0 -7.5 85.5l-13.5 177.5t-7 106h-5q-9 -29 -156 -369zM260 881h19q8 0 10 -6l44 -91q1 -2 1 -7 q-2 -17 -17 -17q-8 0 -13 5l-59 91q-2 4 -2 8q3 17 17 17z" />
<glyph unicode="&#xc1;" horiz-adv-x="438" d="M106 188l-77 -179q-4 -9 -14 -9h-15q-16 0 -16 14q0 3 2 7l286 650q4 9 14 9h14q13 0 15 -14l62 -650q0 -16 -15 -16h-15q-13 0 -15 14l-15 174h-211zM124 232h189q-1 0 -7.5 85.5l-13.5 177.5t-7 106h-5q-9 -29 -156 -369zM380 881h17q13 0 13 -13v-3q-2 -6 -6 -9 l-92 -91q-5 -5 -11 -5h-4q-12 0 -12 12q1 8 5 11q18 23 78 92q6 6 12 6z" />
<glyph unicode="&#xc2;" horiz-adv-x="438" d="M106 188l-77 -179q-4 -9 -14 -9h-15q-16 0 -16 14q0 3 2 7l286 650q4 9 14 9h14q13 0 15 -14l62 -650q0 -16 -15 -16h-15q-13 0 -15 14l-15 174h-211zM124 232h189q-1 0 -7.5 85.5l-13.5 177.5t-7 106h-5q-9 -29 -156 -369zM223 774q2 6 5 9l72 91q5 7 13 7h34q7 0 12 -7 l40 -91q1 -3 1 -9q-2 -14 -17 -14h-9q-11 0 -14 8l-35 84l-64 -84q-6 -8 -17 -8h-9q-12 0 -12 14z" />
<glyph unicode="&#xc3;" horiz-adv-x="438" d="M106 188l-77 -179q-4 -9 -14 -9h-15q-16 0 -16 14q0 3 2 7l286 650q4 9 14 9h14q13 0 15 -14l62 -650q0 -16 -15 -16h-15q-13 0 -15 14l-15 174h-211zM124 232h189q-1 0 -7.5 85.5l-13.5 177.5t-7 106h-5q-9 -29 -156 -369zM328 838q24 -21 43 -21q18 0 30 29q5 11 16 11 h7q12 0 12 -13q-22 -66 -69 -66q-30 0 -59 22q-25 22 -41 22q-17 0 -29 -29q-6 -11 -16 -11h-7q-12 0 -12 13q23 66 69 66q28 0 56 -23z" />
<glyph unicode="&#xc4;" horiz-adv-x="438" d="M106 188l-77 -179q-4 -9 -14 -9h-15q-16 0 -16 14q0 3 2 7l286 650q4 9 14 9h14q13 0 15 -14l62 -650q0 -16 -15 -16h-15q-13 0 -15 14l-15 174h-211zM124 232h189q-1 0 -7.5 85.5l-13.5 177.5t-7 106h-5q-9 -29 -156 -369zM369 818q3 16 15.5 27.5t27.5 11.5 q13 0 21 -8.5t8 -22.5q0 -19 -13.5 -33t-31.5 -14q-13 0 -20.5 8.5t-7.5 22.5q0 5 1 8zM203 818q3 17 15.5 28t28.5 11q13 0 21 -8.5t8 -22.5q0 -18 -14 -32.5t-30 -14.5q-13 0 -21.5 8.5t-8.5 22.5q0 5 1 8z" />
<glyph unicode="&#xc5;" horiz-adv-x="438" d="M29 9l77 179h211l15 -174q2 -14 15 -14h15q15 0 15 16l-62 650q-2 14 -15 14h-14q-10 0 -14 -9l-286 -650q-2 -4 -2 -7q0 -14 16 -14h15q10 0 14 9zM313 232h-189q147 340 156 369h5q0 -14 7 -106l13.5 -177.5t7.5 -85.5zM335 905q30 0 49 -20t19 -50q0 -39 -30 -69 t-68 -30q-29 0 -48.5 20t-19.5 50q0 39 30.5 69t67.5 30zM310 763q24 0 44 20.5t20 46.5q0 20 -12.5 33.5t-31.5 13.5q-24 0 -43.5 -20.5t-19.5 -47.5q0 -20 12 -33t31 -13z" />
<glyph unicode="&#xc6;" horiz-adv-x="613" d="M329 44h191q15 0 15 -16l-3 -17q-4 -11 -15 -11h-219q-15 0 -15 14l29 174h-180l-22 -38.5l-22 -38.5l-61 -104q-5 -7 -13 -7h-12q-16 0 -16 14q0 4 3 9l394 650q5 7 13 7h232q15 0 15 -16l-3 -17q-4 -11 -15 -11h-192l-44 -260h163q15 0 15 -16l-3 -16q-4 -11 -15 -11 h-169q-8 -50 -25 -143zM160 232h159l65 369h-8z" />
<glyph unicode="&#xc7;" horiz-adv-x="443" d="M377 60v-12q0 -8 -7 -13q-66 -43 -138 -43q-83 0 -131.5 70.5t-48.5 185.5q1 181 93.5 310.5t209.5 129.5q71 0 120 -41q5 -5 5 -13q0 -4 -1 -5l-7 -17q-4 -9 -13 -9q-5 0 -10 3q-48 38 -102 38q-93 0 -170.5 -119t-78.5 -276q0 -97 38.5 -155t103.5 -58q52 0 114 37 q6 2 8 2q15 0 15 -15zM235 -130v6q0 27 -40 32q-10 2 -10 9q0 2 2 6l27 47q3 6 9 6h9q8 0 8 -8q0 -2 -1 -3l-18 -32q24 -4 38 -19t14 -35q0 -42 -32.5 -63t-73.5 -21q-9 0 -29 4q-8 2 -8 13q0 4 1 5l3 8q2 6 10 6q24 -4 35 -4q19 0 35.5 12.5t20.5 30.5z" />
<glyph unicode="&#xc8;" horiz-adv-x="363" d="M394 662l-3 -15q-4 -11 -15 -11h-191l-44 -260h163q15 0 15 -19l-3 -13q-4 -11 -15 -11h-169q-8 -50 -25 -143l-26 -146h190q15 0 15 -19l-3 -14q-4 -11 -15 -11h-219q-15 0 -15 18l114 650q2 12 15 12h216q15 0 15 -18zM274 880h19q8 0 10 -6l44 -91q1 -2 1 -7 q-2 -17 -17 -17q-8 0 -13 5l-59 91q-2 4 -2 8q3 17 17 17z" />
<glyph unicode="&#xc9;" horiz-adv-x="363" d="M394 662l-3 -15q-4 -11 -15 -11h-191l-44 -260h163q15 0 15 -19l-3 -13q-4 -11 -15 -11h-169q-8 -50 -25 -143l-26 -146h190q15 0 15 -19l-3 -14q-4 -11 -15 -11h-219q-15 0 -15 18l114 650q2 12 15 12h216q15 0 15 -18zM334 881h17q13 0 13 -13v-3q-2 -6 -6 -9l-92 -91 q-5 -5 -11 -5h-4q-12 0 -12 12q1 8 5 11q18 23 78 92q6 6 12 6z" />
<glyph unicode="&#xca;" horiz-adv-x="363" d="M394 662l-3 -15q-4 -11 -15 -11h-191l-44 -260h163q15 0 15 -19l-3 -13q-4 -11 -15 -11h-169q-8 -50 -25 -143l-26 -146h190q15 0 15 -19l-3 -14q-4 -11 -15 -11h-219q-15 0 -15 18l114 650q2 12 15 12h216q15 0 15 -18zM205 774q2 6 5 9l72 91q5 7 13 7h34q7 0 12 -7 l40 -91q1 -3 1 -9q-2 -14 -17 -14h-9q-11 0 -14 8l-35 84l-64 -84q-6 -8 -17 -8h-9q-12 0 -12 14z" />
<glyph unicode="&#xcb;" horiz-adv-x="363" d="M394 662l-3 -15q-4 -11 -15 -11h-191l-44 -260h163q15 0 15 -19l-3 -13q-4 -11 -15 -11h-169q-8 -50 -25 -143l-26 -146h190q15 0 15 -19l-3 -14q-4 -11 -15 -11h-219q-15 0 -15 18l114 650q2 12 15 12h216q15 0 15 -18zM344 820q3 16 15.5 27.5t27.5 11.5q13 0 21 -8.5 t8 -22.5q0 -19 -13.5 -33t-31.5 -14q-13 0 -20.5 8.5t-7.5 22.5q0 5 1 8zM178 820q3 17 15.5 28t28.5 11q13 0 21 -8.5t8 -22.5q0 -18 -14 -32.5t-30 -14.5q-13 0 -21.5 8.5t-8.5 22.5q0 5 1 8z" />
<glyph unicode="&#xcc;" horiz-adv-x="303" d="M199 0h-172q-15 0 -15 13l2 15q2 14 15 14h66l105 596h-61q-15 0 -15 13l2 15q2 14 15 14h172q15 0 15 -14l-2 -14q-4 -14 -15 -14h-68l-105 -596h63q15 0 15 -14l-2 -14q-4 -14 -15 -14zM206 881h19q8 0 10 -6l44 -91q1 -2 1 -7q-2 -17 -17 -17q-8 0 -13 5l-59 91 q-2 4 -2 8q3 17 17 17z" />
<glyph unicode="&#xcd;" horiz-adv-x="301" d="M197 0h-172q-15 0 -15 13l2 15q2 14 15 14h66l105 596h-61q-15 0 -15 13l2 15q2 14 15 14h172q15 0 15 -14l-2 -14q-4 -14 -15 -14h-68l-105 -596h63q15 0 15 -14l-2 -14q-4 -14 -15 -14zM306 881h17q13 0 13 -13v-3q-2 -6 -6 -9l-92 -91q-5 -5 -11 -5h-4q-12 0 -12 12 q1 8 5 11q18 23 78 92q6 6 12 6z" />
<glyph unicode="&#xce;" horiz-adv-x="303" d="M199 0h-172q-15 0 -15 13l2 15q2 14 15 14h66l105 596h-61q-15 0 -15 13l2 15q2 14 15 14h172q15 0 15 -14l-2 -14q-4 -14 -15 -14h-68l-105 -596h63q15 0 15 -14l-2 -14q-4 -14 -15 -14zM156 774q2 6 5 9l72 91q5 7 13 7h34q7 0 12 -7l40 -91q1 -3 1 -9q-2 -14 -17 -14 h-9q-11 0 -14 8l-35 84l-64 -84q-6 -8 -17 -8h-9q-12 0 -12 14z" />
<glyph unicode="&#xcf;" horiz-adv-x="302" d="M199 0h-172q-15 0 -15 13l2 15q2 14 15 14h66l105 596h-61q-15 0 -15 13l2 15q2 14 15 14h172q15 0 15 -14l-2 -14q-4 -14 -15 -14h-68l-105 -596h63q15 0 15 -14l-2 -14q-4 -14 -15 -14zM303 820q3 16 15.5 27.5t27.5 11.5q13 0 21 -8.5t8 -22.5q0 -19 -13.5 -33 t-31.5 -14q-13 0 -20.5 8.5t-7.5 22.5q0 5 1 8zM137 820q3 17 15.5 28t28.5 11q13 0 21 -8.5t8 -22.5q0 -18 -14 -32.5t-30 -14.5q-13 0 -21.5 8.5t-8.5 22.5q0 5 1 8z" />
<glyph unicode="&#xd0;" horiz-adv-x="499" d="M35 344l3 18q4 11 15 11h40q6 33 16 94l19 111l17 92q2 10 12 12q35 6 109 6q109 0 161.5 -70t52.5 -182q0 -81 -22.5 -159t-63 -142t-106.5 -103.5t-145 -39.5q-65 0 -100 5q-13 2 -13 16l56 316h-36q-15 0 -15 15zM425 342q10 58 10 99q0 99 -45 151t-126 52 q-39 0 -81 -5l-47 -266h39q15 0 15 -16l-3 -17q-4 -11 -15 -11h-43q-9 -56 -28 -158.5l-24 -130.5q29 -4 80 -4q99 0 170.5 79.5t97.5 226.5z" />
<glyph unicode="&#xd1;" horiz-adv-x="525" d="M510 680q15 0 15 -18l-114 -650q-2 -12 -15 -12h-37q-10 0 -14 11l-163 612h-5q-5 -55 -15 -115l-87 -496q-2 -12 -15 -12h-12q-15 0 -15 18l114 650q2 12 15 12h35q11 0 15 -11l163 -613h5q4 42 16 115l87 497q2 12 15 12h12zM370 840q24 -21 43 -21q18 0 30 29 q5 11 16 11h7q12 0 12 -13q-22 -66 -69 -66q-30 0 -59 22q-25 22 -41 22q-17 0 -29 -29q-6 -11 -16 -11h-7q-12 0 -12 13q23 66 69 66q28 0 56 -23z" />
<glyph unicode="&#xd2;" d="M522 442q-1 -190 -88.5 -320t-207.5 -130q-85 0 -130 65.5t-45 178.5q0 189 89 320.5t209 131.5q83 0 128 -66t45 -180zM477 446q0 94 -35 145t-101 51q-96 0 -170 -117.5t-74 -291.5q0 -92 36 -143.5t101 -51.5q96 0 169 117t74 291zM320 882h19q8 0 10 -6l44 -91 q1 -2 1 -7q-2 -17 -17 -17q-8 0 -13 5l-59 91q-2 4 -2 8q3 17 17 17z" />
<glyph unicode="&#xd3;" d="M522 442q-1 -190 -88.5 -320t-207.5 -130q-85 0 -130 65.5t-45 178.5q0 189 89 320.5t209 131.5q83 0 128 -66t45 -180zM477 446q0 94 -35 145t-101 51q-96 0 -170 -117.5t-74 -291.5q0 -92 36 -143.5t101 -51.5q96 0 169 117t74 291zM425 882h17q13 0 13 -13v-3 q-2 -6 -6 -9l-92 -91q-5 -5 -11 -5h-4q-12 0 -12 12q2 7 5 11q18 23 78 92q6 6 12 6z" />
<glyph unicode="&#xd4;" d="M522 442q-1 -190 -88.5 -320t-207.5 -130q-85 0 -130 65.5t-45 178.5q0 189 89 320.5t209 131.5q83 0 128 -66t45 -180zM477 446q0 94 -35 145t-101 51q-96 0 -170 -117.5t-74 -291.5q0 -92 36 -143.5t101 -51.5q96 0 169 117t74 291zM276 773q2 6 5 9l72 91q5 7 13 7h34 q7 0 12 -7l40 -91q1 -3 1 -9q-2 -14 -17 -14h-9q-11 0 -14 8l-35 84l-64 -84q-6 -8 -17 -8h-9q-12 0 -12 14z" />
<glyph unicode="&#xd5;" d="M522 442q-1 -190 -88.5 -320t-207.5 -130q-85 0 -130 65.5t-45 178.5q0 189 89 320.5t209 131.5q83 0 128 -66t45 -180zM477 446q0 94 -35 145t-101 51q-96 0 -170 -117.5t-74 -291.5q0 -92 36 -143.5t101 -51.5q96 0 169 117t74 291zM382 839q24 -21 43 -21q18 0 30 29 q5 11 16 11h7q12 0 12 -13q-22 -66 -69 -66q-30 0 -59 22q-25 22 -41 22q-17 0 -29 -29q-6 -11 -16 -11h-7q-12 0 -12 13q23 66 69 66q28 0 56 -23z" />
<glyph unicode="&#xd6;" d="M522 442q-1 -190 -88.5 -320t-207.5 -130q-85 0 -130 65.5t-45 178.5q0 189 89 320.5t209 131.5q83 0 128 -66t45 -180zM477 446q0 94 -35 145t-101 51q-96 0 -170 -117.5t-74 -291.5q0 -92 36 -143.5t101 -51.5q96 0 169 117t74 291zM420 815q3 16 15.5 27.5t27.5 11.5 q13 0 21 -8.5t8 -22.5q0 -19 -13.5 -33t-31.5 -14q-13 0 -20.5 8.5t-7.5 22.5q0 5 1 8zM254 815q3 17 15.5 28t28.5 11q13 0 21 -8.5t8 -22.5q0 -18 -14 -32.5t-30 -14.5q-13 0 -21.5 8.5t-8.5 22.5q0 5 1 8z" />
<glyph unicode="&#xd7;" horiz-adv-x="583" d="M493 463q4 4 10 4q7 0 11 -4l11 -11q4 -4 4 -11q0 -6 -4 -10l-194 -195l194 -194q4 -4 4 -11q0 -6 -4 -10l-11 -11q-5 -5 -11 -5q-5 0 -10 5l-194 194l-195 -194q-5 -5 -11 -5q-5 0 -10 5l-11 11q-5 5 -5 10q0 6 5 11l195 194l-195 195q-5 5 -5 10q0 6 5 11l11 11 q4 4 10 4q7 0 11 -4l195 -195z" />
<glyph unicode="&#xd8;" d="M124 29l-41 -65q-5 -7 -13 -7q-4 0 -8 3l-11 6q-7 4 -7 12q0 4 2 8l46 77q-41 68 -41 171q0 122 41.5 227.5t110 166t146.5 60.5q59 0 102 -37l39 64q5 8 12 8q4 0 9 -3l9 -5q9 -5 9 -14q0 -6 -2 -9l-46 -76q42 -64 42 -174q0 -185 -89 -317.5t-208 -132.5q-60 0 -102 37 zM97 240q0 -78 24 -129l304 497q-34 34 -84 34q-82 0 -146.5 -84t-88.5 -219q-9 -54 -9 -99zM477 441q0 75 -24 128l-304 -497q34 -34 85 -34q96 0 169.5 117t73.5 286z" />
<glyph unicode="&#xd9;" horiz-adv-x="507" d="M481 680h12q15 0 15 -15l-85 -482q-14 -79 -76.5 -135t-136.5 -56q-66 0 -108.5 45.5t-42.5 115.5q0 21 3 37l85 478q2 12 15 12h12q15 0 15 -15l-85 -480q-2 -9 -2 -28q0 -52 32.5 -85t83.5 -33q56 0 104 45t59 106l85 478q2 12 15 12zM308 881h19q8 0 10 -6l44 -91 q1 -2 1 -7q-2 -17 -17 -17q-8 0 -13 5l-59 91q-2 4 -2 8q3 17 17 17z" />
<glyph unicode="&#xda;" horiz-adv-x="507" d="M481 680h12q15 0 15 -15l-85 -482q-14 -79 -76.5 -135t-136.5 -56q-66 0 -108.5 45.5t-42.5 115.5q0 21 3 37l85 478q2 12 15 12h12q15 0 15 -15l-85 -480q-2 -9 -2 -28q0 -52 32.5 -85t83.5 -33q56 0 104 45t59 106l85 478q2 12 15 12zM413 883h17q13 0 13 -13v-3 q-2 -6 -6 -9l-92 -91q-5 -5 -11 -5h-4q-12 0 -12 12q2 8 5 11q18 23 78 92q6 6 12 6z" />
<glyph unicode="&#xdb;" horiz-adv-x="507" d="M481 680h12q15 0 15 -15l-85 -482q-14 -79 -76.5 -135t-136.5 -56q-66 0 -108.5 45.5t-42.5 115.5q0 21 3 37l85 478q2 12 15 12h12q15 0 15 -15l-85 -480q-2 -9 -2 -28q0 -52 32.5 -85t83.5 -33q56 0 104 45t59 106l85 478q2 12 15 12zM257 774q2 6 5 9l72 91q5 7 13 7 h34q7 0 12 -7l40 -91q1 -3 1 -9q-2 -14 -17 -14h-9q-11 0 -14 8l-35 84l-64 -84q-6 -8 -17 -8h-9q-12 0 -12 14z" />
<glyph unicode="&#xdc;" horiz-adv-x="507" d="M481 680h12q15 0 15 -15l-85 -482q-14 -79 -76.5 -135t-136.5 -56q-66 0 -108.5 45.5t-42.5 115.5q0 21 3 37l85 478q2 12 15 12h12q15 0 15 -15l-85 -480q-2 -9 -2 -28q0 -52 32.5 -85t83.5 -33q56 0 104 45t59 106l85 478q2 12 15 12zM405 814q3 16 15.5 27.5 t27.5 11.5q13 0 21 -8.5t8 -22.5q0 -19 -13.5 -33t-31.5 -14q-13 0 -20.5 8.5t-7.5 22.5q0 5 1 8zM239 814q3 17 15.5 28t28.5 11q13 0 21 -8.5t8 -22.5q0 -18 -14 -32.5t-30 -14.5q-13 0 -21.5 8.5t-8.5 22.5q0 5 1 8z" />
<glyph unicode="&#xdd;" horiz-adv-x="396" d="M229 305l-51 -293q-2 -12 -15 -12h-10q-15 0 -15 15l50 293l-84 354q0 18 15 18h14q9 0 12 -9q60 -242 70 -308h5q28 59 179 310q5 7 13 7h13q15 0 15 -15q0 -6 -2 -9zM352 876h17q13 0 13 -13v-3q-2 -6 -6 -9l-92 -91q-5 -5 -11 -5h-4q-12 0 -12 12q1 7 5 11 q18 23 78 92q6 6 12 6z" />
<glyph unicode="&#xde;" horiz-adv-x="395" d="M373 396q0 -126 -61 -196t-135 -70h-81l-20 -117q-2 -13 -15 -13h-12q-15 0 -15 15l114 653q2 12 15 12h12q15 0 15 -15l-20 -118q17 1 58 1q145 0 145 -152zM327 385q0 119 -99 119q-38 0 -62 -4h-2q-2 0 -3 -1q-49 -274 -57 -325h84q55 0 97 60.5t42 150.5z" />
<glyph unicode="&#xdf;" horiz-adv-x="394" d="M153 538l-92 -526q-2 -12 -15 -12h-11q-15 0 -15 15l91 523q13 76 57 113t99 37q44 0 78 -33.5t34 -86.5q0 -36 -18 -65.5t-44 -48.5t-52 -35.5t-44 -35.5t-18 -39q0 -27 79 -82q59 -42 59 -106q0 -18 -2 -28q-11 -66 -47 -101t-81 -35q-47 0 -91 34q-5 5 -5 11q0 4 3 9 l7 14q5 10 14 10q5 0 10 -5q33 -29 64 -29t57.5 27.5t26.5 80.5q0 33 -21.5 61t-47 44.5t-47 39.5t-21.5 47q0 33 25.5 61t57 45t60.5 43t34 53q2 16 2 22q0 40 -25 64t-54 24q-87 0 -107 -110z" />
<glyph unicode="&#xe0;" horiz-adv-x="380" d="M302 0l-12 -3q-17 0 -19 14q-3 23 -3 55q0 21 3 54h-4q-28 -59 -65 -93.5t-69 -34.5q-50 0 -78.5 43t-28.5 119q0 79 20.5 144.5t51.5 104t64.5 59t63.5 20.5q66 0 123 -65q2 -4 2 -8v-4l-18 -101q-25 -148 -25 -224q0 -38 5 -63v-4q0 -10 -11 -13zM219 439 q-19 0 -43 -16.5t-48.5 -48.5t-41 -89t-16.5 -127q0 -60 20 -91.5t51 -31.5q17 0 42 25t51 69t46.5 116.5t26.5 154.5q-32 39 -88 39zM213 680h19q8 0 10 -6l44 -91q1 -2 1 -7q-2 -17 -17 -17q-8 0 -13 5l-59 91q-2 4 -2 8q3 17 17 17z" />
<glyph unicode="&#xe1;" horiz-adv-x="380" d="M302 0l-12 -3q-17 0 -19 14q-3 23 -3 55q0 21 3 54h-4q-28 -59 -65 -93.5t-69 -34.5q-50 0 -78.5 43t-28.5 119q0 79 20.5 144.5t51.5 104t64.5 59t63.5 20.5q66 0 123 -65q2 -4 2 -8v-4l-18 -101q-25 -148 -25 -224q0 -38 5 -63v-4q0 -10 -11 -13zM219 439 q-19 0 -43 -16.5t-48.5 -48.5t-41 -89t-16.5 -127q0 -60 20 -91.5t51 -31.5q17 0 42 25t51 69t46.5 116.5t26.5 154.5q-32 39 -88 39zM310 680h17q13 0 13 -13v-3q-2 -6 -6 -9l-92 -91q-5 -5 -11 -5h-4q-12 0 -12 12q1 7 5 11q18 23 78 92q6 6 12 6z" />
<glyph unicode="&#xe2;" horiz-adv-x="380" d="M302 0l-12 -3q-17 0 -19 14q-3 23 -3 55q0 21 3 54h-4q-28 -59 -65 -93.5t-69 -34.5q-50 0 -78.5 43t-28.5 119q0 79 20.5 144.5t51.5 104t64.5 59t63.5 20.5q66 0 123 -65q2 -4 2 -8v-4l-18 -101q-25 -148 -25 -224q0 -38 5 -63v-4q0 -10 -11 -13zM219 439 q-19 0 -43 -16.5t-48.5 -48.5t-41 -89t-16.5 -127q0 -60 20 -91.5t51 -31.5q17 0 42 25t51 69t46.5 116.5t26.5 154.5q-32 39 -88 39zM161 573q2 6 5 9l72 91q5 7 13 7h34q7 0 12 -7l40 -91q1 -3 1 -9q-2 -14 -17 -14h-9q-11 0 -14 8l-35 84l-64 -84q-6 -8 -17 -8h-9 q-12 0 -12 14z" />
<glyph unicode="&#xe3;" horiz-adv-x="380" d="M302 0l-12 -3q-17 0 -19 14q-3 23 -3 55q0 21 3 54h-4q-28 -59 -65 -93.5t-69 -34.5q-50 0 -78.5 43t-28.5 119q0 79 20.5 144.5t51.5 104t64.5 59t63.5 20.5q66 0 123 -65q2 -4 2 -8v-4l-18 -101q-25 -148 -25 -224q0 -38 5 -63v-4q0 -10 -11 -13zM219 439 q-19 0 -43 -16.5t-48.5 -48.5t-41 -89t-16.5 -127q0 -60 20 -91.5t51 -31.5q17 0 42 25t51 69t46.5 116.5t26.5 154.5q-32 39 -88 39zM267 638q24 -21 43 -21q18 0 30 29q6 11 16 11h7q12 0 12 -13q-23 -66 -69 -66q-30 0 -59 22q-25 22 -41 22q-17 0 -29 -29 q-5 -11 -16 -11h-7q-12 0 -12 13q22 66 69 66q28 0 56 -23z" />
<glyph unicode="&#xe4;" horiz-adv-x="380" d="M302 0l-12 -3q-17 0 -19 14q-3 23 -3 55q0 21 3 54h-4q-28 -59 -65 -93.5t-69 -34.5q-50 0 -78.5 43t-28.5 119q0 79 20.5 144.5t51.5 104t64.5 59t63.5 20.5q66 0 123 -65q2 -4 2 -8v-4l-18 -101q-25 -148 -25 -224q0 -38 5 -63v-4q0 -10 -11 -13zM219 439 q-19 0 -43 -16.5t-48.5 -48.5t-41 -89t-16.5 -127q0 -60 20 -91.5t51 -31.5q17 0 42 25t51 69t46.5 116.5t26.5 154.5q-32 39 -88 39zM308 619q3 16 15.5 27.5t27.5 11.5q13 0 21 -8.5t8 -22.5q0 -19 -13.5 -33t-31.5 -14q-13 0 -20.5 8.5t-7.5 22.5q0 5 1 8zM142 619 q3 17 15.5 28t28.5 11q13 0 21 -8.5t8 -22.5q0 -18 -14 -32.5t-30 -14.5q-13 0 -21.5 8.5t-8.5 22.5q0 5 1 8z" />
<glyph unicode="&#xe5;" horiz-adv-x="380" d="M290 -3l12 3q11 3 11 13v4q-5 25 -5 63q0 76 25 224l18 101v4q0 4 -2 8q-57 65 -123 65q-30 0 -63.5 -20.5t-64.5 -59t-51.5 -104t-20.5 -144.5q0 -76 28.5 -119t78.5 -43q32 0 69 34.5t65 93.5h4q-3 -33 -3 -54q0 -32 3 -55q2 -14 19 -14zM219 439q56 0 88 -39 q-6 -82 -26.5 -154.5t-46.5 -116.5t-51 -69t-42 -25q-31 0 -51 31.5t-20 91.5q0 70 16.5 127t41 89t48.5 48.5t43 16.5zM275 704q30 0 49 -20t19 -50q0 -39 -30 -69t-68 -30q-29 0 -48.5 20t-19.5 50q0 39 30.5 69t67.5 30zM250 562q24 0 44 20.5t20 46.5q0 20 -12.5 33.5 t-31.5 13.5q-24 0 -43.5 -20.5t-19.5 -47.5q0 -20 12 -33t31 -13z" />
<glyph unicode="&#xe6;" horiz-adv-x="589" d="M537 228h-219q-7 -38 -7 -68q0 -58 22 -91t59 -33q39 0 91 27q4 2 7 2q11 0 13 -11l2 -15q0 -8 -7 -13q-53 -34 -114 -34q-79 0 -100 88h-4q-56 -88 -135 -88q-57 0 -87.5 45.5t-30.5 122.5q0 132 61 227t143 95q62 0 111 -19q10 -4 10 -16l-4 -40h4q48 75 118 75 q46 0 71.5 -34t25.5 -96q0 -37 -15 -112q-2 -12 -15 -12zM254 98l57 327q-34 13 -87 13q-59 0 -106 -80t-47 -192q0 -60 21.5 -95t60.5 -35q51 0 101 62zM325 270h191q10 47 10 76q0 44 -16.5 68t-46.5 24q-44 0 -82.5 -46.5t-55.5 -121.5z" />
<glyph unicode="&#xe7;" horiz-adv-x="319" d="M249 48l2 -13q0 -8 -7 -13q-51 -30 -100 -30q-56 0 -86.5 46.5t-30.5 124.5q1 135 61 227t142 92q47 0 86 -27q6 -5 6 -13q0 -3 -1 -5l-8 -16q-5 -9 -14 -9q-4 0 -9 3q-33 23 -67 23q-59 0 -105.5 -80t-47.5 -195q0 -61 21 -94t61 -33q34 0 75 22q4 2 7 2q13 0 15 -12z M146 -129v6q0 27 -40 32q-10 2 -10 9q0 2 2 6l27 47q3 6 9 6h9q8 0 8 -8q0 -2 -1 -3l-18 -32q24 -4 38 -19t14 -35q0 -42 -32.5 -63t-73.5 -21q-9 0 -29 4q-8 2 -8 13q0 4 1 5l3 8q2 6 10 6q24 -4 35 -4q19 0 35.5 12.5t20.5 30.5z" />
<glyph unicode="&#xe8;" horiz-adv-x="350" d="M250 51l3 -12q0 -1 1 -3q0 -9 -8 -13q-55 -31 -101 -31q-57 0 -87.5 45.5t-30.5 122.5q0 132 61 227t143 95q46 0 69 -29t23 -70q0 -73 -67.5 -113t-178.5 -42q-5 -31 -5 -63q0 -60 21 -94.5t60 -34.5q35 0 76 23q4 3 9 3q9 0 12 -11zM85 270q82 0 138.5 28t56.5 86 q0 54 -56 54q-44 0 -82 -44.5t-57 -123.5zM209 680h19q8 0 10 -6l44 -91q1 -2 1 -7q-2 -17 -17 -17q-8 0 -13 5l-59 91q-2 4 -2 8q3 17 17 17z" />
<glyph unicode="&#xe9;" horiz-adv-x="350" d="M250 51l3 -12q0 -1 1 -3q0 -9 -8 -13q-55 -31 -101 -31q-57 0 -87.5 45.5t-30.5 122.5q0 132 61 227t143 95q46 0 69 -29t23 -70q0 -73 -67.5 -113t-178.5 -42q-5 -31 -5 -63q0 -60 21 -94.5t60 -34.5q35 0 76 23q4 3 9 3q9 0 12 -11zM85 270q82 0 138.5 28t56.5 86 q0 54 -56 54q-44 0 -82 -44.5t-57 -123.5zM311 680h17q13 0 13 -13v-3q-2 -6 -6 -9l-92 -91q-5 -5 -11 -5h-4q-12 0 -12 12q2 7 5 11q18 23 78 92q6 6 12 6z" />
<glyph unicode="&#xea;" horiz-adv-x="350" d="M250 51l3 -12q0 -1 1 -3q0 -9 -8 -13q-55 -31 -101 -31q-57 0 -87.5 45.5t-30.5 122.5q0 132 61 227t143 95q46 0 69 -29t23 -70q0 -73 -67.5 -113t-178.5 -42q-5 -31 -5 -63q0 -60 21 -94.5t60 -34.5q35 0 76 23q4 3 9 3q9 0 12 -11zM85 270q82 0 138.5 28t56.5 86 q0 54 -56 54q-44 0 -82 -44.5t-57 -123.5zM160 573q2 6 5 9l72 91q5 7 13 7h34q7 0 12 -7l40 -91q1 -3 1 -9q-2 -14 -17 -14h-9q-11 0 -14 8l-35 84l-64 -84q-6 -8 -17 -8h-9q-12 0 -12 14z" />
<glyph unicode="&#xeb;" horiz-adv-x="350" d="M250 51l3 -12q0 -1 1 -3q0 -9 -8 -13q-55 -31 -101 -31q-57 0 -87.5 45.5t-30.5 122.5q0 132 61 227t143 95q46 0 69 -29t23 -70q0 -73 -67.5 -113t-178.5 -42q-5 -31 -5 -63q0 -60 21 -94.5t60 -34.5q35 0 76 23q4 3 9 3q9 0 12 -11zM85 270q82 0 138.5 28t56.5 86 q0 54 -56 54q-44 0 -82 -44.5t-57 -123.5zM306 619q3 16 15.5 27.5t27.5 11.5q13 0 21 -8.5t8 -22.5q0 -19 -13.5 -33t-31.5 -14q-13 0 -20.5 8.5t-7.5 22.5q0 5 1 8zM140 619q3 17 15.5 28t28.5 11q13 0 21 -8.5t8 -22.5q0 -18 -14 -32.5t-30 -14.5q-13 0 -21.5 8.5 t-8.5 22.5q0 5 1 8z" />
<glyph unicode="&#xec;" horiz-adv-x="159" d="M138 456l-78 -444q-2 -12 -15 -12h-11q-15 0 -15 18l78 444q2 12 15 12h11q15 0 15 -18zM74 680h19q8 0 10 -6l44 -91q1 -2 1 -7q-2 -17 -17 -17q-8 0 -13 5l-59 91q-2 4 -2 8q3 17 17 17z" />
<glyph unicode="&#xed;" horiz-adv-x="159" d="M138 456l-78 -444q-2 -12 -15 -12h-11q-15 0 -15 18l78 444q2 12 15 12h11q15 0 15 -18zM215 680h17q13 0 13 -13v-3q-2 -6 -6 -9l-92 -91q-5 -5 -11 -5h-4q-12 0 -12 12q2 7 5 11q18 23 78 92q6 6 12 6z" />
<glyph unicode="&#xee;" horiz-adv-x="161" d="M139 456l-78 -444q-2 -12 -15 -12h-11q-15 0 -15 18l78 444q2 12 15 12h11q15 0 15 -18zM46 573q2 6 5 9l72 91q5 7 13 7h34q7 0 12 -7l40 -91q1 -3 1 -9q-2 -14 -17 -14h-9q-11 0 -14 8l-35 84l-64 -84q-6 -8 -17 -8h-9q-12 0 -12 14z" />
<glyph unicode="&#xef;" horiz-adv-x="161" d="M140 456l-78 -444q-2 -12 -15 -12h-11q-15 0 -15 18l78 444q2 12 15 12h11q15 0 15 -18zM193 619q3 16 15.5 27.5t27.5 11.5q13 0 21 -8.5t8 -22.5q0 -19 -13.5 -33t-31.5 -14q-13 0 -20.5 8.5t-7.5 22.5q0 5 1 8zM27 619q3 17 15.5 28t28.5 11q13 0 21 -8.5t8 -22.5 q0 -18 -14 -32.5t-30 -14.5q-13 0 -21.5 8.5t-8.5 22.5q0 5 1 8z" />
<glyph unicode="&#xf0;" horiz-adv-x="389" d="M260 575l-97 -45q-1 -1 -4 -1q-6 0 -10 6t-4 13q0 10 7 13l91 42q-29 41 -57 67q-5 5 -5 12q0 6 4 10l8 7q4 4 10 4q7 0 11 -4q34 -34 66 -78l83 38q2 1 5 1q6 0 10 -6t4 -13q0 -9 -7 -12l-78 -37q56 -104 56 -236q0 -57 -10 -117q-19 -105 -74.5 -176t-123.5 -71 q-55 0 -86.5 48.5t-31.5 125.5q0 122 61 219t136 97q45 0 78 -37l4 4q-13 63 -46 126zM306 319q0 119 -82 119q-58 0 -105 -81.5t-47 -186.5q0 -61 21.5 -97.5t59.5 -36.5q61 0 107 86t46 197z" />
<glyph unicode="&#xf1;" horiz-adv-x="366" d="M135 461q0 -24 -6 -74h4q24 46 54 70.5t58 24.5q95 0 95 -91q0 -27 -4 -47l-58 -332q-2 -12 -15 -12h-12q-15 0 -15 15l59 341q2 18 2 26q0 56 -54 56q-13 0 -30.5 -11.5t-37.5 -35.5t-38.5 -69.5t-29.5 -105.5l-36 -204q-2 -12 -15 -12h-14q-13 0 -13 14l46 263 q9 54 15 99q6 46 7 64l1 18q0 16 16 16h10q11 0 11 -13zM266 638q24 -21 43 -21q18 0 30 29q5 11 16 11h7q12 0 12 -13q-22 -66 -69 -66q-30 0 -59 22q-25 22 -41 22q-17 0 -29 -29q-6 -11 -16 -11h-7q-12 0 -12 13q23 66 69 66q28 0 56 -23z" />
<glyph unicode="&#xf2;" horiz-adv-x="378" d="M348 311q-1 -134 -61 -226.5t-142 -92.5q-57 0 -87.5 46.5t-30.5 124.5q0 134 61 226.5t143 92.5q57 0 87 -46t30 -125zM305 314q0 124 -81 124q-59 0 -106.5 -80.5t-47.5 -194.5q0 -61 21.5 -94t61.5 -33q59 0 105.5 81t46.5 197zM206 668h19q8 0 10 -6l44 -91 q1 -2 1 -7q-2 -17 -17 -17q-8 0 -13 5l-59 91q-2 4 -2 8q3 17 17 17z" />
<glyph unicode="&#xf3;" horiz-adv-x="378" d="M348 311q-1 -134 -61 -226.5t-142 -92.5q-57 0 -87.5 46.5t-30.5 124.5q0 134 61 226.5t143 92.5q57 0 87 -46t30 -125zM305 314q0 124 -81 124q-59 0 -106.5 -80.5t-47.5 -194.5q0 -61 21.5 -94t61.5 -33q59 0 105.5 81t46.5 197zM312 683h17q13 0 13 -13v-3 q-2 -6 -6 -9l-92 -91q-5 -5 -11 -5h-4q-12 0 -12 12q1 8 5 11q18 23 78 92q6 6 12 6z" />
<glyph unicode="&#xf4;" horiz-adv-x="378" d="M348 311q-1 -134 -61 -226.5t-142 -92.5q-57 0 -87.5 46.5t-30.5 124.5q0 134 61 226.5t143 92.5q57 0 87 -46t30 -125zM305 314q0 124 -81 124q-59 0 -106.5 -80.5t-47.5 -194.5q0 -61 21.5 -94t61.5 -33q59 0 105.5 81t46.5 197zM159 573q2 6 5 9l72 91q5 7 13 7h34 q7 0 12 -7l40 -91q1 -3 1 -9q-2 -14 -17 -14h-9q-11 0 -14 8l-35 84l-64 -84q-6 -8 -17 -8h-9q-12 0 -12 14z" />
<glyph unicode="&#xf5;" horiz-adv-x="378" d="M348 311q-1 -134 -61 -226.5t-142 -92.5q-57 0 -87.5 46.5t-30.5 124.5q0 134 61 226.5t143 92.5q57 0 87 -46t30 -125zM305 314q0 124 -81 124q-59 0 -106.5 -80.5t-47.5 -194.5q0 -61 21.5 -94t61.5 -33q59 0 105.5 81t46.5 197zM265 638q24 -21 43 -21q18 0 30 29 q6 11 16 11h7q12 0 12 -13q-23 -66 -69 -66q-30 0 -59 22q-25 22 -41 22q-17 0 -29 -29q-5 -11 -16 -11h-7q-12 0 -12 13q22 66 69 66q28 0 56 -23z" />
<glyph unicode="&#xf6;" horiz-adv-x="378" d="M348 311q-1 -134 -61 -226.5t-142 -92.5q-57 0 -87.5 46.5t-30.5 124.5q0 134 61 226.5t143 92.5q57 0 87 -46t30 -125zM305 314q0 124 -81 124q-59 0 -106.5 -80.5t-47.5 -194.5q0 -61 21.5 -94t61.5 -33q59 0 105.5 81t46.5 197zM306 619q3 16 15.5 27.5t27.5 11.5 q13 0 21 -8.5t8 -22.5q0 -19 -13.5 -33t-31.5 -14q-13 0 -20.5 8.5t-7.5 22.5q0 5 1 8zM140 619q3 17 15.5 28t28.5 11q13 0 21 -8.5t8 -22.5q0 -18 -14 -32.5t-30 -14.5q-13 0 -21.5 8.5t-8.5 22.5q0 5 1 8z" />
<glyph unicode="&#xf7;" horiz-adv-x="546" d="M51 260h444q15 0 15 -15v-16q0 -6 -4.5 -10.5t-10.5 -4.5h-444q-15 0 -15 15v16q0 15 15 15zM273 367q-17 0 -28 10.5t-11 27.5t11 28t28 11q18 0 28.5 -11t10.5 -28t-10.5 -27.5t-28.5 -10.5zM273 30q-17 0 -28 10.5t-11 27.5q0 18 11 28.5t28 10.5q18 0 28.5 -10.5 t10.5 -28.5q0 -17 -10.5 -27.5t-28.5 -10.5z" />
<glyph unicode="&#xf8;" horiz-adv-x="378" d="M77 17l-35 -56q-4 -7 -12 -7q-3 0 -5 1l-11 6q-10 4 -10 12q0 4 3 9l43 68q-23 46 -23 110q0 132 61.5 227t143.5 95q38 0 67 -23l35 57q4 7 12 7q3 0 5 -1l11 -6q9 -4 9 -12q0 -4 -3 -9l-42 -70q23 -44 23 -109q0 -132 -61 -227.5t-143 -95.5q-37 0 -68 24zM71 165 q0 -38 9 -65l194 318q-19 20 -50 20q-50 0 -90 -55.5t-56 -144.5q-7 -46 -7 -73zM305 312q0 36 -9 65l-194 -318q20 -22 51 -22q60 0 106 80.5t46 194.5z" />
<glyph unicode="&#xf9;" horiz-adv-x="366" d="M267 257l36 205q2 12 15 12h14q12 0 12 -12v-4l-45 -261q-9 -54 -15 -99q-6 -46 -7 -64l-1 -18q0 -16 -15 -16h-10q-12 0 -12 14l6 73h-4q-25 -45 -57.5 -70t-60.5 -25q-16 0 -29 2.5t-28 11t-23.5 28t-8.5 49.5q0 27 4 47l58 332q2 12 15 12h12q15 0 15 -15l-59 -341 q-2 -14 -2 -26q0 -56 54 -56q13 0 31 11.5t38 35.5t38.5 69.5t28.5 104.5zM187 680h19q8 0 10 -6l44 -91q1 -2 1 -7q-2 -17 -17 -17q-8 0 -13 5l-59 91q-2 4 -2 8q3 17 17 17z" />
<glyph unicode="&#xfa;" horiz-adv-x="366" d="M267 257l36 205q2 12 15 12h14q12 0 12 -12v-4l-45 -261q-9 -54 -15 -99q-6 -46 -7 -64l-1 -18q0 -16 -15 -16h-10q-12 0 -12 14l6 73h-4q-25 -45 -57.5 -70t-60.5 -25q-16 0 -29 2.5t-28 11t-23.5 28t-8.5 49.5q0 27 4 47l58 332q2 12 15 12h12q15 0 15 -15l-59 -341 q-2 -14 -2 -26q0 -56 54 -56q13 0 31 11.5t38 35.5t38.5 69.5t28.5 104.5zM296 683h17q13 0 13 -13v-3q-2 -6 -6 -9l-92 -91q-5 -5 -11 -5h-4q-12 0 -12 12q1 8 5 11q18 23 78 92q6 6 12 6z" />
<glyph unicode="&#xfb;" horiz-adv-x="366" d="M267 257l36 205q2 12 15 12h14q12 0 12 -12v-4l-45 -261q-9 -54 -15 -99q-6 -46 -7 -64l-1 -18q0 -16 -15 -16h-10q-12 0 -12 14l6 73h-4q-25 -45 -57.5 -70t-60.5 -25q-16 0 -29 2.5t-28 11t-23.5 28t-8.5 49.5q0 27 4 47l58 332q2 12 15 12h12q15 0 15 -15l-59 -341 q-2 -14 -2 -26q0 -56 54 -56q13 0 31 11.5t38 35.5t38.5 69.5t28.5 104.5zM143 573q2 6 5 9l72 91q5 7 13 7h34q7 0 12 -7l40 -91q1 -3 1 -9q-2 -14 -17 -14h-9q-11 0 -14 8l-35 84l-64 -84q-6 -8 -17 -8h-9q-12 0 -12 14z" />
<glyph unicode="&#xfc;" horiz-adv-x="366" d="M267 257l36 205q2 12 15 12h14q12 0 12 -12v-4l-45 -261q-9 -54 -15 -99q-6 -46 -7 -64l-1 -18q0 -16 -15 -16h-10q-12 0 -12 14l6 73h-4q-25 -45 -57.5 -70t-60.5 -25q-16 0 -29 2.5t-28 11t-23.5 28t-8.5 49.5q0 27 4 47l58 332q2 12 15 12h12q15 0 15 -15l-59 -341 q-2 -14 -2 -26q0 -56 54 -56q13 0 31 11.5t38 35.5t38.5 69.5t28.5 104.5zM292 619q3 16 15.5 27.5t27.5 11.5q13 0 21 -8.5t8 -22.5q0 -19 -13.5 -33t-31.5 -14q-13 0 -20.5 8.5t-7.5 22.5q0 5 1 8zM126 619q3 17 15.5 28t28.5 11q13 0 21 -8.5t8 -22.5q0 -18 -14 -32.5 t-30 -14.5q-13 0 -21.5 8.5t-8.5 22.5q0 5 1 8z" />
<glyph unicode="&#xfd;" horiz-adv-x="327" d="M-56 -195l-1 14q0 10 9 14q47 19 77 48.5t54 86.5l14 35l-35 455q0 16 15 16h13q13 0 15 -14q26 -316 26 -379h4q6 20 46.5 116l78.5 182l37 86q4 9 14 9h14q15 0 15 -14q0 -5 -1 -7l-221 -505q-27 -61 -64 -97.5t-89 -57.5q-4 -2 -7 -2q-12 0 -14 14zM284 680h17 q13 0 13 -13v-3q-2 -6 -6 -9l-92 -91q-5 -5 -11 -5h-4q-12 0 -12 12q1 7 5 11q18 23 78 92q6 6 12 6z" />
<glyph unicode="&#xfe;" horiz-adv-x="380" d="M64 29l-40 -223q-2 -12 -15 -12h-11q-15 0 -15 15l151 859q2 12 15 12h11q15 0 15 -15l-39 -228h4q45 45 93 45q57 0 87.5 -45.5t30.5 -122.5q0 -132 -61.5 -227t-142.5 -95q-50 0 -83 37zM124 375l-51 -290q33 -49 82 -49q59 0 105.5 80.5t46.5 193.5q0 60 -21 94 t-60 34q-55 0 -102 -63z" />
<glyph unicode="&#xff;" horiz-adv-x="327" d="M-56 -195l-1 14q0 10 9 14q47 19 77 48.5t54 86.5l14 35l-35 455q0 16 15 16h13q13 0 15 -14q26 -316 26 -379h4q6 20 46.5 116l78.5 182l37 86q4 9 14 9h14q15 0 15 -14q0 -5 -1 -7l-221 -505q-27 -61 -64 -97.5t-89 -57.5q-4 -2 -7 -2q-12 0 -14 14zM277 619 q3 16 15.5 27.5t27.5 11.5q13 0 21 -8.5t8 -22.5q0 -19 -13.5 -33t-31.5 -14q-13 0 -20.5 8.5t-7.5 22.5q0 5 1 8zM111 619q3 17 15.5 28t28.5 11q13 0 21 -8.5t8 -22.5q0 -18 -14 -32.5t-30 -14.5q-13 0 -21.5 8.5t-8.5 22.5q0 5 1 8z" />
<glyph unicode="&#x152;" horiz-adv-x="741" d="M459 44h190q14 0 14 -15v-4l-2 -14q-2 -11 -15 -11h-221q-15 0 -15 15l20 113q-88 -136 -204 -136q-84 0 -129.5 66t-45.5 176q0 122 41.5 227.5t110 166t146.5 60.5q59 0 98 -36t55 -101q14 59 23 116q2 13 15 13h216q15 0 15 -16l-3 -17q-2 -11 -15 -11h-190l-46 -261 h165q15 0 15 -15l-3 -17q-2 -11 -15 -11h-169q-8 -50 -25 -142.5t-26 -145.5zM477 442q0 93 -35.5 146.5t-100.5 53.5q-95 0 -169.5 -118t-74.5 -287q0 -93 36 -146t101 -53q96 0 169.5 117t73.5 287z" />
<glyph unicode="&#x153;" horiz-adv-x="614" d="M577 243q-3 -15 -15 -15h-221q-6 -38 -6 -64q0 -60 21 -94t60 -34q41 0 90 26q6 2 8 2q12 0 14 -12l1 -6q0 -2 0.5 -4t0.5 -4q0 -8 -7 -12q-58 -34 -115 -34q-45 0 -74.5 35t-33.5 96h-4q-59 -131 -151 -131q-57 0 -87.5 45.5t-30.5 122.5q0 132 61 227t143 95 q45 0 73 -34t32 -97h4q27 61 67.5 96t86.5 35t72 -34t26 -96q0 -27 -6 -63q-2 -12 -9 -46zM305 310q0 60 -21 94t-60 34q-59 0 -106 -80t-47 -192q0 -60 21.5 -95t60.5 -35q59 0 105.5 80.5t46.5 193.5zM550 344q0 45 -16.5 69.5t-46.5 24.5q-45 0 -82 -46t-56 -122h192 q9 40 9 74z" />
<glyph unicode="&#x178;" horiz-adv-x="396" d="M229 305l-51 -293q-2 -12 -15 -12h-10q-15 0 -15 15l50 293l-84 354q0 18 15 18h14q9 0 12 -9q60 -242 70 -308h5q28 59 179 310q5 7 13 7h13q15 0 15 -15q0 -6 -2 -9zM347 818q3 16 15.5 27.5t27.5 11.5q13 0 21 -8.5t8 -22.5q0 -19 -13.5 -33t-31.5 -14 q-13 0 -20.5 8.5t-7.5 22.5q0 5 1 8zM181 818q3 17 15.5 28t28.5 11q13 0 21 -8.5t8 -22.5q0 -18 -14 -32.5t-30 -14.5q-13 0 -21.5 8.5t-8.5 22.5q0 5 1 8z" />
<glyph unicode="&#x2c6;" horiz-adv-x="296" d="M117 573q2 6 5 9l72 91q5 7 13 7h34q7 0 12 -7l40 -91q1 -3 1 -9q-2 -14 -17 -14h-9q-11 0 -14 8l-35 84l-64 -84q-6 -8 -17 -8h-9q-12 0 -12 14z" />
<glyph unicode="&#x2dc;" horiz-adv-x="294" d="M222 638q24 -21 43 -21q18 0 30 29q5 11 16 11h7q12 0 12 -13q-22 -66 -69 -66q-30 0 -59 22q-25 22 -41 22q-17 0 -29 -29q-6 -11 -16 -11h-7q-12 0 -12 13q23 66 69 66q28 0 56 -23z" />
<glyph unicode="&#x2000;" horiz-adv-x="452" />
<glyph unicode="&#x2001;" horiz-adv-x="905" />
<glyph unicode="&#x2002;" horiz-adv-x="452" />
<glyph unicode="&#x2003;" horiz-adv-x="905" />
<glyph unicode="&#x2004;" horiz-adv-x="301" />
<glyph unicode="&#x2005;" horiz-adv-x="226" />
<glyph unicode="&#x2006;" horiz-adv-x="150" />
<glyph unicode="&#x2007;" horiz-adv-x="150" />
<glyph unicode="&#x2008;" horiz-adv-x="113" />
<glyph unicode="&#x2009;" horiz-adv-x="181" />
<glyph unicode="&#x200a;" horiz-adv-x="50" />
<glyph unicode="&#x2010;" horiz-adv-x="341" d="M294 237l-3 -16q-2 -12 -15 -12h-218q-15 0 -15 18l3 16q2 12 15 12h218q15 0 15 -18z" />
<glyph unicode="&#x2011;" horiz-adv-x="341" d="M294 237l-3 -16q-2 -12 -15 -12h-218q-15 0 -15 18l3 16q2 12 15 12h218q15 0 15 -18z" />
<glyph unicode="&#x2013;" horiz-adv-x="389" d="M361 243l-2 -13q-3 -14 -15 -14h-303q-6 0 -10.5 4.5t-4.5 9.5q0 1 2 12q2 15 15 15h303q15 0 15 -14z" />
<glyph unicode="&#x2014;" horiz-adv-x="665" d="M638 243l-2 -13q-3 -14 -15 -14h-579q-6 0 -10.5 4.5t-4.5 9.5q0 1 2 12q2 15 15 15h579q15 0 15 -14z" />
<glyph unicode="&#x2018;" horiz-adv-x="156" d="M172 678q9 -4 9 -15q0 -6 -1 -8q-64 -88 -71 -176q-2 -14 -11 -26t-22 -12q-12 0 -19.5 10.5t-7.5 23.5q0 64 106 200q3 5 10 5q3 0 7 -2z" />
<glyph unicode="&#x2019;" horiz-adv-x="147" d="M60 451q-10 5 -10 15q0 6 2 8q63 89 71 176q1 14 10 26t22 12t20 -10.5t7 -23.5q0 -68 -105 -200q-3 -5 -10 -5q-3 0 -7 2z" />
<glyph unicode="&#x201a;" horiz-adv-x="180" d="M-30 -160l-4 3q-5 3 -5 11q0 4 3 9q73 92 87 176q2 15 12.5 26.5t24.5 11.5q11 0 17.5 -9t6.5 -21q0 -64 -126 -205q-2 -4 -9 -4q-3 0 -7 2z" />
<glyph unicode="&#x201c;" horiz-adv-x="280" d="M172 678l6 -4q4 -4 4 -11q0 -4 -2 -8q-63 -92 -71 -176q-1 -14 -10 -26t-22 -12t-20 10.5t-7 23.5q0 63 105 200q3 5 10 5q3 0 7 -2zM294 678l6 -4q5 -3 5 -11q0 -5 -3 -8q-64 -96 -70 -176q-1 -14 -10.5 -26t-22.5 -12q-12 0 -19 10.5t-7 23.5q0 64 104 200q3 5 11 5 q4 0 6 -2z" />
<glyph unicode="&#x201d;" horiz-adv-x="297" d="M179 451l-6 4q-4 3 -4 11q0 6 2 8q65 94 70 176q2 14 11 26t23 12q12 0 19 -10.5t7 -23.5q0 -62 -105 -200q-3 -5 -11 -5q-4 0 -6 2zM56 451l-6 4q-3 2 -3 11q0 6 1 8q64 91 71 176q2 14 10.5 26t21.5 12t20 -10.5t7 -23.5q0 -68 -105 -200q-3 -5 -10 -5q-3 0 -7 2z" />
<glyph unicode="&#x201e;" horiz-adv-x="305" d="M-30 -160l-4 3q-5 3 -5 11q0 4 3 9q73 92 87 176q2 15 12.5 26.5t24.5 11.5q11 0 17.5 -9t6.5 -21q0 -64 -126 -205q-2 -4 -9 -4q-3 0 -7 2zM96 -160l-4 3q-5 3 -5 11q0 4 3 9q73 92 87 176q2 15 12.5 26.5t24.5 11.5q11 0 17.5 -9t6.5 -21q0 -64 -126 -205q-2 -4 -9 -4 q-3 0 -7 2z" />
<glyph unicode="&#x2022;" horiz-adv-x="328" d="M162 452q47 0 80 -33t33 -79q0 -47 -33 -80t-80 -33q-45 0 -77 33t-32 80q0 46 32 79t77 33z" />
<glyph unicode="&#x2026;" horiz-adv-x="639" d="M70 -8q-29 0 -29 31q0 24 12.5 39t30.5 15q29 0 29 -32q0 -24 -13 -38.5t-30 -14.5zM276 -8q-29 0 -29 31q0 24 12.5 39t30.5 15q29 0 29 -32q0 -24 -13 -38.5t-30 -14.5zM482 -8q-29 0 -29 31q0 24 12.5 39t30.5 15q29 0 29 -32q0 -24 -13 -38.5t-30 -14.5z" />
<glyph unicode="&#x202f;" horiz-adv-x="181" />
<glyph unicode="&#x2039;" horiz-adv-x="226" d="M224 450l-152 -213l79 -217q1 -2 1 -6q0 -14 -15 -14h-14q-10 0 -14 10l-80 219q-1 2 -1 6t3 9l160 224q4 6 12 6h9q15 0 15 -14q0 -6 -3 -10z" />
<glyph unicode="&#x203a;" horiz-adv-x="226" d="M1 24l152 213l-79 217q-1 2 -1 6q0 14 15 14h14q10 0 14 -10l80 -219q1 -2 1 -6t-3 -9l-160 -224q-4 -6 -12 -6h-9q-15 0 -15 14q0 6 3 10z" />
<glyph unicode="&#x205f;" horiz-adv-x="226" />
<glyph unicode="&#x20ac;" horiz-adv-x="416" d="M450 678q10 -3 10 -15q0 -3 -1 -5l-8 -17q-4 -9 -14 -9q-3 0 -5 1q-31 11 -55 11q-68 0 -126 -53t-92 -159h198q13 0 13 -14l-3 -12q-2 -15 -18 -15h-201q-13 -55 -19 -102h202q13 0 13 -14l-3 -12q-2 -15 -18 -15h-197v-14q0 -97 38.5 -147.5t105.5 -50.5q24 0 56 10 q2 1 5 1q13 0 15 -14l1 -14q0 -10 -11 -14q-41 -13 -74 -13q-53 0 -90 21t-56 59.5t-27.5 80t-9.5 95.5h-28q-12 0 -12 15l3 12q2 14 17 14h24q7 57 18 102h-24q-12 0 -12 15l3 12q2 14 17 14h27q40 130 112 193t161 63q37 0 65 -10z" />
<glyph unicode="&#x2122;" horiz-adv-x="443" d="M236 652h-47l-43 -242q-2 -12 -13 -12h-10q-10 0 -10 9q0 1 1 3l42 242h-48q-10 0 -10 9v1l1 2v4q2 12 14 12h128q9 0 9 -10v-6q-3 -12 -14 -12zM312 669l32 -117l71 117q6 11 20 11h14q9 0 9 -9l-39 -261q-3 -12 -13 -12h-8q-11 0 -11 10q0 1 6.5 44.5l15.5 101t11 68.5 l-74 -120q-4 -6 -12 -6t-11 6l-32 116l-41 -208q-3 -12 -14 -12h-9q-10 0 -10 10l51 260q4 12 15 12h15q12 0 14 -11z" />
</font>
</defs>
</svg>
