<?xml version="1.0" standalone="no"?>
<!DOCTYPE svg PUBLIC "-//W3C//DTD SVG 1.1//EN" "http://www.w3.org/Graphics/SVG/1.1/DTD/svg11.dtd" >
<svg xmlns="http://www.w3.org/2000/svg">
<metadata>
This is a custom SVG webfont generated by Fontspring.
Designer    : Nicholas Garner
Foundry     : Aviation Partners
Foundry URL : http://www.codesign.co.uk
</metadata>
<defs>
<font id="webfontR84f1Ajm" horiz-adv-x="715" >
<font-face units-per-em="1000" ascent="800" descent="-200" />
<missing-glyph horiz-adv-x="280" />
<glyph unicode=" "  horiz-adv-x="280" />
<glyph unicode="&#x09;" horiz-adv-x="280" />
<glyph unicode="&#xa0;" horiz-adv-x="280" />
<glyph unicode="!" horiz-adv-x="251" d="M83 -8q29 0 49.5 17.5t20.5 46.5q0 21 -14 33t-38 12q-31 0 -51 -18t-20 -47q0 -44 53 -44zM244 650l-93 -440q-1 -8 -9.5 -14t-16.5 -6h-9q-24 0 -24 24v4l60 440q4 22 25 22h43q11 0 18 -6.5t7 -17.5q0 -1 -0.5 -3t-0.5 -3z" />
<glyph unicode="&#x22;" horiz-adv-x="335" d="M158 680h29q11 0 18 -6.5t7 -17.5q0 -5 -1 -7l-24.5 -105.5t-25.5 -107.5q-6 -19 -24 -19h-5q-11 0 -18 7.5t-7 20.5l26 213q1 9 8.5 15.5t16.5 6.5zM294 680h28q11 0 18 -6.5t7 -17.5q0 -1 -0.5 -3t-0.5 -3l-45 -213q-4 -20 -24 -20h-6q-11 0 -18 7.5t-7 19.5l4.5 42 l7.5 71t11 100q1 9 8 16t17 7z" />
<glyph unicode="#" horiz-adv-x="587" d="M531 345h-77l-31 -172h65q10 0 17.5 -7.5t7.5 -17.5v-22q0 -10 -7.5 -17.5t-17.5 -7.5h-78l-22 -124q-3 -21 -25 -21h-4l-19 3q-21 3 -21 25v4l19 113h-146l-22 -124q-3 -21 -25 -21h-4l-19 3q-21 3 -21 25v4l19 113h-65q-11 0 -18 7.5t-7 17.5v22q0 10 7 17.5t18 7.5h77 l31 172h-65q-10 0 -17.5 7.5t-7.5 17.5v22q0 10 7.5 17.5t17.5 7.5h78l22 122q3 21 25 21h4l19 -3q21 -3 21 -25v-4l-19 -111h146l22 122q3 21 25 21h4l19 -3q21 -3 21 -25v-4l-19 -111h65q11 0 18 -7.5t7 -17.5v-22q0 -10 -7 -17.5t-18 -7.5zM351 173l30 172h-146l-30 -172 h146z" />
<glyph unicode="$" horiz-adv-x="574" d="M286 -5l-14 -72q-4 -22 -25 -22h-31q-11 0 -18 7t-7 18v4l11 64q-89 9 -160 46q-13 6 -13 22q0 4 2 10l17 38q6 16 23 16q5 0 13 -4q76 -44 162 -44q69 0 115.5 31.5t46.5 80.5q0 19 -10.5 36.5t-33.5 34t-39.5 26t-48.5 25.5q-47 24 -68 36.5t-48 34t-37.5 44.5 t-10.5 53q0 82 59 135t153 70l13 74q2 8 9 14.5t16 6.5h32q11 0 18 -7t7 -17v-5l-11 -64q61 -8 120 -32q15 -6 15 -23q0 -4 -2 -10l-15 -36q-6 -15 -22 -15q-6 0 -12 3q-70 30 -129 30q-60 0 -104.5 -27.5t-44.5 -73.5q0 -26 22 -44t72 -45l44 -25q42 -24 61.5 -36.5 t47 -35.5t39 -48t11.5 -56q0 -87 -64.5 -146.5t-160.5 -71.5z" />
<glyph unicode="%" horiz-adv-x="850" d="M692 639l-456 -629q-6 -10 -20 -10h-6q-12 0 -19 7t-7 17q0 8 6 16l456 629q6 10 20 10h6q12 0 19 -7t7 -17q0 -9 -6 -16zM262 688q57 0 91 -43.5t34 -113.5q0 -109 -61 -185.5t-138 -76.5q-55 0 -89 43t-34 113q0 106 60 184.5t137 78.5zM198 328q43 0 80.5 59t37.5 138 q0 46 -17.5 75t-47.5 29q-42 0 -78.5 -60t-36.5 -136q0 -47 17 -76t45 -29zM696 410q56 0 90 -43.5t34 -113.5q0 -107 -61.5 -184t-136.5 -77q-56 0 -90 42.5t-34 113.5q0 106 60 184t138 78zM632 50q42 0 79.5 60t37.5 137q0 46 -17 75.5t-46 29.5q-44 0 -80.5 -60.5 t-36.5 -137.5q0 -46 17 -75t46 -29z" />
<glyph unicode="&#x26;" horiz-adv-x="734" d="M552 140l86 -99q7 -7 7 -17t-7 -17t-19 -7h-59q-12 0 -19 9l-65 74q-125 -91 -246 -91q-89 0 -144.5 38t-55.5 106q0 130 205 232v5q-67 80 -67 138q0 79 65 128t150 49q68 0 113 -34.5t45 -90.5t-47.5 -110t-124.5 -96l136 -161q83 81 127 141q8 10 20 10l32 -5 q24 -2 24 -24q0 -8 -6 -16q-57 -74 -150 -162zM431 140l-151 175q-152 -92 -152 -160q0 -37 34 -60.5t85 -23.5q85 0 184 69zM258 527q0 -40 64 -115q63 34 97 70t34 66q0 29 -23.5 47.5t-60.5 18.5q-39 0 -75 -26t-36 -61z" />
<glyph unicode="'" horiz-adv-x="201" d="M158 680h30q11 0 18 -6.5t7 -16.5q0 -5 -1 -7l-49 -213q-4 -20 -24 -20h-4q-11 0 -18 7.5t-7 19.5l23 213q1 9 8.5 16t16.5 7z" />
<glyph unicode="(" horiz-adv-x="301" d="M284 679h20q12 0 19 -7t7 -16q0 -8 -6 -16q-128 -179 -169 -404q-17 -91 -17 -162q0 -115 47 -247q2 -6 2 -9q0 -10 -7.5 -17t-18.5 -7h-29q-17 0 -23 14q-55 119 -55 275q0 154 56.5 310.5t154.5 276.5q7 9 19 9z" />
<glyph unicode=")" horiz-adv-x="300" d="M136 680h30q6 0 13.5 -5t9.5 -10q55 -121 55 -274q0 -158 -56 -314t-156 -274q-7 -9 -19 -9h-19q-12 0 -19 7t-7 16t6 16q39 55 67 104.5t57 119.5t44.5 157.5t15.5 186.5q0 123 -45 245q-2 6 -2 10q0 10 7 17t18 7z" />
<glyph unicode="*" horiz-adv-x="456" d="M462 440v-5q-2 -6 -4 -9l-14 -24q-7 -16 -23 -16q-7 0 -12 3l-94 64l-8 -9l39 -111q1 -4 1 -12q-4 -18 -19 -23l-23 -9q-8 -2 -11 -2q-18 0 -18 19q-10 115 -10 122h-13l-53 -123q-8 -19 -26 -19q-2 0 -8 2l-21 9q-12 5 -12 18v4q0 5 6 13l79 112l-7 9l-115 -63 q-7 -4 -13 -4q-16 0 -18 17l-5 21q-1 4 -1 13q3 17 20 22l125 34l2 12q-1 0 -24.5 7.5l-49.5 15.5t-37 12q-13 4 -13 20v4q0 1 3 10l13 23q8 16 25 16q4 0 10 -4l95 -64l11 7l-41 113q-1 3 -1 8v4q2 16 19 23l23 9q6 2 10 2q18 0 20 -18l9 -123h13l53 123q8 19 26 19 q2 0 8 -2l21 -10q12 -4 12 -18v-4q0 -5 -6 -13l-78 -112l5 -7l117 62q8 4 12 4q16 0 19 -16l4 -23q0 -1 0.5 -2.5t0.5 -2.5q-1 -1 -1 -3v-2q-2 -17 -21 -24l-123 -35l-2 -12l111 -33q13 -4 13 -19z" />
<glyph unicode="+" horiz-adv-x="595" d="M534 248v-22q0 -10 -7 -17.5t-18 -7.5h-176v-176q0 -11 -7.5 -18t-17.5 -7h-21q-11 0 -18 7t-7 18v176h-177q-11 0 -18 7.5t-7 17.5v22q0 10 7 17.5t18 7.5h177v176q0 11 7 18t18 7h21q10 0 17.5 -7t7.5 -18v-176h176q11 0 18 -7.5t7 -17.5z" />
<glyph unicode="," horiz-adv-x="225" d="M152 59q0 -34 -34.5 -99t-86.5 -132q-7 -10 -21 -10q-4 0 -8 2l-16 7q-16 6 -16 23q0 6 3 12q54 103 71 190q4 20 22 34.5t40 14.5q20 0 33 -11t13 -31z" />
<glyph unicode="-" horiz-adv-x="388" d="M44 220l5 32q2 24 25 24h244q10 0 17.5 -7t7.5 -18v-5l-6 -31q-1 -8 -9 -14t-16 -6h-243q-11 0 -18 7.5t-7 17.5z" />
<glyph unicode="." horiz-adv-x="222" d="M83 -8q-53 0 -53 44q0 29 19.5 47t51.5 18q24 0 38 -12t14 -33q0 -28 -20.5 -46t-49.5 -18z" />
<glyph unicode="/" horiz-adv-x="341" d="M383 643l-340 -703q-6 -14 -23 -14h-18q-11 0 -18.5 7t-7.5 17q0 6 3 12l341 703q6 14 23 14h17q11 0 18.5 -7t7.5 -17q0 -6 -3 -12z" />
<glyph unicode="0" horiz-adv-x="585" d="M574 423q0 -180 -99.5 -305.5t-225.5 -125.5q-93 0 -149 74.5t-56 192.5q0 176 99 302.5t229 126.5q93 0 147.5 -74t54.5 -191zM473 424q0 81 -31.5 130t-84.5 49q-77 0 -144 -107t-67 -240q0 -82 32 -130.5t86 -48.5q75 0 142 106.5t67 240.5z" />
<glyph unicode="1" horiz-adv-x="587" d="M135 555l216 118q12 7 28 7h32q11 0 18 -7t7 -17v-5l-100 -570h144q10 0 17.5 -7.5t7.5 -17.5l-6 -31q-3 -25 -25 -25h-396q-10 0 -17.5 7t-7.5 18l5 32q6 24 25 24h152l86 494l-161 -92q-5 -4 -13 -4q-9 0 -16 7t-8 18q-1 19 -1 29q0 15 13 22z" />
<glyph unicode="2" horiz-adv-x="587" d="M48 71l220 179q117 98 155.5 158t38.5 108q0 41 -29 64t-80 23q-68 0 -164 -56q-7 -4 -14 -4q-22 0 -24 23l-2 33q0 15 13 22q116 67 209 67q88 0 140.5 -48.5t52.5 -123.5q0 -87 -76 -178.5t-286 -256.5h258q10 0 17.5 -7.5t7.5 -17.5q-6 -9 -6 -31q-1 -11 -8 -18 t-17 -7h-398q-11 0 -18 7t-7 17l3 23q2 15 14 24z" />
<glyph unicode="3" horiz-adv-x="587" d="M150 582l-2 30q0 6 5 13.5t10 9.5q120 53 212 53q83 0 134.5 -44t51.5 -111q0 -49 -34 -96t-99 -77v-6q93 -34 93 -132q0 -105 -80 -167.5t-198 -62.5q-94 0 -196 58q-13 6 -13 23q0 3 2 9l17 38q6 15 22 15q7 0 14 -4q91 -54 169 -54q67 0 115 40.5t48 105.5 q0 36 -34.5 58t-125.5 25q-10 0 -17 6.5t-7 16.5v5l6 36q2 8 8.5 14.5t14.5 6.5q90 3 140.5 48.5t50.5 94.5q0 69 -98 69q-76 0 -174 -44q-6 -3 -12 -3q-21 0 -23 26z" />
<glyph unicode="4" horiz-adv-x="585" d="M428 546h-8q-206 -233 -268 -292v-5q96 2 189 2h32q31 185 55 295zM55 265l388 407q8 8 18 8h53q11 0 18 -7t7 -17v-5l-70 -400h46q11 0 18 -7t7 -18v-4l-5 -26q-1 -11 -8 -18t-17 -7h-54q-4 -25 -14 -75t-14 -75q-1 -8 -9 -14.5t-16 -6.5h-44q-11 0 -18 7t-7 17v5 l25 142h-300q-11 0 -18 7t-7 17v4l8 40q2 15 13 26z" />
<glyph unicode="5" horiz-adv-x="587" d="M564 651l-5 -26q-4 -25 -25 -25h-241l-39 -145q32 3 50 3q98 0 155 -54.5t57 -140.5q0 -112 -91 -191.5t-209 -79.5q-79 0 -156 20q-19 5 -19 24q0 3 2 9l17 37q7 14 22 14q4 0 6 -1q69 -18 134 -18q80 0 136.5 58t56.5 127q0 52 -35.5 81.5t-105.5 29.5q-54 0 -105 -9 h-5q-10 0 -17 6.5t-7 16.5q0 5 1 8l71 266q6 19 24 19h303q11 0 18 -7t7 -18v-4z" />
<glyph unicode="6" horiz-adv-x="585" d="M248 -8q-99 0 -161 54t-62 142q0 242 351 480q18 12 37 12h37q11 0 18 -7.5t7 -17.5q0 -14 -11 -21q-137 -92 -235 -200l1 -6q51 30 106 30q97 0 157 -55t60 -141q0 -122 -90.5 -196t-214.5 -74zM315 373q-91 0 -140 -52.5t-49 -132.5q0 -53 35 -82.5t102 -29.5 q82 0 135 54.5t53 131.5q0 53 -35 82t-101 29z" />
<glyph unicode="7" horiz-adv-x="586" d="M618 603l-408 -592q-7 -11 -21 -11h-52q-25 0 -25 23q0 10 5 16l392 560h-310q-3 -19 -10 -55.5t-10 -53.5q-2 -8 -9 -14.5t-16 -6.5h-25q-11 0 -18 7t-7 17v5l29 161q1 8 9 14.5t16 6.5h449q11 0 18 -6.5t7 -17.5v-5l-3 -21q-4 -17 -11 -27z" />
<glyph unicode="8" horiz-adv-x="587" d="M413 359q112 -44 112 -149q0 -95 -80 -156.5t-196 -61.5q-93 0 -150.5 47.5t-57.5 119.5q0 142 174 200l1 4q-43 16 -69 51t-26 79q0 83 75.5 139t175.5 56q81 0 135 -46t54 -112q0 -110 -148 -171zM422 209q0 41 -31 67.5t-85 35.5q-68 -11 -116 -55t-48 -98 q0 -39 32 -61t90 -22q68 0 113 39.5t45 93.5zM221 490q0 -65 101 -82q63 9 101 46t38 79q0 37 -30 54t-74 17q-51 0 -93.5 -31t-42.5 -83z" />
<glyph unicode="9" horiz-adv-x="585" d="M371 688q99 0 161 -54t62 -142q0 -242 -351 -480q-18 -12 -37 -12h-37q-11 0 -18 7.5t-7 17.5q0 14 11 21q137 92 235 200l-1 6q-51 -30 -106 -30q-97 0 -157 55t-60 141q0 122 90.5 196t214.5 74zM304 307q91 0 140 52.5t49 132.5q0 53 -35 82.5t-102 29.5 q-82 0 -135 -54.5t-53 -131.5q0 -53 35 -82t101 -29z" />
<glyph unicode=":" horiz-adv-x="222" d="M140 315q-53 0 -53 44q0 29 20 47t51 18q24 0 38 -12t14 -33q0 -29 -20.5 -46.5t-49.5 -17.5zM83 -8q-53 0 -53 44q0 29 20 47t51 18q24 0 38 -12t14 -33q0 -29 -20.5 -46.5t-49.5 -17.5z" />
<glyph unicode=";" horiz-adv-x="229" d="M145 315q-53 0 -53 44q0 29 19.5 47t51.5 18q24 0 38 -12t14 -33q0 -28 -20.5 -46t-49.5 -18zM152 59q0 -34 -34.5 -99t-86.5 -132q-7 -10 -21 -10q-4 0 -8 2l-16 7q-16 6 -16 23q0 6 3 12q54 103 71 190q4 20 22 34.5t40 14.5q20 0 33 -11t13 -31z" />
<glyph unicode="&#x3c;" horiz-adv-x="595" d="M61 221v34q0 6 5 13.5t10 9.5l405 187q3 2 10 2q16 0 22 -14l9 -19q3 -6 3 -12q0 -16 -14 -22q-266 -123 -357 -159v-6q91 -36 357 -159q14 -6 14 -22q0 -6 -3 -12l-9 -19q-6 -14 -22 -14q-7 0 -10 2l-405 187q-5 2 -10 9.5t-5 13.5z" />
<glyph unicode="=" horiz-adv-x="595" d="M85 372h424q11 0 18 -7t7 -18v-22q0 -11 -7 -18t-18 -7h-424q-11 0 -18 7t-7 18v22q0 11 7 18t18 7zM85 174h424q11 0 18 -7t7 -18v-22q0 -11 -7 -18t-18 -7h-424q-11 0 -18 7t-7 18v22q0 11 7 18t18 7z" />
<glyph unicode="&#x3e;" horiz-adv-x="595" d="M535 255v-34q0 -6 -5 -13.5t-10 -9.5l-405 -187q-3 -2 -10 -2q-16 0 -22 14l-9 19q-3 6 -3 12q0 16 14 22q266 123 357 159v6q-91 36 -357 159q-14 6 -14 22q0 6 3 12l9 19q6 14 22 14q7 0 10 -2l405 -187q5 -2 10 -9.5t5 -13.5z" />
<glyph unicode="?" horiz-adv-x="435" d="M140 -8q29 0 49.5 17.5t20.5 46.5q0 21 -14 33t-38 12q-31 0 -51 -18t-20 -47q0 -44 53 -44zM310 367q-85 -74 -106 -158q-6 -19 -24 -19h-15q-11 0 -18 7t-7 18v5q20 107 93 171q40 36 60 55.5t36.5 46.5t16.5 52q0 33 -27.5 51.5t-78.5 18.5q-46 0 -94 -19 q-6 -2 -10 -2q-8 0 -15.5 5.5t-8.5 14.5q-2 10 -2 23q0 17 16 23q71 28 148 28q84 0 127 -34.5t43 -88.5q0 -29 -9.5 -54.5t-32 -52.5t-39.5 -43.5t-53 -47.5z" />
<glyph unicode="@" horiz-adv-x="761" d="M472 -67l2 -11q0 -1 0.5 -3.5t0.5 -3.5q0 -20 -18 -25q-49 -16 -111 -16q-146 0 -231 90t-85 232q0 169 107.5 286.5t272.5 117.5q142 0 231 -84.5t89 -215.5q0 -122 -59 -188t-130 -66q-34 0 -60 21.5t-28 65.5h-5q-22 -44 -59.5 -65.5t-74.5 -21.5q-48 0 -78 30.5 t-30 88.5q0 61 20.5 112.5t52 83.5t67.5 49.5t69 17.5q60 0 123 -39q12 -7 12 -22q0 -4 -1 -6q-38 -143 -38 -190q0 -66 46 -66q15 0 30.5 7t34.5 25t31 58t12 97q0 107 -67 177t-193 70q-134 0 -221.5 -96t-87.5 -243q0 -120 68 -192.5t188 -72.5q43 0 89 12q10 2 13 2 q15 0 18 -16zM478 345q-29 23 -69 23q-42 0 -87.5 -52t-45.5 -136q0 -36 17 -55.5t44 -19.5q50 0 89 72.5t52 167.5z" />
<glyph unicode="A" d="M179 168l-90 -155q-7 -13 -22 -13h-51q-11 0 -18 6.5t-7 16.5q0 8 4 15l386 630q6 12 21 12h61q18 0 24 -19l164 -630q1 -2 1 -7q0 -11 -7 -17.5t-18 -6.5h-51q-8 0 -15 5.5t-9 13.5l-37 149h-336zM225 248h273q-71 292 -73 341h-8q-15 -32 -63 -117.5l-88 -154.5z" />
<glyph unicode="B" horiz-adv-x="639" d="M235 -8q-96 0 -162 4q-23 2 -23 24v5l112 636q1 7 8 13.5t15 7.5q72 6 166 6q131 0 187 -44t56 -107q0 -53 -35.5 -98.5t-92.5 -67.5v-5q57 -17 93 -57.5t36 -94.5q0 -45 -18 -83t-57 -70t-112 -50.5t-173 -18.5zM328 314h-133l-42 -236q57 -5 118 -5q112 0 167 44 t55 104q0 44 -42.5 68.5t-122.5 24.5zM246 605l-37 -210h116q72 0 122 39.5t50 93.5q0 81 -149 81q-69 0 -102 -4z" />
<glyph unicode="C" horiz-adv-x="675" d="M609 92l3 -32q0 -17 -16 -25q-108 -43 -212 -43q-146 0 -236 79.5t-90 209.5q0 119 63 213.5t165 144t221 49.5q96 0 189 -39q15 -7 15 -23q0 -3 -2 -9l-17 -39q-6 -16 -22 -16q-6 0 -12 3q-78 39 -163 39q-140 0 -238 -94.5t-98 -225.5q0 -95 64.5 -151.5t178.5 -56.5 q80 0 173 37q6 2 10 2q21 0 24 -23z" />
<glyph unicode="D" horiz-adv-x="759" d="M236 -8q-100 0 -165 5q-23 2 -23 24v5l112 636q1 7 8 13.5t15 7.5q62 5 179 5q187 0 280.5 -80t93.5 -209q0 -175 -132 -291t-368 -116zM244 602l-93 -525q36 -2 119 -2q162 0 263.5 89t101.5 239q0 101 -70.5 152t-201.5 51q-43 0 -119 -4z" />
<glyph unicode="E" horiz-adv-x="553" d="M477 55l-6 -30q-2 -25 -25 -25h-374q-11 0 -18 7t-7 17v5l110 630q1 8 9 14.5t16 6.5h370q10 0 17.5 -6.5t7.5 -15.5v-4l-6 -31q-2 -25 -25 -25h-304l-35 -204h260q11 0 18 -7t7 -17v-4q-1 -10 -7 -33q-5 -18 -24 -18h-268l-42 -234h301q25 0 25 -21v-5z" />
<glyph unicode="F" horiz-adv-x="526" d="M242 598l-36 -204h256q11 0 18 -7t7 -18v-4l-5 -26q-4 -25 -26 -25h-264l-52 -293q-1 -8 -9 -14.5t-16 -6.5h-43q-11 0 -18 7t-7 17v5l110 630q1 8 9 14.5t16 6.5h358q10 0 17.5 -7t7.5 -18l-5 -32q-4 -25 -26 -25h-292z" />
<glyph unicode="G" horiz-adv-x="759" d="M553 92l33 190h-116q-10 0 -17.5 7t-7.5 18l5 31q3 24 26 24h189q11 0 18 -7t7 -17v-5l-52 -296q-1 -6 -7 -12t-12 -8q-38 -10 -113 -17.5t-123 -7.5q-146 0 -236 79.5t-90 209.5q0 119 63 213t165 144t221 50q98 0 189 -40q15 -7 15 -23q0 -4 -2 -10q-5 -13 -18 -38 q-6 -14 -23 -14q-7 0 -10 2q-78 38 -162 38q-140 0 -238 -94.5t-98 -224.5q0 -95 64.5 -151.5t178.5 -56.5q72 0 151 16z" />
<glyph unicode="H" horiz-adv-x="752" d="M740 651l-111 -630q-1 -8 -9 -14.5t-16 -6.5h-43q-11 0 -18 7t-7 17v5l49 281h-394l-51 -289q-1 -8 -9 -14.5t-16 -6.5h-43q-11 0 -18 7t-7 17v5l110 630q1 8 9 14.5t16 6.5h44q11 0 18 -7t7 -17v-5l-45 -259h393l48 267q2 8 9 14.5t16 6.5h43q11 0 18 -7t7 -17v-5z" />
<glyph unicode="I" horiz-adv-x="439" d="M349 50l-4 -25q-4 -25 -26 -25h-275q-11 0 -18 7t-7 18v5l4 23q1 9 9 15.5t17 6.5h93l93 529h-85q-11 0 -18 7t-7 17v4l4 26q1 10 9 16t17 6h275q11 0 18 -7t7 -17v-4l-4 -26q-1 -9 -9 -15.5t-17 -6.5h-94l-93 -529h86q10 0 17.5 -7.5t7.5 -17.5z" />
<glyph unicode="J" horiz-adv-x="455" d="M263 175l76 430h-149q-11 0 -18 7t-7 17v4l4 25q3 22 26 22h222q11 0 18 -7t7 -17v-5l-84 -476q-15 -85 -74.5 -134t-144.5 -49q-58 0 -117 27q-15 8 -15 24q0 3 2 9q7 17 16 35q6 14 23 14q7 0 10 -2q40 -19 88 -19q45 0 77.5 25.5t39.5 69.5z" />
<glyph unicode="K" horiz-adv-x="658" d="M212 397l317 276q7 7 18 7h54q12 0 18.5 -7t6.5 -17q0 -11 -9 -20l-312 -268l274 -327q7 -7 7 -17t-7 -17t-19 -7h-55q-12 0 -19 9q-238 280 -281 344h-5l-58 -332q-2 -8 -9 -14.5t-16 -6.5h-43q-11 0 -18 7t-7 17v5l110 630q1 8 9 14.5t16 6.5h44q11 0 18 -7t7 -17v-5 l-45 -254h4z" />
<glyph unicode="L" horiz-adv-x="535" d="M484 55l-4 -30q-4 -25 -26 -25h-382q-11 0 -18 7t-7 17v5l110 630q1 8 9 14.5t16 6.5h44q11 0 18 -7t7 -17v-5l-100 -571h308q11 0 18 -7t7 -18z" />
<glyph unicode="M" horiz-adv-x="896" d="M43 30l133 630q4 20 24 20h58q16 0 22 -12l181 -307l293 311q8 8 18 8h65q11 0 18 -6.5t7 -17.5v-4l-86 -630q-4 -22 -25 -22h-47q-10 0 -16 6t-6 15v4q57 401 77 528h-4l-289 -307q-8 -9 -19 -9q-13 0 -21 13l-178 303h-5q-2 -12 -108 -533q-4 -20 -24 -20h-44 q-11 0 -18 6.5t-7 17.5q0 1 0.5 3t0.5 3z" />
<glyph unicode="N" horiz-adv-x="771" d="M550 12l-320 534h-5l-8 -49t-7 -48l-74 -428q-1 -8 -9 -14.5t-16 -6.5h-39q-11 0 -18 7t-7 17v5l110 630q1 8 9 14.5t16 6.5h56q5 0 12.5 -4.5t9.5 -8.5l316 -532h5l89 524q1 8 9 14.5t16 6.5h39q11 0 18 -7t7 -17v-5l-111 -630q-1 -8 -9 -14.5t-16 -6.5h-51 q-16 0 -22 12z" />
<glyph unicode="O" horiz-adv-x="822" d="M798 399q0 -169 -123.5 -288t-308.5 -119q-146 0 -227.5 80.5t-81.5 205.5q0 169 123 289.5t309 120.5q146 0 227.5 -82t81.5 -207zM697 403q0 94 -58.5 147t-164.5 53q-132 0 -224 -94t-92 -232q0 -93 59 -146.5t164 -53.5q135 0 225.5 94t90.5 232z" />
<glyph unicode="P" horiz-adv-x="594" d="M181 252l-41 -231q-2 -8 -9 -14.5t-16 -6.5h-43q-11 0 -18 7t-7 17v5l112 633q1 7 8 13.5t15 7.5q60 5 166 5q132 0 192 -53.5t60 -133.5q0 -114 -84 -181.5t-196 -67.5h-139zM242 601l-48 -267l118 -1q79 0 133.5 48.5t54.5 119.5q0 105 -155 105q-58 0 -103 -5z" />
<glyph unicode="Q" horiz-adv-x="823" d="M650 -86l-14 -30q-2 -6 -9.5 -11t-14.5 -5q-113 3 -184.5 39.5t-95.5 86.5q-132 9 -203 89.5t-71 194.5q0 170 122.5 290t308.5 120q146 0 228 -81.5t82 -206.5q0 -91 -41 -174t-121.5 -143.5t-184.5 -79.5q37 -45 177 -54q24 -2 24 -24q0 -5 -3 -11zM474 603 q-132 0 -224 -94t-92 -231q0 -95 59 -148t164 -53q134 0 225 94t91 233q0 93 -59 146t-164 53z" />
<glyph unicode="R" horiz-adv-x="637" d="M187 281l-47 -260q-1 -8 -9 -14.5t-16 -6.5h-43q-11 0 -18 7t-7 17v5l111 632q1 7 8 13.5t15 7.5q74 6 167 6q67 0 116.5 -15.5t75.5 -42.5t38 -56.5t12 -63.5q0 -69 -52.5 -124.5t-123.5 -77.5v-5q26 -15 50.5 -48t37 -58.5l34.5 -73.5l40 -88q3 -6 3 -11 q0 -10 -7.5 -17t-18.5 -7h-52q-7 0 -17.5 6.5t-13.5 16.5q-94 258 -189 258h-94zM242 601l-42 -241h96q86 0 140 42.5t54 107.5q0 96 -145 96q-58 0 -103 -5z" />
<glyph unicode="S" horiz-adv-x="545" d="M10 68l19 40q8 17 23 17q9 0 14 -4q72 -43 161 -43q68 0 115 34.5t47 84.5q0 31 -29 54.5t-83 50.5l-20 10q-44 24 -67 38t-49 36t-37 46t-11 55q0 96 78 148.5t186 52.5q76 0 152 -33q15 -6 15 -23q0 -4 -2 -10l-15 -36q-6 -15 -22 -15q-6 0 -12 3q-63 29 -129 29 q-59 0 -104 -30.5t-45 -77.5q0 -18 14 -34t31.5 -25.5t51.5 -26.5l24 -12q41 -21 66 -36.5t53.5 -39t42.5 -52.5t14 -63q0 -101 -80.5 -157.5t-191.5 -56.5q-109 0 -198 46q-13 6 -13 22q0 5 1 8z" />
<glyph unicode="T" horiz-adv-x="594" d="M82 626l5 29q3 25 25 25h515q11 0 18 -7t7 -18v-5l-6 -32q-1 -8 -9 -14t-16 -6h-211l-102 -577q-1 -8 -9 -14.5t-16 -6.5h-44q-11 0 -18 7t-7 17v5l100 569h-207q-11 0 -18 7t-7 18v3z" />
<glyph unicode="U" horiz-adv-x="769" d="M689 680h44q11 0 18 -7t7 -17v-5l-72 -412q-19 -108 -120 -177.5t-224 -69.5q-114 0 -187 63t-73 157q0 25 3 40l73 407q1 8 9 14.5t16 6.5h44q11 0 18 -7t7 -17v-5l-71 -409q-2 -9 -2 -26q0 -61 50 -100t128 -39q84 0 153 52.5t82 124.5l72 405q1 8 9 14.5t16 6.5z" />
<glyph unicode="V" d="M753 642l-384 -630q-6 -12 -21 -12h-57q-18 0 -24 19l-163 630q-1 2 -1 7q0 11 7 17.5t18 6.5h50q19 0 25 -19q112 -457 126 -545h8q51 94 319 552q6 12 22 12h54q11 0 18 -6.5t7 -16.5q0 -8 -4 -15z" />
<glyph unicode="W" horiz-adv-x="1093" d="M587 680h58q8 0 15.5 -6t9.5 -14q106 -467 107 -542h6l254 548q6 14 23 14h51q11 0 18.5 -7t7.5 -17q0 -6 -3 -12l-305 -630q-6 -14 -23 -14h-71q-20 0 -24 20q-100 449 -108 526h-7q-39 -80 -297 -533q-7 -13 -22 -13h-69q-21 0 -25 22l-86 630v4q0 10 7 17t18 7h52 q19 0 23 -20q56 -489 58 -542h7q31 66 303 549q7 13 22 13z" />
<glyph unicode="X" horiz-adv-x="744" d="M648 0h-49q-21 0 -31 17q-173 255 -178 268h-8l-274 -271q-12 -14 -34 -14h-49q-12 0 -18.5 7t-6.5 17q0 12 8 19l326 313l-197 285q-5 8 -5 15q0 10 7 17t19 7h49q21 0 31 -17q153 -225 157 -236h8l83 84l110 107l48 48q14 14 34 14h49q12 0 18.5 -7t6.5 -17 q0 -12 -8 -19l-293 -282l218 -316q5 -8 5 -15q0 -10 -7 -17t-19 -7z" />
<glyph unicode="Y" horiz-adv-x="635" d="M331 381h8q41 63 228 290q7 9 19 9h54q12 0 18.5 -7t6.5 -17t-6 -17l-286 -347l-47 -271q-1 -8 -9 -14.5t-16 -6.5h-44q-11 0 -18 7t-7 17v5l46 263l-167 352q-3 6 -3 12q0 10 7 17t19 7h39q21 0 30 -18q114 -225 128 -281z" />
<glyph unicode="Z" horiz-adv-x="646" d="M124 624l5 32q2 24 25 24h469q11 0 18 -7t7 -17v-5l-4 -22q-4 -20 -17 -35l-435 -464q-35 -36 -46 -42v-7h397q11 0 18 -7.5t7 -17.5l-5 -31q-3 -25 -26 -25h-501q-10 0 -17.5 7t-7.5 18l3 24q2 19 16 35l479 514h-360q-11 1 -18 8.5t-7 17.5z" />
<glyph unicode="[" horiz-adv-x="242" d="M292 651l-3 -18q-2 -8 -9 -14.5t-16 -6.5h-56l-132 -750h47q11 0 18 -7t7 -17v-5l-4 -18q-2 -8 -9 -14.5t-16 -6.5h-98q-11 0 -18 7t-7 17v5q134 753 147 836q1 9 8.5 15t16.5 6h99q11 0 18 -7t7 -17v-5z" />
<glyph unicode="\" horiz-adv-x="341" d="M123 679h22q21 0 25 -22l94 -703v-4q0 -10 -7 -17t-18 -7h-22q-21 0 -25 22l-94 703v4q0 10 7 17t18 7z" />
<glyph unicode="]" horiz-adv-x="242" d="M92 641l3 18q2 8 9 14.5t16 6.5h98q11 0 18 -7t7 -17v-5l-127 -721q-3 -19 -10 -57.5t-10 -57.5q-4 -21 -25 -21h-97q-11 0 -18 7t-7 17v5l4 18q2 8 9 14.5t16 6.5h53l133 750h-47q-11 0 -18 7t-7 17v5z" />
<glyph unicode="^" horiz-adv-x="560" d="M325 670l187 -418q3 -6 3 -11q0 -10 -7.5 -17t-18.5 -7h-23q-17 0 -23 15l-160 372h-5l-78.5 -180.5t-82.5 -191.5q-6 -15 -23 -15h-25q-11 0 -18.5 7t-7.5 17q0 5 3 11l190 418q2 5 9.5 10t13.5 5h43q6 0 13.5 -5t9.5 -10z" />
<glyph unicode="_" horiz-adv-x="576" d="M487 -143h-524q-11 0 -18 7t-7 17v5l4 20q2 8 9 14.5t16 6.5h524q11 0 18 -7t7 -17v-5l-4 -20q-2 -8 -9 -14.5t-16 -6.5z" />
<glyph unicode="`" horiz-adv-x="305" d="M187 680h20q17 0 23 -14l44 -88q3 -6 3 -12q0 -10 -7.5 -17t-18.5 -7h-5q-14 0 -20 10l-60 89q-5 8 -5 15q0 10 7.5 17t18.5 7z" />
<glyph unicode="a" horiz-adv-x="568" d="M482 6l-31 -8q-1 0 -3 -0.5t-3 -0.5q-18 0 -23 19q-7 28 -7 71v15h-7q-31 -58 -83.5 -84t-107.5 -26q-80 0 -133.5 47.5t-53.5 139.5q0 94 43.5 165t106.5 104.5t132 33.5q96 0 204 -55q13 -7 13 -22v-4l-18 -104q-18 -109 -18 -180q0 -45 7 -82v-4q0 -20 -18 -25z M434 376q-57 32 -126 32q-67 0 -124 -57t-57 -160q0 -62 31.5 -94t82.5 -32q42 0 76.5 23.5t55.5 58.5t35 79t19.5 81t6.5 69z" />
<glyph unicode="b" horiz-adv-x="569" d="M34 51l106 608q2 8 9 14.5t16 6.5h41q11 0 18.5 -7t7.5 -17v-5l-43 -245h4q59 76 156 76q80 0 134 -47t54 -139q0 -139 -86.5 -221.5t-196.5 -82.5q-103 0 -203 34q-17 7 -17 25zM439 283q0 61 -31.5 93t-82.5 32q-52 0 -91.5 -34t-60.5 -87t-31 -103t-11 -97 q54 -22 127 -22q67 0 124 57.5t57 160.5z" />
<glyph unicode="c" horiz-adv-x="484" d="M416 71l3 -22q0 -19 -17 -27q-82 -30 -158 -30q-99 0 -156 54t-57 145q0 132 86.5 211.5t212.5 79.5q67 0 138 -26q17 -6 17 -24q0 -4 -2 -10l-13 -28q-7 -15 -23 -15q-3 0 -9 2q-64 25 -119 25q-79 0 -135.5 -59t-56.5 -158q0 -61 34.5 -91t97.5 -30q52 0 124 24 q3 1 8 1q22 0 25 -22z" />
<glyph unicode="d" horiz-adv-x="569" d="M483 7l-30 -8q-1 0 -3 -0.5t-3 -0.5q-18 0 -23 18q-9 30 -9 69v17h-6q-32 -59 -83.5 -84.5t-107.5 -25.5q-80 0 -133.5 47.5t-53.5 139.5q0 94 43.5 165t106.5 104.5t132 33.5t133 -29l36 206q1 8 9 14.5t16 6.5h42q11 0 18 -7t7 -17v-5l-62 -354q-18 -104 -18 -178 q0 -46 7 -83v-4q0 -20 -18 -25zM435 377q-57 32 -125 32q-67 0 -124.5 -57.5t-57.5 -159.5q0 -62 32 -94t83 -32q52 0 91.5 34.5t59.5 86.5t30 100.5t11 89.5z" />
<glyph unicode="e" horiz-adv-x="505" d="M418 75l6 -23q0 -20 -16 -27q-87 -33 -164 -33q-100 0 -156.5 51t-56.5 141q0 133 85.5 215.5t210.5 82.5q79 0 120 -35t41 -83q0 -75 -97.5 -113t-261.5 -39q-2 -22 -2 -23q0 -58 36 -90t96 -32q58 0 126 25q6 2 9 2q19 0 24 -19zM143 278h24q101 0 165 19.5t64 59.5 q0 23 -23 37t-56 14q-58 0 -105.5 -32.5t-68.5 -97.5z" />
<glyph unicode="f" horiz-adv-x="329" d="M116 474l13 73q25 141 173 141q66 0 125 -21q17 -7 17 -24q0 -3 -2 -9l-11 -24q-6 -16 -23 -16q-5 0 -8 1q-51 17 -90 17q-78 0 -89 -69l-12 -69h98q11 0 18 -7t7 -17v-5l-4 -20q-2 -8 -9 -14.5t-16 -6.5h-105l-69 -383q-2 -8 -9 -14.5t-16 -6.5h-41q-11 0 -18 7t-7 17v5 l66 375h-27q-11 0 -18 7t-7 17v5l4 20q2 8 9 14.5t16 6.5h35z" />
<glyph unicode="g" horiz-adv-x="569" d="M527 400l-78 -449q-14 -75 -81 -119.5t-161 -44.5q-60 0 -134 18q-19 5 -19 23q0 1 0.5 3t0.5 3l8 30q5 21 25 21q5 0 7 -1q75 -20 118 -20q127 0 142 84l23 131h-5q-52 -72 -154 -72q-80 0 -134 46t-54 135q0 120 81 207t199 87q107 0 204 -56q12 -7 12 -22v-4zM435 379 q-53 30 -128 30q-67 0 -123 -54t-56 -153q0 -55 29 -89.5t81 -34.5t92 32t61.5 81.5t32.5 97.5t11 90z" />
<glyph unicode="h" horiz-adv-x="561" d="M504 297l-49 -276q-1 -8 -9 -14.5t-16 -6.5h-40q-11 0 -18 7t-7 17v5l41 237q7 42 7 64q0 39 -18.5 58.5t-62.5 19.5q-53 0 -104 -60t-73 -134l-34 -193q-1 -8 -9 -14.5t-16 -6.5h-41q-11 0 -18 7t-7 17v5l110 630q1 8 9 14.5t16 6.5h42q11 0 18 -7t7 -17v-5l-46 -262 q42 44 91.5 68.5t90.5 24.5q142 0 142 -125q0 -28 -6 -60z" />
<glyph unicode="i" horiz-adv-x="226" d="M29 29l74 424q1 8 9 14.5t16 6.5h42q11 0 18 -7t7 -17v-5l-74 -424q-2 -8 -9 -14.5t-16 -6.5h-42q-11 0 -18 7t-7 17v5zM186 648q47 0 47 -39q0 -26 -19 -42t-45 -16q-47 0 -47 39q0 26 19 42t45 16z" />
<glyph unicode="j" horiz-adv-x="228" d="M197 445l-84 -470q-14 -74 -71.5 -121t-145.5 -63q-1 0 -3 -0.5t-3 -0.5q-22 0 -24 26l-1 19q0 1 -0.5 3t-0.5 3q0 19 21 24q57 10 92.5 37t42.5 67l86 484q1 8 9 14.5t16 6.5h41q11 0 18 -7t7 -17v-5zM233 609q0 -26 -19 -42t-45 -16q-47 0 -47 39q0 26 19 42t45 16 q47 0 47 -39z" />
<glyph unicode="k" horiz-adv-x="484" d="M176 302q19 20 73.5 61l99.5 72l45 31q14 8 28 8h36q12 0 19 -7.5t7 -17.5q0 -11 -11 -20l-212 -161l177 -228q6 -8 6 -16q0 -10 -7 -17t-19 -7h-43q-13 0 -20 9q-1 2 -5 6q-1 2 -4 5q-148 188 -176 246h-7l-43 -245q-1 -8 -9 -14.5t-16 -6.5h-40q-11 0 -18 7t-7 17v5 l110 630q1 8 9 14.5t16 6.5h41q11 0 18 -7t7 -17v-5l-62 -349h7z" />
<glyph unicode="l" horiz-adv-x="305" d="M46 128l95 531q1 8 9 14.5t16 6.5h40q11 0 18 -7t7 -17v-5l-89 -509q-3 -14 -3 -23q0 -48 54 -48q17 0 38 4h5q10 0 17 -6.5t8 -16.5l2 -25q0 -20 -20 -24q-50 -11 -83 -11q-52 0 -84.5 26.5t-32.5 73.5q0 21 3 36z" />
<glyph unicode="m" horiz-adv-x="883" d="M169 367h4q38 57 91 86t100 29q131 0 135 -115h5q34 56 88 85.5t101 29.5q139 0 139 -124q0 -30 -6 -62l-49 -275q-1 -8 -9 -14.5t-16 -6.5h-39q-11 0 -18 7t-7 17v5l12 65q38 194 38 243q0 36 -18 53.5t-63 17.5q-58 0 -118 -81q-37 -51 -57 -113l-34 -193 q-1 -8 -9 -14.5t-16 -6.5h-38q-11 0 -18 7t-7 17v5l12 65q38 194 38 243q0 36 -18 53.5t-63 17.5q-52 0 -102 -60.5t-72 -135.5l-33 -191q-1 -8 -9 -14.5t-16 -6.5h-42q-11 0 -18 7t-7 17v5l43 248q22 119 22 172q0 9 9 17t19 8h30q10 0 17 -7.5t7 -17.5q-1 -26 -8 -82z" />
<glyph unicode="n" horiz-adv-x="562" d="M155 212l-33 -191q-1 -8 -9 -14.5t-16 -6.5h-42q-11 0 -18 7t-7 17v5l43 248q23 132 23 172q0 9 9 17t19 8h30q10 0 17 -7.5t7 -17.5q-1 -26 -9 -82h5q38 58 91.5 86.5t102.5 28.5q142 0 142 -125q0 -28 -6 -60l-48 -276q-4 -21 -25 -21h-42q-11 0 -18 7t-7 17v5l46 257 q4 23 4 45q0 39 -19 58t-62 19q-53 0 -104.5 -61t-73.5 -135z" />
<glyph unicode="o" horiz-adv-x="577" d="M544 284q0 -132 -86.5 -212t-213.5 -80q-98 0 -155.5 54.5t-57.5 145.5q0 132 86.5 211t212.5 79q99 0 156.5 -54t57.5 -144zM447 287q0 61 -34.5 91t-95.5 30q-77 0 -133.5 -60t-56.5 -159q0 -61 34.5 -92t95.5 -31q78 0 134 60.5t56 160.5z" />
<glyph unicode="p" horiz-adv-x="569" d="M439 284q0 60 -31.5 92t-82.5 32t-89.5 -32t-59 -83t-31 -99t-13.5 -96q56 -33 126 -33q68 0 124.5 58t56.5 161zM-6 -177l79 453q25 130 25 173q0 9 9 17t19 8h28q10 0 17 -7t7 -18q-1 -18 -4 -52h6q67 85 184 85q69 0 121 -47.5t52 -137.5q0 -94 -43 -165.5 t-106.5 -105.5t-132.5 -34q-60 0 -133 29l-38 -206q-1 -8 -9 -14.5t-16 -6.5h-40q-11 0 -18 7t-7 17v5z" />
<glyph unicode="q" horiz-adv-x="569" d="M31 179q0 138 86.5 220.5t195.5 82.5q86 0 204 -37q17 -7 17 -24v-4l-98 -552h85q11 0 18 -7t7 -18v-4l-4 -21q-4 -21 -25 -21h-157q-11 0 -18 7t-7 17v5l43 244h-5q-59 -75 -155 -75q-80 0 -133.5 47.5t-53.5 139.5zM128 191q0 -62 32 -94t83 -32q59 0 103 46.5 t66 117.5t25 157q-64 22 -128 22q-66 0 -123.5 -57.5t-57.5 -159.5z" />
<glyph unicode="r" horiz-adv-x="399" d="M424 448l-11 -40q-5 -19 -24 -19q-3 0 -9 2q-18 7 -48 7q-55 0 -103 -54t-69 -123l-35 -200q-2 -8 -9 -14.5t-16 -6.5h-41q-11 0 -18 7t-7 17v5l43 247q24 137 24 173q0 9 9 17t19 8h28q10 0 16.5 -6.5t6.5 -16.5q0 -17 -6 -80h5q36 57 85.5 84t96.5 27q24 0 45 -5 q19 -5 19 -22q0 -5 -1 -7z" />
<glyph unicode="s" horiz-adv-x="416" d="M183 211q-33 15 -47.5 23t-38.5 24t-34 34.5t-10 40.5q0 73 60 111t137 38q58 0 124 -24q16 -6 16 -23q0 -7 -2 -10l-14 -28q-6 -15 -23 -15q-7 0 -10 2q-51 23 -97 23q-37 0 -65.5 -19t-28.5 -47q0 -11 9 -20.5t19.5 -14.5t35.5 -16l20 -9q32 -14 52 -25t41 -27t31 -35 t10 -42q0 -79 -65 -119.5t-148 -40.5q-75 0 -147 25q-17 5 -17 22q0 9 4 14l16 27q6 14 22 14q4 0 10 -2q55 -25 111 -25q41 0 78.5 21.5t37.5 53.5q0 19 -21 33.5t-66 35.5z" />
<glyph unicode="t" horiz-adv-x="375" d="M53 130l49 274h-27q-11 0 -18 7t-7 17v5l4 20q2 8 9 14.5t16 6.5h35l11 60q1 6 6.5 12t10.5 8l45 17q3 1 8 1q11 0 18 -7t7 -18v-5l-13 -68h113q11 0 18 -7t7 -17v-5l-4 -20q-2 -8 -9 -14.5t-16 -6.5h-121l-46 -263l-2 -19q1 -51 68 -51q37 0 88 15q3 1 8 1q22 0 24 -23 l2 -25q0 -18 -18 -24q-75 -23 -144 -23q-56 0 -90.5 26.5t-34.5 74.5q0 22 3 37z" />
<glyph unicode="u" horiz-adv-x="561" d="M403 248l35 205q1 8 9 14.5t16 6.5h42q11 0 18 -7t7 -17v-5l-43 -248q-23 -132 -23 -172q0 -9 -9 -17t-19 -8h-28q-10 0 -17 6.5t-7 16.5q0 39 7 84h-5q-39 -58 -92.5 -86.5t-101.5 -28.5q-142 0 -142 125q0 28 6 60l48 276q4 21 25 21h42q11 0 18 -7t7 -17v-5l-46 -257 q-4 -23 -4 -45q0 -40 17.5 -58.5t63.5 -18.5q54 0 104.5 54.5t71.5 127.5z" />
<glyph unicode="v" horiz-adv-x="478" d="M486 436l-251 -424q-6 -12 -22 -12h-52q-8 0 -15 5.5t-9 13.5l-101 424q-1 2 -1 7q0 10 7 17t18 7h40q8 0 15 -5.5t9 -13.5q63 -277 74 -356h5q14 31 64 121l93 166l44 76q6 12 22 12h38q12 0 19 -7t7 -17q0 -7 -4 -14z" />
<glyph unicode="w" horiz-adv-x="781" d="M418 376h-7q-33 -70 -187 -362q-6 -14 -22 -14h-63q-21 0 -25 22l-53 424v4q0 10 7 17t18 7h39q9 0 16.5 -6.5t8.5 -15.5q31 -310 33 -355h7q73 164 187 364q7 13 22 13h55q8 0 16 -6t9 -14q54 -278 58 -357h7q5 16 44 107l76 174l37 82q6 14 23 14h42q12 0 19 -7t7 -17 q0 -6 -3 -12l-202 -424q-6 -14 -23 -14h-64q-8 0 -15 6t-8 14q-55 306 -59 356z" />
<glyph unicode="x" horiz-adv-x="557" d="M282 318h7l142 145q11 11 25 11h45q12 0 18.5 -7t6.5 -17q0 -12 -8 -19l-183 -177l147 -215q5 -8 5 -15q0 -10 -7 -17t-19 -7h-47q-14 0 -21 11l-117 177h-7l-182 -181q-7 -7 -18 -7h-46q-12 0 -18.5 7t-6.5 17q0 11 8 19l216 211l-122 181q-5 8 -5 15q0 10 7 17t19 7h49 q14 0 21 -12z" />
<glyph unicode="y" horiz-adv-x="475" d="M-68 -184l-2 24q0 18 18 24q68 22 107 55.5t82 102.5l-103 421q-1 2 -1 7q0 11 7 17.5t18 6.5h44q8 0 15 -5.5t9 -13.5q62 -273 70 -349h6q11 27 60 116l92 164l43 76q6 12 22 12h47q11 0 18 -6.5t7 -16.5q0 -8 -4 -15l-303 -489q-53 -97 -219 -152q-3 -1 -8 -1 q-22 0 -25 22z" />
<glyph unicode="z" horiz-adv-x="483" d="M11 55l322 347h-229q-11 0 -18 7t-7 18v4l4 22q1 9 8.5 15t16.5 6h336q11 0 18 -7t7 -17v-5l-2 -11q-4 -17 -13 -26l-312 -336h244q11 0 18 -7t7 -18v-4l-4 -22q-1 -9 -8.5 -15t-16.5 -6h-358q-10 0 -17.5 7t-7.5 18q0 1 0.5 5t0.5 6q2 8 11 19z" />
<glyph unicode="{" horiz-adv-x="274" d="M318 660v-18q-4 -18 -22 -24q-35 -10 -52.5 -35t-25.5 -72q-3 -30 -5 -52q-4 -60 -7 -72q-19 -107 -112 -148l-1 -4q64 -33 64 -106q0 -22 -4 -42q-1 -6 -18 -72l-14 -52q-4 -20 -4 -40q0 -52 45 -67q13 -6 13 -18l-6 -24q-9 -17 -26 -17q-1 0 -3 0.5t-3 0.5 q-92 24 -92 120q0 10 4 38q1 3 4 15.5t6 26.5t7 26q16 55 18 70q3 15 3 30q0 65 -58 81q-14 5 -14 20v4l3 16q1 7 7.5 14.5t14.5 9.5q79 20 95 111q6 28 6 70q4 50 8 68q11 65 50 105.5t93 52.5q1 0 3 0.5t3 0.5q18 0 20 -17z" />
<glyph unicode="|" horiz-adv-x="251" d="M115 680h21q10 0 17.5 -7t7.5 -18v-836q0 -11 -7.5 -18t-17.5 -7h-21q-11 0 -18 7t-7 18v836q0 11 7 18t18 7z" />
<glyph unicode="}" horiz-adv-x="274" d="M-47 -186v18q4 18 22 24q35 10 52.5 35t25.5 72q3 30 5 52q4 60 7 72q19 107 112 148l1 4q-64 33 -64 106q0 22 4 42q1 6 18 72l14 52q4 20 4 40q0 52 -45 67q-13 6 -13 18l6 24q8 17 26 17q1 0 3 -0.5t3 -0.5q92 -24 92 -120q0 -10 -4 -38q-1 -3 -4 -15.5t-6 -26.5 t-7 -26q-16 -55 -18 -70q-3 -15 -3 -30q0 -65 58 -81q14 -5 14 -20v-4l-3 -16q-1 -7 -7.5 -14.5t-14.5 -9.5q-79 -20 -95 -111q-6 -23 -6 -70q-4 -50 -8 -68q-11 -65 -50 -105.5t-93 -52.5q-1 0 -3 -0.5t-3 -0.5q-18 0 -20 17z" />
<glyph unicode="~" horiz-adv-x="562" d="M415 234q-54 0 -152 49q-81 42 -111 42q-48 0 -55 -63q-1 -9 -8.5 -15.5t-16.5 -6.5h-15q-11 0 -18 7.5t-7 20.5q6 59 37 94.5t80 35.5q48 0 142 -46q92 -45 123 -45q24 0 36.5 14.5t15.5 47.5q1 10 8 16.5t17 6.5h15q11 0 18 -7.5t7 -19.5q-8 -131 -116 -131z" />
<glyph unicode="&#xa1;" horiz-adv-x="232" d="M158 482q53 0 53 -44q0 -29 -20 -47t-51 -18q-24 0 -38 12t-14 33q0 29 20.5 46.5t49.5 17.5zM-3 -176l93 440q1 8 9 14t16 6h9q11 0 18 -6.5t7 -17.5v-4l-60 -440q-4 -22 -25 -22h-43q-11 0 -18 6.5t-7 17.5q0 1 0.5 3t0.5 3z" />
<glyph unicode="&#xa2;" horiz-adv-x="490" d="M499 523l-12 -26q-6 -14 -22 -14q-4 0 -10 2q-60 26 -117 26q-79 0 -136 -57.5t-57 -155.5q0 -62 35 -95.5t97 -33.5q61 0 123 24q6 2 10 2q10 0 17 -7t7 -18l2 -22q0 -18 -16 -23q-62 -21 -126 -29l-13 -75q-2 -8 -9 -14.5t-16 -6.5h-32q-11 0 -18 7t-7 17v5l13 70 q-80 12 -121.5 61.5t-41.5 126.5q0 115 69.5 196t178.5 98l13 77q2 8 9 14.5t16 6.5h32q11 0 18 -7t7 -17v-5l-12 -67q55 -7 105 -24q17 -6 17 -24q0 -6 -3 -12z" />
<glyph unicode="&#xa3;" horiz-adv-x="589" d="M8 25l5 32q3 24 25 24h34l74 217h-61q-11 0 -18 7t-7 17v4l4 24q1 9 8.5 15.5t16.5 6.5h79l47 142q28 84 104 129t171 45q49 0 89 -11q19 -5 19 -23q0 -4 -2 -10l-14 -32q-5 -16 -23 -16q-1 0 -3 0.5t-3 0.5q-40 9 -66 9q-57 0 -109.5 -25t-66.5 -67l-47 -142h182 q11 0 18 -7t7 -17v-4l-4 -24q-5 -22 -25 -22h-200l-74 -217h303q10 0 17.5 -7.5t7.5 -18.5l-5 -30q-3 -25 -25 -25h-433q-11 0 -18 7t-7 18z" />
<glyph unicode="&#xa4;" horiz-adv-x="592" d="M478 152l39 -39q7 -7 7 -18t-7 -18l-14 -14q-8 -8 -18 -8t-18 8l-39 39q-60 -44 -134 -44q-76 0 -134 44l-39 -39q-8 -8 -18 -8t-18 8l-14 14q-8 8 -8 18t8 18l38 39q-44 60 -44 134t44 134l-38 39q-8 8 -8 18t8 18l14 14q7 7 18 7t18 -7l38 -38q61 43 135 43 q75 0 134 -43l39 38q7 7 18 7t18 -7l14 -14q7 -7 7 -18t-7 -18l-39 -39q44 -58 44 -134t-44 -134zM137 286q0 -65 46 -111t111 -46q64 0 110 46t46 111t-45.5 111t-110.5 46t-111 -46t-46 -111z" />
<glyph unicode="&#xa5;" horiz-adv-x="677" d="M465 377l-70 -85h172q8 0 14 -6t6 -14q0 -1 -0.5 -2.5t-0.5 -2.5l-1 -11q-2 -11 -10.5 -18t-18.5 -7h-172l-37 -210q-2 -8 -9 -14.5t-16 -6.5h-43q-11 0 -18 7t-7 17v5l35 202h-172q-19 0 -19 21v4l2 11q2 11 10 18t18 7h172l-41 85h-116q-8 0 -14 6t-6 14q0 1 0.5 2.5 t0.5 2.5l2 11q1 10 9.5 17.5t18.5 7.5h77l-98 206q-3 6 -3 12q0 10 7 17t19 7h53q15 0 22 -13q115 -235 128 -287h7q59 86 232 291q7 9 19 9h44q12 0 18.5 -7t6.5 -17t-6 -17l-165 -201h78q8 0 14 -6t6 -14q0 -1 -0.5 -2.5t-0.5 -2.5l-2 -11q-1 -10 -9.5 -17.5t-18.5 -7.5 h-117z" />
<glyph unicode="&#xa6;" horiz-adv-x="231" d="M105 680h21q10 0 17.5 -7t7.5 -18v-318q0 -11 -7.5 -18t-17.5 -7h-21q-11 0 -18 7t-7 18v318q0 11 7 18t18 7zM105 161h21q10 0 17.5 -7.5t7.5 -17.5v-317q0 -11 -7.5 -18t-17.5 -7h-21q-11 0 -18 7t-7 18v317q0 10 7 17.5t18 7.5z" />
<glyph unicode="&#xa7;" horiz-adv-x="472" d="M330 688q54 0 114 -20q17 -6 17 -24q0 -3 -2 -9l-14 -31q-6 -16 -23 -16q-3 0 -9 2q-54 21 -97 21q-39 0 -77 -25t-38 -58q0 -20 22.5 -41t42 -31l60.5 -30q54 -26 84.5 -58t30.5 -76q0 -81 -81 -150l-1 -3q18 -25 18 -59q0 -82 -67 -138t-153 -56q-71 0 -131 29 q-14 6 -14 23q0 5 1 8l14 33q6 14 22 14q4 0 10 -2q64 -28 112 -28q49 0 87.5 28.5t38.5 74.5q0 19 -19 37t-37.5 28.5t-55.5 27.5q-135 53 -135 142q0 39 23 80t63 71l1 3q-17 26 -17 58q0 72 64.5 123.5t145.5 51.5zM130 317q0 -27 23.5 -46t76 -43t81.5 -43q50 50 50 87 q0 27 -21.5 47t-63.5 42l-28 13q-35 17 -65 34q-53 -49 -53 -91z" />
<glyph unicode="&#xa8;" horiz-adv-x="301" d="M254 611q4 20 20 34t35 14q16 0 26 -10.5t10 -27.5q0 -21 -16.5 -39t-38.5 -18q-16 0 -26.5 11t-10.5 28q0 5 1 8zM85 611q4 20 20 34t35 14q16 0 26 -10.5t10 -27.5q0 -23 -16.5 -40t-37.5 -17q-17 0 -27.5 11t-10.5 28q0 5 1 8z" />
<glyph unicode="&#xa9;" horiz-adv-x="779" d="M737 339q0 -144 -102 -245.5t-246 -101.5q-145 0 -246.5 101.5t-101.5 245.5q0 145 101.5 246.5t246.5 101.5q144 0 246 -101.5t102 -246.5zM681 339q0 121 -85.5 206.5t-206.5 85.5t-206.5 -85.5t-85.5 -206.5t85.5 -206.5t206.5 -85.5t206.5 85.5t85.5 206.5zM480 216 q8 3 14 3q15 0 19 -18l4 -14q0 -16 -17 -23q-54 -21 -107 -21q-81 0 -132.5 51t-51.5 145q0 95 51 145.5t133 50.5q59 0 107 -20q15 -6 15 -23q0 -2 -2 -12q-6 -18 -22 -18q-8 0 -12 2q-38 17 -82 17q-53 0 -87 -39t-34 -103t34 -103t87 -39q37 0 83 19z" />
<glyph unicode="&#xaa;" horiz-adv-x="389" d="M328 557l1 4q6 17 27 17h7q8 0 14 -6t6 -14q0 -1 -0.5 -2.5t-0.5 -2.5l-37 -209v-4q0 -15 11 -21q9 -5 9 -14v-4l-8 -19q-8 -17 -22 -17q-5 0 -8 1q-33 8 -40 38q-55 -40 -114 -40q-53 0 -85 35t-32 90q0 79 54.5 136.5t130.5 57.5q44 0 87 -26zM283 352l27 155 q-32 23 -73 23q-51 0 -82.5 -41t-31.5 -91q0 -38 20.5 -59.5t56.5 -21.5q45 0 83 35z" />
<glyph unicode="&#xab;" horiz-adv-x="591" d="M128 238l77 -204q2 -8 2 -10q0 -10 -7 -17t-18 -7h-46q-17 0 -23 16l-80 208q-1 2 -1 6q0 9 4 17l159 217q6 10 20 10h36q12 0 19 -7t7 -17q0 -8 -6 -16zM428 237l78 -203q2 -8 2 -10q0 -10 -7 -17t-18 -7h-47q-17 0 -23 16l-39 100t-41 109q-1 2 -1 6q0 10 5 17l158 215 q7 11 20 11h37q12 0 19 -7t7 -17q0 -8 -6 -16z" />
<glyph unicode="&#xac;" horiz-adv-x="595" d="M85 372h424q11 0 18 -7t7 -18v-184q0 -11 -7 -18t-18 -7h-21q-10 0 -17.5 7t-7.5 18v137h-378q-11 0 -18 7t-7 18v22q0 11 7 18t18 7z" />
<glyph unicode="&#xad;" horiz-adv-x="388" d="M44 220l5 32q2 24 25 24h244q10 0 17.5 -7t7.5 -18v-5l-6 -31q-1 -8 -9 -14t-16 -6h-243q-11 0 -18 7.5t-7 17.5z" />
<glyph unicode="&#xae;" horiz-adv-x="527" d="M483 466q0 -92 -65 -157t-157 -65q-91 0 -156.5 65t-65.5 157t65 157t157 65t157 -65t65 -157zM439 466q0 74 -52 126t-126 52q-73 0 -125.5 -52t-52.5 -126q0 -73 52.5 -125.5t125.5 -52.5q74 0 126 52t52 126zM249 472q25 0 39 12t14 32q0 18 -12 31.5t-38 13.5 q-19 0 -29 -2v-87h26zM355 360q2 -3 2 -10q0 -8 -5.5 -13.5t-14.5 -5.5h-5q-12 0 -18 12l-13 28l-8 18t-19 29.5t-27 18.5h-24v-92q0 -16 -23 -16q-20 0 -20 17v229q0 18 18 20q24 2 50 2q51 0 74 -23.5t23 -55.5q0 -20 -13.5 -39t-34.5 -27v-6q19 -7 49 -66l2 -5l4 -10z " />
<glyph unicode="&#xaf;" horiz-adv-x="303" d="M130 639h181q19 0 19 -21v-4l-1 -8q-2 -11 -10.5 -18t-18.5 -7h-180q-8 0 -14 6t-6 14q0 1 0.5 2.5t0.5 2.5l1 8q1 10 9.5 17.5t18.5 7.5z" />
<glyph unicode="&#xb0;" horiz-adv-x="370" d="M264 688q52 0 85 -34.5t33 -87.5q0 -70 -53 -123t-118 -53q-51 0 -84 34.5t-33 86.5q0 71 52 124t118 53zM221 446q41 0 74 33t33 77q0 32 -21 54t-53 22q-42 0 -74.5 -33t-32.5 -78q0 -32 21 -53.5t53 -21.5z" />
<glyph unicode="&#xb1;" horiz-adv-x="595" d="M534 308v-21q0 -11 -7 -18t-18 -7h-176v-116q0 -10 -7.5 -17.5t-17.5 -7.5h-21q-11 0 -18 7.5t-7 17.5v116h-177q-11 0 -18 7t-7 18v21q0 10 7 17.5t18 7.5h177v116q0 11 7 18t18 7h21q10 0 17.5 -7t7.5 -18v-116h176q11 0 18 -7.5t7 -17.5zM85 71h424q11 0 18 -7.5 t7 -17.5v-21q0 -11 -7 -18t-18 -7h-424q-11 0 -18 7t-7 18v21q0 10 7 17.5t18 7.5z" />
<glyph unicode="&#xb2;" horiz-adv-x="347" d="M92 517l129 107q100 80 109 132q2 12 2 16q0 24 -15.5 37.5t-43.5 13.5q-34 0 -93 -33q-5 -4 -13 -4q-16 0 -18 20l-1 16q1 13 17 22q74 38 120 38q54 0 86 -28t32 -74q0 -8 -2 -22q-6 -35 -44 -83.5t-102 -98.5l-65 -50h146q20 0 20 -21v-4l-1 -6q-2 -11 -10.5 -18 t-18.5 -7h-227q-19 0 -19 21v4l1 6q2 10 11 16z" />
<glyph unicode="&#xb3;" horiz-adv-x="377" d="M391 587q-10 -57 -56.5 -90.5t-112.5 -33.5q-50 0 -117 35q-11 7 -11 17q0 1 1 3l1 2l7 17q8 20 21 20q4 0 14 -4q59 -31 94 -31q36 0 63 20t27 53q0 47 -90 51q-18 2 -18 20q0 1 0.5 2.5t0.5 2.5l2 12q1 9 9 16.5t16 8.5q37 4 70 22.5t33 49.5q0 19 -14.5 31t-40.5 12 q-37 0 -98 -25q-8 -3 -12 -3q-15 0 -18 19v14q2 16 19 23q73 31 120 31q52 0 83 -24.5t31 -64.5q0 -34 -22 -65t-53 -45q52 -18 52 -79q0 -12 -1 -17z" />
<glyph unicode="&#xb4;" horiz-adv-x="305" d="M275 638l-88 -86q-10 -10 -22 -10q-22 0 -22 19v4q1 5 7 15l79 89q9 11 21 11h15q21 0 21 -19q0 -1 -0.5 -2.5t-0.5 -2.5q-1 -8 -10 -18z" />
<glyph unicode="&#xb5;" horiz-adv-x="544" d="M455 474h41q11 0 18 -7t7 -17v-5l-74 -424q-2 -8 -9 -14.5t-16 -6.5h-24q-10 0 -17.5 7t-7.5 18v29h-8q-37 -28 -83 -45t-81 -17q-54 0 -93 39l-32 -216q-4 -21 -25 -21h-40q-11 0 -18 7t-7 17v5l111 630q1 8 9 14.5t16 6.5h40q10 0 17.5 -7t7.5 -18v-5 q-31 -167 -45 -260q-3 -15 -3 -31q0 -87 99 -87q36 0 73 18.5t62 42.5l57 326q1 8 9 14.5t16 6.5z" />
<glyph unicode="&#xb6;" horiz-adv-x="520" d="M367 611l-124 -700q-1 -8 -9 -14.5t-16 -6.5h-21q-11 0 -18 7t-7 17v5l69 384q-69 0 -110 45t-41 109q0 88 66.5 155.5t149.5 67.5h222q11 0 18 -7t7 -17v-5l-131 -740q-1 -8 -9 -14.5t-16 -6.5h-21q-11 0 -18 7t-7 17v5l122 692h-106z" />
<glyph unicode="&#xb7;" horiz-adv-x="498" d="M326 340q-4 -25 -23 -39.5t-46 -14.5q-25 0 -39 11.5t-14 31.5q0 29 20.5 47t51.5 18q51 0 51 -43q0 -7 -1 -11z" />
<glyph unicode="&#xb8;" horiz-adv-x="307" d="M0 -181l2 3q8 15 19 15l1 -1h3q17 -4 35 -4q16 0 31 9.5t17 23.5q0 22 -40 30q-13 1 -13 15v4q2 6 5 11l22 35q9 13 21 13q20 0 20 -14v-4q0 -4 -5 -11l-8 -14q27 -5 40.5 -20t13.5 -34q0 -7 -1 -10q-6 -39 -39.5 -58.5t-79.5 -19.5q-18 0 -36 5q-12 3 -12 12v1 q0 2 0.5 3t3.5 10z" />
<glyph unicode="&#xb9;" horiz-adv-x="358" d="M145 801l118 66q14 7 28 7h15q19 0 19 -21v-4l-58 -326h78q20 0 20 -21v-4l-1 -6q-2 -11 -10.5 -18t-18.5 -7h-226q-8 0 -14 6t-6 14q0 1 0.5 2.5t0.5 2.5l1 6q1 10 9.5 17.5t18.5 7.5h78l49 279l-83 -48q-11 -6 -17 -6q-12 0 -15 18l-1 6v7q3 15 15 22z" />
<glyph unicode="&#xba;" horiz-adv-x="386" d="M253 584q65 0 102 -33.5t37 -91.5q0 -87 -56 -141t-139 -54q-65 0 -102.5 33.5t-37.5 92.5q0 86 57 140t139 54zM206 317q49 0 83.5 36t34.5 98q0 38 -21.5 59t-58.5 21q-49 0 -84.5 -36t-35.5 -98q0 -38 22 -59t60 -21z" />
<glyph unicode="&#xbb;" horiz-adv-x="577" d="M168 458l78 -207q1 -2 1 -8q0 -12 -4 -16l-156 -217q-6 -10 -20 -10h-37q-12 0 -19 7t-7 17q0 8 6 16l142 197l-76 203q-2 8 -2 10q0 10 7 17t18 7h46q17 0 23 -16zM468 458l78 -207q1 -2 1 -8q0 -12 -4 -16l-156 -217q-6 -10 -20 -10h-37q-12 0 -19 7t-7 17q0 8 6 16 l142 197l-76 203q-2 8 -2 10q0 10 7 17t18 7h46q17 0 23 -16z" />
<glyph unicode="&#xbc;" horiz-adv-x="839" d="M115 607l117 66q14 7 28 7h15q8 0 14 -6t6 -14q0 -1 -0.5 -2.5t-0.5 -2.5l-57 -326h78q8 0 14 -6t6 -14q0 -1 -0.5 -2.5t-0.5 -2.5l-1 -6q-1 -10 -9.5 -17.5t-18.5 -7.5h-226q-8 0 -14 6t-6 14q0 1 0.5 2.5t0.5 2.5l1 6q2 11 10 18t18 7h78l49 279l-84 -48q-9 -6 -16 -6 q-13 0 -16 18v9v4q0 1 -0.5 2t-0.5 2q2 10 16 18zM233 38l457 629q9 13 23 13h12q21 0 21 -19v-4q-2 -7 -6 -14l-458 -631q-6 -12 -23 -12h-12q-21 0 -21 19q0 1 0.5 2.5t0.5 2.5q0 6 6 14zM743 155h21q8 0 14 -6t6 -14q0 -1 -0.5 -2.5t-0.5 -2.5l-1 -6q-1 -10 -9.5 -17.5 t-18.5 -7.5h-21l-13 -74q-2 -11 -10 -18t-18 -7h-20q-20 0 -20 21v4l13 74h-170q-19 0 -19 21v4l3 16q3 14 14 27l223 230q9 9 20 9h27q20 0 20 -21v-4zM705 317l-151 -164q3 0 21 1t22 1h78l18 102z" />
<glyph unicode="&#xbd;" horiz-adv-x="894" d="M232 673l-117 -66q-4 -1 -8 -6.5t-6 -10t-2 -5.5q1 -1 1 -7v-6q3 -18 16 -18q7 0 16 6l84 48l-50 -279h-78q-10 0 -18 -7t-10 -18l-1 -6v-4q0 -21 20 -21h226q10 0 18 7t10 18l1 6v4q0 21 -19 21h-78l57 326q0 1 0.5 2.5t0.5 2.5q0 8 -6 14t-14 6h-15q-14 0 -28 -7z M260 1h-12q-21 0 -21 19v4q2 8 7 14l458 631q8 12 22 12h12q21 0 21 -19v-4q-2 -8 -7 -14l-457 -631q-8 -12 -23 -12zM556 47l129 107q101 83 110 132q1 5 1 14q0 25 -15 39t-43 14q-34 0 -93 -33q-5 -4 -13 -4q-5 0 -11.5 8.5t-6.5 11.5v7.5v8.5l-1 3q1 10 17 19 q74 38 120 38q54 0 86 -28t32 -74q0 -8 -2 -22q-6 -35 -44 -83.5t-102 -98.5l-65 -50h146q8 0 14 -6t6 -14q0 -1 -0.5 -2.5t-0.5 -2.5l-1 -6q-2 -11 -10 -18t-18 -7h-227q-8 0 -14 6t-6 14q0 1 0.5 2.5t0.5 2.5l1 6q2 8 10 16z" />
<glyph unicode="&#xbe;" horiz-adv-x="800" d="M347 393q-10 -57 -56.5 -90.5t-112.5 -33.5q-50 0 -117 35q-11 7 -11 17q0 1 1 3l1 2l6 16q9 21 23 21q3 0 13 -4q59 -31 94 -31q77 0 89 65q0 1 0.5 4t0.5 4q0 21 -20.5 36t-69.5 15q-7 0 -12.5 6t-5.5 14q0 1 0.5 2.5t0.5 2.5l2 12q2 9 9 16.5t16 8.5q43 4 70.5 23 t30.5 40q1 4 1 10q0 19 -14.5 30.5t-39.5 11.5q-37 0 -98 -25q-8 -3 -13 -3q-14 0 -16 19l-2 14q3 16 20 23q73 31 120 31q51 0 82 -24t31 -64q0 -5 -2 -19q-3 -23 -23 -51t-48 -42q51 -18 51 -78q0 -12 -1 -17zM193 37l456 630q8 12 23 12h12q21 0 21 -19q0 -1 -0.5 -2.5 t-0.5 -2.5q0 -7 -6 -14l-457 -629q-6 -12 -23 -12h-11q-21 0 -21 19v4q2 8 7 14zM702 155h21q8 0 14 -6t6 -14q0 -1 -0.5 -2.5t-0.5 -2.5l-1 -6q-1 -10 -9.5 -17.5t-18.5 -7.5h-21l-13 -74q-2 -11 -10 -18t-18 -7h-20q-20 0 -20 21v4l13 74h-170q-19 0 -19 21v4l3 15 q1 13 15 28l222 230q9 9 20 9h27q20 0 20 -21v-4zM664 317l-151 -164q3 0 21 1t22 1h78l18 102z" />
<glyph unicode="&#xbf;" horiz-adv-x="598" d="M424 482q53 0 53 -44q0 -29 -20 -47t-51 -18q-24 0 -38 12t-14 33q0 29 20.5 46.5t49.5 17.5zM254 107q85 74 106 158q6 19 24 19h15q11 0 18 -7t7 -18v-5q-20 -107 -93 -171q-40 -36 -60 -55.5t-36.5 -46.5t-16.5 -52q0 -33 27.5 -51.5t78.5 -18.5q46 0 94 19q6 2 10 2 q8 0 15.5 -5.5t8.5 -14.5q2 -10 2 -23q0 -17 -16 -23q-71 -28 -148 -28q-84 0 -127 34.5t-43 88.5q0 29 9.5 54.5t32 52.5t39.5 43.5t53 47.5z" />
<glyph unicode="&#xc0;" d="M89 13l90 155h336l37 -149q2 -8 9 -13.5t15 -5.5h51q11 0 18 6.5t7 17.5q0 5 -1 7l-164 630q-6 19 -24 19h-61q-15 0 -21 -12l-386 -630q-4 -7 -4 -15q0 -10 7 -16.5t18 -6.5h51q15 0 22 13zM498 248h-273q158 268 192 341h8q2 -49 73 -341zM410 884h20q17 0 23 -14 l44 -88q3 -6 3 -12q0 -10 -7.5 -17t-18.5 -7h-5q-14 0 -20 10l-60 89q-5 8 -5 15q0 10 7.5 17t18.5 7z" />
<glyph unicode="&#xc1;" d="M179 168l-90 -155q-7 -13 -22 -13h-51q-11 0 -18 6.5t-7 16.5q0 8 4 15l386 630q6 12 21 12h61q18 0 24 -19l164 -630q1 -2 1 -7q0 -11 -7 -17.5t-18 -6.5h-51q-8 0 -15 5.5t-9 13.5l-37 149h-336zM225 248h273q-71 292 -73 341h-8q-15 -32 -63 -117.5l-88 -154.5z M534 843l-88 -86q-10 -10 -22 -10q-22 0 -22 19v4q1 5 7 15l79 89q9 11 21 11h15q21 0 21 -19q0 -1 -0.5 -2.5t-0.5 -2.5q-1 -7 -10 -18z" />
<glyph unicode="&#xc2;" d="M179 168l-90 -155q-7 -13 -22 -13h-51q-11 0 -18 6.5t-7 16.5q0 8 4 15l386 630q6 12 21 12h61q18 0 24 -19l164 -630q1 -2 1 -7q0 -11 -7 -17.5t-18 -6.5h-51q-8 0 -15 5.5t-9 13.5l-37 149h-336zM225 248h273q-71 292 -73 341h-8q-15 -32 -63 -117.5l-88 -154.5z M450 884h35q4 0 9 -4t8 -8l3 -4l41 -82q3 -4 3 -10q0 -1 -0.5 -3t-0.5 -3q-4 -24 -28 -24h-12q-13 0 -18 12l-32 76l-58 -76q-10 -12 -22 -12h-11q-21 0 -21 20v4q2 9 9 16l69 82q18 16 26 16z" />
<glyph unicode="&#xc3;" d="M179 168l-90 -155q-7 -13 -22 -13h-51q-11 0 -18 6.5t-7 16.5q0 8 4 15l386 630q6 12 21 12h61q18 0 24 -19l164 -630q1 -2 1 -7q0 -11 -7 -17.5t-18 -6.5h-51q-8 0 -15 5.5t-9 13.5l-37 149h-336zM225 248h273q-71 292 -73 341h-8q-15 -32 -63 -117.5l-88 -154.5z M472 841q23 -20 38 -20t24 21q8 19 26 19h5q20 0 20 -19q0 -1 -0.5 -2.5t-0.5 -2.5q0 -3 -2 -7q-12 -31 -33.5 -48t-43.5 -17q-33 0 -61 24q-29 20 -39 20q-15 0 -22 -21q-9 -19 -26 -19h-5q-20 0 -20 20v4l1 3q1 3 2 4q12 31 33.5 48t42.5 17q30 0 61 -24z" />
<glyph unicode="&#xc4;" d="M89 13l90 155h336l37 -149q2 -8 9 -13.5t15 -5.5h51q11 0 18 6.5t7 17.5q0 5 -1 7l-164 630q-6 19 -24 19h-61q-15 0 -21 -12l-386 -630q-4 -7 -4 -15q0 -10 7 -16.5t18 -6.5h51q15 0 22 13zM498 248h-273q158 268 192 341h8q2 -49 73 -341zM495 813q4 20 20 34t35 14 q16 0 26 -10.5t10 -27.5q0 -21 -16.5 -39t-38.5 -18q-16 0 -26.5 11t-10.5 28q0 5 1 8zM326 813q4 20 20 34t35 14q16 0 26 -10.5t10 -27.5q0 -23 -16.5 -40t-37.5 -17q-17 0 -27.5 11t-10.5 28q0 5 1 8z" />
<glyph unicode="&#xc5;" d="M89 13l90 155h336l37 -149q2 -8 9 -13.5t15 -5.5h51q11 0 18 6.5t7 17.5q0 5 -1 7l-164 630q-6 19 -24 19h-61q-15 0 -21 -12l-386 -630q-4 -7 -4 -15q0 -10 7 -16.5t18 -6.5h51q15 0 22 13zM498 248h-273q158 268 192 341h8q2 -49 73 -341zM473 907q33 0 54 -21t21 -54 q0 -43 -32.5 -76t-75.5 -33q-33 0 -54 22t-21 55q0 43 33.5 75t74.5 32zM448 765q22 0 39 18t17 42q0 18 -10.5 29t-28.5 11q-22 0 -39.5 -17.5t-17.5 -41.5q0 -18 11.5 -29.5t28.5 -11.5z" />
<glyph unicode="&#xc6;" horiz-adv-x="933" d="M205 168l-117 -156q-8 -12 -23 -12h-49q-20 0 -20 19v4q2 8 6 15l491 630q10 12 22 12h425q8 0 14 -6t6 -14q0 -1 -0.5 -2.5t-0.5 -2.5l-5 -31q-2 -11 -10 -18t-18 -7h-303l-36 -204h268q19 0 19 -21v-4l-5 -30q-2 -11 -10 -18t-18 -7h-268l-42 -234h308q20 0 20 -21v-4 l-6 -31q-1 -10 -9.5 -17.5t-18.5 -7.5h-379q-8 0 -14 6t-6 14q0 1 0.5 2.5t0.5 2.5l25 143h-247zM265 248h201l60 341h-11q-48 -72 -250 -341z" />
<glyph unicode="&#xc7;" horiz-adv-x="675" d="M609 92l3 -32q0 -17 -16 -25q-108 -43 -212 -43q-146 0 -236 79.5t-90 209.5q0 119 63 213.5t165 144t221 49.5q96 0 189 -39q15 -7 15 -23q0 -3 -2 -9l-17 -39q-6 -16 -22 -16q-6 0 -12 3q-78 39 -163 39q-140 0 -238 -94.5t-98 -225.5q0 -95 64.5 -151.5t178.5 -56.5 q80 0 173 37q6 2 10 2q21 0 24 -23zM255 -176l2 3q7 15 19 15h2q2 0 2 -1q17 -4 35 -4q16 0 31 9.5t17 23.5q0 22 -40 30q-13 1 -13 15v4q2 7 5 11l22 35q9 13 21 13q20 0 20 -14v-4q0 -4 -5 -11l-8 -14q27 -5 40.5 -20t13.5 -34q0 -7 -1 -10q-6 -39 -39.5 -58.5 t-79.5 -19.5q-19 0 -36 5q-12 3 -12 12l1 2v2.5t3 9.5z" />
<glyph unicode="&#xc8;" horiz-adv-x="553" d="M471 25l6 30v5q0 21 -25 21h-301l42 234h268q19 0 24 18q6 23 7 33v4q0 10 -7 17t-18 7h-260l35 204h304q23 0 25 25l6 31v4q0 9 -7.5 15.5t-17.5 6.5h-370q-8 0 -16 -6.5t-9 -14.5l-110 -630v-5q0 -10 7 -17t18 -7h374q23 0 25 25zM363 883h20q17 0 23 -14l44 -88 q3 -6 3 -12q0 -10 -7.5 -17t-18.5 -7h-5q-14 0 -20 10l-60 89q-5 8 -5 15q0 10 7.5 17t18.5 7z" />
<glyph unicode="&#xc9;" horiz-adv-x="553" d="M477 55l-6 -30q-2 -25 -25 -25h-374q-11 0 -18 7t-7 17v5l110 630q1 8 9 14.5t16 6.5h370q10 0 17.5 -6.5t7.5 -15.5v-4l-6 -31q-2 -25 -25 -25h-304l-35 -204h260q11 0 18 -7t7 -17v-4q-1 -10 -7 -33q-5 -18 -24 -18h-268l-42 -234h301q25 0 25 -21v-5zM458 841l-88 -86 q-10 -10 -22 -10q-22 0 -22 19v4q1 5 7 15l79 89q9 11 21 11h15q21 0 21 -19q0 -1 -0.5 -2.5t-0.5 -2.5q-1 -7 -10 -18z" />
<glyph unicode="&#xca;" horiz-adv-x="553" d="M477 55l-6 -30q-2 -25 -25 -25h-374q-11 0 -18 7t-7 17v5l110 630q1 8 9 14.5t16 6.5h370q10 0 17.5 -6.5t7.5 -15.5v-4l-6 -31q-2 -25 -25 -25h-304l-35 -204h260q11 0 18 -7t7 -17v-4q-1 -10 -7 -33q-5 -18 -24 -18h-268l-42 -234h301q25 0 25 -21v-5zM385 884h35 q4 0 9 -4t8 -8l3 -4l41 -82q3 -4 3 -10q0 -1 -0.5 -3t-0.5 -3q-4 -24 -28 -24h-12q-13 0 -18 12l-32 76l-58 -76q-10 -12 -22 -12h-11q-21 0 -21 20v4q2 9 9 16l69 82q18 16 26 16z" />
<glyph unicode="&#xcb;" horiz-adv-x="553" d="M471 25l6 30v5q0 21 -25 21h-301l42 234h268q19 0 24 18q6 23 7 33v4q0 10 -7 17t-18 7h-260l35 204h304q23 0 25 25l6 31v4q0 9 -7.5 15.5t-17.5 6.5h-370q-8 0 -16 -6.5t-9 -14.5l-110 -630v-5q0 -10 7 -17t18 -7h374q23 0 25 25zM433 814q4 20 20 34t35 14 q16 0 26 -10.5t10 -27.5q0 -21 -16.5 -39t-38.5 -18q-16 0 -26.5 11t-10.5 28q0 5 1 8zM264 814q4 20 20 34t35 14q16 0 26 -10.5t10 -27.5q0 -23 -16.5 -40t-37.5 -17q-17 0 -27.5 11t-10.5 28q0 5 1 8z" />
<glyph unicode="&#xcc;" horiz-adv-x="439" d="M345 25l4 25q0 10 -7.5 17.5t-17.5 7.5h-86l93 529h94q9 0 17 6.5t9 15.5l4 26v4q0 10 -7 17t-18 7h-275q-9 0 -17 -6t-9 -16l-4 -26v-4q0 -10 7 -17t18 -7h85l-93 -529h-93q-9 0 -17 -6.5t-9 -15.5l-4 -23v-5q0 -11 7 -18t18 -7h275q22 0 26 25zM263 884h20q17 0 23 -14 l44 -88q3 -6 3 -12q0 -10 -7.5 -17t-18.5 -7h-5q-14 0 -20 10l-60 89q-5 8 -5 15q0 10 7.5 17t18.5 7z" />
<glyph unicode="&#xcd;" horiz-adv-x="439" d="M349 50l-4 -25q-4 -25 -26 -25h-275q-11 0 -18 7t-7 18v5l4 23q1 9 9 15.5t17 6.5h93l93 529h-85q-11 0 -18 7t-7 17v4l4 26q1 10 9 16t17 6h275q11 0 18 -7t7 -17v-4l-4 -26q-1 -9 -9 -15.5t-17 -6.5h-94l-93 -529h86q10 0 17.5 -7.5t7.5 -17.5zM399 842l-88 -86 q-10 -10 -22 -10q-22 0 -22 19v4q1 5 7 15l79 89q9 11 21 11h15q21 0 21 -19q0 -1 -0.5 -2.5t-0.5 -2.5q-1 -8 -10 -18z" />
<glyph unicode="&#xce;" horiz-adv-x="439" d="M349 50l-4 -25q-4 -25 -26 -25h-275q-11 0 -18 7t-7 18v5l4 23q1 9 9 15.5t17 6.5h93l93 529h-85q-11 0 -18 7t-7 17v4l4 26q1 10 9 16t17 6h275q11 0 18 -7t7 -17v-4l-4 -26q-1 -9 -9 -15.5t-17 -6.5h-94l-93 -529h86q10 0 17.5 -7.5t7.5 -17.5zM314 885h35q4 0 9 -4 t8 -8l3 -4l41 -82q3 -5 3 -10q0 -1 -0.5 -3t-0.5 -3q-4 -24 -28 -24h-12q-13 0 -18 12l-32 76l-58 -76q-10 -12 -22 -12h-11q-21 0 -21 20v4q2 9 9 16l69 82q18 16 26 16z" />
<glyph unicode="&#xcf;" horiz-adv-x="439" d="M345 25l4 25q0 10 -7.5 17.5t-17.5 7.5h-86l93 529h94q9 0 17 6.5t9 15.5l4 26v4q0 10 -7 17t-18 7h-275q-9 0 -17 -6t-9 -16l-4 -26v-4q0 -10 7 -17t18 -7h85l-93 -529h-93q-9 0 -17 -6.5t-9 -15.5l-4 -23v-5q0 -11 7 -18t18 -7h275q22 0 26 25zM357 815q4 20 20 34 t35 14q16 0 26 -10.5t10 -27.5q0 -21 -16.5 -39t-38.5 -18q-16 0 -26.5 11t-10.5 28q0 5 1 8zM188 815q4 20 20 34t35 14q16 0 26 -10.5t10 -27.5q0 -23 -16.5 -40t-37.5 -17q-17 0 -27.5 11t-10.5 28q0 5 1 8z" />
<glyph unicode="&#xd0;" horiz-adv-x="774" d="M36 339l5 30q1 9 8.5 16t16.5 7h59l49 270q1 7 8 13.5t15 7.5q63 5 180 5q188 0 281.5 -79t93.5 -207q0 -84 -33 -158t-94.5 -130.5t-158 -89t-216.5 -32.5q-100 0 -165 5q-23 2 -23 24v5l49 284h-50q-11 0 -18 7t-7 18v4zM207 310l-39 -233q34 -2 117 -2q161 0 263 87.5 t102 236.5q0 101 -71 154t-201 53q-62 0 -119 -3l-37 -211h53q10 0 17.5 -7t7.5 -17l-5 -35q-1 -9 -8.5 -16t-16.5 -7h-63z" />
<glyph unicode="&#xd1;" horiz-adv-x="771" d="M550 12l-320 534h-5l-8 -49t-7 -48l-74 -428q-1 -8 -9 -14.5t-16 -6.5h-39q-11 0 -18 7t-7 17v5l110 630q1 8 9 14.5t16 6.5h56q5 0 12.5 -4.5t9.5 -8.5l316 -532h5l89 524q1 8 9 14.5t16 6.5h39q11 0 18 -7t7 -17v-5l-111 -630q-1 -8 -9 -14.5t-16 -6.5h-51 q-16 0 -22 12zM500 843q23 -20 38 -20t24 21q8 19 26 19h5q20 0 20 -19q0 -1 -0.5 -2.5t-0.5 -2.5q0 -3 -2 -7q-12 -31 -33.5 -48t-43.5 -17q-33 0 -61 24q-29 20 -39 20q-15 0 -22 -21q-9 -19 -26 -19h-5q-20 0 -20 20v4l1 3q1 3 2 4q12 31 33.5 48t42.5 17q30 0 61 -24z " />
<glyph unicode="&#xd2;" horiz-adv-x="822" d="M798 399q0 125 -81.5 207t-227.5 82q-186 0 -309 -120.5t-123 -289.5q0 -125 81.5 -205.5t227.5 -80.5q185 0 308.5 119t123.5 288zM697 403q0 -138 -90.5 -232t-225.5 -94q-105 0 -164 53.5t-59 146.5q0 138 92 232t224 94q106 0 164.5 -53t58.5 -147zM439 885h20 q17 0 23 -14l44 -88q3 -6 3 -12q0 -10 -7.5 -17t-18.5 -7h-5q-14 0 -20 10l-60 89q-5 8 -5 15q0 10 7.5 17t18.5 7z" />
<glyph unicode="&#xd3;" horiz-adv-x="822" d="M798 399q0 -169 -123.5 -288t-308.5 -119q-146 0 -227.5 80.5t-81.5 205.5q0 169 123 289.5t309 120.5q146 0 227.5 -82t81.5 -207zM697 403q0 94 -58.5 147t-164.5 53q-132 0 -224 -94t-92 -232q0 -93 59 -146.5t164 -53.5q135 0 225.5 94t90.5 232zM611 842l-88 -86 q-10 -10 -22 -10q-22 0 -22 19v4q1 5 7 15l79 89q9 11 21 11h15q21 0 21 -19q0 -1 -0.5 -2.5t-0.5 -2.5q-1 -8 -10 -18z" />
<glyph unicode="&#xd4;" horiz-adv-x="822" d="M798 399q0 -169 -123.5 -288t-308.5 -119q-146 0 -227.5 80.5t-81.5 205.5q0 169 123 289.5t309 120.5q146 0 227.5 -82t81.5 -207zM697 403q0 94 -58.5 147t-164.5 53q-132 0 -224 -94t-92 -232q0 -93 59 -146.5t164 -53.5q135 0 225.5 94t90.5 232zM505 884h35 q4 0 9 -4t8 -8l3 -4l41 -82q3 -4 3 -10q0 -1 -0.5 -3t-0.5 -3q-4 -24 -28 -24h-12q-13 0 -18 12l-32 76l-58 -76q-10 -12 -22 -12h-11q-21 0 -21 20v4q2 9 9 16l69 82q18 16 26 16z" />
<glyph unicode="&#xd5;" horiz-adv-x="822" d="M798 399q0 -169 -123.5 -288t-308.5 -119q-146 0 -227.5 80.5t-81.5 205.5q0 169 123 289.5t309 120.5q146 0 227.5 -82t81.5 -207zM697 403q0 94 -58.5 147t-164.5 53q-132 0 -224 -94t-92 -232q0 -93 59 -146.5t164 -53.5q135 0 225.5 94t90.5 232zM527 842 q23 -20 38 -20t24 21q8 19 26 19h5q20 0 20 -19q0 -1 -0.5 -2.5t-0.5 -2.5q0 -3 -2 -7q-12 -31 -33.5 -48t-43.5 -17q-33 0 -61 24q-29 20 -39 20q-14 0 -22 -21q-10 -19 -26 -19h-5q-20 0 -20 20v4l1 3q1 3 2 4q12 31 33.5 48t42.5 17q30 0 61 -24z" />
<glyph unicode="&#xd6;" horiz-adv-x="822" d="M798 399q0 125 -81.5 207t-227.5 82q-186 0 -309 -120.5t-123 -289.5q0 -125 81.5 -205.5t227.5 -80.5q185 0 308.5 119t123.5 288zM697 403q0 -138 -90.5 -232t-225.5 -94q-105 0 -164 53.5t-59 146.5q0 138 92 232t224 94q106 0 164.5 -53t58.5 -147zM550 811 q4 20 20 34t35 14q16 0 26 -10.5t10 -27.5q0 -21 -16.5 -39t-38.5 -18q-16 0 -26.5 11t-10.5 28q0 5 1 8zM381 811q4 20 20 34t35 14q16 0 26 -10.5t10 -27.5q0 -23 -16.5 -40t-37.5 -17q-17 0 -27.5 11t-10.5 28q0 5 1 8z" />
<glyph unicode="&#xd7;" horiz-adv-x="592" d="M509 453l10 -10q11 -9 11 -21q0 -9 -8 -17l-169 -168l169 -169q7 -7 7 -18t-7 -18l-14 -14q-8 -8 -18 -8t-18 8l-170 168l-169 -168q-8 -8 -18 -8t-18 8l-14 14q-7 7 -7 17q0 11 8 19l169 169l-171 169q-7 7 -7 17q0 9 6 16l14 15q9 10 20 10q10 0 17 -7l170 -170 l170 168q7 7 17 7q13 0 20 -9z" />
<glyph unicode="&#xd8;" horiz-adv-x="822" d="M750 675l-45 -54q44 -37 69 -95t25 -121q0 -171 -123.5 -292t-309.5 -121q-90 0 -163 34l-50 -59q-7 -9 -20 -9q-10 0 -17 7l-7 6q-7 7 -7 17t6 17l44 54q-94 79 -94 217q0 169 123 290.5t308 121.5q88 0 164 -35l50 61q7 9 20 9q8 0 13 -4l9 -7q11 -8 11 -20 q0 -10 -6 -17zM218 137l372 442q-49 24 -116 24q-120 0 -205 -73t-106 -190q-5 -30 -5 -55q0 -91 60 -148zM697 399q0 91 -57 145l-372 -442q44 -25 113 -25q135 0 225.5 92t90.5 230z" />
<glyph unicode="&#xd9;" horiz-adv-x="769" d="M733 680h-44q-8 0 -16 -6.5t-9 -14.5l-72 -405q-13 -72 -82 -124.5t-153 -52.5q-78 0 -128 39t-50 100q0 17 2 26l71 409v5q0 10 -7 17t-18 7h-44q-8 0 -16 -6.5t-9 -14.5l-73 -407q-3 -15 -3 -40q0 -94 73 -157t187 -63q123 0 224 69.5t120 177.5l72 412v5q0 10 -7 17 t-18 7zM422 884h20q17 0 23 -14l44 -88q3 -6 3 -12q0 -10 -7.5 -17t-18.5 -7h-5q-14 0 -20 10l-60 89q-5 8 -5 15q0 10 7.5 17t18.5 7z" />
<glyph unicode="&#xda;" horiz-adv-x="769" d="M689 680h44q11 0 18 -7t7 -17v-5l-72 -412q-19 -108 -120 -177.5t-224 -69.5q-114 0 -187 63t-73 157q0 25 3 40l73 407q1 8 9 14.5t16 6.5h44q11 0 18 -7t7 -17v-5l-71 -409q-2 -9 -2 -26q0 -61 50 -100t128 -39q84 0 153 52.5t82 124.5l72 405q1 8 9 14.5t16 6.5z M578 843l-88 -86q-10 -10 -22 -10q-22 0 -22 19v4q1 5 7 15l79 89q9 11 21 11h15q21 0 21 -19q0 -1 -0.5 -2.5t-0.5 -2.5q-1 -7 -10 -18z" />
<glyph unicode="&#xdb;" horiz-adv-x="769" d="M689 680h44q11 0 18 -7t7 -17v-5l-72 -412q-19 -108 -120 -177.5t-224 -69.5q-114 0 -187 63t-73 157q0 25 3 40l73 407q1 8 9 14.5t16 6.5h44q11 0 18 -7t7 -17v-5l-71 -409q-2 -9 -2 -26q0 -61 50 -100t128 -39q84 0 153 52.5t82 124.5l72 405q1 8 9 14.5t16 6.5z M479 884h35q4 0 9 -4t8 -8l3 -4l41 -82q3 -4 3 -10q0 -1 -0.5 -3t-0.5 -3q-4 -24 -28 -24h-12q-13 0 -18 12l-32 76l-58 -76q-10 -12 -22 -12h-11q-21 0 -21 20v4q2 9 9 16l69 82q18 16 26 16z" />
<glyph unicode="&#xdc;" horiz-adv-x="769" d="M733 680h-44q-8 0 -16 -6.5t-9 -14.5l-72 -405q-13 -72 -82 -124.5t-153 -52.5q-78 0 -128 39t-50 100q0 17 2 26l71 409v5q0 10 -7 17t-18 7h-44q-8 0 -16 -6.5t-9 -14.5l-73 -407q-3 -15 -3 -40q0 -94 73 -157t187 -63q123 0 224 69.5t120 177.5l72 412v5q0 10 -7 17 t-18 7zM528 810q4 20 20 34t35 14q16 0 26 -10.5t10 -27.5q0 -21 -16.5 -39t-38.5 -18q-16 0 -26.5 11t-10.5 28q0 5 1 8zM359 810q4 20 20 34t35 14q16 0 26 -10.5t10 -27.5q0 -23 -16.5 -40t-37.5 -17q-17 0 -27.5 11t-10.5 28q0 5 1 8z" />
<glyph unicode="&#xdd;" horiz-adv-x="635" d="M331 381h8q41 63 228 290q7 9 19 9h54q12 0 18.5 -7t6.5 -17t-6 -17l-286 -347l-47 -271q-1 -8 -9 -14.5t-16 -6.5h-44q-11 0 -18 7t-7 17v5l46 263l-167 352q-3 6 -3 12q0 10 7 17t19 7h39q21 0 30 -18q114 -225 128 -281zM493 839l-88 -86q-10 -10 -22 -10 q-22 0 -22 19v4q1 5 7 15l79 89q9 11 21 11h15q21 0 21 -19q0 -1 -0.5 -2.5t-0.5 -2.5q-1 -7 -10 -18z" />
<glyph unicode="&#xde;" horiz-adv-x="603" d="M577 378q0 -65 -26.5 -116t-71 -81t-97 -45t-109.5 -15h-115l-18 -100q-1 -8 -9 -14.5t-16 -6.5h-43q-11 0 -18 7t-7 17v5l64 365l46 265q1 8 9 14.5t16 6.5h44q11 0 18 -7t7 -18v-4l-17 -96q60 2 91 2q132 0 192 -50t60 -129zM219 470l-48 -267h118q80 0 134 45.5 t54 115.5q0 49 -36.5 80t-118.5 31q-58 0 -103 -5z" />
<glyph unicode="&#xdf;" horiz-adv-x="622" d="M198 54l15 27q6 14 22 14q4 0 10 -2q61 -27 117 -27q43 0 76 18t33 53q0 40 -80 67l-51.5 18t-41.5 18t-33.5 22t-19.5 26.5t-8 34.5q0 8 2 20q4 19 24.5 38.5t37.5 29l51 27.5l20 11q31 16 47 25t32.5 26t16.5 35q0 41 -36.5 64.5t-84.5 23.5q-121 0 -139 -103l-88 -499 q-1 -8 -9 -14.5t-16 -6.5h-40q-11 0 -18 7t-7 17v5l86 492q30 167 243 167q74 0 133.5 -36.5t59.5 -103.5q0 -27 -12 -50t-37.5 -42.5t-43 -29.5t-50.5 -27q-75 -37 -75 -59q0 -17 23 -30.5t76 -30.5q65 -21 100.5 -48.5t35.5 -71.5q0 -55 -33 -94t-79.5 -56t-98.5 -17 q-78 0 -147 25q-17 6 -17 23q0 9 4 14z" />
<glyph unicode="&#xe0;" horiz-adv-x="571" d="M451 -2l31 8q18 5 18 25v4q-7 37 -7 82q0 71 18 180l18 104v4q0 15 -13 22q-108 55 -204 55q-69 0 -132 -33.5t-106.5 -104.5t-43.5 -165q0 -92 53.5 -139.5t133.5 -47.5q55 0 107.5 26t83.5 84h7v-15q0 -43 7 -71q5 -19 23 -19q1 0 3 0.5t3 0.5zM434 376 q-1 -32 -6.5 -69t-19.5 -81t-35 -79t-55.5 -58.5t-76.5 -23.5q-51 0 -82.5 32t-31.5 94q0 103 57 160t124 57q69 0 126 -32zM284 680h20q17 0 23 -14l44 -88q3 -6 3 -12q0 -10 -7.5 -17t-18.5 -7h-5q-14 0 -20 10l-60 89q-5 8 -5 15q0 10 7.5 17t18.5 7z" />
<glyph unicode="&#xe1;" horiz-adv-x="572" d="M482 6l-31 -8q-1 0 -3 -0.5t-3 -0.5q-18 0 -23 19q-7 28 -7 71v15h-7q-31 -58 -83.5 -84t-107.5 -26q-80 0 -133.5 47.5t-53.5 139.5q0 94 43.5 165t106.5 104.5t132 33.5q96 0 204 -55q13 -7 13 -22v-4l-18 -104q-18 -109 -18 -180q0 -45 7 -82v-4q0 -20 -18 -25z M434 376q-57 32 -126 32q-67 0 -124 -57t-57 -160q0 -62 31.5 -94t82.5 -32q42 0 76.5 23.5t55.5 58.5t35 79t19.5 81t6.5 69zM417 638l-88 -86q-10 -10 -22 -10q-22 0 -22 19v4q1 5 7 15l79 89q9 11 21 11h15q21 0 21 -19q0 -1 -0.5 -2.5t-0.5 -2.5q-1 -8 -10 -18z" />
<glyph unicode="&#xe2;" horiz-adv-x="572" d="M482 6l-31 -8q-1 0 -3 -0.5t-3 -0.5q-18 0 -23 19q-7 28 -7 71v15h-7q-31 -58 -83.5 -84t-107.5 -26q-80 0 -133.5 47.5t-53.5 139.5q0 94 43.5 165t106.5 104.5t132 33.5q96 0 204 -55q13 -7 13 -22v-4l-18 -104q-18 -109 -18 -180q0 -45 7 -82v-4q0 -20 -18 -25z M434 376q-57 32 -126 32q-67 0 -124 -57t-57 -160q0 -62 31.5 -94t82.5 -32q42 0 76.5 23.5t55.5 58.5t35 79t19.5 81t6.5 69zM340 680h35q4 0 9 -4t8 -8l3 -4l41 -82q3 -4 3 -10q0 -1 -0.5 -3t-0.5 -3q-4 -24 -28 -24h-12q-13 0 -18 12l-32 76l-58 -76q-10 -12 -22 -12h-11 q-21 0 -21 20v4q2 9 9 16l69 82q18 16 26 16z" />
<glyph unicode="&#xe3;" horiz-adv-x="572" d="M482 6l-31 -8q-1 0 -3 -0.5t-3 -0.5q-18 0 -23 19q-7 28 -7 71v15h-7q-31 -58 -83.5 -84t-107.5 -26q-80 0 -133.5 47.5t-53.5 139.5q0 94 43.5 165t106.5 104.5t132 33.5q96 0 204 -55q13 -7 13 -22v-4l-18 -104q-18 -109 -18 -180q0 -45 7 -82v-4q0 -20 -18 -25z M434 376q-57 32 -126 32q-67 0 -124 -57t-57 -160q0 -62 31.5 -94t82.5 -32q42 0 76.5 23.5t55.5 58.5t35 79t19.5 81t6.5 69zM362 638q23 -20 38 -20t24 21q8 19 26 19h5q20 0 20 -19q0 -1 -0.5 -2.5t-0.5 -2.5q0 -3 -2 -7q-12 -31 -33.5 -48t-43.5 -17q-33 0 -61 24 q-29 20 -39 20q-15 0 -22 -21q-9 -19 -26 -19h-5q-20 0 -20 20v4l1 3q1 3 2 4q12 31 33.5 48t42.5 17q30 0 61 -24z" />
<glyph unicode="&#xe4;" horiz-adv-x="572" d="M451 -2l31 8q18 5 18 25v4q-7 37 -7 82q0 71 18 180l18 104v4q0 15 -13 22q-108 55 -204 55q-69 0 -132 -33.5t-106.5 -104.5t-43.5 -165q0 -92 53.5 -139.5t133.5 -47.5q55 0 107.5 26t83.5 84h7v-15q0 -43 7 -71q5 -19 23 -19q1 0 3 0.5t3 0.5zM434 376 q-1 -32 -6.5 -69t-19.5 -81t-35 -79t-55.5 -58.5t-76.5 -23.5q-51 0 -82.5 32t-31.5 94q0 103 57 160t124 57q69 0 126 -32zM386 611q4 20 20 34t35 14q16 0 26 -10.5t10 -27.5q0 -21 -16.5 -39t-38.5 -18q-16 0 -26.5 11t-10.5 28q0 5 1 8zM217 611q4 20 20 34t35 14 q16 0 26 -10.5t10 -27.5q0 -23 -16.5 -40t-37.5 -17q-17 0 -27.5 11t-10.5 28q0 5 1 8z" />
<glyph unicode="&#xe5;" horiz-adv-x="572" d="M451 -2l31 8q18 5 18 25v4q-7 37 -7 82q0 71 18 180l18 104v4q0 15 -13 22q-108 55 -204 55q-69 0 -132 -33.5t-106.5 -104.5t-43.5 -165q0 -92 53.5 -139.5t133.5 -47.5q55 0 107.5 26t83.5 84h7v-15q0 -43 7 -71q5 -19 23 -19q1 0 3 0.5t3 0.5zM434 376 q-1 -32 -6.5 -69t-19.5 -81t-35 -79t-55.5 -58.5t-76.5 -23.5q-51 0 -82.5 32t-31.5 94q0 103 57 160t124 57q69 0 126 -32zM366 704q33 0 54 -21t21 -54q0 -43 -32.5 -76t-75.5 -33q-33 0 -54 22t-21 55q0 43 33.5 75t74.5 32zM341 562q22 0 39 18t17 42q0 18 -10.5 29 t-28.5 11q-22 0 -39.5 -17.5t-17.5 -41.5q0 -18 11.5 -29.5t28.5 -11.5z" />
<glyph unicode="&#xe6;" horiz-adv-x="899" d="M859 233q-5 -18 -24 -18h-348q-1 -10 -1 -24q0 -61 36 -93.5t97 -32.5q68 0 153 29q6 2 9 2q22 0 24 -24q1 -12 1 -18q0 -22 -15 -27q-95 -35 -187 -35q-134 0 -179 91h-6q-36 -36 -88 -63.5t-110 -27.5q-86 0 -138 51.5t-52 139.5q0 130 84.5 214.5t197.5 84.5 q90 0 168 -13q8 -2 14.5 -9t6.5 -16l-3 -42h4q67 80 185 80q89 0 136.5 -44.5t47.5 -119.5q0 -24 -4 -44q-2 -13 -9 -41zM384 126l47 269q-61 13 -122 13q-74 0 -128 -60t-54 -152q0 -60 32.5 -95t89.5 -35q73 0 135 60zM501 278h282q4 21 4 36q0 47 -29.5 73t-79.5 26 q-59 0 -108 -33.5t-69 -101.5z" />
<glyph unicode="&#xe7;" horiz-adv-x="484" d="M416 71l3 -22q0 -19 -17 -27q-82 -30 -158 -30q-99 0 -156 54t-57 145q0 132 86.5 211.5t212.5 79.5q67 0 138 -26q17 -6 17 -24q0 -4 -2 -10l-13 -28q-7 -15 -23 -15q-3 0 -9 2q-64 25 -119 25q-79 0 -135.5 -59t-56.5 -158q0 -61 34.5 -91t97.5 -30q52 0 124 24 q3 1 8 1q22 0 25 -22zM119 -175l2 3q7 15 19 15l2 -1h2q17 -4 35 -4q16 0 31 9.5t17 23.5q0 22 -40 30q-13 1 -13 15v4q2 6 5 11l22 35q9 13 21 13q20 0 20 -14v-4q0 -4 -5 -11l-8 -14q27 -5 40.5 -20t13.5 -34q0 -7 -1 -10q-6 -39 -39.5 -58.5t-79.5 -19.5q-19 0 -36 5 q-12 3 -12 12l1 1v3t3 10z" />
<glyph unicode="&#xe8;" horiz-adv-x="539" d="M424 52l-6 23q-5 19 -24 19q-3 0 -9 -2q-68 -25 -126 -25q-60 0 -96 32t-36 90q0 1 2 23q164 1 261.5 39t97.5 113q0 48 -41 83t-120 35q-125 0 -210.5 -82.5t-85.5 -215.5q0 -90 56.5 -141t156.5 -51q77 0 164 33q16 7 16 27zM167 278h-24q21 65 68.5 97.5t105.5 32.5 q33 0 56 -14t23 -37q0 -40 -64 -59.5t-165 -19.5zM283 680h20q17 0 23 -14l44 -88q3 -6 3 -12q0 -10 -7.5 -17t-18.5 -7h-5q-14 0 -20 10l-60 89q-5 8 -5 15q0 10 7.5 17t18.5 7z" />
<glyph unicode="&#xe9;" horiz-adv-x="539" d="M418 75l6 -23q0 -20 -16 -27q-87 -33 -164 -33q-100 0 -156.5 51t-56.5 141q0 133 85.5 215.5t210.5 82.5q79 0 120 -35t41 -83q0 -75 -97.5 -113t-261.5 -39q-2 -22 -2 -23q0 -58 36 -90t96 -32q58 0 126 25q6 2 9 2q19 0 24 -19zM143 278h24q101 0 165 19.5t64 59.5 q0 23 -23 37t-56 14q-58 0 -105.5 -32.5t-68.5 -97.5zM442 638l-88 -86q-10 -10 -22 -10q-22 0 -22 19v4q1 5 7 15l79 89q9 11 21 11h15q21 0 21 -19q0 -1 -0.5 -2.5t-0.5 -2.5q-1 -8 -10 -18z" />
<glyph unicode="&#xea;" horiz-adv-x="539" d="M418 75l6 -23q0 -20 -16 -27q-87 -33 -164 -33q-100 0 -156.5 51t-56.5 141q0 133 85.5 215.5t210.5 82.5q79 0 120 -35t41 -83q0 -75 -97.5 -113t-261.5 -39q-2 -22 -2 -23q0 -58 36 -90t96 -32q58 0 126 25q6 2 9 2q19 0 24 -19zM143 278h24q101 0 165 19.5t64 59.5 q0 23 -23 37t-56 14q-58 0 -105.5 -32.5t-68.5 -97.5zM348 680h35q4 0 9 -4t8 -8l3 -4l41 -82q3 -4 3 -10q0 -1 -0.5 -3t-0.5 -3q-4 -24 -28 -24h-12q-13 0 -18 12l-32 76l-58 -76q-10 -12 -22 -12h-11q-21 0 -21 20v4q2 9 9 16l69 82q18 16 26 16z" />
<glyph unicode="&#xeb;" horiz-adv-x="539" d="M424 52l-6 23q-5 19 -24 19q-3 0 -9 -2q-68 -25 -126 -25q-60 0 -96 32t-36 90q0 1 2 23q164 1 261.5 39t97.5 113q0 48 -41 83t-120 35q-125 0 -210.5 -82.5t-85.5 -215.5q0 -90 56.5 -141t156.5 -51q77 0 164 33q16 7 16 27zM167 278h-24q21 65 68.5 97.5t105.5 32.5 q33 0 56 -14t23 -37q0 -40 -64 -59.5t-165 -19.5zM394 611q4 20 20 34t35 14q16 0 26 -10.5t10 -27.5q0 -21 -16.5 -39t-38.5 -18q-16 0 -26.5 11t-10.5 28q0 5 1 8zM225 611q4 20 20 34t35 14q16 0 26 -10.5t10 -27.5q0 -23 -16.5 -40t-37.5 -17q-17 0 -27.5 11t-10.5 28 q0 5 1 8z" />
<glyph unicode="&#xec;" horiz-adv-x="224" d="M116 680h20q17 0 23 -14l44 -88q3 -6 3 -12q0 -10 -7.5 -17t-18.5 -7h-5q-14 0 -20 10l-60 89q-5 8 -5 15q0 10 7.5 17t18.5 7zM193 445l-75 -424q-1 -8 -9 -14.5t-16 -6.5h-40q-11 0 -18 7t-7 17v5l74 424q2 8 9 14.5t16 6.5h41q11 0 18 -7t7 -17v-5z" />
<glyph unicode="&#xed;" horiz-adv-x="224" d="M268 638l-88 -86q-10 -10 -22 -10q-22 0 -22 19v4q1 5 7 15l79 89q9 11 21 11h15q21 0 21 -19q0 -1 -0.5 -2.5t-0.5 -2.5q-1 -8 -10 -18zM195 445l-75 -424q-1 -8 -9 -14.5t-16 -6.5h-40q-11 0 -18 7t-7 17v5l74 424q2 8 9 14.5t16 6.5h41q11 0 18 -7t7 -17v-5z" />
<glyph unicode="&#xee;" horiz-adv-x="222" d="M193 445l-75 -424q-1 -8 -9 -14.5t-16 -6.5h-40q-11 0 -18 7t-7 17v5l74 424q2 8 9 14.5t16 6.5h41q11 0 18 -7t7 -17v-5zM170 680h35q4 0 9 -4t8 -8l3 -4l41 -82q3 -4 3 -10q0 -1 -0.5 -3t-0.5 -3q-4 -24 -28 -24h-12q-13 0 -18 12l-32 76l-58 -76q-10 -12 -22 -12h-11 q-21 0 -21 20v4q2 9 9 16l69 82q18 16 26 16z" />
<glyph unicode="&#xef;" horiz-adv-x="222" d="M216 611q4 20 20 34t35 14q16 0 26 -10.5t10 -27.5q0 -21 -16.5 -39t-38.5 -18q-16 0 -26.5 11t-10.5 28q0 5 1 8zM47 611q4 20 20 34t35 14q16 0 26 -10.5t10 -27.5q0 -23 -16.5 -40t-37.5 -17q-17 0 -27.5 11t-10.5 28q0 5 1 8zM193 445l-75 -424q-1 -8 -9 -14.5 t-16 -6.5h-40q-11 0 -18 7t-7 17v5l74 424q2 8 9 14.5t16 6.5h41q11 0 18 -7t7 -17v-5z" />
<glyph unicode="&#xf0;" horiz-adv-x="585" d="M243 -8q-94 0 -152 54t-58 143q0 120 87 206.5t204 86.5q68 0 121 -48l4 4q-26 78 -66 121l-108 -49q-6 -2 -9 -2q-12 0 -14 11l-3 9v5q0 16 15 22l85 39q-26 21 -66 46q-9 7 -9 18v2l1 2q2 10 11 18l18 15q8 6 19 6q7 0 10 -2q46 -26 93 -70l112 51q6 2 8 2q13 0 15 -12 l3 -8v-5q0 -16 -15 -22l-89 -41q90 -107 90 -251q0 -145 -84.5 -248t-222.5 -103zM447 283q0 61 -34 93t-96 32q-83 0 -136 -65t-53 -146q0 -61 35 -96t93 -35q85 0 138 67t53 150z" />
<glyph unicode="&#xf1;" horiz-adv-x="560" d="M164 212l-33 -191q-1 -8 -9 -14.5t-16 -6.5h-42q-11 0 -18 7t-7 17v5l43 248q23 132 23 172q0 9 9 17t19 8h30q10 0 17 -7.5t7 -17.5q-1 -26 -9 -82h5q38 58 91.5 86.5t102.5 28.5q142 0 142 -125q0 -28 -6 -60l-48 -276q-1 -9 -8.5 -15t-16.5 -6h-42q-11 0 -18 7t-7 17 v5l46 257q4 23 4 45q0 39 -19 58t-62 19q-53 0 -104.5 -61t-73.5 -135zM366 638q23 -20 38 -20t24 21q8 19 26 19h5q20 0 20 -19q0 -1 -0.5 -2.5t-0.5 -2.5q0 -3 -2 -7q-12 -31 -33.5 -48t-43.5 -17q-33 0 -61 24q-29 20 -39 20q-15 0 -22 -21q-9 -19 -26 -19h-5 q-20 0 -20 20v4l1 3q1 3 2 4q12 31 33.5 48t42.5 17q30 0 61 -24z" />
<glyph unicode="&#xf2;" horiz-adv-x="577" d="M544 284q0 90 -57.5 144t-156.5 54q-126 0 -212.5 -79t-86.5 -211q0 -91 57.5 -145.5t155.5 -54.5q127 0 213.5 80t86.5 212zM447 287q0 -100 -56 -160.5t-134 -60.5q-61 0 -95.5 31t-34.5 92q0 99 56.5 159t133.5 60q61 0 95.5 -30t34.5 -91zM287 680h20q17 0 23 -14 l44 -88q3 -6 3 -12q0 -10 -7.5 -17t-18.5 -7h-5q-14 0 -20 10l-60 89q-5 8 -5 15q0 10 7.5 17t18.5 7z" />
<glyph unicode="&#xf3;" horiz-adv-x="577" d="M544 284q0 -132 -86.5 -212t-213.5 -80q-98 0 -155.5 54.5t-57.5 145.5q0 132 86.5 211t212.5 79q99 0 156.5 -54t57.5 -144zM447 287q0 61 -34.5 91t-95.5 30q-77 0 -133.5 -60t-56.5 -159q0 -61 34.5 -92t95.5 -31q78 0 134 60.5t56 160.5zM449 638l-88 -86 q-10 -10 -22 -10q-22 0 -22 19v4q1 5 7 15l79 89q9 11 21 11h15q21 0 21 -19q0 -1 -0.5 -2.5t-0.5 -2.5q-1 -8 -10 -18z" />
<glyph unicode="&#xf4;" horiz-adv-x="577" d="M544 284q0 -132 -86.5 -212t-213.5 -80q-98 0 -155.5 54.5t-57.5 145.5q0 132 86.5 211t212.5 79q99 0 156.5 -54t57.5 -144zM447 287q0 61 -34.5 91t-95.5 30q-77 0 -133.5 -60t-56.5 -159q0 -61 34.5 -92t95.5 -31q78 0 134 60.5t56 160.5zM348 680h35q4 0 9 -4t8 -8 l3 -4l41 -82q3 -4 3 -10q0 -1 -0.5 -3t-0.5 -3q-4 -24 -28 -24h-12q-13 0 -18 12l-32 76l-58 -76q-10 -12 -22 -12h-11q-21 0 -21 20v4q2 9 9 16l69 82q18 16 26 16z" />
<glyph unicode="&#xf5;" horiz-adv-x="577" d="M544 284q0 -132 -86.5 -212t-213.5 -80q-98 0 -155.5 54.5t-57.5 145.5q0 132 86.5 211t212.5 79q99 0 156.5 -54t57.5 -144zM447 287q0 61 -34.5 91t-95.5 30q-77 0 -133.5 -60t-56.5 -159q0 -61 34.5 -92t95.5 -31q78 0 134 60.5t56 160.5zM370 638q23 -20 38 -20 t24 21q8 19 26 19h5q20 0 20 -19q0 -1 -0.5 -2.5t-0.5 -2.5q0 -3 -2 -7q-12 -31 -33.5 -48t-43.5 -17q-33 0 -61 24q-29 20 -39 20q-15 0 -22 -21q-9 -19 -26 -19h-5q-20 0 -20 20v4l1 3q1 3 2 4q12 31 33.5 48t42.5 17q30 0 61 -24z" />
<glyph unicode="&#xf6;" horiz-adv-x="577" d="M544 284q0 90 -57.5 144t-156.5 54q-126 0 -212.5 -79t-86.5 -211q0 -91 57.5 -145.5t155.5 -54.5q127 0 213.5 80t86.5 212zM447 287q0 -100 -56 -160.5t-134 -60.5q-61 0 -95.5 31t-34.5 92q0 99 56.5 159t133.5 60q61 0 95.5 -30t34.5 -91zM393 611q4 20 20 34t35 14 q16 0 26 -10.5t10 -27.5q0 -21 -16.5 -39t-38.5 -18q-16 0 -26.5 11t-10.5 28q0 5 1 8zM224 611q4 20 20 34t35 14q16 0 26 -10.5t10 -27.5q0 -23 -16.5 -40t-37.5 -17q-17 0 -27.5 11t-10.5 28q0 5 1 8z" />
<glyph unicode="&#xf7;" horiz-adv-x="595" d="M85 273h424q11 0 18 -7.5t7 -17.5v-22q0 -10 -7 -17.5t-18 -7.5h-424q-11 0 -18 7.5t-7 17.5v22q0 10 7 17.5t18 7.5zM350 68q0 -23 -14.5 -37t-38.5 -14q-23 0 -37.5 14t-14.5 37q0 24 14 38t38 14t38.5 -14t14.5 -38zM350 405q0 -23 -14.5 -37t-38.5 -14 q-23 0 -37.5 14t-14.5 37t14.5 37.5t37.5 14.5q24 0 38.5 -14.5t14.5 -37.5z" />
<glyph unicode="&#xf8;" horiz-adv-x="577" d="M522 474l-36 -43q58 -53 58 -141q0 -133 -87 -215.5t-213 -82.5q-55 0 -107 24l-41 -49q-8 -8 -19 -8q-8 0 -11 2q-1 0 -6.5 4.5t-7.5 7.5q-4 8 -4 14q0 9 5 16l35 43q-57 53 -57 140q0 132 87 214.5t213 82.5q56 0 108 -22q1 1 9 11l31 37q8 10 19 10q10 0 18 -8l4 -4 q7 -7 7 -18q0 -8 -5 -15zM131 237q-4 -19 -4 -39q0 -49 24 -83l233 279q-29 15 -66 15q-69 0 -120.5 -45t-66.5 -127zM424 360l-233 -278q32 -16 66 -16q78 0 134 57.5t56 155.5q0 39 -23 81z" />
<glyph unicode="&#xf9;" horiz-adv-x="560" d="M438 453l-35 -205q-21 -73 -71.5 -127.5t-104.5 -54.5q-46 0 -63.5 18.5t-17.5 58.5q0 22 4 45l46 257v5q0 10 -7 17t-18 7h-42q-21 0 -25 -21l-48 -276q-6 -32 -6 -60q0 -125 142 -125q48 0 101.5 28.5t92.5 86.5h5q-7 -45 -7 -84q0 -10 7 -16.5t17 -6.5h28q10 0 19 8 t9 17q0 40 23 172l43 248v5q0 10 -7 17t-18 7h-42q-8 0 -16 -6.5t-9 -14.5zM272 680h20q17 0 23 -14l44 -88q3 -6 3 -12q0 -10 -7.5 -17t-18.5 -7h-5q-14 0 -20 10l-60 89q-5 8 -5 15q0 10 7.5 17t18.5 7z" />
<glyph unicode="&#xfa;" horiz-adv-x="560" d="M403 248l35 205q1 8 9 14.5t16 6.5h42q11 0 18 -7t7 -17v-5l-43 -248q-23 -132 -23 -172q0 -9 -9 -17t-19 -8h-28q-10 0 -17 6.5t-7 16.5q0 39 7 84h-5q-39 -58 -92.5 -86.5t-101.5 -28.5q-142 0 -142 125q0 28 6 60l48 276q4 21 25 21h42q11 0 18 -7t7 -17v-5l-46 -257 q-4 -23 -4 -45q0 -40 17.5 -58.5t63.5 -18.5q54 0 104.5 54.5t71.5 127.5zM429 639l-88 -86q-10 -10 -22 -10q-22 0 -22 19v4q1 5 7 15l79 89q9 11 21 11h15q21 0 21 -19q0 -1 -0.5 -2.5t-0.5 -2.5q-1 -7 -10 -18z" />
<glyph unicode="&#xfb;" horiz-adv-x="560" d="M403 248l35 205q1 8 9 14.5t16 6.5h42q11 0 18 -7t7 -17v-5l-43 -248q-23 -132 -23 -172q0 -9 -9 -17t-19 -8h-28q-10 0 -17 6.5t-7 16.5q0 39 7 84h-5q-39 -58 -92.5 -86.5t-101.5 -28.5q-142 0 -142 125q0 28 6 60l48 276q4 21 25 21h42q11 0 18 -7t7 -17v-5l-46 -257 q-4 -23 -4 -45q0 -40 17.5 -58.5t63.5 -18.5q54 0 104.5 54.5t71.5 127.5zM332 680h35q4 0 9 -4t8 -8l3 -4l41 -82q3 -4 3 -10q0 -1 -0.5 -3t-0.5 -3q-4 -24 -28 -24h-12q-13 0 -18 12l-32 76l-58 -76q-10 -12 -22 -12h-11q-21 0 -21 20v4q2 9 9 16l69 82q18 16 26 16z" />
<glyph unicode="&#xfc;" horiz-adv-x="560" d="M438 453l-35 -205q-21 -73 -71.5 -127.5t-104.5 -54.5q-46 0 -63.5 18.5t-17.5 58.5q0 22 4 45l46 257v5q0 10 -7 17t-18 7h-42q-21 0 -25 -21l-48 -276q-6 -32 -6 -60q0 -125 142 -125q48 0 101.5 28.5t92.5 86.5h5q-7 -45 -7 -84q0 -10 7 -16.5t17 -6.5h28q10 0 19 8 t9 17q0 40 23 172l43 248v5q0 10 -7 17t-18 7h-42q-8 0 -16 -6.5t-9 -14.5zM377 611q4 20 20 34t35 14q16 0 26 -10.5t10 -27.5q0 -21 -16.5 -39t-38.5 -18q-16 0 -26.5 11t-10.5 28q0 5 1 8zM208 611q4 20 20 34t35 14q16 0 26 -10.5t10 -27.5q0 -23 -16.5 -40t-37.5 -17 q-17 0 -27.5 11t-10.5 28q0 5 1 8z" />
<glyph unicode="&#xfd;" horiz-adv-x="512" d="M-41 -184l-2 24q0 18 18 24q68 22 107 55.5t82 102.5l-103 421q-1 2 -1 7q0 11 7 17.5t18 6.5h44q8 0 15 -5.5t9 -13.5q62 -273 70 -349h6q11 27 60 116l92 164l43 76q6 12 22 12h47q11 0 18 -6.5t7 -16.5q0 -8 -4 -15l-303 -489q-53 -97 -219 -152q-3 -1 -8 -1 q-22 0 -25 22zM393 638l-88 -86q-10 -10 -22 -10q-22 0 -22 19v4q1 5 7 15l79 89q9 11 21 11h15q21 0 21 -19q0 -1 -0.5 -2.5t-0.5 -2.5q-1 -8 -10 -18z" />
<glyph unicode="&#xfe;" horiz-adv-x="562" d="M247 -8q-64 0 -126 35l-37 -208q-2 -11 -10 -18t-18 -7h-45q-8 0 -14 6t-6 14q0 1 0.5 2.5t0.5 2.5l147 835q1 10 9.5 17.5t18.5 7.5h45q8 0 14 -6t6 -14q0 -1 -0.5 -2.5t-0.5 -2.5l-40 -225h4q75 53 144 53q87 0 138.5 -51t51.5 -138q0 -122 -82 -211.5t-200 -89.5z M310 407q-71 0 -133 -60l-43 -243q52 -38 117 -38q81 0 131.5 66t50.5 146q0 60 -33 94.5t-90 34.5z" />
<glyph unicode="&#xff;" horiz-adv-x="512" d="M-43 -160l2 -24q3 -22 25 -22q5 0 8 1q166 55 219 152l303 489q4 7 4 15q0 10 -7 16.5t-18 6.5h-47q-16 0 -22 -12q-170 -296 -195 -356h-6q-4 34 -21.5 121t-33.5 157l-15 71q-2 8 -9 13.5t-15 5.5h-44q-11 0 -18 -6.5t-7 -17.5q0 -5 1 -7l103 -421q-43 -69 -82 -102.5 t-107 -55.5q-18 -6 -18 -24zM358 611q4 20 20 34t35 14q16 0 26 -10.5t10 -27.5q0 -21 -16.5 -39t-38.5 -18q-16 0 -26.5 11t-10.5 28q0 5 1 8zM189 611q4 20 20 34t35 14q16 0 26 -10.5t10 -27.5q0 -23 -16.5 -40t-37.5 -17q-17 0 -27.5 11t-10.5 28q0 5 1 8z" />
<glyph unicode="&#x152;" horiz-adv-x="1144" d="M743 81h308q19 0 19 -21v-4l-6 -31q-2 -11 -10 -18t-18 -7h-379q-8 0 -14 6t-6 14q0 1 0.5 2.5t0.5 2.5l17 97q-112 -130 -288 -130q-146 0 -227.5 78.5t-81.5 202.5q0 33 6 67q26 148 143 248t283 100q81 0 141 -29t101 -100l17 96q1 10 9.5 17.5t18.5 7.5h373 q20 0 20 -21v-4l-6 -31q-1 -10 -9.5 -17.5t-18.5 -7.5h-302l-36 -204h267q8 0 14 -6t6 -14q0 -1 -0.5 -2.5t-0.5 -2.5l-5 -30q-1 -10 -9.5 -17.5t-18.5 -7.5h-267zM475 603q-120 0 -205 -73t-106 -190q-5 -32 -5 -56q0 -95 59 -151t164 -56q121 0 206 73t105 190q5 25 5 57 q0 94 -59 150t-164 56z" />
<glyph unicode="&#x153;" horiz-adv-x="945" d="M877 215h-343q-2 -18 -2 -26q0 -60 38 -92t94 -32q67 0 158 31q3 1 8 1q19 0 19 -19q2 -18 3 -20v-9q-4 -18 -20 -24q-101 -33 -182 -33q-69 0 -117.5 29t-64.5 83q-84 -112 -226 -112q-98 0 -155 51t-57 140q0 22 5 54q19 112 100 178.5t194 66.5q139 0 182 -111 q83 111 223 111q88 0 135.5 -44.5t47.5 -119.5q0 -24 -4 -44l-8 -36q-2 -10 -10 -16.5t-18 -6.5zM316 408q-87 -4 -138.5 -67t-51.5 -148q0 -61 34.5 -94t94.5 -33q87 0 138.5 65t51.5 150q0 61 -34.5 94t-94.5 33zM547 278h282q3 18 3 32q0 50 -30 76.5t-78 26.5 q-58 0 -106.5 -33t-70.5 -102z" />
<glyph unicode="&#x178;" horiz-adv-x="635" d="M331 381q-6 25 -38 95l-61 128l-29 58q-9 18 -30 18h-39q-12 0 -19 -7t-7 -17q0 -6 3 -12l167 -352l-46 -263v-5q0 -10 7 -17t18 -7h44q8 0 16 6.5t9 14.5l47 271l286 347q6 7 6 17t-6.5 17t-18.5 7h-54q-12 0 -19 -9q-187 -227 -228 -290h-8zM456 813q4 20 20 34t35 14 q15 0 25 -11t10 -27q0 -21 -16 -39t-38 -18q-16 0 -26.5 11t-10.5 28q0 5 1 8zM288 813q4 20 20 34t35 14q16 0 26 -10.5t10 -27.5q0 -23 -16.5 -40t-37.5 -17q-17 0 -27.5 11t-10.5 28q0 5 1 8z" />
<glyph unicode="&#x2c6;" horiz-adv-x="303" d="M210 680h35q4 0 9 -4t8 -8l3 -4l41 -82q3 -4 3 -10q0 -1 -0.5 -3t-0.5 -3q-4 -24 -28 -24h-12q-13 0 -18 12l-32 76l-58 -76q-10 -12 -22 -12h-11q-21 0 -21 20v4q2 9 9 16l69 82q18 16 26 16z" />
<glyph unicode="&#x2dc;" horiz-adv-x="303" d="M232 638q23 -20 38 -20t24 21q8 19 26 19h5q20 0 20 -19q0 -1 -0.5 -2.5t-0.5 -2.5q0 -3 -2 -7q-12 -31 -33.5 -48t-43.5 -17q-33 0 -61 24q-29 20 -39 20q-15 0 -22 -21q-9 -19 -26 -19h-5q-20 0 -20 20v4l1 3q1 3 2 4q12 31 33.5 48t42.5 17q30 0 61 -24z" />
<glyph unicode="&#x2000;" horiz-adv-x="453" />
<glyph unicode="&#x2001;" horiz-adv-x="907" />
<glyph unicode="&#x2002;" horiz-adv-x="453" />
<glyph unicode="&#x2003;" horiz-adv-x="907" />
<glyph unicode="&#x2004;" horiz-adv-x="302" />
<glyph unicode="&#x2005;" horiz-adv-x="226" />
<glyph unicode="&#x2006;" horiz-adv-x="151" />
<glyph unicode="&#x2007;" horiz-adv-x="151" />
<glyph unicode="&#x2008;" horiz-adv-x="113" />
<glyph unicode="&#x2009;" horiz-adv-x="181" />
<glyph unicode="&#x200a;" horiz-adv-x="50" />
<glyph unicode="&#x2010;" horiz-adv-x="388" d="M44 220l5 32q2 24 25 24h244q10 0 17.5 -7t7.5 -18v-5l-6 -31q-1 -8 -9 -14t-16 -6h-243q-11 0 -18 7.5t-7 17.5z" />
<glyph unicode="&#x2011;" horiz-adv-x="388" d="M44 220l5 32q2 24 25 24h244q10 0 17.5 -7t7.5 -18v-5l-6 -31q-1 -8 -9 -14t-16 -6h-243q-11 0 -18 7.5t-7 17.5z" />
<glyph unicode="&#x2013;" horiz-adv-x="612" d="M594 247l-3 -24q-2 -8 -9 -14.5t-16 -6.5h-525q-11 0 -18 7t-7 17v5l4 20q2 8 9 14.5t16 6.5h524q11 0 18 -7t7 -18z" />
<glyph unicode="&#x2014;" horiz-adv-x="1044" d="M1026 242l-4 -19q-2 -8 -9 -14.5t-16 -6.5h-956q-11 0 -18 7t-7 17v5l4 20q2 8 9 14.5t16 6.5h956q11 0 18 -7t7 -18v-5z" />
<glyph unicode="&#x2018;" horiz-adv-x="186" d="M50 468q0 75 98 226q6 11 21 11q4 0 8 -2l19 -9q15 -7 15 -23q0 -5 -2 -11q-46 -96 -53 -189q0 -21 -18 -34.5t-39 -13.5q-22 0 -35.5 12t-13.5 33z" />
<glyph unicode="&#x2019;" horiz-adv-x="206" d="M236 642q0 -76 -98 -227q-7 -11 -21 -11q-4 0 -8 2l-20 9q-15 7 -15 23q0 5 3 11q46 103 53 189q0 20 18 34.5t38 14.5q22 0 36 -12.5t14 -32.5z" />
<glyph unicode="&#x201a;" horiz-adv-x="234" d="M168 58q0 -34 -34.5 -99t-86.5 -132q-7 -10 -21 -10q-4 0 -8 2l-16 7q-16 6 -16 23q0 6 3 12q54 103 71 190q4 20 22 34.5t40 14.5q20 0 33 -11t13 -31z" />
<glyph unicode="&#x201c;" horiz-adv-x="356" d="M50 468q0 75 98 226q6 11 21 11q4 0 8 -2l19 -9q15 -7 15 -23q0 -5 -2 -11q-46 -101 -53 -189q0 -21 -17.5 -34.5t-39.5 -13.5t-35.5 12t-13.5 33zM221 468q0 80 97 226q6 11 20 11q3 0 9 -2l19 -9q15 -7 15 -23q0 -3 -2 -11q-46 -102 -54 -189q0 -20 -17 -34t-39 -14 q-21 0 -34.5 11.5t-13.5 33.5z" />
<glyph unicode="&#x201d;" horiz-adv-x="396" d="M399 642q0 -76 -98 -227q-7 -11 -21 -11q-3 0 -7 2l-19 9q-16 6 -16 23q0 5 2 11q47 103 54 189q0 20 17.5 34.5t38.5 14.5t35 -12.5t14 -32.5zM229 642q0 -79 -98 -227q-7 -11 -20 -11q-4 0 -8 2l-19 9q-16 6 -16 23q0 3 2 11q47 101 54 189q0 19 17.5 34t38.5 15 t35 -12.5t14 -32.5z" />
<glyph unicode="&#x201e;" horiz-adv-x="407" d="M342 58q0 -34 -34.5 -99t-86.5 -132q-7 -10 -21 -10q-4 0 -8 2l-16 7q-16 6 -16 23q0 6 3 12q54 103 71 190q4 20 22 34.5t40 14.5q20 0 33 -11t13 -31zM168 58q0 -34 -34.5 -99t-86.5 -132q-7 -10 -21 -10q-4 0 -8 2l-16 7q-16 6 -16 23q0 6 3 12q54 103 71 190 q4 20 22 34.5t40 14.5q20 0 33 -11t13 -31z" />
<glyph unicode="&#x2022;" horiz-adv-x="357" d="M177 471q55 0 93 -38.5t38 -92.5q0 -55 -38 -94t-93 -39q-53 0 -90.5 39t-37.5 94q0 54 37.5 92.5t90.5 38.5z" />
<glyph unicode="&#x2026;" horiz-adv-x="871" d="M98 -8q-52 0 -52 44q0 29 19.5 47t50.5 18q24 0 38 -12t14 -33q0 -29 -20.5 -46.5t-49.5 -17.5zM393 -8q-52 0 -52 44q0 29 19.5 47t50.5 18q24 0 38 -12t14 -33q0 -29 -20.5 -46.5t-49.5 -17.5zM688 -8q-52 0 -52 44q0 29 19.5 47t50.5 18q24 0 38 -12t14 -33 q0 -29 -20.5 -46.5t-49.5 -17.5z" />
<glyph unicode="&#x202f;" horiz-adv-x="181" />
<glyph unicode="&#x2039;" horiz-adv-x="265" d="M115 237l77 -203q2 -8 2 -10q0 -10 -7 -17t-18 -7h-47q-17 0 -23 16l-39 100t-41 109q-1 2 -1 6q0 10 5 17l158 215q7 11 20 11h37q12 0 19 -7t7 -17q0 -8 -6 -16z" />
<glyph unicode="&#x203a;" horiz-adv-x="265" d="M4 40l142 197l-76 203q-2 8 -2 10q0 10 7 17t18 7h46q17 0 23 -16l78 -207q1 -2 1 -8q0 -12 -4 -16l-156 -217q-6 -10 -20 -10h-37q-12 0 -19 7t-7 17q0 8 6 16z" />
<glyph unicode="&#x205f;" horiz-adv-x="226" />
<glyph unicode="&#x20ac;" horiz-adv-x="636" d="M672 634l-12 -29q-9 -26 -26 -26q-3 0 -9 2q-61 23 -121 23q-193 0 -267 -161h296q8 0 14 -6t6 -14q0 -1 -0.5 -2.5t-0.5 -2.5l-1 -10q-2 -11 -10 -18t-18 -7h-307q-6 -23 -10 -43q-1 -4 -3 -19l-3 -23h308q19 0 19 -21v-4l-2 -11q-2 -11 -10 -18t-18 -7h-297 q20 -161 210 -161q61 0 130 23q3 1 8 1q19 0 19 -19l2 -37l-1 -4q-1 -16 -20 -23q-72 -25 -150 -25q-134 0 -214.5 58.5t-84.5 186.5h-37q-20 0 -20 21v4l2 11q2 11 10 18t18 7h28l5 42l10 43h-28q-19 0 -19 21v4l2 10q1 10 9.5 17.5t18.5 7.5h37q93 245 385 245 q79 0 143 -26q12 -3 12 -17q0 -1 -0.5 -2.5t-0.5 -2.5q0 -4 -2 -6z" />
<glyph unicode="&#x2122;" horiz-adv-x="634" d="M335 668l-2 -17q-4 -15 -17 -15h-80l-39 -224q-4 -15 -17 -15h-25q-12 0 -12 13l40 226h-81q-11 0 -11 12l2 17q2 15 17 15h214q11 0 11 -12zM591 604l-104 -109q-6 -6 -13 -6t-10 5l-66 109l-39 -191q-2 -15 -17 -15h-24q-12 0 -12 13q0 1 12 56l26 119t17 80 q2 15 17 15h28q5 0 11 -6l70 -116l110 117q7 5 12 5h29q12 0 12 -12l-34 -255q-4 -16 -17 -16h-25q-12 0 -12 13z" />
</font>
</defs>
</svg>
