<?xml version="1.0" standalone="no"?>
<!DOCTYPE svg PUBLIC "-//W3C//DTD SVG 1.1//EN" "http://www.w3.org/Graphics/SVG/1.1/DTD/svg11.dtd" >
<svg xmlns="http://www.w3.org/2000/svg">
<metadata>
This is a custom SVG webfont generated by Fontspring.
Designer    : Nicholas Garner
Foundry     : Aviation Partners
Foundry URL : http://www.codesign.co.uk
</metadata>
<defs>
<font id="webfontKqrmK2mT" horiz-adv-x="546" >
<font-face units-per-em="1000" ascent="800" descent="-200" />
<missing-glyph horiz-adv-x="260" />
<glyph unicode=" "  horiz-adv-x="260" />
<glyph unicode="&#x09;" horiz-adv-x="260" />
<glyph unicode="&#xa0;" horiz-adv-x="260" />
<glyph unicode="!" horiz-adv-x="309" d="M112 -8q46 0 77 30t31 80q0 34 -20.5 53.5t-57.5 19.5q-47 0 -78.5 -31t-31.5 -80q0 -33 21.5 -52.5t58.5 -19.5zM304 630l-94 -368q-3 -12 -14.5 -21t-24.5 -9h-25q-17 0 -28.5 11.5t-11.5 28.5v4l37 368q1 15 13 25.5t27 10.5h82q18 0 29.5 -10.5t11.5 -27.5 q0 -4 -2 -12z" />
<glyph unicode="&#x22;" horiz-adv-x="448" d="M106 434l22 209q2 15 13.5 26t26.5 11h54q18 0 29.5 -10.5t11.5 -27.5q0 -4 -2 -12l-56 -206q-3 -12 -15 -21t-24 -9h-20q-17 0 -28.5 11.5t-11.5 28.5zM300 434l22 209q2 15 13.5 26t26.5 11h54q18 0 29.5 -10.5t11.5 -27.5q0 -4 -2 -12l-56 -206q-3 -12 -15 -21t-24 -9 h-20q-17 0 -28.5 11.5t-11.5 28.5z" />
<glyph unicode="#" horiz-adv-x="592" d="M331 197l23 124h-96q-2 -11 -10 -51.5t-13 -72.5h96zM299 7l13 70h-97l-15 -89q-2 -15 -13.5 -24.5t-26.5 -9.5h-4l-36 7q-41 8 -41 39q0 1 0.5 3t0.5 4l13 70h-21q-16 0 -28 11.5t-12 28.5v40q0 17 12 28.5t28 11.5h41l23 124h-21q-17 0 -28.5 11.5t-11.5 28.5v40 q0 17 11.5 28.5t28.5 11.5h42l15 89q2 14 13.5 24t25.5 10h5l36 -7q41 -8 41 -38q0 -1 -0.5 -3.5t-0.5 -4.5l-13 -70h96l15 89q2 14 13.5 24t25.5 10h5l36 -7q41 -8 41 -38q0 -1 -0.5 -3.5t-0.5 -4.5l-13 -70h21q16 0 28 -11.5t12 -28.5v-40q0 -17 -12 -28.5t-28 -11.5h-41 l-23 -124h21q17 0 28.5 -11.5t11.5 -28.5v-40q0 -17 -11.5 -28.5t-28.5 -11.5h-41l-15 -89q-2 -15 -13.5 -24.5t-26.5 -9.5h-4l-36 7q-41 8 -41 39q0 1 0.5 3t0.5 4z" />
<glyph unicode="$" horiz-adv-x="586" d="M316 -2l-11 -64q-2 -13 -14.5 -23t-26.5 -10h-53q-17 0 -28.5 11t-11.5 27q0 6 1 9l9 50q-17 2 -32.5 6t-25.5 7t-24 9.5t-19.5 9.5l-20 11t-18.5 10q-20 11 -20 36q0 9 3 16l30 68q11 23 35 23q13 0 23 -7q80 -53 151 -53q39 0 68 18.5t29 47.5q0 37 -97 79 q-76 32 -119.5 71.5t-43.5 103.5q0 86 53.5 144t145.5 80l13 68q2 14 13.5 24t25.5 10h55q17 0 28.5 -11t11.5 -27q0 -6 -1 -9l-9 -50q51 -9 114 -42q22 -12 22 -37q0 -8 -3 -15l-26 -59q-11 -25 -37 -25q-10 0 -20 6q-68 38 -124 38q-34 0 -60 -15.5t-26 -43.5 q0 -13 11 -24t23 -17t39 -17l11 -4q83 -33 131 -76.5t48 -114.5q0 -89 -60.5 -154t-162.5 -85z" />
<glyph unicode="%" horiz-adv-x="855" d="M186 64l453 600q9 12 25 12q17 0 31 -13t14 -29q0 -9 -6 -18l-453 -600q-9 -12 -25 -12q-17 0 -31 13t-14 29q0 9 6 18zM707 411q55 0 86.5 -39t31.5 -108q0 -118 -57.5 -195t-134.5 -77q-55 0 -86.5 39t-31.5 107q0 119 57.5 196t134.5 77zM649 84q23 0 45 56t22 123 q0 56 -25 56q-22 0 -44 -55t-22 -123q0 -57 24 -57zM183 268q-56 0 -87.5 39t-31.5 108q0 119 57.5 196t135.5 77q55 0 85.5 -39t30.5 -107q0 -119 -57 -196.5t-133 -77.5zM241 596q-23 0 -45 -56t-22 -124q0 -55 25 -55q22 0 43.5 55t21.5 123q0 57 -23 57z" />
<glyph unicode="&#x26;" horiz-adv-x="705" d="M568 0h-104q-28 0 -57 47q-99 -55 -196 -55q-78 0 -129.5 40t-51.5 112q0 140 159 227v6q-43 65 -43 112q0 91 70.5 145t157.5 54q71 0 117 -35t46 -99q0 -54 -37.5 -108.5t-101.5 -92.5l68 -96q35 40 61 77q13 17 35 17l61 -7q17 -2 27 -12.5t10 -25.5q0 -13 -9 -25 q-53 -74 -111 -133l61 -85q8 -11 8 -25q0 -16 -11.5 -27t-29.5 -11zM341 148l-87 124q-56 -43 -56 -100q0 -25 14 -41.5t37 -16.5q40 0 92 34zM303 511q0 -28 27 -64q58 44 58 85q0 17 -10 27.5t-25 10.5q-19 0 -34.5 -17.5t-15.5 -41.5z" />
<glyph unicode="'" horiz-adv-x="266" d="M175 680h56q18 0 29.5 -10.5t11.5 -27.5q0 -4 -2 -12l-55 -206q-3 -12 -14.5 -21t-24.5 -9h-20q-17 0 -28.5 11t-11.5 28v4q3 41 10 105t9 100q1 16 12.5 27t27.5 11z" />
<glyph unicode="(" horiz-adv-x="351" d="M278 679h49q18 0 29.5 -11t11.5 -27q0 -12 -7 -23q-160 -255 -160 -559q0 -116 28 -212q2 -8 2 -13q0 -16 -11.5 -27t-28.5 -11h-62q-10 0 -21.5 8t-15.5 18q-42 110 -42 247q0 158 52.5 314.5t143.5 279.5q4 5 14.5 10.5t17.5 5.5z" />
<glyph unicode=")" horiz-adv-x="351" d="M159 679h62q11 0 22.5 -8t15.5 -18q40 -111 40 -248q0 -157 -52 -313t-142 -280q-4 -5 -14.5 -10.5t-17.5 -5.5h-50q-18 0 -29.5 11t-11.5 27q0 12 7 23q160 255 160 561q0 117 -28 210q-2 8 -2 13q0 16 11.5 27t28.5 11z" />
<glyph unicode="*" horiz-adv-x="479" d="M192 410l-5 5l-62 -34q-12 -5 -20 -5q-14 0 -24.5 9t-13.5 24l-3 15q0 2 -0.5 4t-0.5 4q0 14 8.5 25t21.5 14l77 20l1 10q-26 9 -56 17q-29 10 -29 37q0 10 6 21l13 22q10 22 35 22q13 0 24 -7l51 -35l7 6l-25 69q-2 8 -2 12q0 28 26 38l25 10l5 1h6q16 0 27.5 -10.5 t12.5 -26.5l5 -62h8l34 77q11 26 35 26q14 0 23 -8q29 -8 29 -37q0 -13 -8 -24l-47 -66l5 -5l63 34q9 5 20 5q14 0 24.5 -8.5t13.5 -23.5l3 -16q0 -1 0.5 -3.5t0.5 -3.5q0 -14 -8.5 -25.5t-21.5 -14.5l-79 -20v-10l55 -16q31 -8 31 -38q0 -9 -5 -19l-14 -24q-10 -22 -35 -22 q-13 0 -24 7l-51 36l-8 -8q21 -58 24 -64q3 -8 3 -16q0 -28 -27 -38l-20 -8q-8 -3 -14 -3q-15 0 -26.5 10.5t-12.5 26.5l-6 61h-9l-31 -73q-11 -26 -35 -26q-14 0 -23 8q-29 8 -29 37q0 13 8 24z" />
<glyph unicode="+" horiz-adv-x="594" d="M534 257v-40q0 -17 -12 -28.5t-28 -11.5h-137v-137q0 -16 -11.5 -28t-28.5 -12h-40q-17 0 -28.5 12t-11.5 28v137h-137q-16 0 -28 11.5t-12 28.5v40q0 17 12 28.5t28 11.5h137v139q0 16 11.5 28t28.5 12h40q17 0 28.5 -12t11.5 -28v-139h137q16 0 28 -11.5t12 -28.5z" />
<glyph unicode="," horiz-adv-x="306" d="M231 103q0 -94 -135 -292q-11 -17 -35 -17q-3 0 -11 2q-11 4 -37 11q-29 8 -29 38q0 10 4 18q57 120 76 225q6 36 33.5 60.5t63.5 24.5q31 0 50.5 -19.5t19.5 -50.5z" />
<glyph unicode="-" horiz-adv-x="406" d="M366 262l-9 -53q-2 -13 -13.5 -23t-25.5 -10h-239q-17 0 -28.5 11t-11.5 27q0 6 1 9l10 53q2 13 13.5 23t25.5 10h238q17 0 28.5 -11.5t11.5 -28.5q0 -1 -0.5 -3.5t-0.5 -3.5z" />
<glyph unicode="." horiz-adv-x="282" d="M220 102q0 -50 -31.5 -80t-77.5 -30q-38 0 -58.5 19t-20.5 53q0 49 31.5 80t78.5 31q36 0 57 -20t21 -53z" />
<glyph unicode="/" horiz-adv-x="396" d="M56 -73h-29q-18 0 -29.5 11t-11.5 27q0 8 5 20l335 673q4 8 15.5 15t20.5 7h29q18 0 29.5 -11t11.5 -27q0 -8 -5 -20l-335 -673q-4 -8 -15.5 -15t-20.5 -7z" />
<glyph unicode="0" horiz-adv-x="529" d="M523 442q0 -198 -90.5 -324t-212.5 -126q-85 0 -133 66.5t-48 179.5q0 198 91 324t213 126q85 0 132.5 -66.5t47.5 -179.5zM357 447q0 95 -40 95q-37 0 -73.5 -96.5t-36.5 -213.5q0 -94 39 -94q38 0 74.5 96t36.5 213z" />
<glyph unicode="1" horiz-adv-x="529" d="M100 485l-4 42q0 8 6 19t13 15l152 97q32 22 65 22h60q17 0 28.5 -11.5t11.5 -28.5q0 -1 -0.5 -3.5t-0.5 -3.5l-87 -500h76q17 0 28.5 -11t11.5 -27q0 -6 -1 -9l-10 -53q-2 -13 -13.5 -23t-25.5 -10h-331q-17 0 -28.5 11t-11.5 27q0 6 1 9l10 53q2 13 13.5 23t25.5 10h88 l34 187t34 190l-83 -56q-11 -8 -25 -8q-15 0 -25.5 11t-11.5 28z" />
<glyph unicode="2" horiz-adv-x="531" d="M334 203l-64 -70h136q17 0 28.5 -11t11.5 -27q0 -6 -1 -9l-10 -53q-2 -13 -13.5 -23t-25.5 -10h-333q-17 0 -28.5 11.5t-11.5 28.5q0 1 0.5 3.5t0.5 3.5l4 25q5 22 22 42l162 167q138 127 138 220q0 43 -44 43q-46 0 -105 -38q-11 -7 -24 -7q-15 0 -25.5 10.5t-11.5 28.5 l-5 55q0 8 6.5 19.5t13.5 15.5q105 60 186 60t129.5 -48.5t48.5 -123.5q0 -63 -39.5 -131t-145.5 -182z" />
<glyph unicode="3" horiz-adv-x="531" d="M422 362l-1 -9q47 -38 47 -112q0 -112 -78 -180.5t-184 -68.5q-74 0 -149 48q-18 11 -18 35q0 8 3 15l27 62q11 24 36 24q9 0 20 -6q58 -34 101 -34q29 0 52.5 28.5t23.5 66.5q0 19 -13.5 30t-35.5 11q-16 0 -26.5 12t-10.5 28q0 1 0.5 3.5t0.5 3.5l12 69q1 10 11 20 t21 12q38 7 56 31.5t18 54.5q0 38 -37 38q-41 0 -95 -23q-8 -4 -18 -4q-15 0 -26 11t-12 28l-4 46q0 11 6.5 21.5t15.5 14.5q95 49 170 49t122 -47.5t47 -117.5q0 -105 -82 -160z" />
<glyph unicode="4" horiz-adv-x="529" d="M442 277h18q17 0 28.5 -11t11.5 -27q0 -6 -1 -9l-10 -53q-2 -13 -13.5 -23t-25.5 -10h-31q-3 -18 -10 -55t-10 -56q-2 -13 -13.5 -23t-25.5 -10h-80q-17 0 -28.5 11t-11.5 27q0 6 1 9l18 97h-201q-17 0 -28.5 11t-11.5 27q0 6 1 9l9 52q6 33 26 59l287 363q4 5 14.5 10 t16.5 5h94q17 0 28.5 -11.5t11.5 -28.5q0 -1 -0.5 -3.5t-0.5 -3.5zM285 268l23 125q3 24 18 84h-12q-35 -55 -92 -129q-39 -49 -58 -77v-9q60 6 78 6h43z" />
<glyph unicode="5" horiz-adv-x="530" d="M27 73l28 63q10 22 37 22q4 0 12 -2q58 -20 106 -20q43 0 74 42t31 90q0 68 -71 68q-37 0 -79 -6h-6q-17 0 -28.5 11t-11.5 28q0 7 1 11l69 270q3 12 14.5 21t24.5 9h263q17 0 28.5 -11t11.5 -27q0 -6 -1 -9l-10 -53q-2 -13 -13.5 -23t-25.5 -10h-151l-15 -70h8 q67 0 114.5 -57t47.5 -140q0 -120 -85.5 -204t-187.5 -84q-80 0 -161 27q-28 10 -28 37q0 9 4 17z" />
<glyph unicode="6" horiz-adv-x="529" d="M220 -8q-87 0 -141 53t-54 143q0 123 86.5 248.5t212.5 225.5q21 18 47 18h54q18 0 29.5 -12t11.5 -28q0 -19 -15 -31q-59 -48 -129 -125v-8h16q76 0 120 -54.5t44 -139.5q0 -135 -84 -212.5t-198 -77.5zM281 336q-42 0 -64.5 -40.5t-22.5 -103.5q0 -30 12 -43t39 -13 q39 0 64 41t25 101q0 58 -53 58z" />
<glyph unicode="7" horiz-adv-x="529" d="M559 633l-6 -35q-2 -22 -18 -50l-305 -528q-4 -7 -15.5 -13.5t-19.5 -6.5h-82q-18 0 -29.5 11t-11.5 26q0 9 7 23l288 487h-150l-10 -58q-2 -13 -13.5 -23t-25.5 -10h-45q-17 0 -28.5 11.5t-11.5 28.5q0 1 0.5 3.5t0.5 3.5l25 144q2 13 13.5 23t25.5 10h372 q17 0 28.5 -11.5t11.5 -28.5q0 -1 -0.5 -3.5t-0.5 -3.5z" />
<glyph unicode="8" horiz-adv-x="531" d="M476 223q0 -101 -76 -166t-179 -65q-82 0 -132.5 48.5t-50.5 123.5q0 62 34 115t81 78l1 4q-45 33 -45 114q0 93 71 153t164 60q73 0 121.5 -45t48.5 -113q0 -52 -27 -98.5t-69 -70.5l-1 -4q26 -17 42.5 -54.5t16.5 -79.5zM317 231q0 22 -9.5 34.5t-35.5 16.5 q-38 -6 -57 -38.5t-19 -68.5q0 -46 49 -46q24 0 40 12t22 31.5t8 32.5t2 26zM260 472q0 -35 38 -42q31 5 46.5 33t15.5 53q0 40 -39 40q-26 0 -43.5 -24.5t-17.5 -59.5z" />
<glyph unicode="9" horiz-adv-x="529" d="M344 688q87 0 141 -53t54 -143q0 -123 -86.5 -248.5t-212.5 -225.5q-21 -18 -47 -18h-54q-18 0 -29.5 12t-11.5 28q0 19 15 31q59 48 129 125v8h-16q-76 0 -120 54.5t-44 139.5q0 135 84 212.5t198 77.5zM283 344q42 0 64.5 40.5t22.5 103.5q0 30 -12 43t-39 13 q-39 0 -64 -41t-25 -101q0 -58 53 -58z" />
<glyph unicode=":" horiz-adv-x="282" d="M162 278q-37 0 -58 19.5t-21 52.5q0 49 31.5 80t78.5 31q37 0 57.5 -19.5t20.5 -53.5q0 -49 -31.5 -79t-77.5 -31zM111 -8q-37 0 -58 19.5t-21 52.5q0 49 31.5 80t78.5 31q37 0 57.5 -19.5t20.5 -53.5q0 -49 -31.5 -79t-77.5 -31z" />
<glyph unicode=";" horiz-adv-x="304" d="M295 388q0 -50 -31.5 -80t-77.5 -30q-38 0 -58.5 19t-20.5 53q0 49 31.5 80t78.5 31q36 0 57 -20t21 -53zM94 -189q-12 -17 -34 -17q-6 0 -8 1l-45 14q-31 10 -31 38q0 9 5 19q58 117 79 224q7 35 36.5 59.5t66.5 24.5q33 0 53.5 -19.5t20.5 -50.5q0 -94 -143 -293z" />
<glyph unicode="&#x3c;" horiz-adv-x="594" d="M502 436l16 -35q3 -7 3 -14q0 -28 -25 -38q-151 -64 -273 -107v-10q122 -42 273 -106q24 -11 24 -37q0 -8 -3 -15l-16 -37q-12 -25 -37 -25q-8 0 -15 3l-365 156q-9 4 -16.5 15.5t-7.5 21.5v58q0 10 7.5 21.5t16.5 15.5l366 156q8 3 15 3q27 0 37 -26z" />
<glyph unicode="=" horiz-adv-x="594" d="M100 396h394q16 0 28 -12t12 -28v-40q0 -16 -12 -28t-28 -12h-394q-16 0 -28 12t-12 28v40q0 16 12 28t28 12zM100 198h394q16 0 28 -12t12 -28v-40q0 -16 -12 -28t-28 -12h-394q-16 0 -28 12t-12 28v40q0 16 12 28t28 12z" />
<glyph unicode="&#x3e;" horiz-adv-x="594" d="M63 401l16 35q10 26 37 26q8 0 15 -3l366 -156q9 -4 16.5 -15.5t7.5 -21.5v-58q0 -10 -7.5 -21.5t-16.5 -15.5l-365 -156q-8 -3 -15 -3q-25 0 -37 25l-16 37q-3 8 -3 15q0 26 24 37q151 64 273 106v10q-54 19 -122.5 46l-109.5 44l-41 17q-25 10 -25 38q0 7 3 14z" />
<glyph unicode="?" horiz-adv-x="442" d="M138 -8q47 1 78.5 30.5t31.5 79.5q0 34 -20.5 53.5t-57.5 19.5q-47 0 -78.5 -31t-31.5 -80q0 -33 21 -52.5t57 -19.5zM108 601l-2 27q0 11 8 22.5t19 15.5q64 22 137 22q93 0 137 -36.5t44 -92.5q0 -32 -10 -60.5t-31.5 -55.5t-38 -43.5t-46.5 -43.5q-73 -65 -88 -100 q-4 -9 -15.5 -16.5t-21.5 -7.5h-29q-17 0 -28.5 11t-11.5 28q0 6 1 10q16 65 71 120q77 75 77 121q0 48 -68 48q-31 0 -51 -7q-8 -3 -15 -3q-16 0 -27 11.5t-11 29.5z" />
<glyph unicode="@" horiz-adv-x="772" d="M481 -52l2 -19q0 -13 -9 -24.5t-21 -14.5q-48 -13 -102 -13q-149 0 -235 90t-86 231q0 109 47.5 199.5t136.5 145t201 54.5q146 0 235.5 -85t89.5 -215q0 -121 -63.5 -187.5t-137.5 -66.5q-61 0 -89 69h-12q-26 -33 -60.5 -51t-59.5 -18q-53 0 -86.5 30.5t-33.5 93.5 q0 116 69.5 189.5t147.5 73.5q57 0 125 -33q23 -12 23 -38q0 -6 -1 -9q-32 -117 -32 -166q0 -51 31 -51q35 0 57 40t22 123q0 39 -9.5 72t-33 65.5t-72 51t-118.5 18.5q-120 0 -197.5 -85.5t-77.5 -217.5q0 -107 58.5 -168t169.5 -61q29 0 71 10q4 1 11 1q15 0 26 -9.5 t13 -24.5zM443 265q4 11 11 57q0 1 0.5 2.5t0.5 2.5q-22 13 -46 13q-33 0 -66.5 -43t-33.5 -111q0 -53 40 -53q28 0 54 41t40 91z" />
<glyph unicode="A" horiz-adv-x="700" d="M521 648l116 -601q1 -3 1 -9q0 -16 -11.5 -27t-28.5 -11h-95q-14 0 -26.5 11t-13.5 25l-12 101h-232l-53 -113q-4 -9 -15.5 -16.5t-21.5 -7.5h-92q-18 0 -29.5 11t-11.5 27q0 10 6 21l326 600q5 8 15.5 14.5t19.5 6.5h119q14 0 25.5 -9.5t13.5 -22.5zM283 267h150 q-1 0 -7.5 56.5t-12.5 120t-6 79.5h-9q-10 -34 -115 -256z" />
<glyph unicode="B" horiz-adv-x="617" d="M33 42l107 608q2 12 13 22t23 11q78 5 186 5q115 0 171.5 -44t56.5 -109q0 -51 -33.5 -92t-80.5 -62v-7q46 -16 74 -56t28 -90q0 -52 -17 -92.5t-56.5 -74t-111.5 -51.5t-175 -18q-100 0 -148 3q-16 1 -27 12.5t-11 27.5q0 1 0.5 3.5t0.5 3.5zM395 232q0 30 -24 42.5 t-78 12.5h-47l-27 -155q10 -2 45 -2q131 0 131 102zM293 555l-24 -137h42q47 0 78.5 25t31.5 70q0 25 -17.5 35t-59.5 10q-36 0 -51 -3z" />
<glyph unicode="C" horiz-adv-x="636" d="M666 589l-31 -71q-11 -22 -35 -22q-13 0 -23 7q-61 41 -120 41q-107 0 -169 -76t-62 -190q0 -142 159 -142q57 0 130 38q12 5 20 5q15 0 26 -10.5t12 -26.5l6 -56q0 -29 -22 -40q-106 -54 -206 -54q-137 0 -219.5 72.5t-82.5 204.5q0 103 35.5 185t96 132t135.5 76 t158 26q96 0 176 -47q19 -11 19 -36q0 -9 -3 -16z" />
<glyph unicode="D" horiz-adv-x="701" d="M357 547q-18 0 -66 -3l-72 -409q20 -2 65 -2q101 0 163 78t62 194q0 142 -152 142zM223 -8q-14 0 -152 6q-16 1 -27 12.5t-11 27.5q0 1 0.5 3.5t0.5 3.5l106 603q2 12 13 22t23 11q112 7 178 7q164 0 248 -73.5t84 -202.5q0 -199 -125 -309.5t-338 -110.5z" />
<glyph unicode="E" horiz-adv-x="548" d="M34 47l105 600q2 13 13.5 23t25.5 10h363q17 0 28.5 -11t11.5 -27q0 -6 -1 -9q-3 -15 -8 -55q-2 -14 -14 -24.5t-26 -10.5h-241q-3 -21 -10 -57.5l-12 -63.5h197q17 0 28.5 -11t11.5 -27q0 -6 -1 -9l-9 -53q-2 -13 -13.5 -23t-25.5 -10h-210q-4 -26 -12.5 -71t-13.5 -81 h227q17 0 28.5 -11t11.5 -27q0 -6 -1 -9q-3 -15 -8 -55q-2 -14 -14 -24.5t-26 -10.5h-366q-17 0 -28.5 11.5t-11.5 28.5q0 1 0.5 3.5t0.5 3.5z" />
<glyph unicode="F" horiz-adv-x="528" d="M34 47l105 600q2 13 13.5 23t25.5 10h352q17 0 28.5 -11t11.5 -27q0 -6 -1 -9l-8 -55q-2 -14 -14 -24.5t-26 -10.5h-229l-23 -123h193q17 0 28.5 -11t11.5 -27q0 -6 -1 -9l-9 -53q-2 -13 -13.5 -23t-25.5 -10h-206q-7 -43 -23 -127t-23 -126q-2 -14 -13.5 -24t-25.5 -10 h-89q-17 0 -28.5 11.5t-11.5 28.5q0 1 0.5 3.5t0.5 3.5z" />
<glyph unicode="G" horiz-adv-x="692" d="M666 589l-31 -71q-11 -22 -35 -22q-13 0 -23 7q-61 41 -120 41q-107 0 -169 -76t-62 -190q0 -142 158 -142l50 5q1 4 8 41.5l12 66.5h-54q-17 0 -28.5 11t-11.5 27q0 6 1 9l9 53q2 13 13.5 23t25.5 10h192q17 0 28.5 -11t11.5 -27q0 -6 -1 -9l-51 -286q-1 -10 -11 -20 t-20 -12q-122 -25 -207 -25q-137 0 -219.5 72.5t-82.5 204.5q0 103 35.5 185t96 132t135.5 76t158 26q96 0 176 -47q19 -11 19 -36q0 -9 -3 -16z" />
<glyph unicode="H" horiz-adv-x="712" d="M34 47l105 600q2 13 13.5 23t25.5 10h90q17 0 28.5 -11.5t11.5 -28.5q0 -1 -0.5 -3.5t-0.5 -3.5l-37 -213h235l39 227q2 13 13.5 23t25.5 10h90q17 0 28.5 -11.5t11.5 -28.5q0 -1 -0.5 -3.5t-0.5 -3.5l-105 -600q-2 -13 -13.5 -23t-25.5 -10h-90q-17 0 -28.5 11.5 t-11.5 28.5q0 1 0.5 3.5t0.5 3.5l41 236h-234q-2 -13 -6 -35l-15 -81l-24 -134q-2 -13 -13.5 -23t-25.5 -10h-89q-17 0 -28.5 11.5t-11.5 28.5q0 1 0.5 3.5t0.5 3.5z" />
<glyph unicode="I" horiz-adv-x="402" d="M331 73l-7 -33q-2 -18 -13 -29t-27 -11h-232q-17 0 -28.5 11.5t-11.5 28.5q0 1 0.5 3.5t0.5 3.5l6 40q2 14 14 24t26 10h36l78 438h-23q-17 0 -28.5 10.5t-11.5 26.5q0 7 1 11l7 33q2 17 13 28.5t27 11.5h232q17 0 28.5 -10.5t11.5 -26.5q0 -7 -1 -11l-7 -33 q-7 -40 -40 -40h-38l-78 -438h26q17 0 28.5 -10.5t11.5 -26.5q0 -7 -1 -11z" />
<glyph unicode="J" horiz-adv-x="465" d="M466 633l-81 -458q-16 -85 -75.5 -134t-151.5 -49q-59 0 -126 32q-23 12 -23 37q0 9 4 17l31 62q11 22 36 22q10 0 18 -4q34 -17 64 -17q19 0 34 8.5t19 22.5l68 387h-85q-17 0 -28.5 11.5t-11.5 28.5q0 1 0.5 3.5t0.5 3.5l6 40q2 14 14 24t26 10h222q17 0 28.5 -11.5 t11.5 -28.5q0 -1 -0.5 -3.5t-0.5 -3.5z" />
<glyph unicode="K" horiz-adv-x="678" d="M33 47l105 600q2 13 13.5 23t25.5 10h90q17 0 28.5 -11.5t11.5 -28.5q0 -1 -0.5 -3.5t-0.5 -3.5l-34 -193h8l195 227q4 4 14 8.5t16 4.5h99q18 0 29.5 -11t11.5 -27t-12 -29l-235 -253l188 -299q7 -11 7 -23q0 -16 -11.5 -27t-29.5 -11h-99q-25 0 -38 22 q-143 236 -160 277h-7l-48 -266q-2 -13 -13.5 -23t-25.5 -10h-89q-17 0 -28.5 11.5t-11.5 28.5q0 1 0.5 3.5t0.5 3.5z" />
<glyph unicode="L" horiz-adv-x="536" d="M34 47l105 600q2 13 13.5 23t25.5 10h89q17 0 28.5 -11.5t11.5 -28.5q0 -1 -0.5 -3.5t-0.5 -3.5l-87 -500h235q17 0 28.5 -11t11.5 -27q0 -6 -1 -9l-10 -53q-2 -13 -13.5 -23t-25.5 -10h-371q-17 0 -28.5 11.5t-11.5 28.5q0 1 0.5 3.5t0.5 3.5z" />
<glyph unicode="M" horiz-adv-x="830" d="M442 440l203 227q13 13 30 13h99q17 0 29 -11.5t12 -27.5q0 -1 -0.5 -3.5t-0.5 -3.5l-87 -600q-2 -14 -14 -24t-26 -10h-87q-16 0 -26.5 9.5t-10.5 26.5q0 6 1 9q29 202 56 360h-6l-173 -184q-12 -14 -30 -14q-21 0 -34 21l-103 177h-6q-44 -237 -72 -373 q-3 -13 -14.5 -22.5t-24.5 -9.5h-85q-17 0 -28.5 11t-11.5 28q0 6 1 9l125 600q3 13 14.5 22.5t24.5 9.5h90q8 0 19 -6.5t16 -14.5z" />
<glyph unicode="N" horiz-adv-x="721" d="M34 47l105 600q2 13 13.5 23t25.5 10h69q23 0 38 -21q190 -302 218 -355h7q15 108 19 132l38 211q2 13 13.5 23t25.5 10h77q17 0 28.5 -11.5t11.5 -28.5q0 -1 -0.5 -3.5t-0.5 -3.5l-105 -600q-2 -13 -13.5 -23t-25.5 -10h-60q-8 0 -19 6t-15 13l-230 370h-7 q-10 -86 -19 -135l-38 -220q-2 -14 -14 -24t-26 -10h-77q-17 0 -28.5 11.5t-11.5 28.5q0 1 0.5 3.5t0.5 3.5z" />
<glyph unicode="O" horiz-adv-x="741" d="M727 410q0 -111 -49 -205.5t-142 -153.5t-210 -59q-133 0 -204.5 79.5t-71.5 200.5q0 108 46.5 202t139.5 154t213 60q136 0 207 -78t71 -200zM550 409q0 135 -127 135q-86 0 -141.5 -77.5t-55.5 -196.5q0 -134 125 -134q86 0 142.5 77.5t56.5 195.5z" />
<glyph unicode="P" horiz-adv-x="585" d="M34 47l106 602q2 12 13 22t23 11q82 6 186 6q115 0 175.5 -53.5t60.5 -136.5q0 -108 -77.5 -191t-174.5 -83q-93 0 -111 1l-33 -192q-2 -13 -13.5 -23t-25.5 -10h-90q-17 0 -28.5 11.5t-11.5 28.5q0 1 0.5 3.5t0.5 3.5zM347 548q-27 0 -56 -4q-5 -30 -15.5 -85.5 t-16.5 -95.5q18 -1 45 -1q47 0 82 38t35 91q0 29 -17 43t-57 14z" />
<glyph unicode="Q" horiz-adv-x="742" d="M606 -56l-26 -52q-12 -23 -38 -23q-195 19 -267 128q-112 14 -168.5 90t-56.5 184t46.5 202t139.5 154.5t214 60.5q137 0 207.5 -79t70.5 -200q0 -117 -67 -229t-185 -160q47 -20 100 -20q15 0 25 -10.5t10 -25.5q0 -10 -5 -20zM424 544q-86 0 -142 -77t-56 -195 q0 -135 127 -135q86 0 142 77t56 195q0 135 -127 135z" />
<glyph unicode="R" horiz-adv-x="633" d="M548 111l20 -58q3 -8 3 -15q0 -16 -11.5 -27t-29.5 -11h-115q-13 0 -25 9.5t-14 22.5l-6 28l-10.5 42.5t-11.5 42t-14.5 43.5t-16 33t-20.5 26t-23 8h-33l-21.5 -122t-12.5 -70t-5 -29q-2 -14 -14 -24t-26 -10h-89q-17 0 -28.5 11.5t-11.5 28.5q0 1 0.5 3.5t0.5 3.5 l106 603q2 12 13 22t23 11q70 5 186 5q118 0 179 -47.5t61 -126.5q0 -58 -39.5 -119.5t-106.5 -88.5v-9q27 -15 47 -57.5t45 -128.5zM347 548q-25 0 -54 -4q-4 -25 -13.5 -72.5t-15.5 -83.5h45q49 0 82 29.5t33 81.5q0 27 -17.5 38t-59.5 11z" />
<glyph unicode="S" horiz-adv-x="574" d="M335 432l16 -6q86 -34 133 -78t47 -115q0 -110 -84 -175.5t-208 -65.5q-114 0 -208 58q-19 11 -19 35q0 8 3 15l30 71q11 25 36 25q13 0 23 -7q81 -53 148 -53q33 0 66.5 19t33.5 51q0 14 -16.5 27.5t-34.5 22t-49 20.5q-162 62 -162 183q0 108 83 168.5t197 60.5 q85 0 173 -47q21 -11 21 -36q0 -8 -3 -15l-26 -60q-11 -25 -37 -25q-9 0 -19 5q-64 34 -126 34q-34 0 -60 -17.5t-26 -46.5q0 -15 13 -23t55 -25z" />
<glyph unicode="T" horiz-adv-x="573" d="M630 634l-9 -57q-2 -14 -14 -24t-26 -10h-156l-90 -510q-2 -13 -13.5 -23t-25.5 -10h-90q-17 0 -28.5 11.5t-11.5 28.5q0 1 0.5 3.5t0.5 3.5l87 496h-142q-17 0 -28.5 11t-11.5 27q0 6 1 9l8 55q2 14 14 24.5t26 10.5h469q18 0 29.5 -11t11.5 -28q0 -1 -0.5 -3.5 t-0.5 -3.5z" />
<glyph unicode="U" horiz-adv-x="720" d="M714 634l-66 -382q-24 -124 -116 -192t-224 -68q-111 0 -180 60t-69 161q0 27 4 50q0 2 70 384q2 13 13.5 23t25.5 10h89q17 0 28.5 -11.5t11.5 -28.5q0 -1 -0.5 -3.5t-0.5 -3.5l-66 -384q-3 -15 -3 -28q0 -86 102 -86q55 0 94.5 36t50.5 93l69 383q2 13 13.5 23t25.5 10 h89q17 0 28.5 -11t11.5 -28q0 -1 -0.5 -3.5t-0.5 -3.5z" />
<glyph unicode="V" horiz-adv-x="719" d="M750 621l-337 -600q-5 -8 -16 -14.5t-19 -6.5h-111q-13 0 -24.5 9.5t-14.5 22.5l-125 600q-1 3 -1 9q0 17 11 28t29 11h83q19 0 34.5 -11.5t19.5 -31.5q63 -367 66 -432h9q58 131 228 453q4 8 15.5 15t20.5 7h97q18 0 29.5 -10.5t11.5 -26.5q0 -11 -6 -22z" />
<glyph unicode="W" horiz-adv-x="1053" d="M158 36l-61 600v4q0 17 11.5 28.5t28.5 11.5h80q20 0 34.5 -12.5t15.5 -33.5q19 -429 19 -443h7l203 465q4 9 15.5 16.5t21.5 7.5h104q21 0 35.5 -12t16.5 -33q37 -373 37 -444h7q176 441 184 463q4 10 15.5 18t22.5 8h98q18 0 29.5 -11t11.5 -27q0 -10 -4 -18l-269 -600 q-4 -9 -15.5 -16.5t-21.5 -7.5h-141q-16 0 -28.5 11.5t-14.5 30.5q-34 328 -37 389h-8l-180 -407q-4 -9 -15 -16.5t-21 -7.5h-141q-15 0 -27 10.5t-13 25.5z" />
<glyph unicode="X" horiz-adv-x="735" d="M489 350l166 -290q6 -10 6 -22q0 -16 -11.5 -27t-29.5 -11h-98q-38 0 -54 32q-76 140 -94 193h-8l-179 -211q-4 -4 -14.5 -9t-15.5 -5h-104q-18 0 -29.5 11t-11.5 27t12 29l259 283l-152 270q-6 10 -6 22q0 16 11.5 27t29.5 11h96q38 0 52 -29q69 -126 85 -173h9 q67 88 159 189q4 4 14 8.5t16 4.5h101q18 0 30 -11.5t12 -27.5q0 -15 -12 -28z" />
<glyph unicode="Y" horiz-adv-x="646" d="M415 269l-43 -236q-2 -13 -13.5 -23t-25.5 -10h-89q-17 0 -28.5 11t-11.5 27q0 6 1 9l39 220l-132 360q-3 8 -3 15q0 16 11.5 27t29.5 11h82q39 0 52 -34l61 -215h9l149 231q4 6 15 12t18 6h96q18 0 29.5 -11t11.5 -27q0 -13 -9 -25z" />
<glyph unicode="Z" horiz-adv-x="598" d="M7 47l3 27q4 28 21 49l351 416v8l-59 -4h-174q-17 0 -28.5 11t-11.5 27q0 6 1 9q3 15 8 55q2 14 14 24.5t26 10.5h418q17 0 28.5 -11t11.5 -28q0 -6 -1 -9l-7 -39q-6 -26 -19 -42l-302 -364l-43 -44v-6h251q17 0 28.5 -11.5t11.5 -28.5q0 -1 -0.5 -3t-0.5 -4l-8 -55 q-2 -14 -14 -24.5t-26 -10.5h-440q-18 0 -28.5 11.5t-10.5 29.5v6z" />
<glyph unicode="[" horiz-adv-x="274" d="M323 635l-3 -23q-2 -14 -14 -24t-26 -10h-43l-120 -682h28q17 0 29 -11.5t12 -27.5q0 -1 -0.5 -3.5t-0.5 -3.5l-4 -22q-2 -14 -14 -24t-26 -10h-113q-17 0 -28.5 11.5t-11.5 28.5q0 1 0.5 3.5t0.5 3.5l141 806q2 13 13.5 23t25.5 10h114q17 0 28.5 -11.5t11.5 -28.5v-5z " />
<glyph unicode="\" horiz-adv-x="396" d="M141 680h37q14 0 26 -10t14 -24l99 -673q0 -1 0.5 -3.5t0.5 -3.5q0 -16 -12 -27.5t-29 -11.5h-37q-14 0 -26 10t-14 24l-99 673q0 1 -0.5 3.5t-0.5 3.5q0 16 12 27.5t29 11.5z" />
<glyph unicode="]" horiz-adv-x="274" d="M86 625l3 21q2 14 14 24t26 10h114q17 0 28.5 -11.5t11.5 -28.5q0 -1 -0.5 -3.5t-0.5 -3.5l-141 -806q-2 -13 -13.5 -23t-25.5 -10h-113q-17 0 -29 11.5t-12 27.5q0 1 0.5 3.5t0.5 3.5l3 22q2 14 14 24t26 10h41l121 682h-29q-17 0 -28.5 11t-11.5 27q0 6 1 9z" />
<glyph unicode="^" horiz-adv-x="638" d="M388 657l195 -414q4 -8 4 -19q0 -16 -11 -27t-29 -11h-49q-10 0 -21.5 7.5t-15.5 16.5l-139 323h-7l-138 -323q-4 -9 -15.5 -16.5t-21.5 -7.5h-48q-18 0 -29 11t-11 27q0 11 4 19l194 414q4 9 15 16t21 7h66q10 0 21 -7.5t15 -15.5z" />
<glyph unicode="_" horiz-adv-x="605" d="M545 -101l-4 -26q-1 -15 -13 -25.5t-27 -10.5h-524q-17 0 -29 11t-12 27q0 1 0.5 3t0.5 3l5 29q1 15 13 25.5t27 10.5h524q17 0 28.5 -11.5t11.5 -28.5q0 -1 -0.5 -3.5t-0.5 -3.5z" />
<glyph unicode="`" horiz-adv-x="353" d="M214 680h16q9 0 19.5 -6.5t15.5 -14.5l46 -84q5 -9 5 -21q0 -16 -11 -27t-29 -11h-4q-7 0 -18 6t-15 12l-58 84q-8 13 -8 24q0 16 11.5 27t29.5 11z" />
<glyph unicode="a" d="M467 15l-47 -14q-3 -1 -10 -1q-31 0 -40 29q-4 13 -7 33h-6q-47 -70 -147 -70q-35 0 -66 9.5t-59 29.5t-44.5 57t-16.5 87q0 137 78 222t187 85q105 0 203 -39q25 -10 25 -38q0 -1 -0.5 -3t-0.5 -3q-30 -156 -30 -240q0 -53 9 -98q1 -3 1 -8q0 -29 -29 -38zM346 257 q8 42 8 81v15q-14 11 -55 11q-44 0 -75 -48t-31 -124q0 -82 62 -82q33 0 57.5 48.5t33.5 98.5z" />
<glyph unicode="b" d="M520 298q0 -137 -78 -221.5t-187 -84.5t-202 28q-28 8 -28 38v6l102 583q2 13 13.5 23t25.5 10h80q17 0 28.5 -11.5t11.5 -28.5q0 -1 -0.5 -3.5t-0.5 -3.5l-29 -167q39 16 80 16q34 0 64.5 -9.5t58.5 -29.5t44.5 -57.5t16.5 -87.5zM353 283q0 81 -63 81 q-33 0 -57.5 -49.5t-32.5 -98.5q-9 -52 -9 -78q0 -4 0.5 -10t0.5 -9q14 -9 55 -9q44 0 75 48.5t31 124.5z" />
<glyph unicode="c" horiz-adv-x="476" d="M368 133q8 3 16 3q15 0 26 -10t12 -26l4 -33q0 -13 -7.5 -25t-18.5 -17q-91 -33 -165 -33q-92 0 -151.5 44.5t-59.5 143.5q0 40 5 64q49 238 293 238q66 0 138 -29q26 -10 26 -38q0 -8 -3 -15l-19 -42q-11 -24 -36 -24q-5 0 -17 4q-59 26 -98 26q-54 0 -87.5 -50 t-33.5 -128q0 -40 18.5 -58t57.5 -18q41 0 100 23z" />
<glyph unicode="d" d="M466 14l-44 -12q-8 -2 -13 -2q-28 0 -37 26v1q0 1 -1 2q-5 13 -6 33h-7q-53 -70 -150 -70q-74 0 -129 44t-55 139q0 137 78 222t187 85q29 0 82 -6l31 171q2 13 13.5 23t25.5 10h78q17 0 28.5 -11.5t11.5 -28.5q0 -1 -0.5 -3.5t-0.5 -3.5l-60 -347q-12 -67 -12 -128 q0 -52 9 -97q1 -3 1 -8q0 -31 -30 -39zM345 257q8 42 8 81v15q-14 11 -55 11q-43 0 -74 -48t-31 -124q0 -82 62 -82q23 0 43.5 28t30.5 58.5t16 60.5z" />
<glyph unicode="e" horiz-adv-x="518" d="M428 109l9 -28q2 -8 2 -12q0 -28 -26 -38q-99 -39 -177 -39q-93 0 -152.5 41.5t-59.5 139.5q0 35 6 64q46 245 290 245q91 0 138 -39t47 -94q0 -75 -84 -117t-228 -42v-9q0 -71 70 -71q46 0 113 25q5 2 14 2q28 0 38 -28zM210 285q72 0 109 11.5t37 41.5t-52 30 q-33 0 -58.5 -21.5t-35.5 -61.5z" />
<glyph unicode="f" horiz-adv-x="350" d="M249 364l-59 -331q-2 -13 -13.5 -23t-25.5 -10h-79q-17 0 -28.5 11.5t-11.5 28.5q0 1 0.5 3.5t0.5 3.5l56 317h-7q-17 0 -28.5 11.5t-11.5 28.5v4l5 30q1 15 13 25.5t27 10.5h21l11 62q27 152 190 152q53 0 116 -15q31 -8 31 -38q0 -7 -3 -16l-17 -37q-10 -25 -37 -25 q-5 0 -8 1q-35 7 -59 7q-48 -3 -55 -40l-9 -51h65q17 0 28.5 -11.5t11.5 -28.5v-4l-5 -30q-1 -15 -13 -25.5t-27 -10.5h-79z" />
<glyph unicode="g" horiz-adv-x="544" d="M279 -32l9 55q-39 -16 -79 -16q-34 0 -65 9t-59 28.5t-44.5 55.5t-16.5 84q0 119 73 208.5t188 89.5q121 0 208 -42q22 -11 22 -37q0 -1 -0.5 -3t-0.5 -3l-75 -424q-14 -80 -79 -133t-167 -53q-52 0 -113 14q-31 7 -31 40q0 6 1 9l12 49q8 30 38 30q9 0 14 -2 q55 -19 87 -19q62 0 78 60zM355 353q-16 11 -57 11q-44 0 -75 -44.5t-31 -116.5q0 -78 60 -78q33 0 59.5 45.5t34.5 89.5q9 51 9 93z" />
<glyph unicode="h" horiz-adv-x="559" d="M284 634l-37 -211h4q62 59 132 59q76 0 107 -29.5t31 -82.5q0 -27 -6 -57l-49 -280q-2 -13 -13.5 -23t-25.5 -10h-80q-17 0 -28.5 11t-11.5 28q0 1 0.5 3.5t0.5 3.5l47 281q0 37 -37 37q-27 0 -60 -38.5t-46 -109.5l-32 -183q-2 -13 -13.5 -23t-25.5 -10h-80 q-17 0 -28.5 11t-11.5 28q0 1 0.5 3.5t0.5 3.5l104 601q2 13 13.5 23t25.5 10h80q17 0 28.5 -11t11.5 -28q0 -1 -0.5 -3.5t-0.5 -3.5z" />
<glyph unicode="i" horiz-adv-x="272" d="M141 0h-80q-17 0 -28.5 11t-11.5 28q0 1 0.5 3.5t0.5 3.5l69 395q2 13 13.5 23t25.5 10h80q17 0 28.5 -11t11.5 -28q0 -1 -0.5 -3.5t-0.5 -3.5l-69 -395q-2 -13 -13.5 -23t-25.5 -10zM282 623q0 -38 -27.5 -66.5t-67.5 -28.5q-33 0 -51.5 17t-18.5 45q0 41 28 67.5 t69 26.5q31 0 49.5 -16.5t18.5 -44.5z" />
<glyph unicode="j" horiz-adv-x="271" d="M170 -15l78 442q0 1 0.5 3.5t0.5 3.5q0 17 -11.5 28.5t-28.5 11.5h-80q-14 0 -25.5 -10t-13.5 -23l-82 -466q-8 -45 -68 -61q-12 -3 -21 -15t-9 -24l5 -46q2 -16 14 -26t27 -10q1 0 3.5 0.5t3.5 0.5q179 35 207 191zM282 623q0 -38 -27.5 -66.5t-67.5 -28.5 q-33 0 -51.5 17t-18.5 45q0 41 28 67.5t69 26.5q31 0 49.5 -16.5t18.5 -44.5z" />
<glyph unicode="k" horiz-adv-x="525" d="M213 226l-33 -192q-2 -14 -14 -24t-26 -10h-79q-17 0 -28.5 11.5t-11.5 28.5q0 1 0.5 3.5t0.5 3.5l105 600q2 13 13.5 23t25.5 10h80q17 0 28.5 -11.5t11.5 -28.5q0 -1 -0.5 -3.5t-0.5 -3.5l-56 -317h7q37 51 132 146q12 12 28 12h78q18 0 29.5 -11t11.5 -27 q0 -17 -13 -30l-153 -152l113 -194q6 -10 6 -22q0 -16 -11.5 -27t-29.5 -11h-74q-26 0 -37 22q-81 146 -96 204h-7z" />
<glyph unicode="l" horiz-adv-x="346" d="M299 88l5 -43q0 -15 -9 -27t-23 -15q-52 -11 -96 -11q-67 0 -103.5 29t-36.5 82q0 14 4 40l89 504q2 13 13.5 23t25.5 10h79q17 0 28.5 -11.5t11.5 -28.5q0 -1 -0.5 -3.5t-0.5 -3.5l-83 -467q-1 -3 -1 -12q0 -31 41 -31h16q14 0 26.5 -10.5t13.5 -24.5z" />
<glyph unicode="m" horiz-adv-x="816" d="M774 312l-49 -279q-2 -13 -13.5 -23t-25.5 -10h-76q-17 0 -28.5 11t-11.5 28q0 1 0.5 3.5t0.5 3.5l44 252q3 18 3 31q0 20 -8 27.5t-25 7.5q-25 0 -57.5 -39t-44.5 -110l-31 -182q-2 -13 -13.5 -23t-25.5 -10h-73q-17 0 -28.5 11t-11.5 28q0 1 0.5 3.5t0.5 3.5l46 282 q0 2 0.5 4.5t0.5 3.5q0 28 -35 28q-25 0 -57 -39t-44 -110l-31 -182q-2 -13 -13.5 -23t-25.5 -10h-80q-17 0 -28.5 11t-11.5 28q0 1 0.5 3.5t0.5 3.5l40 231q16 92 22 161q1 15 13 25.5t27 10.5h65q16 0 28 -12.5t12 -27.5q-2 -17 -4 -30h6q29 34 70 56t75 22q116 0 122 -76 h9q26 32 67 54t74 22q72 0 101.5 -29t29.5 -82q0 -29 -6 -59z" />
<glyph unicode="n" horiz-adv-x="559" d="M517 313l-49 -280q-2 -13 -13.5 -23t-25.5 -10h-80q-17 0 -28.5 11t-11.5 28q0 1 0.5 3.5t0.5 3.5l47 281v2q0 35 -37 35q-27 0 -61 -38.5t-47 -109.5l-32 -183q-2 -13 -13.5 -23t-25.5 -10h-80q-17 0 -28.5 11t-11.5 28q0 1 0.5 3.5t0.5 3.5l41 231q16 92 22 161 q1 15 13 25.5t27 10.5h65q16 0 28 -12t12 -25v-3q-2 -16 -4 -29h6q32 35 74.5 56t77.5 21q77 0 108 -29.5t31 -82.5q0 -27 -6 -57z" />
<glyph unicode="o" horiz-adv-x="560" d="M24 180q0 28 6 64q43 238 291 238q92 0 152 -45t60 -143q0 -28 -6 -64q-42 -238 -292 -238q-91 0 -151 44.5t-60 143.5zM367 290q0 74 -66 74q-46 0 -77.5 -50.5t-31.5 -130.5q0 -39 15.5 -56t48.5 -17q47 0 79 49.5t32 130.5z" />
<glyph unicode="p" horiz-adv-x="554" d="M254 110q44 0 75 48.5t31 125.5q0 80 -63 80q-23 0 -43 -28t-30.5 -59t-15.5 -60q-8 -49 -8 -81v-15q14 -11 54 -11zM70 277q16 92 22 161q1 15 13 25.5t27 10.5h65q18 0 28.5 -10.5t10.5 -29.5l8 1q59 47 119 47q28 0 55 -9.5t52.5 -29t41 -57t15.5 -86.5 q0 -137 -78 -222.5t-186 -85.5q-44 0 -83 6l-30 -171q-2 -13 -13.5 -23t-25.5 -10h-80q-17 0 -28.5 11t-11.5 28q0 1 0.5 3.5t0.5 3.5z" />
<glyph unicode="q" d="M24 175q0 137 78 222t186 85q106 0 203 -27q29 -9 29 -40v-6l-90 -506h59q17 0 28.5 -11t11.5 -28v-5l-5 -29q-1 -15 -13 -25.5t-27 -10.5h-185q-17 0 -28.5 11.5t-11.5 28.5q0 1 0.5 3.5t0.5 3.5l30 167h-5q-36 -16 -77 -16q-34 0 -65 9.5t-58.5 29.5t-44 57t-16.5 87z M192 192q0 -82 62 -82q23 0 43.5 28t30.5 59t16 61q8 47 8 82v15q-20 9 -55 9q-44 0 -74.5 -48t-30.5 -124z" />
<glyph unicode="r" horiz-adv-x="393" d="M330 335q-36 0 -70 -24t-41 -64l-39 -214q-2 -13 -13.5 -23t-25.5 -10h-80q-17 0 -28.5 11t-11.5 28q0 1 0.5 3.5t0.5 3.5l41 231q15 83 21 153q2 20 15 32t28 12h53q16 0 29 -12.5t13 -31.5q-2 -37 -4 -37h8q31 40 75.5 65t82.5 25h17q10 -1 16 -9t6 -19q0 -6 -1 -9 l-23 -87q-3 -11 -13.5 -18.5t-21.5 -7.5q-5 0 -8 1t-26 1z" />
<glyph unicode="s" horiz-adv-x="431" d="M402 409l-18 -38q-8 -27 -37 -27q-8 0 -15 3q-44 17 -79 17q-21 0 -34 -10.5t-13 -23.5q0 -12 47 -30q63 -24 98 -53t35 -77q0 -86 -69.5 -132t-161.5 -46q-61 0 -133 17q-31 7 -31 37q0 7 3 16l20 46q10 25 38 25q4 0 12 -2q61 -21 106 -21q19 0 33 10.5t14 25.5 q0 12 -15 21.5t-48 23.5q-26 11 -41 19t-35 22.5t-30 33.5t-10 43q0 84 67.5 128.5t154.5 44.5q55 0 116 -18q13 -4 21.5 -14.5t8.5 -23.5q0 -5 -4 -17z" />
<glyph unicode="t" horiz-adv-x="419" d="M258 364l-37 -210v-4q0 -27 45 -27q22 0 49 6q3 1 10 1q15 0 26 -9.5t13 -25.5l5 -44q0 -15 -9 -27t-23 -15q-74 -17 -144 -17q-65 0 -101.5 29.5t-36.5 81.5q0 23 4 40l39 221h-7q-17 0 -28.5 11.5t-11.5 28.5v4l5 30q1 15 13 25.5t27 10.5h20q4 28 12 63q2 8 10 17.5 t15 11.5l86 34q5 2 14 2q17 0 28 -11.5t11 -28.5q0 -1 -0.5 -3t-0.5 -4l-15 -81h66q17 0 28.5 -11.5t11.5 -28.5v-4l-5 -30q-1 -15 -13 -25.5t-27 -10.5h-79z" />
<glyph unicode="u" horiz-adv-x="559" d="M42 161l48 280q2 13 13.5 23t25.5 10h80q17 0 28.5 -11t11.5 -28q0 -1 -0.5 -3.5t-0.5 -3.5l-46 -281v-4q0 -33 37 -33q27 0 61.5 38.5t46.5 109.5l31 183q2 13 13.5 23t25.5 10h80q17 0 28.5 -11t11.5 -28q0 -1 -0.5 -3.5t-0.5 -3.5l-40 -231q-16 -92 -22 -161 q-1 -15 -13 -25.5t-27 -10.5h-65q-16 0 -28 12.5t-12 27.5q2 16 4 29h-6q-32 -35 -74.5 -56t-77.5 -21q-77 0 -108 29.5t-31 82.5q0 27 6 57z" />
<glyph unicode="v" horiz-adv-x="488" d="M103 32l-72 395q-1 3 -1 9q0 16 11.5 27t28.5 11h75q18 0 31.5 -12t15.5 -31q21 -234 22 -262h9q31 82 125 282q4 9 15 16t21 7h74q18 0 29 -11t11 -27q0 -12 -5 -21l-211 -394q-5 -8 -15.5 -14.5t-19.5 -6.5h-105q-13 0 -25 9.5t-14 22.5z" />
<glyph unicode="w" horiz-adv-x="757" d="M761 418l-175 -394q-4 -9 -15.5 -16.5t-21.5 -7.5h-108q-15 0 -27.5 11.5t-13.5 28.5q-17 212 -17 270h-8l-63 -153t-54 -131q-4 -10 -15.5 -18t-21.5 -8h-110q-15 0 -26.5 11t-13.5 26l-35 394v4q0 17 11.5 28t28.5 11h81q16 0 27 -10t11 -26q-4 -278 -4 -281h9 q49 130 121 293q4 9 15.5 16.5t21.5 7.5h89q15 0 27 -11t13 -26q16 -231 16 -280h9q8 29 32 101l46 131l20 58q4 11 15.5 19t22.5 8h76q18 0 29.5 -11t11.5 -27q0 -10 -4 -18z" />
<glyph unicode="x" horiz-adv-x="503" d="M-18 58l173 192l-97 167q-4 8 -4 19q0 16 11 27t29 11h99q10 0 21.5 -7.5t15.5 -16.5l34 -99h8l77 108q4 5 14.5 10t16.5 5h82q18 0 29.5 -11t11.5 -27t-12 -29l-145 -158l107 -189q6 -10 6 -22q0 -16 -11.5 -27t-29.5 -11h-98q-9 0 -19 7t-15 15l-51 120h-8l-97 -128 q-12 -14 -30 -14h-81q-18 0 -30.5 13t-12.5 28q0 9 6 17z" />
<glyph unicode="y" horiz-adv-x="487" d="M-45 -166l-5 44q0 13 9 24t20 14q88 25 123 86l14 26l-89 397q-1 3 -1 10q0 17 11.5 28t28.5 11h86q15 0 26.5 -10.5t13.5 -24.5q24 -211 24 -254h7q17 53 116 266q4 9 15 16t21 7h81q18 0 29.5 -11t11.5 -27q0 -12 -6 -22l-262 -448q-45 -76 -94 -109t-128 -57 q-10 -2 -13 -2q-15 0 -26.5 10t-12.5 26z" />
<glyph unicode="z" horiz-adv-x="467" d="M65 398l7 43q2 13 13.5 23t25.5 10h315q17 0 29 -10.5t12 -26.5q0 -1 -0.5 -3.5t-0.5 -3.5l-5 -36q-4 -21 -18 -36l-216 -243h141q17 0 28.5 -11t11.5 -27q0 -6 -1 -9l-6 -35q-2 -13 -13.5 -23t-25.5 -10h-325q-17 0 -29 11.5t-12 27.5q0 1 0.5 2.5t1 6t1.5 9.5 q3 18 19 35l239 266h-152q-15 0 -27.5 10.5t-12.5 24.5v5z" />
<glyph unicode="{" horiz-adv-x="286" d="M241 401q-16 -109 -89 -163q23 -23 30 -45t7 -55q0 -31 -15 -95t-15 -90q0 -31 18 -43q18 -11 18 -36q0 -5 -2 -11l-14 -36q-10 -27 -38 -27q-7 0 -10 1q-90 24 -90 123q0 37 16.5 109.5t16.5 89.5q0 48 -32 61q-10 4 -17.5 15t-7.5 22l7 39q1 9 11 19t19 12 q17 4 29.5 14.5t19.5 20.5t12.5 32.5t7.5 34t6 42.5l9 66q18 137 136 172q8 2 13 2q16 0 27 -11.5t11 -28.5v-27q0 -11 -8 -22t-19 -16q-18 -7 -32.5 -33.5t-16.5 -54.5q-3 -54 -8 -81z" />
<glyph unicode="|" horiz-adv-x="277" d="M76 -167v807q0 16 12 28t28 12h45q17 0 28.5 -12t11.5 -28v-807q0 -17 -11.5 -28.5t-28.5 -11.5h-45q-16 0 -28 11.5t-12 28.5z" />
<glyph unicode="}" horiz-adv-x="286" d="M45 74q16 109 89 163q-23 23 -30 45t-7 55q0 31 15 95t15 90q0 31 -18 43q-18 11 -18 36q0 5 2 11l14 36q10 27 38 27q7 0 10 -1q90 -24 90 -123q0 -37 -16.5 -109.5t-16.5 -89.5q0 -48 32 -61q10 -4 17.5 -15t7.5 -22l-7 -39q-1 -9 -11 -19t-19 -12q-17 -4 -29.5 -14.5 t-19.5 -20.5t-12.5 -32.5t-7.5 -34t-6 -42.5l-9 -66q-18 -137 -136 -172q-8 -2 -13 -2q-16 0 -27 11.5t-11 28.5v27q0 11 8 22t19 16q18 7 32.5 33.5t16.5 54.5q3 54 8 81z" />
<glyph unicode="~" horiz-adv-x="584" d="M103 207h-38q-17 0 -28.5 11.5t-11.5 27.5v5q16 158 143 158q37 0 66.5 -10.5t77.5 -39.5q75 -47 91 -47q28 0 36 49q2 14 14 24.5t26 10.5h39q17 0 28.5 -11.5t11.5 -27.5v-5q-16 -158 -143 -158q-37 0 -66.5 10t-77.5 40q-75 47 -91 47t-25 -10t-12 -38 q-2 -14 -13.5 -25t-26.5 -11z" />
<glyph unicode="&#xa1;" horiz-adv-x="239" d="M161 482q37 0 58.5 -19.5t21.5 -52.5q0 -49 -31.5 -80t-78.5 -31q-37 0 -57.5 19.5t-20.5 53.5q0 50 31 80t77 30zM-31 -156l94 368q3 12 14.5 21t24.5 9h25q17 0 28.5 -11.5t11.5 -28.5v-4l-37 -368q-1 -15 -13 -25.5t-27 -10.5h-82q-18 0 -29.5 10.5t-11.5 27.5 q0 4 2 12z" />
<glyph unicode="&#xa2;" horiz-adv-x="499" d="M317 99l-10 -65q-2 -14 -14 -24t-26 -10h-55q-17 0 -28.5 11t-11.5 28q0 1 0.5 3.5t0.5 3.5l9 56q-136 29 -136 173q0 125 59 202.5t161 99.5l11 68q2 14 14 24t26 10h55q17 0 28.5 -11.5t11.5 -28.5q0 -1 -0.5 -3.5t-0.5 -3.5l-8 -53q39 -7 78 -22q26 -10 26 -37 q0 -10 -4 -18l-18 -39q-11 -23 -36 -23q-8 0 -15 3q-58 24 -100 24q-53 0 -87 -45.5t-34 -124.5q0 -84 76 -84q46 0 102 20q7 3 14 3q15 0 26.5 -10.5t12.5 -26.5l3 -29v-4q0 -26 -25 -37q-46 -18 -105 -30z" />
<glyph unicode="&#xa3;" horiz-adv-x="594" d="M497 350l-5 -33q-9 -36 -40 -36h-159l-51 -148h233q17 0 28.5 -11t11.5 -27q0 -6 -1 -9l-9 -53q-2 -13 -13.5 -23t-25.5 -10h-416q-17 0 -28.5 11t-11.5 27q0 6 1 9l9 53q2 13 13.5 23t25.5 10h15l50 148h-26q-17 0 -28.5 11.5t-11.5 28.5q0 1 0.5 3.5t0.5 3.5l7 38 q2 13 13.5 23t25.5 10h59l31 96q30 94 108.5 143.5t174.5 49.5q51 0 107 -17q12 -4 19.5 -15t7.5 -24v-6l-10 -54q-7 -32 -38 -32q-9 0 -14 2q-37 12 -72 12q-32 0 -68 -18t-45 -43l-32 -94h125q18 0 29 -11.5t11 -29.5q0 -2 -0.5 -4t-0.5 -4z" />
<glyph unicode="&#xa4;" horiz-adv-x="592" d="M497 167l20 -21q12 -12 12 -28t-12 -28l-29 -29q-12 -12 -28 -12t-28 12l-20 21q-53 -31 -115 -31q-63 0 -116 31l-21 -21q-12 -12 -28 -12t-28 12l-29 29q-12 12 -12 28t12 28l22 22q-30 52 -30 113q0 62 31 115l-23 22q-12 12 -12 28t12 28l29 29q12 12 28 12t28 -12 l23 -22q54 30 114 30q61 0 113 -30l22 22q12 12 28 12t28 -12l29 -29q12 -12 12 -28t-12 -28l-21 -21q31 -53 31 -116q0 -60 -30 -114zM183 281q0 -47 33.5 -80.5t80.5 -33.5t80.5 33.5t33.5 80.5t-33.5 80.5t-80.5 33.5t-80.5 -33.5t-33.5 -80.5z" />
<glyph unicode="&#xa5;" horiz-adv-x="761" d="M688 680q18 0 29.5 -11t11.5 -27q0 -13 -9 -25l-116 -162h56q13 0 21 -8.5t8 -21.5v-5l-3 -14q-2 -14 -14.5 -24t-26.5 -10h-100l-46 -64h135q13 0 21.5 -8t8.5 -20q0 -1 -0.5 -3.5t-0.5 -3.5l-2 -14q-3 -14 -15 -24t-27 -10h-156l-35 -192q-2 -13 -13.5 -23t-25.5 -10 h-89q-17 0 -28.5 11t-11.5 27q0 6 1 9l31 178h-157q-13 0 -21 7.5t-8 19.5q0 1 0.5 3.5t0.5 3.5l2 14q3 14 15 24.5t26 10.5h135l-24 64h-100q-13 0 -21 8.5t-8 20.5v5l3 14q2 14 14.5 24.5t26.5 10.5h55l-63 172q-3 8 -3 15q0 16 11.5 27t29.5 11h82q40 0 51 -34 q57 -170 62 -215h9q22 38 144 223q1 1 2.5 4t2.5 4q4 6 15 12t18 6h96z" />
<glyph unicode="&#xa6;" horiz-adv-x="208" d="M41 353v287q0 16 11.5 28t28.5 12h45q16 0 28 -12t12 -28v-287q0 -17 -12 -28.5t-28 -11.5h-45q-17 0 -28.5 11.5t-11.5 28.5zM41 -166v287q0 17 11.5 28.5t28.5 11.5h45q16 0 28 -11.5t12 -28.5v-287q0 -16 -12 -28t-28 -12h-45q-17 0 -28.5 12t-11.5 28z" />
<glyph unicode="&#xa7;" horiz-adv-x="439" d="M440 620l-21 -50q-10 -22 -37 -22q-4 0 -12 2q-42 14 -74 14q-22 0 -43 -14.5t-21 -36.5q0 -16 19.5 -31.5t56.5 -36.5l51 -32q68 -51 68 -117q0 -79 -68 -149q8 -30 8 -49q0 -89 -72 -151t-164 -62q-63 0 -115 22q-24 10 -24 37q0 9 2 14l22 52q11 22 36 22q8 0 16 -3 q50 -22 87 -22q29 0 51 19t22 51q0 18 -19.5 33t-59.5 35q-51 25 -85 64.5t-34 89.5q0 36 20.5 76.5t51.5 70.5q-8 30 -8 49q0 78 69.5 135.5t154.5 57.5q50 0 96 -13q31 -8 31 -36q0 -9 -5 -19zM162 321q0 -30 69 -69l18 -10q10 -4 29 -15q16 25 16 45q0 7 -2 13.5t-8 13 t-12 11.5t-17 12t-20 12l-25 14l-28 16q-20 -26 -20 -43z" />
<glyph unicode="&#xa8;" horiz-adv-x="351" d="M266 598q4 25 25.5 43t46.5 18q22 0 36 -14t14 -36q0 -27 -22 -49.5t-52 -22.5q-22 0 -35.5 14t-13.5 35q0 8 1 12zM89 598q4 25 25 43t46 18q22 0 36 -14t14 -36q0 -29 -22.5 -50.5t-50.5 -21.5q-22 0 -35.5 14t-13.5 35q0 8 1 12z" />
<glyph unicode="&#xa9;" horiz-adv-x="762" d="M289 341q0 -58 26 -90t73 -32q40 0 80 16q4 2 11 2q22 0 29 -23l3 -12q1 -2 1 -7q0 -21 -20 -28q-64 -22 -109 -22q-84 0 -138.5 48t-54.5 148t54.5 148t138.5 48q45 0 109 -22q20 -7 20 -28q0 -5 -1 -7l-3 -12q-7 -23 -29 -23q-7 0 -11 2q-40 16 -80 16q-47 0 -73 -32 t-26 -90zM729 341q0 -144 -102 -246t-246 -102t-246 102t-102 246t102 246t246 102t246 -102t102 -246zM653 341q0 113 -79.5 192.5t-192.5 79.5t-192.5 -79.5t-79.5 -192.5t79.5 -192.5t192.5 -79.5t192.5 79.5t79.5 192.5z" />
<glyph unicode="&#xaa;" horiz-adv-x="369" d="M338 369q0 -18 10 -24q12 -7 12 -23q0 -3 -2 -9l-14 -29q-8 -16 -22 -16q-30 3 -45.5 10.5t-24.5 26.5h-5q-16 -17 -41 -27t-46 -10q-54 0 -84.5 30t-30.5 87q0 91 51 146t123 55q35 0 68 -26q5 21 25 21h30q12 0 20 -8t8 -19q0 -1 -0.5 -3t-0.5 -3l-30 -172 q0 -2 -0.5 -4t-0.5 -3zM234 365l23 130q-18 14 -33 14q-30 0 -50.5 -31t-20.5 -80q0 -54 42 -54q20 0 39 21z" />
<glyph unicode="&#xab;" horiz-adv-x="681" d="M250 0h-86q-11 0 -22 7.5t-15 17.5l-78 191q-2 6 -2 13q0 18 7 26l154 203q4 5 14.5 10.5t17.5 5.5h72q18 0 29.5 -11t11.5 -27q0 -14 -9 -26l-130 -173l73 -182q3 -9 3 -17q0 -16 -11 -27t-29 -11zM537 0h-86q-10 0 -21.5 8t-15.5 18l-14.5 37l-26 63.5l-37.5 90.5 q-2 6 -2 12q0 17 7 26l153 203q4 5 14.5 10.5t17.5 5.5h73q18 0 29.5 -11t11.5 -27q0 -14 -9 -26l-130 -173l73 -182q3 -9 3 -17q0 -16 -11 -27t-29 -11z" />
<glyph unicode="&#xac;" horiz-adv-x="594" d="M100 396h393q17 0 28.5 -12t11.5 -28v-178q0 -16 -11.5 -28t-28.5 -12h-40q-17 0 -28.5 12t-11.5 28v98h-313q-16 0 -28 12t-12 28v40q0 16 12 28t28 12z" />
<glyph unicode="&#xad;" horiz-adv-x="406" d="M366 262l-9 -53q-2 -13 -13.5 -23t-25.5 -10h-239q-17 0 -28.5 11t-11.5 27q0 6 1 9l10 53q2 13 13.5 23t25.5 10h238q17 0 28.5 -11.5t11.5 -28.5q0 -1 -0.5 -3.5t-0.5 -3.5z" />
<glyph unicode="&#xae;" horiz-adv-x="510" d="M477 466q0 -92 -65 -157t-157 -65q-91 0 -156.5 65t-65.5 157t65 157t157 65t157 -65t65 -157zM425 466q0 70 -49.5 120t-120.5 50q-70 0 -120 -50t-50 -120t50 -120t120 -50q71 0 120.5 50t49.5 120zM298 454v-4q19 -11 42 -70l6 -15q2 -8 2 -11q0 -17 -20 -17h-19 q-15 0 -20 20l-7 20q-21 60 -42 60h-17v-73q0 -27 -25 -27q-28 0 -28 27v195q0 15 9 25t19 10q12 1 45 1q50 0 74 -21.5t24 -55.5q0 -20 -13 -38t-30 -26zM288 515q0 36 -41 36q-20 0 -24 -1v-71h21q44 0 44 36z" />
<glyph unicode="&#xaf;" horiz-adv-x="351" d="M148 646h183q17 0 28.5 -12t11.5 -28v-4q0 -16 -11.5 -28t-28.5 -12h-183q-16 0 -28 12t-12 28v4q0 16 12 28t28 12z" />
<glyph unicode="&#xb0;" horiz-adv-x="364" d="M260 688q52 0 85 -34.5t33 -87.5q0 -70 -53 -123t-118 -53q-51 0 -84 34.5t-33 86.5q0 70 52.5 123.5t117.5 53.5zM221 468q31 0 56.5 25t25.5 57q0 26 -16 43t-41 17q-31 0 -55.5 -25.5t-24.5 -58.5q0 -25 15.5 -41.5t39.5 -16.5z" />
<glyph unicode="&#xb1;" horiz-adv-x="594" d="M534 327v-40q0 -17 -12 -28.5t-28 -11.5h-137v-67q0 -16 -11.5 -28t-28.5 -12h-40q-17 0 -28.5 12t-11.5 28v67h-137q-16 0 -28 11.5t-12 28.5v40q0 17 12 28.5t28 11.5h137v67q0 16 11.5 28t28.5 12h40q17 0 28.5 -12t11.5 -28v-67h137q16 0 28 -11.5t12 -28.5zM100 120 h394q16 0 28 -12t12 -28v-40q0 -16 -12 -28t-28 -12h-394q-16 0 -28 12t-12 28v40q0 16 12 28t28 12z" />
<glyph unicode="&#xb2;" horiz-adv-x="336" d="M283 756q1 3 1 9q0 28 -26 28q-25 0 -62 -20q-10 -6 -20 -6q-11 0 -18.5 8.5t-7.5 22.5l-1 21l1 4q4 24 24 32q61 29 105 29q52 0 84 -28t32 -74q0 -7 -2 -23q-10 -62 -128 -183l-21 -22h80q12 0 19.5 -8.5t7.5 -20.5v-6l-3 -14q-2 -14 -13.5 -24.5t-25.5 -10.5h-200 q-12 0 -20 8t-8 20q0 1 0.5 3.5t0.5 3.5l1 10q2 13 15 26l106 104q71 69 79 111z" />
<glyph unicode="&#xb3;" horiz-adv-x="394" d="M282 605v4q0 9 -8 14.5t-18 8.5t-18 10.5t-8 19.5q0 1 0.5 3t0.5 3l4 27q3 21 35 36.5t32 39.5q0 23 -20 23q-25 0 -56 -14q-10 -4 -16 -4q-11 0 -18.5 8t-7.5 21l-2 23q5 30 47 43.5t76 13.5q50 0 80 -26t30 -69q0 -62 -50 -99l-1 -6q30 -19 30 -65q0 -68 -50 -111 t-117 -43q-31 0 -68.5 14.5t-37.5 42.5v5l9 22q12 30 38 30q3 0 9 -2.5t7 -2.5q29 -17 42 -17q21 0 36.5 12.5t19.5 34.5z" />
<glyph unicode="&#xb4;" horiz-adv-x="353" d="M269 680h41q12 0 19 -7.5t7 -17.5v-4q-4 -14 -13 -22l-116 -104q-9 -9 -23 -9h-21q-12 0 -19 7t-7 17v5q2 11 10 19l96 104q10 12 26 12z" />
<glyph unicode="&#xb5;" horiz-adv-x="525" d="M475 474q17 0 28.5 -11t11.5 -28q0 -1 -0.5 -3.5t-0.5 -3.5l-69 -395q-2 -13 -13.5 -23t-25.5 -10h-58q-16 0 -28 12t-12 28v6h-10q-27 -24 -68.5 -39t-73.5 -15q-10 0 -16 1l-6 -49q-1 -10 -7 -52.5t-8 -62.5q-2 -14 -13.5 -24.5t-26.5 -10.5h-76q-17 0 -28.5 11.5 t-11.5 28.5q0 1 0.5 3.5t0.5 3.5l105 600q2 13 13.5 23t25.5 10h80q17 0 28.5 -11.5t11.5 -28.5q0 -1 -0.5 -3.5t-0.5 -3.5l-47 -262q-1 -4 -1 -13q0 -42 50 -42q38 0 75 37l26 147l26 147q2 13 13.5 23t25.5 10h80z" />
<glyph unicode="&#xb6;" horiz-adv-x="541" d="M301 680h236q17 0 28.5 -11.5t11.5 -28.5q0 -1 -0.5 -3.5t-0.5 -3.5l-126 -710q-2 -13 -13.5 -23t-25.5 -10h-32q-17 0 -28.5 11.5t-11.5 28.5q0 1 0.5 3.5t0.5 3.5l113 636h-57l-115 -650q-2 -13 -13.5 -23t-25.5 -10h-33q-17 0 -28.5 11.5t-11.5 28.5q0 1 0.5 3.5 t0.5 3.5l65 363q-68 0 -108.5 47.5t-40.5 108.5q0 89 65.5 156.5t149.5 67.5z" />
<glyph unicode="&#xb7;" horiz-adv-x="320" d="M272 360q0 -45 -31.5 -78.5t-79.5 -33.5q-37 0 -58.5 19.5t-21.5 53.5q0 48 32.5 79t79.5 31q37 0 58 -19.5t21 -51.5z" />
<glyph unicode="&#xb8;" horiz-adv-x="355" d="M7 -174l6 11q10 17 29 17q30 -5 42 -5q30 0 35 16q0 11 -31.5 16t-31.5 18v3q0 2 6 11.5t13 19.5q7 9 14 19l7 10q1 1 2.5 3t2.5 2.5t3 2t4 1.5t5.5 1t8.5 1.5t11.5 0.5h15.5q7 0 12.5 -6t5.5 -13q0 -4 -2 -6l-11 -15q53 -16 53 -55q0 -43 -40 -68t-101 -25q-62 0 -62 28 v4q0 2 1.5 4.5t1.5 3.5z" />
<glyph unicode="&#xb9;" horiz-adv-x="352" d="M347 842l-51 -291h44q12 0 20 -8t8 -20q0 -1 -0.5 -3.5t-0.5 -3.5l-2 -14q-2 -14 -13.5 -24.5t-25.5 -10.5h-200q-12 0 -19.5 8.5t-7.5 20.5v6l2 14q3 14 15 24.5t25 10.5h44l39 218l-43 -28q-11 -7 -22 -7q-24 0 -26 27v17q0 20 20 33l87 54q17 12 37 12h43 q12 0 19.5 -8.5t7.5 -20.5v-6z" />
<glyph unicode="&#xba;" horiz-adv-x="358" d="M197 341q30 0 50.5 30t20.5 83q0 52 -42 52q-31 0 -52 -30t-21 -81q0 -54 44 -54zM183 265q-138 0 -138 117q0 57 18 98.5t48.5 62.5t62 30.5t65.5 9.5q60 0 99 -27t39 -91q0 -57 -18 -98.5t-48.5 -62.5t-62 -30t-65.5 -9z" />
<glyph unicode="&#xbb;" horiz-adv-x="665" d="M432 0h-73q-18 0 -29.5 11t-11.5 27q0 14 9 26l130 173l-73 182q-3 9 -3 17q0 16 11 27t29 11h86q10 0 21.5 -8t15.5 -18q14 -38 40 -98.5t38 -92.5q2 -6 2 -12q0 -17 -7 -26l-153 -203q-4 -5 -14.5 -10.5t-17.5 -5.5zM144 0h-72q-18 0 -29.5 11t-11.5 27q0 14 9 26 l130 173l-73 182q-3 9 -3 17q0 16 11 27t29 11h85q10 0 21.5 -8t15.5 -18q14 -38 40 -98.5t38 -92.5q2 -6 2 -12q0 -17 -7 -26l-153 -203q-4 -5 -14.5 -10.5t-17.5 -5.5z" />
<glyph unicode="&#xbc;" horiz-adv-x="857" d="M312 645l-51 -291h45q12 0 19.5 -8.5t7.5 -20.5v-6l-3 -14q-2 -14 -13.5 -24.5t-25.5 -10.5h-200q-12 0 -19.5 8.5t-7.5 20.5v6l3 14q2 14 13.5 24.5t25.5 10.5h45l38 218l-43 -28q-10 -7 -22 -7q-11 0 -18 7.5t-7 19.5l-1 19q4 21 21 31l87 54q17 12 37 12h42 q12 0 20 -8t8 -20q0 -1 -0.5 -3.5t-0.5 -3.5zM756 627l-460 -610q-13 -17 -32 -17h-25q-13 0 -21 8t-8 20v5q2 10 9 20l460 610q15 17 32 17h26q12 0 20 -8t8 -20v-5q-2 -10 -9 -20zM522 186l172 208q13 15 30 15h55q12 0 19.5 -8.5t7.5 -20.5v-6l-36 -204h8q12 0 19.5 -8.5 t7.5 -20.5v-6l-3 -14q-2 -14 -13.5 -24.5t-25.5 -10.5h-8l-9 -51q-2 -14 -13.5 -24.5t-25.5 -10.5h-42q-12 0 -19.5 8.5t-7.5 20.5v6l9 51h-121q-12 0 -19.5 8.5t-7.5 20.5v6l6 30q3 15 17 35zM677 253h-5l-65 -84q31 1 37 1h18l10 58q0 3 2 11.5t3 13.5z" />
<glyph unicode="&#xbd;" horiz-adv-x="896" d="M312 645l-51 -291h45q12 0 19.5 -8.5t7.5 -20.5v-6l-3 -14q-2 -14 -13.5 -24.5t-25.5 -10.5h-200q-12 0 -19.5 8.5t-7.5 20.5v6l3 14q2 14 13.5 24.5t25.5 10.5h45l38 218l-43 -28q-10 -7 -22 -7q-24 0 -26 27v19q4 21 21 31l86 54q17 12 37 12h43q12 0 20 -8t8 -20 q0 -1 -0.5 -3.5t-0.5 -3.5zM753 627l-460 -610q-15 -17 -32 -17h-26q-12 0 -20 8t-8 20v5q2 10 9 20l460 610q13 17 32 17h25q13 0 21 -8t8 -20v-5q-2 -10 -9 -20zM760 286q1 3 1 9q0 28 -26 28q-25 0 -61 -20q-12 -6 -20 -6q-11 0 -18.5 8t-7.5 21l-1 23v4q4 23 24 32 q61 29 106 29q52 0 84 -28t32 -74q0 -7 -2 -23q-12 -63 -129 -183l-21 -22h80q12 0 20 -8t8 -20q0 -1 -0.5 -3.5t-0.5 -3.5l-2 -14q-2 -14 -14 -24.5t-26 -10.5h-200q-12 0 -19.5 8.5t-7.5 20.5v6l2 10q2 13 15 26q88 89 105 104q71 69 79 111z" />
<glyph unicode="&#xbe;" horiz-adv-x="789" d="M215 408v4q0 19 -30 25q-22 5 -22 28q0 1 0.5 3t0.5 3l5 27q1 11 10.5 21t20.5 13q29 7 35 33q0 2 0.5 4.5t0.5 3.5q0 24 -20 24q-26 0 -57 -14q-10 -4 -16 -4q-24 0 -26 29l-2 23q4 23 25 33q52 24 98 24q50 0 80.5 -27t30.5 -70q0 -7 -2 -21q-8 -47 -49 -76l-1 -6 q30 -19 30 -65q0 -7 -2 -23q-10 -60 -56.5 -95.5t-107.5 -35.5q-48 0 -94 29q-13 6 -13 27q0 1 0.5 3t0.5 3v4l8 18q4 13 15 21.5t23 8.5q9 0 14 -4q5 0 20 -9t24 -9q21 0 36.5 12.5t19.5 34.5zM686 627l-460 -610q-4 -6 -14.5 -11.5t-16.5 -5.5h-26q-13 0 -20.5 7.5 t-7.5 19.5v6q2 10 9 20l460 610q13 17 32 17h25q13 0 21 -8t8 -20v-5q-1 -8 -10 -20zM454 186l171 208q13 15 31 15h55q12 0 19.5 -8.5t7.5 -20.5v-6l-36 -204h7q12 0 20 -8t8 -20q0 -1 -0.5 -3.5t-0.5 -3.5l-2 -14q-2 -14 -14 -24.5t-26 -10.5h-7l-9 -51q-2 -14 -14 -24.5 t-26 -10.5h-41q-12 0 -20 8t-8 20q0 1 0.5 3.5t0.5 3.5l9 51h-121q-12 0 -19.5 8.5t-7.5 20.5v6l5 30q3 16 18 35zM609 253h-6l-64 -84q31 1 36 1h18z" />
<glyph unicode="&#xbf;" horiz-adv-x="552" d="M369 482q36 0 57 -19.5t21 -52.5q0 -49 -31.5 -80t-78.5 -31q-37 0 -57.5 19.5t-20.5 53.5q0 50 31.5 79.5t78.5 30.5zM399 -127l2 -27q0 -11 -8 -22.5t-19 -15.5q-64 -22 -137 -22q-93 0 -137 36.5t-44 92.5q0 32 10 60.5t31.5 55.5t38 43.5t46.5 43.5q73 65 88 100 q4 9 15.5 16.5t21.5 7.5h29q17 0 28.5 -11t11.5 -28q0 -6 -1 -10q-16 -65 -71 -120q-77 -75 -77 -121q0 -48 68 -48q31 0 51 7q8 3 15 3q16 0 27 -11.5t11 -29.5z" />
<glyph unicode="&#xc0;" horiz-adv-x="700" d="M637 47l-116 601q-2 13 -13.5 22.5t-25.5 9.5h-119q-9 0 -19.5 -6.5t-15.5 -14.5l-326 -600q-6 -10 -6 -21q0 -16 11.5 -27t29.5 -11h92q10 0 21.5 7.5t15.5 16.5l53 113h232l12 -101q1 -14 13.5 -25t26.5 -11h95q17 0 28.5 11t11.5 27q0 6 -1 9zM433 267h-150 q105 222 115 256h9q0 -16 6 -79.5t12.5 -120t7.5 -56.5zM398 891h16q9 0 19.5 -6.5t15.5 -14.5l46 -84q5 -9 5 -21q0 -16 -11 -27t-29 -11h-4q-7 0 -18 6t-15 12l-58 84q-8 13 -8 24q0 16 11.5 27t29.5 11z" />
<glyph unicode="&#xc1;" horiz-adv-x="700" d="M521 648l116 -601q1 -3 1 -9q0 -16 -11.5 -27t-28.5 -11h-95q-14 0 -26.5 11t-13.5 25l-12 101h-232l-53 -113q-4 -9 -15.5 -16.5t-21.5 -7.5h-92q-18 0 -29.5 11t-11.5 27q0 10 6 21l326 600q5 8 15.5 14.5t19.5 6.5h119q14 0 25.5 -9.5t13.5 -22.5zM283 267h150 q-1 0 -7.5 56.5t-12.5 120t-6 79.5h-9q-10 -34 -115 -256zM495 893h41q12 0 19 -7.5t7 -17.5v-4q-4 -14 -13 -22l-116 -104q-9 -9 -23 -9h-21q-12 0 -19 7t-7 17v5q2 11 10 19l96 104q10 12 26 12z" />
<glyph unicode="&#xc2;" horiz-adv-x="700" d="M521 648l116 -601q1 -3 1 -9q0 -16 -11.5 -27t-28.5 -11h-95q-14 0 -26.5 11t-13.5 25l-12 101h-232l-53 -113q-4 -9 -15.5 -16.5t-21.5 -7.5h-92q-18 0 -29.5 11t-11.5 27q0 10 6 21l326 600q5 8 15.5 14.5t19.5 6.5h119q14 0 25.5 -9.5t13.5 -22.5zM283 267h150 q-1 0 -7.5 56.5t-12.5 120t-6 79.5h-9q-10 -34 -115 -256zM438 892h47q7 0 17 -6t13 -12l43 -84q4 -8 4 -18v-6q-3 -16 -16.5 -27t-31.5 -11h-8q-20 0 -31 19l-28 62l-51 -62q-5 -7 -17 -13t-20 -6h-8q-16 0 -25.5 9t-9.5 22q0 1 0.5 3.5t0.5 3.5q1 10 12 24l73 84 q4 6 16 12t20 6z" />
<glyph unicode="&#xc3;" horiz-adv-x="700" d="M521 648l116 -601q1 -3 1 -9q0 -16 -11.5 -27t-28.5 -11h-95q-14 0 -26.5 11t-13.5 25l-12 101h-232l-53 -113q-4 -9 -15.5 -16.5t-21.5 -7.5h-92q-18 0 -29.5 11t-11.5 27q0 10 6 21l326 600q5 8 15.5 14.5t19.5 6.5h119q14 0 25.5 -9.5t13.5 -22.5zM283 267h150 q-1 0 -7.5 56.5t-12.5 120t-6 79.5h-9q-10 -34 -115 -256zM385 789q-4 0 -10 -10t-16.5 -20t-26.5 -10h-18q-26 0 -26 24l1 10q15 48 44 67t57 19q21 0 45 -11t41 -22.5t18 -11.5q4 0 8 6t8.5 14t14 14t22.5 6h18q28 0 28 -24q0 -1 -0.5 -3t-0.5 -3l-1 -4 q-15 -47 -44.5 -66.5t-56.5 -19.5q-21 0 -44.5 10.5t-40.5 22t-20 12.5z" />
<glyph unicode="&#xc4;" horiz-adv-x="700" d="M637 47l-116 601q-2 13 -13.5 22.5t-25.5 9.5h-119q-9 0 -19.5 -6.5t-15.5 -14.5l-326 -600q-6 -10 -6 -21q0 -16 11.5 -27t29.5 -11h92q10 0 21.5 7.5t15.5 16.5l53 113h232l12 -101q1 -14 13.5 -25t26.5 -11h95q17 0 28.5 11t11.5 27q0 6 -1 9zM433 267h-150 q105 222 115 256h9q0 -16 6 -79.5t12.5 -120t7.5 -56.5zM468 807q4 25 25.5 43t46.5 18q22 0 36 -14t14 -36q0 -27 -22 -49.5t-52 -22.5q-22 0 -35.5 14t-13.5 35q0 8 1 12zM291 807q4 25 25 43t46 18q22 0 36 -14t14 -36q0 -29 -22.5 -50.5t-50.5 -21.5q-22 0 -35.5 14 t-13.5 35q0 8 1 12z" />
<glyph unicode="&#xc5;" horiz-adv-x="700" d="M637 47l-116 601q-2 13 -13.5 22.5t-25.5 9.5h-119q-9 0 -19.5 -6.5t-15.5 -14.5l-326 -600q-6 -10 -6 -21q0 -16 11.5 -27t29.5 -11h92q10 0 21.5 7.5t15.5 16.5l53 113h232l12 -101q1 -14 13.5 -25t26.5 -11h95q17 0 28.5 11t11.5 27q0 6 -1 9zM433 267h-150 q105 222 115 256h9q0 -16 6 -79.5t12.5 -120t7.5 -56.5zM460 910q39 0 63.5 -24t24.5 -61q0 -48 -37.5 -84t-86.5 -36q-40 0 -66 24.5t-26 60.5q0 48 39.5 84t88.5 36zM435 766q18 0 32.5 14.5t14.5 34.5q0 14 -9.5 23.5t-23.5 9.5q-18 0 -33 -14.5t-15 -33.5 q0 -15 9.5 -24.5t24.5 -9.5z" />
<glyph unicode="&#xc6;" horiz-adv-x="928" d="M17 63l430 600q4 6 15 11.5t18 5.5h442q17 0 28.5 -11t11.5 -27q0 -6 -1 -9l-8 -55q-2 -14 -14 -24.5t-26 -10.5h-241q-3 -21 -10 -57.5l-12 -63.5h197q17 0 28.5 -11t11.5 -27q0 -6 -1 -9l-9 -53q-2 -13 -13.5 -23t-25.5 -10h-210q-4 -26 -12.5 -71t-13.5 -81h227 q17 0 28.5 -11t11.5 -27q0 -6 -1 -9l-8 -55q-2 -14 -14 -24.5t-26 -10.5h-365q-18 0 -29.5 11t-11.5 28q0 1 0.5 3.5t0.5 3.5l15 91h-190l-75 -119q-4 -6 -15 -12t-19 -6h-82q-18 0 -29.5 11t-11.5 27q0 13 9 25zM329 267h124q7 42 22 122t24 134h-10q-40 -70 -160 -256z " />
<glyph unicode="&#xc7;" horiz-adv-x="636" d="M666 589l-31 -71q-11 -22 -35 -22q-13 0 -23 7q-61 41 -120 41q-107 0 -169 -76t-62 -190q0 -142 159 -142q57 0 130 38q12 5 20 5q15 0 26 -10.5t12 -26.5l6 -56q0 -29 -22 -40q-106 -54 -206 -54q-137 0 -219.5 72.5t-82.5 204.5q0 103 35.5 185t96 132t135.5 76 t158 26q96 0 176 -47q19 -11 19 -36q0 -9 -3 -16zM187 -174l6 11q10 17 29 17q30 -5 42 -5q30 0 35 16q0 11 -31.5 16t-31.5 18v3q0 2 6 11.5t13 19.5q7 9 14 19l7 10q1 1 2.5 3t2.5 2.5t3 2t4 1.5t5.5 1t8.5 1.5t11.5 0.5h15.5q7 0 12.5 -6t5.5 -13q0 -4 -2 -6l-11 -15 q53 -16 53 -55q0 -43 -40 -68t-101 -25q-62 0 -62 28v4q0 2 1.5 4.5t1.5 3.5z" />
<glyph unicode="&#xc8;" horiz-adv-x="548" d="M34 47l105 600q2 13 13.5 23t25.5 10h363q17 0 28.5 -11t11.5 -27q0 -6 -1 -9q-3 -15 -8 -55q-2 -14 -14 -24.5t-26 -10.5h-241q-3 -21 -10 -57.5l-12 -63.5h197q17 0 28.5 -11t11.5 -27q0 -6 -1 -9l-9 -53q-2 -13 -13.5 -23t-25.5 -10h-210q-4 -26 -12.5 -71t-13.5 -81 h227q17 0 28.5 -11t11.5 -27q0 -6 -1 -9q-3 -15 -8 -55q-2 -14 -14 -24.5t-26 -10.5h-366q-17 0 -28.5 11.5t-11.5 28.5q0 1 0.5 3.5t0.5 3.5zM359 889h16q9 0 19.5 -6.5t15.5 -14.5l46 -84q5 -9 5 -21q0 -16 -11 -27t-29 -11h-4q-7 0 -18 6t-15 12l-58 84q-8 13 -8 24 q0 16 11.5 27t29.5 11z" />
<glyph unicode="&#xc9;" horiz-adv-x="548" d="M34 47l105 600q2 13 13.5 23t25.5 10h363q17 0 28.5 -11t11.5 -27q0 -6 -1 -9q-3 -15 -8 -55q-2 -14 -14 -24.5t-26 -10.5h-241q-3 -21 -10 -57.5l-12 -63.5h197q17 0 28.5 -11t11.5 -27q0 -6 -1 -9l-9 -53q-2 -13 -13.5 -23t-25.5 -10h-210q-4 -26 -12.5 -71t-13.5 -81 h227q17 0 28.5 -11t11.5 -27q0 -6 -1 -9q-3 -15 -8 -55q-2 -14 -14 -24.5t-26 -10.5h-366q-17 0 -28.5 11.5t-11.5 28.5q0 1 0.5 3.5t0.5 3.5zM423 887h41q12 0 19 -7.5t7 -17.5v-4q-4 -14 -13 -22l-116 -104q-9 -9 -23 -9h-21q-12 0 -19 7t-7 17v5q2 11 10 19l96 104 q10 12 26 12z" />
<glyph unicode="&#xca;" horiz-adv-x="548" d="M34 47l105 600q2 13 13.5 23t25.5 10h363q17 0 28.5 -11t11.5 -27q0 -6 -1 -9q-3 -15 -8 -55q-2 -14 -14 -24.5t-26 -10.5h-241q-3 -21 -10 -57.5l-12 -63.5h197q17 0 28.5 -11t11.5 -27q0 -6 -1 -9l-9 -53q-2 -13 -13.5 -23t-25.5 -10h-210q-4 -26 -12.5 -71t-13.5 -81 h227q17 0 28.5 -11t11.5 -27q0 -6 -1 -9q-3 -15 -8 -55q-2 -14 -14 -24.5t-26 -10.5h-366q-17 0 -28.5 11.5t-11.5 28.5q0 1 0.5 3.5t0.5 3.5zM381 892h47q7 0 17 -6t13 -12l43 -84q4 -8 4 -18v-6q-3 -16 -16.5 -27t-31.5 -11h-8q-20 0 -31 19l-28 62l-51 -62q-5 -7 -17 -13 t-20 -6h-8q-16 0 -25.5 9t-9.5 22q0 1 0.5 3.5t0.5 3.5q1 10 12 24l73 84q5 6 17 12t19 6z" />
<glyph unicode="&#xcb;" horiz-adv-x="548" d="M34 47l105 600q2 13 13.5 23t25.5 10h363q17 0 28.5 -11t11.5 -27q0 -6 -1 -9q-3 -15 -8 -55q-2 -14 -14 -24.5t-26 -10.5h-241q-3 -21 -10 -57.5l-12 -63.5h197q17 0 28.5 -11t11.5 -27q0 -6 -1 -9l-9 -53q-2 -13 -13.5 -23t-25.5 -10h-210q-4 -26 -12.5 -71t-13.5 -81 h227q17 0 28.5 -11t11.5 -27q0 -6 -1 -9q-3 -15 -8 -55q-2 -14 -14 -24.5t-26 -10.5h-366q-17 0 -28.5 11.5t-11.5 28.5q0 1 0.5 3.5t0.5 3.5zM414 807q4 25 25.5 43t46.5 18q22 0 36 -14t14 -36q0 -27 -22 -49.5t-52 -22.5q-22 0 -35.5 14t-13.5 35q0 8 1 12zM237 807 q4 25 25 43t46 18q22 0 36 -14t14 -36q0 -29 -22.5 -50.5t-50.5 -21.5q-22 0 -35.5 14t-13.5 35q0 8 1 12z" />
<glyph unicode="&#xcc;" horiz-adv-x="402" d="M324 40l7 33q1 4 1 11q0 16 -11.5 26.5t-28.5 10.5h-26l78 438h38q33 0 40 40l7 33q1 4 1 11q0 16 -11.5 26.5t-28.5 10.5h-232q-16 0 -27 -11.5t-13 -28.5l-7 -33q-1 -4 -1 -11q0 -16 11.5 -26.5t28.5 -10.5h23l-78 -438h-36q-14 0 -26 -10t-14 -24l-6 -40 q0 -1 -0.5 -3.5t-0.5 -3.5q0 -17 11.5 -28.5t28.5 -11.5h232q16 0 27 11t13 29zM255 891h16q9 0 19.5 -6.5t15.5 -14.5l46 -84q5 -9 5 -21q0 -16 -11 -27t-29 -11h-4q-7 0 -18 6t-15 12l-58 84q-8 13 -8 24q0 16 11.5 27t29.5 11z" />
<glyph unicode="&#xcd;" horiz-adv-x="402" d="M331 73l-7 -33q-2 -18 -13 -29t-27 -11h-232q-17 0 -28.5 11.5t-11.5 28.5q0 1 0.5 3.5t0.5 3.5l6 40q2 14 14 24t26 10h36l78 438h-23q-17 0 -28.5 10.5t-11.5 26.5q0 7 1 11l7 33q2 17 13 28.5t27 11.5h232q17 0 28.5 -10.5t11.5 -26.5q0 -7 -1 -11l-7 -33 q-7 -40 -40 -40h-38l-78 -438h26q17 0 28.5 -10.5t11.5 -26.5q0 -7 -1 -11zM345 891h41q12 0 19 -7.5t7 -17.5v-4q-4 -14 -13 -22l-116 -104q-9 -9 -23 -9h-21q-12 0 -19 7t-7 17v5q2 11 10 19l96 104q10 12 26 12z" />
<glyph unicode="&#xce;" horiz-adv-x="400" d="M330 73l-7 -33q-2 -18 -13 -29t-27 -11h-232q-17 0 -28.5 11.5t-11.5 28.5q0 1 0.5 3.5t0.5 3.5l6 40q2 14 14 24t26 10h36l78 438h-23q-17 0 -28.5 10.5t-11.5 26.5q0 7 1 11l7 33q2 17 13 28.5t27 11.5h232q17 0 28.5 -10.5t11.5 -26.5q0 -7 -1 -11l-7 -33 q-7 -40 -40 -40h-38l-78 -438h26q17 0 28.5 -10.5t11.5 -26.5q0 -7 -1 -11zM300 893h47q7 0 17 -6t13 -12l43 -84q4 -8 4 -18v-6q-3 -16 -16.5 -27t-31.5 -11h-8q-20 0 -31 19l-28 62l-51 -62q-5 -7 -17 -13t-20 -6h-8q-16 0 -25.5 9t-9.5 22q0 1 0.5 3.5t0.5 3.5 q1 10 12 24l73 84q4 6 16 12t20 6z" />
<glyph unicode="&#xcf;" horiz-adv-x="400" d="M323 40l7 33q1 4 1 11q0 16 -11.5 26.5t-28.5 10.5h-26l78 438h38q33 0 40 40l7 33q1 4 1 11q0 16 -11.5 26.5t-28.5 10.5h-232q-16 0 -27 -11.5t-13 -28.5l-7 -33q-1 -4 -1 -11q0 -16 11.5 -26.5t28.5 -10.5h23l-78 -438h-36q-14 0 -26 -10t-14 -24l-6 -40 q0 -1 -0.5 -3.5t-0.5 -3.5q0 -17 11.5 -28.5t28.5 -11.5h232q16 0 27 11t13 29zM328 810q4 25 25.5 43t46.5 18q22 0 36 -14t14 -36q0 -27 -22 -49.5t-52 -22.5q-22 0 -35.5 14t-13.5 35q0 8 1 12zM151 810q4 25 25 43t46 18q22 0 36 -14t14 -36q0 -29 -22.5 -50.5 t-50.5 -21.5q-22 0 -35.5 14t-13.5 35q0 8 1 12z" />
<glyph unicode="&#xd0;" horiz-adv-x="696" d="M350 688q164 0 248 -73.5t84 -202.5q0 -199 -125 -309.5t-338 -110.5q-45 0 -144 6h-8q-16 1 -27 12.5t-11 27.5q0 1 0.5 3.5t0.5 3.5l41 244q-17 0 -28.5 11t-11.5 27q0 6 1 9l9 53q2 13 13.5 23t25.5 10h17l39 226q2 12 13 22t23 11q112 7 178 7zM280 133q101 0 163 78 t62 194q0 142 -152 142q-18 0 -66 -3l-21 -122h7q17 0 28.5 -11t11.5 -27q0 -6 -1 -9l-9 -53q-2 -13 -13.5 -23t-25.5 -10h-21l-28 -154q20 -2 65 -2z" />
<glyph unicode="&#xd1;" horiz-adv-x="721" d="M34 47l105 600q2 13 13.5 23t25.5 10h69q23 0 38 -21q190 -302 218 -355h7q15 108 19 132l38 211q2 13 13.5 23t25.5 10h77q17 0 28.5 -11.5t11.5 -28.5q0 -1 -0.5 -3.5t-0.5 -3.5l-105 -600q-2 -13 -13.5 -23t-25.5 -10h-60q-8 0 -19 6t-15 13l-230 370h-7 q-10 -86 -19 -135l-38 -220q-2 -14 -14 -24t-26 -10h-77q-17 0 -28.5 11.5t-11.5 28.5q0 1 0.5 3.5t0.5 3.5zM397 793q-4 0 -10 -10t-16.5 -20t-26.5 -10h-18q-26 0 -26 24l1 10q15 48 44 67t57 19q21 0 45 -11t41 -22.5t18 -11.5q4 0 8 6t8.5 14t14 14t22.5 6h18 q28 0 28 -24q0 -1 -0.5 -3t-0.5 -3l-1 -4q-15 -47 -44.5 -66.5t-56.5 -19.5q-21 0 -44.5 10.5t-40.5 22t-20 12.5z" />
<glyph unicode="&#xd2;" horiz-adv-x="741" d="M727 410q0 122 -71 200t-207 78q-120 0 -213 -60t-139.5 -154t-46.5 -202q0 -121 71.5 -200.5t204.5 -79.5q117 0 210 59t142 153.5t49 205.5zM550 409q0 -118 -56.5 -195.5t-142.5 -77.5q-125 0 -125 134q0 119 55.5 196.5t141.5 77.5q127 0 127 -135zM375 891h16 q9 0 19.5 -6.5t15.5 -14.5l46 -84q5 -9 5 -21q0 -16 -11 -27t-29 -11h-4q-7 0 -18 6t-15 12l-58 84q-8 13 -8 24q0 16 11.5 27t29.5 11z" />
<glyph unicode="&#xd3;" horiz-adv-x="741" d="M727 410q0 -111 -49 -205.5t-142 -153.5t-210 -59q-133 0 -204.5 79.5t-71.5 200.5q0 108 46.5 202t139.5 154t213 60q136 0 207 -78t71 -200zM550 409q0 135 -127 135q-86 0 -141.5 -77.5t-55.5 -196.5q0 -134 125 -134q86 0 142.5 77.5t56.5 195.5zM553 889h41 q12 0 19 -7.5t7 -17.5v-4q-4 -14 -13 -22l-116 -104q-9 -9 -23 -9h-21q-12 0 -19 7t-7 17v5q2 11 10 19l96 104q10 12 26 12z" />
<glyph unicode="&#xd4;" horiz-adv-x="741" d="M727 410q0 -111 -49 -205.5t-142 -153.5t-210 -59q-133 0 -204.5 79.5t-71.5 200.5q0 108 46.5 202t139.5 154t213 60q136 0 207 -78t71 -200zM550 409q0 135 -127 135q-86 0 -141.5 -77.5t-55.5 -196.5q0 -134 125 -134q86 0 142.5 77.5t56.5 195.5zM461 893h47 q7 0 17 -6t13 -12l43 -84q4 -8 4 -18v-6q-3 -16 -16.5 -27t-31.5 -11h-8q-20 0 -31 19l-28 62l-51 -62q-5 -7 -17 -13t-20 -6h-8q-16 0 -25.5 9t-9.5 22q0 1 0.5 3.5t0.5 3.5q1 10 12 24l73 84q5 6 17 12t19 6z" />
<glyph unicode="&#xd5;" horiz-adv-x="741" d="M727 410q0 -111 -49 -205.5t-142 -153.5t-210 -59q-133 0 -204.5 79.5t-71.5 200.5q0 108 46.5 202t139.5 154t213 60q136 0 207 -78t71 -200zM550 409q0 135 -127 135q-86 0 -141.5 -77.5t-55.5 -196.5q0 -134 125 -134q86 0 142.5 77.5t56.5 195.5zM409 791 q-4 0 -10 -10t-16.5 -20t-26.5 -10h-18q-26 0 -26 24l1 10q15 48 44 67t57 19q21 0 45 -11t41 -22.5t18 -11.5q4 0 8 6t8.5 14t14 14t22.5 6h18q28 0 28 -24q0 -1 -0.5 -3t-0.5 -3l-1 -4q-15 -47 -44.5 -66.5t-56.5 -19.5q-21 0 -44.5 10.5t-40.5 22t-20 12.5z" />
<glyph unicode="&#xd6;" horiz-adv-x="741" d="M727 410q0 122 -71 200t-207 78q-120 0 -213 -60t-139.5 -154t-46.5 -202q0 -121 71.5 -200.5t204.5 -79.5q117 0 210 59t142 153.5t49 205.5zM550 409q0 -118 -56.5 -195.5t-142.5 -77.5q-125 0 -125 134q0 119 55.5 196.5t141.5 77.5q127 0 127 -135zM490 807 q4 25 25.5 43t46.5 18q22 0 36 -14t14 -36q0 -27 -22 -49.5t-52 -22.5q-22 0 -35.5 14t-13.5 35q0 8 1 12zM313 807q4 25 25 43t46 18q22 0 36 -14t14 -36q0 -29 -22.5 -50.5t-50.5 -21.5q-22 0 -35.5 14t-13.5 35q0 8 1 12z" />
<glyph unicode="&#xd7;" horiz-adv-x="577" d="M411 28l-124 125l-124 -125q-10 -11 -27 -11t-29 12l-28 28q-12 12 -12 28t12 28l124 125l-125 125q-12 12 -12 28t12 28l28 28q12 12 28 12t28 -12l124 -124l125 125q13 11 27 11q17 0 29 -12l28 -28q12 -12 12 -28t-12 -28l-124 -125l124 -125q12 -12 12 -28t-12 -28 l-28 -28q-13 -13 -29 -13q-15 0 -27 12z" />
<glyph unicode="&#xd8;" horiz-adv-x="741" d="M195 16l-41 -52q-10 -12 -25 -12q-18 0 -32.5 13t-14.5 29q0 9 6 18l39 52q-77 73 -77 200q0 80 27.5 156t77.5 136t126.5 96t167.5 36q75 0 132 -24l41 51q10 12 25 12q17 0 31 -13t14 -29q0 -9 -6 -18l-36 -50q77 -74 77 -202q0 -110 -49.5 -206t-142.5 -156.5 t-209 -60.5q-70 0 -131 24zM226 281q0 -38 12 -66l243 318q-24 11 -58 11q-75 0 -125 -54t-66 -149q-6 -32 -6 -60zM550 397q0 41 -13 68l-242 -317q24 -11 57 -11q85 0 141.5 72.5t56.5 187.5z" />
<glyph unicode="&#xd9;" horiz-adv-x="720" d="M648 252l66 382q0 1 0.5 3.5t0.5 3.5q0 17 -11.5 28t-28.5 11h-89q-14 0 -25.5 -10t-13.5 -23l-69 -383q-11 -57 -50.5 -93t-94.5 -36q-102 0 -102 86q0 13 3 28l66 384q0 1 0.5 3.5t0.5 3.5q0 17 -11.5 28.5t-28.5 11.5h-89q-14 0 -25.5 -10t-13.5 -23 q-70 -382 -70 -384q-4 -23 -4 -50q0 -101 69 -161t180 -60q132 0 224 68t116 192zM378 891h16q9 0 19.5 -6.5t15.5 -14.5l46 -84q5 -9 5 -21q0 -16 -11 -27t-29 -11h-4q-7 0 -18 6t-15 12l-58 84q-8 13 -8 24q0 16 11.5 27t29.5 11z" />
<glyph unicode="&#xda;" horiz-adv-x="720" d="M714 634l-66 -382q-24 -124 -116 -192t-224 -68q-111 0 -180 60t-69 161q0 27 4 50q0 2 70 384q2 13 13.5 23t25.5 10h89q17 0 28.5 -11.5t11.5 -28.5q0 -1 -0.5 -3.5t-0.5 -3.5l-66 -384q-3 -15 -3 -28q0 -86 102 -86q55 0 94.5 36t50.5 93l69 383q2 13 13.5 23t25.5 10 h89q17 0 28.5 -11t11.5 -28q0 -1 -0.5 -3.5t-0.5 -3.5zM524 889h41q12 0 19 -7.5t7 -17.5v-4q-4 -14 -13 -22l-116 -104q-9 -9 -23 -9h-21q-12 0 -19 7t-7 17v5q2 11 10 19l96 104q10 12 26 12z" />
<glyph unicode="&#xdb;" horiz-adv-x="720" d="M714 634l-66 -382q-24 -124 -116 -192t-224 -68q-111 0 -180 60t-69 161q0 27 4 50q0 2 70 384q2 13 13.5 23t25.5 10h89q17 0 28.5 -11.5t11.5 -28.5q0 -1 -0.5 -3.5t-0.5 -3.5l-66 -384q-3 -15 -3 -28q0 -86 102 -86q55 0 94.5 36t50.5 93l69 383q2 13 13.5 23t25.5 10 h89q17 0 28.5 -11t11.5 -28q0 -1 -0.5 -3.5t-0.5 -3.5zM450 891h47q7 0 17 -6t13 -12l43 -84q4 -8 4 -18v-6q-3 -16 -16.5 -27t-31.5 -11h-8q-20 0 -31 19l-28 62l-51 -62q-5 -7 -17 -13t-20 -6h-8q-16 0 -25.5 9t-9.5 22q0 1 0.5 3.5t0.5 3.5q1 10 12 24l73 84q4 6 16 12 t20 6z" />
<glyph unicode="&#xdc;" horiz-adv-x="720" d="M648 252l66 382q0 1 0.5 3.5t0.5 3.5q0 17 -11.5 28t-28.5 11h-89q-14 0 -25.5 -10t-13.5 -23l-69 -383q-11 -57 -50.5 -93t-94.5 -36q-102 0 -102 86q0 13 3 28l66 384q0 1 0.5 3.5t0.5 3.5q0 17 -11.5 28.5t-28.5 11.5h-89q-14 0 -25.5 -10t-13.5 -23 q-70 -382 -70 -384q-4 -23 -4 -50q0 -101 69 -161t180 -60q132 0 224 68t116 192zM480 807q4 25 25.5 43t46.5 18q22 0 36 -14t14 -36q0 -27 -22 -49.5t-52 -22.5q-22 0 -35.5 14t-13.5 35q0 8 1 12zM303 807q4 25 25 43t46 18q22 0 36 -14t14 -36q0 -29 -22.5 -50.5 t-50.5 -21.5q-22 0 -35.5 14t-13.5 35q0 8 1 12z" />
<glyph unicode="&#xdd;" horiz-adv-x="646" d="M415 269l-43 -236q-2 -13 -13.5 -23t-25.5 -10h-89q-17 0 -28.5 11t-11.5 27q0 6 1 9l39 220l-132 360q-3 8 -3 15q0 16 11.5 27t29.5 11h82q39 0 52 -34l61 -215h9l149 231q4 6 15 12t18 6h96q18 0 29.5 -11t11.5 -27q0 -13 -9 -25zM464 891h41q12 0 19 -7.5t7 -17.5v-4 q-4 -14 -13 -22l-116 -104q-9 -9 -23 -9h-21q-12 0 -19 7t-7 17v5q2 11 10 19l96 104q10 12 26 12z" />
<glyph unicode="&#xde;" horiz-adv-x="594" d="M34 47l105 600q2 13 13.5 23t25.5 10h90q17 0 28.5 -11.5t11.5 -28.5q0 -1 -0.5 -3.5t-0.5 -3.5l-10 -62h44q116 0 176 -50.5t60 -132.5q0 -108 -78 -194.5t-174 -86.5q-2 0 -22.5 -1t-36.5 -1q-27 0 -51 3l-14 -75q-2 -13 -13.5 -23t-25.5 -10h-89q-17 0 -28.5 11.5 t-11.5 28.5q0 1 0.5 3.5t0.5 3.5zM402 364q0 67 -76 67q-27 0 -56 -4q-5 -30 -15.5 -85.5t-16.5 -95.5q18 -1 46 -1q48 0 83 34t35 85z" />
<glyph unicode="&#xdf;" horiz-adv-x="674" d="M421 176l-35 17q-25 12 -38 19t-32 21.5t-27.5 32t-8.5 39.5q0 42 31 71.5t82 57.5q65 37 70 59q1 4 1 14q0 34 -28 56.5t-70 22.5q-88 0 -105 -93l-81 -460q-2 -13 -13.5 -23t-25.5 -10h-79q-17 0 -28.5 11.5t-11.5 28.5q0 1 0.5 3t0.5 4l78 448q18 101 93.5 147 t189.5 46q100 0 161.5 -47t61.5 -119q0 -32 -9.5 -56.5t-29.5 -42.5t-34 -27t-38 -21l-1 -1h-2q-44 -20 -44 -39q0 -16 48 -35l9 -3q28 -11 44 -19t37 -22.5t31.5 -35t10.5 -46.5q0 -59 -36 -101.5t-87 -61.5t-107 -19q-71 0 -134 15q-14 3 -23 13.5t-9 24.5q0 8 5 18l19 42 q0 1 1 3q10 25 38 25q4 0 12 -2q61 -21 105 -21q19 0 33.5 8.5t14.5 23.5t-40 34z" />
<glyph unicode="&#xe0;" d="M420 1l47 14q29 9 29 38q0 5 -1 8q-9 45 -9 98q0 84 30 240q0 1 0.5 3t0.5 3q0 28 -25 38q-98 39 -203 39q-109 0 -187 -85t-78 -222q0 -50 16.5 -87t44.5 -57t59 -29.5t66 -9.5q100 0 147 70h6q3 -20 7 -33q9 -29 40 -29q7 0 10 1zM346 257q-9 -50 -33.5 -98.5 t-57.5 -48.5q-62 0 -62 82q0 76 31 124t75 48q18 0 32 -3q15 -3 19 -5l4 -3v-15q0 -39 -8 -81zM263 680h16q9 0 19.5 -6.5t15.5 -14.5l46 -84q5 -9 5 -21q0 -16 -11 -27t-29 -11h-4q-7 0 -18 6t-15 12l-58 84q-8 13 -8 24q0 16 11.5 27t29.5 11z" />
<glyph unicode="&#xe1;" d="M467 15l-47 -14q-3 -1 -10 -1q-31 0 -40 29q-4 13 -7 33h-6q-47 -70 -147 -70q-35 0 -66 9.5t-59 29.5t-44.5 57t-16.5 87q0 137 78 222t187 85q105 0 203 -39q25 -10 25 -38q0 -1 -0.5 -3t-0.5 -3q-30 -156 -30 -240q0 -53 9 -98q1 -3 1 -8q0 -29 -29 -38zM346 257 q8 42 8 81v15q-14 11 -55 11q-44 0 -75 -48t-31 -124q0 -82 62 -82q33 0 57.5 48.5t33.5 98.5zM376 680h41q12 0 19 -7.5t7 -17.5v-4q-4 -14 -13 -22l-116 -104q-9 -9 -23 -9h-21q-12 0 -19 7t-7 17v5q2 11 10 19l96 104q10 12 26 12z" />
<glyph unicode="&#xe2;" d="M467 15l-47 -14q-3 -1 -10 -1q-31 0 -40 29q-4 13 -7 33h-6q-47 -70 -147 -70q-35 0 -66 9.5t-59 29.5t-44.5 57t-16.5 87q0 137 78 222t187 85q105 0 203 -39q25 -10 25 -38q0 -1 -0.5 -3t-0.5 -3q-30 -156 -30 -240q0 -53 9 -98q1 -3 1 -8q0 -29 -29 -38zM346 257 q8 42 8 81v15q-14 11 -55 11q-44 0 -75 -48t-31 -124q0 -82 62 -82q33 0 57.5 48.5t33.5 98.5zM326 680h47q7 0 17 -6t13 -12l43 -84q4 -8 4 -18v-6q-3 -16 -16.5 -27t-31.5 -11h-8q-20 0 -31 19l-28 62l-51 -62q-5 -7 -17 -13t-20 -6h-8q-16 0 -25.5 9t-9.5 22q0 1 0.5 3.5 t0.5 3.5q1 10 12 24l73 84q4 6 16 12t20 6z" />
<glyph unicode="&#xe3;" d="M467 15l-47 -14q-3 -1 -10 -1q-31 0 -40 29q-4 13 -7 33h-6q-47 -70 -147 -70q-35 0 -66 9.5t-59 29.5t-44.5 57t-16.5 87q0 137 78 222t187 85q105 0 203 -39q25 -10 25 -38q0 -1 -0.5 -3t-0.5 -3q-30 -156 -30 -240q0 -53 9 -98q1 -3 1 -8q0 -29 -29 -38zM346 257 q8 42 8 81v15q-14 11 -55 11q-44 0 -75 -48t-31 -124q0 -82 62 -82q33 0 57.5 48.5t33.5 98.5zM274 580q-4 0 -10 -10t-16.5 -20t-26.5 -10h-18q-26 0 -26 24l1 10q15 48 44 67t57 19q21 0 45 -11t41 -22.5t18 -11.5q4 0 8 6.5l8.5 13.5t14 13.5t22.5 6.5h18q28 0 28 -24 q0 -1 -0.5 -3t-0.5 -3l-1 -4q-15 -47 -44.5 -66.5t-56.5 -19.5q-21 0 -44.5 10.5t-40.5 22t-20 12.5z" />
<glyph unicode="&#xe4;" d="M420 1l47 14q29 9 29 38q0 5 -1 8q-9 45 -9 98q0 84 30 240q0 1 0.5 3t0.5 3q0 28 -25 38q-98 39 -203 39q-109 0 -187 -85t-78 -222q0 -50 16.5 -87t44.5 -57t59 -29.5t66 -9.5q100 0 147 70h6q3 -20 7 -33q9 -29 40 -29q7 0 10 1zM346 257q-9 -50 -33.5 -98.5 t-57.5 -48.5q-62 0 -62 82q0 76 31 124t75 48q18 0 32 -3q15 -3 19 -5l4 -3v-15q0 -39 -8 -81zM360 598q4 25 25.5 43t46.5 18q22 0 36 -14t14 -36q0 -27 -22 -49.5t-52 -22.5q-22 0 -35.5 14t-13.5 35q0 8 1 12zM183 598q4 25 25 43t46 18q22 0 36 -14t14 -36 q0 -29 -22.5 -50.5t-50.5 -21.5q-22 0 -35.5 14t-13.5 35q0 8 1 12z" />
<glyph unicode="&#xe5;" d="M420 1l47 14q29 9 29 38q0 5 -1 8q-9 45 -9 98q0 84 30 240q0 1 0.5 3t0.5 3q0 28 -25 38q-98 39 -203 39q-109 0 -187 -85t-78 -222q0 -50 16.5 -87t44.5 -57t59 -29.5t66 -9.5q100 0 147 70h6q3 -20 7 -33q9 -29 40 -29q7 0 10 1zM346 257q-9 -50 -33.5 -98.5 t-57.5 -48.5q-62 0 -62 82q0 76 31 124t75 48q18 0 32 -3q15 -3 19 -5l4 -3v-15q0 -39 -8 -81zM353 701q39 0 63.5 -24t24.5 -61q0 -48 -37.5 -84t-86.5 -36q-40 0 -66 24.5t-26 60.5q0 48 39.5 84t88.5 36zM328 557q18 0 32.5 14.5t14.5 34.5q0 14 -9.5 23.5t-23.5 9.5 q-18 0 -33 -14.5t-15 -33.5q0 -15 9.5 -24.5t24.5 -9.5z" />
<glyph unicode="&#xe6;" horiz-adv-x="817" d="M792 265l-7 -37q0 -12 -14 -21.5t-26 -9.5h-263v-13q0 -38 19.5 -58.5t53.5 -20.5q57 0 127 24q5 2 14 2q17 0 28 -11t11 -29q0 -4 1 -5q1 -7 1 -22q0 -11 -8 -22.5t-19 -15.5q-96 -34 -179 -34q-128 0 -168 64h-8q-29 -29 -72 -47t-83 -18q-82 0 -129 47.5t-47 133.5 q0 142 79 226t195 84q71 0 123 -7q14 -2 24.5 -14t10.5 -26v-12h6q54 59 153 59q90 0 136 -42.5t46 -119.5q0 -23 -5 -55zM313 140l40 217q-31 7 -56 7q-43 0 -74.5 -49.5t-31.5 -125.5q0 -80 63 -80q30 0 59 31zM658 316q0 27 -15.5 45t-43.5 18q-37 0 -63 -26.5t-38 -66.5 h155q5 17 5 30z" />
<glyph unicode="&#xe7;" horiz-adv-x="486" d="M368 133q8 3 16 3q15 0 26 -10t12 -26l4 -33q0 -13 -7.5 -25t-18.5 -17q-91 -33 -165 -33q-92 0 -151.5 44.5t-59.5 143.5q0 40 5 64q49 238 293 238q66 0 138 -29q26 -10 26 -38q0 -8 -3 -15l-19 -42q-11 -24 -36 -24q-5 0 -17 4q-59 26 -98 26q-54 0 -87.5 -50 t-33.5 -128q0 -40 18.5 -58t57.5 -18q41 0 100 23zM81 -174l6 11q10 17 29 17q30 -5 42 -5q30 0 35 16q0 11 -31.5 16t-31.5 18v3q0 2 6 11.5t13 19.5q7 9 14 19l7 10q1 1 2.5 3t2.5 2.5t3 2t4 1.5t5.5 1t8.5 1.5t11.5 0.5h15.5q7 0 12.5 -6t5.5 -13q0 -4 -2 -6l-11 -15 q53 -16 53 -55q0 -43 -40 -68t-101 -25q-62 0 -62 28v4q0 2 1.5 4.5t1.5 3.5z" />
<glyph unicode="&#xe8;" horiz-adv-x="523" d="M437 81l-9 28q-10 28 -38 28q-9 0 -14 -2q-67 -25 -113 -25q-70 0 -70 71v9q144 0 228 42t84 117q0 55 -47 94t-138 39q-244 0 -290 -245q-6 -29 -6 -64q0 -98 59.5 -139.5t152.5 -41.5q78 0 177 39q26 10 26 38q0 4 -2 12zM210 285q10 40 35.5 61.5t58.5 21.5 q52 0 52 -30t-37 -41.5t-109 -11.5zM252 680h16q9 0 19.5 -6.5t15.5 -14.5l46 -84q5 -9 5 -21q0 -16 -11 -27t-29 -11h-4q-7 0 -18 6t-15 12l-58 84q-8 13 -8 24q0 16 11.5 27t29.5 11z" />
<glyph unicode="&#xe9;" horiz-adv-x="523" d="M428 109l9 -28q2 -8 2 -12q0 -28 -26 -38q-99 -39 -177 -39q-93 0 -152.5 41.5t-59.5 139.5q0 35 6 64q46 245 290 245q91 0 138 -39t47 -94q0 -75 -84 -117t-228 -42v-9q0 -71 70 -71q46 0 113 25q5 2 14 2q28 0 38 -28zM210 285q72 0 109 11.5t37 41.5t-52 30 q-33 0 -58.5 -21.5t-35.5 -61.5zM414 680h41q12 0 19 -7.5t7 -17.5v-4q-4 -14 -13 -22l-116 -104q-9 -9 -23 -9h-21q-12 0 -19 7t-7 17v5q2 11 10 19l96 104q10 12 26 12z" />
<glyph unicode="&#xea;" horiz-adv-x="523" d="M428 109l9 -28q2 -8 2 -12q0 -28 -26 -38q-99 -39 -177 -39q-93 0 -152.5 41.5t-59.5 139.5q0 35 6 64q46 245 290 245q91 0 138 -39t47 -94q0 -75 -84 -117t-228 -42v-9q0 -71 70 -71q46 0 113 25q5 2 14 2q28 0 38 -28zM210 285q72 0 109 11.5t37 41.5t-52 30 q-33 0 -58.5 -21.5t-35.5 -61.5zM335 680h47q7 0 17 -6t13 -12l43 -84q4 -8 4 -18v-6q-3 -16 -16.5 -27t-31.5 -11h-8q-20 0 -31 19l-28 62l-51 -62q-5 -7 -17 -13t-20 -6h-8q-16 0 -25.5 9t-9.5 22q0 1 0.5 3.5t0.5 3.5q1 10 12 24l73 84q5 6 17 12t19 6z" />
<glyph unicode="&#xeb;" horiz-adv-x="523" d="M437 81l-9 28q-10 28 -38 28q-9 0 -14 -2q-67 -25 -113 -25q-70 0 -70 71v9q144 0 228 42t84 117q0 55 -47 94t-138 39q-244 0 -290 -245q-6 -29 -6 -64q0 -98 59.5 -139.5t152.5 -41.5q78 0 177 39q26 10 26 38q0 4 -2 12zM210 285q10 40 35.5 61.5t58.5 21.5 q52 0 52 -30t-37 -41.5t-109 -11.5zM367 598q4 25 25.5 43t46.5 18q22 0 36 -14t14 -36q0 -27 -22 -49.5t-52 -22.5q-22 0 -35.5 14t-13.5 35q0 8 1 12zM190 598q4 25 25 43t46 18q22 0 36 -14t14 -36q0 -29 -22.5 -50.5t-50.5 -21.5q-22 0 -35.5 14t-13.5 35q0 8 1 12z" />
<glyph unicode="&#xec;" horiz-adv-x="272" d="M148 680h16q9 0 19.5 -6.5t15.5 -14.5l46 -84q5 -9 5 -21q0 -16 -11 -27t-29 -11h-4q-7 0 -18 6t-15 12l-58 84q-8 13 -8 24q0 16 11.5 27t29.5 11zM22 47l69 394q2 13 13.5 23t25.5 10h80q17 0 28.5 -11t11.5 -28q0 -1 -0.5 -3.5t-0.5 -3.5l-69 -395q-2 -13 -13.5 -23 t-25.5 -10h-80q-17 0 -28.5 11.5t-11.5 28.5q0 1 0.5 3.5t0.5 3.5z" />
<glyph unicode="&#xed;" horiz-adv-x="274" d="M257 680h41q12 0 19 -7.5t7 -17.5v-4q-4 -14 -13 -22l-116 -104q-9 -9 -23 -9h-21q-12 0 -19 7t-7 17v5q2 11 10 19l96 104q10 12 26 12zM23 47l69 394q2 13 13.5 23t25.5 10h80q17 0 28.5 -11t11.5 -28q0 -1 -0.5 -3.5t-0.5 -3.5l-69 -395q-2 -13 -13.5 -23t-25.5 -10 h-80q-17 0 -28.5 11.5t-11.5 28.5q0 1 0.5 3.5t0.5 3.5z" />
<glyph unicode="&#xee;" horiz-adv-x="275" d="M24 47l69 394q2 13 13.5 23t25.5 10h80q17 0 28.5 -11t11.5 -28q0 -1 -0.5 -3.5t-0.5 -3.5l-69 -395q-2 -13 -13.5 -23t-25.5 -10h-80q-17 0 -28.5 11.5t-11.5 28.5q0 1 0.5 3.5t0.5 3.5zM201 680h47q7 0 17 -6t13 -12l43 -84q4 -8 4 -18v-6q-3 -16 -16.5 -27t-31.5 -11 h-8q-20 0 -31 19l-28 62l-51 -62q-5 -7 -17 -13t-20 -6h-8q-16 0 -25.5 9t-9.5 22q0 1 0.5 3.5t0.5 3.5q1 10 12 24l73 84q5 6 17 12t19 6z" />
<glyph unicode="&#xef;" horiz-adv-x="276" d="M232 598q4 25 25.5 43t46.5 18q22 0 36 -14t14 -36q0 -27 -22 -49.5t-52 -22.5q-22 0 -35.5 14t-13.5 35q0 8 1 12zM55 598q4 25 25 43t46 18q22 0 36 -14t14 -36q0 -29 -22.5 -50.5t-50.5 -21.5q-22 0 -35.5 14t-13.5 35q0 8 1 12zM25 47l69 394q2 13 13.5 23t25.5 10 h80q17 0 28.5 -11t11.5 -28q0 -1 -0.5 -3.5t-0.5 -3.5l-69 -395q-2 -13 -13.5 -23t-25.5 -10h-80q-17 0 -28.5 11.5t-11.5 28.5q0 1 0.5 3.5t0.5 3.5z" />
<glyph unicode="&#xf0;" horiz-adv-x="567" d="M535 277q-26 -146 -110 -215.5t-191 -69.5q-40 0 -75 9.5t-66 30t-49 58t-18 88.5q0 33 5 59q15 88 62 145.5t98.5 78.5t106.5 21q28 0 65 -16l5 4q-12 40 -40 75l-100 -44q-4 -2 -12 -2q-19 0 -24 17l-1 7q-1 3 -1 8v4q4 20 22 27l66 29l-26 20q-6 4 -6 14q0 1 0.5 3 t0.5 3q2 15 16 26l53 38q8 5 17 5q10 0 24 -7q30 -21 57 -43l86 38q6 3 12 3q19 0 22 -18l2 -7q1 -3 1 -8v-4q-4 -20 -22 -27l-55 -24q83 -102 83 -240q0 -38 -8 -86zM362 237q5 32 5 52q0 75 -66 75q-39 0 -66.5 -34t-38.5 -93q-4 -21 -4 -44q0 -83 63 -83q38 0 67.5 34 t39.5 93z" />
<glyph unicode="&#xf1;" horiz-adv-x="559" d="M527 313l-49 -280q-2 -13 -13.5 -23t-25.5 -10h-80q-17 0 -28.5 11t-11.5 28q0 1 0.5 3.5t0.5 3.5l47 281v2q0 35 -37 35q-27 0 -61 -38.5t-47 -109.5l-32 -183q-2 -13 -13.5 -23t-25.5 -10h-80q-17 0 -28.5 11t-11.5 28q0 1 0.5 3.5t0.5 3.5l41 231q16 92 22 161 q1 15 13 25.5t27 10.5h65q16 0 28 -12t12 -25v-3q-2 -16 -4 -29h6q32 35 74.5 56t77.5 21q77 0 108 -29.5t31 -82.5q0 -27 -6 -57zM284 580q-4 0 -10 -10t-16.5 -20t-26.5 -10h-18q-26 0 -26 24l1 10q15 48 44 67t57 19q21 0 45 -11t41 -22.5t18 -11.5q4 0 8 6.5l8.5 13.5 t14 13.5t22.5 6.5h18q28 0 28 -24q0 -1 -0.5 -3t-0.5 -3l-1 -4q-15 -47 -44.5 -66.5t-56.5 -19.5q-21 0 -44.5 10.5t-40.5 22t-20 12.5z" />
<glyph unicode="&#xf2;" horiz-adv-x="560" d="M24 180q0 -99 60 -143.5t151 -44.5q250 0 292 238q6 36 6 64q0 98 -60 143t-152 45q-248 0 -291 -238q-6 -36 -6 -64zM367 290q0 -81 -32 -130.5t-79 -49.5q-33 0 -48.5 17t-15.5 56q0 80 31.5 130.5t77.5 50.5q66 0 66 -74zM257 680h16q9 0 19.5 -6.5t15.5 -14.5l46 -84 q5 -9 5 -21q0 -16 -11 -27t-29 -11h-4q-7 0 -18 6t-15 12l-58 84q-8 13 -8 24q0 16 11.5 27t29.5 11z" />
<glyph unicode="&#xf3;" horiz-adv-x="560" d="M24 180q0 28 6 64q43 238 291 238q92 0 152 -45t60 -143q0 -28 -6 -64q-42 -238 -292 -238q-91 0 -151 44.5t-60 143.5zM367 290q0 74 -66 74q-46 0 -77.5 -50.5t-31.5 -130.5q0 -39 15.5 -56t48.5 -17q47 0 79 49.5t32 130.5zM422 680h41q12 0 19 -7.5t7 -17.5v-4 q-4 -14 -13 -22l-116 -104q-9 -9 -23 -9h-21q-12 0 -19 7t-7 17v5q2 11 10 19l96 104q10 12 26 12z" />
<glyph unicode="&#xf4;" horiz-adv-x="560" d="M24 180q0 28 6 64q43 238 291 238q92 0 152 -45t60 -143q0 -28 -6 -64q-42 -238 -292 -238q-91 0 -151 44.5t-60 143.5zM367 290q0 74 -66 74q-46 0 -77.5 -50.5t-31.5 -130.5q0 -39 15.5 -56t48.5 -17q47 0 79 49.5t32 130.5zM336 680h47q7 0 17 -6t13 -12l43 -84 q4 -8 4 -18v-6q-3 -16 -16.5 -27t-31.5 -11h-8q-20 0 -31 19l-28 62l-51 -62q-5 -7 -17 -13t-20 -6h-8q-16 0 -25.5 9t-9.5 22q0 1 0.5 3.5t0.5 3.5q1 10 12 24l73 84q4 6 16 12t20 6z" />
<glyph unicode="&#xf5;" horiz-adv-x="560" d="M24 180q0 28 6 64q43 238 291 238q92 0 152 -45t60 -143q0 -28 -6 -64q-42 -238 -292 -238q-91 0 -151 44.5t-60 143.5zM367 290q0 74 -66 74q-46 0 -77.5 -50.5t-31.5 -130.5q0 -39 15.5 -56t48.5 -17q47 0 79 49.5t32 130.5zM282 580q-4 0 -10 -10t-16.5 -20t-26.5 -10 h-18q-26 0 -26 24l1 10q15 48 44 67t57 19q21 0 45 -11t41 -22.5t18 -11.5q4 0 8 6.5l8.5 13.5t14 13.5t22.5 6.5h18q28 0 28 -24q0 -1 -0.5 -3t-0.5 -3l-1 -4q-15 -47 -44.5 -66.5t-56.5 -19.5q-21 0 -44.5 10.5t-40.5 22t-20 12.5z" />
<glyph unicode="&#xf6;" horiz-adv-x="560" d="M24 180q0 -99 60 -143.5t151 -44.5q250 0 292 238q6 36 6 64q0 98 -60 143t-152 45q-248 0 -291 -238q-6 -36 -6 -64zM367 290q0 -81 -32 -130.5t-79 -49.5q-33 0 -48.5 17t-15.5 56q0 80 31.5 130.5t77.5 50.5q66 0 66 -74zM364 598q4 25 25.5 43t46.5 18q22 0 36 -14 t14 -36q0 -27 -22 -49.5t-52 -22.5q-22 0 -35.5 14t-13.5 35q0 8 1 12zM187 598q4 25 25 43t46 18q22 0 36 -14t14 -36q0 -29 -22.5 -50.5t-50.5 -21.5q-22 0 -35.5 14t-13.5 35q0 8 1 12z" />
<glyph unicode="&#xf7;" horiz-adv-x="594" d="M100 297h394q16 0 28 -11.5t12 -28.5v-40q0 -17 -12 -28.5t-28 -11.5h-394q-16 0 -28 11.5t-12 28.5v40q0 17 12 28.5t28 11.5zM375 68q0 -34 -21.5 -55t-56.5 -21t-56 21t-21 55q0 35 21 56.5t56 21.5t56.5 -21.5t21.5 -56.5zM375 405q0 -34 -21.5 -55t-56.5 -21t-56 21 t-21 55q0 36 21 56.5t56 20.5q36 0 57 -20.5t21 -56.5z" />
<glyph unicode="&#xf8;" horiz-adv-x="560" d="M192 198q0 -8 2 -22l140 182q-19 7 -33 7q-45 0 -77 -45t-32 -122zM365 278q0 15 -1 22l-139 -182q11 -7 31 -7q45 0 77 44.5t32 122.5zM145 4l-25 -32q-13 -16 -28 -16q-10 0 -16 5l-8 5q-14 8 -14 24q0 7 5 17l22 29q-57 46 -57 140q0 28 6 62q12 70 42 120t71.5 76 t85 37.5t93.5 11.5t90 -11l24 32q13 16 28 16q10 0 16 -5l8 -5q14 -8 14 -24q0 -8 -5 -18l-21 -28q57 -47 57 -138q0 -30 -6 -64q-12 -70 -41.5 -120t-71 -76.5t-85.5 -38t-94 -11.5q-45 0 -90 12z" />
<glyph unicode="&#xf9;" horiz-adv-x="559" d="M42 161l48 280q2 13 13.5 23t25.5 10h80q17 0 28.5 -11t11.5 -28q0 -1 -0.5 -3.5t-0.5 -3.5l-46 -281v-4q0 -33 37 -33q27 0 61.5 38.5t46.5 109.5l31 183q2 13 13.5 23t25.5 10h80q17 0 28.5 -11t11.5 -28q0 -1 -0.5 -3.5t-0.5 -3.5l-40 -231q-16 -92 -22 -161 q-1 -15 -13 -25.5t-27 -10.5h-65q-16 0 -28 12.5t-12 27.5q2 16 4 29h-6q-32 -35 -74.5 -56t-77.5 -21q-77 0 -108 29.5t-31 82.5q0 27 6 57zM257 680h16q9 0 19.5 -6.5t15.5 -14.5l46 -84q5 -9 5 -21q0 -16 -11 -27t-29 -11h-4q-7 0 -18 6t-15 12l-58 84q-8 13 -8 24 q0 16 11.5 27t29.5 11z" />
<glyph unicode="&#xfa;" horiz-adv-x="559" d="M42 161l48 280q2 13 13.5 23t25.5 10h80q17 0 28.5 -11t11.5 -28q0 -1 -0.5 -3.5t-0.5 -3.5l-46 -281v-4q0 -33 37 -33q27 0 61.5 38.5t46.5 109.5l31 183q2 13 13.5 23t25.5 10h80q17 0 28.5 -11t11.5 -28q0 -1 -0.5 -3.5t-0.5 -3.5l-40 -231q-16 -92 -22 -161 q-1 -15 -13 -25.5t-27 -10.5h-65q-16 0 -28 12.5t-12 27.5q2 16 4 29h-6q-32 -35 -74.5 -56t-77.5 -21q-77 0 -108 29.5t-31 82.5q0 27 6 57zM421 680h41q12 0 19 -7.5t7 -17.5v-4q-4 -14 -13 -22l-116 -104q-9 -9 -23 -9h-21q-12 0 -19 7t-7 17v5q2 11 10 19l96 104 q10 12 26 12z" />
<glyph unicode="&#xfb;" horiz-adv-x="559" d="M42 161l48 280q2 13 13.5 23t25.5 10h80q17 0 28.5 -11t11.5 -28q0 -1 -0.5 -3.5t-0.5 -3.5l-46 -281v-4q0 -33 37 -33q27 0 61.5 38.5t46.5 109.5l31 183q2 13 13.5 23t25.5 10h80q17 0 28.5 -11t11.5 -28q0 -1 -0.5 -3.5t-0.5 -3.5l-40 -231q-16 -92 -22 -161 q-1 -15 -13 -25.5t-27 -10.5h-65q-16 0 -28 12.5t-12 27.5q2 16 4 29h-6q-32 -35 -74.5 -56t-77.5 -21q-77 0 -108 29.5t-31 82.5q0 27 6 57zM333 680h47q7 0 17 -6t13 -12l43 -84q4 -8 4 -18v-6q-3 -16 -16.5 -27t-31.5 -11h-8q-20 0 -31 19l-28 62l-51 -62q-5 -7 -17 -13 t-20 -6h-8q-16 0 -25.5 9t-9.5 22q0 1 0.5 3.5t0.5 3.5q1 10 12 24l73 84q5 6 17 12t19 6z" />
<glyph unicode="&#xfc;" horiz-adv-x="559" d="M42 161l48 280q2 13 13.5 23t25.5 10h80q17 0 28.5 -11t11.5 -28q0 -1 -0.5 -3.5t-0.5 -3.5l-46 -281v-4q0 -33 37 -33q27 0 61.5 38.5t46.5 109.5l31 183q2 13 13.5 23t25.5 10h80q17 0 28.5 -11t11.5 -28q0 -1 -0.5 -3.5t-0.5 -3.5l-40 -231q-16 -92 -22 -161 q-1 -15 -13 -25.5t-27 -10.5h-65q-16 0 -28 12.5t-12 27.5q2 16 4 29h-6q-32 -35 -74.5 -56t-77.5 -21q-77 0 -108 29.5t-31 82.5q0 27 6 57zM365 598q4 25 25.5 43t46.5 18q22 0 36 -14t14 -36q0 -27 -22 -49.5t-52 -22.5q-22 0 -35.5 14t-13.5 35q0 8 1 12zM188 598 q4 25 25 43t46 18q22 0 36 -14t14 -36q0 -29 -22.5 -50.5t-50.5 -21.5q-22 0 -35.5 14t-13.5 35q0 8 1 12z" />
<glyph unicode="&#xfd;" horiz-adv-x="528" d="M-10 -166l-5 44q0 13 9 24t20 14q88 25 123 86l14 26l-89 397q-1 3 -1 10q0 17 11.5 28t28.5 11h86q15 0 26.5 -10.5t13.5 -24.5q24 -211 24 -254h7q17 53 116 266q4 9 15 16t21 7h81q18 0 29.5 -11t11.5 -27q0 -12 -6 -22l-262 -448q-45 -76 -94 -109t-128 -57 q-10 -2 -13 -2q-15 0 -26.5 10t-12.5 26zM379 680h41q12 0 19 -7.5t7 -17.5v-4q-4 -14 -13 -22l-116 -104q-9 -9 -23 -9h-21q-12 0 -19 7t-7 17v5q2 11 10 19l96 104q10 12 26 12z" />
<glyph unicode="&#xfe;" horiz-adv-x="547" d="M176 15l-33 -189q-2 -13 -13.5 -23t-25.5 -10h-79q-17 0 -28.5 11.5t-11.5 28.5q0 1 0.5 3.5t0.5 3.5l141 807q2 13 13.5 23t25.5 10h80q17 0 28.5 -11.5t11.5 -28.5q0 -1 -0.5 -3.5t-0.5 -3.5l-31 -177q46 26 91 26q83 0 130 -47.5t47 -133.5q0 -141 -78.5 -225 t-188.5 -84q-41 0 -79 23zM233 333l-35 -201q23 -22 52 -22q43 0 73.5 48.5t30.5 124.5q0 81 -61 81q-33 0 -60 -31z" />
<glyph unicode="&#xff;" horiz-adv-x="528" d="M-15 -122l5 -44q1 -16 12.5 -26t26.5 -10q3 0 13 2q79 24 128 57t94 109l262 448q6 10 6 22q0 16 -11.5 27t-29.5 11h-81q-10 0 -21 -7t-15 -16q-99 -213 -116 -266h-7q0 43 -24 254q-2 14 -13.5 24.5t-26.5 10.5h-86q-17 0 -28.5 -11t-11.5 -28q0 -7 1 -10l89 -397 l-14 -26q-35 -61 -123 -86q-11 -3 -20 -14t-9 -24zM347 598q4 25 25.5 43t46.5 18q22 0 36 -14t14 -36q0 -27 -22 -49.5t-52 -22.5q-22 0 -35.5 14t-13.5 35q0 8 1 12zM170 598q4 25 25 43t46 18q22 0 36 -14t14 -36q0 -29 -22.5 -50.5t-50.5 -21.5q-22 0 -35.5 14t-13.5 35 q0 8 1 12z" />
<glyph unicode="&#x152;" horiz-adv-x="1007" d="M598 647q2 13 13.5 23t25.5 10h362q17 0 28.5 -11t11.5 -27q0 -6 -1 -9q-3 -15 -8 -55q-2 -14 -14 -24.5t-26 -10.5h-240q-3 -21 -10 -57.5l-12 -63.5h196q17 0 28.5 -11t11.5 -27q0 -6 -1 -9l-9 -53q-2 -13 -13.5 -23t-25.5 -10h-209q-4 -26 -12.5 -71t-13.5 -81h227 q17 0 28.5 -11t11.5 -27q0 -6 -1 -9q-3 -15 -8 -55q-2 -14 -14 -24.5t-26 -10.5h-366q-18 0 -29.5 9.5t-11.5 25.5q-81 -43 -165 -43q-133 0 -204.5 79.5t-71.5 200.5q0 109 46.5 202.5t139.5 153.5t213 60q87 0 149 -41zM550 401q0 68 -32 105.5t-95 37.5 q-86 0 -141.5 -77.5t-55.5 -195.5q0 -134 126 -134q86 0 142 73.5t56 190.5z" />
<glyph unicode="&#x153;" horiz-adv-x="854" d="M829 265l-7 -37q0 -12 -14 -21.5t-26 -9.5h-264v-11q0 -39 19.5 -60t55.5 -21q50 0 127 25q10 2 13 2q15 0 26.5 -10.5t12.5 -26.5q2 -24 2 -31q0 -11 -8 -22.5t-19 -15.5q-96 -34 -179 -34q-107 0 -157 64q-67 -64 -176 -64q-211 0 -211 181q0 35 6 64q46 245 291 245 q48 0 86 -13t70 -52q69 65 175 65q90 0 136 -42.5t46 -119.5q0 -23 -5 -55zM366 284q0 80 -65 80q-46 0 -77.5 -46.5t-31.5 -126.5q0 -81 64 -81q47 0 78.5 46.5t31.5 127.5zM695 316q0 27 -15.5 45t-43.5 18q-37 0 -63.5 -26.5t-38.5 -66.5h156q5 17 5 30z" />
<glyph unicode="&#x178;" horiz-adv-x="646" d="M372 33l43 236l249 348q9 12 9 25q0 16 -11.5 27t-29.5 11h-96q-7 0 -18 -6t-15 -12l-149 -231h-9l-61 215q-13 34 -52 34h-82q-18 0 -29.5 -11t-11.5 -27q0 -8 3 -15l132 -360l-39 -220q-1 -3 -1 -9q0 -16 11.5 -27t28.5 -11h89q14 0 25.5 10t13.5 23zM440 806 q4 25 25 43t45 18q22 0 35.5 -14t13.5 -36q0 -27 -21.5 -49.5t-50.5 -22.5q-21 0 -34.5 14t-13.5 35q0 8 1 12zM267 806q4 25 24.5 43t44.5 18q22 0 35.5 -14t13.5 -36q0 -29 -22 -50.5t-49 -21.5q-21 0 -34.5 14t-13.5 35q0 8 1 12z" />
<glyph unicode="&#x2c6;" horiz-adv-x="349" d="M235 680h47q7 0 17 -6t13 -12l43 -84q4 -8 4 -18v-6q-3 -16 -16.5 -27t-31.5 -11h-8q-20 0 -31 19l-28 62l-51 -62q-5 -7 -17 -13t-20 -6h-8q-16 0 -25.5 9t-9.5 22q0 1 0.5 3.5t0.5 3.5q1 10 12 24l73 84q5 6 17 12t19 6z" />
<glyph unicode="&#x2dc;" horiz-adv-x="351" d="M183 580q-4 0 -10 -10t-16.5 -20t-26.5 -10h-18q-26 0 -26 24l1 10q15 48 44 67t57 19q21 0 45 -11t41 -22.5t18 -11.5q4 0 8 6.5l8.5 13.5t14 13.5t22.5 6.5h18q28 0 28 -24q0 -1 -0.5 -3t-0.5 -3l-1 -4q-15 -47 -44.5 -66.5t-56.5 -19.5q-21 0 -44.5 10.5t-40.5 22 t-20 12.5z" />
<glyph unicode="&#x2000;" horiz-adv-x="455" />
<glyph unicode="&#x2001;" horiz-adv-x="910" />
<glyph unicode="&#x2002;" horiz-adv-x="455" />
<glyph unicode="&#x2003;" horiz-adv-x="910" />
<glyph unicode="&#x2004;" horiz-adv-x="303" />
<glyph unicode="&#x2005;" horiz-adv-x="227" />
<glyph unicode="&#x2006;" horiz-adv-x="151" />
<glyph unicode="&#x2007;" horiz-adv-x="151" />
<glyph unicode="&#x2008;" horiz-adv-x="113" />
<glyph unicode="&#x2009;" horiz-adv-x="182" />
<glyph unicode="&#x200a;" horiz-adv-x="50" />
<glyph unicode="&#x2010;" horiz-adv-x="406" d="M366 262l-9 -53q-2 -13 -13.5 -23t-25.5 -10h-239q-17 0 -28.5 11t-11.5 27q0 6 1 9l10 53q2 13 13.5 23t25.5 10h238q17 0 28.5 -11.5t11.5 -28.5q0 -1 -0.5 -3.5t-0.5 -3.5z" />
<glyph unicode="&#x2011;" horiz-adv-x="406" d="M366 262l-9 -53q-2 -13 -13.5 -23t-25.5 -10h-239q-17 0 -28.5 11t-11.5 27q0 6 1 9l10 53q2 13 13.5 23t25.5 10h238q17 0 28.5 -11.5t11.5 -28.5q0 -1 -0.5 -3.5t-0.5 -3.5z" />
<glyph unicode="&#x2013;" horiz-adv-x="642" d="M624 244l-4 -26q-1 -15 -13 -25.5t-27 -10.5h-525q-17 0 -29 11t-12 27q0 1 0.5 3t0.5 3l5 29q1 15 13 25.5t27 10.5h525q17 0 28.5 -11.5t11.5 -28.5q0 -1 -0.5 -3.5t-0.5 -3.5z" />
<glyph unicode="&#x2014;" horiz-adv-x="986" d="M970 244l-4 -26q-1 -15 -13 -25.5t-27 -10.5h-871q-17 0 -29 11t-12 27q0 1 0.5 3t0.5 3l5 29q1 15 13 25.5t27 10.5h871q17 0 28.5 -11.5t11.5 -28.5q0 -1 -0.5 -3.5t-0.5 -3.5z" />
<glyph unicode="&#x2018;" horiz-adv-x="272" d="M44 431q0 97 101 269q20 33 46 33q1 0 2 -0.5t2 -0.5l48 -15q29 -9 29 -38q0 -6 -4 -16q-47 -116 -56 -225q0 -34 -29 -59t-62 -25t-55 21.5t-22 55.5z" />
<glyph unicode="&#x2019;" horiz-adv-x="278" d="M298 610q0 -97 -111 -283q-11 -18 -33 -18q-7 0 -9 1l-46 14q-29 9 -29 38q0 6 4 16q45 113 56 225q0 34 29 59t61 25q34 0 56 -21.5t22 -55.5z" />
<glyph unicode="&#x201a;" horiz-adv-x="303" d="M250 103q0 -94 -143 -293q-12 -17 -34 -17q-6 0 -8 1l-45 14q-31 8 -31 38q0 9 5 19q58 117 79 224q7 35 36.5 59.5t66.5 24.5q33 0 53.5 -19.5t20.5 -50.5z" />
<glyph unicode="&#x201c;" horiz-adv-x="519" d="M70 431q0 97 101 269q19 33 46 33q2 0 8.5 -2t10.5 -3l34 -11q28 -10 28 -38q0 -6 -4 -16q-46 -116 -56 -225q0 -34 -28.5 -59t-62.5 -25q-33 0 -55 22t-22 55zM291 431q0 99 111 283q10 19 33 19q7 0 9 -1l46 -15q29 -10 29 -38q0 -6 -4 -16q-47 -116 -56 -225 q0 -34 -29 -59t-62 -25t-55 21.5t-22 55.5z" />
<glyph unicode="&#x201d;" horiz-adv-x="519" d="M519 610q0 -95 -101 -269q-19 -33 -46 -33q-25 0 -53 15.5t-28 38.5q0 1 3 16q47 116 57 225q0 34 28.5 59t61.5 25t55.5 -21.5t22.5 -55.5zM298 610q0 -97 -111 -283q-11 -18 -33 -18q-7 0 -9 1l-46 14q-29 9 -29 38q0 6 4 16q45 113 56 225q0 34 29 59t61 25 q34 0 56 -21.5t22 -55.5z" />
<glyph unicode="&#x201e;" horiz-adv-x="556" d="M483 103q0 -98 -143 -294q-12 -16 -34 -16q-5 0 -8 1l-45 14q-31 8 -31 38q0 9 5 19q58 117 79 224q7 35 36.5 59.5t66.5 24.5q33 0 53.5 -19.5t20.5 -50.5zM251 103q0 -94 -143 -293q-12 -17 -34 -17q-6 0 -8 1l-45 14q-31 8 -31 38q0 9 5 19q58 117 79 224 q7 35 36.5 59.5t66.5 24.5q33 0 53.5 -19.5t20.5 -50.5z" />
<glyph unicode="&#x2022;" horiz-adv-x="420" d="M209 509q69 0 118 -49.5t49 -120.5t-49 -121t-118 -50q-68 0 -116.5 50t-48.5 121t48.5 120.5t116.5 49.5z" />
<glyph unicode="&#x2026;" horiz-adv-x="1069" d="M119 -8q-37 0 -58 19.5t-21 52.5q0 49 31.5 80t78.5 31q37 0 57.5 -19.5t20.5 -53.5q0 -49 -31.5 -79t-77.5 -31zM491 -8q-37 0 -58 19.5t-21 52.5q0 49 31.5 80t78.5 31q37 0 57.5 -19.5t20.5 -53.5q0 -49 -31.5 -79t-77.5 -31zM863 -8q-37 0 -58 19.5t-21 52.5 q0 49 31.5 80t78.5 31q37 0 57.5 -19.5t20.5 -53.5q0 -49 -31.5 -79t-77.5 -31z" />
<glyph unicode="&#x202f;" horiz-adv-x="182" />
<glyph unicode="&#x2039;" horiz-adv-x="343" d="M224 0h-85q-11 0 -22 7.5t-15 17.5l-78 191q-2 6 -2 13q0 18 7 26l154 203q4 5 14.5 10.5t17.5 5.5h72q18 0 29.5 -11t11.5 -27q0 -14 -9 -26l-130 -174l72 -181q3 -9 3 -17q0 -16 -11 -27t-29 -11z" />
<glyph unicode="&#x203a;" horiz-adv-x="343" d="M127 0h-72q-18 0 -29.5 11t-11.5 27q0 14 9 26l130 173l-73 182q-3 9 -3 17q0 16 11 27t29 11h85q10 0 21.5 -8t15.5 -18q14 -38 40 -98.5t38 -92.5q2 -6 2 -12q0 -17 -7 -26l-153 -203q-4 -5 -14.5 -10.5t-17.5 -5.5z" />
<glyph unicode="&#x205f;" horiz-adv-x="227" />
<glyph unicode="&#x20ac;" horiz-adv-x="628" d="M665 627l-32 -76q-13 -29 -43 -29q-8 0 -13 2q-48 21 -93 21q-69 0 -110 -21.5t-64 -68.5h203q14 0 22.5 -9t8.5 -24q0 -7 -1 -10q-2 -16 -15.5 -28t-29.5 -12h-215l-11 -64h215q14 0 23 -9.5t9 -25.5q0 -1 -0.5 -4t-0.5 -4q-3 -16 -16.5 -28t-28.5 -12h-204 q7 -47 40.5 -68.5t102.5 -21.5q48 0 101 20q8 3 15 3q12 0 21 -8t10 -22l4 -75q-5 -30 -33 -38q-69 -23 -134 -23q-141 0 -220 52.5t-83 180.5h-27q-14 0 -22.5 9t-8.5 24q0 7 1 10q2 16 15.5 28t29.5 12h16q2 20 4 32q3 19 7 32h-16q-14 0 -23 9.5t-9 25.5q0 1 0.5 4t0.5 4 q3 16 16.5 28t28.5 12h27q34 88 94 141.5t130 72.5t162 19q69 0 128 -23q19 -8 19 -30q0 -1 -0.5 -3.5t-0.5 -4.5z" />
<glyph unicode="&#x2122;" horiz-adv-x="601" d="M274 618h-52l-34 -188q-2 -13 -11.5 -21.5t-21.5 -8.5h-23q-10 0 -17 7t-7 17q0 1 0.5 3t0.5 3l33 188h-52q-19 0 -19 22q0 5 1 8q6 32 29 32h181q20 0 20 -25q0 -1 -0.5 -4t-0.5 -4q-6 -29 -27 -29zM603 651l-32 -220q-3 -13 -12.5 -22t-21.5 -9h-20q-11 0 -17.5 7 t-6.5 17v5q2 11 10.5 61.5t9.5 59.5l-52 -54q-12 -12 -24 -12q-13 0 -19 12l-33 54q-2 -14 -11.5 -62.5l-11.5 -58.5q-2 -12 -12 -20.5t-22 -8.5h-20q-24 0 -24 25q0 1 0.5 3t0.5 3l46 220q2 12 12 20.5t22 8.5h28q14 0 21 -12l42 -78l70 78q12 12 25 12h28q10 0 17 -7 t7 -18v-4z" />
</font>
</defs>
</svg>
