<?xml version="1.0" standalone="no"?>
<!DOCTYPE svg PUBLIC "-//W3C//DTD SVG 1.1//EN" "http://www.w3.org/Graphics/SVG/1.1/DTD/svg11.dtd" >
<svg xmlns="http://www.w3.org/2000/svg">
<metadata>
This is a custom SVG webfont generated by Fontspring.
Designer    : Nicholas Garner
Foundry     : Aviation Partners
Foundry URL : http://www.codesign.co.uk
</metadata>
<defs>
<font id="webfontBemaqNsd" horiz-adv-x="588" >
<font-face units-per-em="1000" ascent="800" descent="-200" />
<missing-glyph horiz-adv-x="220" />
<glyph unicode=" "  horiz-adv-x="220" />
<glyph unicode="&#x09;" horiz-adv-x="220" />
<glyph unicode="&#xa0;" horiz-adv-x="220" />
<glyph unicode="!" horiz-adv-x="241" d="M126 40q0 -22 -13.5 -35t-34.5 -13q-34 0 -34 31q0 22 13.5 35t34.5 13q34 0 34 -31zM95 184l76 483q2 13 15 13h18q15 0 15 -15l-94 -484q-1 -10 -14 -10q-16 0 -16 13z" />
<glyph unicode="&#x22;" horiz-adv-x="305" d="M201 665l-49 -224q-2 -12 -15 -12h-5q-6 0 -10.5 4.5t-4.5 10.5l31 223q2 13 15 13h23q15 0 15 -15zM225 444l28 223q2 13 15 13h24q15 0 15 -15l-47 -224q-2 -12 -15 -12h-5q-6 0 -10.5 4.5t-4.5 10.5z" />
<glyph unicode="#" horiz-adv-x="544" d="M340 160l35 198h-172l-16.5 -94.5l-18.5 -103.5h172zM477 114h-100l-25 -145q-2 -13 -15 -13l-18 3q-11 3 -11 16l23 139h-172l-25 -145q-2 -13 -15 -13l-18 3q-11 3 -11 16l23 139h-89q-6 0 -10.5 4.5t-4.5 10.5v16q0 6 4.5 10.5t10.5 4.5h98l16.5 94.5l18.5 103.5h-90 q-6 0 -10.5 4.5t-4.5 10.5v16q0 6 4.5 10.5t10.5 4.5h98l25 145q2 13 15 13l18 -3q11 -3 11 -16l-23 -139h172l25 145q2 13 15 13l18 -3q11 -3 11 -16l-23 -139h91q6 0 10.5 -4.5t4.5 -10.5v-16q0 -6 -4.5 -10.5t-10.5 -4.5h-98l-16.5 -94.5l-18.5 -103.5h90q6 0 10.5 -4.5 t4.5 -10.5v-16q0 -6 -4.5 -10.5t-10.5 -4.5z" />
<glyph unicode="$" horiz-adv-x="463" d="M25 58l12 22q3 7 11 7q6 0 10 -3q54 -42 127 -42q66 0 111 41.5t45 104.5q0 41 -28.5 74t-79.5 69q-61 42 -91.5 79t-30.5 86q0 76 49 126.5t122 62.5l15 82q2 13 15 13h20q15 0 15 -14l-13 -78q60 -5 98 -29q7 -5 7 -14q0 -3 -1 -5l-10 -22q-3 -10 -14 -10q-2 0 -8 2 q-47 28 -98 28q-57 0 -100.5 -34.5t-43.5 -92.5q0 -26 17 -51.5t34.5 -40t52.5 -39.5q30 -22 47 -36t39 -37.5t32 -49t10 -55.5q0 -83 -54.5 -140t-130.5 -68l-14 -81q-2 -12 -15 -12h-20q-15 0 -15 14l13 78q-81 7 -131 46q-5 5 -5 13q0 4 1 6z" />
<glyph unicode="%" horiz-adv-x="777" d="M166 0h-10q-15 0 -15 14q0 6 3 10l489 649q4 6 12 6h8q15 0 15 -14q0 -5 -3 -10l-487 -649q-4 -6 -12 -6zM181 268q-47 0 -75 41t-28 108q0 108 54 189.5t123 81.5q48 0 75.5 -41.5t27.5 -108.5q0 -110 -54.5 -190t-122.5 -80zM248 650q-47 0 -86 -71t-39 -158 q0 -51 17.5 -82.5t47.5 -31.5q45 0 85 70t40 156q0 51 -17.5 84t-47.5 33zM556 -8q-47 0 -75 41t-28 108q0 108 54 189.5t123 81.5q49 0 76.5 -40.5t27.5 -107.5q0 -110 -54.5 -191t-123.5 -81zM623 374q-44 0 -83.5 -71t-39.5 -157q0 -51 17 -83t46 -32q46 0 86.5 70 t40.5 156q0 52 -18 84.5t-49 32.5z" />
<glyph unicode="&#x26;" horiz-adv-x="658" d="M309 362v-4l140 -200q67 63 150 180q6 6 14 6l16 -4q11 -3 11 -14q0 -6 -3 -10q-92 -129 -163 -193l72 -99q3 -4 3 -10q0 -14 -15 -14h-28q-8 0 -12 6l-61 81q-118 -95 -226 -95q-73 0 -119.5 37t-46.5 98q0 124 196 241q-64 91 -64 156q0 73 54.5 118.5t122.5 45.5 q54 0 89 -32t35 -84q0 -111 -165 -210zM407 123l-147 211q-168 -108 -168 -193q0 -43 35 -72t86 -29q93 0 194 83zM222 537q0 -50 63 -137q70 41 104.5 84.5t34.5 80.5q0 34 -23.5 54.5t-61.5 20.5q-43 0 -80 -29.5t-37 -73.5z" />
<glyph unicode="'" horiz-adv-x="217" d="M210 665l-50 -227q-3 -9 -14 -9q-7 0 -13 4t-6 10l29 224q2 13 15 13h24q15 0 15 -15z" />
<glyph unicode="(" horiz-adv-x="287" d="M152 -207h-10q-9 0 -13 8q-59 120 -59 275q0 161 56 320.5t159 277.5q5 5 11 5h4q15 0 15 -14q0 -5 -3 -10q-39 -55 -66 -100t-61 -119.5t-52.5 -165.5t-18.5 -193q0 -137 52 -263q1 -2 1 -6q0 -15 -15 -15z" />
<glyph unicode=")" horiz-adv-x="287" d="M133 679h10q9 0 13 -8q59 -120 59 -275q0 -161 -56 -320.5t-159 -277.5q-5 -5 -11 -5h-4q-15 0 -15 14q0 5 3 10q39 55 66 100t61 119.5t52.5 165.5t18.5 193q0 137 -52 263q-1 2 -1 6q0 15 15 15z" />
<glyph unicode="*" horiz-adv-x="447" d="M457 439l-2 -9l-18 -30q-5 -9 -14 -9q-5 0 -7 2l-116 77l-10 -9l49 -136q1 -2 1 -4v-4q-2 -10 -11 -13l-31 -13q-2 -1 -6 -1q-11 0 -11 11l-14 151h-11l-66 -151q-6 -11 -17 -11q-3 0 -5 1l-26 13q-7 3 -7 10q1 8 4 11l99 136l-8 9l-143 -77q-3 -2 -8 -2q-9 0 -12 9 l-7 30v6q3 12 14 15l151 42l2 11q-123 39 -137 43q-8 3 -8 11l2 9l18 30q4 9 14 9q5 0 7 -2l116 -78l12 10q-44 113 -51 136q-1 2 -1 7q2 9 11 14l31 13q2 1 6 1q11 0 11 -11l14 -151h13l64 151q5 11 16 11q4 0 5 -1l27 -13q7 -3 7 -10q-1 -8 -4 -11l-97 -136l8 -10l142 78 q6 2 8 2q9 0 11 -9l7 -30v-6q-3 -11 -13 -14l-151 -43l-2 -12l136 -41q8 -3 8 -12z" />
<glyph unicode="+" horiz-adv-x="546" d="M510 245v-16q0 -6 -4.5 -10.5t-10.5 -4.5h-199v-199q0 -6 -4.5 -10.5t-10.5 -4.5h-16q-6 0 -10.5 4.5t-4.5 10.5v199h-199q-6 0 -10.5 4.5t-4.5 10.5v16q0 6 4.5 10.5t10.5 4.5h199v199q0 6 4.5 10.5t10.5 4.5h16q6 0 10.5 -4.5t4.5 -10.5v-199h199q6 0 10.5 -4.5 t4.5 -10.5z" />
<glyph unicode="," horiz-adv-x="201" d="M-15 -165l-10 7q-4 4 -4 10t3 10q62 85 77 171q5 15 17.5 26.5t24.5 11.5t21 -8.5t9 -20.5q0 -60 -117 -204q-4 -6 -13 -6q-5 0 -8 3z" />
<glyph unicode="-" horiz-adv-x="386" d="M332 239l-3 -19q-2 -13 -15 -13h-249q-15 0 -15 17l4 19q2 13 15 13h248q15 0 15 -17z" />
<glyph unicode="." horiz-adv-x="208" d="M78 -8q-15 0 -24.5 8.5t-9.5 22.5q0 21 13.5 34.5t33.5 13.5q35 0 35 -32q0 -21 -14 -34t-34 -13z" />
<glyph unicode="/" horiz-adv-x="343" d="M-18 -50l360 721q4 8 13 8h15q15 0 15 -14q0 -2 -2 -8l-360 -721q-4 -8 -13 -8h-15q-15 0 -15 14q0 2 2 8z" />
<glyph unicode="0" horiz-adv-x="488" d="M479 445q0 -91 -24 -175.5t-62.5 -145t-89.5 -97t-103 -36.5q-74 0 -115.5 67.5t-41.5 177.5q0 180 85.5 316t194.5 136q74 0 115 -67.5t41 -175.5zM427 440q0 89 -30.5 143.5t-82.5 54.5q-79 0 -149 -124.5t-70 -275.5q0 -90 31 -144t83 -54q51 0 101.5 56t83.5 150 t33 194z" />
<glyph unicode="1" horiz-adv-x="492" d="M122 526l-1 14q0 8 7 13l188 121q12 6 19 6h10q15 0 15 -15l-108 -617h138q15 0 15 -14l-3 -21q-2 -13 -15 -13h-331q-15 0 -15 14l3 21q2 13 15 13h142l100 570l-156 -104q-5 -3 -10 -3q-11 0 -13 15z" />
<glyph unicode="2" horiz-adv-x="494" d="M318 638q-64 0 -150 -62q-4 -3 -10 -3q-12 0 -14 13q-1 7 -1 19q0 8 6 12q103 71 177 71q68 0 109.5 -39t41.5 -108q0 -75 -76.5 -179t-292.5 -314h268q15 0 15 -14l-3 -21q-2 -13 -15 -13h-331q-6 0 -10.5 4.5t-4.5 10.5q0 2 0.5 5.5t0.5 4.5q1 3 1 6q0 6 5 11 q128 121 210.5 208.5t120 142.5t50 86t12.5 60q0 48 -29.5 73.5t-79.5 25.5z" />
<glyph unicode="3" horiz-adv-x="492" d="M189 -8q-75 0 -157 50q-7 5 -7 14q0 3 1 5l10 22q4 9 14 9q5 0 8 -2q76 -49 140 -49q74 0 126.5 49.5t52.5 130.5q0 97 -165 102q-15 0 -15 14l4 23q2 13 14 13q64 2 112 32.5t69 68t21 72.5q0 43 -28 67.5t-78 24.5q-53 0 -145 -45q-4 -2 -7 -2q-13 0 -15 14 q-1 12 -1 20q0 9 8 13q97 50 169 50q67 0 108.5 -40t41.5 -102q0 -52 -37 -106.5t-101 -82.5v-4q47 -14 71.5 -51t24.5 -83q0 -103 -70 -165t-169 -62z" />
<glyph unicode="4" horiz-adv-x="488" d="M396 591h-7q-162 -210 -281 -351v-7q70 2 170 2h51l36 209q14 77 31 147zM46 239l359 436q5 5 12 5h19q15 0 15 -15l-75 -430h51q15 0 15 -14l-4 -21q-2 -13 -15 -13h-56l-30 -174q-2 -13 -15 -13h-16q-15 0 -15 14l29 173h-271q-6 0 -10.5 4.5t-4.5 10.5l4 19q2 12 8 18 z" />
<glyph unicode="5" horiz-adv-x="494" d="M133 404l65 264q1 4 5.5 8t9.5 4h249q15 0 15 -15l-3 -20q-2 -12 -15 -12h-222l-22.5 -91.5t-25.5 -100.5q33 3 57 3q83 0 129.5 -50.5t46.5 -129.5q0 -108 -77.5 -190t-178.5 -82q-55 0 -117 19q-11 3 -11 14q0 4 1 6l10 21q3 9 15 9q0 -1 2 -1h2q59 -19 107 -19 q76 0 135.5 68t59.5 154q0 61 -34 96.5t-99 35.5q-41 0 -86 -10q-1 0 -2 -0.5t-2 -0.5q-15 0 -15 15q0 1 0.5 2.5t0.5 2.5z" />
<glyph unicode="6" horiz-adv-x="487" d="M199 -8q-81 0 -129 49.5t-48 130.5q0 75 29.5 148.5t83.5 138.5t105 113t119 101q11 7 24 7h22q15 0 15 -15q0 -7 -6 -12q-158 -118 -249 -236v-6q52 34 114 34q80 0 128 -49.5t48 -131.5q0 -119 -75.5 -195.5t-180.5 -76.5zM270 395q-91 0 -143 -62.5t-52 -160.5 q0 -62 35 -96.5t98 -34.5q81 0 138 63.5t57 159.5q0 62 -34.5 96.5t-98.5 34.5z" />
<glyph unicode="7" horiz-adv-x="487" d="M166 633l-25 -145q-2 -13 -15 -13h-12q-15 0 -15 15l30 178q2 12 15 12h381q6 0 10.5 -4.5t4.5 -10.5l-1 -12q-2 -10 -6 -18l-383 -628q-5 -7 -13 -7h-22q-16 0 -16 14q0 4 3 9l375 610h-311z" />
<glyph unicode="8" horiz-adv-x="488" d="M426 198q0 -88 -65.5 -147.5t-160.5 -59.5q-75 0 -119.5 41.5t-44.5 106.5q0 146 175 220q-93 57 -93 145q0 77 61 130.5t144 53.5q67 0 107.5 -40t40.5 -99q0 -119 -152 -187q107 -60 107 -164zM374 196q0 90 -114 136q-73 -26 -122 -78.5t-49 -116.5q0 -47 32 -71.5 t88 -24.5q68 0 116.5 44t48.5 111zM170 500q0 -73 100 -111q66 22 107.5 65.5t41.5 95.5q0 42 -29.5 65t-75.5 23q-49 0 -90.5 -33.5t-51.5 -85.5q-2 -14 -2 -19z" />
<glyph unicode="9" horiz-adv-x="487" d="M321 688q81 0 129 -49.5t48 -130.5q0 -75 -29.5 -148.5t-83.5 -138.5t-105 -113t-119 -101q-11 -7 -24 -7h-22q-15 0 -15 15q0 7 6 12q158 118 249 236v6q-52 -34 -114 -34q-80 0 -128 49.5t-48 131.5q0 119 75.5 195.5t180.5 76.5zM250 285q91 0 143 62.5t52 160.5 q0 62 -35 96.5t-98 34.5q-81 0 -138 -63.5t-57 -159.5q0 -62 34.5 -96.5t98.5 -34.5z" />
<glyph unicode=":" horiz-adv-x="208" d="M137 330q-34 0 -34 31q0 21 13.5 34.5t33.5 13.5q35 0 35 -32q0 -21 -14 -34t-34 -13zM78 -8q-34 0 -34 31q0 21 13 34.5t34 13.5q35 0 35 -32q0 -21 -14 -34t-34 -13z" />
<glyph unicode=";" horiz-adv-x="205" d="M134 330q-15 0 -24.5 8.5t-9.5 22.5q0 21 13.5 34.5t33.5 13.5q35 0 35 -32q0 -21 -14 -34t-34 -13zM-15 -165l-10 7q-4 4 -4 10t3 10q62 85 77 171q5 15 17.5 26.5t24.5 11.5t21 -8.5t9 -20.5q0 -60 -117 -204q-4 -6 -13 -6q-5 0 -8 3z" />
<glyph unicode="&#x3c;" horiz-adv-x="546" d="M45 263l431 207q2 1 6 1q8 0 13 -8l7 -14q2 -4 2 -7q0 -8 -8 -13q-322 -156 -403 -190l403 -193q8 -5 8 -13q0 -3 -2 -7l-7 -14q-5 -8 -13 -8q-4 0 -6 1l-431 207q-9 4 -9 14v23q0 9 9 14z" />
<glyph unicode="=" horiz-adv-x="546" d="M51 359h444q6 0 10.5 -4.5t4.5 -10.5v-16q0 -6 -4.5 -10.5t-10.5 -4.5h-444q-6 0 -10.5 4.5t-4.5 10.5v16q0 6 4.5 10.5t10.5 4.5zM51 161h444q6 0 10.5 -4.5t4.5 -10.5v-16q0 -6 -4.5 -10.5t-10.5 -4.5h-444q-6 0 -10.5 4.5t-4.5 10.5v16q0 6 4.5 10.5t10.5 4.5z" />
<glyph unicode="&#x3e;" horiz-adv-x="546" d="M495 212l-431 -207q-2 -1 -6 -1q-8 0 -13 8l-7 14q-2 4 -2 7q0 8 8 13q322 156 403 190l-403 193q-8 5 -8 13q0 3 2 7l7 14q5 8 13 8q4 0 6 -1l431 -207q9 -5 9 -14v-23q0 -10 -9 -14z" />
<glyph unicode="?" horiz-adv-x="378" d="M155 40q0 -22 -13.5 -35t-34.5 -13q-34 0 -34 31q0 22 13.5 35t34.5 13q34 0 34 -31zM118 637l-1 13q0 10 9 14q57 24 115 24q67 0 101 -30.5t34 -79.5q0 -29 -9 -55t-31 -55t-37.5 -46t-50.5 -52q-43 -43 -61.5 -80.5t-31.5 -105.5q-3 -12 -15 -12h-9q-15 0 -15 14 q19 128 90 197q63 63 90.5 102t27.5 85q0 71 -101 71q-39 0 -84 -18q-2 -1 -6 -1q-13 0 -15 15z" />
<glyph unicode="@" horiz-adv-x="765" d="M473 -80l3 -10q1 -2 1 -5q0 -11 -10 -14q-57 -19 -118 -19q-144 0 -229 91t-85 233q0 171 108 288.5t270 117.5q139 0 228 -85t89 -215q0 -122 -57 -188t-126 -66q-36 0 -60 22.5t-24 63.5v11h-4q-53 -97 -142 -97q-46 0 -73.5 30t-27.5 86q0 61 20.5 113t51.5 83.5 t66 49t67 17.5q63 0 122 -42q5 -3 5 -13q-41 -151 -41 -208q0 -72 53 -72q11 0 23 3t31 15t33.5 32.5t25 60t10.5 92.5q0 117 -76 190t-197 73q-142 0 -235 -102t-93 -257q0 -126 73 -204.5t198 -78.5q53 0 102 14q1 0 2 0.5t2 0.5q11 0 14 -11zM496 354q-38 29 -81 29 q-47 0 -94 -50t-57 -145q-1 -5 -1 -14q0 -37 21.5 -59.5t51.5 -22.5q41 0 77 45t56.5 103t26.5 114z" />
<glyph unicode="A" d="M510 0h-23q-13 0 -15 12l-33 174h-304l-95 -178q-4 -8 -13 -8h-25q-15 0 -15 14q0 5 2 8l357 650q4 8 13 8h22q13 0 15 -12l129 -650q0 -18 -15 -18zM163 234h266q-1 0 -14.5 77.5l-29.5 170.5t-20 126h-5q-28 -59 -197 -374z" />
<glyph unicode="B" horiz-adv-x="553" d="M183 681q98 7 122 7q110 0 155 -40.5t45 -99.5q0 -58 -34 -110.5t-91 -74.5q50 -16 83.5 -56t33.5 -95q0 -42 -15.5 -79t-48 -70t-90.5 -52t-135 -19q-73 0 -143 5q-14 2 -14 15l115 656q2 13 17 13zM157 331l-50 -284q54 -6 122 -6q59 0 103 16.5t67.5 44t34.5 57 t11 60.5q0 51 -39 81.5t-109 30.5h-140zM210 634l-45 -255h121q67 0 116 50t49 114q0 96 -143 96q-60 0 -98 -5z" />
<glyph unicode="C" horiz-adv-x="585" d="M515 67l2 -19q0 -10 -9 -14q-87 -42 -182 -42q-119 0 -191 79.5t-72 202.5q0 171 116 292.5t270 121.5q90 0 163 -40q8 -5 8 -13q0 -4 -1 -6l-10 -22q-5 -9 -14 -9q-5 0 -8 2q-65 39 -147 39q-126 0 -224.5 -109.5t-98.5 -255.5q0 -104 60 -168.5t158 -64.5q76 0 159 38 q4 2 7 2q12 0 14 -14z" />
<glyph unicode="D" horiz-adv-x="666" d="M639 408q0 -79 -28 -152t-80 -132.5t-137 -95.5t-190 -36q-83 0 -139 6q-13 2 -13 15l114 657q2 10 13 12q43 6 148 6q157 0 234.5 -79t77.5 -201zM210 634l-103 -588q52 -5 114 -5q154 0 259 100.5t105 275.5q0 110 -68 166t-191 56q-61 0 -116 -5z" />
<glyph unicode="E" horiz-adv-x="476" d="M210 632l-45 -254h234q15 0 15 -15l-3 -20q-2 -12 -15 -12h-239l-50 -283h268q15 0 15 -14l-3 -21q-2 -13 -15 -13h-305q-15 0 -15 15l114 653q2 12 15 12h301q15 0 15 -15l-3 -20q-2 -13 -15 -13h-269z" />
<glyph unicode="F" horiz-adv-x="450" d="M157 331l-56 -319q-2 -12 -15 -12h-19q-15 0 -15 15l114 653q2 12 15 12h291q15 0 15 -15l-3 -20q-2 -13 -15 -13h-259l-45 -254h229q15 0 15 -15l-3 -20q-2 -12 -15 -12h-234z" />
<glyph unicode="G" horiz-adv-x="671" d="M595 335l-54 -306q-2 -10 -11 -12q-38 -10 -102.5 -17.5t-101.5 -7.5q-119 0 -191 79t-72 202q0 171 116 293t270 122q90 0 163 -40q8 -5 8 -13q0 -4 -1 -6l-10 -22q-5 -9 -14 -9q-5 0 -8 2q-65 39 -147 39q-126 0 -224.5 -109.5t-98.5 -255.5q0 -104 60 -168.5 t158 -64.5q69 0 163 18l43 243h-120q-15 0 -15 14l3 21q2 13 15 13h156q15 0 15 -15z" />
<glyph unicode="H" horiz-adv-x="656" d="M639 665l-114 -653q-2 -12 -15 -12h-18q-15 0 -15 15l54 312h-375q-8 -51 -55 -315q-2 -12 -15 -12h-19q-15 0 -15 15l114 653q2 12 15 12h19q15 0 15 -14l-51 -291h376l51 293q2 12 15 12h18q15 0 15 -15z" />
<glyph unicode="I" horiz-adv-x="398" d="M392 634h-100l-103 -588h95q15 0 15 -15l-3 -19q-2 -12 -15 -12h-244q-15 0 -15 15l3 19q2 12 15 12h100l103 588h-95q-15 0 -15 15l3 19q2 12 15 12h244q15 0 15 -15l-3 -19q-2 -12 -15 -12z" />
<glyph unicode="J" horiz-adv-x="400" d="M243 151l85 483h-148q-15 0 -15 15l3 19q2 12 15 12h185q15 0 15 -15l-90 -513q-12 -70 -62 -115t-115 -45q-56 0 -101 33q-6 4 -6 12q0 3 2 7l11 19q3 8 12 8q6 0 10 -3q32 -27 80 -27q42 0 76 30t43 80z" />
<glyph unicode="K" horiz-adv-x="544" d="M168 388l310 286q8 6 18 6h19q15 0 15 -15q0 -6 -5 -11l-303 -282l255 -348q3 -4 3 -10q0 -14 -15 -14h-27q-7 0 -16 11l-258 356l-62 -354q-2 -13 -15 -13h-19q-15 0 -15 18l114 650q2 12 15 12h20q15 0 15 -18z" />
<glyph unicode="L" horiz-adv-x="457" d="M215 665l-108 -617h275q15 0 15 -14l-3 -21q-2 -13 -15 -13h-312q-15 0 -15 15l114 653q2 12 15 12h19q15 0 15 -15z" />
<glyph unicode="M" horiz-adv-x="787" d="M407 329l277 345q6 6 12 6h47q6 0 10.5 -4.5t4.5 -10.5l-94 -652q-2 -13 -15 -13h-20q-14 0 -14 13q10 75 44.5 308.5t45.5 298.5h-4l-292 -368q-6 -6 -13 -6q-8 0 -13 9l-160 365h-5l-122 -608q-2 -12 -15 -12h-20q-15 0 -15 15l135 653q2 12 15 12h41q9 0 14 -9z" />
<glyph unicode="N" horiz-adv-x="686" d="M514 58h4q7 60 17 114l87 496q2 12 15 12h19q15 0 15 -15l-114 -653q-2 -12 -15 -12h-45q-9 0 -14 9l-272 611h-4q-10 -72 -17 -113l-87 -495q-2 -12 -15 -12h-19q-15 0 -15 15l114 653q2 12 15 12h45q10 0 14 -9z" />
<glyph unicode="O" horiz-adv-x="721" d="M439 688q119 0 187 -77t68 -199q0 -176 -110 -298t-268 -122q-119 0 -186.5 75.5t-67.5 196.5q0 175 110.5 299.5t266.5 124.5zM325 41q129 0 222 108.5t93 266.5q0 104 -55.5 163.5t-154.5 59.5q-128 0 -221.5 -109.5t-93.5 -266.5q0 -103 56 -162.5t154 -59.5z" />
<glyph unicode="P" horiz-adv-x="501" d="M512 517q0 -81 -38.5 -139.5t-94 -84t-117.5 -25.5h-116l-45 -256q-2 -12 -15 -12h-19q-15 0 -15 15l114 655q2 10 13 12q52 6 127 6q110 0 158 -48.5t48 -122.5zM457 517q0 122 -149 122q-46 0 -98 -5l-56 -318h122q76 0 128.5 57.5t52.5 143.5z" />
<glyph unicode="Q" horiz-adv-x="721" d="M355 -6q2 -31 48.5 -52.5t124.5 -25.5q14 0 14 -14q0 -4 -1 -6l-8 -19q-4 -10 -14 -10q-103 1 -158 37.5t-68 88.5q-112 9 -171.5 83t-59.5 188q0 176 110 300t267 124q118 0 186.5 -77.5t68.5 -198.5q0 -163 -98.5 -283.5t-240.5 -134.5zM115 263q0 -102 56 -161.5 t154 -59.5q129 0 222 107.5t93 265.5q0 103 -56 163.5t-154 60.5q-93 0 -167.5 -60.5t-111 -145t-36.5 -170.5z" />
<glyph unicode="R" horiz-adv-x="535" d="M151 297l-50 -285q-2 -12 -15 -12h-19q-15 0 -15 15l114 653q2 12 15 12q56 8 125 8q56 0 96 -15.5t59.5 -41.5t28 -52.5t8.5 -56.5q0 -80 -51.5 -135t-118.5 -75l-1 -4q58 -35 111 -182l38 -106q1 -2 1 -6q0 -14 -15 -14h-28q-10 0 -14 11q-9 34 -23 73.5t-37 92 t-55 86.5t-64 34h-90zM444 520q0 50 -31.5 84.5t-104.5 34.5q-48 0 -98 -5q-8 -49 -25 -142.5l-26 -146.5h93q84 0 138 50.5t54 124.5z" />
<glyph unicode="S" horiz-adv-x="446" d="M13 56l12 22q3 8 12 8q5 0 10 -3q55 -42 127 -42q67 0 112 44t45 108q0 30 -18.5 59t-38 45.5t-56.5 44.5q-39 28 -59 45.5t-39.5 48.5t-19.5 65q0 87 63.5 137t146.5 50q59 0 110 -29q8 -5 8 -14q0 -3 -1 -5l-11 -22q-4 -9 -14 -9q-5 0 -8 2q-47 28 -97 28 q-55 0 -99 -37.5t-44 -96.5q0 -19 7 -36t25.5 -34.5t30.5 -27t40 -29.5q38 -28 62 -49t45 -57t21 -75q0 -93 -66 -149t-147 -56q-93 0 -154 46q-6 4 -6 13q0 3 1 5z" />
<glyph unicode="T" horiz-adv-x="500" d="M558 665l-4 -20q-2 -13 -15 -13h-194l-109 -620q-2 -12 -15 -12h-18q-15 0 -15 15l108 617h-191q-15 0 -15 14l3 21q2 13 15 13h435q15 0 15 -15z" />
<glyph unicode="U" horiz-adv-x="674" d="M529 216l80 452q2 12 15 12h18q15 0 15 -15l-79 -456q-16 -91 -100 -154t-184 -63q-91 0 -151 55.5t-60 136.5q0 18 3 33l80 451q2 12 15 12h19q15 0 15 -15l-79 -458q-3 -12 -3 -25q0 -61 48 -101t122 -40q79 0 146.5 53t79.5 122z" />
<glyph unicode="V" horiz-adv-x="587" d="M258 81h6l311 591q4 8 13 8h27q15 0 15 -14q0 -2 -2 -8l-349 -650q-4 -8 -13 -8h-27q-13 0 -15 12l-122 650q0 18 15 18h20q15 0 18 -14q96 -527 103 -585z" />
<glyph unicode="W" horiz-adv-x="920" d="M528 603h-7q-17 -37 -94 -186l-145 -279l-68 -130q-4 -8 -13 -8h-30q-13 0 -15 14l-55 650q0 16 15 16h24q13 0 13 -12q42 -534 42 -587h6q12 32 88.5 179.5l146.5 279.5l71 131q4 9 14 9h22q11 0 15 -11q97 -533 99 -588h6q81 204 249 590q4 9 14 9h25q16 0 16 -14 q0 -3 -2 -7l-282 -650q-4 -9 -14 -9h-31q-12 0 -14 12q-93 528 -96 591z" />
<glyph unicode="X" horiz-adv-x="603" d="M528 0h-27q-9 0 -13 8l-169 303h-5l-277 -306q-5 -5 -11 -5h-26q-15 0 -15 14q0 7 4 11l304 334l-169 299q-2 3 -2 8q0 14 15 14h27q9 0 13 -8l148 -267h5l244 270q5 5 11 5h25q15 0 15 -14q0 -7 -4 -11l-268 -296l188 -337q2 -6 2 -8q0 -14 -15 -14z" />
<glyph unicode="Y" horiz-adv-x="521" d="M295 305l-51 -293q-2 -12 -15 -12h-19q-15 0 -15 15l51 292l-138 353q-1 2 -1 6q0 14 15 14h21q10 0 14 -9q111 -267 115 -310h7q12 21 69.5 99l108.5 146l51 68q4 6 12 6h24q15 0 15 -14q0 -6 -3 -10z" />
<glyph unicode="Z" horiz-adv-x="568" d="M558 636l-434 -536l-40 -47v-5h381q15 0 15 -14l-3 -21q-2 -13 -15 -13h-435q-15 0 -15 14l3 18q2 9 8 17l467 579v4h-345q-15 0 -15 14l3 21q2 13 15 13h404q6 0 10.5 -4.5t4.5 -10.5l-1 -12q-2 -11 -8 -17z" />
<glyph unicode="[" horiz-adv-x="242" d="M289 662l-3 -15q-2 -12 -15 -12h-77l-140 -797h72q15 0 15 -19l-3 -14q-4 -11 -15 -11h-107q-15 0 -15 18l151 856q2 12 15 12h107q15 0 15 -18z" />
<glyph unicode="\" horiz-adv-x="343" d="M244 -73h-17q-13 0 -15 13l-106 724q0 6 4.5 10.5t10.5 4.5h17q13 0 15 -13l106 -724q0 -6 -4.5 -10.5t-10.5 -4.5z" />
<glyph unicode="]" horiz-adv-x="244" d="M100 653l3 15q2 12 15 12h106q15 0 15 -18l-151 -856q-2 -12 -15 -12h-105q-15 0 -15 19l3 14q4 11 15 11h76l140 797h-72q-15 0 -15 18z" />
<glyph unicode="^" horiz-adv-x="564" d="M500 234h-19q-9 0 -14 9l-181 399h-6l-184 -399q-4 -9 -14 -9h-18q-16 0 -16 14q0 3 2 7l201 424q5 9 14 9h34q9 0 14 -9l201 -424q2 -4 2 -7q0 -14 -16 -14z" />
<glyph unicode="_" horiz-adv-x="459" d="M376 -131h-419q-15 0 -15 18l3 15q2 12 15 12h419q15 0 15 -18l-3 -15q-2 -12 -15 -12z" />
<glyph unicode="`" horiz-adv-x="320" d="M239 566l-63 91q-3 4 -3 9q0 14 15 14h26q10 0 14 -9l50 -92q2 -6 2 -8q0 -14 -15 -14h-8q-12 0 -18 9z" />
<glyph unicode="a" horiz-adv-x="498" d="M409 1l-20 -6q-13 0 -17 15q-7 49 -7 56q0 37 3 55h-4q-33 -64 -81 -96.5t-95 -32.5q-71 0 -111.5 48t-40.5 132q0 75 24 136.5t61.5 98t80 56t82.5 19.5q94 0 165 -65q5 -5 5 -12l-18 -102q-23 -133 -23 -211q0 -44 7 -74v-4q0 -10 -11 -13zM403 395q-49 41 -128 41 q-28 0 -59 -15.5t-60.5 -44.5t-49 -80.5t-19.5 -115.5q0 -68 30.5 -104.5t77.5 -36.5q80 0 140.5 106.5t67.5 249.5z" />
<glyph unicode="b" horiz-adv-x="498" d="M163 679h18q15 0 15 -15l-49 -284h4q62 102 157 102q71 0 111.5 -48t40.5 -132q0 -75 -24 -136.5t-61.5 -98t-80 -56t-82.5 -19.5q-88 0 -165 41q-8 6 -8 14l109 620q2 12 15 12zM410 296q0 68 -30.5 104t-77.5 36q-82 0 -142 -111t-69 -259q58 -27 129 -27q28 0 59.5 15 t61.5 44.5t49.5 81t19.5 116.5z" />
<glyph unicode="c" horiz-adv-x="412" d="M339 49l2 -17q0 -8 -10 -13q-61 -27 -127 -27q-79 0 -123.5 52t-44.5 137q0 128 75 214.5t179 86.5q57 0 113 -25q9 -4 9 -14q0 -3 -1 -5l-9 -21q-3 -10 -13 -10q-3 0 -7 2q-51 25 -100 25q-77 0 -136 -71.5t-59 -180.5q0 -67 34 -104.5t92 -37.5q47 0 105 23q2 1 6 1 q13 0 15 -15z" />
<glyph unicode="d" horiz-adv-x="498" d="M412 445l39 222q2 13 15 13h18q15 0 15 -14l-63 -363q-23 -129 -23 -211q0 -44 7 -74v-4q0 -10 -11 -13l-20 -6q-15 0 -17 13q-6 36 -6 70q0 24 2 43h-4q-33 -65 -81 -97t-95 -32q-71 0 -111.5 48.5t-40.5 132.5q0 75 24 136t61.5 97.5t80 56t82.5 19.5q68 0 128 -37z M403 394q-50 41 -128 41q-28 0 -59.5 -15t-61 -44t-49 -81t-19.5 -116q0 -68 30.5 -104.5t78.5 -36.5q78 0 139 107t69 249z" />
<glyph unicode="e" horiz-adv-x="428" d="M340 53l4 -15q0 -12 -9 -17q-69 -29 -131 -29q-78 0 -122.5 51t-44.5 135q0 128 74.5 216t177.5 88q59 0 90 -31t31 -73q0 -75 -87.5 -112t-232.5 -39q-3 -30 -3 -42q0 -67 34 -106t92 -39q49 0 106 24q2 1 6 1q12 0 15 -12zM99 272q70 0 125.5 9t94.5 33.5t39 61.5 q0 28 -21.5 43.5t-54.5 15.5q-61 0 -110.5 -42t-72.5 -121z" />
<glyph unicode="f" horiz-adv-x="275" d="M182 562l-16 -88h88q15 0 15 -16l-3 -17q-2 -12 -15 -12h-93l-73 -417q-2 -12 -15 -12h-16q-15 0 -15 15l72 414h-29q-15 0 -15 14l3 19q2 12 15 12h34l16 88q23 126 142 126q46 0 92 -16q10 -3 10 -15q0 -3 -1 -5l-8 -17q-3 -10 -15 -10q-4 0 -6 1q-37 15 -73 15 q-79 0 -94 -79z" />
<glyph unicode="g" horiz-adv-x="498" d="M453 408l-82 -470q-14 -73 -70 -112.5t-130 -39.5q-50 0 -113 21q-11 4 -11 13l5 23q3 13 14 13q4 0 6 -1q59 -22 105 -22q61 0 97.5 27.5t45.5 73.5l30 171h-4q-29 -49 -72.5 -73.5t-85.5 -24.5q-71 0 -111.5 46.5t-40.5 126.5q0 73 23.5 133t61 95.5t79.5 54.5t82 19 q93 0 166 -61q5 -5 5 -13zM401 396q-51 39 -128 39q-28 0 -59 -14.5t-60.5 -42.5t-48.5 -77.5t-19 -111.5q0 -56 27 -95.5t79 -39.5q79 0 140 102.5t69 239.5z" />
<glyph unicode="h" horiz-adv-x="482" d="M120 232l-38 -219q-2 -13 -15 -13h-19q-15 0 -15 15l114 653q2 12 15 12h19q15 0 15 -15l-49 -283q36 49 79.5 74.5t81.5 25.5q118 0 118 -110q0 -24 -5 -51l-35 -201l-19 -107q-2 -13 -15 -13h-17q-15 0 -15 14l44 262q11 68 11 95q0 63 -80 63q-52 0 -106 -58.5 t-69 -143.5z" />
<glyph unicode="i" horiz-adv-x="192" d="M158 459l-78 -447q-2 -12 -15 -12h-17q-15 0 -15 15l78 447q2 12 15 12h17q15 0 15 -15zM195 604q0 -20 -12 -32t-31 -12q-30 0 -30 27q0 20 12 32t31 12q30 0 30 -27z" />
<glyph unicode="j" horiz-adv-x="197" d="M130 474h16q15 0 15 -17q-47 -280 -89 -498q-13 -70 -62.5 -114t-125.5 -56q-14 0 -14 15q0 2 -0.5 5t-0.5 4v6q0 13 13 15q62 10 98.5 42.5t44.5 77.5l90 508q2 12 15 12zM169 631q30 0 30 -27q0 -20 -12 -32t-31 -12q-30 0 -30 27q0 20 12 32t31 12z" />
<glyph unicode="k" horiz-adv-x="408" d="M137 301q24 23 205 167q6 6 17 6h19q16 0 16 -15q0 -7 -6 -12l-204 -169l164 -255q3 -4 3 -9q0 -14 -16 -14h-25q-8 0 -13 7q-142 221 -165 270h-5l-46 -264q-2 -13 -15 -13h-17q-15 0 -15 18l114 650q2 12 15 12h17q15 0 15 -18l-63 -361h5z" />
<glyph unicode="l" horiz-adv-x="261" d="M212 32l2 -18q0 -11 -11 -15q-28 -7 -62 -7q-42 0 -68 23.5t-26 64.5q0 18 3 33l98 555q2 12 15 12h17q15 0 15 -15l-95 -544q-3 -13 -3 -26q0 -55 59 -55q16 0 38 5q16 0 18 -13z" />
<glyph unicode="m" horiz-adv-x="767" d="M119 474h11q15 0 15 -15q-1 -40 -7 -90h4q32 54 79.5 83.5t86.5 29.5q116 0 117 -111h5q31 55 77.5 83t86.5 28q118 0 118 -111q0 -22 -5 -50l-54 -308q-2 -13 -15 -13h-17q-15 0 -15 15l53 304q4 20 4 42q0 38 -19 56t-63 18q-51 0 -102.5 -57.5t-72.5 -145.5l-38 -219 q-2 -13 -15 -13h-18q-15 0 -15 15l53 304q4 19 4 42q0 37 -19 55.5t-63 18.5q-52 0 -102.5 -58t-71.5 -146l-38 -218q-2 -13 -15 -13h-22q-12 0 -12 13l45 264q18 105 25 183q2 14 15 14z" />
<glyph unicode="n" horiz-adv-x="481" d="M138 369h5q31 56 77.5 84.5t87.5 28.5q119 0 119 -112q0 -21 -5 -49l-54 -308q-2 -13 -15 -13h-18q-15 0 -15 15l53 304q4 19 4 42q0 37 -19 55.5t-63 18.5q-51 0 -102.5 -59t-71.5 -145l-38 -218q-2 -13 -15 -13h-19q-15 0 -15 15l45 262q9 55 15 100.5t8 63.5l1 18 q2 15 16 15h11q14 0 14 -13q0 -37 -6 -92z" />
<glyph unicode="o" horiz-adv-x="496" d="M458 293q0 -128 -75 -214.5t-179 -86.5q-77 0 -122 52.5t-45 137.5q0 128 74.5 214t178.5 86q78 0 123 -52t45 -137zM408 294q0 67 -34 103.5t-92 36.5q-77 0 -136 -71.5t-59 -180.5q0 -67 34 -104.5t92 -37.5q78 0 136.5 71.5t58.5 182.5z" />
<glyph unicode="p" horiz-adv-x="503" d="M414 296q0 67 -30.5 103.5t-76.5 36.5q-79 0 -139 -105t-68 -251q52 -42 126 -42q65 0 126.5 67.5t61.5 190.5zM140 363h4q32 60 78.5 89.5t91.5 29.5q70 0 110.5 -48.5t40.5 -131.5q0 -75 -24 -136.5t-61.5 -98t-79.5 -56t-83 -19.5q-70 0 -127 37l-40 -223 q-2 -12 -15 -12h-18q-15 0 -15 15l82 467q10 55 16 101t7 64l1 18q2 15 16 15h11q14 0 14 -15q-1 -33 -9 -96z" />
<glyph unicode="q" horiz-adv-x="493" d="M430 -206h-115q-15 0 -15 15l50 286h-4q-30 -50 -73.5 -76.5t-84.5 -26.5q-71 0 -111.5 48t-40.5 132q0 75 24 136.5t61.5 98t79.5 56t82 19.5q90 0 167 -41q8 -6 8 -14l-103 -589h78q15 0 15 -16l-3 -17q-4 -11 -15 -11zM88 179q0 -68 30 -104.5t77 -36.5q81 0 139 109 t71 261q-56 28 -131 28q-63 0 -124.5 -67.5t-61.5 -189.5z" />
<glyph unicode="r" horiz-adv-x="338" d="M33 15l45 262q21 116 21 182q0 5 5 10t11 5h14q15 0 15 -15q0 -33 -8 -96h4q33 61 76 90t83 29q37 0 58 -7q10 -3 10 -15l-7 -29q-2 -12 -14 -12q-3 0 -7 2q-21 9 -51 9q-52 0 -103.5 -61t-67.5 -153l-35 -203q-2 -13 -15 -13h-19q-15 0 -15 15z" />
<glyph unicode="s" horiz-adv-x="352" d="M293 141q0 -70 -52 -109.5t-116 -39.5q-69 0 -126 33q-7 4 -7 13q0 4 3 9l15 22q4 6 11 6q4 0 9 -3q47 -32 96 -32q44 0 79.5 25.5t35.5 73.5q0 17 -13 33t-26 24.5t-40 24.5q-25 15 -38 23.5t-31 24.5t-26 34t-8 39q0 64 48.5 102t103.5 38q48 0 105 -30q8 -5 8 -13 q0 -5 -2 -8l-7 -13q-10 -14 -18 -14q-3 0 -7 2q-47 28 -83 28t-66 -24.5t-30 -60.5q0 -16 13.5 -32.5t28 -26.5l39.5 -26q55 -33 78 -59t23 -64z" />
<glyph unicode="t" horiz-adv-x="324" d="M120 474l10 59q0 9 10 13l19 6q2 1 6 1q14 0 14 -15l-13 -64h113q15 0 15 -15l-3 -18q-2 -12 -15 -12h-117q-2 -14 -23 -130.5t-31 -177.5q-2 -12 -2 -20q0 -61 69 -61q33 0 77 13q2 1 5 1q12 0 14 -13l2 -16q0 -10 -10 -14q-53 -19 -106 -19q-46 0 -73 23t-27 65 q0 19 3 34l55 315h-29q-15 0 -15 15l3 18q2 12 15 12h34z" />
<glyph unicode="u" horiz-adv-x="481" d="M341 105h-5q-31 -56 -77.5 -84.5t-87.5 -28.5q-119 0 -119 112q0 21 5 49l54 308q2 13 15 13h20q15 0 15 -15l-55 -304q-4 -19 -4 -42q0 -37 19 -55.5t63 -18.5q51 0 102.5 59t71.5 145l38 218q2 13 15 13h19q15 0 15 -15l-45 -262q-9 -55 -15 -101l-7 -63l-2 -18 q0 -6 -4.5 -10.5t-11.5 -4.5h-11q-14 0 -14 15q0 35 6 90z" />
<glyph unicode="v" horiz-adv-x="401" d="M411 452l-236 -444q-4 -8 -13 -8h-23q-13 0 -15 12l-79 444q0 18 15 18h17q13 0 15 -12q59 -329 64 -386h6q6 16 56 114l98 186l47 90q4 8 13 8h22q15 0 15 -14q0 -2 -2 -8z" />
<glyph unicode="w" horiz-adv-x="631" d="M341 399h-7q-28 -66 -191 -391q-4 -8 -13 -8h-29q-13 0 -15 14l-36 444q0 16 15 16h18q13 0 15 -14q24 -294 24 -387h5q56 122 195 393q4 8 13 8h22q13 0 15 -13q53 -325 55 -388h5q60 152 164 392q4 9 14 9h18q16 0 16 -14q0 -3 -2 -7l-190 -444q-4 -9 -14 -9h-30 q-11 0 -13 12q-54 355 -54 387z" />
<glyph unicode="x" horiz-adv-x="447" d="M256 258l132 -236q2 -6 2 -8q0 -14 -15 -14h-21q-9 0 -13 8l-115 203h-5l-187 -206q-5 -5 -11 -5h-24q-15 0 -15 14q0 7 4 11l212 233l-107 194q-2 3 -2 8q0 14 15 14h22q9 0 13 -8l88 -162h5l151 165q5 5 11 5h21q15 0 15 -14q0 -7 -4 -11z" />
<glyph unicode="y" horiz-adv-x="402" d="M-73 -195l-1 9q0 15 11 20q55 18 93 48t67 82q2 5 11 21l14 25l-75 447q0 17 15 17h17q13 0 15 -12q55 -269 65 -386h4q17 41 202 390q4 8 13 8h21q15 0 15 -14q0 -2 -2 -8l-271 -507q-57 -108 -193 -153q-2 -1 -6 -1q-12 0 -15 14z" />
<glyph unicode="z" horiz-adv-x="416" d="M337 31l-2 -21q-2 -10 -15 -10h-301q-15 2 -15 16q0 6 3 10l313 403h-219q-15 0 -15 15l3 18q2 12 15 12h281q15 0 15 -16q0 -6 -3 -10l-317 -403h242q15 0 15 -14z" />
<glyph unicode="{" horiz-adv-x="280" d="M173 -166q8 -4 8 -12l-1 -6q0 -5 -5 -11q-5 -7 -15 -7q-99 17 -99 120q0 10 4 40l39 143q2 14 2 21q0 35 -18.5 61t-56.5 33q-8 1 -8 12l2 19q2 13 14 15q48 11 77.5 43.5t35.5 72.5q1 7 7 73q4 60 6 73q24 133 149 156q1 0 3 0.5t3 0.5q8 0 9 -10l1 -13q-3 -11 -14 -14 q-45 -10 -69 -39.5t-33 -81.5q-2 -13 -5 -66q0 -48 -5 -68q-19 -111 -125 -147l-1 -4q77 -31 77 -111q0 -32 -22 -105q-18 -59 -19 -67q-3 -20 -3 -36q0 -66 62 -85z" />
<glyph unicode="|" horiz-adv-x="237" d="M127 -206h-15q-6 0 -10.5 4.5t-4.5 10.5v856q0 6 4.5 10.5t10.5 4.5h14q6 0 10.5 -4.5t4.5 -10.5v-856q0 -13 -14 -15z" />
<glyph unicode="}" horiz-adv-x="281" d="M106 645q-8 4 -8 12l1 6q0 5 5 11q5 7 15 7q99 -17 99 -120q0 -10 -4 -40l-39 -143q-2 -14 -2 -21q0 -35 18.5 -61t56.5 -33q8 -1 8 -12l-2 -19q-2 -13 -14 -15q-48 -11 -77.5 -43.5t-35.5 -72.5q-1 -7 -7 -73q-4 -60 -6 -73q-24 -133 -149 -156q-1 0 -3 -0.5t-3 -0.5 q-8 0 -9 10l-1 13q3 11 14 14q45 10 69 39.5t33 81.5q2 13 5 66q0 48 5 68q19 111 125 147l1 4q-77 31 -77 111q0 32 22 105q18 59 19 67q3 20 3 36q0 66 -62 85z" />
<glyph unicode="~" d="M144 343q-59 0 -67 -67q-3 -21 -20 -21h-13q-5 0 -9 5.5t-4 9.5q0 54 33.5 88t81.5 34q42 0 150 -44.5t144 -44.5q59 0 67 68q3 20 20 20h13q5 0 9 -5.5t4 -9.5q0 -54 -33.5 -88t-81.5 -34q-45 0 -150 44.5t-144 44.5z" />
<glyph unicode="&#xa1;" horiz-adv-x="252" d="M113 434q0 22 13.5 35t34.5 13q34 0 34 -31q0 -22 -13.5 -35t-34.5 -13q-34 0 -34 31zM144 290l-76 -483q-2 -13 -15 -13h-18q-15 0 -15 15l94 484q1 10 14 10q16 0 16 -13z" />
<glyph unicode="&#xa2;" horiz-adv-x="411" d="M278 582l15 85q2 13 15 13h18q6 0 10.5 -4.5t4.5 -10.5l-14 -82q50 -3 93 -23q9 -3 9 -14q0 -1 -0.5 -2.5t-0.5 -2.5l-9 -19q-6 -11 -14 -11q-3 0 -7 2q-54 24 -99 24q-78 0 -136.5 -70t-58.5 -179q0 -68 34 -107t92 -39q43 0 105 24q2 1 7 1q11 0 14 -15l2 -16 q0 -9 -8 -13q-44 -21 -109 -28l-14 -82q-2 -13 -15 -13h-18q-15 0 -15 15l14 82q-69 9 -104 59.5t-35 123.5q0 116 63.5 202t160.5 100z" />
<glyph unicode="&#xa3;" horiz-adv-x="505" d="M61 48l91 266h-75q-15 0 -15 15l3 18q2 12 15 12h86l56 167q26 78 86.5 120t135.5 42q36 0 72 -13q10 -3 10 -14q0 -3 -2 -7l-6 -13q-3 -8 -14 -8l-2 1h-2q-29 8 -60 8q-54 0 -103 -32t-66 -84l-55 -167h178q15 0 15 -15l-3 -18q-2 -12 -15 -12h-190l-91 -266h285 q15 0 15 -14l-3 -21q-2 -13 -15 -13h-370q-15 0 -15 14l3 21q2 13 15 13h36z" />
<glyph unicode="&#xa4;" horiz-adv-x="546" d="M468 515q4 4 10 4q7 0 11 -4l11 -11q4 -4 4 -11q0 -6 -4 -10l-50 -50q51 -63 51 -145q0 -81 -51 -144l50 -50q4 -4 4 -11q0 -6 -4 -10l-11 -11q-5 -5 -11 -5q-5 0 -10 5l-50 50q-62 -52 -145 -52q-82 0 -144 52l-50 -50q-5 -5 -11 -5q-5 0 -10 5l-11 11q-5 5 -5 10 q0 6 5 11l50 50q-51 63 -51 144q0 82 51 145l-50 50q-5 5 -5 10q0 6 5 11l11 11q4 4 10 4q7 0 11 -4l50 -50q63 51 144 51q82 0 145 -51zM402 160q52 52 52 128t-52 128q-55 53 -129 53q-75 0 -128 -53t-53 -128t53 -128t128 -53q74 0 129 53z" />
<glyph unicode="&#xa5;" horiz-adv-x="521" d="M474 416l-3 -20q-2 -10 -15 -10h-102l-59 -79q-1 -5 -2 -9t-2 -11h143q15 0 15 -15l-3 -18q-2 -12 -15 -12h-148l-40 -230q-2 -12 -15 -12h-18q-15 0 -15 15l39 227h-142q-15 0 -15 15l3 18q2 12 15 12h147l3 20l-31 79h-96q-15 0 -15 14l3 22q2 9 14 9h75l-90 229 q-1 2 -1 6q0 14 15 14h27q9 0 13 -9q113 -267 117 -310h6q12 21 69.5 99l108.5 146l51 68q4 6 12 6h20q15 0 15 -14q0 -6 -3 -10l-168 -225h72q6 0 10.5 -4.5t4.5 -10.5z" />
<glyph unicode="&#xa6;" horiz-adv-x="241" d="M114 680h14q6 0 10.5 -4.5t4.5 -10.5v-338q0 -6 -4.5 -10.5t-10.5 -4.5h-14q-6 0 -10.5 4.5t-4.5 10.5v338q0 6 4.5 10.5t10.5 4.5zM114 161h14q6 0 10.5 -4.5t4.5 -10.5v-337q0 -6 -4.5 -10.5t-10.5 -4.5h-14q-6 0 -10.5 4.5t-4.5 10.5v337q0 6 4.5 10.5t10.5 4.5z" />
<glyph unicode="&#xa7;" horiz-adv-x="426" d="M130 -114q-62 0 -111 32q-7 5 -7 12v2q0 2 1 3l9 21q3 10 13 10q5 0 10 -3q40 -29 94 -29q52 0 91.5 35t39.5 92q0 29 -21 52t-51 40l-60 35t-51 47t-21 66q0 43 23.5 85t60.5 74q-17 28 -17 58q0 72 54.5 121t122.5 49q52 0 98 -22q9 -4 9 -15q0 -3 -1 -5l-9 -21 q-3 -9 -14 -9q-3 0 -7 2q-44 22 -85 22q-42 0 -79.5 -30t-37.5 -80q0 -28 20 -51t49 -40.5l58 -36.5t49 -47t20 -63q0 -7 -2 -23q-14 -77 -77 -131l-1 -3q22 -32 22 -68q0 -77 -58.5 -129t-133.5 -52zM330 280q0 35 -22.5 59.5t-70 51t-62.5 37.5q-60 -57 -60 -113 q0 -32 21 -54.5t68 -50t69 -44.5q57 60 57 114z" />
<glyph unicode="&#xa8;" horiz-adv-x="312" d="M270 611q0 18 14.5 33t33.5 15q14 0 23.5 -9.5t9.5 -23.5q0 -19 -15 -33t-34 -14q-14 0 -23 9t-9 23zM93 611q0 18 14 33t33 15q14 0 23.5 -9.5t9.5 -23.5q0 -18 -15 -32.5t-32 -14.5q-15 0 -24 9t-9 23z" />
<glyph unicode="&#xa9;" horiz-adv-x="772" d="M734 340q0 -144 -102 -246t-246 -102q-145 0 -246.5 102t-101.5 246q0 145 101.5 246.5t246.5 101.5q144 0 246 -101.5t102 -246.5zM688 340q0 126 -88.5 214t-213.5 88t-213.5 -88t-88.5 -214q0 -125 88.5 -213.5t213.5 -88.5t213.5 88.5t88.5 213.5zM507 199l4 -14 q0 -1 0.5 -2t0.5 -2q0 -11 -9 -14q-55 -23 -111 -23q-81 0 -130.5 52t-49.5 144t49.5 144t130.5 52q53 0 110 -22q10 -4 10 -15l-4 -17q-3 -13 -15 -13q-4 0 -6 1q-52 22 -92 22q-57 0 -95 -42.5t-38 -109.5t38.5 -109.5t94.5 -42.5q33 0 88 19q8 2 11 2q10 0 13 -10z" />
<glyph unicode="&#xaa;" horiz-adv-x="362" d="M351 564l-43 -240v-2l-1 -2q0 -12 9 -17q5 -5 5 -13q0 -5 -1 -7l-9 -14q-3 -4 -11 -4q-1 1 -3 1h-2q-19 5 -27 33q-43 -35 -87 -35q-50 0 -79 33.5t-29 89.5q0 82 49.5 139.5t114.5 57.5q47 0 76 -23l3 9q4 9 14 9h6q15 0 15 -15zM272 341l31 176q-37 28 -72 28 q-47 0 -82 -44t-35 -110q0 -41 20 -65t54 -24q45 0 84 39z" />
<glyph unicode="&#xab;" horiz-adv-x="523" d="M211 474h16q15 0 15 -14q0 -6 -3 -10l-161 -213l87 -216q1 -2 1 -6q0 -15 -15 -15h-21q-10 0 -14 9l-88 221v4q0 6 2 10l169 224q4 6 12 6zM494 474h15q15 0 15 -14q0 -6 -3 -10l-161 -213l87 -216q1 -2 1 -6q0 -15 -15 -15h-20q-10 0 -14 9l-89 220q-1 1 -1 5q0 7 3 10 l170 224q4 6 12 6z" />
<glyph unicode="&#xac;" horiz-adv-x="546" d="M51 359h444q6 0 10.5 -4.5t4.5 -10.5v-191q0 -6 -4.5 -10.5t-10.5 -4.5h-16q-6 0 -10.5 4.5t-4.5 10.5v160h-413q-6 0 -10.5 4.5t-4.5 10.5v16q0 6 4.5 10.5t10.5 4.5z" />
<glyph unicode="&#xad;" horiz-adv-x="386" d="M332 239l-3 -19q-2 -13 -15 -13h-249q-15 0 -15 17l4 19q2 13 15 13h248q15 0 15 -17z" />
<glyph unicode="&#xae;" horiz-adv-x="520" d="M348 380l13 -26q2 -6 2 -8q0 -14 -15 -14h-10q-9 0 -13 8l-17 36q-21 41 -39 55q-12 10 -22 10h-27v-96q0 -6 -4.5 -10.5t-10.5 -4.5h-8q-6 0 -10.5 4.5t-4.5 10.5v242q0 13 14 15q12 1 52 1q51 0 73.5 -24t22.5 -57q0 -46 -50 -68v-4q22 -12 54 -70zM249 473 q26 0 41.5 13t15.5 35q0 20 -13 34.5t-41 14.5q-22 0 -32 -2v-95h29zM260 688q92 0 157 -65t65 -157t-65 -157t-157 -65t-157 65t-65 157t65 157t157 65zM260 284q76 0 129 53.5t53 128.5q0 76 -53 129t-129 53q-75 0 -128.5 -53t-53.5 -129q0 -75 53.5 -128.5t128.5 -53.5z " />
<glyph unicode="&#xaf;" horiz-adv-x="313" d="M126 635h195q15 0 15 -19l-3 -13q-4 -11 -15 -11h-194q-6 0 -10.5 4.5t-4.5 10.5l2 13q0 6 4.5 10.5t10.5 4.5z" />
<glyph unicode="&#xb0;" horiz-adv-x="363" d="M260 688q52 0 85 -34.5t33 -87.5q0 -70 -53 -123t-118 -53q-51 0 -84 34.5t-33 86.5q0 70 52.5 123.5t117.5 53.5zM215 435q47 0 84 37t37 86q0 37 -23.5 61.5t-60.5 24.5q-46 0 -82.5 -38t-36.5 -88q0 -36 23 -59.5t59 -23.5z" />
<glyph unicode="&#xb1;" horiz-adv-x="546" d="M510 301v-16q0 -6 -4.5 -10.5t-10.5 -4.5h-199v-144q0 -6 -4.5 -10.5t-10.5 -4.5h-16q-6 0 -10.5 4.5t-4.5 10.5v144h-199q-6 0 -10.5 4.5t-4.5 10.5v16q0 6 4.5 10.5t10.5 4.5h199v143q0 6 4.5 10.5t10.5 4.5h16q6 0 10.5 -4.5t4.5 -10.5v-143h199q6 0 10.5 -4.5 t4.5 -10.5zM51 46h444q6 0 10.5 -4.5t4.5 -10.5v-16q0 -6 -4.5 -10.5t-10.5 -4.5h-444q-6 0 -10.5 4.5t-4.5 10.5v16q0 6 4.5 10.5t10.5 4.5z" />
<glyph unicode="&#xb2;" horiz-adv-x="329" d="M325 492l-1 -9q-2 -15 -15 -15h-204q-6 0 -10.5 4.5t-4.5 9.5q0 1 1 9q3 9 5 11l119 113q104 99 116 153q2 10 2 18q0 28 -17.5 43.5t-46.5 15.5q-30 0 -86 -39q-5 -3 -10 -3q-12 0 -13 11l-1 12q0 8 7 13q70 44 110 44q46 0 73 -23.5t27 -66.5q0 -75 -135 -205l-85 -83 h154q5 0 10 -4t5 -9z" />
<glyph unicode="&#xb3;" horiz-adv-x="342" d="M301 681q55 -19 55 -77q0 -62 -45 -101.5t-110 -39.5q-46 0 -98 31q-7 4 -7 12q0 4 2 8l4 9q5 11 12 11q4 0 10 -3q47 -29 84 -29q43 0 73.5 25.5t30.5 68.5q0 58 -96 63q-6 0 -10.5 4.5t-4.5 10.5l1 9q3 13 14 14q55 4 86 34.5t31 60.5q0 23 -15 37.5t-45 14.5 q-27 0 -86 -27q-4 -2 -7 -2q-14 0 -14 16v7q0 10 9 14q64 31 105 31q46 0 72.5 -24.5t26.5 -62.5q0 -29 -19.5 -62t-58.5 -53z" />
<glyph unicode="&#xb4;" horiz-adv-x="319" d="M287 655l-101 -93q-4 -4 -9 -4q-6 0 -12 5.5t-6 11.5q0 4 3 7l85 94q5 5 11 5h18q6 0 10.5 -4.5t4.5 -10.5q0 -7 -4 -11z" />
<glyph unicode="&#xb5;" horiz-adv-x="479" d="M412 474h17q15 0 15 -15l-78 -447q-2 -12 -15 -12h-8q-6 0 -10.5 4.5t-4.5 10.5v33h-6q-66 -56 -135 -56q-72 0 -108 42l-35 -227q-2 -13 -15 -13h-17q-15 0 -15 15l115 653q2 12 15 12h17q15 0 15 -15l-52 -298q-4 -26 -4 -40q0 -82 98 -82q70 0 132 66l32 178.5 l21.5 116.5t10.5 61q2 13 15 13z" />
<glyph unicode="&#xb6;" horiz-adv-x="489" d="M524 665l-134 -763q-2 -12 -15 -12h-18q-15 0 -15 15l128 728h-121l-129 -731q-2 -12 -15 -12h-18q-15 0 -15 15l70 396q-68 0 -109 45.5t-41 110.5q0 88 66.5 155.5t149.5 67.5h201q15 0 15 -15z" />
<glyph unicode="&#xb7;" horiz-adv-x="622" d="M369 349q0 -19 -13.5 -34t-33.5 -15q-34 0 -34 31q0 21 13.5 34.5t34.5 13.5q33 0 33 -30z" />
<glyph unicode="&#xb8;" horiz-adv-x="321" d="M127 -46l-17 -28q26 -4 41.5 -19t15.5 -35q0 -7 -1 -10q-6 -38 -38 -57t-74 -19q-18 0 -37 6q-6 2 -6 10l7 17q4 7 10 7h2q2 0 3 -1q13 -5 34 -5q18 0 36 12t22 30v4q0 26 -44 33q-12 2 -12 9l4 10l27 43q5 8 15 8h9q7 0 7 -6q0 -5 -4 -9z" />
<glyph unicode="&#xb9;" horiz-adv-x="339" d="M99 482v8q3 14 16 14h81l57 319l-86 -55q-6 -3 -10 -3q-11 0 -12 12l-1 5q0 11 8 17l114 71q8 5 16 5h8q15 0 15 -15l-63 -356h77q15 0 15 -15l-1 -8q-3 -14 -15 -14h-204q-15 0 -15 15z" />
<glyph unicode="&#xba;" horiz-adv-x="360" d="M240 584q51 0 81 -33.5t30 -88.5q0 -84 -49.5 -141t-117.5 -57q-51 0 -81 33.5t-30 89.5q0 82 50 139.5t117 57.5zM191 302q48 0 83.5 43.5t35.5 111.5q0 41 -20.5 64.5t-55.5 23.5q-48 0 -84 -43t-36 -110q0 -42 20.5 -66t56.5 -24z" />
<glyph unicode="&#xbb;" horiz-adv-x="523" d="M370 474h22q10 0 14 -9l88 -221v-4q0 -6 -2 -10l-169 -224q-4 -6 -12 -6h-16q-15 0 -15 14q0 6 3 10l161 214q-6 17 -31.5 77.5l-56.5 138.5q-1 2 -1 6q0 14 15 14zM88 474h22q10 0 14 -9l88 -221v-4q0 -6 -2 -10l-169 -224q-4 -6 -12 -6h-15q-15 0 -15 14q0 6 3 10 l159 214l-87 216q-1 2 -1 6q0 14 15 14z" />
<glyph unicode="&#xbc;" horiz-adv-x="741" d="M69 288l1 8q2 14 15 14h81l57 319l-86 -55q-8 -4 -11 -4q-10 0 -11 12v9q0 9 7 14l114 70q10 6 16 6h8q15 0 15 -15l-63 -356h77q15 0 15 -15l-1 -8q-2 -14 -15 -14h-204q-15 0 -15 15zM179 24l487 650q4 6 12 6h10q15 0 15 -14q0 -6 -3 -10l-488 -650q-4 -6 -12 -6h-9 q-15 0 -15 14q0 6 3 10zM596 146l22 123l13 70l-163 -194q29 1 36 1h92zM632 109l-17 -96q-2 -13 -15 -13h-11q-15 0 -15 14l16 95h-160q-15 0 -15 16q0 6 1 9q2 7 7 14l220 255q5 5 11 5h12q15 0 15 -15l-43 -247h23q15 0 15 -15l-1 -8q-2 -14 -15 -14h-28z" />
<glyph unicode="&#xbd;" horiz-adv-x="810" d="M724 24l-1 -9q-2 -15 -15 -15h-204q-6 0 -10.5 4.5t-4.5 9.5q0 1 1 9q3 9 5 11l119 113q104 99 116 153q2 10 2 18q0 28 -17.5 43.5t-46.5 15.5q-30 0 -86 -39q-4 -3 -10 -3q-12 0 -13 11l-1 12q0 8 7 13q70 44 110 44q46 0 73 -23.5t27 -66.5q0 -75 -135 -205l-85 -83 h154q5 0 10 -4t5 -9zM67 289l1 7q4 14 15 14h81l57 319l-86 -55q-8 -4 -11 -4q-10 0 -11 12v9q0 9 7 14l115 71q10 5 15 5h8q15 0 15 -15l-63 -356h77q15 0 15 -15l-1 -8q-2 -14 -15 -14h-204q-15 0 -15 16zM179 24l487 650q4 6 12 6h10q15 0 15 -14q0 -6 -3 -10l-488 -650 q-4 -6 -12 -6h-9q-15 0 -15 14q0 6 3 10z" />
<glyph unicode="&#xbe;" horiz-adv-x="717" d="M267 487q56 -19 56 -77q0 -62 -45 -101.5t-110 -39.5q-46 0 -98 31q-7 4 -7 12q0 4 2 8l3 9q6 11 13 11q4 0 10 -3q47 -29 84 -29q43 0 73.5 25.5t30.5 68.5q0 57 -97 62q-14 2 -14 15l1 10q1 12 13 13q55 4 86.5 35t31.5 61q0 23 -15 37.5t-45 14.5q-27 0 -86 -27 q-4 -2 -7 -2q-14 0 -14 16v7q0 10 9 14q64 31 105 31q46 0 72.5 -24.5t26.5 -62.5q0 -29 -20 -62t-59 -53zM155 24l487 650q4 6 12 6h10q15 0 15 -14q0 -6 -3 -10l-488 -650q-4 -6 -12 -6h-9q-15 0 -15 14q0 6 3 10zM571 146l22 123l13 70l-163 -194q29 1 36 1h92zM607 109 l-17 -96q-2 -13 -15 -13h-11q-15 0 -15 14l16 95h-160q-15 0 -15 16q0 6 1 9q0 5 7 14l220 255q5 5 11 5h12q15 0 15 -15l-43 -247h23q15 0 15 -15l-1 -8q-2 -14 -15 -14h-28z" />
<glyph unicode="&#xbf;" horiz-adv-x="514" d="M303 434q0 22 13.5 35t34.5 13q34 0 34 -31q0 -22 -13.5 -35t-34.5 -13q-34 0 -34 31zM340 -163l1 -13q0 -10 -9 -14q-57 -24 -115 -24q-67 0 -101 30.5t-34 79.5q0 29 9 55t31 55t37.5 46t50.5 52q43 43 61.5 80.5t31.5 105.5q3 12 15 12h9q15 0 15 -14 q-19 -128 -90 -197q-63 -63 -90.5 -102t-27.5 -85q0 -71 101 -71q39 0 84 18q2 1 6 1q13 0 15 -15z" />
<glyph unicode="&#xc0;" d="M510 0h-23q-13 0 -15 12l-33 174h-304l-95 -178q-4 -8 -13 -8h-25q-15 0 -15 14q0 5 2 8l357 650q4 8 13 8h22q13 0 15 -12l129 -650q0 -18 -15 -18zM163 234h266q-1 0 -14.5 77.5l-29.5 170.5t-20 126h-5q-28 -59 -197 -374zM373 767l-63 91q-3 4 -3 9q0 14 15 14h26 q10 0 14 -9l50 -92q2 -6 2 -8q0 -14 -15 -14h-8q-12 0 -18 9z" />
<glyph unicode="&#xc1;" d="M510 0h-23q-13 0 -15 12l-33 174h-304l-95 -178q-4 -8 -13 -8h-25q-15 0 -15 14q0 5 2 8l357 650q4 8 13 8h22q13 0 15 -12l129 -650q0 -18 -15 -18zM163 234h266q-1 0 -14.5 77.5l-29.5 170.5t-20 126h-5q-28 -59 -197 -374zM475 856l-101 -93q-4 -4 -9 -4q-6 0 -12 5.5 t-6 11.5q0 4 3 7l85 94q5 5 11 5h18q6 0 10.5 -4.5t4.5 -10.5q0 -7 -4 -11z" />
<glyph unicode="&#xc2;" d="M510 0h-23q-13 0 -15 12l-33 174h-304l-95 -178q-4 -8 -13 -8h-25q-15 0 -15 14q0 5 2 8l357 650q4 8 13 8h22q13 0 15 -12l129 -650q0 -18 -15 -18zM163 234h266q-1 0 -14.5 77.5l-29.5 170.5t-20 126h-5q-28 -59 -197 -374zM279 768q0 3 5 10l85 97q4 6 12 6h38 q7 0 11 -6l49 -97q2 -4 2 -11q-1 -9 -12 -9h-23q-6 0 -14 8l-37 85q-2 -1 -42 -54l-25 -32q-10 -7 -18 -7h-22q-9 0 -9 10z" />
<glyph unicode="&#xc3;" d="M487 0h23q15 0 15 18l-129 650q-2 12 -15 12h-22q-9 0 -13 -8l-357 -650q-2 -3 -2 -8q0 -14 15 -14h25q9 0 13 8l95 178h304l33 -174q2 -12 15 -12zM429 234h-266q169 315 197 374h5q4 -33 20 -126l29.5 -170.5t14.5 -77.5zM337 862q25 0 69 -27q26 -17 38 -17 q16 0 32 32q4 8 13 8h9q15 0 15 -15q0 -4 -1 -6q-11 -26 -31 -43t-41 -17q-34 0 -76 28q-26 16 -32 16q-20 0 -31 -30q-4 -10 -14 -10h-8q-15 0 -15 15q0 4 1 6q11 26 31 43t41 17z" />
<glyph unicode="&#xc4;" d="M487 0h23q15 0 15 18l-129 650q-2 12 -15 12h-22q-9 0 -13 -8l-357 -650q-2 -3 -2 -8q0 -14 15 -14h25q9 0 13 8l95 178h304l33 -174q2 -12 15 -12zM429 234h-266q169 315 197 374h5q4 -33 20 -126l29.5 -170.5t14.5 -77.5zM437 810q0 18 14.5 33t33.5 15q14 0 23.5 -9.5 t9.5 -23.5q0 -19 -15 -33t-34 -14q-14 0 -23 9t-9 23zM260 810q0 18 14 33t33 15q14 0 23.5 -9.5t9.5 -23.5q0 -18 -15 -32.5t-32 -14.5q-15 0 -24 9t-9 23z" />
<glyph unicode="&#xc5;" d="M487 0h23q15 0 15 18l-129 650q-2 12 -15 12h-22q-9 0 -13 -8l-357 -650q-2 -3 -2 -8q0 -14 15 -14h25q9 0 13 8l95 178h304l33 -174q2 -12 15 -12zM429 234h-266q169 315 197 374h5q4 -33 20 -126l29.5 -170.5t14.5 -77.5zM403 906q32 0 53 -21t21 -51q0 -39 -32 -69 t-72 -30q-33 0 -54.5 20t-21.5 50q0 39 32.5 70t73.5 31zM378 764q24 0 45.5 20t21.5 45q0 19 -13.5 33t-33.5 14q-27 0 -47 -20t-20 -47q0 -20 13 -32.5t34 -12.5z" />
<glyph unicode="&#xc6;" horiz-adv-x="794" d="M164 186l-126 -179q-5 -7 -12 -7h-20q-15 0 -15 14q0 6 3 10l471 650q4 6 12 6h323q15 0 15 -14l-3 -21q-2 -13 -15 -13h-270q-7 -43 -22 -125.5l-23 -128.5h235q15 0 15 -15l-3 -20q-2 -12 -15 -12h-240l-50 -284h270q15 0 15 -15l-3 -20q-2 -12 -15 -12h-307 q-15 0 -15 14l29 172h-234zM202 234h205l66 374h-9q-31 -50 -262 -374z" />
<glyph unicode="&#xc7;" horiz-adv-x="585" d="M515 67l2 -19q0 -10 -9 -14q-87 -42 -182 -42q-119 0 -191 79.5t-72 202.5q0 171 116 292.5t270 121.5q90 0 163 -40q8 -5 8 -13q0 -4 -1 -6l-10 -22q-5 -9 -14 -9q-5 0 -8 2q-65 39 -147 39q-126 0 -224.5 -109.5t-98.5 -255.5q0 -104 60 -168.5t158 -64.5q76 0 159 38 q4 2 7 2q12 0 14 -14zM319 -37l-17 -28q26 -4 41.5 -19t15.5 -35q0 -7 -1 -10q-6 -38 -38 -57t-74 -19q-18 0 -37 6q-6 2 -6 10l7 17q4 7 10 7l2 -1h3q13 -5 34 -5q18 0 36 12t22 30v4q0 26 -44 33q-12 2 -12 9l4 10l27 43q5 8 15 8h9q7 0 7 -6q0 -5 -4 -9z" />
<glyph unicode="&#xc8;" horiz-adv-x="476" d="M210 632l-45 -254h234q15 0 15 -15l-3 -20q-2 -12 -15 -12h-239l-50 -283h268q15 0 15 -14l-3 -21q-2 -13 -15 -13h-305q-15 0 -15 15l114 653q2 12 15 12h301q15 0 15 -15l-3 -20q-2 -13 -15 -13h-269zM365 766l-63 91q-3 4 -3 9q0 14 15 14h26q10 0 14 -9l50 -92 q2 -6 2 -8q0 -14 -15 -14h-8q-12 0 -18 9z" />
<glyph unicode="&#xc9;" horiz-adv-x="476" d="M210 632l-45 -254h234q15 0 15 -15l-3 -20q-2 -12 -15 -12h-239l-50 -283h268q15 0 15 -14l-3 -21q-2 -13 -15 -13h-305q-15 0 -15 15l114 653q2 12 15 12h301q15 0 15 -15l-3 -20q-2 -13 -15 -13h-269zM418 856l-101 -93q-4 -4 -9 -4q-6 0 -12 5.5t-6 11.5q0 4 3 7 l85 94q5 5 11 5h18q6 0 10.5 -4.5t4.5 -10.5q0 -7 -4 -11z" />
<glyph unicode="&#xca;" horiz-adv-x="476" d="M210 632l-45 -254h234q15 0 15 -15l-3 -20q-2 -12 -15 -12h-239l-50 -283h268q15 0 15 -14l-3 -21q-2 -13 -15 -13h-305q-15 0 -15 15l114 653q2 12 15 12h301q15 0 15 -15l-3 -20q-2 -13 -15 -13h-269zM245 768q0 3 5 10l85 97q4 6 12 6h38q7 0 11 -6l49 -97q2 -4 2 -11 q-1 -9 -12 -9h-23q-6 0 -14 8l-37 85q-2 -1 -42 -54l-25 -32q-10 -7 -18 -7h-22q-9 0 -9 10z" />
<glyph unicode="&#xcb;" horiz-adv-x="476" d="M165 378l45 254h269q13 0 15 13l3 20q0 15 -15 15h-301q-13 0 -15 -12l-114 -653q0 -15 15 -15h305q13 0 15 13l3 21q0 14 -15 14h-268l50 283h239q13 0 15 12l3 20q0 15 -15 15h-234zM399 812q0 18 14.5 33t33.5 15q14 0 23.5 -9.5t9.5 -23.5q0 -19 -15 -33t-34 -14 q-14 0 -23 9t-9 23zM222 812q0 18 14 33t33 15q14 0 23.5 -9.5t9.5 -23.5q0 -18 -15 -32.5t-32 -14.5q-15 0 -24 9t-9 23z" />
<glyph unicode="&#xcc;" horiz-adv-x="399" d="M392 634h-100l-103 -588h95q15 0 15 -15l-3 -19q-2 -12 -15 -12h-244q-15 0 -15 15l3 19q2 12 15 12h100l103 588h-95q-15 0 -15 15l3 19q2 12 15 12h244q15 0 15 -15l-3 -19q-2 -12 -15 -12zM288 767l-63 91q-3 4 -3 9q0 14 15 14h26q9 0 14 -9l50 -92q2 -6 2 -8 q0 -14 -15 -14h-8q-12 0 -18 9z" />
<glyph unicode="&#xcd;" horiz-adv-x="399" d="M392 634h-100l-103 -588h95q15 0 15 -15l-3 -19q-2 -12 -15 -12h-244q-15 0 -15 15l3 19q2 12 15 12h100l103 588h-95q-15 0 -15 15l3 19q2 12 15 12h244q15 0 15 -15l-3 -19q-2 -12 -15 -12zM384 856l-101 -93q-4 -4 -9 -4q-6 0 -12 5.5t-6 11.5q0 4 3 7l85 94q5 5 11 5 h18q6 0 10.5 -4.5t4.5 -10.5q0 -7 -4 -11z" />
<glyph unicode="&#xce;" horiz-adv-x="397" d="M392 634h-100l-103 -588h95q15 0 15 -15l-3 -19q-2 -12 -15 -12h-244q-15 0 -15 15l3 19q2 12 15 12h100l103 588h-95q-15 0 -15 15l3 19q2 12 15 12h244q15 0 15 -15l-3 -19q-2 -12 -15 -12zM189 768q0 3 5 10l85 97q4 6 12 6h38q7 0 11 -6l49 -97q2 -4 2 -11 q-1 -9 -12 -9h-23q-6 0 -14 8l-37 85q-2 -1 -42 -54l-25 -32q-10 -7 -18 -7h-22q-9 0 -9 10z" />
<glyph unicode="&#xcf;" horiz-adv-x="397" d="M292 634h100q13 0 15 12l3 19q0 15 -15 15h-244q-13 0 -15 -12l-3 -19q0 -15 15 -15h95l-103 -588h-100q-13 0 -15 -12l-3 -19q0 -15 15 -15h244q13 0 15 12l3 19q0 15 -15 15h-95zM347 812q0 18 14.5 33t33.5 15q14 0 23.5 -9.5t9.5 -23.5q0 -19 -15 -33t-34 -14 q-14 0 -23 9t-9 23zM170 812q0 18 14 33t33 15q14 0 23.5 -9.5t9.5 -23.5q0 -18 -15 -32.5t-32 -14.5q-15 0 -24 9t-9 23z" />
<glyph unicode="&#xd0;" horiz-adv-x="674" d="M38 342l4 20q2 13 15 13h65l51 295q2 10 13 12q44 6 149 6q157 0 233.5 -78.5t76.5 -200.5q0 -79 -27.5 -152t-79 -133t-136.5 -96t-190 -36q-84 0 -140 6q-13 2 -13 15l54 314h-60q-15 0 -15 15zM162 327l-50 -284q56 -4 115 -4q155 0 259.5 101t104.5 277 q0 110 -68 166.5t-190 56.5q-53 0 -116 -5l-46 -260h66q15 0 15 -14l-4 -21q-2 -13 -15 -13h-71z" />
<glyph unicode="&#xd1;" horiz-adv-x="686" d="M518 58h-4l-272 613q-4 9 -14 9h-45q-13 0 -15 -12l-114 -653q0 -15 15 -15h19q13 0 15 12l87 495q7 41 17 113h4l272 -611q5 -9 14 -9h45q13 0 15 12l114 653q0 15 -15 15h-19q-13 0 -15 -12l-87 -496zM380 864q25 0 69 -27q26 -17 38 -17q16 0 32 32q4 8 13 8h9 q15 0 15 -15q0 -4 -1 -6q-11 -26 -31 -43t-41 -17q-34 0 -76 28q-26 16 -32 16q-20 0 -31 -30q-4 -10 -14 -10h-8q-15 0 -15 15q0 4 1 6q11 26 31 43t41 17z" />
<glyph unicode="&#xd2;" horiz-adv-x="721" d="M439 688q119 0 187 -77t68 -199q0 -176 -110 -298t-268 -122q-119 0 -186.5 75.5t-67.5 196.5q0 175 110.5 299.5t266.5 124.5zM325 41q129 0 222 108.5t93 266.5q0 104 -55.5 163.5t-154.5 59.5q-128 0 -221.5 -109.5t-93.5 -266.5q0 -103 56 -162.5t154 -59.5zM437 768 l-63 91q-3 4 -3 9q0 14 15 14h26q10 0 14 -9l50 -92q2 -6 2 -8q0 -14 -15 -14h-8q-12 0 -18 9z" />
<glyph unicode="&#xd3;" horiz-adv-x="721" d="M439 688q119 0 187 -77t68 -199q0 -176 -110 -298t-268 -122q-119 0 -186.5 75.5t-67.5 196.5q0 175 110.5 299.5t266.5 124.5zM325 41q129 0 222 108.5t93 266.5q0 104 -55.5 163.5t-154.5 59.5q-128 0 -221.5 -109.5t-93.5 -266.5q0 -103 56 -162.5t154 -59.5zM536 857 l-101 -93q-4 -4 -9 -4q-6 0 -12 5.5t-6 11.5q0 4 3 7l85 94q5 5 11 5h18q6 0 10.5 -4.5t4.5 -10.5q0 -7 -4 -11z" />
<glyph unicode="&#xd4;" horiz-adv-x="721" d="M439 688q119 0 187 -77t68 -199q0 -176 -110 -298t-268 -122q-119 0 -186.5 75.5t-67.5 196.5q0 175 110.5 299.5t266.5 124.5zM325 41q129 0 222 108.5t93 266.5q0 104 -55.5 163.5t-154.5 59.5q-128 0 -221.5 -109.5t-93.5 -266.5q0 -103 56 -162.5t154 -59.5zM343 767 q0 3 5 10l85 97q4 6 12 6h38q7 0 11 -6l49 -97q2 -4 2 -11q-1 -9 -12 -9h-23q-6 0 -14 8l-37 85q-2 -1 -42 -54l-25 -32q-10 -7 -18 -7h-22q-9 0 -9 10z" />
<glyph unicode="&#xd5;" horiz-adv-x="721" d="M439 688q119 0 187 -77t68 -199q0 -176 -110 -298t-268 -122q-119 0 -186.5 75.5t-67.5 196.5q0 175 110.5 299.5t266.5 124.5zM325 41q129 0 222 108.5t93 266.5q0 104 -55.5 163.5t-154.5 59.5q-128 0 -221.5 -109.5t-93.5 -266.5q0 -103 56 -162.5t154 -59.5zM401 863 q25 0 69 -27q26 -17 38 -17q16 0 32 32q4 8 13 8h9q15 0 15 -15q0 -4 -1 -6q-11 -26 -31 -43t-41 -17q-34 0 -76 28q-26 16 -32 16q-20 0 -31 -30q-4 -10 -14 -10h-8q-15 0 -15 15q0 4 1 6q11 26 31 43t41 17z" />
<glyph unicode="&#xd6;" horiz-adv-x="721" d="M439 688q119 0 187 -77t68 -199q0 -176 -110 -298t-268 -122q-119 0 -186.5 75.5t-67.5 196.5q0 175 110.5 299.5t266.5 124.5zM325 41q129 0 222 108.5t93 266.5q0 104 -55.5 163.5t-154.5 59.5q-128 0 -221.5 -109.5t-93.5 -266.5q0 -103 56 -162.5t154 -59.5zM501 807 q0 18 14.5 33t33.5 15q14 0 23.5 -9.5t9.5 -23.5q0 -19 -15 -33t-34 -14q-14 0 -23 9t-9 23zM324 807q0 18 14 33t33 15q14 0 23.5 -9.5t9.5 -23.5q0 -18 -15 -32.5t-32 -14.5q-15 0 -24 9t-9 23z" />
<glyph unicode="&#xd7;" horiz-adv-x="583" d="M493 463q4 4 10 4q7 0 11 -4l11 -11q4 -4 4 -11q0 -6 -4 -10l-194 -195l194 -194q4 -4 4 -11q0 -6 -4 -10l-11 -11q-5 -5 -11 -5q-5 0 -10 5l-194 194l-195 -194q-5 -5 -11 -5q-5 0 -10 5l-11 11q-5 5 -5 10q0 6 5 11l195 194l-195 195q-5 5 -5 10q0 6 5 11l11 11 q4 4 10 4q7 0 11 -4l195 -195z" />
<glyph unicode="&#xd8;" horiz-adv-x="721" d="M174 29l-51 -65q-5 -6 -13 -6q-3 0 -7 2l-15 10q-7 4 -7 13q0 4 3 9l50 68q-72 75 -72 200q0 115 50.5 213.5t137.5 156.5t189 58q77 0 143 -38l51 66q5 6 12 6q4 0 9 -3l14 -10q6 -5 6 -12q0 -4 -3 -9l-50 -70q73 -73 73 -201q0 -176 -110.5 -300.5t-267.5 -124.5 q-78 0 -142 37zM170 107l378 499q-54 32 -118 32q-114 0 -199.5 -83t-108.5 -216q-6 -36 -6 -69q0 -95 54 -163zM584 573l-376 -499q54 -33 117 -33q129 0 222 106t93 262q0 98 -56 164z" />
<glyph unicode="&#xd9;" horiz-adv-x="674" d="M529 216l80 452q2 12 15 12h18q15 0 15 -15l-79 -456q-16 -91 -100 -154t-184 -63q-91 0 -151 55.5t-60 136.5q0 18 3 33l80 451q2 12 15 12h19q15 0 15 -15l-79 -458q-3 -12 -3 -25q0 -61 48 -101t122 -40q79 0 146.5 53t79.5 122zM423 767l-63 91q-3 4 -3 9q0 14 15 14 h26q10 0 14 -9l50 -92q2 -6 2 -8q0 -14 -15 -14h-8q-12 0 -18 9z" />
<glyph unicode="&#xda;" horiz-adv-x="674" d="M529 216l80 452q2 12 15 12h18q15 0 15 -15l-79 -456q-16 -91 -100 -154t-184 -63q-91 0 -151 55.5t-60 136.5q0 18 3 33l80 451q2 12 15 12h19q15 0 15 -15l-79 -458q-3 -12 -3 -25q0 -61 48 -101t122 -40q79 0 146.5 53t79.5 122zM516 858l-101 -93q-4 -4 -9 -4 q-6 0 -12 5.5t-6 11.5q0 4 3 7l85 94q5 5 11 5h18q6 0 10.5 -4.5t4.5 -10.5q0 -7 -4 -11z" />
<glyph unicode="&#xdb;" horiz-adv-x="674" d="M529 216l80 452q2 12 15 12h18q15 0 15 -15l-79 -456q-16 -91 -100 -154t-184 -63q-91 0 -151 55.5t-60 136.5q0 18 3 33l80 451q2 12 15 12h19q15 0 15 -15l-79 -458q-3 -12 -3 -25q0 -61 48 -101t122 -40q79 0 146.5 53t79.5 122zM321 768q0 3 5 10l85 97q4 6 12 6h38 q7 0 11 -6l49 -97q2 -4 2 -11q-1 -9 -12 -9h-23q-6 0 -14 8l-37 85q-2 -1 -42 -54l-25 -32q-10 -7 -18 -7h-22q-9 0 -9 10z" />
<glyph unicode="&#xdc;" horiz-adv-x="674" d="M609 668l-80 -452q-12 -69 -79.5 -122t-146.5 -53q-74 0 -122 40t-48 101q0 13 3 25l79 458q0 15 -15 15h-19q-13 0 -15 -12l-80 -451q-3 -15 -3 -33q0 -81 60 -136.5t151 -55.5q100 0 184 63t100 154l79 456q0 15 -15 15h-18q-13 0 -15 -12zM481 806q0 18 14.5 33 t33.5 15q14 0 23.5 -9.5t9.5 -23.5q0 -19 -15 -33t-34 -14q-14 0 -23 9t-9 23zM304 806q0 18 14 33t33 15q14 0 23.5 -9.5t9.5 -23.5q0 -18 -15 -32.5t-32 -14.5q-15 0 -24 9t-9 23z" />
<glyph unicode="&#xdd;" horiz-adv-x="521" d="M295 305l-51 -293q-2 -12 -15 -12h-19q-15 0 -15 15l51 292l-138 353q-1 2 -1 6q0 14 15 14h21q10 0 14 -9q111 -267 115 -310h7q12 21 69.5 99l108.5 146l51 68q4 6 12 6h24q15 0 15 -14q0 -6 -3 -10zM440 851l-101 -93q-4 -4 -9 -4q-6 0 -12 5.5t-6 11.5q0 4 3 7l85 94 q5 5 11 5h18q6 0 10.5 -4.5t4.5 -10.5q0 -7 -4 -11z" />
<glyph unicode="&#xde;" horiz-adv-x="519" d="M121 129l-20 -116q-2 -13 -15 -13h-19q-15 0 -15 15l114 653q2 12 15 12h19q15 0 15 -15l-20 -119q45 3 86 3q111 0 158.5 -46.5t47.5 -119.5q0 -121 -75 -187.5t-175 -66.5h-116zM434 372q0 57 -35.5 93t-114.5 36q-46 0 -98 -5l-56 -319h122q76 0 129 55t53 140z" />
<glyph unicode="&#xdf;" horiz-adv-x="512" d="M154 48l13 18q3 8 12 8q5 0 10 -3q45 -32 96 -32q45 0 80 25t35 74q0 54 -74 86q-68 29 -98.5 52.5t-30.5 58.5q0 17 9 32.5t29 30.5t34.5 23.5t43.5 23.5q33 18 50.5 28.5t36 28.5t21.5 36q1 5 1 17q0 42 -35 66.5t-78 24.5q-117 0 -136 -110l-92 -524q-2 -12 -15 -12 h-17q-15 0 -15 15l91 521q14 78 67.5 115t124.5 37q53 0 102 -33t49 -92q0 -17 -3 -27q-5 -21 -17 -38.5t-33.5 -33t-37.5 -25t-45 -24.5q-29 -16 -44 -25t-28 -22t-13 -25q0 -31 105 -79q57 -26 78.5 -49.5t21.5 -67.5q0 -71 -52 -113t-115 -42q-69 0 -127 33q-7 4 -7 13 q0 6 3 10z" />
<glyph unicode="&#xe0;" horiz-adv-x="490" d="M409 1l-20 -6q-13 0 -17 15q-7 49 -7 56q0 37 3 55h-4q-33 -64 -81 -96.5t-95 -32.5q-71 0 -111.5 48t-40.5 132q0 75 24 136.5t61.5 98t80 56t82.5 19.5q94 0 165 -65q5 -5 5 -12l-18 -102q-23 -133 -23 -211q0 -44 7 -74v-4q0 -10 -11 -13zM403 395q-49 41 -128 41 q-28 0 -59 -15.5t-60.5 -44.5t-49 -80.5t-19.5 -115.5q0 -68 30.5 -104.5t77.5 -36.5q80 0 140.5 106.5t67.5 249.5zM301 566l-63 91q-3 4 -3 9q0 14 15 14h26q10 0 14 -9l50 -92q2 -6 2 -8q0 -14 -15 -14h-8q-12 0 -18 9z" />
<glyph unicode="&#xe1;" horiz-adv-x="490" d="M409 1l-20 -6q-13 0 -17 15q-7 49 -7 56q0 37 3 55h-4q-33 -64 -81 -96.5t-95 -32.5q-71 0 -111.5 48t-40.5 132q0 75 24 136.5t61.5 98t80 56t82.5 19.5q94 0 165 -65q5 -5 5 -12l-18 -102q-23 -133 -23 -211q0 -44 7 -74v-4q0 -10 -11 -13zM403 395q-49 41 -128 41 q-28 0 -59 -15.5t-60.5 -44.5t-49 -80.5t-19.5 -115.5q0 -68 30.5 -104.5t77.5 -36.5q80 0 140.5 106.5t67.5 249.5zM388 655l-101 -93q-4 -4 -9 -4q-6 0 -12 5.5t-6 11.5q0 4 3 7l85 94q5 5 11 5h18q6 0 10.5 -4.5t4.5 -10.5q0 -7 -4 -11z" />
<glyph unicode="&#xe2;" horiz-adv-x="490" d="M409 1l-20 -6q-13 0 -17 15q-7 49 -7 56q0 37 3 55h-4q-33 -64 -81 -96.5t-95 -32.5q-71 0 -111.5 48t-40.5 132q0 75 24 136.5t61.5 98t80 56t82.5 19.5q94 0 165 -65q5 -5 5 -12l-18 -102q-23 -133 -23 -211q0 -44 7 -74v-4q0 -10 -11 -13zM403 395q-49 41 -128 41 q-28 0 -59 -15.5t-60.5 -44.5t-49 -80.5t-19.5 -115.5q0 -68 30.5 -104.5t77.5 -36.5q80 0 140.5 106.5t67.5 249.5zM200 567q0 3 5 10l85 97q4 6 12 6h38q7 0 11 -6l49 -97q2 -4 2 -11q-2 -9 -12 -9h-23q-6 0 -14 8l-37 85q-2 -1 -42 -54l-25 -32q-11 -7 -18 -7h-22 q-9 0 -9 10z" />
<glyph unicode="&#xe3;" horiz-adv-x="490" d="M389 -5l20 6q11 3 11 13v4q-7 30 -7 74q0 78 23 211l18 102q0 7 -5 12q-71 65 -165 65q-40 0 -82.5 -19.5t-80 -56t-61.5 -98t-24 -136.5q0 -84 40.5 -132t111.5 -48q47 0 95 32.5t81 96.5h4q-3 -18 -3 -55q0 -7 7 -56q4 -15 17 -15zM403 395q-7 -143 -67.5 -249.5 t-140.5 -106.5q-47 0 -77.5 36.5t-30.5 104.5q0 64 19.5 115.5t49 80.5t60.5 44.5t59 15.5q79 0 128 -41zM258 662q25 0 69 -27q26 -17 38 -17q16 0 32 32q4 8 13 8h9q15 0 15 -15q0 -4 -1 -6q-11 -26 -31 -43t-41 -17q-34 0 -76 28q-26 16 -32 16q-20 0 -31 -30 q-4 -10 -14 -10h-8q-15 0 -15 15q0 4 1 6q11 26 31 43t41 17z" />
<glyph unicode="&#xe4;" horiz-adv-x="490" d="M389 -5l20 6q11 3 11 13v4q-7 30 -7 74q0 78 23 211l18 102q0 7 -5 12q-71 65 -165 65q-40 0 -82.5 -19.5t-80 -56t-61.5 -98t-24 -136.5q0 -84 40.5 -132t111.5 -48q47 0 95 32.5t81 96.5h4q-3 -18 -3 -55q0 -7 7 -56q4 -15 17 -15zM403 395q-7 -143 -67.5 -249.5 t-140.5 -106.5q-47 0 -77.5 36.5t-30.5 104.5q0 64 19.5 115.5t49 80.5t60.5 44.5t59 15.5q79 0 128 -41zM357 611q0 18 14.5 33t33.5 15q14 0 23.5 -9.5t9.5 -23.5q0 -19 -15 -33t-34 -14q-14 0 -23 9t-9 23zM180 611q0 18 14 33t33 15q14 0 23.5 -9.5t9.5 -23.5 q0 -18 -15 -32.5t-32 -14.5q-15 0 -24 9t-9 23z" />
<glyph unicode="&#xe5;" horiz-adv-x="490" d="M389 -5l20 6q11 3 11 13v4q-7 30 -7 74q0 78 23 211l18 102q0 7 -5 12q-71 65 -165 65q-40 0 -82.5 -19.5t-80 -56t-61.5 -98t-24 -136.5q0 -84 40.5 -132t111.5 -48q47 0 95 32.5t81 96.5h4q-3 -18 -3 -55q0 -7 7 -56q4 -15 17 -15zM403 395q-7 -143 -67.5 -249.5 t-140.5 -106.5q-47 0 -77.5 36.5t-30.5 104.5q0 64 19.5 115.5t49 80.5t60.5 44.5t59 15.5q79 0 128 -41zM326 705q32 0 53 -21t21 -51q0 -39 -32 -69t-72 -30q-33 0 -54.5 20t-21.5 50q0 39 32.5 70t73.5 31zM301 563q24 0 45.5 20t21.5 45q0 20 -14 33.5t-33 13.5 q-27 0 -47 -20t-20 -47q0 -20 13 -32.5t34 -12.5z" />
<glyph unicode="&#xe6;" horiz-adv-x="783" d="M686 54l2 -16q0 -10 -9 -14q-74 -32 -152 -32q-108 0 -146 94h-4q-29 -37 -75.5 -65.5t-102.5 -28.5q-74 0 -118 51t-44 135q0 127 74.5 215.5t173.5 88.5q85 0 155 -18q11 -4 11 -15l-2 -51q31 45 75 64.5t87 19.5q67 0 104.5 -39.5t37.5 -108.5q0 -41 -14 -97 q-4 -11 -15 -11h-311q-4 -30 -4 -44q0 -67 34 -105t92 -38q62 0 130 29q2 1 7 1q11 0 14 -15zM346 105l56 315q-56 14 -125 14q-76 0 -133 -72t-57 -177q0 -67 32 -106.5t88 -39.5q77 0 139 66zM423 271h275q5 30 5 52q0 53 -26 82t-72 29q-61 0 -110 -42t-72 -121z" />
<glyph unicode="&#xe7;" horiz-adv-x="412" d="M339 49l2 -17q0 -8 -10 -13q-61 -27 -127 -27q-79 0 -123.5 52t-44.5 137q0 128 75 214.5t179 86.5q57 0 113 -25q9 -4 9 -14q0 -3 -1 -5l-9 -21q-3 -10 -13 -10q-3 0 -7 2q-51 25 -100 25q-77 0 -136 -71.5t-59 -180.5q0 -67 34 -104.5t92 -37.5q47 0 105 23q2 1 6 1 q13 0 15 -15zM205 -36l-17 -28q26 -4 41.5 -19t15.5 -35q0 -7 -1 -10q-6 -38 -38 -57t-74 -19q-18 0 -37 6q-6 2 -6 10l7 17q4 7 10 7h2q2 0 3 -1q13 -5 34 -5q18 0 36 12t22 30v4q0 26 -44 33q-12 2 -12 9l4 10l27 43q5 8 15 8h9q7 0 7 -6q0 -5 -4 -9z" />
<glyph unicode="&#xe8;" horiz-adv-x="461" d="M340 53l4 -15q0 -12 -9 -17q-69 -29 -131 -29q-78 0 -122.5 51t-44.5 135q0 128 74.5 216t177.5 88q59 0 90 -31t31 -73q0 -75 -87.5 -112t-232.5 -39q-3 -30 -3 -42q0 -67 34 -106t92 -39q49 0 106 24q2 1 6 1q12 0 15 -12zM99 272q70 0 125.5 9t94.5 33.5t39 61.5 q0 28 -21.5 43.5t-54.5 15.5q-61 0 -110.5 -42t-72.5 -121zM302 566l-63 91q-3 4 -3 9q0 14 15 14h26q9 0 14 -9l50 -92q2 -6 2 -8q0 -14 -15 -14h-8q-12 0 -18 9z" />
<glyph unicode="&#xe9;" horiz-adv-x="461" d="M340 53l4 -15q0 -12 -9 -17q-69 -29 -131 -29q-78 0 -122.5 51t-44.5 135q0 128 74.5 216t177.5 88q59 0 90 -31t31 -73q0 -75 -87.5 -112t-232.5 -39q-3 -30 -3 -42q0 -67 34 -106t92 -39q49 0 106 24q2 1 6 1q12 0 15 -12zM99 272q70 0 125.5 9t94.5 33.5t39 61.5 q0 28 -21.5 43.5t-54.5 15.5q-61 0 -110.5 -42t-72.5 -121zM392 655l-101 -93q-4 -4 -9 -4q-6 0 -12 5.5t-6 11.5q0 4 3 7l85 94q5 5 11 5h18q6 0 10.5 -4.5t4.5 -10.5q0 -7 -4 -11z" />
<glyph unicode="&#xea;" horiz-adv-x="461" d="M340 53l4 -15q0 -12 -9 -17q-69 -29 -131 -29q-78 0 -122.5 51t-44.5 135q0 128 74.5 216t177.5 88q59 0 90 -31t31 -73q0 -75 -87.5 -112t-232.5 -39q-3 -30 -3 -42q0 -67 34 -106t92 -39q49 0 106 24q2 1 6 1q12 0 15 -12zM99 272q70 0 125.5 9t94.5 33.5t39 61.5 q0 28 -21.5 43.5t-54.5 15.5q-61 0 -110.5 -42t-72.5 -121zM202 567q0 3 5 10l85 97q4 6 12 6h38q7 0 11 -6l49 -97q2 -4 2 -11q-2 -9 -12 -9h-23q-6 0 -14 8l-37 85q-2 -1 -42 -54l-25 -32q-11 -7 -18 -7h-22q-9 0 -9 10z" />
<glyph unicode="&#xeb;" horiz-adv-x="461" d="M344 38l-4 15q-3 12 -15 12q-4 0 -6 -1q-57 -24 -106 -24q-58 0 -92 39t-34 106q0 12 3 42q145 2 232.5 39t87.5 112q0 42 -31 73t-90 31q-103 0 -177.5 -88t-74.5 -216q0 -84 44.5 -135t122.5 -51q62 0 131 29q9 5 9 17zM99 272q23 79 72.5 121t110.5 42 q33 0 54.5 -15.5t21.5 -43.5q0 -37 -39 -61.5t-94.5 -33.5t-125.5 -9zM360 611q0 18 14.5 33t33.5 15q14 0 23.5 -9.5t9.5 -23.5q0 -19 -15 -33t-34 -14q-14 0 -23 9t-9 23zM183 611q0 18 14 33t33 15q14 0 23.5 -9.5t9.5 -23.5q0 -18 -15 -32.5t-32 -14.5q-15 0 -24 9 t-9 23z" />
<glyph unicode="&#xec;" horiz-adv-x="192" d="M140 566l-63 91q-3 4 -3 9q0 14 15 14h26q9 0 14 -9l50 -92q2 -6 2 -8q0 -14 -15 -14h-8q-12 0 -18 9zM158 456l-78 -444q-2 -12 -15 -12h-17q-15 0 -15 18l77 444q2 12 15 12h18q15 0 15 -18z" />
<glyph unicode="&#xed;" horiz-adv-x="192" d="M264 655l-101 -93q-4 -4 -9 -4q-6 0 -12 5.5t-6 11.5q0 4 3 7l85 94q5 5 11 5h18q6 0 10.5 -4.5t4.5 -10.5q0 -7 -4 -11zM158 456l-78 -444q-2 -12 -15 -12h-17q-15 0 -15 18l77 444q2 12 15 12h18q15 0 15 -18z" />
<glyph unicode="&#xee;" horiz-adv-x="192" d="M158 456l-78 -444q-2 -12 -15 -12h-17q-15 0 -15 18l77 444q2 12 15 12h18q15 0 15 -18zM56 567q0 3 5 10l85 97q4 6 12 6h38q7 0 11 -6l49 -97q2 -4 2 -11q-2 -9 -12 -9h-23q-6 0 -14 8l-37 85q-2 -1 -42 -54l-25 -32q-11 -7 -18 -7h-22q-9 0 -9 10z" />
<glyph unicode="&#xef;" horiz-adv-x="192" d="M214 611q0 18 14.5 33t33.5 15q14 0 23.5 -9.5t9.5 -23.5q0 -19 -15 -33t-34 -14q-14 0 -23 9t-9 23zM37 611q0 18 14 33t33 15q14 0 23.5 -9.5t9.5 -23.5q0 -18 -15 -32.5t-32 -14.5q-15 0 -24 9t-9 23zM158 456l-78 -444q-2 -12 -15 -12h-17q-15 0 -15 18l77 444 q2 12 15 12h18q15 0 15 -18z" />
<glyph unicode="&#xf0;" horiz-adv-x="505" d="M212 530l-3 10q0 11 9 15l100 44q-43 45 -76 67q-7 4 -7 13q0 6 4 10l15 11q4 2 8 2t8 -2q52 -34 93 -82l110 49q3 2 9 2q8 0 11 -9l2 -11q0 -1 1 -3q0 -7 -8 -10l-102 -46q76 -106 76 -248q0 -143 -72 -246.5t-187 -103.5q-77 0 -122 53t-45 137q0 120 75.5 210 t173.5 90q73 0 116 -49l4 3q-17 73 -64 135l-110 -48q-2 -1 -6 -1q-10 0 -13 8zM406 293q0 66 -32 103.5t-93 37.5q-75 0 -134.5 -71t-59.5 -174q0 -68 34 -109t90 -41q78 0 136.5 73.5t58.5 180.5z" />
<glyph unicode="&#xf1;" horiz-adv-x="479" d="M148 369q6 55 6 92q0 13 -14 13h-11q-14 0 -16 -15q-3 -59 -24 -182l-45 -262q0 -15 15 -15h19q13 0 15 13l38 218q20 86 71.5 145t102.5 59q44 0 63 -18.5t19 -55.5q0 -23 -4 -42l-53 -304q0 -15 15 -15h18q13 0 15 13l54 308q5 28 5 49q0 112 -119 112 q-41 0 -87.5 -28.5t-77.5 -84.5h-5zM258 662q25 0 69 -27q26 -17 38 -17q16 0 32 32q4 8 13 8h9q15 0 15 -15q0 -4 -1 -6q-11 -26 -31 -43t-41 -17q-34 0 -76 28q-26 16 -32 16q-20 0 -31 -30q-4 -10 -14 -10h-8q-15 0 -15 15q0 4 1 6q11 26 31 43t41 17z" />
<glyph unicode="&#xf2;" horiz-adv-x="496" d="M458 293q0 -128 -75 -214.5t-179 -86.5q-77 0 -122 52.5t-45 137.5q0 128 74.5 214t178.5 86q78 0 123 -52t45 -137zM408 294q0 67 -34 103.5t-92 36.5q-77 0 -136 -71.5t-59 -180.5q0 -67 34 -104.5t92 -37.5q78 0 136.5 71.5t58.5 182.5zM301 560l-63 91q-3 4 -3 9 q0 14 15 14h26q10 0 14 -9l50 -92q2 -6 2 -8q0 -14 -15 -14h-8q-12 0 -18 9z" />
<glyph unicode="&#xf3;" horiz-adv-x="496" d="M458 293q0 -128 -75 -214.5t-179 -86.5q-77 0 -122 52.5t-45 137.5q0 128 74.5 214t178.5 86q78 0 123 -52t45 -137zM408 294q0 67 -34 103.5t-92 36.5q-77 0 -136 -71.5t-59 -180.5q0 -67 34 -104.5t92 -37.5q78 0 136.5 71.5t58.5 182.5zM396 656l-101 -93q-4 -4 -9 -4 q-6 0 -12 5.5t-6 11.5q0 4 3 7l85 94q5 5 11 5h18q6 0 10.5 -4.5t4.5 -10.5q0 -7 -4 -11z" />
<glyph unicode="&#xf4;" horiz-adv-x="496" d="M458 293q0 -128 -75 -214.5t-179 -86.5q-77 0 -122 52.5t-45 137.5q0 128 74.5 214t178.5 86q78 0 123 -52t45 -137zM408 294q0 67 -34 103.5t-92 36.5q-77 0 -136 -71.5t-59 -180.5q0 -67 34 -104.5t92 -37.5q78 0 136.5 71.5t58.5 182.5zM202 567q0 3 5 10l85 97 q4 6 12 6h38q7 0 11 -6l49 -97q2 -4 2 -11q-2 -9 -12 -9h-23q-6 0 -14 8l-37 85q-2 -1 -42 -54l-25 -32q-11 -7 -18 -7h-22q-9 0 -9 10z" />
<glyph unicode="&#xf5;" horiz-adv-x="496" d="M458 293q0 85 -45 137t-123 52q-104 0 -178.5 -86t-74.5 -214q0 -85 45 -137.5t122 -52.5q104 0 179 86.5t75 214.5zM408 294q0 -111 -58.5 -182.5t-136.5 -71.5q-58 0 -92 37.5t-34 104.5q0 109 59 180.5t136 71.5q58 0 92 -36.5t34 -103.5zM260 662q25 0 69 -27 q26 -17 38 -17q16 0 32 32q4 8 13 8h9q15 0 15 -15q0 -4 -1 -6q-11 -26 -31 -43t-41 -17q-34 0 -76 28q-26 16 -32 16q-20 0 -31 -30q-4 -10 -14 -10h-8q-15 0 -15 15q0 4 1 6q11 26 31 43t41 17z" />
<glyph unicode="&#xf6;" horiz-adv-x="496" d="M458 293q0 85 -45 137t-123 52q-104 0 -178.5 -86t-74.5 -214q0 -85 45 -137.5t122 -52.5q104 0 179 86.5t75 214.5zM408 294q0 -111 -58.5 -182.5t-136.5 -71.5q-58 0 -92 37.5t-34 104.5q0 109 59 180.5t136 71.5q58 0 92 -36.5t34 -103.5zM360 611q0 18 14.5 33 t33.5 15q14 0 23.5 -9.5t9.5 -23.5q0 -19 -15 -33t-34 -14q-14 0 -23 9t-9 23zM183 611q0 18 14 33t33 15q14 0 23.5 -9.5t9.5 -23.5q0 -18 -15 -32.5t-32 -14.5q-15 0 -24 9t-9 23z" />
<glyph unicode="&#xf7;" horiz-adv-x="546" d="M51 260h444q15 0 15 -15v-16q0 -6 -4.5 -10.5t-10.5 -4.5h-444q-15 0 -15 15v16q0 15 15 15zM273 367q-17 0 -28 10.5t-11 27.5t11 28t28 11q18 0 28.5 -11t10.5 -28t-10.5 -27.5t-28.5 -10.5zM273 30q-17 0 -28 10.5t-11 27.5q0 18 11 28.5t28 10.5q18 0 28.5 -10.5 t10.5 -28.5q0 -17 -10.5 -27.5t-28.5 -10.5z" />
<glyph unicode="&#xf8;" horiz-adv-x="496" d="M109 19l-44 -58q-5 -6 -12 -6q-4 0 -9 3l-13 9q-6 5 -6 12q0 4 3 9l47 62q-38 47 -38 127q0 129 75 217t179 88q56 0 93 -25l44 57q5 5 13 5q4 0 6 -1l13 -8q8 -3 8 -12q0 -6 -3 -10l-46 -62q39 -51 39 -130q0 -127 -75.5 -215.5t-178.5 -88.5q-52 0 -95 27zM87 185 q0 -55 23 -90l243 321q-28 18 -71 18q-69 0 -121.5 -53t-68.5 -143q-5 -32 -5 -53zM407 291q0 53 -23 90l-242 -320q32 -22 70 -22q78 0 136.5 71t58.5 181z" />
<glyph unicode="&#xf9;" horiz-adv-x="479" d="M341 105h-5q-31 -56 -77.5 -84.5t-87.5 -28.5q-119 0 -119 112q0 21 5 49l54 308q2 13 15 13h20q15 0 15 -15l-55 -304q-4 -19 -4 -42q0 -37 19 -55.5t63 -18.5q51 0 102.5 59t71.5 145l38 218q2 13 15 13h19q15 0 15 -15l-45 -262q-9 -55 -15 -101l-7 -63l-2 -18 q0 -6 -4.5 -10.5t-11.5 -4.5h-11q-14 0 -14 15q0 35 6 90zM283 566l-63 91q-3 4 -3 9q0 14 15 14h26q10 0 14 -9l50 -92q2 -6 2 -8q0 -14 -15 -14h-8q-12 0 -18 9z" />
<glyph unicode="&#xfa;" horiz-adv-x="479" d="M341 105h-5q-31 -56 -77.5 -84.5t-87.5 -28.5q-119 0 -119 112q0 21 5 49l54 308q2 13 15 13h20q15 0 15 -15l-55 -304q-4 -19 -4 -42q0 -37 19 -55.5t63 -18.5q51 0 102.5 59t71.5 145l38 218q2 13 15 13h19q15 0 15 -15l-45 -262q-9 -55 -15 -101l-7 -63l-2 -18 q0 -6 -4.5 -10.5t-11.5 -4.5h-11q-14 0 -14 15q0 35 6 90zM373 658l-101 -93q-4 -4 -9 -4q-6 0 -12 5.5t-6 11.5q0 4 3 7l85 94q5 5 11 5h18q6 0 10.5 -4.5t4.5 -10.5q0 -7 -4 -11z" />
<glyph unicode="&#xfb;" horiz-adv-x="479" d="M341 105h-5q-31 -56 -77.5 -84.5t-87.5 -28.5q-119 0 -119 112q0 21 5 49l54 308q2 13 15 13h20q15 0 15 -15l-55 -304q-4 -19 -4 -42q0 -37 19 -55.5t63 -18.5q51 0 102.5 59t71.5 145l38 218q2 13 15 13h19q15 0 15 -15l-45 -262q-9 -55 -15 -101l-7 -63l-2 -18 q0 -6 -4.5 -10.5t-11.5 -4.5h-11q-14 0 -14 15q0 35 6 90zM184 567q0 3 5 10l85 97q4 6 12 6h38q7 0 11 -6l49 -97q2 -4 2 -11q-2 -9 -12 -9h-23q-6 0 -14 8l-37 85q-2 -1 -42 -54l-25 -32q-11 -7 -18 -7h-22q-9 0 -9 10z" />
<glyph unicode="&#xfc;" horiz-adv-x="479" d="M341 105q-6 -55 -6 -90q0 -15 14 -15h11q7 0 11.5 4.5t4.5 10.5q3 59 24 182l45 262q0 15 -15 15h-19q-13 0 -15 -13l-38 -218q-20 -86 -71.5 -145t-102.5 -59q-44 0 -63 18.5t-19 55.5q0 23 4 42l55 304q0 15 -15 15h-20q-13 0 -15 -13l-54 -308q-5 -28 -5 -49 q0 -112 119 -112q41 0 87.5 28.5t77.5 84.5h5zM343 611q0 18 14.5 33t33.5 15q14 0 23.5 -9.5t9.5 -23.5q0 -19 -15 -33t-34 -14q-14 0 -23 9t-9 23zM166 611q0 18 14 33t33 15q14 0 23.5 -9.5t9.5 -23.5q0 -18 -15 -32.5t-32 -14.5q-15 0 -24 9t-9 23z" />
<glyph unicode="&#xfd;" horiz-adv-x="430" d="M-47 -195l-1 9q0 15 11 20q55 18 93 48t67 82q2 5 11 21l14 25l-75 447q0 17 15 17h17q13 0 15 -12q55 -269 65 -386h4q17 41 202 390q4 8 13 8h21q15 0 15 -14q0 -2 -2 -8l-271 -507q-57 -108 -193 -153q-2 -1 -6 -1q-12 0 -15 14zM367 655l-101 -93q-4 -4 -9 -4 q-6 0 -12 5.5t-6 11.5q0 4 3 7l85 94q5 5 11 5h18q6 0 10.5 -4.5t4.5 -10.5q0 -7 -4 -11z" />
<glyph unicode="&#xfe;" horiz-adv-x="491" d="M453 297q0 -127 -75 -216t-174 -89q-64 0 -120 40l-40 -225q-2 -13 -15 -13h-17q-15 0 -15 15l151 858q2 12 15 12h17q15 0 15 -14l-41 -237h4q67 54 132 54q74 0 118.5 -51t44.5 -134zM402 290q0 66 -32 105t-88 39q-76 0 -138 -66l-50 -281q54 -48 118 -48q76 0 133 72 t57 179z" />
<glyph unicode="&#xff;" horiz-adv-x="430" d="M-48 -186l1 -9q3 -14 15 -14q4 0 6 1q136 45 193 153l271 507q2 6 2 8q0 14 -15 14h-21q-9 0 -13 -8q-185 -349 -202 -390h-4q-10 117 -65 386q-2 12 -15 12h-17q-15 0 -15 -17l75 -447l-14 -25t-11 -21q-29 -52 -67 -82t-93 -48q-11 -5 -11 -20zM331 611q0 18 14.5 33 t33.5 15q14 0 23.5 -9.5t9.5 -23.5q0 -19 -15 -33t-34 -14q-14 0 -23 9t-9 23zM154 611q0 18 14 33t33 15q14 0 23.5 -9.5t9.5 -23.5q0 -18 -15 -32.5t-32 -14.5q-15 0 -24 9t-9 23z" />
<glyph unicode="&#x152;" horiz-adv-x="1002" d="M577 15l23 133q-50 -73 -123 -114.5t-161 -41.5q-119 0 -186.5 75.5t-67.5 196.5q0 175 110.5 299.5t266.5 124.5q176 0 228 -158l24 136q2 13 15 13h300q15 0 15 -15l-3 -20q-2 -12 -15 -12h-269l-45 -255h235q15 0 15 -15l-3 -20q-2 -12 -15 -12h-240l-50 -283h271 q15 0 15 -15l-3 -20q-2 -12 -15 -12h-307q-15 0 -15 15zM640 411q0 104 -55.5 165.5t-154.5 61.5q-128 0 -221.5 -109t-93.5 -266q0 -103 56 -162.5t154 -59.5q130 0 222.5 106.5t92.5 263.5z" />
<glyph unicode="&#x153;" horiz-adv-x="822" d="M564 -8q-63 0 -104 35.5t-53 97.5q-34 -62 -86.5 -97.5t-116.5 -35.5q-78 0 -122.5 51t-44.5 135q0 128 75 216t178 88q64 0 104.5 -35.5t52.5 -97.5q34 62 86.5 97.5t115.5 35.5q67 0 105 -39.5t38 -108.5q0 -21 -5 -51q-9 -44 -10 -46q-4 -11 -14 -11h-312 q-3 -22 -3 -43q0 -67 33 -105.5t91 -38.5q60 0 133 30q2 1 6 1q11 0 14 -16l1 -14q0 -12 -9 -16q-76 -32 -153 -32zM407 290q0 67 -33.5 105.5t-91.5 38.5q-78 0 -136.5 -70.5t-58.5 -179.5q0 -67 33.5 -106t91.5 -39q78 0 136.5 70.5t58.5 180.5zM742 324q0 53 -27 81.5 t-73 28.5q-62 0 -111 -44t-70 -119h275q6 29 6 53z" />
<glyph unicode="&#x178;" horiz-adv-x="521" d="M244 12l51 293l261 351q3 4 3 10q0 14 -15 14h-24q-8 0 -12 -6q-201 -266 -229 -313h-7q-4 43 -115 310q-4 9 -14 9h-21q-15 0 -15 -14q0 -4 1 -6l138 -353l-51 -292q0 -15 15 -15h19q13 0 15 12zM405 810q0 18 14.5 33t33.5 15q14 0 23.5 -9.5t9.5 -23.5q0 -19 -15 -33 t-34 -14q-14 0 -23 9t-9 23zM228 810q0 18 14 33t33 15q14 0 23.5 -9.5t9.5 -23.5q0 -18 -15 -32.5t-32 -14.5q-15 0 -24 9t-9 23z" />
<glyph unicode="&#x2c6;" horiz-adv-x="315" d="M115 567q0 3 5 10l85 97q4 6 12 6h38q7 0 11 -6l49 -97q2 -4 2 -11q-1 -9 -12 -9h-23q-6 0 -14 8l-37 85q-2 -1 -42 -54l-25 -32q-10 -7 -18 -7h-22q-9 0 -9 10z" />
<glyph unicode="&#x2dc;" horiz-adv-x="312" d="M171 662q25 0 69 -27q26 -17 38 -17q16 0 32 32q4 8 13 8h9q15 0 15 -15q0 -4 -1 -6q-11 -26 -31 -43t-41 -17q-34 0 -76 28q-26 16 -32 16q-20 0 -31 -30q-4 -10 -14 -10h-8q-15 0 -15 15q0 4 1 6q11 26 31 43t41 17z" />
<glyph unicode="&#x2000;" horiz-adv-x="453" />
<glyph unicode="&#x2001;" horiz-adv-x="906" />
<glyph unicode="&#x2002;" horiz-adv-x="453" />
<glyph unicode="&#x2003;" horiz-adv-x="906" />
<glyph unicode="&#x2004;" horiz-adv-x="302" />
<glyph unicode="&#x2005;" horiz-adv-x="226" />
<glyph unicode="&#x2006;" horiz-adv-x="151" />
<glyph unicode="&#x2007;" horiz-adv-x="151" />
<glyph unicode="&#x2008;" horiz-adv-x="113" />
<glyph unicode="&#x2009;" horiz-adv-x="181" />
<glyph unicode="&#x200a;" horiz-adv-x="50" />
<glyph unicode="&#x2010;" horiz-adv-x="386" d="M332 239l-3 -19q-2 -13 -15 -13h-249q-15 0 -15 17l4 19q2 13 15 13h248q15 0 15 -17z" />
<glyph unicode="&#x2011;" horiz-adv-x="386" d="M332 239l-3 -19q-2 -13 -15 -13h-249q-15 0 -15 17l4 19q2 13 15 13h248q15 0 15 -17z" />
<glyph unicode="&#x2013;" horiz-adv-x="503" d="M477 244l-3 -18q-2 -12 -15 -12h-420q-15 0 -15 15l3 18q2 12 15 12h420q15 0 15 -15z" />
<glyph unicode="&#x2014;" horiz-adv-x="885" d="M861 244l-3 -18q-2 -12 -15 -12h-803q-15 0 -15 15l3 18q2 12 15 12h803q15 0 15 -15z" />
<glyph unicode="&#x2018;" horiz-adv-x="168" d="M171 680l10 -6q7 -5 7 -13q0 -2 -2 -8q-54 -86 -63 -172q-2 -15 -13 -26t-25 -11t-23.5 9.5t-9.5 23.5q0 67 101 200q5 5 11 5q3 0 7 -2z" />
<glyph unicode="&#x2019;" horiz-adv-x="173" d="M85 451l-10 6q-9 3 -9 12q0 4 3 9q53 86 63 172q2 15 13 26.5t25 11.5t23.5 -9.5t9.5 -23.5q0 -65 -100 -200q-5 -5 -11 -5q-5 0 -7 1z" />
<glyph unicode="&#x201a;" horiz-adv-x="200" d="M-9 -165l-8 4q-11 3 -11 13q0 4 4 10q62 82 80 170q5 15 18.5 27t26.5 12q14 0 23 -8t9 -21q0 -61 -124 -204q-5 -5 -11 -5q-3 0 -7 2z" />
<glyph unicode="&#x201c;" horiz-adv-x="297" d="M157 680l9 -5q10 -3 10 -12l-3 -9q-53 -86 -62 -172q-3 -16 -14.5 -27t-25.5 -11t-23 9.5t-9 23.5q0 67 101 200q3 5 10 5q3 0 7 -2zM298 681l11 -6q8 -3 8 -12q0 -4 -3 -9q-54 -91 -61 -172q-3 -16 -14.5 -27t-24.5 -11q-14 0 -24 9.5t-10 23.5q0 64 101 200q3 5 11 5 q4 0 6 -1z" />
<glyph unicode="&#x201d;" horiz-adv-x="325" d="M221 452l-9 5q-9 3 -9 12q0 4 3 9q53 85 63 172q1 15 13 26.5t25 11.5q14 0 23.5 -9.5t9.5 -23.5q0 -64 -101 -200q-3 -5 -11 -5q-3 0 -7 2zM81 451l-11 6q-9 4 -9 12l3 9q55 89 62 172q2 15 14 26.5t25 11.5q14 0 24 -9.5t10 -23.5q0 -61 -101 -200q-5 -5 -12 -5 q-3 0 -5 1z" />
<glyph unicode="&#x201e;" horiz-adv-x="333" d="M140 -165l-10 7q-7 5 -7 13q0 3 3 8q65 86 81 170q5 15 18 26.5t26 11.5q14 0 23 -8t9 -21q0 -61 -124 -204q-5 -5 -12 -5q-3 0 -7 2zM-8 -165l-8 4q-11 3 -11 13q0 4 4 10q62 82 80 170q5 15 18.5 27t26.5 12q14 0 23 -8t9 -21q0 -61 -124 -204q-5 -5 -11 -5q-3 0 -7 2z " />
<glyph unicode="&#x2022;" horiz-adv-x="340" d="M168 452q47 0 80 -33t33 -79q0 -47 -33 -80t-80 -33q-45 0 -77 33t-32 80q0 46 32 79t77 33z" />
<glyph unicode="&#x2026;" horiz-adv-x="742" d="M102 71q34 0 34 -31q0 -22 -13.5 -35t-34.5 -13q-34 0 -34 31q0 22 13.5 35t34.5 13zM341 71q34 0 34 -31q0 -22 -13.5 -35t-34.5 -13q-34 0 -34 31q0 22 13.5 35t34.5 13zM580 71q34 0 34 -31q0 -22 -13.5 -35t-34.5 -13q-34 0 -34 31q0 22 13.5 35t34.5 13z" />
<glyph unicode="&#x202f;" horiz-adv-x="181" />
<glyph unicode="&#x2039;" horiz-adv-x="241" d="M211 474h16q15 0 15 -14q0 -6 -3 -10l-161 -213l87 -216q1 -2 1 -6q0 -15 -15 -15h-21q-10 0 -14 9l-88 221v4q0 6 2 10l169 224q4 6 12 6z" />
<glyph unicode="&#x203a;" horiz-adv-x="241" d="M88 474h22q10 0 14 -9l88 -221v-4q0 -6 -2 -10l-169 -224q-4 -6 -12 -6h-15q-15 0 -15 14q0 6 3 10l159 214l-87 216q-1 2 -1 6q0 14 15 14z" />
<glyph unicode="&#x205f;" horiz-adv-x="226" />
<glyph unicode="&#x20ac;" horiz-adv-x="543" d="M580 650l-10 -23q-4 -7 -13 -7q-4 0 -6 1q-47 19 -99 19q-86 0 -158 -51.5t-109 -154.5h270q15 0 15 -16l-3 -17q-4 -11 -15 -11h-283q-12 -51 -17 -100h278q15 0 15 -15l-3 -18q-2 -12 -15 -12h-275q3 -104 55.5 -154.5t139.5 -50.5q49 0 102 17q2 1 5 1q13 0 15 -14 l1 -17q0 -10 -10 -14q-57 -21 -122 -21q-112 0 -176.5 62.5t-65.5 190.5h-35q-15 0 -15 15l3 18q2 12 15 12h33q5 57 18 100h-29q-15 0 -15 16l3 17q4 11 15 11h40q42 126 131.5 190t200.5 64q62 0 110 -19q10 -3 10 -14q0 -3 -1 -5z" />
<glyph unicode="&#x2122;" horiz-adv-x="563" d="M134 405l43 244h-74q-8 0 -8 8l2 13q2 10 11 10h185q7 0 7 -8l-2 -13q-2 -10 -11 -10h-73l-43 -242q-2 -10 -11 -10h-18q-8 0 -8 8zM406 499l-56 122l-44 -214q-2 -10 -11 -10h-18q-8 0 -8 8l54 265q2 10 11 10h22q9 0 13 -8l57 -124l106 132h31q8 0 8 -8l-38 -265 q-2 -10 -11 -10h-13q-9 0 -9 10q23 176 28 217l-99 -125q-6 -6 -13 -6t-10 6z" />
</font>
</defs>
</svg>
