<?xml version="1.0" standalone="no"?>
<!DOCTYPE svg PUBLIC "-//W3C//DTD SVG 1.1//EN" "http://www.w3.org/Graphics/SVG/1.1/DTD/svg11.dtd" >
<svg xmlns="http://www.w3.org/2000/svg">
<metadata>
This is a custom SVG webfont generated by Fontspring.
Designer    : Nicholas Garner
Foundry     : Aviation Partners
Foundry URL : http://www.codesign.co.uk
</metadata>
<defs>
<font id="webfontZHrAyMTD" horiz-adv-x="412" >
<font-face units-per-em="1000" ascent="800" descent="-200" />
<missing-glyph horiz-adv-x="193" />
<glyph unicode=" "  horiz-adv-x="193" />
<glyph unicode="&#x09;" horiz-adv-x="193" />
<glyph unicode="&#xa0;" horiz-adv-x="193" />
<glyph unicode="!" horiz-adv-x="245" d="M156 654l-13 -435q0 -10 -7.5 -15.5t-17.5 -5.5q-24 0 -25 21l-15 435q0 11 7.5 18.5t17.5 7.5h28q10 0 17.5 -7.5t7.5 -18.5zM169 53q0 -28 -14 -44.5t-38 -16.5q-23 0 -37.5 16.5t-14.5 44.5t14 44t38 16q52 0 52 -60z" />
<glyph unicode="&#x22;" horiz-adv-x="337" d="M216 680h31q10 0 17 -7.5t8 -18.5l-11 -213q-1 -10 -8 -17t-17 -7h-6q-10 0 -17 7t-8 17l-14 213q0 11 7 18.5t18 7.5zM90 680h31q11 0 18 -7.5t7 -18.5l-14 -213q-1 -10 -8 -17t-17 -7h-6q-10 0 -17 7t-8 17l-11 213q1 11 8 18.5t17 7.5z" />
<glyph unicode="#" horiz-adv-x="540" d="M508 345h-77l-31 -172h65q11 0 18 -7.5t7 -17.5v-22q0 -10 -7 -17.5t-18 -7.5h-78l-22 -124q-3 -21 -25 -21h-4l-19 3q-21 3 -21 25v4l19 113h-146l-22 -124q-3 -21 -25 -21h-4l-19 3q-21 3 -21 25v4l19 113h-65q-10 0 -17.5 7.5t-7.5 17.5v22q0 10 7.5 17.5t17.5 7.5h77 l31 172h-65q-11 0 -18 7.5t-7 17.5v22q0 10 7 17.5t18 7.5h77l22 122q4 21 29 21l21 -4q22 -4 22 -24q0 -1 -0.5 -2.5t-0.5 -2.5l-21 -110h145l24 124q3 20 25 20h4l19 -3q21 -3 21 -25v-4l-19 -112h65q10 0 17.5 -7.5t7.5 -17.5v-22q0 -10 -7.5 -17.5t-17.5 -7.5zM327 173 l31 172h-146l-31 -172h146z" />
<glyph unicode="$" horiz-adv-x="389" d="M350 180q0 -69 -32 -118.5t-92 -65.5v-70q0 -10 -7 -17.5t-18 -7.5h-20q-11 0 -18 7.5t-7 17.5v70q-62 12 -111 51q-9 6 -9 21q0 1 0.5 3t0.5 3l10 29q6 16 22 16q9 0 16 -6q55 -44 101 -44q37 0 59 29.5t22 75.5q0 45 -24.5 77t-66.5 64q-37 28 -60.5 51t-45.5 64.5 t-22 86.5q0 63 28.5 106t79.5 59v73q0 11 7 18t18 7h20q11 0 18 -7t7 -18v-69q42 -5 87 -37q10 -7 10 -22v-4l-6 -25q-5 -19 -23 -19q-7 0 -15 5q-44 28 -77 28q-32 0 -53 -24t-21 -68q0 -62 86 -126q25 -19 37 -29t34.5 -33t34 -42t21 -48.5t9.5 -61.5z" />
<glyph unicode="%" horiz-adv-x="692" d="M40 478q0 95 29.5 152.5t83.5 57.5q52 0 82 -57.5t30 -152.5t-30 -152.5t-82 -57.5q-53 0 -83 57.5t-30 152.5zM98 478q0 -67 15 -111t40 -44q24 0 39 44.5t15 110.5t-15 111t-39 45q-25 0 -40 -44.5t-15 -111.5zM549 646l-361 -637q-6 -10 -18 -10q-11 0 -20.5 7.5 t-9.5 17.5q0 4 3 9l361 637q6 10 18 10q11 0 20.5 -7.5t9.5 -17.5q0 -5 -3 -9zM427 202q0 94 30.5 152t82.5 58q54 0 83.5 -57.5t29.5 -152.5t-30 -152.5t-83 -57.5q-52 0 -82.5 58t-30.5 152zM486 202q0 -66 15 -110.5t39 -44.5q25 0 40 44.5t15 110.5t-15 111t-40 45 q-24 0 -39 -45t-15 -111z" />
<glyph unicode="&#x26;" horiz-adv-x="557" d="M261 362v-4l113 -169l17.5 26t17.5 30l13.5 26l15.5 31t14 29q7 14 24 14q2 0 24 -5q21 -3 21 -24q0 -7 -2 -11q-45 -104 -102 -180l14.5 -22l15.5 -24l28 -40q5 -8 5 -15q0 -10 -7 -17t-19 -7h-33q-14 0 -20 10q-28 39 -36 55q-74 -74 -160 -74q-62 0 -108 48.5 t-46 125.5q0 109 111 205v5q-67 96 -67 164q0 70 38.5 109.5t93.5 39.5q54 0 91.5 -41t37.5 -108q0 -89 -95 -177zM326 122l-125 189q-73 -71 -73 -144q0 -43 24.5 -75t58.5 -32q54 0 115 62zM169 545q0 -42 52 -124q64 61 64 122q0 35 -16.5 56t-41.5 21q-24 0 -41 -20.5 t-17 -54.5z" />
<glyph unicode="'" horiz-adv-x="236" d="M104 680h31q11 0 18 -7t7 -19l-14 -213q-1 -10 -8 -17t-17 -7h-6q-10 0 -17 7t-8 17l-7 133q0 8 -2 36.5t-2 44.5q0 11 7.5 18t17.5 7z" />
<glyph unicode="(" horiz-adv-x="286" d="M201 679h12q11 0 18 -6.5t7 -16.5q0 -7 -3 -13q-87 -170 -87 -407q0 -235 87 -407q3 -6 3 -13q0 -10 -7 -16.5t-18 -6.5h-12q-16 0 -22 12q-103 178 -103 431t103 431q6 12 22 12z" />
<glyph unicode=")" horiz-adv-x="286" d="M74 679h12q16 0 22 -12q103 -178 103 -431t-103 -431q-6 -12 -22 -12h-12q-11 0 -18 6.5t-7 16.5q0 7 3 13q87 172 87 407q0 237 -87 407q-3 6 -3 13q0 10 7 16.5t18 6.5z" />
<glyph unicode="*" horiz-adv-x="480" d="M434 460q18 -5 18 -24q0 -3 -2 -9l-10 -24q-6 -16 -22 -16q-7 0 -13 3l-111 64l-7 -9l62 -111q3 -6 3 -12q0 -17 -15 -23l-23 -9q-8 -2 -11 -2q-18 0 -23 19q-31 115 -33 122h-13l-33 -123q-5 -19 -24 -19q-3 0 -9 2l-24 9q-17 7 -17 22q0 5 4 13l63 112l-9 9l-110 -63 q-5 -4 -13 -4q-17 0 -22 17l-9 21q-3 6 -3 13q0 17 17 22l125 34v12l-27 8q-27 8 -55.5 15.5t-41.5 11.5q-18 7 -18 24q0 4 2 10l9 23q6 16 23 16q4 0 12 -4l112 -64l10 7l-64 113q-4 8 -4 12q0 17 16 23l23 9q6 2 10 2q19 0 24 -18l33 -123h13l33 123q5 19 24 19q3 0 9 -2 l24 -10q17 -7 17 -22q0 -5 -4 -13l-62 -112q2 -1 4 -3.5t3 -3.5l111 62q8 4 12 4q17 0 23 -16l9 -23q2 -6 2 -10q0 -17 -18 -24l-123 -35v-12z" />
<glyph unicode="+" horiz-adv-x="540" d="M507 248v-22q0 -10 -7.5 -17.5t-17.5 -7.5h-176v-176q0 -11 -7 -18t-18 -7h-22q-11 0 -18 7t-7 18v176h-176q-10 0 -17.5 7.5t-7.5 17.5v22q0 10 7.5 17.5t17.5 7.5h176v176q0 11 7 18t18 7h22q11 0 18 -7t7 -18v-176h176q10 0 17.5 -7.5t7.5 -17.5z" />
<glyph unicode="," horiz-adv-x="224" d="M56 -172q-25 2 -25 24q0 7 3 13q52 102 52 192q0 21 12 37.5t33 16.5t32.5 -17t11.5 -37q0 -80 -93 -218q-7 -11 -26 -11z" />
<glyph unicode="-" horiz-adv-x="361" d="M318 248v-25q0 -11 -7 -18t-18 -7h-225q-10 0 -17.5 7t-7.5 18v25q0 10 7.5 17.5t17.5 7.5h225q11 0 18 -7.5t7 -17.5z" />
<glyph unicode="." horiz-adv-x="216" d="M175 53q0 -28 -14 -44.5t-38 -16.5q-23 0 -37 16.5t-14 44.5t14 44t37 16q52 0 52 -60z" />
<glyph unicode="/" horiz-adv-x="351" d="M33 -39l224 702q6 17 24 17h13q11 0 18 -7t7 -17q0 -5 -1 -8l-224 -703q-6 -17 -24 -17h-13q-11 0 -18 7t-7 18q0 5 1 8z" />
<glyph unicode="0" horiz-adv-x="424" d="M212 688q86 0 135 -96t49 -253q0 -156 -49 -252t-135 -96q-87 0 -136 96t-49 252q0 157 49.5 253t135.5 96zM212 71q44 0 71.5 77t27.5 191t-27.5 191.5t-71.5 77.5t-72 -77.5t-28 -191.5q0 -113 28 -190.5t72 -77.5z" />
<glyph unicode="1" horiz-adv-x="424" d="M264 655v-582h96q10 0 17.5 -7.5t7.5 -17.5v-23q0 -11 -7.5 -18t-17.5 -7h-276q-10 0 -17.5 7t-7.5 18v23q0 10 7.5 17.5t17.5 7.5h95v508l-89 -79q-10 -8 -19 -8q-18 0 -23 20l-5 20q-1 2 -1 7q0 11 8 19l129 108q16 12 36 12h24q11 0 18 -7t7 -18z" />
<glyph unicode="2" horiz-adv-x="424" d="M69 574l-7 24q-1 2 -1 7q0 13 7 20q72 63 144 63t117.5 -47t45.5 -137q0 -88 -129 -292l-87 -139h191q10 0 17.5 -7.5t7.5 -17.5v-23q0 -11 -7.5 -18t-17.5 -7h-277q-11 0 -18 7t-7 18v13q0 15 12 35l115 182q116 183 116 255q0 49 -24 74.5t-59 25.5q-48 0 -98 -49 q-8 -8 -18 -8q-18 0 -23 21z" />
<glyph unicode="3" horiz-adv-x="424" d="M71 593l-8 30q0 14 12 21q68 43 121 43q68 0 116 -49.5t48 -128.5q0 -42 -20.5 -82.5t-60.5 -66.5v-6q46 -17 71.5 -59.5t25.5 -103.5q0 -90 -53 -144.5t-134 -54.5q-69 0 -128 41q-10 7 -10 23v4l7 26q5 19 22 19q9 0 14 -4q50 -31 92 -31q45 0 76.5 34t31.5 88 q0 110 -119 116q-10 1 -16.5 8t-6.5 17v31q0 9 6 16.5t15 8.5q47 6 74.5 40t27.5 73q0 47 -23 77t-63 30q-34 0 -81 -29q-8 -5 -14 -5q-18 0 -23 18z" />
<glyph unicode="4" horiz-adv-x="424" d="M337 248h36q11 0 18 -7t7 -18v-24q0 -11 -7 -18t-18 -7h-36v-149q0 -11 -7.5 -18t-17.5 -7h-32q-10 0 -17.5 7t-7.5 18v149h-205q-10 0 -17.5 7t-7.5 18v18q0 27 10 43l215 407q2 4 9.5 8.5t12.5 4.5h40q10 0 17.5 -7t7.5 -18v-407zM259 546h-8q-23 -54 -103 -211 l-42 -80v-10q38 3 78 3h71v174q0 84 4 124z" />
<glyph unicode="5" horiz-adv-x="424" d="M199 454q78 0 127.5 -66t49.5 -164q0 -95 -55 -163.5t-133 -68.5q-58 0 -121 26q-15 7 -15 23q0 4 1 6l7 25q5 19 23 19q4 0 10 -2q48 -19 86 -19q44 0 78 45.5t34 108.5q0 69 -31.5 111t-81.5 42q-33 0 -64 -7q-2 -1 -6 -1q-11 0 -18 7.5t-7 19.5l16 261q1 10 8 16.5 t17 6.5h213q11 0 18 -7t7 -18v-22q0 -11 -7 -18t-18 -7h-158q-8 -116 -9 -156q26 2 29 2z" />
<glyph unicode="6" horiz-adv-x="424" d="M168 444l3 -4q28 13 52 13q77 0 126.5 -62.5t49.5 -167.5q0 -106 -51 -168.5t-137 -62.5q-85 0 -136 63t-51 168q0 125 61 234t163 215q8 8 18 8h34q12 0 19 -7t7 -17t-8 -18q-84 -84 -150 -194zM314 223q0 71 -27 112t-75 41q-103 0 -103 -153q0 -69 27.5 -111t74.5 -42 t75 41.5t28 111.5z" />
<glyph unicode="7" horiz-adv-x="424" d="M56 680h320q10 0 17.5 -7t7.5 -18v-15q0 -17 -8 -40l-205 -583q-6 -17 -24 -17h-35q-11 0 -18.5 7t-7.5 17q0 3 2 9l207 576h-209v-115q0 -10 -7.5 -17.5t-17.5 -7.5h-22q-10 0 -17.5 7.5t-7.5 17.5v161q0 11 7.5 18t17.5 7z" />
<glyph unicode="8" horiz-adv-x="424" d="M277 359q104 -85 104 -188q0 -79 -48 -129t-122 -50q-73 0 -121 50t-48 129q0 56 31.5 106.5t72.5 79.5v4q-39 28 -64.5 70t-25.5 90q0 72 43 119.5t112 47.5q70 0 112.5 -47t42.5 -120q0 -95 -89 -158v-4zM211 609q-35 0 -54.5 -26t-19.5 -66q0 -67 74 -112 q74 44 74 112q0 41 -19 66.5t-55 25.5zM211 69q41 0 64 28.5t23 75.5q0 93 -87 140q-87 -48 -87 -140q0 -47 23 -75.5t64 -28.5z" />
<glyph unicode="9" horiz-adv-x="424" d="M255 236l-3 4q-23 -13 -52 -13q-77 0 -126.5 62t-49.5 168t51 168.5t137 62.5q85 0 136 -63t51 -168q0 -125 -61 -234t-163 -215q-8 -8 -18 -8h-34q-11 0 -18.5 7t-7.5 17t8 18q84 84 150 194zM109 457q0 -71 27 -112t75 -41q103 0 103 153q0 69 -27.5 111t-74.5 42 t-75 -41.5t-28 -111.5z" />
<glyph unicode=":" horiz-adv-x="216" d="M175 370q0 -28 -14 -44.5t-38 -16.5q-23 0 -37 16.5t-14 44.5t14 44t37 16q52 0 52 -60zM175 53q0 -28 -14 -44.5t-38 -16.5q-23 0 -37 16.5t-14 44.5t14 44t37 16q52 0 52 -60z" />
<glyph unicode=";" horiz-adv-x="225" d="M182 370q0 -29 -14 -45.5t-37 -16.5q-24 0 -38 16.5t-14 45.5q0 27 14.5 43.5t37.5 16.5t37 -16.5t14 -43.5zM56 -172q-25 2 -25 24q0 7 3 13q52 102 52 192q0 21 12 37.5t33 16.5t32.5 -17t11.5 -37q0 -80 -93 -218q-7 -11 -26 -11z" />
<glyph unicode="&#x3c;" horiz-adv-x="540" d="M128 242v-6q91 -36 357 -159q14 -6 14 -22q0 -6 -3 -12l-9 -19q-6 -14 -22 -14q-7 0 -10 2l-405 187q-5 2 -10 9.5t-5 13.5v34q0 6 5 13.5t10 9.5l405 187q3 2 10 2q16 0 22 -14l9 -19q3 -6 3 -12q0 -16 -14 -22q-266 -123 -357 -159z" />
<glyph unicode="=" horiz-adv-x="540" d="M58 372h424q10 0 17.5 -7t7.5 -18v-22q0 -11 -7.5 -18t-17.5 -7h-424q-10 0 -17.5 7t-7.5 18v22q0 11 7.5 18t17.5 7zM58 174h424q10 0 17.5 -7t7.5 -18v-22q0 -11 -7.5 -18t-17.5 -7h-424q-10 0 -17.5 7t-7.5 18v22q0 11 7.5 18t17.5 7z" />
<glyph unicode="&#x3e;" horiz-adv-x="540" d="M412 236v6q-91 36 -357 159q-14 6 -14 22q0 6 3 12l9 19q6 14 22 14q7 0 10 -2l405 -187q5 -2 10 -9.5t5 -13.5v-34q0 -6 -5 -13.5t-10 -9.5l-405 -187q-3 -2 -10 -2q-16 0 -22 14l-9 19q-3 6 -3 12q0 16 14 22q266 123 357 159z" />
<glyph unicode="?" horiz-adv-x="325" d="M132 688q71 0 106.5 -39.5t35.5 -97.5q0 -59 -60 -155q-4 -6 -7.5 -12t-5 -9t-3 -5.5t-2.5 -3.5q-26 -42 -36.5 -71t-12.5 -76q-1 -10 -8 -17t-17 -7h-4q-10 0 -17.5 7.5t-7.5 17.5v16q0 86 41 153q22 36 32.5 55t19.5 46t9 52q0 78 -79 78q-25 0 -42 -7q-6 -2 -10 -2 q-18 0 -23 19l-3 14q-1 2 -1 6q0 18 15 23q36 15 80 15zM177 53q0 -28 -14 -44.5t-37 -16.5q-24 0 -38 16.5t-14 44.5q0 60 52 60q23 0 37 -16t14 -44z" />
<glyph unicode="@" horiz-adv-x="761" d="M468 -52q1 0 3 0.5t3 0.5q20 0 25 -17l3 -11q1 -2 1 -7q0 -20 -18 -25q-48 -15 -107 -15q-157 0 -251 102.5t-94 259.5q0 156 95.5 260t250.5 104q150 0 249 -95t99 -237q0 -108 -51.5 -165t-117.5 -57q-34 0 -61 21t-34 66h-6q-19 -45 -54.5 -66t-71.5 -21 q-52 0 -85.5 35.5t-33.5 103.5q0 111 58 177t129 66q66 0 128 -39q12 -8 12 -22q-22 -127 -22 -176q0 -86 52 -86q14 0 28 6t30 21.5t25.5 49t9.5 81.5q0 117 -74 196.5t-209 79.5q-126 0 -203 -84.5t-77 -218.5q0 -135 75.5 -218t204.5 -83q39 0 89 13zM469 344 q-33 24 -71 24q-41 0 -79 -47.5t-38 -127.5q0 -41 19 -64.5t49 -23.5q50 0 83.5 75t36.5 164z" />
<glyph unicode="A" horiz-adv-x="488" d="M441 0h-33q-18 0 -24 19l-40 152h-200l-21.5 -81t-13.5 -48.5t-6 -22.5q-2 -8 -9 -13.5t-15 -5.5h-32q-11 0 -18 7t-7 17q0 5 1 8l177 630q5 18 24 18h40q19 0 24 -18l109 -387l68 -243q1 -3 1 -8q0 -10 -7 -17t-18 -7zM162 243h164q-71 271 -79 326h-7q-9 -54 -78 -326z " />
<glyph unicode="B" horiz-adv-x="456" d="M307 370v-5q51 -18 82 -62.5t31 -112.5q0 -198 -218 -198q-70 0 -110 5q-9 1 -15.5 8.5t-6.5 16.5v636q0 21 22 25q38 5 106 5q100 0 142.5 -49.5t42.5 -120.5q0 -47 -20.5 -89t-55.5 -59zM304 505q0 112 -99 112q-33 0 -56 -4v-222h67q38 0 63 32.5t25 81.5zM335 197 q0 54 -29 87.5t-81 33.5h-76v-248q29 -3 69 -3q117 0 117 130z" />
<glyph unicode="C" horiz-adv-x="477" d="M441 93l7 -30v-4q0 -14 -10 -21q-65 -46 -142 -46q-112 0 -184.5 96t-72.5 252t72.5 252t184.5 96q77 0 142 -46q10 -7 10 -21v-4l-7 -29q-5 -20 -22 -20q-10 0 -16 5q-54 39 -104 39q-78 0 -126.5 -77.5t-48.5 -194.5t48.5 -194.5t126.5 -77.5q50 0 104 39q6 5 15 5 q18 0 23 -19z" />
<glyph unicode="D" horiz-adv-x="535" d="M496 339q0 -153 -74 -250t-217 -97q-68 0 -113 5q-9 1 -15.5 8.5t-6.5 16.5v636q0 9 6.5 16.5t15.5 8.5q48 5 115 5q142 0 215.5 -97.5t73.5 -251.5zM413 339q0 131 -51.5 202t-142.5 71q-42 0 -70 -4v-537q18 -3 70 -3q90 0 142 71t52 200z" />
<glyph unicode="E" horiz-adv-x="400" d="M69 25v630q0 11 7.5 18t17.5 7h242q10 0 17.5 -7t7.5 -18v-25q0 -10 -7.5 -17.5t-17.5 -7.5h-188v-214h165q11 0 18 -7.5t7 -17.5v-23q0 -11 -7 -18t-18 -7h-165v-244h191q11 0 18 -7t7 -18v-24q0 -11 -7 -18t-18 -7h-245q-10 0 -17.5 7t-7.5 18z" />
<glyph unicode="F" horiz-adv-x="381" d="M69 25v630q0 11 7.5 18t17.5 7h234q10 0 17.5 -7t7.5 -18v-25q0 -10 -7.5 -17.5t-17.5 -7.5h-180v-215h161q11 0 18 -7t7 -18v-22q0 -11 -7 -18t-18 -7h-161v-293q0 -11 -7 -18t-18 -7h-29q-10 0 -17.5 7t-7.5 18z" />
<glyph unicode="G" horiz-adv-x="535" d="M315 359h126q11 0 18 -7.5t7 -17.5v-296q0 -8 -5.5 -15t-13.5 -9q-78 -22 -151 -22q-112 0 -184.5 96t-72.5 252q0 155 72.5 251.5t184.5 96.5q75 0 142 -48q10 -7 10 -21v-3l-1 -2l-7 -26q-5 -20 -24 -20q-6 0 -14 5q-55 38 -104 38q-78 0 -126 -77t-48 -194 q0 -118 48 -195t126 -77q38 0 87 11v206h-70q-11 0 -18 7.5t-7 17.5v24q0 10 7 17.5t18 7.5z" />
<glyph unicode="H" horiz-adv-x="535" d="M69 25v630q0 11 7.5 18t17.5 7h29q11 0 18 -7t7 -18v-267h238v267q0 11 7 18t18 7h30q11 0 18 -7t7 -18v-630q0 -11 -7 -18t-18 -7h-30q-11 0 -18 7t-7 18v289h-238v-289q0 -11 -7 -18t-18 -7h-29q-10 0 -17.5 7t-7.5 18z" />
<glyph unicode="I" horiz-adv-x="321" d="M45 25v17q0 10 7.5 17.5t17.5 7.5h50v545h-50q-10 0 -17.5 7t-7.5 18v18q0 11 7.5 18t17.5 7h178q10 0 17.5 -7t7.5 -18v-18q0 -11 -7.5 -18t-17.5 -7h-49v-545h49q10 0 17.5 -7.5t7.5 -17.5v-17q0 -11 -7.5 -18t-17.5 -7h-178q-10 0 -17.5 7t-7.5 18z" />
<glyph unicode="J" horiz-adv-x="348" d="M149 -9q-49 0 -103 40q-8 6 -8 19q0 6 1 8l11 25q6 17 22 17q8 0 16 -6q28 -21 54 -21q25 0 41 20.5t16 50.5v468h-94q-11 0 -18 7t-7 18v18q0 11 7 18t18 7h149q10 0 17.5 -7t7.5 -18v-511q0 -67 -36 -110t-94 -43z" />
<glyph unicode="K" horiz-adv-x="472" d="M214 378l218 -340q4 -7 4 -15q0 -10 -7 -16.5t-18 -6.5h-35q-14 0 -21 11q-10 15 -101.5 163t-100.5 161h-5v-310q0 -11 -7 -18t-18 -7h-29q-10 0 -17.5 7t-7.5 18v630q0 11 7.5 18t17.5 7h29q11 0 18 -7t7 -18v-240h4l162 254q7 11 21 11h33q11 0 18.5 -7t7.5 -17 q0 -7 -5 -15z" />
<glyph unicode="L" horiz-adv-x="386" d="M69 25v630q0 11 7.5 18t17.5 7h29q11 0 18 -7t7 -18v-582h195q11 0 18 -7.5t7 -17.5v-23q0 -11 -7 -18t-18 -7h-249q-10 0 -17.5 7t-7.5 18z" />
<glyph unicode="M" horiz-adv-x="642" d="M559 655l16 -630q0 -11 -7.5 -18t-17.5 -7h-30q-11 0 -18 7t-7 17q-9 414 -9 517h-5l-138 -285q-8 -15 -25 -15q-14 0 -21 15l-138 285h-5q0 -103 -9 -517q0 -10 -7 -17t-18 -7h-30q-10 0 -17.5 7t-7.5 18l16 630q0 11 7.5 18t17.5 7h50q16 0 22 -14l142 -293l142 293 q6 14 22 14h50q10 0 17.5 -7t7.5 -18z" />
<glyph unicode="N" horiz-adv-x="559" d="M438 680h26q10 0 17.5 -7t7.5 -18v-630q0 -11 -7.5 -18t-17.5 -7h-45q-17 0 -23 14l-251 522h-4q4 -60 4 -115v-396q0 -11 -7.5 -18t-17.5 -7h-26q-10 0 -17.5 7t-7.5 18v630q0 11 7.5 18t17.5 7h47q17 0 23 -14l249 -518h4q-3 73 -4 87v420q0 11 7.5 18t17.5 7z" />
<glyph unicode="O" horiz-adv-x="571" d="M285 688q114 0 180.5 -99t66.5 -249q0 -152 -66.5 -250t-180.5 -98t-180 98t-66 250q0 150 66.5 249t179.5 99zM285 71q75 0 119.5 73.5t44.5 195.5t-44.5 196t-119.5 74q-74 0 -118 -74t-44 -196t44 -195.5t118 -73.5z" />
<glyph unicode="P" horiz-adv-x="426" d="M312 470q0 60 -25.5 101t-80.5 41q-34 0 -58 -4v-279h68q43 0 69.5 38.5t26.5 102.5zM394 469q0 -97 -47.5 -155.5t-116.5 -58.5h-82v-230q0 -11 -7 -18t-18 -7h-29q-10 0 -17.5 7t-7.5 18v633q0 9 6.5 16.5t15.5 8.5q48 5 107 5q102 0 149 -63t47 -156z" />
<glyph unicode="Q" horiz-adv-x="571" d="M345 2q28 -51 118 -59q23 -3 23 -24q0 -5 -1 -8q-7 -22 -10 -29q-7 -15 -23 -15q-74 6 -124 41.5t-71 84.5q-104 16 -161 112t-57 235q0 150 66 249t180 99t180.5 -99t66.5 -249q0 -127 -50.5 -221t-136.5 -117zM285 71q75 0 119.5 73.5t44.5 195.5t-44.5 196t-119.5 74 q-74 0 -118 -74t-44 -196t43.5 -195.5t118.5 -73.5z" />
<glyph unicode="R" horiz-adv-x="449" d="M304 483q0 52 -23.5 90.5t-74.5 38.5q-33 0 -57 -4v-251h52q48 0 75.5 34t27.5 92zM408 0h-36q-22 0 -30 25l-31 87q-64 173 -114 173h-48v-260q0 -11 -7.5 -18t-17.5 -7h-29q-11 0 -18 7t-7 18v633q0 9 6.5 16.5t15.5 8.5q48 5 106 5q52 0 90.5 -18.5t59 -50t29.5 -65 t9 -69.5q0 -60 -31.5 -108.5t-70.5 -65.5v-5q52 -33 109 -187l35 -94q2 -6 2 -8q0 -17 -22 -17z" />
<glyph unicode="S" horiz-adv-x="389" d="M350 179q0 -84 -45.5 -135.5t-112.5 -51.5q-82 0 -146 53q-10 8 -10 21q0 5 1 7l10 27q6 18 23 18q8 0 16 -6q51 -41 91 -42q38 1 63.5 27.5t25.5 76.5q0 24 -7 44.5t-24.5 40t-29.5 30.5t-38 32q-29 23 -44.5 37.5t-36 39t-30 54t-9.5 64.5q0 80 44.5 126t108.5 46 q57 0 113 -39q10 -7 10 -22v-4l-6 -25q-5 -20 -23 -20q-6 0 -14 5q-45 29 -78 29q-28 0 -51.5 -25t-23.5 -68q0 -26 15 -51.5t30.5 -40.5t40.5 -34q28 -21 46.5 -37t42.5 -43.5t36 -61t12 -72.5z" />
<glyph unicode="T" horiz-adv-x="415" d="M400 655v-25q0 -10 -7 -17.5t-18 -7.5h-127v-580q0 -11 -7 -18t-18 -7h-29q-10 0 -17.5 7t-7.5 18v580h-129q-10 0 -17.5 7.5t-7.5 17.5v25q0 11 7.5 18t17.5 7h335q11 0 18 -7t7 -18z" />
<glyph unicode="U" horiz-adv-x="546" d="M422 680h30q10 0 17.5 -7t7.5 -18v-444q0 -97 -58.5 -158t-145.5 -61q-86 0 -144.5 61t-58.5 158v444q0 11 7 18t18 7h29q10 0 17.5 -7t7.5 -18v-446q0 -61 35.5 -99.5t88.5 -38.5t88.5 38.5t35.5 99.5v446q0 11 7.5 18t17.5 7z" />
<glyph unicode="V" horiz-adv-x="498" d="M270 0h-42q-19 0 -24 18l-178 630q-1 3 -1 8q0 10 7 17t18 7h34q19 0 24 -18l137 -528h8l137 528q5 18 24 18h34q11 0 18 -7t7 -17q0 -5 -1 -8l-178 -630q-5 -18 -24 -18z" />
<glyph unicode="W" horiz-adv-x="762" d="M383 521h-8q-12 -72 -123 -502q-6 -19 -24 -19h-55q-8 0 -16 6t-9 14l-126 630v5q0 11 7 18t18 7h32q8 0 16 -6.5t9 -14.5t45 -244.5t50 -277.5h6q28 128 130 524q6 19 24 19h41q18 0 24 -19q102 -396 130 -524h6q6 41 50 277.5t45 244.5t9 14.5t16 6.5h32q11 0 18 -7 t7 -18v-5l-126 -630q-1 -8 -9 -14t-16 -6h-55q-18 0 -24 19q-107 414 -124 502z" />
<glyph unicode="X" horiz-adv-x="505" d="M395 13l-143 265h-4l-144 -265q-2 -4 -9.5 -8.5t-12.5 -4.5h-34q-11 0 -18.5 7t-7.5 17q0 5 4 13l178 319l-162 287q-4 7 -4 14q0 10 7 16.5t19 6.5h35q14 0 21 -12q29 -47 127 -235h4q98 188 127 235q7 12 21 12h35q12 0 19 -6.5t7 -16.5q0 -7 -4 -14l-161 -288 l178 -318q4 -8 4 -13q0 -10 -7.5 -17t-18.5 -7h-34q-15 0 -22 13z" />
<glyph unicode="Y" horiz-adv-x="446" d="M221 389h4q16 49 109 276q6 15 23 15h34q11 0 18.5 -7t7.5 -17q0 -5 -3 -11l-151 -353v-267q0 -11 -7.5 -18t-17.5 -7h-30q-10 0 -17.5 7t-7.5 18v270l-150 350q-2 8 -2 11q0 10 7 17t18 7h34q16 0 22 -15q93 -227 109 -276z" />
<glyph unicode="Z" horiz-adv-x="459" d="M169 135l-31 -53v-7h257q11 0 18 -7.5t7 -17.5v-25q0 -11 -7 -18t-18 -7h-331q-10 0 -17.5 7t-7.5 18v12q0 18 8 34l260 530v7l-54 -3h-181q-10 0 -17.5 7.5t-7.5 17.5v25q0 11 7.5 18t17.5 7h309q11 0 18 -7t7 -18v-14q0 -17 -8 -32z" />
<glyph unicode="[" horiz-adv-x="238" d="M216 655v-10q0 -11 -7 -18t-18 -7h-63v-766h63q11 0 18 -7t7 -18v-10q0 -11 -7 -18t-18 -7h-104q-11 0 -18 7t-7 18v836q0 11 7 18t18 7h104q11 0 18 -7t7 -18z" />
<glyph unicode="\" horiz-adv-x="351" d="M294 -72h-13q-18 0 -24 18l-224 701q-1 3 -1 8q0 11 7 18t18 7h13q18 0 24 -18l224 -701q1 -3 1 -8q0 -11 -7 -18t-18 -7z" />
<glyph unicode="]" horiz-adv-x="238" d="M23 645v10q0 11 7.5 18t17.5 7h103q11 0 18 -7t7 -18v-836q0 -11 -7 -18t-18 -7h-103q-10 0 -17.5 7t-7.5 18v10q0 11 7.5 18t17.5 7h62v766h-62q-10 0 -17.5 7t-7.5 18z" />
<glyph unicode="^" horiz-adv-x="541" d="M308 670l185 -418q3 -6 3 -11q0 -10 -7.5 -17t-18.5 -7h-17q-17 0 -23 15l-157 372h-5l-156 -372q-6 -15 -23 -15h-19q-11 0 -18.5 7t-7.5 17q0 5 3 11l184 418q6 15 23 15h31q17 0 23 -15z" />
<glyph unicode="_" horiz-adv-x="403" d="M374 -140h-345q-11 0 -18 7t-7 18v13q0 10 7 17.5t18 7.5h345q10 0 17.5 -7.5t7.5 -17.5v-13q0 -11 -7.5 -18t-17.5 -7z" />
<glyph unicode="`" horiz-adv-x="323" d="M127 680h11q14 0 21 -12l65 -91q3 -6 3 -11q0 -9 -8.5 -16t-18.5 -7q-9 0 -17 8l-75 88q-6 7 -6 17t6.5 17t18.5 7z" />
<glyph unicode="a" d="M304 20l-6 34h-7q-31 -61 -103 -61q-71 0 -113.5 67.5t-42.5 176.5t45 177t116 68q58 0 103 -41l2 12q4 21 25 21h8q11 0 18 -7t7 -18v-264q0 -79 11 -156v-4q0 -11 -7 -18t-18 -7h-13q-8 0 -16 6t-9 14zM281 149v225q-34 39 -75 39q-44 0 -69.5 -48.5t-25.5 -127.5 q0 -80 24.5 -129t67.5 -49q31 0 51 27.5t27 62.5z" />
<glyph unicode="b" horiz-adv-x="414" d="M380 237q0 -111 -45 -178t-123 -67q-65 0 -135 19q-19 6 -19 24v620q0 11 7 18t18 7h24q11 0 18 -7t7 -18v-213h4q28 40 77 40q77 0 122 -67.5t45 -177.5zM303 237q0 79 -26 128t-70 49q-46 0 -75 -50v-293q34 -11 76 -11q44 0 69.5 48.5t25.5 128.5z" />
<glyph unicode="c" horiz-adv-x="354" d="M281 80q6 3 11 3q9 0 16.5 -6t8.5 -16l5 -17v-4q0 -16 -14 -23q-52 -25 -101 -25q-71 0 -122.5 62t-51.5 183q0 120 51.5 182.5t122.5 62.5q49 0 101 -25q14 -7 14 -23v-4l-5 -17q-3 -21 -24 -21q-7 0 -13 3q-34 17 -67 17q-48 0 -74.5 -47.5t-26.5 -127.5t26.5 -127.5 t74.5 -47.5q30 0 68 18z" />
<glyph unicode="d" d="M368 28q0 -12 -7.5 -20t-18.5 -8h-12q-8 0 -16 6.5t-9 14.5l-6 34h-7q-37 -63 -101 -63q-72 0 -115 67.5t-43 177.5t44.5 177.5t115.5 67.5q53 0 88 -30v202q0 10 7.5 17.5t17.5 7.5h25q11 0 18 -7.5t7 -17.5v-468q0 -72 12 -158zM281 150v225q-31 39 -75 39t-69.5 -48.5 t-25.5 -128.5t24.5 -128.5t67.5 -48.5q29 0 50 28t28 62z" />
<glyph unicode="e" horiz-adv-x="384" d="M296 81q6 3 13 3q20 0 23 -20l5 -16v-4q0 -16 -14 -23q-56 -29 -116 -29q-71 0 -122.5 62t-51.5 183q0 120 51.5 182.5t122.5 62.5q66 0 105 -52.5t39 -149.5v-37q0 -11 -7.5 -18t-17.5 -7h-215q1 -75 28.5 -117t69.5 -42q43 0 87 22zM111 275h170v20q0 55 -19 89.5 t-55 34.5q-39 0 -64.5 -37.5t-31.5 -106.5z" />
<glyph unicode="f" horiz-adv-x="236" d="M193 617q-56 0 -56 -61v-82h54q11 0 18 -7t7 -18v-13q0 -10 -7 -17.5t-18 -7.5h-54v-386q0 -11 -7.5 -18t-17.5 -7h-24q-10 0 -17.5 7t-7.5 18v386h-12q-11 0 -18 7.5t-7 17.5v13q0 11 7 18t18 7h12v86q0 61 28.5 94.5t83.5 33.5q38 0 74 -10q20 -5 20 -24 q0 -1 -0.5 -2.5t-0.5 -2.5l-4 -17q-6 -21 -25 -21q-1 0 -2.5 0.5t-2.5 0.5q-27 5 -41 5z" />
<glyph unicode="g" horiz-adv-x="414" d="M319 474h12q11 0 18 -7t7 -18v-499q0 -75 -41 -119.5t-106 -44.5q-52 0 -119 24q-16 6 -16 24v4l4 18q3 21 24 21q3 0 9 -2q56 -21 91 -21q79 0 79 91v95h-5q-28 -33 -75 -33q-78 0 -123 61t-45 169q0 111 45 178t120 67q51 0 93 -43l2 14q2 8 9.5 14.5t16.5 6.5z M281 121v253q-30 40 -75 40q-44 0 -69.5 -48.5t-25.5 -128.5q0 -78 25.5 -121t70.5 -43q44 0 74 48z" />
<glyph unicode="h" horiz-adv-x="405" d="M223 482q125 0 125 -145v-312q0 -11 -7 -18t-18 -7h-25q-10 0 -17.5 7t-7.5 18v309q0 44 -16.5 61.5t-51.5 17.5q-46 0 -75 -53v-335q0 -11 -7 -18t-18 -7h-24q-11 0 -18 7t-7 18v630q0 11 7 18t18 7h24q11 0 18 -7t7 -18v-223q38 50 93 50z" />
<glyph unicode="i" horiz-adv-x="182" d="M103 0h-24q-11 0 -18 7t-7 18v424q0 11 7 18t18 7h24q11 0 18 -7t7 -18v-424q0 -11 -7 -18t-18 -7zM135 599q0 -52 -43 -52q-19 0 -31.5 14t-12.5 38q0 22 12.5 36.5t31.5 14.5q21 0 32 -14t11 -37z" />
<glyph unicode="j" horiz-adv-x="185" d="M80 474h24q10 0 17.5 -7t7.5 -18v-489q0 -137 -124 -169q-2 -1 -6 -1q-9 0 -15.5 6t-8.5 15l-5 19v4q0 19 18 24q67 20 67 114v477q0 11 7.5 18t17.5 7zM93 547q-19 0 -31.5 14t-12.5 38q0 22 12.5 36.5t31.5 14.5q21 0 32 -14t11 -37q0 -52 -43 -52z" />
<glyph unicode="k" horiz-adv-x="362" d="M194 283l136 -246q4 -7 4 -14q0 -10 -7 -16.5t-19 -6.5h-25q-24 0 -34 21q-103 198 -114 231h-5v-227q0 -11 -7 -18t-18 -7h-24q-11 0 -18 7t-7 18v630q0 11 7 18t18 7h24q11 0 18 -7t7 -18v-346h5l105 155q6 10 20 10h23q12 0 19 -6.5t7 -16.5t-5 -16z" />
<glyph unicode="l" horiz-adv-x="250" d="M233 47l6 -19q1 -3 1 -8q0 -22 -21 -25t-47 -3q-114 0 -114 125v538q0 11 7 18t18 7h24q11 0 18 -7t7 -18v-529q0 -63 56 -63q11 0 15 1q1 0 3 0.5t3 0.5q19 0 24 -18z" />
<glyph unicode="m" horiz-adv-x="614" d="M435 482q122 0 122 -143v-314q0 -11 -7.5 -18t-17.5 -7h-23q-11 0 -18 7t-7 18v308q0 77 -59 77q-51 0 -82 -51v-334q0 -11 -7.5 -18t-17.5 -7h-22q-10 0 -17.5 7t-7.5 18v308q0 77 -59 77q-49 0 -82 -50v-335q0 -11 -7 -18t-18 -7h-24q-11 0 -18 7t-7 18v424q0 11 7 18 t18 7h15q9 0 16.5 -6t8.5 -15l3 -21h4q43 50 99 50q69 0 100 -56h9q38 56 99 56z" />
<glyph unicode="n" horiz-adv-x="405" d="M223 482q64 0 94.5 -35t30.5 -110v-312q0 -11 -7 -18t-18 -7h-25q-10 0 -17.5 7t-7.5 18v308q0 44 -16.5 62t-51.5 18q-42 0 -75 -52v-336q0 -11 -7 -18t-18 -7h-24q-11 0 -18 7t-7 18v424q0 11 7 18t18 7h16q22 0 25 -21l3 -21h5q40 50 93 50z" />
<glyph unicode="o" d="M206 482q71 0 122 -62.5t51 -182.5q0 -121 -51 -183t-122 -62t-122.5 62t-51.5 183q0 120 51.5 182.5t122.5 62.5zM206 60q45 0 70.5 48.5t25.5 128.5t-25.5 128.5t-70.5 48.5t-70.5 -48t-25.5 -129t25.5 -129t70.5 -48z" />
<glyph unicode="p" horiz-adv-x="411" d="M105 -206h-24q-11 0 -18 7t-7 18v630q0 11 7 18t18 7h16q11 0 18 -7t7 -18v-8h7q33 41 83 41q76 0 121.5 -67.5t45.5 -177.5t-45 -177.5t-119 -67.5q-47 0 -85 33v-206q0 -11 -7 -18t-18 -7zM130 364v-264q35 -40 76 -40q44 0 69.5 48.5t25.5 128.5q0 79 -25.5 128 t-69.5 49q-39 0 -76 -50z" />
<glyph unicode="q" horiz-adv-x="416" d="M32 237q0 111 45 178t124 67q65 0 135 -19q19 -6 19 -24v-583h55q10 0 17.5 -7t7.5 -18v-12q0 -11 -7.5 -18t-17.5 -7h-105q-11 0 -18 7t-7 18v213h-5q-23 -40 -76 -40q-76 0 -121.5 67.5t-45.5 177.5zM110 237q0 -80 25.5 -128.5t70.5 -48.5q47 0 74 50v293 q-39 11 -75 11q-44 0 -69.5 -48.5t-25.5 -128.5z" />
<glyph unicode="r" horiz-adv-x="303" d="M290 442l-7 -30q-3 -19 -25 -19q-6 0 -9 1q-26 10 -36 10q-32 0 -57.5 -23t-25.5 -59v-297q0 -11 -7 -18t-18 -7h-24q-11 0 -18 7t-7 18v424q0 11 7 18t18 7h10q9 0 16.5 -6.5t8.5 -15.5l3 -25h8q42 55 97 55q22 0 51 -11q16 -5 16 -23q0 -1 -0.5 -3t-0.5 -3z" />
<glyph unicode="s" horiz-adv-x="304" d="M175 271q24 -15 35 -23t29 -25t26 -38.5t8 -48.5q0 -70 -36 -107t-92 -37q-57 0 -110 29q-13 7 -13 20q0 5 1 7q8 20 8 21q5 20 20 20q7 0 14 -4q44 -25 74 -25q24 0 39.5 17.5t15.5 52.5q0 25 -16 42.5t-47 36.5q-29 18 -47.5 32.5t-36.5 43.5t-18 62q0 63 35 99t85 36 q44 0 93 -28q12 -5 12 -22v-4l-5 -18q-3 -21 -23 -21q-7 0 -14 4q-36 21 -58 21q-20 0 -33 -17t-13 -42q0 -42 67 -84z" />
<glyph unicode="t" horiz-adv-x="283" d="M262 52l6 -26q0 -20 -19 -25q-32 -9 -74 -9q-112 0 -112 126v293h-12q-11 0 -18 7.5t-7 17.5v13q0 11 7 18t18 7h12v58q0 17 16 23l24 11q8 2 10 2q10 0 17 -7t7 -18v-69h69q10 0 17.5 -7t7.5 -18v-13q0 -10 -7.5 -17.5t-17.5 -7.5h-69v-283q0 -28 14 -45.5t43 -17.5 q18 0 38 5q2 1 7 1q20 0 23 -19z" />
<glyph unicode="u" horiz-adv-x="405" d="M181 -8q-64 0 -94.5 35t-30.5 110v312q0 11 7 18t18 7h24q11 0 18 -7t7 -18v-308q0 -44 16.5 -62t51.5 -18q41 0 75 52v336q0 11 7.5 18t17.5 7h25q11 0 18 -7t7 -18v-424q0 -11 -7 -18t-18 -7h-16q-24 0 -25 21l-3 21h-6q-39 -50 -92 -50z" />
<glyph unicode="v" horiz-adv-x="369" d="M290 474h28q11 0 18 -7t7 -17q0 -5 -1 -8l-116 -423q-6 -19 -24 -19h-37q-19 0 -24 18l-115 424q-1 3 -1 8q0 10 7 17t18 7h26q18 0 24 -19q73 -276 80 -336h5q18 100 81 336q6 19 24 19z" />
<glyph unicode="w" horiz-adv-x="548" d="M415 0h-38q-18 0 -24 19q-3 13 -20.5 84l-34 140.5t-23.5 102.5h-4q-7 -33 -23 -102l-33.5 -141.5t-20.5 -83.5q-6 -19 -24 -19h-39q-8 0 -16 6t-9 14l-83 424v5q0 11 7.5 18t17.5 7h23q8 0 16 -6t9 -14q15 -75 34 -192.5t22 -142.5h5q21 110 79 336q6 19 24 19h27 q18 0 24 -19q70 -276 78 -336h5q14 114 56 335q1 8 9 14t16 6h24q11 0 18 -7t7 -18v-5l-84 -424q-1 -8 -9 -14t-16 -6z" />
<glyph unicode="x" horiz-adv-x="382" d="M354 37q4 -7 4 -14q0 -10 -7 -16.5t-19 -6.5h-26q-5 0 -12.5 4.5t-9.5 8.5q-56 103 -91 173h-5q-46 -96 -91 -174q-6 -12 -21 -12h-27q-11 0 -18.5 7t-7.5 17q0 5 4 13l121 218l-101 182q-4 7 -4 14q0 10 7 16.5t19 6.5h28q17 0 22 -14q55 -107 69 -139h5q27 59 70 140 q6 13 22 13h28q12 0 19 -6.5t7 -16.5q0 -7 -4 -14l-102 -182z" />
<glyph unicode="y" horiz-adv-x="366" d="M290 474h27q11 0 18 -7t7 -17q0 -5 -1 -8l-144 -507q-19 -54 -51.5 -87t-85.5 -53q-6 -2 -10 -2q-21 0 -24 21l-5 20v4q0 16 15 23q81 33 102 118q2 10 8 30l-121 433q-1 3 -1 8q0 10 7 17t18 7h27q18 0 24 -19q73 -276 80 -336h5q18 100 81 336q6 19 24 19z" />
<glyph unicode="z" horiz-adv-x="346" d="M298 413l-170 -349h161q11 0 18 -7t7 -18v-14q0 -11 -7 -18t-18 -7h-233q-10 0 -17.5 7.5t-7.5 17.5q0 8 10 30l172 354h-152q-11 0 -18 7.5t-7 17.5v15q0 11 7 18t18 7h219q10 0 17.5 -7t7.5 -18v-7q0 -14 -7 -29z" />
<glyph unicode="{" horiz-adv-x="267" d="M103 236q72 -44 72 -147q0 -27 -3 -68.5t-3 -52.5q0 -49 11.5 -74t39.5 -35q16 -5 16 -24q0 -1 -0.5 -3t-0.5 -3q0 -8 -1 -13q-3 -20 -25 -20q-5 0 -7 1q-96 26 -96 159q0 10 3 67t3 59q0 96 -67 119q-17 6 -17 24v22q0 18 17 24q67 23 67 119q0 2 -3 59t-3 67 q0 133 96 159q2 1 7 1q22 0 25 -20q1 -5 1 -13q0 -1 0.5 -3t0.5 -3q0 -19 -16 -24q-28 -10 -39.5 -35t-11.5 -74q0 -12 3 -53.5t3 -67.5q0 -103 -72 -147z" />
<glyph unicode="|" horiz-adv-x="207" d="M110 -206h-12q-10 0 -17.5 7t-7.5 18v836q0 11 7.5 18t17.5 7h12q10 0 17.5 -7t7.5 -18v-836q0 -11 -7.5 -18t-17.5 -7z" />
<glyph unicode="}" horiz-adv-x="266" d="M163 236q-72 44 -72 147q0 26 3 67.5t3 53.5q0 49 -11.5 74t-39.5 35q-16 5 -16 24q0 1 0.5 3t0.5 3q0 8 1 13q3 20 25 20q5 0 7 -1q96 -26 96 -159q0 -10 -3 -67t-3 -59q0 -96 67 -119q17 -6 17 -24v-22q0 -18 -17 -24q-67 -23 -67 -119q0 -2 3 -59t3 -67 q0 -133 -96 -159q-2 -1 -7 -1q-22 0 -25 20q-1 5 -1 13q0 1 -0.5 3t-0.5 3q0 19 16 24q28 10 39.5 35t11.5 74q0 11 -3 52.5t-3 68.5q0 103 72 147z" />
<glyph unicode="~" horiz-adv-x="538" d="M400 235q-59 2 -149 49q-81 42 -109 42q-46 0 -53 -64q-1 -9 -8.5 -15.5t-16.5 -6.5h-14q-10 0 -17.5 7t-7.5 18q0 65 32.5 98.5t82.5 33.5q31 0 58.5 -9.5t78.5 -36.5q84 -45 122 -45q45 0 51 63q1 10 8 16.5t17 6.5h14q11 0 18 -7t7 -18q0 -67 -33.5 -99.5t-80.5 -32.5 z" />
<glyph unicode="&#xa1;" horiz-adv-x="234" d="M74 -180l13 435q0 10 7.5 15.5t17.5 5.5q24 0 25 -21l15 -435q0 -11 -7.5 -18.5t-17.5 -7.5h-28q-10 0 -17.5 7.5t-7.5 18.5zM61 421q0 28 14 44.5t38 16.5q23 0 37.5 -16.5t14.5 -44.5t-14 -44t-38 -16q-52 0 -52 60z" />
<glyph unicode="&#xa2;" horiz-adv-x="353" d="M113 340q0 -81 27 -129t74 -48q32 0 68 18q6 3 13 3q21 0 24 -20l5 -17v-4q0 -15 -13 -22q-35 -17 -69 -23v-73q0 -11 -7 -18t-18 -7h-19q-10 0 -17.5 7t-7.5 18v74q-65 13 -102 78t-37 163q0 100 38 164.5t101 76.5v74q0 11 7.5 18t17.5 7h19q11 0 18 -7t7 -18v-73 q32 -5 68 -23q14 -7 14 -23v-4l-5 -16q-3 -20 -24 -20q-7 0 -13 3q-36 18 -68 18q-47 0 -74 -48t-27 -129z" />
<glyph unicode="&#xa3;" horiz-adv-x="436" d="M228 518l-21 -144h125q10 0 17.5 -7t7.5 -18v-17q0 -10 -7.5 -17.5t-17.5 -7.5h-137l-36 -234h212q11 0 18 -7.5t7 -17.5v-23q0 -11 -7 -18t-18 -7h-305q-10 0 -17.5 7t-7.5 18v23q0 10 7.5 17.5t17.5 7.5h13l17.5 110l19.5 124h-50q-10 0 -17.5 7.5t-7.5 17.5v17 q0 11 7.5 18t17.5 7h61l22 143q13 80 64 125.5t116 45.5q35 0 64 -12q15 -7 15 -24v-4l-8 -30q-3 -20 -24 -20q-7 0 -13 3q-21 11 -44 11q-32 0 -57.5 -24t-33.5 -70z" />
<glyph unicode="&#xa4;" horiz-adv-x="540" d="M444 511q7 7 17 7q8 0 17 -7l16 -16q7 -9 7 -17t-7 -17l-40 -39q43 -59 43 -135t-43 -135l40 -40q7 -9 7 -17t-7 -17l-16 -15q-8 -8 -17 -8q-11 0 -17 8l-40 40q-59 -44 -135 -44q-75 0 -134 44l-40 -40q-8 -8 -17 -8q-11 0 -17 8l-15 15q-8 8 -8 17t8 17l39 40 q-44 61 -44 135t44 135l-39 39q-8 8 -8 17t8 17l15 16q7 7 17 7q8 0 17 -7l40 -40q61 44 134 44q74 0 135 -44zM381 175q46 46 46 112t-46 112q-48 46 -111 46q-64 0 -112 -46q-47 -47 -47 -112t47 -112t112 -47q64 0 111 47z" />
<glyph unicode="&#xa5;" horiz-adv-x="478" d="M71 680h34q17 0 23 -15q78 -185 108 -276h6q16 49 109 276q6 15 23 15h33q11 0 18.5 -7t7.5 -17q0 -5 -3 -11l-88 -205h47q11 0 18 -7t7 -18v-5q0 -10 -7 -17.5t-18 -7.5h-70l-31 -71l-3 -19h104q11 0 18 -7.5t7 -17.5v-4q0 -10 -7 -17.5t-18 -7.5h-110v-216 q0 -11 -7.5 -18t-17.5 -7h-29q-11 0 -18 7t-7 18v216h-109q-11 0 -18 7.5t-7 17.5v4q0 10 7 17.5t18 7.5h103l-4 20l-30 70h-69q-11 0 -18 7.5t-7 17.5v5q0 11 7 18t18 7h47l-90 205q-3 6 -3 11q0 10 7.5 17t18.5 7z" />
<glyph unicode="&#xa6;" horiz-adv-x="189" d="M63 337v318q0 11 7.5 18t17.5 7h13q11 0 18 -7t7 -18v-318q0 -11 -7 -18t-18 -7h-13q-10 0 -17.5 7t-7.5 18zM63 -181v317q0 10 7.5 17.5t17.5 7.5h13q11 0 18 -7.5t7 -17.5v-317q0 -11 -7 -18t-18 -7h-13q-10 0 -17.5 7t-7.5 18z" />
<glyph unicode="&#xa7;" horiz-adv-x="348" d="M150 156q-23 16 -37 27.5t-35.5 33.5t-32 49.5t-10.5 58.5q0 66 45 129q-21 49 -21 82q0 67 41 109.5t95 42.5q37 0 79 -19q15 -7 15 -24l-5 -23q-3 -21 -24 -21q-7 0 -11 2q-32 14 -54 14q-24 0 -42 -21t-18 -61q0 -35 21.5 -59.5t67.5 -56.5q88 -62 88 -150 q0 -67 -41 -128q25 -55 25 -102q-5 -69 -45.5 -111.5t-102.5 -42.5q-43 0 -93 28q-13 7 -13 24l5 23q3 22 24 22q8 0 13 -4q36 -22 64 -22q35 0 55 25.5t20 69.5q0 54 -73 105zM187 214q34 -24 36 -25q17 47 17 77q0 37 -17.5 59t-56.5 49l-39 31q-19 -49 -19 -74 q0 -38 18.5 -62t60.5 -55z" />
<glyph unicode="&#xa8;" horiz-adv-x="319" d="M201 611q0 20 13 33.5t32 13.5t31.5 -13.5t12.5 -33.5q0 -19 -14 -32.5t-32 -13.5t-30.5 13.5t-12.5 32.5zM27 611q0 20 12.5 33.5t32.5 13.5q17 0 30.5 -14t13.5 -33q0 -18 -13.5 -32t-31.5 -14q-19 0 -31.5 13t-12.5 33z" />
<glyph unicode="&#xa9;" horiz-adv-x="765" d="M730 339q0 -144 -102 -245.5t-246 -101.5t-246 101.5t-102 245.5q0 145 102 246.5t246 101.5t246 -101.5t102 -246.5zM674 339q0 121 -85.5 206.5t-206.5 85.5t-206.5 -85.5t-85.5 -206.5t85.5 -206.5t206.5 -85.5t206.5 85.5t85.5 206.5zM473 216q4 2 11 2q16 0 23 -21 q1 -3 1 -9q0 -18 -15 -24q-54 -21 -106 -21q-82 0 -133.5 51t-51.5 145q0 95 51.5 145.5t133.5 50.5q58 0 106 -20q15 -6 15 -23q0 -4 -2 -12q-6 -18 -24 -18q-3 0 -11 2q-45 17 -81 17q-53 0 -87 -39t-34 -103t34 -103t87 -39q37 0 83 19z" />
<glyph unicode="&#xaa;" horiz-adv-x="308" d="M261 313q8 -6 8 -14q0 -4 -1 -6l-4 -14q-4 -14 -14 -14q-4 0 -6 1q-28 5 -39 29q-26 -31 -60 -31q-50 0 -80 44t-30 116t29.5 115.5t78.5 43.5q33 0 58 -21q0 16 14 16h17q9 0 13 -3.5t4 -13.5v-221q0 -20 12 -27zM194 343v166q-24 24 -45 24q-27 0 -42 -30t-15 -79 q0 -50 15.5 -80t41.5 -30q27 0 45 29z" />
<glyph unicode="&#xab;" horiz-adv-x="519" d="M200 0h-24q-16 0 -22 12l-121 213q-2 3 -2 12t2 12l121 212q2 4 9.5 8.5t12.5 4.5h24q12 0 19 -6.5t7 -16.5q0 -7 -4 -14l-113 -201l113 -199q4 -8 4 -13q0 -10 -7.5 -17t-18.5 -7zM448 0h-25q-15 0 -22 13l-120 212q-2 3 -2 12t2 12l120 212q7 13 22 13h25q12 0 19 -6.5 t7 -16.5q0 -7 -4 -14l-113 -201l113 -199q4 -8 4 -13q0 -10 -7.5 -17t-18.5 -7z" />
<glyph unicode="&#xac;" horiz-adv-x="540" d="M58 372h424q10 0 17.5 -7t7.5 -18v-184q0 -11 -7.5 -18t-17.5 -7h-22q-10 0 -17.5 7t-7.5 18v137h-377q-10 0 -17.5 7t-7.5 18v22q0 11 7.5 18t17.5 7z" />
<glyph unicode="&#xad;" horiz-adv-x="361" d="M318 248v-25q0 -11 -7 -18t-18 -7h-225q-10 0 -17.5 7t-7.5 18v25q0 10 7.5 17.5t17.5 7.5h225q11 0 18 -7.5t7 -17.5z" />
<glyph unicode="&#xae;" horiz-adv-x="513" d="M478 463q0 -92 -65 -157t-157 -65t-157 65.5t-65 156.5q0 92 65 157t157 65t157 -65t65 -157zM434 463q0 74 -52 126t-126 52q-73 0 -125.5 -52t-52.5 -126q0 -73 52.5 -125.5t125.5 -52.5q74 0 126 52t52 126zM292 516q0 18 -12 31.5t-38 13.5q-19 0 -29 -2v-87h26 q25 0 39 12t14 32zM237 437h-24v-90q0 -7 -5.5 -12.5t-12.5 -5.5h-7q-8 0 -13 5.5t-5 12.5v231q0 7 5 12t12 5q13 2 51 2q51 0 74 -23t23 -56q0 -23 -14.5 -41.5t-33.5 -25.5v-4q23 -13 50 -70l10 -23q3 -4 3 -11q0 -12 -14 -12h-16q-12 0 -17 13q-8 20 -12 29 q-28 64 -54 64z" />
<glyph unicode="&#xaf;" horiz-adv-x="319" d="M67 638h184q11 0 18 -7t7 -18v-6q0 -11 -7 -18t-18 -7h-184q-11 0 -18 7t-7 18v6q0 11 7 18t18 7z" />
<glyph unicode="&#xb0;" horiz-adv-x="357" d="M179 688q62 0 105.5 -43.5t43.5 -105.5q0 -61 -44 -105t-105 -44t-105 44t-44 105q0 62 43.5 105.5t105.5 43.5zM179 446q38 0 65.5 27t27.5 66t-27.5 66t-65.5 27q-39 0 -66.5 -27t-27.5 -66t27.5 -66t66.5 -27z" />
<glyph unicode="&#xb1;" horiz-adv-x="540" d="M507 308v-21q0 -11 -7.5 -18t-17.5 -7h-176v-116q0 -10 -7 -17.5t-18 -7.5h-22q-11 0 -18 7.5t-7 17.5v116h-176q-10 0 -17.5 7t-7.5 18v21q0 10 7.5 17.5t17.5 7.5h176v116q0 11 7 18t18 7h22q11 0 18 -7t7 -18v-116h176q10 0 17.5 -7.5t7.5 -17.5zM58 71h424 q10 0 17.5 -7.5t7.5 -17.5v-21q0 -11 -7.5 -18t-17.5 -7h-424q-10 0 -17.5 7t-7.5 18v21q0 10 7.5 17.5t17.5 7.5z" />
<glyph unicode="&#xb2;" horiz-adv-x="282" d="M112 622q70 115 70 152q0 28 -13.5 43t-32.5 15q-21 0 -52 -30q-7 -7 -15 -7q-14 0 -17 17l-4 18q0 11 5 16q44 39 86 39q44 0 72 -29.5t28 -85.5t-76 -177q-33 -50 -45 -75h101q8 0 14 -6t6 -14v-10q0 -8 -6 -14t-14 -6h-160q-8 0 -14 6t-6 14v7q0 12 8 25z" />
<glyph unicode="&#xb3;" horiz-adv-x="306" d="M201 685q53 -27 53 -108q-3 -51 -34.5 -81.5t-79.5 -30.5q-40 0 -77 24q-9 5 -9 18q0 1 0.5 2t0.5 2l4 13q5 16 19 16q3 0 11 -4q27 -17 49 -17q25 0 42 19t17 50q0 23 -17.5 41.5t-48.5 23.5q-7 1 -12 7t-5 13v15q0 15 16 19q26 5 41 23.5t15 40.5q0 23 -13.5 41 t-32.5 18q-16 0 -45 -18q-5 -3 -13 -3q-10 0 -13 8l-5 24q0 9 8 17q38 27 72 27q43 0 71.5 -30t28.5 -79q0 -60 -43 -91z" />
<glyph unicode="&#xb4;" horiz-adv-x="323" d="M183 680h11q12 0 19 -7t7 -17t-7 -17l-76 -87q-6 -8 -16 -8h-16q-13 0 -13 16q0 10 4 15l67 95q6 10 20 10z" />
<glyph unicode="&#xb5;" horiz-adv-x="398" d="M315 474q11 0 18 -7t7 -18v-424q0 -11 -7 -18t-18 -7h-16q-11 0 -18 6.5t-7 16.5l-2 18h-6q-39 -49 -93 -49q-30 0 -57 16l5 -188q0 -11 -7.5 -18.5t-17.5 -7.5h-24q-10 0 -17.5 7t-7.5 18v630q0 11 7.5 18t17.5 7h25q11 0 18 -7t7 -18v-309q0 -43 16.5 -61.5t51.5 -18.5 q43 0 76 51v338q0 11 7 18t18 7h24z" />
<glyph unicode="&#xb6;" horiz-adv-x="502" d="M229 680h218q11 0 18 -7t7 -18v-740q0 -11 -7 -18t-18 -7h-23q-10 0 -17.5 7t-7.5 18v700h-97v-700q0 -11 -7 -18t-18 -7h-23q-10 0 -17.5 7t-7.5 18v386q-81 0 -135 56.5t-54 133.5q0 78 55.5 133.5t133.5 55.5z" />
<glyph unicode="&#xb7;" horiz-adv-x="469" d="M286 340q0 -28 -14 -44.5t-38 -16.5q-23 0 -37.5 16.5t-14.5 44.5t14 44t38 16q52 0 52 -60z" />
<glyph unicode="&#xb8;" horiz-adv-x="323" d="M189 -76q50 -16 50 -60q0 -38 -28.5 -58t-74.5 -20q-14 0 -34 4q-16 4 -16 20l2 8q5 16 17 16q4 0 6 -1q19 -4 32 -4q17 0 30 10t13 24q0 12 -12.5 20t-29.5 10q-18 3 -18 20q0 3 2 9l14 29q10 19 23 19q9 0 14.5 -5.5t5.5 -13.5q0 -5 -3 -10l-7 -13l5 -1q5 -1 9 -3z" />
<glyph unicode="&#xb9;" horiz-adv-x="294" d="M183 858v-341h50q8 0 14 -6t6 -14v-10q0 -8 -6 -14t-14 -6h-159q-8 0 -14 6t-6 14v10q0 8 6 14t14 6h49v288l-42 -39q-6 -6 -14 -6q-17 0 -20 18l-3 14q0 8 7 15q72 61 76 65q6 6 14 6h22q8 0 14 -6t6 -14z" />
<glyph unicode="&#xba;" horiz-adv-x="301" d="M150 584q47 0 81 -41t34 -119q0 -79 -34 -119.5t-81 -40.5q-48 0 -81.5 40.5t-33.5 119.5q0 78 33.5 119t81.5 41zM150 314q27 0 42.5 30t15.5 80t-15.5 80t-42.5 30t-42.5 -30t-15.5 -80t15.5 -80t42.5 -30z" />
<glyph unicode="&#xbb;" horiz-adv-x="522" d="M344 0h-26q-12 0 -19 6.5t-7 16.5q0 7 4 14l114 200l-114 200q-4 7 -4 14q0 10 7 16.5t19 6.5h26q16 0 22 -12l121 -213q2 -6 2 -12t-2 -12l-121 -212q-2 -4 -9.5 -8.5t-12.5 -4.5zM96 0h-25q-12 0 -19 6.5t-7 16.5q0 7 4 14l113 201l-113 199q-4 8 -4 13q0 10 7.5 17 t18.5 7h25q16 0 22 -12l121 -213q2 -6 2 -12t-2 -12l-121 -212q-2 -4 -9.5 -8.5t-12.5 -4.5z" />
<glyph unicode="&#xbc;" horiz-adv-x="656" d="M182 660v-341h50q8 0 14 -6t6 -14v-10q0 -8 -6 -14t-14 -6h-159q-8 0 -14 6t-6 14v10q0 8 6 14t14 6h49v288l-42 -39q-6 -6 -14 -6q-17 0 -20 18l-3 14q0 8 7 15q72 61 76 65q6 6 14 6h22q8 0 14 -6t6 -14zM164 30l361 640q6 10 17 10h16q9 0 14.5 -5.5t5.5 -13.5 q0 -5 -3 -11l-362 -640q-6 -10 -17 -10h-15q-9 0 -14.5 5.5t-5.5 13.5q0 5 3 11zM579 153h16q8 0 14 -6t6 -14v-10q0 -8 -6 -14t-14 -6h-16v-83q0 -8 -6 -14t-14 -6h-18q-8 0 -14 6t-6 14v83h-113q-8 0 -14 6t-6 14v10q0 15 7 29l40 75l53.5 101l31.5 61q7 11 18 11h21 q8 0 14 -6t6 -14v-237zM521 253q0 41 1 58h-4q-59 -124 -72 -159q25 1 31 1h44v100z" />
<glyph unicode="&#xbd;" horiz-adv-x="715" d="M546 152q70 115 70 152q0 28 -13.5 43t-32.5 15q-21 0 -52 -30q-7 -7 -15 -7q-14 0 -17 17l-4 18q0 11 5 16q44 39 86 39q44 0 72 -29.5t28 -85.5t-76 -177q-33 -50 -45 -75h101q8 0 14 -6t6 -14v-10q0 -8 -6 -14t-14 -6h-160q-8 0 -14 6t-6 14v6q0 12 9 26zM198 -2h-16 q-9 0 -14.5 5.5t-5.5 13.5q0 5 3 11l148 263l213 377q6 10 17 10h16q9 0 14.5 -5.5t5.5 -13.5q0 -5 -3 -11l-148 -263l-213 -377q-6 -10 -17 -10zM183 660v-341h50q8 0 14 -6t6 -14v-10q0 -8 -6 -14t-14 -6h-159q-8 0 -14 6t-6 14v10q0 8 6 14t14 6h49v288l-42 -39 q-6 -6 -14 -6q-17 0 -20 18l-3 14q0 8 7 15q72 61 76 65q6 6 14 6h22q8 0 14 -6t6 -14z" />
<glyph unicode="&#xbe;" horiz-adv-x="621" d="M189 489q54 -27 54 -109q-3 -51 -34.5 -81.5t-79.5 -30.5q-39 0 -77 24q-9 5 -9 18l1 2v2l4 13q5 16 19 16q3 0 11 -4q27 -17 49 -17q25 0 42 19t17 50q0 23 -17.5 41.5t-48.5 23.5q-7 1 -12 7t-5 13v15q0 15 16 19q26 5 41 23.5t15 40.5q0 23 -13.5 41t-32.5 18 q-16 0 -45 -18q-4 -3 -12 -3q-11 0 -14 9l-6 24q0 9 9 16q38 27 72 27q43 0 71.5 -30t28.5 -79q0 -60 -44 -90zM131 30l362 640q6 10 17 10h15q9 0 14.5 -5.5t5.5 -13.5q0 -5 -3 -11l-148 -263l-213 -377q-6 -10 -17 -10h-16q-9 0 -14.5 5.5t-5.5 13.5q0 5 3 11zM544 152h16 q8 0 14 -6t6 -14v-10q0 -8 -6 -14t-14 -6h-16v-83q0 -8 -6 -14t-14 -6h-18q-8 0 -14 6t-6 14v83h-113q-8 0 -14 6t-6 14v10q0 13 8 29l124 237q7 11 18 11h21q8 0 14 -6t6 -14v-237zM486 252q0 41 1 58h-4q-59 -124 -72 -159q25 1 31 1h44v100z" />
<glyph unicode="&#xbf;" horiz-adv-x="397" d="M207 -214q-70 0 -105.5 39.5t-35.5 97.5q0 60 58 153l19 31q29 46 38.5 71.5t10.5 76.5q0 10 7.5 17t17.5 7h5q10 0 17.5 -7.5t7.5 -17.5v-14q0 -87 -42 -156q-22 -34 -32.5 -53t-19.5 -46t-9 -53q0 -78 80 -78q25 0 42 7q6 2 10 2q18 0 23 -19l4 -14q1 -2 1 -6 q0 -18 -15 -23q-36 -15 -82 -15zM163 421q0 28 14 44.5t38 16.5q22 0 36.5 -17t14.5 -44q0 -28 -14.5 -44t-36.5 -16q-52 0 -52 60z" />
<glyph unicode="&#xc0;" horiz-adv-x="488" d="M441 0h-33q-18 0 -24 19l-40 152h-200l-21.5 -81t-13.5 -48.5t-6 -22.5q-2 -8 -9 -13.5t-15 -5.5h-32q-11 0 -18 7t-7 17q0 5 1 8l177 630q5 18 24 18h40q19 0 24 -18l109 -387l68 -243q1 -3 1 -8q0 -10 -7 -17t-18 -7zM162 243h164q-71 271 -79 326h-7q-9 -54 -78 -326z M175 884h11q14 0 21 -12l65 -91q3 -6 3 -11q0 -9 -8.5 -16t-18.5 -7q-9 0 -17 8l-75 88q-6 7 -6 17t6.5 17t18.5 7z" />
<glyph unicode="&#xc1;" horiz-adv-x="488" d="M441 0h-33q-18 0 -24 19l-40 152h-200l-21.5 -81t-13.5 -48.5t-6 -22.5q-2 -8 -9 -13.5t-15 -5.5h-32q-11 0 -18 7t-7 17q0 5 1 8l177 630q5 18 24 18h40q19 0 24 -18l109 -387l68 -243q1 -3 1 -8q0 -10 -7 -17t-18 -7zM162 243h164q-71 271 -79 326h-7q-9 -54 -78 -326z M299 885h11q12 0 19 -7t7 -17t-7 -17l-76 -87q-6 -8 -16 -8h-16q-13 0 -13 16q0 10 4 15l67 95q6 10 20 10z" />
<glyph unicode="&#xc2;" horiz-adv-x="488" d="M441 0h-33q-18 0 -24 19l-40 152h-200l-21.5 -81t-13.5 -48.5t-6 -22.5q-2 -8 -9 -13.5t-15 -5.5h-32q-11 0 -18 7t-7 17q0 5 1 8l177 630q5 18 24 18h40q19 0 24 -18l109 -387l68 -243q1 -3 1 -8q0 -10 -7 -17t-18 -7zM162 243h164q-71 271 -79 326h-7q-9 -54 -78 -326z M317 748h-9q-15 0 -21 12l-45 75l-46 -75q-6 -12 -21 -12h-9q-11 0 -18 6.5t-7 16.5q0 8 4 15l58 88q7 10 20 10h37q12 0 20 -10l58 -88q4 -7 4 -15q0 -10 -7 -16.5t-18 -6.5z" />
<glyph unicode="&#xc3;" horiz-adv-x="488" d="M408 0h33q11 0 18 7t7 17q0 5 -1 8l-68 243l-109 387q-5 18 -24 18h-40q-19 0 -24 -18l-177 -630q-1 -3 -1 -8q0 -10 7 -17t18 -7h32q8 0 15 5.5t9 13.5q2 9 6 22.5t13.5 48.5l21.5 81h200l40 -152q6 -19 24 -19zM326 243h-164q69 272 78 326h7q4 -24 23.5 -105.5 l37.5 -151.5zM186 864q32 0 69 -25q27 -19 42 -19q16 0 22 22q5 15 22 15q10 0 18.5 -6.5t8.5 -16.5q0 -1 -0.5 -2.5t-0.5 -2.5q-7 -31 -25 -46.5t-40 -15.5q-32 0 -68 24q-32 20 -43 20q-14 0 -23 -24q-6 -14 -21 -14q-10 0 -18.5 6.5t-8.5 16.5q0 4 1 6q7 29 25.5 45.5 t39.5 16.5z" />
<glyph unicode="&#xc4;" horiz-adv-x="488" d="M408 0h33q11 0 18 7t7 17q0 5 -1 8l-68 243l-109 387q-5 18 -24 18h-40q-19 0 -24 -18l-177 -630q-1 -3 -1 -8q0 -10 7 -17t18 -7h32q8 0 15 5.5t9 13.5q2 9 6 22.5t13.5 48.5l21.5 81h200l40 -152q6 -19 24 -19zM326 243h-164q69 272 78 326h7q4 -24 23.5 -105.5 l37.5 -151.5zM287 813q0 20 13 33.5t32 13.5t31.5 -13.5t12.5 -33.5q0 -19 -14 -32.5t-32 -13.5t-30.5 13.5t-12.5 32.5zM113 813q0 20 12.5 33.5t32.5 13.5q17 0 30.5 -14t13.5 -33q0 -18 -13.5 -32t-31.5 -14q-19 0 -31.5 13t-12.5 33z" />
<glyph unicode="&#xc5;" horiz-adv-x="488" d="M408 0h33q11 0 18 7t7 17q0 5 -1 8l-68 243l-109 387q-5 18 -24 18h-40q-19 0 -24 -18l-177 -630q-1 -3 -1 -8q0 -10 7 -17t18 -7h32q8 0 15 5.5t9 13.5q2 9 6 22.5t13.5 48.5l21.5 81h200l40 -152q6 -19 24 -19zM326 243h-164q69 272 78 326h7q4 -24 23.5 -105.5 l37.5 -151.5zM244 906q39 0 66 -26.5t27 -64.5t-27 -64t-66 -26q-38 0 -65 26.5t-27 63.5t27 64t65 27zM244 763q20 0 35 15.5t15 36.5t-15 36t-35 15t-34.5 -14.5t-14.5 -36.5q0 -21 14.5 -36.5t34.5 -15.5z" />
<glyph unicode="&#xc6;" horiz-adv-x="679" d="M428 75h190q10 0 17.5 -7.5t7.5 -17.5v-25q0 -11 -7.5 -18t-17.5 -7h-245q-11 0 -18 7t-7 18v146h-175l-68 -156q-6 -15 -23 -15h-29q-11 0 -18.5 7t-7.5 17q0 5 3 11l285 630q2 5 9.5 10t13.5 5h277q11 0 18 -7t7 -18v-25q0 -10 -7 -17.5t-18 -7.5h-187v-214h164 q10 0 17.5 -7.5t7.5 -17.5v-22q0 -10 -7.5 -17.5t-17.5 -7.5h-164v-244zM204 243h144v326h-10z" />
<glyph unicode="&#xc7;" horiz-adv-x="477" d="M441 93l7 -30v-4q0 -14 -10 -21q-65 -46 -142 -46q-112 0 -184.5 96t-72.5 252t72.5 252t184.5 96q77 0 142 -46q10 -7 10 -21v-4l-7 -29q-5 -20 -22 -20q-10 0 -16 5q-54 39 -104 39q-78 0 -126.5 -77.5t-48.5 -194.5t48.5 -194.5t126.5 -77.5q50 0 104 39q6 5 15 5 q18 0 23 -19zM316 -71q50 -16 50 -60q0 -38 -29 -58t-74 -20q-14 0 -34 4q-16 4 -16 20l2 8q5 16 17 16q4 0 6 -1q19 -4 32 -4q17 0 30 10t13 24q0 12 -12.5 20t-29.5 10q-18 3 -18 20q0 3 2 9l14 29q9 19 23 19q9 0 14.5 -5.5t5.5 -13.5q0 -6 -3 -10l-7 -13l5 -1q5 -1 9 -3 z" />
<glyph unicode="&#xc8;" horiz-adv-x="400" d="M69 25v630q0 11 7.5 18t17.5 7h242q10 0 17.5 -7t7.5 -18v-25q0 -10 -7.5 -17.5t-17.5 -7.5h-188v-214h165q11 0 18 -7.5t7 -17.5v-23q0 -11 -7 -18t-18 -7h-165v-244h191q11 0 18 -7t7 -18v-24q0 -11 -7 -18t-18 -7h-245q-10 0 -17.5 7t-7.5 18zM182 883h11q14 0 21 -12 l65 -91q3 -6 3 -11q0 -9 -8.5 -16t-18.5 -7q-9 0 -17 8l-75 88q-6 8 -6 17q0 10 6.5 17t18.5 7z" />
<glyph unicode="&#xc9;" horiz-adv-x="400" d="M69 25v630q0 11 7.5 18t17.5 7h242q10 0 17.5 -7t7.5 -18v-25q0 -10 -7.5 -17.5t-17.5 -7.5h-188v-214h165q11 0 18 -7.5t7 -17.5v-23q0 -11 -7 -18t-18 -7h-165v-244h191q11 0 18 -7t7 -18v-24q0 -11 -7 -18t-18 -7h-245q-10 0 -17.5 7t-7.5 18zM242 883h11q12 0 19 -7 t7 -17t-7 -17l-76 -87q-6 -8 -16 -8h-16q-13 0 -13 16q0 10 4 15l67 95q6 10 20 10z" />
<glyph unicode="&#xca;" horiz-adv-x="400" d="M69 25v630q0 11 7.5 18t17.5 7h242q10 0 17.5 -7t7.5 -18v-25q0 -10 -7.5 -17.5t-17.5 -7.5h-188v-214h165q11 0 18 -7.5t7 -17.5v-23q0 -11 -7 -18t-18 -7h-165v-244h191q11 0 18 -7t7 -18v-24q0 -11 -7 -18t-18 -7h-245q-10 0 -17.5 7t-7.5 18zM292 748h-9 q-15 0 -21 12l-45 75l-46 -75q-6 -12 -21 -12h-9q-11 0 -18 6.5t-7 16.5q0 8 4 15l58 88q8 10 20 10h37q13 0 20 -10l58 -88q4 -7 4 -15q0 -10 -7 -16.5t-18 -6.5z" />
<glyph unicode="&#xcb;" horiz-adv-x="400" d="M69 25v630q0 11 7.5 18t17.5 7h242q10 0 17.5 -7t7.5 -18v-25q0 -10 -7.5 -17.5t-17.5 -7.5h-188v-214h165q11 0 18 -7.5t7 -17.5v-23q0 -11 -7 -18t-18 -7h-165v-244h191q11 0 18 -7t7 -18v-24q0 -11 -7 -18t-18 -7h-245q-10 0 -17.5 7t-7.5 18zM256 814q0 20 13 33.5 t32 13.5t31.5 -13.5t12.5 -33.5q0 -19 -14 -32.5t-32 -13.5t-30.5 13.5t-12.5 32.5zM82 814q0 20 12.5 33.5t32.5 13.5q17 0 30.5 -14t13.5 -33q0 -18 -13.5 -32t-31.5 -14q-19 0 -31.5 13t-12.5 33z" />
<glyph unicode="&#xcc;" horiz-adv-x="319" d="M41 25v17q0 10 7.5 17.5t17.5 7.5h50v545h-50q-10 0 -17.5 7t-7.5 18v18q0 11 7.5 18t17.5 7h178q10 0 17.5 -7t7.5 -18v-18q0 -11 -7.5 -18t-17.5 -7h-49v-545h49q10 0 17.5 -7.5t7.5 -17.5v-17q0 -11 -7.5 -18t-17.5 -7h-178q-10 0 -17.5 7t-7.5 18zM103 884h11 q14 0 21 -12l65 -91q3 -6 3 -11q0 -9 -8.5 -16t-18.5 -7q-9 0 -17 8l-75 88q-6 7 -6 17t6.5 17t18.5 7z" />
<glyph unicode="&#xcd;" horiz-adv-x="319" d="M41 25v17q0 10 7.5 17.5t17.5 7.5h50v545h-50q-10 0 -17.5 7t-7.5 18v18q0 11 7.5 18t17.5 7h178q10 0 17.5 -7t7.5 -18v-18q0 -11 -7.5 -18t-17.5 -7h-49v-545h49q10 0 17.5 -7.5t7.5 -17.5v-17q0 -11 -7.5 -18t-17.5 -7h-178q-10 0 -17.5 7t-7.5 18zM198 884h11 q12 0 19 -7t7 -17t-7 -17l-76 -87q-6 -8 -16 -8h-16q-13 0 -13 16q0 10 4 15l67 95q6 10 20 10z" />
<glyph unicode="&#xce;" horiz-adv-x="331" d="M46 25v17q0 10 7 17.5t18 7.5h50v545h-50q-11 0 -18 7t-7 18v18q0 11 7 18t18 7h178q11 0 18 -7t7 -18v-18q0 -11 -7 -18t-18 -7h-49v-545h49q11 0 18 -7.5t7 -17.5v-17q0 -11 -7 -18t-18 -7h-178q-11 0 -18 7t-7 18zM235 749h-9q-15 0 -21 12l-45 75l-46 -75 q-6 -12 -21 -12h-9q-11 0 -18 6.5t-7 16.5q0 8 4 15l58 88q7 10 20 10h37q12 0 20 -10l58 -88q4 -7 4 -15q0 -10 -7 -16.5t-18 -6.5z" />
<glyph unicode="&#xcf;" horiz-adv-x="330" d="M46 25v17q0 10 7 17.5t18 7.5h50v545h-50q-11 0 -18 7t-7 18v18q0 11 7 18t18 7h178q11 0 18 -7t7 -18v-18q0 -11 -7 -18t-18 -7h-49v-545h49q11 0 18 -7.5t7 -17.5v-17q0 -11 -7 -18t-18 -7h-178q-11 0 -18 7t-7 18zM205 815q0 20 13 33.5t32 13.5t31.5 -13.5 t12.5 -33.5q0 -19 -14 -32.5t-32 -13.5t-30.5 13.5t-12.5 32.5zM31 815q0 20 12.5 33.5t32.5 13.5q17 0 30.5 -14t13.5 -33q0 -18 -13.5 -32t-31.5 -14q-19 0 -31.5 13t-12.5 33z" />
<glyph unicode="&#xd0;" horiz-adv-x="531" d="M14 339v25q0 10 7 17.5t18 7.5h27v269q0 9 6.5 16.5t15.5 8.5q48 5 116 5q142 0 215 -97.5t73 -251.5q0 -153 -74 -250t-217 -97q-68 0 -113 5q-9 1 -15.5 8.5t-6.5 16.5v292h-27q-11 0 -18 7t-7 18zM409 339q0 131 -51.5 202t-142.5 71q-38 0 -70 -4v-219h30 q11 0 18 -7.5t7 -17.5v-25q0 -11 -7 -18t-18 -7h-30v-243q24 -3 70 -3q90 0 142 71t52 200z" />
<glyph unicode="&#xd1;" horiz-adv-x="559" d="M438 680h26q10 0 17.5 -7t7.5 -18v-630q0 -11 -7.5 -18t-17.5 -7h-45q-17 0 -23 14l-251 522h-4q4 -60 4 -115v-396q0 -11 -7.5 -18t-17.5 -7h-26q-10 0 -17.5 7t-7.5 18v630q0 11 7.5 18t17.5 7h47q17 0 23 -14l249 -518h4q-3 73 -4 87v420q0 11 7.5 18t17.5 7zM220 866 q32 0 69 -25q27 -19 42 -19q16 0 22 22q5 15 22 15q10 0 18.5 -6.5t8.5 -16.5q0 -1 -0.5 -2.5t-0.5 -2.5q-7 -31 -25 -46.5t-40 -15.5q-32 0 -68 24q-32 20 -43 20q-14 0 -23 -24q-6 -14 -21 -14q-10 0 -18.5 6.5t-8.5 16.5q0 4 1 6q7 29 25.5 45.5t39.5 16.5z" />
<glyph unicode="&#xd2;" horiz-adv-x="571" d="M285 688q114 0 180.5 -99t66.5 -249q0 -152 -66.5 -250t-180.5 -98t-180 98t-66 250q0 150 66.5 249t179.5 99zM285 71q75 0 119.5 73.5t44.5 195.5t-44.5 196t-119.5 74q-74 0 -118 -74t-44 -196t44 -195.5t118 -73.5zM216 885h11q14 0 21 -12l65 -91q3 -6 3 -11 q0 -9 -8.5 -16t-18.5 -7q-9 0 -17 8l-75 88q-6 8 -6 17q0 10 6.5 17t18.5 7z" />
<glyph unicode="&#xd3;" horiz-adv-x="571" d="M285 688q114 0 180.5 -99t66.5 -249q0 -152 -66.5 -250t-180.5 -98t-180 98t-66 250q0 150 66.5 249t179.5 99zM285 71q75 0 119.5 73.5t44.5 195.5t-44.5 196t-119.5 74q-74 0 -118 -74t-44 -196t44 -195.5t118 -73.5zM340 884h11q12 0 19 -7t7 -17t-7 -17l-76 -87 q-6 -8 -16 -8h-16q-13 0 -13 16q0 10 4 15l67 95q6 10 20 10z" />
<glyph unicode="&#xd4;" horiz-adv-x="571" d="M285 688q114 0 180.5 -99t66.5 -249q0 -152 -66.5 -250t-180.5 -98t-180 98t-66 250q0 150 66.5 249t179.5 99zM285 71q75 0 119.5 73.5t44.5 195.5t-44.5 196t-119.5 74q-74 0 -118 -74t-44 -196t44 -195.5t118 -73.5zM360 748h-9q-15 0 -21 12l-45 75l-46 -75 q-6 -12 -21 -12h-9q-11 0 -18 6.5t-7 16.5q0 8 4 15l58 88q8 10 20 10h37q13 0 20 -10l58 -88q4 -7 4 -15q0 -10 -7 -16.5t-18 -6.5z" />
<glyph unicode="&#xd5;" horiz-adv-x="571" d="M285 688q114 0 180.5 -99t66.5 -249q0 -152 -66.5 -250t-180.5 -98t-180 98t-66 250q0 150 66.5 249t179.5 99zM285 71q75 0 119.5 73.5t44.5 195.5t-44.5 196t-119.5 74q-74 0 -118 -74t-44 -196t44 -195.5t118 -73.5zM230 865q32 0 69 -25q27 -19 42 -19q16 0 22 22 q5 15 22 15q10 0 18.5 -6.5t8.5 -16.5q0 -1 -0.5 -2.5t-0.5 -2.5q-7 -31 -25 -46.5t-40 -15.5q-32 0 -68 24q-32 20 -43 20q-14 0 -23 -24q-6 -14 -21 -14q-10 0 -18.5 6.5t-8.5 16.5q0 4 1 6q7 29 25.5 45.5t39.5 16.5z" />
<glyph unicode="&#xd6;" horiz-adv-x="571" d="M285 688q114 0 180.5 -99t66.5 -249q0 -152 -66.5 -250t-180.5 -98t-180 98t-66 250q0 150 66.5 249t179.5 99zM285 71q75 0 119.5 73.5t44.5 195.5t-44.5 196t-119.5 74q-74 0 -118 -74t-44 -196t44 -195.5t118 -73.5zM331 811q0 20 13 33.5t32 13.5t31.5 -13.5 t12.5 -33.5q0 -19 -14 -32.5t-32 -13.5t-30.5 13.5t-12.5 32.5zM157 811q0 20 12.5 33.5t32.5 13.5q17 0 30.5 -14t13.5 -33q0 -18 -13.5 -32t-31.5 -14q-19 0 -31.5 13t-12.5 33z" />
<glyph unicode="&#xd7;" horiz-adv-x="562" d="M505 404l-169 -168l168 -168q8 -8 8 -19q0 -10 -7 -17l-14 -15q-8 -8 -18 -8t-18 8l-170 168l-169 -168q-8 -8 -18 -8t-18 8l-14 14q-7 7 -7 17q0 11 8 19l169 169l-170 168q-7 7 -7 18q0 10 5 16l14 15q8 10 20 10q10 0 18 -8l169 -169l170 169q8 8 18 8q12 0 20 -10 l14 -15q5 -6 5 -16q0 -11 -7 -18z" />
<glyph unicode="&#xd8;" horiz-adv-x="571" d="M475 682l-29 -67q41 -46 63.5 -119t22.5 -156q0 -152 -66.5 -250t-180.5 -98q-58 0 -109 32q-21 -45 -23 -50q-7 -15 -24 -15q-1 0 -2.5 0.5t-2.5 0.5l-12 5q-19 5 -19 23q0 3 2 11l31 66q-87 97 -87 275q0 150 66.5 249t179.5 99q58 0 110 -32l23 50q7 15 24 15 q5 0 7 -1l11 -5q17 -6 17 -23q0 -4 -2 -10zM165 153l198 430q-37 27 -78 27q-74 0 -118 -74t-44 -196q0 -108 42 -187zM449 340q0 110 -43 187l-198 -430q36 -26 77 -26q75 0 119.5 73.5t44.5 195.5z" />
<glyph unicode="&#xd9;" horiz-adv-x="546" d="M422 680h30q10 0 17.5 -7t7.5 -18v-444q0 -97 -58.5 -158t-145.5 -61q-86 0 -144.5 61t-58.5 158v444q0 11 7 18t18 7h29q10 0 17.5 -7t7.5 -18v-446q0 -61 35.5 -99.5t88.5 -38.5t88.5 38.5t35.5 99.5v446q0 11 7.5 18t17.5 7zM212 884h11q14 0 21 -12l65 -91 q3 -6 3 -11q0 -9 -8.5 -16t-18.5 -7q-9 0 -17 8l-75 88q-6 7 -6 17t6.5 17t18.5 7z" />
<glyph unicode="&#xda;" horiz-adv-x="546" d="M422 680h30q10 0 17.5 -7t7.5 -18v-444q0 -97 -58.5 -158t-145.5 -61q-86 0 -144.5 61t-58.5 158v444q0 11 7 18t18 7h29q10 0 17.5 -7t7.5 -18v-446q0 -61 35.5 -99.5t88.5 -38.5t88.5 38.5t35.5 99.5v446q0 11 7.5 18t17.5 7zM326 885h11q12 0 19 -7t7 -17t-7 -17 l-76 -87q-6 -8 -16 -8h-16q-13 0 -13 16q0 10 4 15l67 95q6 10 20 10z" />
<glyph unicode="&#xdb;" horiz-adv-x="546" d="M422 680h30q10 0 17.5 -7t7.5 -18v-444q0 -97 -58.5 -158t-145.5 -61q-86 0 -144.5 61t-58.5 158v444q0 11 7 18t18 7h29q10 0 17.5 -7t7.5 -18v-446q0 -61 35.5 -99.5t88.5 -38.5t88.5 38.5t35.5 99.5v446q0 11 7.5 18t17.5 7zM347 748h-9q-15 0 -21 12l-45 75l-46 -75 q-6 -12 -21 -12h-9q-11 0 -18 6.5t-7 16.5q0 8 4 15l58 88q7 10 20 10h37q12 0 20 -10l58 -88q4 -7 4 -15q0 -10 -7 -16.5t-18 -6.5z" />
<glyph unicode="&#xdc;" horiz-adv-x="546" d="M422 680h30q10 0 17.5 -7t7.5 -18v-444q0 -97 -58.5 -158t-145.5 -61q-86 0 -144.5 61t-58.5 158v444q0 11 7 18t18 7h29q10 0 17.5 -7t7.5 -18v-446q0 -61 35.5 -99.5t88.5 -38.5t88.5 38.5t35.5 99.5v446q0 11 7.5 18t17.5 7zM318 810q0 20 13 33.5t32 13.5t31.5 -13.5 t12.5 -33.5q0 -19 -14 -32.5t-32 -13.5t-30.5 13.5t-12.5 32.5zM144 810q0 20 12.5 33.5t32.5 13.5q17 0 30.5 -14t13.5 -33q0 -18 -13.5 -32t-31.5 -14q-19 0 -31.5 13t-12.5 33z" />
<glyph unicode="&#xdd;" horiz-adv-x="446" d="M221 389h4q16 49 109 276q6 15 23 15h34q11 0 18.5 -7t7.5 -17q0 -5 -3 -11l-151 -353v-267q0 -11 -7.5 -18t-17.5 -7h-30q-10 0 -17.5 7t-7.5 18v270l-150 350q-2 8 -2 11q0 10 7 17t18 7h34q16 0 22 -15q93 -227 109 -276zM271 881h11q12 0 19 -7t7 -17t-7 -17l-76 -87 q-6 -8 -16 -8h-16q-13 0 -13 16q0 10 4 15l67 95q6 10 20 10z" />
<glyph unicode="&#xde;" horiz-adv-x="434" d="M394 337q0 -98 -47.5 -156.5t-116.5 -58.5h-82v-97q0 -11 -7 -18t-18 -7h-29q-10 0 -17.5 7t-7.5 18v630q0 11 7.5 18t17.5 7h29q11 0 18 -7t7 -18v-101q30 1 50 1q102 0 149 -63t47 -155zM312 337q0 60 -25.5 101t-80.5 41q-34 0 -58 -4v-278h68q43 0 69.5 38.5 t26.5 101.5z" />
<glyph unicode="&#xdf;" horiz-adv-x="462" d="M303 -8q-51 0 -109 30q-14 7 -14 23q0 4 1 6q4 14 8 22q8 14 22 14q8 0 13 -4q37 -23 72 -23q24 0 39.5 17.5t15.5 52.5q0 49 -55 83q-31 16 -47.5 26t-36 26t-28 34.5t-8.5 41.5q0 21 13.5 41.5t27.5 32.5t39 29q23 16 33.5 24t21.5 23.5t11 31.5q0 46 -32.5 75.5 t-71.5 29.5q-88 0 -88 -105v-498q0 -11 -7 -18t-18 -7h-24q-11 0 -18 7t-7 18v498q0 81 45.5 123t116.5 42q68 0 119.5 -47t51.5 -118q0 -26 -15 -51t-30 -38.5t-39 -30.5q-51 -35 -51 -57q0 -29 77 -71q98 -56 98 -139q0 -70 -35.5 -107t-90.5 -37z" />
<glyph unicode="&#xe0;" d="M304 20l-6 34h-7q-31 -61 -103 -61q-71 0 -113.5 67.5t-42.5 176.5t45 177t116 68q58 0 103 -41l2 12q4 21 25 21h8q11 0 18 -7t7 -18v-264q0 -79 11 -156v-4q0 -11 -7 -18t-18 -7h-13q-8 0 -16 6t-9 14zM281 149v225q-34 39 -75 39q-44 0 -69.5 -48.5t-25.5 -127.5 q0 -80 24.5 -129t67.5 -49q31 0 51 27.5t27 62.5zM147 680h11q14 0 21 -12l65 -91q3 -6 3 -11q0 -9 -8.5 -16t-18.5 -7q-9 0 -17 8l-75 88q-6 7 -6 17t6.5 17t18.5 7z" />
<glyph unicode="&#xe1;" d="M304 20l-6 34h-7q-31 -61 -103 -61q-71 0 -113.5 67.5t-42.5 176.5t45 177t116 68q58 0 103 -41l2 12q4 21 25 21h8q11 0 18 -7t7 -18v-264q0 -79 11 -156v-4q0 -11 -7 -18t-18 -7h-13q-8 0 -16 6t-9 14zM281 149v225q-34 39 -75 39q-44 0 -69.5 -48.5t-25.5 -127.5 q0 -80 24.5 -129t67.5 -49q31 0 51 27.5t27 62.5zM252 680h11q12 0 19 -7t7 -17t-7 -17l-76 -87q-6 -8 -16 -8h-16q-13 0 -13 16q0 10 4 15l67 95q6 10 20 10z" />
<glyph unicode="&#xe2;" d="M304 20l-6 34h-7q-31 -61 -103 -61q-71 0 -113.5 67.5t-42.5 176.5t45 177t116 68q58 0 103 -41l2 12q4 21 25 21h8q11 0 18 -7t7 -18v-264q0 -79 11 -156v-4q0 -11 -7 -18t-18 -7h-13q-8 0 -16 6t-9 14zM281 149v225q-34 39 -75 39q-44 0 -69.5 -48.5t-25.5 -127.5 q0 -80 24.5 -129t67.5 -49q31 0 51 27.5t27 62.5zM278 544h-9q-15 0 -21 12l-45 75l-46 -75q-6 -12 -21 -12h-9q-11 0 -18 6.5t-7 16.5q0 8 4 15l58 88q8 10 20 10h37q13 0 20 -10l58 -88q4 -7 4 -15q0 -10 -7 -16.5t-18 -6.5z" />
<glyph unicode="&#xe3;" d="M298 54l6 -34q1 -8 9 -14t16 -6h13q11 0 18 7t7 18v4q-11 77 -11 156v264q0 11 -7 18t-18 7h-8q-21 0 -25 -21l-2 -12q-45 41 -103 41q-71 0 -116 -68t-45 -177t42.5 -176.5t113.5 -67.5q72 0 103 61h7zM281 374v-225q-7 -35 -27 -62.5t-51 -27.5q-43 0 -67.5 49 t-24.5 129q0 79 25.5 127.5t69.5 48.5q41 0 75 -39zM148 661q32 0 69 -25q27 -19 42 -19q16 0 22 22q5 15 22 15q10 0 18.5 -6.5t8.5 -16.5q0 -1 -0.5 -2.5t-0.5 -2.5q-7 -31 -25 -46.5t-40 -15.5q-32 0 -68 24q-32 20 -43 20q-14 0 -23 -24q-6 -14 -21 -14q-10 0 -18.5 6.5 t-8.5 16.5q0 4 1 6q7 29 25.5 45.5t39.5 16.5z" />
<glyph unicode="&#xe4;" d="M298 54l6 -34q1 -8 9 -14t16 -6h13q11 0 18 7t7 18v4q-11 77 -11 156v264q0 11 -7 18t-18 7h-8q-21 0 -25 -21l-2 -12q-45 41 -103 41q-71 0 -116 -68t-45 -177t42.5 -176.5t113.5 -67.5q72 0 103 61h7zM281 374v-225q-7 -35 -27 -62.5t-51 -27.5q-43 0 -67.5 49 t-24.5 129q0 79 25.5 127.5t69.5 48.5q41 0 75 -39zM250 611q0 20 13 33.5t32 13.5t31.5 -13.5t12.5 -33.5q0 -19 -14 -32.5t-32 -13.5t-30.5 13.5t-12.5 32.5zM76 611q0 20 12.5 33.5t32.5 13.5q17 0 30.5 -14t13.5 -33q0 -18 -13.5 -32t-31.5 -14q-19 0 -31.5 13t-12.5 33 z" />
<glyph unicode="&#xe5;" d="M298 54l6 -34q1 -8 9 -14t16 -6h13q11 0 18 7t7 18v4q-11 77 -11 156v264q0 11 -7 18t-18 7h-8q-21 0 -25 -21l-2 -12q-45 41 -103 41q-71 0 -116 -68t-45 -177t42.5 -176.5t113.5 -67.5q72 0 103 61h7zM281 374v-225q-7 -35 -27 -62.5t-51 -27.5q-43 0 -67.5 49 t-24.5 129q0 79 25.5 127.5t69.5 48.5q41 0 75 -39zM207 703q39 0 66 -26.5t27 -64.5t-27 -64t-66 -26q-38 0 -65 26.5t-27 63.5t27 64t65 27zM207 560q20 0 35 15.5t15 36.5q0 22 -14.5 36.5t-35.5 14.5q-20 0 -34.5 -14.5t-14.5 -36.5q0 -21 14.5 -36.5t34.5 -15.5z" />
<glyph unicode="&#xe6;" horiz-adv-x="626" d="M568 218h-214q0 -72 27.5 -115.5t69.5 -43.5q46 0 88 21q6 3 13 3q20 0 23 -20l4 -15v-4q0 -16 -14 -23q-56 -29 -116 -29q-37 0 -71.5 19t-55.5 58h-6q-38 -77 -117 -77q-75 0 -121 68t-46 177q0 111 45 178t124 67q57 0 109 -14q17 -4 19 -21l3 -34h5q18 36 50.5 52.5 t61.5 16.5q66 0 105 -52.5t39 -149.5v-37q0 -11 -7.5 -18t-17.5 -7zM280 111v291q-29 12 -75 12q-44 0 -69.5 -49t-25.5 -129q0 -79 25.5 -127.5t70.5 -48.5t74 51zM355 275h168v17q0 57 -19 92t-55 35q-39 0 -66 -40.5t-28 -103.5z" />
<glyph unicode="&#xe7;" horiz-adv-x="354" d="M281 80q6 3 11 3q9 0 16.5 -6t8.5 -16l5 -17v-4q0 -16 -14 -23q-52 -25 -101 -25q-71 0 -122.5 62t-51.5 183q0 120 51.5 182.5t122.5 62.5q49 0 101 -25q14 -7 14 -23v-4l-5 -17q-3 -21 -24 -21q-7 0 -13 3q-34 17 -67 17q-48 0 -74.5 -47.5t-26.5 -127.5t26.5 -127.5 t74.5 -47.5q30 0 68 18zM225 -70q50 -16 50 -60q0 -38 -28.5 -58t-74.5 -20q-14 0 -34 4q-16 4 -16 20l2 8q5 16 17 16q4 0 6 -1q19 -4 32 -4q17 0 30 10t13 24q0 12 -12.5 20t-29.5 10q-18 3 -18 20q0 3 2 9l14 29q10 19 23 19q9 0 14.5 -5.5t5.5 -13.5q0 -5 -3 -10l-7 -13 l5 -1q5 -1 9 -3z" />
<glyph unicode="&#xe8;" horiz-adv-x="384" d="M296 81q6 3 13 3q20 0 23 -20l5 -16v-4q0 -16 -14 -23q-56 -29 -116 -29q-71 0 -122.5 62t-51.5 183q0 120 51.5 182.5t122.5 62.5q66 0 105 -52.5t39 -149.5v-37q0 -11 -7.5 -18t-17.5 -7h-215q1 -75 28.5 -117t69.5 -42q43 0 87 22zM111 275h170v20q0 55 -19 89.5 t-55 34.5q-39 0 -64.5 -37.5t-31.5 -106.5zM140 680h11q14 0 21 -12l65 -91q3 -6 3 -11q0 -9 -8.5 -16t-18.5 -7q-9 0 -17 8l-75 88q-6 7 -6 17t6.5 17t18.5 7z" />
<glyph unicode="&#xe9;" horiz-adv-x="384" d="M296 81q6 3 13 3q20 0 23 -20l5 -16v-4q0 -16 -14 -23q-56 -29 -116 -29q-71 0 -122.5 62t-51.5 183q0 120 51.5 182.5t122.5 62.5q66 0 105 -52.5t39 -149.5v-37q0 -11 -7.5 -18t-17.5 -7h-215q1 -75 28.5 -117t69.5 -42q43 0 87 22zM111 275h170v20q0 55 -19 89.5 t-55 34.5q-39 0 -64.5 -37.5t-31.5 -106.5zM258 680h11q12 0 19 -7t7 -17t-7 -17l-76 -87q-6 -8 -16 -8h-16q-13 0 -13 16q0 10 4 15l67 95q6 10 20 10z" />
<glyph unicode="&#xea;" horiz-adv-x="384" d="M296 81q6 3 13 3q20 0 23 -20l5 -16v-4q0 -16 -14 -23q-56 -29 -116 -29q-71 0 -122.5 62t-51.5 183q0 120 51.5 182.5t122.5 62.5q66 0 105 -52.5t39 -149.5v-37q0 -11 -7.5 -18t-17.5 -7h-215q1 -75 28.5 -117t69.5 -42q43 0 87 22zM111 275h170v20q0 55 -19 89.5 t-55 34.5q-39 0 -64.5 -37.5t-31.5 -106.5zM279 544h-9q-15 0 -21 12l-45 75l-46 -75q-6 -12 -21 -12h-9q-11 0 -18 6.5t-7 16.5q0 8 4 15l58 88q7 10 20 10h37q12 0 20 -10l58 -88q4 -7 4 -15q0 -10 -7 -16.5t-18 -6.5z" />
<glyph unicode="&#xeb;" horiz-adv-x="384" d="M296 81q-44 -22 -87 -22q-42 0 -69.5 42t-28.5 117h215q10 0 17.5 7t7.5 18v37q0 97 -39 149.5t-105 52.5q-71 0 -122.5 -62.5t-51.5 -182.5q0 -121 51.5 -183t122.5 -62q60 0 116 29q14 7 14 23v4l-5 16q-3 20 -23 20q-7 0 -13 -3zM111 275q6 69 31.5 106.5t64.5 37.5 q36 0 55 -34.5t19 -89.5v-20h-170zM250 611q0 20 13 33.5t32 13.5t31.5 -13.5t12.5 -33.5q0 -19 -14 -32.5t-32 -13.5t-30.5 13.5t-12.5 32.5zM76 611q0 20 12.5 33.5t32.5 13.5q17 0 30.5 -14t13.5 -33q0 -18 -13.5 -32t-31.5 -14q-19 0 -31.5 13t-12.5 33z" />
<glyph unicode="&#xec;" horiz-adv-x="178" d="M11 680h11q14 0 21 -12l65 -91q3 -6 3 -11q0 -9 -8.5 -16t-18.5 -7q-9 0 -17 8l-75 88q-6 7 -6 17t6.5 17t18.5 7zM124 449v-424q0 -11 -7 -18t-18 -7h-24q-11 0 -18 7t-7 18v424q0 11 7 18t18 7h24q11 0 18 -7t7 -18z" />
<glyph unicode="&#xed;" horiz-adv-x="178" d="M144 680h11q12 0 19 -7t7 -17t-7 -17l-76 -87q-6 -8 -16 -8h-16q-13 0 -13 16q0 10 4 15l67 95q6 10 20 10zM124 449v-424q0 -11 -7 -18t-18 -7h-24q-11 0 -18 7t-7 18v424q0 11 7 18t18 7h24q11 0 18 -7t7 -18z" />
<glyph unicode="&#xee;" horiz-adv-x="178" d="M124 449v-424q0 -11 -7 -18t-18 -7h-24q-11 0 -18 7t-7 18v424q0 11 7 18t18 7h24q11 0 18 -7t7 -18zM159 544h-9q-15 0 -21 12l-45 75l-46 -75q-6 -12 -21 -12h-9q-11 0 -18 6.5t-7 16.5q0 8 4 15l58 88q7 10 20 10h37q12 0 20 -10l58 -88q4 -7 4 -15q0 -10 -7 -16.5 t-18 -6.5z" />
<glyph unicode="&#xef;" horiz-adv-x="178" d="M128 611q0 20 13 33.5t32 13.5t31.5 -13.5t12.5 -33.5q0 -19 -14 -32.5t-32 -13.5t-30.5 13.5t-12.5 32.5zM-46 611q0 20 12.5 33.5t32.5 13.5q17 0 30.5 -14t13.5 -33q0 -18 -13.5 -32t-31.5 -14q-19 0 -31.5 13t-12.5 33zM124 449v-424q0 -11 -7 -18t-18 -7h-24 q-11 0 -18 7t-7 18v424q0 11 7 18t18 7h24q11 0 18 -7t7 -18z" />
<glyph unicode="&#xf0;" horiz-adv-x="421" d="M379 248q0 -121 -51 -188.5t-123 -67.5q-69 0 -121.5 65t-52.5 180q0 114 50 179.5t110 65.5q39 0 74 -29l4 4q-24 54 -63 107l-91 -43q-8 -2 -10 -2q-8 0 -13 10l-3 8q-2 6 -2 8q0 4 2.5 8t4.5 6l2 2l80 37q-26 29 -58 54q-8 5 -8 14q0 8 8 14l23 18q6 6 11 6q4 0 12 -6 q43 -31 75 -69q75 37 85 41q6 2 7 2q7 0 13 -12l3 -7q3 -7 3 -11q0 -8 -9 -12l-71 -35q109 -145 109 -347zM301 237q0 176 -96 176q-43 0 -69 -49.5t-26 -126.5q0 -78 26 -127.5t69 -49.5q44 0 70 49.5t26 127.5z" />
<glyph unicode="&#xf1;" horiz-adv-x="405" d="M223 482q64 0 94.5 -35t30.5 -110v-312q0 -11 -7 -18t-18 -7h-25q-10 0 -17.5 7t-7.5 18v308q0 44 -16.5 62t-51.5 18q-42 0 -75 -52v-336q0 -11 -7 -18t-18 -7h-24q-11 0 -18 7t-7 18v424q0 11 7 18t18 7h16q22 0 25 -21l3 -21h5q40 50 93 50zM150 661q32 0 69 -25 q27 -19 42 -19q16 0 22 22q5 15 22 15q10 0 18.5 -6.5t8.5 -16.5q0 -1 -0.5 -2.5t-0.5 -2.5q-7 -31 -25 -46.5t-40 -15.5q-32 0 -68 24q-32 20 -43 20q-14 0 -23 -24q-6 -14 -21 -14q-10 0 -18.5 6.5t-8.5 16.5q0 4 1 6q7 29 25.5 45.5t39.5 16.5z" />
<glyph unicode="&#xf2;" d="M206 482q71 0 122 -62.5t51 -182.5q0 -121 -51 -183t-122 -62t-122.5 62t-51.5 183q0 120 51.5 182.5t122.5 62.5zM206 60q45 0 70.5 48.5t25.5 128.5t-25.5 128.5t-70.5 48.5t-70.5 -48t-25.5 -129t25.5 -129t70.5 -48zM140 673h11q14 0 21 -12l65 -91q3 -6 3 -11 q0 -9 -8.5 -16t-18.5 -7q-9 0 -17 8l-75 88q-6 8 -6 17q0 10 6.5 17t18.5 7z" />
<glyph unicode="&#xf3;" d="M206 482q71 0 122 -62.5t51 -182.5q0 -121 -51 -183t-122 -62t-122.5 62t-51.5 183q0 120 51.5 182.5t122.5 62.5zM206 60q45 0 70.5 48.5t25.5 128.5t-25.5 128.5t-70.5 48.5t-70.5 -48t-25.5 -129t25.5 -129t70.5 -48zM261 681h11q12 0 19 -7t7 -17t-7 -17l-76 -87 q-6 -8 -16 -8h-16q-13 0 -13 16q0 10 4 15l67 95q6 10 20 10z" />
<glyph unicode="&#xf4;" d="M206 482q71 0 122 -62.5t51 -182.5q0 -121 -51 -183t-122 -62t-122.5 62t-51.5 183q0 120 51.5 182.5t122.5 62.5zM206 60q45 0 70.5 48.5t25.5 128.5t-25.5 128.5t-70.5 48.5t-70.5 -48t-25.5 -129t25.5 -129t70.5 -48zM279 544h-9q-15 0 -21 12l-45 75l-46 -75 q-6 -12 -21 -12h-9q-11 0 -18 6.5t-7 16.5q0 8 4 15l58 88q7 10 20 10h37q12 0 20 -10l58 -88q4 -7 4 -15q0 -10 -7 -16.5t-18 -6.5z" />
<glyph unicode="&#xf5;" d="M206 482q71 0 122 -62.5t51 -182.5q0 -121 -51 -183t-122 -62t-122.5 62t-51.5 183q0 120 51.5 182.5t122.5 62.5zM206 60q45 0 70.5 48.5t25.5 128.5t-25.5 128.5t-70.5 48.5t-70.5 -48t-25.5 -129t25.5 -129t70.5 -48zM147 661q31 0 69 -25q27 -19 42 -19q16 0 22 22 q4 15 22 15q10 0 18.5 -6.5t8.5 -16.5q0 -1 -0.5 -2.5t-0.5 -2.5q-7 -31 -25 -46.5t-40 -15.5q-32 0 -68 24q-32 20 -43 20q-14 0 -23 -24q-6 -14 -21 -14q-10 0 -18.5 6.5t-8.5 16.5q0 4 1 6q7 29 25.5 45.5t39.5 16.5z" />
<glyph unicode="&#xf6;" d="M206 482q71 0 122 -62.5t51 -182.5q0 -121 -51 -183t-122 -62t-122.5 62t-51.5 183q0 120 51.5 182.5t122.5 62.5zM206 60q45 0 70.5 48.5t25.5 128.5t-25.5 128.5t-70.5 48.5t-70.5 -48t-25.5 -129t25.5 -129t70.5 -48zM249 611q0 20 13 33.5t32 13.5t31.5 -13.5 t12.5 -33.5q0 -19 -14 -32.5t-32 -13.5t-30.5 13.5t-12.5 32.5zM75 611q0 20 12.5 33.5t32.5 13.5q17 0 30.5 -14t13.5 -33q0 -18 -13.5 -32t-31.5 -14q-19 0 -31.5 13t-12.5 33z" />
<glyph unicode="&#xf7;" horiz-adv-x="540" d="M58 273h424q10 0 17.5 -7.5t7.5 -17.5v-22q0 -10 -7.5 -17.5t-17.5 -7.5h-424q-10 0 -17.5 7.5t-7.5 17.5v22q0 10 7.5 17.5t17.5 7.5zM322 68q0 -24 -14 -37.5t-38 -13.5q-23 0 -37.5 14t-14.5 37q0 24 14 38t38 14q52 0 52 -52zM322 405q0 -23 -14 -37t-38 -14 q-23 0 -37.5 14t-14.5 37t14.5 37.5t37.5 14.5q24 0 38 -14t14 -38z" />
<glyph unicode="&#xf8;" d="M349 487l-27 -57q57 -62 57 -192q0 -120 -51 -183t-122 -63q-40 0 -75 22l-19 -42q-7 -17 -19 -17q-4 0 -6 1q-10 3 -20 10q-7 4 -7 11q0 5 3 14l25 56q-56 69 -56 191q0 119 51.5 181.5t122.5 62.5q38 0 73 -18l22 47q5 8 15 8q5 0 17 -4q18 -7 18 -20q0 -2 -2 -8z M129 129l123 269q-23 16 -46 16q-45 0 -70.5 -47.5t-25.5 -128.5q0 -60 19 -109zM301 238q0 59 -20 110l-122 -269q27 -19 47 -19q44 0 69.5 48.5t25.5 129.5z" />
<glyph unicode="&#xf9;" horiz-adv-x="405" d="M181 -8q-64 0 -94.5 35t-30.5 110v312q0 11 7 18t18 7h24q11 0 18 -7t7 -18v-308q0 -44 16.5 -62t51.5 -18q41 0 75 52v336q0 11 7.5 18t17.5 7h25q11 0 18 -7t7 -18v-424q0 -11 -7 -18t-18 -7h-16q-24 0 -25 21l-3 21h-6q-39 -50 -92 -50zM129 680h11q14 0 21 -12 l65 -91q3 -6 3 -11q0 -9 -8.5 -16t-18.5 -7q-9 0 -17 8l-75 88q-6 7 -6 17t6.5 17t18.5 7z" />
<glyph unicode="&#xfa;" horiz-adv-x="405" d="M181 -8q-64 0 -94.5 35t-30.5 110v312q0 11 7 18t18 7h24q11 0 18 -7t7 -18v-308q0 -44 16.5 -62t51.5 -18q41 0 75 52v336q0 11 7.5 18t17.5 7h25q11 0 18 -7t7 -18v-424q0 -11 -7 -18t-18 -7h-16q-24 0 -25 21l-3 21h-6q-39 -50 -92 -50zM249 681h11q12 0 19 -7t7 -17 t-7 -17l-76 -87q-6 -8 -16 -8h-16q-13 0 -13 16q0 10 4 15l67 95q6 10 20 10z" />
<glyph unicode="&#xfb;" horiz-adv-x="405" d="M181 -8q-64 0 -94.5 35t-30.5 110v312q0 11 7 18t18 7h24q11 0 18 -7t7 -18v-308q0 -44 16.5 -62t51.5 -18q41 0 75 52v336q0 11 7.5 18t17.5 7h25q11 0 18 -7t7 -18v-424q0 -11 -7 -18t-18 -7h-16q-24 0 -25 21l-3 21h-6q-39 -50 -92 -50zM269 544h-9q-15 0 -21 12 l-45 75l-46 -75q-6 -12 -21 -12h-9q-11 0 -18 6.5t-7 16.5q0 8 4 15l58 88q7 10 20 10h37q12 0 20 -10l58 -88q4 -7 4 -15q0 -10 -7 -16.5t-18 -6.5z" />
<glyph unicode="&#xfc;" horiz-adv-x="405" d="M181 -8q-64 0 -94.5 35t-30.5 110v312q0 11 7 18t18 7h24q11 0 18 -7t7 -18v-308q0 -44 16.5 -62t51.5 -18q41 0 75 52v336q0 11 7.5 18t17.5 7h25q11 0 18 -7t7 -18v-424q0 -11 -7 -18t-18 -7h-16q-24 0 -25 21l-3 21h-6q-39 -50 -92 -50zM241 611q0 20 13 33.5t32 13.5 t31.5 -13.5t12.5 -33.5q0 -19 -14 -32.5t-32 -13.5t-30.5 13.5t-12.5 32.5zM67 611q0 20 12.5 33.5t32.5 13.5q17 0 30.5 -14t13.5 -33q0 -18 -13.5 -32t-31.5 -14q-19 0 -31.5 13t-12.5 33z" />
<glyph unicode="&#xfd;" horiz-adv-x="366" d="M290 474h27q11 0 18 -7t7 -17q0 -5 -1 -8l-144 -507q-19 -54 -51.5 -87t-85.5 -53q-6 -2 -10 -2q-21 0 -24 21l-5 20v4q0 16 15 23q81 33 102 118q2 10 8 30l-121 433q-1 3 -1 8q0 10 7 17t18 7h27q18 0 24 -19q73 -276 80 -336h5q18 100 81 336q6 19 24 19zM239 680h11 q12 0 19 -7t7 -17t-7 -17l-76 -87q-6 -8 -16 -8h-16q-13 0 -13 16q0 10 4 15l67 95q6 10 20 10z" />
<glyph unicode="&#xfe;" horiz-adv-x="411" d="M378 236q0 -110 -44.5 -177t-118.5 -67q-43 0 -85 32v-205q0 -11 -7 -18t-18 -7h-24q-11 0 -18 7t-7 18v836q0 11 7 18t18 7h24q11 0 18 -7t7 -18v-209h4q31 36 77 36q76 0 121.5 -68t45.5 -178zM301 237q0 79 -26 127.5t-70 48.5t-75 -51v-263q37 -39 76 -39 q44 0 69.5 48.5t25.5 128.5z" />
<glyph unicode="&#xff;" horiz-adv-x="366" d="M317 474h-27q-18 0 -24 -19q-63 -236 -81 -336h-5q-7 60 -80 336q-6 19 -24 19h-27q-11 0 -18 -7t-7 -17q0 -5 1 -8l121 -433q-6 -20 -8 -30q-21 -85 -102 -118q-15 -7 -15 -23v-4l5 -20q3 -21 24 -21q4 0 10 2q53 20 85.5 53t51.5 87l144 507q1 3 1 8q0 10 -7 17t-18 7z M223 611q0 20 13 33.5t32 13.5t31.5 -13.5t12.5 -33.5q0 -19 -14 -32.5t-32 -13.5t-30.5 13.5t-12.5 32.5zM49 611q0 20 12.5 33.5t32.5 13.5q17 0 30.5 -14t13.5 -33q0 -18 -13.5 -32t-31.5 -14q-19 0 -31.5 13t-12.5 33z" />
<glyph unicode="&#x152;" horiz-adv-x="780" d="M449 25v75q-56 -108 -164 -108q-114 0 -180 98t-66 250q0 150 66.5 249t179.5 99q106 0 160 -100h4v67q0 11 7.5 18t17.5 7h241q11 0 18 -7t7 -18v-24q0 -11 -7 -18t-18 -7h-187v-215h164q10 0 17.5 -7.5t7.5 -17.5v-23q0 -11 -7.5 -18t-17.5 -7h-164v-243h191 q11 0 18 -7.5t7 -17.5v-25q0 -11 -7 -18t-18 -7h-245q-10 0 -17.5 7t-7.5 18zM449 340q0 122 -44.5 196t-119.5 74q-74 0 -118 -74t-44 -196t44 -195.5t118 -73.5q75 0 119.5 73.5t44.5 195.5z" />
<glyph unicode="&#x153;" horiz-adv-x="652" d="M619 280v-37q0 -11 -7.5 -18t-17.5 -7h-216q0 -72 28.5 -115.5t70.5 -43.5q47 0 89 21q6 3 13 3q20 0 23 -20l4 -15v-4q0 -16 -14 -23q-55 -29 -117 -29q-42 0 -78 28t-55 80h-6q-18 -52 -53 -80t-77 -28q-71 0 -122.5 62t-51.5 183q0 120 51.5 182.5t122.5 62.5 q88 0 130 -108h6q16 50 54 79t79 29q67 0 105.5 -52.5t38.5 -149.5zM301 237q0 81 -25.5 129t-69.5 48q-45 0 -70.5 -48t-25.5 -129t25.5 -129t70.5 -48q44 0 69.5 48t25.5 129zM379 275h170l1 19q0 55 -19.5 90t-55.5 35q-38 0 -65 -40t-31 -104z" />
<glyph unicode="&#x178;" horiz-adv-x="446" d="M225 389h-4q-16 49 -109 276q-6 15 -22 15h-34q-11 0 -18 -7t-7 -17q0 -3 2 -11l150 -350v-270q0 -11 7.5 -18t17.5 -7h30q10 0 17.5 7t7.5 18v267l151 353q3 6 3 11q0 10 -7.5 17t-18.5 7h-34q-17 0 -23 -15q-93 -227 -109 -276zM265 813q0 20 13 33.5t32 13.5 t31.5 -13.5t12.5 -33.5q0 -19 -14 -32.5t-32 -13.5t-30.5 13.5t-12.5 32.5zM93 813q0 20 12.5 33.5t31.5 13.5q17 0 30.5 -14t13.5 -33q0 -18 -13.5 -32t-31.5 -14t-30.5 13.5t-12.5 32.5z" />
<glyph unicode="&#x2c6;" horiz-adv-x="319" d="M232 544h-9q-15 0 -21 12l-45 75l-46 -75q-6 -12 -21 -12h-9q-11 0 -18 6.5t-7 16.5q0 8 4 15l58 88q8 10 20 10h37q13 0 20 -10l58 -88q4 -7 4 -15q0 -10 -7 -16.5t-18 -6.5z" />
<glyph unicode="&#x2dc;" horiz-adv-x="319" d="M101 661q31 0 69 -25q27 -19 42 -19q16 0 22 22q4 15 22 15q10 0 18.5 -6.5t8.5 -16.5q0 -1 -0.5 -2.5t-0.5 -2.5q-7 -31 -25 -46.5t-40 -15.5q-32 0 -68 24q-32 20 -43 20q-14 0 -23 -24q-6 -14 -21 -14q-10 0 -18.5 6.5t-8.5 16.5q0 4 1 6q7 29 25.5 45.5t39.5 16.5z " />
<glyph unicode="&#x2000;" horiz-adv-x="453" />
<glyph unicode="&#x2001;" horiz-adv-x="906" />
<glyph unicode="&#x2002;" horiz-adv-x="453" />
<glyph unicode="&#x2003;" horiz-adv-x="906" />
<glyph unicode="&#x2004;" horiz-adv-x="302" />
<glyph unicode="&#x2005;" horiz-adv-x="226" />
<glyph unicode="&#x2006;" horiz-adv-x="151" />
<glyph unicode="&#x2007;" horiz-adv-x="151" />
<glyph unicode="&#x2008;" horiz-adv-x="113" />
<glyph unicode="&#x2009;" horiz-adv-x="181" />
<glyph unicode="&#x200a;" horiz-adv-x="50" />
<glyph unicode="&#x2010;" horiz-adv-x="361" d="M318 248v-25q0 -11 -7 -18t-18 -7h-225q-10 0 -17.5 7t-7.5 18v25q0 10 7.5 17.5t17.5 7.5h225q11 0 18 -7.5t7 -17.5z" />
<glyph unicode="&#x2011;" horiz-adv-x="361" d="M318 248v-25q0 -11 -7 -18t-18 -7h-225q-10 0 -17.5 7t-7.5 18v25q0 10 7.5 17.5t17.5 7.5h225q11 0 18 -7.5t7 -17.5z" />
<glyph unicode="&#x2013;" horiz-adv-x="442" d="M419 243v-13q0 -10 -7.5 -17.5t-17.5 -7.5h-345q-11 0 -18 7.5t-7 17.5v13q0 11 7 18t18 7h345q10 0 17.5 -7t7.5 -18z" />
<glyph unicode="&#x2014;" horiz-adv-x="724" d="M701 243v-13q0 -10 -7.5 -17.5t-17.5 -7.5h-627q-11 0 -18 7.5t-7 17.5v13q0 11 7 18t18 7h627q10 0 17.5 -7t7.5 -18z" />
<glyph unicode="&#x2018;" horiz-adv-x="215" d="M152 689q23 -2 23 -25q0 -6 -3 -12q-51 -97 -51 -191q0 -21 -12 -37.5t-33 -16.5t-32.5 17t-11.5 37q0 78 93 218q6 11 22 11q1 0 2.5 -0.5t2.5 -0.5z" />
<glyph unicode="&#x2019;" horiz-adv-x="215" d="M63 405q-25 2 -25 24q0 7 3 13q52 102 52 192q0 21 12 37.5t33 16.5t32.5 -17t11.5 -37q0 -80 -93 -218q-7 -11 -26 -11z" />
<glyph unicode="&#x201a;" horiz-adv-x="215" d="M63 -172q-25 2 -25 24q0 7 3 13q52 102 52 192q0 21 12 37.5t33 16.5t32.5 -17t11.5 -37q0 -80 -93 -218q-7 -11 -26 -11z" />
<glyph unicode="&#x201c;" horiz-adv-x="377" d="M152 689q23 -2 23 -25q0 -6 -3 -12q-51 -97 -51 -191q0 -21 -12 -37.5t-33 -16.5t-32.5 17t-11.5 37q0 78 93 218q6 11 22 11q1 0 2.5 -0.5t2.5 -0.5zM312 690q25 -2 25 -24q0 -7 -3 -13q-52 -102 -52 -192q0 -21 -12 -37.5t-33 -16.5t-32.5 17t-11.5 37q0 80 93 218 q7 11 26 11z" />
<glyph unicode="&#x201d;" horiz-adv-x="377" d="M223 406q-23 2 -23 24q0 6 3 13q51 97 51 191q0 21 12 37.5t33 16.5t32.5 -17t11.5 -37q0 -78 -93 -218q-6 -11 -22 -11q-1 0 -2.5 0.5t-2.5 0.5zM63 405q-25 2 -25 24q0 7 3 13q52 102 52 192q0 21 12 37.5t33 16.5t32.5 -17t11.5 -37q0 -80 -93 -218q-7 -11 -26 -11z " />
<glyph unicode="&#x201e;" horiz-adv-x="377" d="M223 -171q-23 2 -23 24q0 7 3 13q51 97 51 191q0 21 12 37.5t33 16.5t32.5 -17t11.5 -37q0 -78 -93 -218q-6 -11 -22 -11q-1 0 -2.5 0.5t-2.5 0.5zM63 -172q-25 2 -25 24q0 7 3 13q52 102 52 192q0 21 12 37.5t33 16.5t32.5 -17t11.5 -37q0 -80 -93 -218q-7 -11 -26 -11z " />
<glyph unicode="&#x2022;" horiz-adv-x="355" d="M176 471q55 0 93 -38.5t38 -92.5q0 -55 -38 -94t-93 -39q-53 0 -90.5 39t-37.5 94q0 54 37.5 92.5t90.5 38.5z" />
<glyph unicode="&#x2026;" horiz-adv-x="762" d="M178 53q0 -28 -14 -44.5t-38 -16.5q-23 0 -37 16.5t-14 44.5t14 44t37 16q52 0 52 -60zM432 53q0 -28 -14 -44.5t-38 -16.5q-22 0 -36.5 17t-14.5 44q0 28 14.5 44t36.5 16q52 0 52 -60zM686 53q0 -28 -14 -44.5t-37 -16.5t-37.5 16.5t-14.5 44.5t14 44t38 16 q23 0 37 -16t14 -44z" />
<glyph unicode="&#x202f;" horiz-adv-x="181" />
<glyph unicode="&#x2039;" horiz-adv-x="263" d="M196 0h-25q-16 0 -22 12l-121 213q-2 3 -2 12t2 12l121 212q7 13 22 13h25q12 0 19 -6.5t7 -16.5q0 -7 -4 -14l-113 -201l113 -199q4 -8 4 -13q0 -10 -7.5 -17t-18.5 -7z" />
<glyph unicode="&#x203a;" horiz-adv-x="263" d="M90 0h-25q-12 0 -19 6.5t-7 16.5q0 7 4 14l113 201l-113 199q-4 8 -4 13q0 10 7.5 17t18.5 7h25q16 0 22 -12l121 -213q2 -6 2 -12t-2 -12l-121 -212q-2 -4 -9.5 -8.5t-12.5 -4.5z" />
<glyph unicode="&#x205f;" horiz-adv-x="226" />
<glyph unicode="&#x20ac;" horiz-adv-x="462" d="M423 66l8 -30q0 -1 0.5 -3t0.5 -3q0 -17 -16 -22q-44 -16 -83 -16q-98 0 -165 60t-86 189h-25q-11 0 -18 7.5t-7 17.5v4q0 10 7 17.5t18 7.5h20v90h-20q-11 0 -18 7.5t-7 17.5v5q0 11 7 18t18 7h25q19 129 86 188.5t165 59.5q41 0 83 -15q16 -5 16 -22q0 -1 -0.5 -3 t-0.5 -3l-7 -28q-5 -20 -24 -20q-4 0 -10 2q-30 13 -63 13q-62 0 -104.5 -43t-54.5 -129h179q11 0 18 -7t7 -18v-5q0 -10 -7 -17.5t-18 -7.5h-185q-2 -32 -2 -45t2 -45h185q11 0 18 -7.5t7 -17.5v-4q0 -10 -7 -17.5t-18 -7.5h-180q14 -88 56.5 -130.5t103.5 -42.5 q29 0 63 14q6 2 10 2q18 0 23 -18z" />
<glyph unicode="&#x2122;" horiz-adv-x="471" d="M170 640h-42v-223q0 -7 -5 -12.5t-13 -5.5h-11q-7 0 -12.5 5.5t-5.5 12.5v223h-43q-8 0 -13 5t-5 13v4q0 8 5 13t13 5h132q8 0 13 -5t5 -13v-4q0 -8 -5 -13t-13 -5zM371 593l-49 -102q-3 -5 -9 -5q-7 0 -10 6l-50 98l-4 -173q0 -7 -5.5 -12.5t-12.5 -5.5h-10 q-7 0 -12.5 5.5t-5.5 12.5l6 245q2 18 19 18h12q17 0 26 -16l47 -97l23.5 50l22.5 47q6 16 28 16h10q7 0 12.5 -5t5.5 -13l6 -245q0 -18 -17 -18h-9q-17 0 -19 18q-3 137 -5 176z" />
</font>
</defs>
</svg>
